<svg width="48" height="48" viewBox="0 0 48 48" fill="none" xmlns="http://www.w3.org/2000/svg">
<path d="M16 16H16.02M9.12548 5.87451L5.87452 9.12548C5.18271 9.81729 4.83681 10.1632 4.58944 10.5669C4.37013 10.9247 4.20851 11.3149 4.11052 11.7231C4 12.1834 4 12.6726 4 13.651L4 19.349C4 20.3274 4 20.8166 4.11052 21.2769C4.20851 21.6851 4.37012 22.0752 4.58944 22.4331C4.83681 22.8368 5.18271 23.1827 5.87451 23.8745L21.2118 39.2118C23.5879 41.5879 24.7759 42.7759 26.1459 43.221C27.3509 43.6126 28.649 43.6126 29.8541 43.221C31.2241 42.7759 32.4121 41.5879 34.7882 39.2118L39.2118 34.7882C41.5879 32.4121 42.7759 31.2241 43.221 29.8541C43.6126 28.649 43.6126 27.351 43.221 26.1459C42.7759 24.7759 41.5879 23.5879 39.2118 21.2118L23.8745 5.87452C23.1827 5.18271 22.8368 4.83681 22.4331 4.58944C22.0752 4.37013 21.6851 4.20851 21.2769 4.11052C20.8166 4 20.3274 4 19.349 4L13.651 4C12.6726 4 12.1834 4 11.7231 4.11052C11.3149 4.20851 10.9247 4.37012 10.5669 4.58944C10.1632 4.83681 9.81729 5.18271 9.12548 5.87451ZM17 16C17 16.5523 16.5523 17 16 17C15.4477 17 15 16.5523 15 16C15 15.4477 15.4477 15 16 15C16.5523 15 17 15.4477 17 16Z" stroke="#29A1F8" stroke-width="2" stroke-linecap="round" stroke-linejoin="round"/>
</svg>
