<svg width="220" height="154" viewBox="0 0 220 154" fill="none" xmlns="http://www.w3.org/2000/svg">
<rect x="0.5" y="0.5" width="219" height="153" stroke="#DCE3EB"/>
<path d="M48 33.3334H24M41.3333 22.6667V28M30.6667 22.6667V28M30.4 49.3334H41.6C43.8402 49.3334 44.9603 49.3334 45.816 48.8974C46.5686 48.5139 47.1805 47.902 47.564 47.1493C48 46.2937 48 45.1736 48 42.9334V31.7334C48 29.4931 48 28.373 47.564 27.5174C47.1805 26.7647 46.5686 26.1528 45.816 25.7693C44.9603 25.3334 43.8402 25.3334 41.6 25.3334H30.4C28.1598 25.3334 27.0397 25.3334 26.184 25.7693C25.4314 26.1528 24.8195 26.7647 24.436 27.5174C24 28.373 24 29.4931 24 31.7334V42.9334C24 45.1736 24 46.2937 24.436 47.1493C24.8195 47.902 25.4314 48.5139 26.184 48.8974C27.0397 49.3334 28.1598 49.3334 30.4 49.3334Z" stroke="#29A1F8" stroke-width="2" stroke-linecap="round" stroke-linejoin="round"/>
<path d="M21.652 84V74.2H25.726C26.762 74.2 27.574 74.4147 28.162 74.844C28.7593 75.264 29.058 75.8847 29.058 76.706C29.058 77.518 28.7733 78.134 28.204 78.554C27.6347 78.9647 26.888 79.17 25.964 79.17L26.202 78.82C27.294 78.82 28.1247 79.0347 28.694 79.464C29.2633 79.8933 29.548 80.5233 29.548 81.354C29.548 82.194 29.2493 82.8473 28.652 83.314C28.064 83.7713 27.1773 84 25.992 84H21.652ZM22.674 83.174H25.992C26.8227 83.174 27.4527 83.02 27.882 82.712C28.3113 82.404 28.526 81.928 28.526 81.284C28.526 80.6493 28.3113 80.1827 27.882 79.884C27.4527 79.5853 26.8227 79.436 25.992 79.436H22.674V83.174ZM22.674 78.638H25.67C26.426 78.638 27.0047 78.4887 27.406 78.19C27.8167 77.882 28.022 77.4293 28.022 76.832C28.022 76.2347 27.8167 75.7867 27.406 75.488C27.0047 75.18 26.426 75.026 25.67 75.026H22.674V78.638ZM35.5644 84V76.65H36.5584V79.898H41.1924V76.65H42.1864V84H41.1924V80.752H36.5584V84H35.5644ZM49.5757 84V82.376L49.5337 82.11V79.394C49.5337 78.7687 49.3563 78.288 49.0017 77.952C48.6563 77.616 48.1383 77.448 47.4477 77.448C46.9717 77.448 46.519 77.5273 46.0897 77.686C45.6603 77.8447 45.2963 78.0547 44.9977 78.316L44.5497 77.574C44.923 77.2567 45.371 77.014 45.8937 76.846C46.4163 76.6687 46.967 76.58 47.5457 76.58C48.4977 76.58 49.2303 76.818 49.7437 77.294C50.2663 77.7607 50.5277 78.4747 50.5277 79.436V84H49.5757ZM47.0417 84.07C46.491 84.07 46.0103 83.9813 45.5997 83.804C45.1983 83.6173 44.8903 83.3653 44.6757 83.048C44.461 82.7213 44.3537 82.348 44.3537 81.928C44.3537 81.5453 44.4423 81.2 44.6197 80.892C44.8063 80.5747 45.105 80.3227 45.5157 80.136C45.9357 79.94 46.4957 79.842 47.1957 79.842H49.7297V80.584H47.2237C46.5143 80.584 46.0197 80.71 45.7397 80.962C45.469 81.214 45.3337 81.5267 45.3337 81.9C45.3337 82.32 45.497 82.656 45.8237 82.908C46.1503 83.16 46.6077 83.286 47.1957 83.286C47.7557 83.286 48.2363 83.16 48.6377 82.908C49.0483 82.6467 49.347 82.2733 49.5337 81.788L49.7577 82.474C49.571 82.9593 49.2443 83.3467 48.7777 83.636C48.3203 83.9253 47.7417 84.07 47.0417 84.07ZM51.8298 83.986L51.8998 83.132C51.9651 83.1413 52.0258 83.1553 52.0818 83.174C52.1471 83.1833 52.2031 83.188 52.2498 83.188C52.5484 83.188 52.7864 83.076 52.9638 82.852C53.1504 82.628 53.2904 82.3293 53.3838 81.956C53.4771 81.5827 53.5424 81.1627 53.5798 80.696C53.6171 80.22 53.6498 79.744 53.6778 79.268L53.8038 76.65H59.1938V84H58.1998V77.224L58.4518 77.518H54.4478L54.6858 77.21L54.5738 79.338C54.5458 79.9727 54.4944 80.5793 54.4198 81.158C54.3544 81.7367 54.2471 82.2453 54.0978 82.684C53.9578 83.1227 53.7618 83.468 53.5098 83.72C53.2578 83.9627 52.9358 84.084 52.5438 84.084C52.4318 84.084 52.3151 84.0747 52.1938 84.056C52.0818 84.0373 51.9604 84.014 51.8298 83.986ZM62.0195 84V76.65H63.0135V82.488L67.9275 76.65H68.8095V84H67.8155V78.148L62.9155 84H62.0195ZM76.3061 80.892C75.8768 81.0787 75.4428 81.228 75.0041 81.34C74.5748 81.4427 74.1455 81.494 73.7161 81.494C72.8481 81.494 72.1621 81.298 71.6581 80.906C71.1541 80.5047 70.9021 79.8887 70.9021 79.058V76.65H71.8821V79.002C71.8821 79.562 72.0641 79.982 72.4281 80.262C72.7921 80.542 73.2821 80.682 73.8981 80.682C74.2715 80.682 74.6635 80.6353 75.0741 80.542C75.4848 80.4393 75.9001 80.2947 76.3201 80.108L76.3061 80.892ZM76.2221 84V76.65H77.2161V84H76.2221ZM80.039 84V76.65H81.033V82.488L85.947 76.65H86.829V84H85.835V78.148L80.935 84H80.039ZM89.6777 84V76.65H90.6717V82.488L95.5857 76.65H96.4677V84H95.4737V78.148L90.5737 84H89.6777ZM102.98 84V76.65H103.974V82.488L108.888 76.65H109.77V84H108.776V78.148L103.876 84H102.98ZM116.283 84V76.65H122.891V84H121.897V77.252L122.149 77.518H117.025L117.277 77.252V84H116.283ZM128.741 84.07C128.031 84.07 127.392 83.9113 126.823 83.594C126.263 83.2673 125.819 82.824 125.493 82.264C125.166 81.6947 125.003 81.046 125.003 80.318C125.003 79.5807 125.166 78.932 125.493 78.372C125.819 77.812 126.263 77.3733 126.823 77.056C127.383 76.7387 128.022 76.58 128.741 76.58C129.469 76.58 130.113 76.7387 130.673 77.056C131.242 77.3733 131.685 77.812 132.003 78.372C132.329 78.932 132.493 79.5807 132.493 80.318C132.493 81.046 132.329 81.6947 132.003 82.264C131.685 82.824 131.242 83.2673 130.673 83.594C130.103 83.9113 129.459 84.07 128.741 84.07ZM128.741 83.188C129.273 83.188 129.744 83.0713 130.155 82.838C130.565 82.5953 130.887 82.2593 131.121 81.83C131.363 81.3913 131.485 80.8873 131.485 80.318C131.485 79.7393 131.363 79.2353 131.121 78.806C130.887 78.3767 130.565 78.0453 130.155 77.812C129.744 77.5693 129.277 77.448 128.755 77.448C128.232 77.448 127.765 77.5693 127.355 77.812C126.944 78.0453 126.617 78.3767 126.375 78.806C126.132 79.2353 126.011 79.7393 126.011 80.318C126.011 80.8873 126.132 81.3913 126.375 81.83C126.617 82.2593 126.944 82.5953 127.355 82.838C127.765 83.0713 128.227 83.188 128.741 83.188ZM139.616 83.524V77.518H136.074L135.99 79.156C135.971 79.6507 135.939 80.136 135.892 80.612C135.855 81.088 135.785 81.5267 135.682 81.928C135.589 82.32 135.453 82.642 135.276 82.894C135.099 83.1367 134.87 83.2767 134.59 83.314L133.596 83.132C133.885 83.1413 134.123 83.0387 134.31 82.824C134.497 82.6 134.641 82.2967 134.744 81.914C134.847 81.5313 134.921 81.0973 134.968 80.612C135.015 80.1173 135.052 79.6133 135.08 79.1L135.178 76.65H140.61V83.524H139.616ZM133.288 85.778V83.132H141.758V85.778H140.82V84H134.226V85.778H133.288ZM149.333 84.084C148.801 84.084 148.274 84.0093 147.751 83.86C147.229 83.7107 146.767 83.482 146.365 83.174L146.687 82.432C147.042 82.6933 147.453 82.894 147.919 83.034C148.386 83.1647 148.848 83.23 149.305 83.23C149.763 83.2207 150.159 83.1553 150.495 83.034C150.831 82.9127 151.093 82.7447 151.279 82.53C151.466 82.3153 151.559 82.0727 151.559 81.802C151.559 81.41 151.382 81.1067 151.027 80.892C150.673 80.668 150.187 80.556 149.571 80.556H148.311V79.828H149.501C149.865 79.828 150.187 79.7813 150.467 79.688C150.747 79.5947 150.962 79.4593 151.111 79.282C151.27 79.1047 151.349 78.8947 151.349 78.652C151.349 78.3907 151.256 78.1667 151.069 77.98C150.892 77.7933 150.645 77.6533 150.327 77.56C150.01 77.4667 149.651 77.42 149.249 77.42C148.885 77.4293 148.507 77.4853 148.115 77.588C147.723 77.6813 147.336 77.826 146.953 78.022L146.673 77.252C147.103 77.028 147.527 76.86 147.947 76.748C148.377 76.6267 148.806 76.566 149.235 76.566C149.823 76.5473 150.351 76.6173 150.817 76.776C151.293 76.9347 151.671 77.1633 151.951 77.462C152.231 77.7513 152.371 78.1013 152.371 78.512C152.371 78.876 152.259 79.1933 152.035 79.464C151.811 79.7347 151.513 79.9447 151.139 80.094C150.766 80.2433 150.341 80.318 149.865 80.318L149.907 80.052C150.747 80.052 151.401 80.2153 151.867 80.542C152.343 80.8687 152.581 81.312 152.581 81.872C152.581 82.3107 152.437 82.698 152.147 83.034C151.858 83.3607 151.466 83.6173 150.971 83.804C150.486 83.9907 149.94 84.084 149.333 84.084ZM159.402 84V82.376L159.36 82.11V79.394C159.36 78.7687 159.182 78.288 158.828 77.952C158.482 77.616 157.964 77.448 157.274 77.448C156.798 77.448 156.345 77.5273 155.916 77.686C155.486 77.8447 155.122 78.0547 154.824 78.316L154.376 77.574C154.749 77.2567 155.197 77.014 155.72 76.846C156.242 76.6687 156.793 76.58 157.372 76.58C158.324 76.58 159.056 76.818 159.57 77.294C160.092 77.7607 160.354 78.4747 160.354 79.436V84H159.402ZM156.868 84.07C156.317 84.07 155.836 83.9813 155.426 83.804C155.024 83.6173 154.716 83.3653 154.502 83.048C154.287 82.7213 154.18 82.348 154.18 81.928C154.18 81.5453 154.268 81.2 154.446 80.892C154.632 80.5747 154.931 80.3227 155.342 80.136C155.762 79.94 156.322 79.842 157.022 79.842H159.556V80.584H157.05C156.34 80.584 155.846 80.71 155.566 80.962C155.295 81.214 155.16 81.5267 155.16 81.9C155.16 82.32 155.323 82.656 155.65 82.908C155.976 83.16 156.434 83.286 157.022 83.286C157.582 83.286 158.062 83.16 158.464 82.908C158.874 82.6467 159.173 82.2733 159.36 81.788L159.584 82.474C159.397 82.9593 159.07 83.3467 158.604 83.636C158.146 83.9253 157.568 84.07 156.868 84.07ZM168.39 84L165.366 80.36L166.192 79.87L169.566 84H168.39ZM163 84V76.65H163.994V84H163ZM163.686 80.724V79.87H166.052V80.724H163.686ZM166.276 80.43L165.352 80.29L168.278 76.65H169.356L166.276 80.43ZM175.562 84V82.376L175.52 82.11V79.394C175.52 78.7687 175.343 78.288 174.988 77.952C174.643 77.616 174.125 77.448 173.434 77.448C172.958 77.448 172.505 77.5273 172.076 77.686C171.647 77.8447 171.283 78.0547 170.984 78.316L170.536 77.574C170.909 77.2567 171.357 77.014 171.88 76.846C172.403 76.6687 172.953 76.58 173.532 76.58C174.484 76.58 175.217 76.818 175.73 77.294C176.253 77.7607 176.514 78.4747 176.514 79.436V84H175.562ZM173.028 84.07C172.477 84.07 171.997 83.9813 171.586 83.804C171.185 83.6173 170.877 83.3653 170.662 83.048C170.447 82.7213 170.34 82.348 170.34 81.928C170.34 81.5453 170.429 81.2 170.606 80.892C170.793 80.5747 171.091 80.3227 171.502 80.136C171.922 79.94 172.482 79.842 173.182 79.842H175.716V80.584H173.21C172.501 80.584 172.006 80.71 171.726 80.962C171.455 81.214 171.32 81.5267 171.32 81.9C171.32 82.32 171.483 82.656 171.81 82.908C172.137 83.16 172.594 83.286 173.182 83.286C173.742 83.286 174.223 83.16 174.624 82.908C175.035 82.6467 175.333 82.2733 175.52 81.788L175.744 82.474C175.557 82.9593 175.231 83.3467 174.764 83.636C174.307 83.9253 173.728 84.07 173.028 84.07ZM180.984 84.084C180.452 84.084 179.924 84.0093 179.402 83.86C178.879 83.7107 178.417 83.482 178.016 83.174L178.338 82.432C178.692 82.6933 179.103 82.894 179.57 83.034C180.036 83.1647 180.498 83.23 180.956 83.23C181.413 83.2207 181.81 83.1553 182.146 83.034C182.482 82.9127 182.743 82.7447 182.93 82.53C183.116 82.3153 183.21 82.0727 183.21 81.802C183.21 81.41 183.032 81.1067 182.678 80.892C182.323 80.668 181.838 80.556 181.222 80.556H179.962V79.828H181.152C181.516 79.828 181.838 79.7813 182.118 79.688C182.398 79.5947 182.612 79.4593 182.762 79.282C182.92 79.1047 183 78.8947 183 78.652C183 78.3907 182.906 78.1667 182.72 77.98C182.542 77.7933 182.295 77.6533 181.978 77.56C181.66 77.4667 181.301 77.42 180.9 77.42C180.536 77.4293 180.158 77.4853 179.766 77.588C179.374 77.6813 178.986 77.826 178.604 78.022L178.324 77.252C178.753 77.028 179.178 76.86 179.598 76.748C180.027 76.6267 180.456 76.566 180.886 76.566C181.474 76.5473 182.001 76.6173 182.468 76.776C182.944 76.9347 183.322 77.1633 183.602 77.462C183.882 77.7513 184.022 78.1013 184.022 78.512C184.022 78.876 183.91 79.1933 183.686 79.464C183.462 79.7347 183.163 79.9447 182.79 80.094C182.416 80.2433 181.992 80.318 181.516 80.318L181.558 80.052C182.398 80.052 183.051 80.2153 183.518 80.542C183.994 80.8687 184.232 81.312 184.232 81.872C184.232 82.3107 184.087 82.698 183.798 83.034C183.508 83.3607 183.116 83.6173 182.622 83.804C182.136 83.9907 181.59 84.084 180.984 84.084ZM23.388 106.084C22.856 106.084 22.3287 106.009 21.806 105.86C21.2833 105.711 20.8213 105.482 20.42 105.174L20.742 104.432C21.0967 104.693 21.5073 104.894 21.974 105.034C22.4407 105.165 22.9027 105.23 23.36 105.23C23.8173 105.221 24.214 105.155 24.55 105.034C24.886 104.913 25.1473 104.745 25.334 104.53C25.5207 104.315 25.614 104.073 25.614 103.802C25.614 103.41 25.4367 103.107 25.082 102.892C24.7273 102.668 24.242 102.556 23.626 102.556H22.366V101.828H23.556C23.92 101.828 24.242 101.781 24.522 101.688C24.802 101.595 25.0167 101.459 25.166 101.282C25.3247 101.105 25.404 100.895 25.404 100.652C25.404 100.391 25.3107 100.167 25.124 99.98C24.9467 99.7933 24.6993 99.6533 24.382 99.56C24.0647 99.4667 23.7053 99.42 23.304 99.42C22.94 99.4293 22.562 99.4853 22.17 99.588C21.778 99.6813 21.3907 99.826 21.008 100.022L20.728 99.252C21.1573 99.028 21.582 98.86 22.002 98.748C22.4313 98.6267 22.8607 98.566 23.29 98.566C23.878 98.5473 24.4053 98.6173 24.872 98.776C25.348 98.9347 25.726 99.1633 26.006 99.462C26.286 99.7513 26.426 100.101 26.426 100.512C26.426 100.876 26.314 101.193 26.09 101.464C25.866 101.735 25.5673 101.945 25.194 102.094C24.8207 102.243 24.396 102.318 23.92 102.318L23.962 102.052C24.802 102.052 25.4553 102.215 25.922 102.542C26.398 102.869 26.636 103.312 26.636 103.872C26.636 104.311 26.4913 104.698 26.202 105.034C25.9127 105.361 25.5207 105.617 25.026 105.804C24.5407 105.991 23.9947 106.084 23.388 106.084ZM33.4565 106V104.376L33.4145 104.11V101.394C33.4145 100.769 33.2372 100.288 32.8825 99.952C32.5372 99.616 32.0192 99.448 31.3285 99.448C30.8525 99.448 30.3998 99.5273 29.9705 99.686C29.5412 99.8447 29.1772 100.055 28.8785 100.316L28.4305 99.574C28.8038 99.2567 29.2518 99.014 29.7745 98.846C30.2972 98.6687 30.8478 98.58 31.4265 98.58C32.3785 98.58 33.1112 98.818 33.6245 99.294C34.1472 99.7607 34.4085 100.475 34.4085 101.436V106H33.4565ZM30.9225 106.07C30.3718 106.07 29.8912 105.981 29.4805 105.804C29.0792 105.617 28.7712 105.365 28.5565 105.048C28.3418 104.721 28.2345 104.348 28.2345 103.928C28.2345 103.545 28.3232 103.2 28.5005 102.892C28.6872 102.575 28.9858 102.323 29.3965 102.136C29.8165 101.94 30.3765 101.842 31.0765 101.842H33.6105V102.584H31.1045C30.3952 102.584 29.9005 102.71 29.6205 102.962C29.3498 103.214 29.2145 103.527 29.2145 103.9C29.2145 104.32 29.3778 104.656 29.7045 104.908C30.0312 105.16 30.4885 105.286 31.0765 105.286C31.6365 105.286 32.1172 105.16 32.5185 104.908C32.9292 104.647 33.2278 104.273 33.4145 103.788L33.6385 104.474C33.4518 104.959 33.1252 105.347 32.6585 105.636C32.2012 105.925 31.6225 106.07 30.9225 106.07ZM42.9587 106.084C42.2494 106.084 41.5774 105.972 40.9427 105.748C40.3174 105.515 39.8134 105.207 39.4307 104.824L39.9207 104.026C40.238 104.353 40.6627 104.623 41.1947 104.838C41.736 105.053 42.324 105.16 42.9587 105.16C43.7707 105.16 44.3914 104.983 44.8207 104.628C45.2594 104.273 45.4787 103.797 45.4787 103.2C45.4787 102.603 45.264 102.127 44.8347 101.772C44.4147 101.417 43.7474 101.24 42.8327 101.24H42.1327V100.498L45.1567 96.704L45.2967 97.096H39.8367V96.2H46.1367V96.914L43.1127 100.708L42.6227 100.386H43.0007C44.1767 100.386 45.054 100.647 45.6327 101.17C46.2207 101.693 46.5147 102.365 46.5147 103.186C46.5147 103.737 46.384 104.231 46.1227 104.67C45.8614 105.109 45.4647 105.454 44.9327 105.706C44.41 105.958 43.752 106.084 42.9587 106.084ZM57.3251 105.524V99.518H53.7831L53.6991 101.156C53.6804 101.651 53.6478 102.136 53.6011 102.612C53.5638 103.088 53.4938 103.527 53.3911 103.928C53.2978 104.32 53.1624 104.642 52.9851 104.894C52.8078 105.137 52.5791 105.277 52.2991 105.314L51.3051 105.132C51.5944 105.141 51.8324 105.039 52.0191 104.824C52.2058 104.6 52.3504 104.297 52.4531 103.914C52.5558 103.531 52.6304 103.097 52.6771 102.612C52.7238 102.117 52.7611 101.613 52.7891 101.1L52.8871 98.65H58.3191V105.524H57.3251ZM50.9971 107.778V105.132H59.4671V107.778H58.5291V106H51.9351V107.778H50.9971ZM61.4042 106V98.65H62.3982V101.898H67.0322V98.65H68.0262V106H67.0322V102.752H62.3982V106H61.4042ZM75.5975 106V103.354L75.7795 103.564H73.2875C72.3448 103.564 71.6075 103.359 71.0755 102.948C70.5435 102.537 70.2775 101.94 70.2775 101.156C70.2775 100.316 70.5622 99.6907 71.1315 99.28C71.7008 98.86 72.4615 98.65 73.4135 98.65H76.5075V106H75.5975ZM70.2215 106L72.2375 103.172H73.2735L71.2995 106H70.2215ZM75.5975 103.06V99.224L75.7795 99.518H73.4415C72.7602 99.518 72.2282 99.6487 71.8455 99.91C71.4722 100.171 71.2855 100.596 71.2855 101.184C71.2855 102.276 71.9808 102.822 73.3715 102.822H75.7795L75.5975 103.06Z" fill="#141414"/>
</svg>
