<svg width="40" height="40" viewBox="0 0 40 40" fill="none" xmlns="http://www.w3.org/2000/svg">
<path d="M35 16.6666H5M26.6667 3.33331V9.99998M13.3333 3.33331V9.99998M13 36.6666H27C29.8003 36.6666 31.2004 36.6666 32.27 36.1217C33.2108 35.6423 33.9757 34.8774 34.455 33.9366C35 32.867 35 31.4669 35 28.6666V14.6666C35 11.8664 35 10.4663 34.455 9.39669C33.9757 8.45588 33.2108 7.69098 32.27 7.21161C31.2004 6.66665 29.8003 6.66665 27 6.66665H13C10.1997 6.66665 8.79961 6.66665 7.73005 7.21161C6.78924 7.69098 6.02433 8.45588 5.54497 9.39669C5 10.4663 5 11.8664 5 14.6666V28.6666C5 31.4669 5 32.867 5.54497 33.9366C6.02433 34.8774 6.78924 35.6423 7.73005 36.1217C8.79961 36.6666 10.1997 36.6666 13 36.6666Z" stroke="#29A1F8" stroke-width="2" stroke-linecap="round" stroke-linejoin="round"/>
</svg>
