<svg width="416" height="104" viewBox="0 0 416 104" fill="none" xmlns="http://www.w3.org/2000/svg">
<rect x="0.5" y="0.5" width="415" height="103" stroke="#DCE3EB"/>
<path d="M67 48.6666H37M58.6667 35.3333V42M45.3333 35.3333V42M45 68.6666H59C61.8003 68.6666 63.2004 68.6666 64.27 68.1217C65.2108 67.6423 65.9757 66.8774 66.455 65.9366C67 64.867 67 63.4669 67 60.6666V46.6666C67 43.8664 67 42.4663 66.455 41.3967C65.9757 40.4559 65.2108 39.691 64.27 39.2116C63.2004 38.6666 61.8003 38.6666 59 38.6666H45C42.1997 38.6666 40.7996 38.6666 39.73 39.2116C38.7892 39.691 38.0243 40.4559 37.545 41.3967C37 42.4663 37 43.8664 37 46.6666V60.6666C37 63.4669 37 64.867 37.545 65.9366C38.0243 66.8774 38.7892 67.6423 39.73 68.1217C40.7996 68.6666 42.1997 68.6666 45 68.6666Z" stroke="#29A1F8" stroke-width="2" stroke-linecap="round" stroke-linejoin="round"/>
<path d="M101.888 58V46.8H106.544C107.728 46.8 108.656 47.0453 109.328 47.536C110.011 48.016 110.352 48.7253 110.352 49.664C110.352 50.592 110.027 51.296 109.376 51.776C108.725 52.2453 107.872 52.48 106.816 52.48L107.088 52.08C108.336 52.08 109.285 52.3253 109.936 52.816C110.587 53.3067 110.912 54.0267 110.912 54.976C110.912 55.936 110.571 56.6827 109.888 57.216C109.216 57.7387 108.203 58 106.848 58H101.888ZM103.056 57.056H106.848C107.797 57.056 108.517 56.88 109.008 56.528C109.499 56.176 109.744 55.632 109.744 54.896C109.744 54.1707 109.499 53.6373 109.008 53.296C108.517 52.9547 107.797 52.784 106.848 52.784H103.056V57.056ZM103.056 51.872H106.48C107.344 51.872 108.005 51.7013 108.464 51.36C108.933 51.008 109.168 50.4907 109.168 49.808C109.168 49.1253 108.933 48.6133 108.464 48.272C108.005 47.92 107.344 47.744 106.48 47.744H103.056V51.872ZM117.788 58V49.6H118.924V53.312H124.22V49.6H125.356V58H124.22V54.288H118.924V58H117.788ZM133.801 58V56.144L133.753 55.84V52.736C133.753 52.0213 133.55 51.472 133.145 51.088C132.75 50.704 132.158 50.512 131.369 50.512C130.825 50.512 130.307 50.6027 129.817 50.784C129.326 50.9653 128.91 51.2053 128.569 51.504L128.057 50.656C128.483 50.2933 128.995 50.016 129.593 49.824C130.19 49.6213 130.819 49.52 131.481 49.52C132.569 49.52 133.406 49.792 133.993 50.336C134.59 50.8693 134.889 51.6853 134.889 52.784V58H133.801ZM130.905 58.08C130.275 58.08 129.726 57.9787 129.257 57.776C128.798 57.5627 128.446 57.2747 128.201 56.912C127.955 56.5387 127.833 56.112 127.833 55.632C127.833 55.1947 127.934 54.8 128.137 54.448C128.35 54.0853 128.691 53.7973 129.161 53.584C129.641 53.36 130.281 53.248 131.081 53.248H133.977V54.096H131.113C130.302 54.096 129.737 54.24 129.417 54.528C129.107 54.816 128.953 55.1733 128.953 55.6C128.953 56.08 129.139 56.464 129.513 56.752C129.886 57.04 130.409 57.184 131.081 57.184C131.721 57.184 132.27 57.04 132.729 56.752C133.198 56.4533 133.539 56.0267 133.753 55.472L134.009 56.256C133.795 56.8107 133.422 57.2533 132.889 57.584C132.366 57.9147 131.705 58.08 130.905 58.08ZM136.377 57.984L136.457 57.008C136.532 57.0187 136.601 57.0347 136.665 57.056C136.74 57.0667 136.804 57.072 136.857 57.072C137.198 57.072 137.47 56.944 137.673 56.688C137.886 56.432 138.046 56.0907 138.153 55.664C138.26 55.2373 138.334 54.7573 138.377 54.224C138.42 53.68 138.457 53.136 138.489 52.592L138.633 49.6H144.793V58H143.657V50.256L143.945 50.592H139.369L139.641 50.24L139.513 52.672C139.481 53.3973 139.422 54.0907 139.337 54.752C139.262 55.4133 139.14 55.9947 138.969 56.496C138.809 56.9973 138.585 57.392 138.297 57.68C138.009 57.9573 137.641 58.096 137.193 58.096C137.065 58.096 136.932 58.0853 136.793 58.064C136.665 58.0427 136.526 58.016 136.377 57.984ZM148.022 58V49.6H149.158V56.272L154.774 49.6H155.782V58H154.646V51.312L149.046 58H148.022ZM164.35 54.448C163.859 54.6613 163.363 54.832 162.862 54.96C162.371 55.0773 161.881 55.136 161.39 55.136C160.398 55.136 159.614 54.912 159.038 54.464C158.462 54.0053 158.174 53.3013 158.174 52.352V49.6H159.294V52.288C159.294 52.928 159.502 53.408 159.918 53.728C160.334 54.048 160.894 54.208 161.598 54.208C162.025 54.208 162.473 54.1547 162.942 54.048C163.411 53.9307 163.886 53.7653 164.366 53.552L164.35 54.448ZM164.254 58V49.6H165.39V58H164.254ZM168.616 58V49.6H169.752V56.272L175.368 49.6H176.376V58H175.24V51.312L169.64 58H168.616ZM179.632 58V49.6H180.768V56.272L186.384 49.6H187.392V58H186.256V51.312L180.656 58H179.632ZM194.835 58V49.6H195.971V56.272L201.587 49.6H202.595V58H201.459V51.312L195.859 58H194.835ZM210.038 58V49.6H217.59V58H216.454V50.288L216.742 50.592H210.886L211.174 50.288V58H210.038ZM224.275 58.08C223.464 58.08 222.734 57.8987 222.083 57.536C221.443 57.1627 220.936 56.656 220.563 56.016C220.19 55.3653 220.003 54.624 220.003 53.792C220.003 52.9493 220.19 52.208 220.563 51.568C220.936 50.928 221.443 50.4267 222.083 50.064C222.723 49.7013 223.454 49.52 224.275 49.52C225.107 49.52 225.843 49.7013 226.483 50.064C227.134 50.4267 227.64 50.928 228.003 51.568C228.376 52.208 228.563 52.9493 228.563 53.792C228.563 54.624 228.376 55.3653 228.003 56.016C227.64 56.656 227.134 57.1627 226.483 57.536C225.832 57.8987 225.096 58.08 224.275 58.08ZM224.275 57.072C224.883 57.072 225.422 56.9387 225.891 56.672C226.36 56.3947 226.728 56.0107 226.995 55.52C227.272 55.0187 227.411 54.4427 227.411 53.792C227.411 53.1307 227.272 52.5547 226.995 52.064C226.728 51.5733 226.36 51.1947 225.891 50.928C225.422 50.6507 224.888 50.512 224.291 50.512C223.694 50.512 223.16 50.6507 222.691 50.928C222.222 51.1947 221.848 51.5733 221.571 52.064C221.294 52.5547 221.155 53.1307 221.155 53.792C221.155 54.4427 221.294 55.0187 221.571 55.52C221.848 56.0107 222.222 56.3947 222.691 56.672C223.16 56.9387 223.688 57.072 224.275 57.072ZM236.704 57.456V50.592H232.656L232.56 52.464C232.539 53.0293 232.501 53.584 232.448 54.128C232.405 54.672 232.325 55.1733 232.208 55.632C232.101 56.08 231.947 56.448 231.744 56.736C231.541 57.0133 231.28 57.1733 230.96 57.216L229.824 57.008C230.155 57.0187 230.427 56.9013 230.64 56.656C230.853 56.4 231.019 56.0533 231.136 55.616C231.253 55.1787 231.339 54.6827 231.392 54.128C231.445 53.5627 231.488 52.9867 231.52 52.4L231.632 49.6H237.84V57.456H236.704ZM229.472 60.032V57.008H239.152V60.032H238.08V58H230.544V60.032H229.472ZM247.81 58.096C247.202 58.096 246.599 58.0107 246.002 57.84C245.404 57.6693 244.876 57.408 244.418 57.056L244.786 56.208C245.191 56.5067 245.66 56.736 246.194 56.896C246.727 57.0453 247.255 57.12 247.778 57.12C248.3 57.1093 248.754 57.0347 249.138 56.896C249.522 56.7573 249.82 56.5653 250.034 56.32C250.247 56.0747 250.354 55.7973 250.354 55.488C250.354 55.04 250.151 54.6933 249.746 54.448C249.34 54.192 248.786 54.064 248.082 54.064H246.642V53.232H248.002C248.418 53.232 248.786 53.1787 249.106 53.072C249.426 52.9653 249.671 52.8107 249.842 52.608C250.023 52.4053 250.114 52.1653 250.114 51.888C250.114 51.5893 250.007 51.3333 249.794 51.12C249.591 50.9067 249.308 50.7467 248.946 50.64C248.583 50.5333 248.172 50.48 247.714 50.48C247.298 50.4907 246.866 50.5547 246.418 50.672C245.97 50.7787 245.527 50.944 245.09 51.168L244.77 50.288C245.26 50.032 245.746 49.84 246.226 49.712C246.716 49.5733 247.207 49.504 247.698 49.504C248.37 49.4827 248.972 49.5627 249.506 49.744C250.05 49.9253 250.482 50.1867 250.802 50.528C251.122 50.8587 251.282 51.2587 251.282 51.728C251.282 52.144 251.154 52.5067 250.898 52.816C250.642 53.1253 250.3 53.3653 249.874 53.536C249.447 53.7067 248.962 53.792 248.418 53.792L248.466 53.488C249.426 53.488 250.172 53.6747 250.706 54.048C251.25 54.4213 251.522 54.928 251.522 55.568C251.522 56.0693 251.356 56.512 251.026 56.896C250.695 57.2693 250.247 57.5627 249.682 57.776C249.127 57.9893 248.503 58.096 247.81 58.096ZM259.316 58V56.144L259.268 55.84V52.736C259.268 52.0213 259.066 51.472 258.66 51.088C258.266 50.704 257.674 50.512 256.884 50.512C256.34 50.512 255.823 50.6027 255.332 50.784C254.842 50.9653 254.426 51.2053 254.084 51.504L253.572 50.656C253.999 50.2933 254.511 50.016 255.108 49.824C255.706 49.6213 256.335 49.52 256.996 49.52C258.084 49.52 258.922 49.792 259.508 50.336C260.106 50.8693 260.404 51.6853 260.404 52.784V58H259.316ZM256.42 58.08C255.791 58.08 255.242 57.9787 254.772 57.776C254.314 57.5627 253.962 57.2747 253.716 56.912C253.471 56.5387 253.348 56.112 253.348 55.632C253.348 55.1947 253.45 54.8 253.652 54.448C253.866 54.0853 254.207 53.7973 254.676 53.584C255.156 53.36 255.796 53.248 256.596 53.248H259.492V54.096H256.628C255.818 54.096 255.252 54.24 254.932 54.528C254.623 54.816 254.468 55.1733 254.468 55.6C254.468 56.08 254.655 56.464 255.028 56.752C255.402 57.04 255.924 57.184 256.596 57.184C257.236 57.184 257.786 57.04 258.244 56.752C258.714 56.4533 259.055 56.0267 259.268 55.472L259.524 56.256C259.311 56.8107 258.938 57.2533 258.404 57.584C257.882 57.9147 257.22 58.08 256.42 58.08ZM269.589 58L266.133 53.84L267.077 53.28L270.933 58H269.589ZM263.429 58V49.6H264.565V58H263.429ZM264.213 54.256V53.28H266.917V54.256H264.213ZM267.173 53.92L266.117 53.76L269.461 49.6H270.693L267.173 53.92ZM277.785 58V56.144L277.737 55.84V52.736C277.737 52.0213 277.534 51.472 277.129 51.088C276.734 50.704 276.142 50.512 275.353 50.512C274.809 50.512 274.292 50.6027 273.801 50.784C273.31 50.9653 272.894 51.2053 272.553 51.504L272.041 50.656C272.468 50.2933 272.98 50.016 273.577 49.824C274.174 49.6213 274.804 49.52 275.465 49.52C276.553 49.52 277.39 49.792 277.977 50.336C278.574 50.8693 278.873 51.6853 278.873 52.784V58H277.785ZM274.889 58.08C274.26 58.08 273.71 57.9787 273.241 57.776C272.782 57.5627 272.43 57.2747 272.185 56.912C271.94 56.5387 271.817 56.112 271.817 55.632C271.817 55.1947 271.918 54.8 272.121 54.448C272.334 54.0853 272.676 53.7973 273.145 53.584C273.625 53.36 274.265 53.248 275.065 53.248H277.961V54.096H275.097C274.286 54.096 273.721 54.24 273.401 54.528C273.092 54.816 272.937 55.1733 272.937 55.6C272.937 56.08 273.124 56.464 273.497 56.752C273.87 57.04 274.393 57.184 275.065 57.184C275.705 57.184 276.254 57.04 276.713 56.752C277.182 56.4533 277.524 56.0267 277.737 55.472L277.993 56.256C277.78 56.8107 277.406 57.2533 276.873 57.584C276.35 57.9147 275.689 58.08 274.889 58.08ZM283.981 58.096C283.373 58.096 282.771 58.0107 282.173 57.84C281.576 57.6693 281.048 57.408 280.589 57.056L280.957 56.208C281.363 56.5067 281.832 56.736 282.365 56.896C282.899 57.0453 283.427 57.12 283.949 57.12C284.472 57.1093 284.925 57.0347 285.309 56.896C285.693 56.7573 285.992 56.5653 286.205 56.32C286.419 56.0747 286.525 55.7973 286.525 55.488C286.525 55.04 286.323 54.6933 285.917 54.448C285.512 54.192 284.957 54.064 284.253 54.064H282.813V53.232H284.173C284.589 53.232 284.957 53.1787 285.277 53.072C285.597 52.9653 285.843 52.8107 286.013 52.608C286.195 52.4053 286.285 52.1653 286.285 51.888C286.285 51.5893 286.179 51.3333 285.965 51.12C285.763 50.9067 285.48 50.7467 285.117 50.64C284.755 50.5333 284.344 50.48 283.885 50.48C283.469 50.4907 283.037 50.5547 282.589 50.672C282.141 50.7787 281.699 50.944 281.261 51.168L280.941 50.288C281.432 50.032 281.917 49.84 282.397 49.712C282.888 49.5733 283.379 49.504 283.869 49.504C284.541 49.4827 285.144 49.5627 285.677 49.744C286.221 49.9253 286.653 50.1867 286.973 50.528C287.293 50.8587 287.453 51.2587 287.453 51.728C287.453 52.144 287.325 52.5067 287.069 52.816C286.813 53.1253 286.472 53.3653 286.045 53.536C285.619 53.7067 285.133 53.792 284.589 53.792L284.637 53.488C285.597 53.488 286.344 53.6747 286.877 54.048C287.421 54.4213 287.693 54.928 287.693 55.568C287.693 56.0693 287.528 56.512 287.197 56.896C286.867 57.2693 286.419 57.5627 285.853 57.776C285.299 57.9893 284.675 58.096 283.981 58.096ZM296.716 58.096C296.108 58.096 295.505 58.0107 294.908 57.84C294.31 57.6693 293.782 57.408 293.324 57.056L293.692 56.208C294.097 56.5067 294.566 56.736 295.1 56.896C295.633 57.0453 296.161 57.12 296.684 57.12C297.206 57.1093 297.66 57.0347 298.044 56.896C298.428 56.7573 298.726 56.5653 298.94 56.32C299.153 56.0747 299.26 55.7973 299.26 55.488C299.26 55.04 299.057 54.6933 298.652 54.448C298.246 54.192 297.692 54.064 296.988 54.064H295.548V53.232H296.908C297.324 53.232 297.692 53.1787 298.012 53.072C298.332 52.9653 298.577 52.8107 298.748 52.608C298.929 52.4053 299.02 52.1653 299.02 51.888C299.02 51.5893 298.913 51.3333 298.7 51.12C298.497 50.9067 298.214 50.7467 297.852 50.64C297.489 50.5333 297.078 50.48 296.62 50.48C296.204 50.4907 295.772 50.5547 295.324 50.672C294.876 50.7787 294.433 50.944 293.996 51.168L293.676 50.288C294.166 50.032 294.652 49.84 295.132 49.712C295.622 49.5733 296.113 49.504 296.604 49.504C297.276 49.4827 297.878 49.5627 298.412 49.744C298.956 49.9253 299.388 50.1867 299.708 50.528C300.028 50.8587 300.188 51.2587 300.188 51.728C300.188 52.144 300.06 52.5067 299.804 52.816C299.548 53.1253 299.206 53.3653 298.78 53.536C298.353 53.7067 297.868 53.792 297.324 53.792L297.372 53.488C298.332 53.488 299.078 53.6747 299.612 54.048C300.156 54.4213 300.428 54.928 300.428 55.568C300.428 56.0693 300.262 56.512 299.932 56.896C299.601 57.2693 299.153 57.5627 298.588 57.776C298.033 57.9893 297.409 58.096 296.716 58.096ZM308.223 58V56.144L308.175 55.84V52.736C308.175 52.0213 307.972 51.472 307.567 51.088C307.172 50.704 306.58 50.512 305.791 50.512C305.247 50.512 304.729 50.6027 304.239 50.784C303.748 50.9653 303.332 51.2053 302.991 51.504L302.479 50.656C302.905 50.2933 303.417 50.016 304.015 49.824C304.612 49.6213 305.241 49.52 305.903 49.52C306.991 49.52 307.828 49.792 308.415 50.336C309.012 50.8693 309.311 51.6853 309.311 52.784V58H308.223ZM305.327 58.08C304.697 58.08 304.148 57.9787 303.679 57.776C303.22 57.5627 302.868 57.2747 302.623 56.912C302.377 56.5387 302.255 56.112 302.255 55.632C302.255 55.1947 302.356 54.8 302.559 54.448C302.772 54.0853 303.113 53.7973 303.583 53.584C304.063 53.36 304.703 53.248 305.503 53.248H308.399V54.096H305.535C304.724 54.096 304.159 54.24 303.839 54.528C303.529 54.816 303.375 55.1733 303.375 55.6C303.375 56.08 303.561 56.464 303.935 56.752C304.308 57.04 304.831 57.184 305.503 57.184C306.143 57.184 306.692 57.04 307.151 56.752C307.62 56.4533 307.961 56.0267 308.175 55.472L308.431 56.256C308.217 56.8107 307.844 57.2533 307.311 57.584C306.788 57.9147 306.127 58.08 305.327 58.08ZM319.082 58.096C318.272 58.096 317.504 57.968 316.778 57.712C316.064 57.4453 315.488 57.0933 315.05 56.656L315.61 55.744C315.973 56.1173 316.458 56.4267 317.066 56.672C317.685 56.9173 318.357 57.04 319.082 57.04C320.01 57.04 320.72 56.8373 321.21 56.432C321.712 56.0267 321.962 55.4827 321.962 54.8C321.962 54.1173 321.717 53.5733 321.226 53.168C320.746 52.7627 319.984 52.56 318.938 52.56H318.138V51.712L321.594 47.376L321.754 47.824H315.514V46.8H322.714V47.616L319.258 51.952L318.698 51.584H319.13C320.474 51.584 321.477 51.8827 322.138 52.48C322.81 53.0773 323.146 53.8453 323.146 54.784C323.146 55.4133 322.997 55.9787 322.698 56.48C322.4 56.9813 321.946 57.376 321.338 57.664C320.741 57.952 319.989 58.096 319.082 58.096ZM335.501 57.456V50.592H331.453L331.357 52.464C331.336 53.0293 331.298 53.584 331.245 54.128C331.202 54.672 331.122 55.1733 331.005 55.632C330.898 56.08 330.744 56.448 330.541 56.736C330.338 57.0133 330.077 57.1733 329.757 57.216L328.621 57.008C328.952 57.0187 329.224 56.9013 329.437 56.656C329.65 56.4 329.816 56.0533 329.933 55.616C330.05 55.1787 330.136 54.6827 330.189 54.128C330.242 53.5627 330.285 52.9867 330.317 52.4L330.429 49.6H336.637V57.456H335.501ZM328.269 60.032V57.008H337.949V60.032H336.877V58H329.341V60.032H328.269ZM340.163 58V49.6H341.299V53.312H346.595V49.6H347.731V58H346.595V54.288H341.299V58H340.163ZM356.384 58V54.976L356.592 55.216H353.744C352.666 55.216 351.824 54.9813 351.216 54.512C350.608 54.0427 350.304 53.36 350.304 52.464C350.304 51.504 350.629 50.7893 351.28 50.32C351.93 49.84 352.8 49.6 353.888 49.6H357.424V58H356.384ZM350.24 58L352.544 54.768H353.728L351.472 58H350.24ZM356.384 54.64V50.256L356.592 50.592H353.92C353.141 50.592 352.533 50.7413 352.096 51.04C351.669 51.3387 351.456 51.824 351.456 52.496C351.456 53.744 352.25 54.368 353.84 54.368H356.592L356.384 54.64Z" fill="#141414"/>
</svg>
