<svg width="40" height="40" viewBox="0 0 40 40" fill="none" xmlns="http://www.w3.org/2000/svg">
<path d="M20 25C22.7615 25 25 22.7614 25 20C25 17.2386 22.7615 15 20 15C17.2386 15 15 17.2386 15 20C15 22.7614 17.2386 25 20 25Z" stroke="#29A1F8" stroke-width="2" stroke-linecap="round" stroke-linejoin="round"/>
<path d="M31.2122 24.5454C31.0105 25.0024 30.9503 25.5094 31.0394 26.0009C31.1285 26.4924 31.3629 26.9459 31.7122 27.303L31.8031 27.3939C32.0848 27.6754 32.3083 28.0096 32.4608 28.3774C32.6133 28.7453 32.6918 29.1396 32.6918 29.5379C32.6918 29.9361 32.6133 30.3304 32.4608 30.6983C32.3083 31.0662 32.0848 31.4004 31.8031 31.6818C31.5216 31.9635 31.1874 32.1871 30.8196 32.3396C30.4517 32.4921 30.0574 32.5705 29.6591 32.5705C29.2609 32.5705 28.8666 32.4921 28.4987 32.3396C28.1308 32.1871 27.7966 31.9635 27.5152 31.6818L27.4243 31.5909C27.0672 31.2416 26.6137 31.0073 26.1221 30.9182C25.6306 30.829 25.1237 30.8892 24.6667 31.0909C24.2186 31.283 23.8364 31.6019 23.5672 32.0084C23.298 32.4149 23.1535 32.8912 23.1516 33.3788V33.6363C23.1516 34.44 22.8323 35.2108 22.264 35.7791C21.6957 36.3474 20.9249 36.6666 20.1213 36.6666C19.3176 36.6666 18.5468 36.3474 17.9785 35.7791C17.4102 35.2108 17.0909 34.44 17.0909 33.6363V33.5C17.0792 32.9985 16.9169 32.5121 16.6251 32.1041C16.3332 31.696 15.9254 31.3853 15.4546 31.2121C14.9976 31.0104 14.4907 30.9502 13.9991 31.0394C13.5076 31.1285 13.0541 31.3628 12.697 31.7121L12.6061 31.803C12.3247 32.0848 11.9905 32.3083 11.6226 32.4608C11.2547 32.6133 10.8604 32.6918 10.4622 32.6918C10.0639 32.6918 9.66961 32.6133 9.30174 32.4608C8.93386 32.3083 8.59966 32.0848 8.31822 31.803C8.03648 31.5216 7.81296 31.1874 7.66047 30.8195C7.50797 30.4516 7.42948 30.0573 7.42948 29.6591C7.42948 29.2608 7.50797 28.8665 7.66047 28.4986C7.81296 28.1308 8.03648 27.7966 8.31822 27.5151L8.40913 27.4242C8.75843 27.0671 8.99275 26.6136 9.08187 26.1221C9.17099 25.6306 9.11082 25.1236 8.90913 24.6666C8.71707 24.2185 8.39816 23.8363 7.99165 23.5671C7.58515 23.2979 7.10881 23.1534 6.62125 23.1515H6.36368C5.55999 23.1515 4.78922 22.8322 4.22093 22.2639C3.65264 21.6956 3.33337 20.9249 3.33337 20.1212C3.33337 19.3175 3.65264 18.5467 4.22093 17.9784C4.78922 17.4102 5.55999 17.0909 6.36368 17.0909H6.50004C7.00155 17.0792 7.48793 16.9168 7.89595 16.625C8.30397 16.3332 8.61476 15.9253 8.78792 15.4545C8.98961 14.9975 9.04977 14.4906 8.96065 13.9991C8.87153 13.5076 8.63722 13.054 8.28792 12.6969L8.19701 12.606C7.91526 12.3246 7.69175 11.9904 7.53925 11.6225C7.38676 11.2547 7.30826 10.8603 7.30826 10.4621C7.30826 10.0639 7.38676 9.66955 7.53925 9.30168C7.69175 8.9338 7.91526 8.59959 8.19701 8.31816C8.47844 8.03641 8.81265 7.8129 9.18052 7.6604C9.5484 7.50791 9.94272 7.42941 10.3409 7.42941C10.7392 7.42941 11.1335 7.50791 11.5014 7.6604C11.8692 7.8129 12.2035 8.03641 12.4849 8.31816L12.5758 8.40907C12.9329 8.75837 13.3864 8.99268 13.8779 9.0818C14.3694 9.17092 14.8764 9.11076 15.3334 8.90907H15.4546C15.9027 8.71701 16.2849 8.39809 16.5541 7.99159C16.8233 7.58509 16.9678 7.10875 16.9697 6.62119V6.36362C16.9697 5.55993 17.289 4.78916 17.8573 4.22087C18.4256 3.65258 19.1964 3.33331 20 3.33331C20.8037 3.33331 21.5745 3.65258 22.1428 4.22087C22.7111 4.78916 23.0303 5.55993 23.0303 6.36362V6.49998C23.0323 6.98753 23.1768 7.46388 23.446 7.87038C23.7152 8.27688 24.0974 8.59579 24.5455 8.78786C25.0025 8.98955 25.5094 9.04971 26.0009 8.96059C26.4924 8.87147 26.946 8.63716 27.3031 8.28786L27.394 8.19695C27.6754 7.9152 28.0096 7.69169 28.3775 7.53919C28.7454 7.38669 29.1397 7.3082 29.5379 7.3082C29.9361 7.3082 30.3305 7.38669 30.6983 7.53919C31.0662 7.69169 31.4004 7.9152 31.6819 8.19695C31.9636 8.47838 32.1871 8.81259 32.3396 9.18046C32.4921 9.54834 32.5706 9.94266 32.5706 10.3409C32.5706 10.7391 32.4921 11.1334 32.3396 11.5013C32.1871 11.8692 31.9636 12.2034 31.6819 12.4848L31.5909 12.5757C31.2417 12.9328 31.0073 13.3864 30.9182 13.8779C30.8291 14.3694 30.8893 14.8763 31.0909 15.3333V15.4545C31.283 15.9027 31.6019 16.2849 32.0084 16.5541C32.4149 16.8233 32.8913 16.9677 33.3788 16.9697H33.6364C34.4401 16.9697 35.2109 17.2889 35.7792 17.8572C36.3474 18.4255 36.6667 19.1963 36.6667 20C36.6667 20.8037 36.3474 21.5744 35.7792 22.1427C35.2109 22.711 34.4401 23.0303 33.6364 23.0303H33.5C33.0125 23.0322 32.5361 23.1767 32.1296 23.4459C31.7231 23.7151 31.4042 24.0973 31.2122 24.5454Z" stroke="#29A1F8" stroke-width="2" stroke-linecap="round" stroke-linejoin="round"/>
</svg>
