<svg width="416" height="104" viewBox="0 0 416 104" fill="none" xmlns="http://www.w3.org/2000/svg">
<rect x="0.5" y="0.5" width="415" height="103" stroke="#DCE3EB"/>
<path d="M66.1666 44.1296L51.9999 51.9999M51.9999 51.9999L37.8333 44.1296M51.9999 51.9999L52 67.8333M67 58.7642V45.2357C67 44.6646 67 44.3791 66.9159 44.1244C66.8414 43.8992 66.7197 43.6924 66.5589 43.5179C66.3772 43.3206 66.1276 43.182 65.6284 42.9046L53.2951 36.0528C52.8224 35.7902 52.586 35.6589 52.3358 35.6074C52.1142 35.5619 51.8858 35.5619 51.6643 35.6074C51.414 35.6589 51.1776 35.7902 50.705 36.0528L38.3716 42.9046C37.8724 43.182 37.6228 43.3206 37.4411 43.5179C37.2803 43.6924 37.1586 43.8992 37.0841 44.1245C37 44.3791 37 44.6647 37 45.2357V58.7642C37 59.3353 37 59.6208 37.0841 59.8755C37.1586 60.1008 37.2803 60.3076 37.4411 60.4821C37.6228 60.6793 37.8724 60.818 38.3716 61.0953L50.705 67.9472C51.1776 68.2098 51.414 68.3411 51.6643 68.3925C51.8858 68.4381 52.1142 68.4381 52.3358 68.3925C52.586 68.3411 52.8224 68.2098 53.2951 67.9472L65.6284 61.0953C66.1276 60.818 66.3772 60.6793 66.5589 60.4821C66.7197 60.3076 66.8414 60.1008 66.9159 59.8755C67 59.6208 67 59.3353 67 58.7642Z" stroke="#29A1F8" stroke-width="2" stroke-linecap="round" stroke-linejoin="round"/>
<path d="M59.5 47.8333L44.5 39.5" stroke="#29A1F8" stroke-width="2" stroke-linecap="round" stroke-linejoin="round"/>
<path d="M109.328 45.44V35.824H103.968L103.872 38.544C103.84 39.3867 103.787 40.1973 103.712 40.976C103.648 41.744 103.541 42.4373 103.392 43.056C103.253 43.664 103.061 44.16 102.816 44.544C102.581 44.928 102.272 45.152 101.888 45.216L100.592 44.976C101.019 44.9973 101.371 44.8427 101.648 44.512C101.936 44.1813 102.155 43.7173 102.304 43.12C102.464 42.5227 102.581 41.824 102.656 41.024C102.731 40.224 102.784 39.36 102.816 38.432L102.944 34.8H110.496V45.44H109.328ZM100.176 48.512L100.192 44.976H112.176V48.512H111.072V46H101.296L101.28 48.512H100.176ZM117.541 46.08C116.73 46.08 115.999 45.8987 115.349 45.536C114.709 45.1627 114.202 44.656 113.829 44.016C113.455 43.3653 113.269 42.624 113.269 41.792C113.269 40.9493 113.455 40.208 113.829 39.568C114.202 38.928 114.709 38.4267 115.349 38.064C115.989 37.7013 116.719 37.52 117.541 37.52C118.373 37.52 119.109 37.7013 119.749 38.064C120.399 38.4267 120.906 38.928 121.269 39.568C121.642 40.208 121.829 40.9493 121.829 41.792C121.829 42.624 121.642 43.3653 121.269 44.016C120.906 44.656 120.399 45.1627 119.749 45.536C119.098 45.8987 118.362 46.08 117.541 46.08ZM117.541 45.072C118.149 45.072 118.687 44.9387 119.157 44.672C119.626 44.3947 119.994 44.0107 120.261 43.52C120.538 43.0187 120.677 42.4427 120.677 41.792C120.677 41.1307 120.538 40.5547 120.261 40.064C119.994 39.5733 119.626 39.1947 119.157 38.928C118.687 38.6507 118.154 38.512 117.557 38.512C116.959 38.512 116.426 38.6507 115.957 38.928C115.487 39.1947 115.114 39.5733 114.837 40.064C114.559 40.5547 114.421 41.1307 114.421 41.792C114.421 42.4427 114.559 43.0187 114.837 43.52C115.114 44.0107 115.487 44.3947 115.957 44.672C116.426 44.9387 116.954 45.072 117.541 45.072ZM127.777 46.08C126.945 46.08 126.198 45.8987 125.537 45.536C124.886 45.1627 124.374 44.656 124.001 44.016C123.627 43.3653 123.441 42.624 123.441 41.792C123.441 40.9493 123.627 40.208 124.001 39.568C124.374 38.928 124.886 38.4267 125.537 38.064C126.198 37.7013 126.945 37.52 127.777 37.52C128.491 37.52 129.137 37.6587 129.713 37.936C130.289 38.2133 130.742 38.6293 131.073 39.184L130.225 39.76C129.937 39.3333 129.579 39.0187 129.153 38.816C128.726 38.6133 128.262 38.512 127.761 38.512C127.163 38.512 126.625 38.6507 126.145 38.928C125.665 39.1947 125.286 39.5733 125.009 40.064C124.731 40.5547 124.593 41.1307 124.593 41.792C124.593 42.4533 124.731 43.0293 125.009 43.52C125.286 44.0107 125.665 44.3947 126.145 44.672C126.625 44.9387 127.163 45.072 127.761 45.072C128.262 45.072 128.726 44.9707 129.153 44.768C129.579 44.5653 129.937 44.256 130.225 43.84L131.073 44.416C130.742 44.96 130.289 45.376 129.713 45.664C129.137 45.9413 128.491 46.08 127.777 46.08ZM134.716 46V38.288L135.004 38.592H131.532V37.6H139.036V38.592H135.564L135.852 38.288V46H134.716ZM145.895 46V44.144L145.847 43.84V40.736C145.847 40.0213 145.644 39.472 145.239 39.088C144.844 38.704 144.252 38.512 143.463 38.512C142.919 38.512 142.401 38.6027 141.911 38.784C141.42 38.9653 141.004 39.2053 140.663 39.504L140.151 38.656C140.577 38.2933 141.089 38.016 141.687 37.824C142.284 37.6213 142.913 37.52 143.575 37.52C144.663 37.52 145.5 37.792 146.087 38.336C146.684 38.8693 146.983 39.6853 146.983 40.784V46H145.895ZM142.999 46.08C142.369 46.08 141.82 45.9787 141.351 45.776C140.892 45.5627 140.54 45.2747 140.295 44.912C140.049 44.5387 139.927 44.112 139.927 43.632C139.927 43.1947 140.028 42.8 140.231 42.448C140.444 42.0853 140.785 41.7973 141.255 41.584C141.735 41.36 142.375 41.248 143.174 41.248H146.071V42.096H143.207C142.396 42.096 141.831 42.24 141.511 42.528C141.201 42.816 141.047 43.1733 141.047 43.6C141.047 44.08 141.233 44.464 141.607 44.752C141.98 45.04 142.503 45.184 143.174 45.184C143.815 45.184 144.364 45.04 144.823 44.752C145.292 44.4533 145.633 44.0267 145.847 43.472L146.103 44.256C145.889 44.8107 145.516 45.2533 144.983 45.584C144.46 45.9147 143.799 46.08 142.999 46.08ZM150.007 46V37.6H153.719C154.668 37.6 155.415 37.7813 155.959 38.144C156.513 38.5067 156.791 39.04 156.791 39.744C156.791 40.4267 156.529 40.9547 156.007 41.328C155.484 41.6907 154.796 41.872 153.943 41.872L154.167 41.536C155.169 41.536 155.905 41.7227 156.375 42.096C156.844 42.4693 157.079 43.008 157.079 43.712C157.079 44.4373 156.812 45.0027 156.279 45.408C155.756 45.8027 154.94 46 153.831 46H150.007ZM151.111 45.104H153.783C154.497 45.104 155.036 44.992 155.399 44.768C155.772 44.5333 155.959 44.16 155.959 43.648C155.959 43.136 155.793 42.7627 155.463 42.528C155.132 42.2933 154.609 42.176 153.895 42.176H151.111V45.104ZM151.111 41.328H153.639C154.289 41.328 154.785 41.2053 155.127 40.96C155.479 40.7147 155.655 40.3573 155.655 39.888C155.655 39.4187 155.479 39.0667 155.127 38.832C154.785 38.5973 154.289 38.48 153.639 38.48H151.111V41.328ZM165.901 46L162.445 41.84L163.389 41.28L167.245 46H165.901ZM159.741 46V37.6H160.877V46H159.741ZM160.525 42.256V41.28H163.229V42.256H160.525ZM163.485 41.92L162.429 41.76L165.773 37.6H167.005L163.485 41.92ZM174.098 46V44.144L174.05 43.84V40.736C174.05 40.0213 173.847 39.472 173.442 39.088C173.047 38.704 172.455 38.512 171.666 38.512C171.122 38.512 170.604 38.6027 170.114 38.784C169.623 38.9653 169.207 39.2053 168.866 39.504L168.354 38.656C168.78 38.2933 169.292 38.016 169.89 37.824C170.487 37.6213 171.116 37.52 171.778 37.52C172.866 37.52 173.703 37.792 174.29 38.336C174.887 38.8693 175.186 39.6853 175.186 40.784V46H174.098ZM171.202 46.08C170.572 46.08 170.023 45.9787 169.554 45.776C169.095 45.5627 168.743 45.2747 168.498 44.912C168.252 44.5387 168.13 44.112 168.13 43.632C168.13 43.1947 168.231 42.8 168.434 42.448C168.647 42.0853 168.988 41.7973 169.458 41.584C169.938 41.36 170.578 41.248 171.378 41.248H174.274V42.096H171.41C170.599 42.096 170.034 42.24 169.714 42.528C169.404 42.816 169.25 43.1733 169.25 43.6C169.25 44.08 169.436 44.464 169.81 44.752C170.183 45.04 170.706 45.184 171.378 45.184C172.018 45.184 172.567 45.04 173.026 44.752C173.495 44.4533 173.836 44.0267 174.05 43.472L174.306 44.256C174.092 44.8107 173.719 45.2533 173.186 45.584C172.663 45.9147 172.002 46.08 171.202 46.08ZM189.437 46V42.288L189.757 42.608H186.093C185.197 42.608 184.429 42.4533 183.789 42.144C183.16 41.8347 182.675 41.3973 182.333 40.832C182.003 40.256 181.837 39.568 181.837 38.768C181.837 37.9147 182.019 37.1947 182.381 36.608C182.744 36.0107 183.256 35.5627 183.917 35.264C184.589 34.9547 185.368 34.8 186.253 34.8H190.605V46H189.437ZM181.837 46L184.589 42.064H185.805L183.101 46H181.837ZM189.437 41.952V35.488L189.757 35.824H186.301C185.256 35.824 184.445 36.0747 183.869 36.576C183.304 37.0667 183.021 37.7867 183.021 38.736C183.021 39.6533 183.288 40.3627 183.821 40.864C184.355 41.3547 185.144 41.6 186.189 41.6H189.757L189.437 41.952ZM194.196 46.08C193.961 46.08 193.759 45.9947 193.588 45.824C193.428 45.6533 193.348 45.4453 193.348 45.2C193.348 44.944 193.428 44.736 193.588 44.576C193.759 44.416 193.961 44.336 194.196 44.336C194.431 44.336 194.628 44.416 194.788 44.576C194.959 44.736 195.044 44.944 195.044 45.2C195.044 45.4453 194.959 45.6533 194.788 45.824C194.628 45.9947 194.431 46.08 194.196 46.08ZM205.641 45.44V35.824H200.281L200.185 38.544C200.153 39.3867 200.099 40.1973 200.025 40.976C199.961 41.744 199.854 42.4373 199.705 43.056C199.566 43.664 199.374 44.16 199.129 44.544C198.894 44.928 198.585 45.152 198.201 45.216L196.905 44.976C197.331 44.9973 197.683 44.8427 197.961 44.512C198.249 44.1813 198.467 43.7173 198.617 43.12C198.777 42.5227 198.894 41.824 198.969 41.024C199.043 40.224 199.097 39.36 199.129 38.432L199.257 34.8H206.809V45.44H205.641ZM196.489 48.512L196.505 44.976H208.489V48.512H207.385V46H197.609L197.593 48.512H196.489ZM213.853 46.08C213.043 46.08 212.312 45.8987 211.661 45.536C211.021 45.1627 210.515 44.656 210.141 44.016C209.768 43.3653 209.581 42.624 209.581 41.792C209.581 40.9493 209.768 40.208 210.141 39.568C210.515 38.928 211.021 38.4267 211.661 38.064C212.301 37.7013 213.032 37.52 213.853 37.52C214.685 37.52 215.421 37.7013 216.061 38.064C216.712 38.4267 217.219 38.928 217.581 39.568C217.955 40.208 218.141 40.9493 218.141 41.792C218.141 42.624 217.955 43.3653 217.581 44.016C217.219 44.656 216.712 45.1627 216.061 45.536C215.411 45.8987 214.675 46.08 213.853 46.08ZM213.853 45.072C214.461 45.072 215 44.9387 215.469 44.672C215.939 44.3947 216.307 44.0107 216.573 43.52C216.851 43.0187 216.989 42.4427 216.989 41.792C216.989 41.1307 216.851 40.5547 216.573 40.064C216.307 39.5733 215.939 39.1947 215.469 38.928C215 38.6507 214.467 38.512 213.869 38.512C213.272 38.512 212.739 38.6507 212.269 38.928C211.8 39.1947 211.427 39.5733 211.149 40.064C210.872 40.5547 210.733 41.1307 210.733 41.792C210.733 42.4427 210.872 43.0187 211.149 43.52C211.427 44.0107 211.8 44.3947 212.269 44.672C212.739 44.9387 213.267 45.072 213.853 45.072ZM224.089 46.08C223.257 46.08 222.51 45.8987 221.849 45.536C221.198 45.1627 220.686 44.656 220.313 44.016C219.94 43.3653 219.753 42.624 219.753 41.792C219.753 40.9493 219.94 40.208 220.313 39.568C220.686 38.928 221.198 38.4267 221.849 38.064C222.51 37.7013 223.257 37.52 224.089 37.52C224.804 37.52 225.449 37.6587 226.025 37.936C226.601 38.2133 227.054 38.6293 227.385 39.184L226.537 39.76C226.249 39.3333 225.892 39.0187 225.465 38.816C225.038 38.6133 224.574 38.512 224.073 38.512C223.476 38.512 222.937 38.6507 222.457 38.928C221.977 39.1947 221.598 39.5733 221.321 40.064C221.044 40.5547 220.905 41.1307 220.905 41.792C220.905 42.4533 221.044 43.0293 221.321 43.52C221.598 44.0107 221.977 44.3947 222.457 44.672C222.937 44.9387 223.476 45.072 224.073 45.072C224.574 45.072 225.038 44.9707 225.465 44.768C225.892 44.5653 226.249 44.256 226.537 43.84L227.385 44.416C227.054 44.96 226.601 45.376 226.025 45.664C225.449 45.9413 224.804 46.08 224.089 46.08ZM231.029 46V38.288L231.317 38.592H227.845V37.6H235.349V38.592H231.877L232.165 38.288V46H231.029ZM242.207 46V44.144L242.159 43.84V40.736C242.159 40.0213 241.956 39.472 241.551 39.088C241.156 38.704 240.564 38.512 239.775 38.512C239.231 38.512 238.714 38.6027 238.223 38.784C237.732 38.9653 237.316 39.2053 236.975 39.504L236.463 38.656C236.89 38.2933 237.402 38.016 237.999 37.824C238.596 37.6213 239.226 37.52 239.887 37.52C240.975 37.52 241.812 37.792 242.399 38.336C242.996 38.8693 243.295 39.6853 243.295 40.784V46H242.207ZM239.311 46.08C238.682 46.08 238.132 45.9787 237.663 45.776C237.204 45.5627 236.852 45.2747 236.607 44.912C236.362 44.5387 236.239 44.112 236.239 43.632C236.239 43.1947 236.34 42.8 236.543 42.448C236.756 42.0853 237.098 41.7973 237.567 41.584C238.047 41.36 238.687 41.248 239.487 41.248H242.383V42.096H239.519C238.708 42.096 238.143 42.24 237.823 42.528C237.514 42.816 237.359 43.1733 237.359 43.6C237.359 44.08 237.546 44.464 237.919 44.752C238.292 45.04 238.815 45.184 239.487 45.184C240.127 45.184 240.676 45.04 241.135 44.752C241.604 44.4533 241.946 44.0267 242.159 43.472L242.415 44.256C242.202 44.8107 241.828 45.2533 241.295 45.584C240.772 45.9147 240.111 46.08 239.311 46.08ZM246.319 46V37.6H250.031C250.98 37.6 251.727 37.7813 252.271 38.144C252.826 38.5067 253.103 39.04 253.103 39.744C253.103 40.4267 252.842 40.9547 252.319 41.328C251.796 41.6907 251.108 41.872 250.255 41.872L250.479 41.536C251.482 41.536 252.218 41.7227 252.687 42.096C253.156 42.4693 253.391 43.008 253.391 43.712C253.391 44.4373 253.124 45.0027 252.591 45.408C252.068 45.8027 251.252 46 250.143 46H246.319ZM247.423 45.104H250.095C250.81 45.104 251.348 44.992 251.711 44.768C252.084 44.5333 252.271 44.16 252.271 43.648C252.271 43.136 252.106 42.7627 251.775 42.528C251.444 42.2933 250.922 42.176 250.207 42.176H247.423V45.104ZM247.423 41.328H249.951C250.602 41.328 251.098 41.2053 251.439 40.96C251.791 40.7147 251.967 40.3573 251.967 39.888C251.967 39.4187 251.791 39.0667 251.439 38.832C251.098 38.5973 250.602 38.48 249.951 38.48H247.423V41.328ZM262.214 46L258.758 41.84L259.702 41.28L263.558 46H262.214ZM256.054 46V37.6H257.19V46H256.054ZM256.838 42.256V41.28H259.542V42.256H256.838ZM259.798 41.92L258.742 41.76L262.086 37.6H263.318L259.798 41.92ZM270.41 46V44.144L270.362 43.84V40.736C270.362 40.0213 270.159 39.472 269.754 39.088C269.359 38.704 268.767 38.512 267.978 38.512C267.434 38.512 266.917 38.6027 266.426 38.784C265.935 38.9653 265.519 39.2053 265.178 39.504L264.666 38.656C265.093 38.2933 265.605 38.016 266.202 37.824C266.799 37.6213 267.429 37.52 268.09 37.52C269.178 37.52 270.015 37.792 270.602 38.336C271.199 38.8693 271.498 39.6853 271.498 40.784V46H270.41ZM267.514 46.08C266.885 46.08 266.335 45.9787 265.866 45.776C265.407 45.5627 265.055 45.2747 264.81 44.912C264.565 44.5387 264.442 44.112 264.442 43.632C264.442 43.1947 264.543 42.8 264.746 42.448C264.959 42.0853 265.301 41.7973 265.77 41.584C266.25 41.36 266.89 41.248 267.69 41.248H270.586V42.096H267.722C266.911 42.096 266.346 42.24 266.026 42.528C265.717 42.816 265.562 43.1733 265.562 43.6C265.562 44.08 265.749 44.464 266.122 44.752C266.495 45.04 267.018 45.184 267.69 45.184C268.33 45.184 268.879 45.04 269.338 44.752C269.807 44.4533 270.149 44.0267 270.362 43.472L270.618 44.256C270.405 44.8107 270.031 45.2533 269.498 45.584C268.975 45.9147 268.314 46.08 267.514 46.08ZM278.71 46V37.6H279.846V44.272L285.462 37.6H286.47V46H285.334V39.312L279.734 46H278.71ZM299.081 46.096C298.238 46.096 297.46 45.9573 296.745 45.68C296.03 45.392 295.412 44.992 294.889 44.48C294.366 43.968 293.956 43.3653 293.657 42.672C293.369 41.9787 293.225 41.2213 293.225 40.4C293.225 39.5787 293.369 38.8213 293.657 38.128C293.956 37.4347 294.366 36.832 294.889 36.32C295.422 35.808 296.046 35.4133 296.761 35.136C297.476 34.848 298.254 34.704 299.097 34.704C299.908 34.704 300.67 34.8427 301.385 35.12C302.1 35.3867 302.702 35.792 303.193 36.336L302.441 37.088C301.982 36.6187 301.476 36.2827 300.921 36.08C300.366 35.8667 299.769 35.76 299.129 35.76C298.457 35.76 297.833 35.8773 297.257 36.112C296.681 36.336 296.18 36.6613 295.753 37.088C295.326 37.504 294.99 37.9947 294.745 38.56C294.51 39.1147 294.393 39.728 294.393 40.4C294.393 41.072 294.51 41.6907 294.745 42.256C294.99 42.8107 295.326 43.3013 295.753 43.728C296.18 44.144 296.681 44.4693 297.257 44.704C297.833 44.928 298.457 45.04 299.129 45.04C299.769 45.04 300.366 44.9333 300.921 44.72C301.476 44.5067 301.982 44.1653 302.441 43.696L303.193 44.448C302.702 44.992 302.1 45.4027 301.385 45.68C300.67 45.9573 299.902 46.096 299.081 46.096ZM312.781 45.44V35.824H307.421L307.325 38.544C307.293 39.3867 307.24 40.1973 307.165 40.976C307.101 41.744 306.994 42.4373 306.845 43.056C306.706 43.664 306.514 44.16 306.269 44.544C306.034 44.928 305.725 45.152 305.341 45.216L304.045 44.976C304.472 44.9973 304.824 44.8427 305.101 44.512C305.389 44.1813 305.608 43.7173 305.757 43.12C305.917 42.5227 306.034 41.824 306.109 41.024C306.184 40.224 306.237 39.36 306.269 38.432L306.397 34.8H313.949V45.44H312.781ZM303.629 48.512L303.645 44.976H315.629V48.512H314.525V46H304.749L304.733 48.512H303.629ZM319.532 40.784V39.808H325.724V40.784H319.532ZM320.94 34.704C321.74 34.704 322.476 34.848 323.148 35.136C323.82 35.4133 324.407 35.808 324.908 36.32C325.42 36.832 325.815 37.4347 326.092 38.128C326.37 38.8213 326.508 39.5787 326.508 40.4C326.508 41.2213 326.37 41.9787 326.092 42.672C325.815 43.3653 325.42 43.968 324.908 44.48C324.407 44.992 323.82 45.392 323.148 45.68C322.476 45.9573 321.74 46.096 320.94 46.096C320.087 46.096 319.292 45.9573 318.556 45.68C317.82 45.4027 317.207 44.992 316.716 44.448L317.452 43.696C317.922 44.176 318.444 44.5227 319.02 44.736C319.596 44.9387 320.22 45.04 320.892 45.04C321.522 45.04 322.103 44.9227 322.636 44.688C323.18 44.4533 323.65 44.128 324.044 43.712C324.45 43.296 324.764 42.8107 324.988 42.256C325.212 41.6907 325.324 41.072 325.324 40.4C325.324 39.728 325.212 39.1147 324.988 38.56C324.764 37.9947 324.45 37.504 324.044 37.088C323.65 36.672 323.18 36.3467 322.636 36.112C322.103 35.8773 321.522 35.76 320.892 35.76C320.22 35.76 319.596 35.8667 319.02 36.08C318.444 36.2933 317.922 36.6347 317.452 37.104L316.716 36.352C317.207 35.808 317.82 35.3973 318.556 35.12C319.292 34.8427 320.087 34.704 320.94 34.704ZM337.005 46L332.701 40.416L333.661 39.84L338.365 46H337.005ZM329.341 46V34.8H330.493V46H329.341ZM330.141 40.864V39.824H333.645V40.864H330.141ZM333.757 40.528L332.669 40.336L336.845 34.8H338.125L333.757 40.528ZM101.616 70V61.6H109.168V70H108.032V62.288L108.32 62.592H102.464L102.752 62.288V70H101.616ZM115.853 70.08C115.043 70.08 114.312 69.8987 113.661 69.536C113.021 69.1627 112.515 68.656 112.141 68.016C111.768 67.3653 111.581 66.624 111.581 65.792C111.581 64.9493 111.768 64.208 112.141 63.568C112.515 62.928 113.021 62.4267 113.661 62.064C114.301 61.7013 115.032 61.52 115.853 61.52C116.685 61.52 117.421 61.7013 118.061 62.064C118.712 62.4267 119.219 62.928 119.581 63.568C119.955 64.208 120.141 64.9493 120.141 65.792C120.141 66.624 119.955 67.3653 119.581 68.016C119.219 68.656 118.712 69.1627 118.061 69.536C117.411 69.8987 116.675 70.08 115.853 70.08ZM115.853 69.072C116.461 69.072 117 68.9387 117.469 68.672C117.939 68.3947 118.307 68.0107 118.573 67.52C118.851 67.0187 118.989 66.4427 118.989 65.792C118.989 65.1307 118.851 64.5547 118.573 64.064C118.307 63.5733 117.939 63.1947 117.469 62.928C117 62.6507 116.467 62.512 115.869 62.512C115.272 62.512 114.739 62.6507 114.269 62.928C113.8 63.1947 113.427 63.5733 113.149 64.064C112.872 64.5547 112.733 65.1307 112.733 65.792C112.733 66.4427 112.872 67.0187 113.149 67.52C113.427 68.0107 113.8 68.3947 114.269 68.672C114.739 68.9387 115.267 69.072 115.853 69.072ZM126.757 70V61.6H130.469C131.418 61.6 132.165 61.7813 132.709 62.144C133.263 62.5067 133.541 63.04 133.541 63.744C133.541 64.4267 133.279 64.9547 132.757 65.328C132.234 65.6907 131.546 65.872 130.693 65.872L130.917 65.536C131.919 65.536 132.655 65.7227 133.125 66.096C133.594 66.4693 133.829 67.008 133.829 67.712C133.829 68.4373 133.562 69.0027 133.029 69.408C132.506 69.8027 131.69 70 130.581 70H126.757ZM127.861 69.104H130.533C131.247 69.104 131.786 68.992 132.149 68.768C132.522 68.5333 132.709 68.16 132.709 67.648C132.709 67.136 132.543 66.7627 132.213 66.528C131.882 66.2933 131.359 66.176 130.645 66.176H127.861V69.104ZM127.861 65.328H130.389C131.039 65.328 131.535 65.2053 131.877 64.96C132.229 64.7147 132.405 64.3573 132.405 63.888C132.405 63.4187 132.229 63.0667 131.877 62.832C131.535 62.5973 131.039 62.48 130.389 62.48H127.861V65.328ZM140.011 70.08C139.179 70.08 138.432 69.8987 137.771 69.536C137.12 69.1627 136.608 68.656 136.235 68.016C135.862 67.3653 135.675 66.624 135.675 65.792C135.675 64.9493 135.862 64.208 136.235 63.568C136.608 62.928 137.12 62.4267 137.771 62.064C138.432 61.7013 139.179 61.52 140.011 61.52C140.726 61.52 141.371 61.6587 141.947 61.936C142.523 62.2133 142.976 62.6293 143.307 63.184L142.459 63.76C142.171 63.3333 141.814 63.0187 141.387 62.816C140.96 62.6133 140.496 62.512 139.995 62.512C139.398 62.512 138.859 62.6507 138.379 62.928C137.899 63.1947 137.52 63.5733 137.243 64.064C136.966 64.5547 136.827 65.1307 136.827 65.792C136.827 66.4533 136.966 67.0293 137.243 67.52C137.52 68.0107 137.899 68.3947 138.379 68.672C138.859 68.9387 139.398 69.072 139.995 69.072C140.496 69.072 140.96 68.9707 141.387 68.768C141.814 68.5653 142.171 68.256 142.459 67.84L143.307 68.416C142.976 68.96 142.523 69.376 141.947 69.664C141.371 69.9413 140.726 70.08 140.011 70.08ZM148.966 70.08C148.091 70.08 147.323 69.8987 146.662 69.536C146.001 69.1627 145.483 68.656 145.11 68.016C144.737 67.3653 144.55 66.624 144.55 65.792C144.55 64.96 144.726 64.224 145.078 63.584C145.441 62.944 145.931 62.4427 146.55 62.08C147.179 61.7067 147.883 61.52 148.662 61.52C149.451 61.52 150.15 61.7013 150.758 62.064C151.377 62.416 151.862 62.9173 152.214 63.568C152.566 64.208 152.742 64.9493 152.742 65.792C152.742 65.8453 152.737 65.904 152.726 65.968C152.726 66.0213 152.726 66.08 152.726 66.144H145.414V65.296H152.118L151.67 65.632C151.67 65.024 151.537 64.4853 151.27 64.016C151.014 63.536 150.662 63.1627 150.214 62.896C149.766 62.6293 149.249 62.496 148.662 62.496C148.086 62.496 147.569 62.6293 147.11 62.896C146.651 63.1627 146.294 63.536 146.038 64.016C145.782 64.496 145.654 65.0453 145.654 65.664V65.84C145.654 66.48 145.793 67.0453 146.07 67.536C146.358 68.016 146.753 68.3947 147.254 68.672C147.766 68.9387 148.347 69.072 148.998 69.072C149.51 69.072 149.985 68.9813 150.422 68.8C150.87 68.6187 151.254 68.3413 151.574 67.968L152.214 68.704C151.841 69.152 151.371 69.4933 150.806 69.728C150.251 69.9627 149.638 70.08 148.966 70.08ZM155.257 70V61.6H156.393V68.272L162.009 61.6H163.017V70H161.881V63.312L156.281 70H155.257ZM159.065 60.384C158.361 60.384 157.79 60.208 157.353 59.856C156.926 59.4933 156.702 58.976 156.681 58.304H157.497C157.507 58.7307 157.657 59.0667 157.945 59.312C158.233 59.5573 158.606 59.68 159.065 59.68C159.523 59.68 159.897 59.5573 160.185 59.312C160.483 59.0667 160.638 58.7307 160.649 58.304H161.465C161.454 58.976 161.23 59.4933 160.793 59.856C160.355 60.208 159.779 60.384 159.065 60.384ZM170.732 70V58.8H174.924C175.873 58.8 176.689 58.9547 177.372 59.264C178.054 59.5627 178.577 60 178.94 60.576C179.313 61.1413 179.5 61.8293 179.5 62.64C179.5 63.4293 179.313 64.112 178.94 64.688C178.577 65.2533 178.054 65.6907 177.372 66C176.689 66.3093 175.873 66.464 174.924 66.464H171.388L171.916 65.904V70H170.732ZM171.916 66L171.388 65.424H174.892C176.012 65.424 176.86 65.184 177.436 64.704C178.022 64.2133 178.316 63.5253 178.316 62.64C178.316 61.744 178.022 61.0507 177.436 60.56C176.86 60.0693 176.012 59.824 174.892 59.824H171.388L171.916 59.264V66ZM187.372 69.232C186.038 69.232 184.897 69.0453 183.948 68.672C182.998 68.288 182.268 67.7333 181.756 67.008C181.244 66.2827 180.988 65.408 180.988 64.384C180.988 63.36 181.244 62.4907 181.756 61.776C182.268 61.0507 182.998 60.496 183.948 60.112C184.897 59.728 186.038 59.536 187.372 59.536C187.382 59.536 187.409 59.536 187.452 59.536C187.494 59.536 187.537 59.536 187.58 59.536C187.622 59.536 187.649 59.536 187.66 59.536C189.004 59.536 190.15 59.728 191.1 60.112C192.049 60.496 192.78 61.0507 193.292 61.776C193.804 62.4907 194.06 63.36 194.06 64.384C194.06 65.408 193.804 66.2827 193.292 67.008C192.79 67.7333 192.065 68.288 191.116 68.672C190.166 69.0453 189.03 69.232 187.708 69.232C187.686 69.232 187.649 69.232 187.596 69.232C187.553 69.232 187.505 69.232 187.452 69.232C187.409 69.232 187.382 69.232 187.372 69.232ZM187.5 68.304C187.521 68.304 187.542 68.304 187.564 68.304C187.585 68.304 187.601 68.304 187.612 68.304C188.732 68.2933 189.686 68.1387 190.476 67.84C191.276 67.5307 191.884 67.088 192.3 66.512C192.716 65.9253 192.924 65.216 192.924 64.384C192.924 63.5413 192.71 62.832 192.284 62.256C191.868 61.68 191.265 61.2427 190.476 60.944C189.697 60.6347 188.753 60.48 187.644 60.48C187.633 60.48 187.612 60.48 187.58 60.48C187.548 60.48 187.521 60.48 187.5 60.48C186.369 60.48 185.404 60.6293 184.604 60.928C183.804 61.2267 183.19 61.6693 182.764 62.256C182.337 62.832 182.124 63.5413 182.124 64.384C182.124 65.2373 182.337 65.9573 182.764 66.544C183.201 67.12 183.82 67.5573 184.62 67.856C185.43 68.1547 186.39 68.304 187.5 68.304ZM186.972 70.384V58.416H188.076V70.384H186.972Z" fill="#141414"/>
</svg>
