<svg width="20" height="20" viewBox="0 0 20 20" fill="none" xmlns="http://www.w3.org/2000/svg">
<path d="M7.50016 9.58333L9.16683 11.25L12.9168 7.49999M16.6668 9.99999C16.6668 14.0904 12.2052 17.0653 10.5818 18.0124C10.3973 18.12 10.3051 18.1738 10.1749 18.2018C10.0739 18.2234 9.92646 18.2234 9.82543 18.2018C9.69524 18.1738 9.603 18.12 9.4185 18.0124C7.79513 17.0653 3.3335 14.0904 3.3335 9.99999L3.3335 6.01466C3.3335 5.3484 3.3335 5.01527 3.44246 4.72891C3.53872 4.47594 3.69515 4.25023 3.89821 4.07127C4.12808 3.86869 4.43999 3.75172 5.06383 3.51778L9.532 1.84222C9.70524 1.77725 9.79187 1.74477 9.88098 1.73189C9.96003 1.72047 10.0403 1.72047 10.1193 1.73189C10.2085 1.74477 10.2951 1.77725 10.4683 1.84222L14.9365 3.51778C15.5603 3.75172 15.8722 3.86869 16.1021 4.07127C16.3052 4.25023 16.4616 4.47594 16.5579 4.72891C16.6668 5.01527 16.6668 5.3484 16.6668 6.01466V9.99999Z" stroke="#707D89" stroke-width="2" stroke-linecap="round" stroke-linejoin="round"/>
</svg>
