<svg width="220" height="154" viewBox="0 0 220 154" fill="none" xmlns="http://www.w3.org/2000/svg">
<rect x="0.5" y="0.5" width="219" height="153" stroke="#DCE3EB"/>
<path d="M36 40C38.2091 40 40 38.2092 40 36C40 33.7909 38.2091 32 36 32C33.7909 32 32 33.7909 32 36C32 38.2092 33.7909 40 36 40Z" stroke="#29A1F8" stroke-width="2" stroke-linecap="round" stroke-linejoin="round"/>
<path d="M44.9697 39.6364C44.8083 40.002 44.7602 40.4075 44.8315 40.8007C44.9028 41.1939 45.0903 41.5568 45.3697 41.8424L45.4424 41.9152C45.6678 42.1403 45.8466 42.4077 45.9686 42.702C46.0906 42.9963 46.1534 43.3117 46.1534 43.6303C46.1534 43.9489 46.0906 44.2644 45.9686 44.5587C45.8466 44.853 45.6678 45.1203 45.4424 45.3455C45.2173 45.5709 44.9499 45.7497 44.6556 45.8717C44.3613 45.9937 44.0459 46.0565 43.7273 46.0565C43.4087 46.0565 43.0932 45.9937 42.7989 45.8717C42.5046 45.7497 42.2373 45.5709 42.0121 45.3455L41.9394 45.2727C41.6537 44.9933 41.2909 44.8059 40.8977 44.7346C40.5045 44.6633 40.0989 44.7114 39.7333 44.8727C39.3748 45.0264 39.0691 45.2815 38.8537 45.6067C38.6383 45.9319 38.5228 46.313 38.5212 46.703V46.9091C38.5212 47.5521 38.2658 48.1687 37.8112 48.6233C37.3565 49.0779 36.7399 49.3334 36.097 49.3334C35.454 49.3334 34.8374 49.0779 34.3828 48.6233C33.9281 48.1687 33.6727 47.5521 33.6727 46.9091V46.8C33.6633 46.3988 33.5335 46.0097 33.3 45.6833C33.0666 45.3569 32.7403 45.1082 32.3636 44.9697C31.998 44.8084 31.5925 44.7602 31.1993 44.8315C30.8061 44.9028 30.4433 45.0903 30.1576 45.3697L30.0849 45.4424C29.8597 45.6678 29.5923 45.8467 29.298 45.9686C29.0037 46.0906 28.6883 46.1534 28.3697 46.1534C28.0511 46.1534 27.7357 46.0906 27.4414 45.9686C27.1471 45.8467 26.8797 45.6678 26.6546 45.4424C26.4292 45.2173 26.2503 44.9499 26.1283 44.6556C26.0063 44.3613 25.9436 44.0459 25.9436 43.7273C25.9436 43.4087 26.0063 43.0933 26.1283 42.799C26.2503 42.5047 26.4292 42.2373 26.6546 42.0121L26.7273 41.9394C27.0067 41.6537 27.1942 41.2909 27.2655 40.8977C27.3368 40.5045 27.2886 40.0989 27.1273 39.7334C26.9736 39.3748 26.7185 39.0691 26.3933 38.8537C26.0681 38.6384 25.687 38.5228 25.297 38.5212H25.0909C24.448 38.5212 23.8313 38.2658 23.3767 37.8112C22.9221 37.3566 22.6667 36.7399 22.6667 36.097C22.6667 35.454 22.9221 34.8374 23.3767 34.3828C23.8313 33.9282 24.448 33.6727 25.0909 33.6727H25.2C25.6012 33.6634 25.9903 33.5335 26.3167 33.3C26.6431 33.0666 26.8918 32.7403 27.0303 32.3637C27.1917 31.9981 27.2398 31.5925 27.1685 31.1993C27.0972 30.8061 26.9097 30.4433 26.6303 30.1576L26.5576 30.0849C26.3322 29.8597 26.1534 29.5924 26.0314 29.2981C25.9094 29.0038 25.8466 28.6883 25.8466 28.3697C25.8466 28.0511 25.9094 27.7357 26.0314 27.4414C26.1534 27.1471 26.3322 26.8797 26.5576 26.6546C26.7827 26.4292 27.0501 26.2504 27.3444 26.1284C27.6387 26.0064 27.9541 25.9436 28.2727 25.9436C28.5913 25.9436 28.9068 26.0064 29.2011 26.1284C29.4954 26.2504 29.7627 26.4292 29.9879 26.6546L30.0606 26.7273C30.3463 27.0067 30.7091 27.1942 31.1023 27.2655C31.4955 27.3368 31.9011 27.2886 32.2667 27.1273H32.3636C32.7221 26.9736 33.0279 26.7185 33.2433 26.3933C33.4586 26.0681 33.5742 25.687 33.5758 25.297V25.0909C33.5758 24.448 33.8312 23.8314 34.2858 23.3767C34.7404 22.9221 35.3571 22.6667 36 22.6667C36.643 22.6667 37.2596 22.9221 37.7142 23.3767C38.1688 23.8314 38.4242 24.448 38.4242 25.0909V25.2C38.4258 25.5901 38.5414 25.9711 38.7567 26.2963C38.9721 26.6215 39.2779 26.8767 39.6364 27.0303C40.002 27.1917 40.4075 27.2398 40.8007 27.1685C41.1939 27.0972 41.5568 26.9098 41.8424 26.6303L41.9152 26.5576C42.1403 26.3322 42.4077 26.1534 42.702 26.0314C42.9963 25.9094 43.3117 25.8466 43.6303 25.8466C43.9489 25.8466 44.2644 25.9094 44.5586 26.0314C44.8529 26.1534 45.1203 26.3322 45.3455 26.5576C45.5709 26.7827 45.7497 27.0501 45.8717 27.3444C45.9937 27.6387 46.0565 27.9542 46.0565 28.2727C46.0565 28.5913 45.9937 28.9068 45.8717 29.2011C45.7497 29.4954 45.5709 29.7628 45.3455 29.9879L45.2727 30.0606C44.9933 30.3463 44.8058 30.7091 44.7345 31.1023C44.6632 31.4955 44.7114 31.9011 44.8727 32.2667V32.3637C45.0264 32.7222 45.2815 33.0279 45.6067 33.2433C45.9319 33.4586 46.313 33.5742 46.703 33.5758H46.9091C47.552 33.5758 48.1687 33.8312 48.6233 34.2858C49.0779 34.7405 49.3333 35.3571 49.3333 36C49.3333 36.643 49.0779 37.2596 48.6233 37.7142C48.1687 38.1689 47.552 38.4243 46.9091 38.4243H46.8C46.41 38.4258 46.0289 38.5414 45.7037 38.7568C45.3785 38.9721 45.1234 39.2779 44.9697 39.6364Z" stroke="#29A1F8" stroke-width="2" stroke-linecap="round" stroke-linejoin="round"/>
<path d="M25.936 84.084C25.1987 84.084 24.5173 83.9627 23.892 83.72C23.2667 83.468 22.7253 83.118 22.268 82.67C21.8107 82.222 21.4513 81.6947 21.19 81.088C20.938 80.4813 20.812 79.8187 20.812 79.1C20.812 78.3813 20.938 77.7187 21.19 77.112C21.4513 76.5053 21.8107 75.978 22.268 75.53C22.7347 75.082 23.2807 74.7367 23.906 74.494C24.5313 74.242 25.2127 74.116 25.95 74.116C26.6593 74.116 27.3267 74.2373 27.952 74.48C28.5773 74.7133 29.1047 75.068 29.534 75.544L28.876 76.202C28.4747 75.7913 28.0313 75.4973 27.546 75.32C27.0607 75.1333 26.538 75.04 25.978 75.04C25.39 75.04 24.844 75.1427 24.34 75.348C23.836 75.544 23.3973 75.8287 23.024 76.202C22.6507 76.566 22.3567 76.9953 22.142 77.49C21.9367 77.9753 21.834 78.512 21.834 79.1C21.834 79.688 21.9367 80.2293 22.142 80.724C22.3567 81.2093 22.6507 81.6387 23.024 82.012C23.3973 82.376 23.836 82.6607 24.34 82.866C24.844 83.062 25.39 83.16 25.978 83.16C26.538 83.16 27.0607 83.0667 27.546 82.88C28.0313 82.6933 28.4747 82.3947 28.876 81.984L29.534 82.642C29.1047 83.118 28.5773 83.4773 27.952 83.72C27.3267 83.9627 26.6547 84.084 25.936 84.084ZM34.1314 84.07C33.422 84.07 32.7827 83.9113 32.2134 83.594C31.6534 83.2673 31.21 82.824 30.8834 82.264C30.5567 81.6947 30.3934 81.046 30.3934 80.318C30.3934 79.5807 30.5567 78.932 30.8834 78.372C31.21 77.812 31.6534 77.3733 32.2134 77.056C32.7734 76.7387 33.4127 76.58 34.1314 76.58C34.8594 76.58 35.5034 76.7387 36.0634 77.056C36.6327 77.3733 37.076 77.812 37.3934 78.372C37.72 78.932 37.8834 79.5807 37.8834 80.318C37.8834 81.046 37.72 81.6947 37.3934 82.264C37.076 82.824 36.6327 83.2673 36.0634 83.594C35.494 83.9113 34.85 84.07 34.1314 84.07ZM34.1314 83.188C34.6634 83.188 35.1347 83.0713 35.5454 82.838C35.956 82.5953 36.278 82.2593 36.5114 81.83C36.754 81.3913 36.8754 80.8873 36.8754 80.318C36.8754 79.7393 36.754 79.2353 36.5114 78.806C36.278 78.3767 35.956 78.0453 35.5454 77.812C35.1347 77.5693 34.668 77.448 34.1454 77.448C33.6227 77.448 33.156 77.5693 32.7454 77.812C32.3347 78.0453 32.008 78.3767 31.7654 78.806C31.5227 79.2353 31.4014 79.7393 31.4014 80.318C31.4014 80.8873 31.5227 81.3913 31.7654 81.83C32.008 82.2593 32.3347 82.5953 32.7454 82.838C33.156 83.0713 33.618 83.188 34.1314 83.188ZM43.3118 84.084C42.7144 84.084 42.1824 83.986 41.7158 83.79C41.2584 83.594 40.8664 83.2953 40.5398 82.894C40.2131 82.4927 39.9658 81.998 39.7978 81.41C39.6298 80.8127 39.5458 80.122 39.5458 79.338C39.5458 78.638 39.6111 78.0267 39.7418 77.504C39.8724 76.972 40.0544 76.5147 40.2878 76.132C40.5211 75.7493 40.7918 75.4273 41.0998 75.166C41.4171 74.8953 41.7578 74.6807 42.1218 74.522C42.4951 74.354 42.8778 74.228 43.2698 74.144L46.5738 73.374L46.7418 74.298L43.6338 74.998C43.4378 75.0447 43.1998 75.11 42.9198 75.194C42.6491 75.278 42.3691 75.404 42.0798 75.572C41.7998 75.74 41.5384 75.9733 41.2958 76.272C41.0531 76.5707 40.8571 76.958 40.7078 77.434C40.5678 77.9007 40.4978 78.484 40.4978 79.184C40.4978 79.3333 40.5024 79.4547 40.5118 79.548C40.5211 79.632 40.5304 79.7253 40.5398 79.828C40.5584 79.9213 40.5724 80.0613 40.5818 80.248L40.1478 79.884C40.2504 79.3147 40.4604 78.82 40.7778 78.4C41.0951 77.9707 41.4918 77.6393 41.9678 77.406C42.4531 77.1633 42.9898 77.042 43.5778 77.042C44.2591 77.042 44.8658 77.1913 45.3978 77.49C45.9298 77.7793 46.3451 78.1853 46.6438 78.708C46.9518 79.2307 47.1058 79.8373 47.1058 80.528C47.1058 81.2093 46.9471 81.8207 46.6298 82.362C46.3218 82.9033 45.8831 83.328 45.3138 83.636C44.7444 83.9347 44.0771 84.084 43.3118 84.084ZM43.4238 83.258C43.9464 83.258 44.4084 83.1413 44.8098 82.908C45.2111 82.6653 45.5238 82.3387 45.7478 81.928C45.9811 81.5173 46.0978 81.0553 46.0978 80.542C46.0978 80.038 45.9811 79.59 45.7478 79.198C45.5238 78.806 45.2111 78.498 44.8098 78.274C44.4084 78.0407 43.9418 77.924 43.4098 77.924C42.8871 77.924 42.4251 78.036 42.0238 78.26C41.6224 78.4747 41.3051 78.778 41.0718 79.17C40.8478 79.562 40.7358 80.0147 40.7358 80.528C40.7358 81.0413 40.8478 81.5033 41.0718 81.914C41.3051 82.3247 41.6224 82.6513 42.0238 82.894C42.4344 83.1367 42.9011 83.258 43.4238 83.258ZM52.3163 84.07C51.5883 84.07 50.9349 83.9113 50.3563 83.594C49.7869 83.2673 49.3389 82.824 49.0123 82.264C48.6856 81.6947 48.5223 81.046 48.5223 80.318C48.5223 79.5807 48.6856 78.932 49.0123 78.372C49.3389 77.812 49.7869 77.3733 50.3563 77.056C50.9349 76.7387 51.5883 76.58 52.3163 76.58C52.9416 76.58 53.5063 76.7013 54.0103 76.944C54.5143 77.1867 54.9109 77.5507 55.2003 78.036L54.4583 78.54C54.2063 78.1667 53.8936 77.8913 53.5203 77.714C53.1469 77.5367 52.7409 77.448 52.3023 77.448C51.7796 77.448 51.3083 77.5693 50.8883 77.812C50.4683 78.0453 50.1369 78.3767 49.8943 78.806C49.6516 79.2353 49.5303 79.7393 49.5303 80.318C49.5303 80.8967 49.6516 81.4007 49.8943 81.83C50.1369 82.2593 50.4683 82.5953 50.8883 82.838C51.3083 83.0713 51.7796 83.188 52.3023 83.188C52.7409 83.188 53.1469 83.0993 53.5203 82.922C53.8936 82.7447 54.2063 82.474 54.4583 82.11L55.2003 82.614C54.9109 83.09 54.5143 83.454 54.0103 83.706C53.5063 83.9487 52.9416 84.07 52.3163 84.07ZM58.3882 84V77.252L58.6402 77.518H55.6022V76.65H62.1682V77.518H59.1302L59.3822 77.252V84H58.3882ZM63.6054 84V76.65H66.8534C67.6841 76.65 68.3374 76.8087 68.8134 77.126C69.2987 77.4433 69.5414 77.91 69.5414 78.526C69.5414 79.1233 69.3127 79.5853 68.8554 79.912C68.3981 80.2293 67.7961 80.388 67.0494 80.388L67.2454 80.094C68.1227 80.094 68.7667 80.2573 69.1774 80.584C69.5881 80.9107 69.7934 81.382 69.7934 81.998C69.7934 82.6327 69.5601 83.1273 69.0934 83.482C68.6361 83.8273 67.9221 84 66.9514 84H63.6054ZM64.5714 83.216H66.9094C67.5347 83.216 68.0061 83.118 68.3234 82.922C68.6501 82.7167 68.8134 82.39 68.8134 81.942C68.8134 81.494 68.6687 81.1673 68.3794 80.962C68.0901 80.7567 67.6327 80.654 67.0074 80.654H64.5714V83.216ZM64.5714 79.912H66.7834C67.3527 79.912 67.7867 79.8047 68.0854 79.59C68.3934 79.3753 68.5474 79.0627 68.5474 78.652C68.5474 78.2413 68.3934 77.9333 68.0854 77.728C67.7867 77.5227 67.3527 77.42 66.7834 77.42H64.5714V79.912ZM75.273 84.07C74.5077 84.07 73.8357 83.9113 73.257 83.594C72.6783 83.2673 72.2257 82.824 71.899 82.264C71.5723 81.6947 71.409 81.046 71.409 80.318C71.409 79.59 71.563 78.946 71.871 78.386C72.1883 77.826 72.6177 77.3873 73.159 77.07C73.7097 76.7433 74.3257 76.58 75.007 76.58C75.6977 76.58 76.309 76.7387 76.841 77.056C77.3823 77.364 77.807 77.8027 78.115 78.372C78.423 78.932 78.577 79.5807 78.577 80.318C78.577 80.3647 78.5723 80.416 78.563 80.472C78.563 80.5187 78.563 80.57 78.563 80.626H72.165V79.884H78.031L77.639 80.178C77.639 79.646 77.5223 79.1747 77.289 78.764C77.065 78.344 76.757 78.0173 76.365 77.784C75.973 77.5507 75.5203 77.434 75.007 77.434C74.503 77.434 74.0503 77.5507 73.649 77.784C73.2477 78.0173 72.935 78.344 72.711 78.764C72.487 79.184 72.375 79.6647 72.375 80.206V80.36C72.375 80.92 72.4963 81.4147 72.739 81.844C72.991 82.264 73.3363 82.5953 73.775 82.838C74.223 83.0713 74.7317 83.188 75.301 83.188C75.749 83.188 76.1643 83.1087 76.547 82.95C76.939 82.7913 77.275 82.5487 77.555 82.222L78.115 82.866C77.7883 83.258 77.3777 83.5567 76.883 83.762C76.3977 83.9673 75.861 84.07 75.273 84.07ZM80.7773 84V76.65H81.7713V79.898H86.4053V76.65H87.3993V84H86.4053V80.752H81.7713V84H80.7773ZM90.2245 84V76.65H91.2185V79.898H95.8525V76.65H96.8465V84H95.8525V80.752H91.2185V84H90.2245ZM102.696 84.07C101.986 84.07 101.347 83.9113 100.778 83.594C100.218 83.2673 99.7745 82.824 99.4478 82.264C99.1211 81.6947 98.9578 81.046 98.9578 80.318C98.9578 79.5807 99.1211 78.932 99.4478 78.372C99.7745 77.812 100.218 77.3733 100.778 77.056C101.338 76.7387 101.977 76.58 102.696 76.58C103.424 76.58 104.068 76.7387 104.628 77.056C105.197 77.3733 105.64 77.812 105.958 78.372C106.284 78.932 106.448 79.5807 106.448 80.318C106.448 81.046 106.284 81.6947 105.958 82.264C105.64 82.824 105.197 83.2673 104.628 83.594C104.058 83.9113 103.414 84.07 102.696 84.07ZM102.696 83.188C103.228 83.188 103.699 83.0713 104.11 82.838C104.52 82.5953 104.842 82.2593 105.076 81.83C105.318 81.3913 105.44 80.8873 105.44 80.318C105.44 79.7393 105.318 79.2353 105.076 78.806C104.842 78.3767 104.52 78.0453 104.11 77.812C103.699 77.5693 103.232 77.448 102.71 77.448C102.187 77.448 101.72 77.5693 101.31 77.812C100.899 78.0453 100.572 78.3767 100.33 78.806C100.087 79.2353 99.9658 79.7393 99.9658 80.318C99.9658 80.8873 100.087 81.3913 100.33 81.83C100.572 82.2593 100.899 82.5953 101.31 82.838C101.72 83.0713 102.182 83.188 102.696 83.188ZM111.722 84.07C110.957 84.07 110.285 83.9113 109.706 83.594C109.128 83.2673 108.675 82.824 108.348 82.264C108.022 81.6947 107.858 81.046 107.858 80.318C107.858 79.59 108.012 78.946 108.32 78.386C108.638 77.826 109.067 77.3873 109.608 77.07C110.159 76.7433 110.775 76.58 111.456 76.58C112.147 76.58 112.758 76.7387 113.29 77.056C113.832 77.364 114.256 77.8027 114.564 78.372C114.872 78.932 115.026 79.5807 115.026 80.318C115.026 80.3647 115.022 80.416 115.012 80.472C115.012 80.5187 115.012 80.57 115.012 80.626H108.614V79.884H114.48L114.088 80.178C114.088 79.646 113.972 79.1747 113.738 78.764C113.514 78.344 113.206 78.0173 112.814 77.784C112.422 77.5507 111.97 77.434 111.456 77.434C110.952 77.434 110.5 77.5507 110.098 77.784C109.697 78.0173 109.384 78.344 109.16 78.764C108.936 79.184 108.824 79.6647 108.824 80.206V80.36C108.824 80.92 108.946 81.4147 109.188 81.844C109.44 82.264 109.786 82.5953 110.224 82.838C110.672 83.0713 111.181 83.188 111.75 83.188C112.198 83.188 112.614 83.1087 112.996 82.95C113.388 82.7913 113.724 82.5487 114.004 82.222L114.564 82.866C114.238 83.258 113.827 83.5567 113.332 83.762C112.847 83.9673 112.31 84.07 111.722 84.07ZM21.414 106V98.65H28.022V106H27.028V99.252L27.28 99.518H22.156L22.408 99.252V106H21.414ZM34.6416 106.07C34.0069 106.07 33.4329 105.925 32.9196 105.636C32.4063 105.337 31.9956 104.913 31.6876 104.362C31.3889 103.802 31.2396 103.121 31.2396 102.318C31.2396 101.515 31.3889 100.839 31.6876 100.288C31.9863 99.728 32.3923 99.3033 32.9056 99.014C33.4189 98.7247 33.9976 98.58 34.6416 98.58C35.3416 98.58 35.9669 98.7387 36.5176 99.056C37.0776 99.364 37.5163 99.8027 37.8336 100.372C38.1509 100.932 38.3096 101.581 38.3096 102.318C38.3096 103.065 38.1509 103.718 37.8336 104.278C37.5163 104.838 37.0776 105.277 36.5176 105.594C35.9669 105.911 35.3416 106.07 34.6416 106.07ZM30.8476 108.716V98.65H31.7996V100.862L31.7016 102.332L31.8416 103.816V108.716H30.8476ZM34.5716 105.188C35.0943 105.188 35.5609 105.071 35.9716 104.838C36.3823 104.595 36.7089 104.259 36.9516 103.83C37.1943 103.391 37.3156 102.887 37.3156 102.318C37.3156 101.749 37.1943 101.249 36.9516 100.82C36.7089 100.391 36.3823 100.055 35.9716 99.812C35.5609 99.5693 35.0943 99.448 34.5716 99.448C34.0489 99.448 33.5776 99.5693 33.1576 99.812C32.7469 100.055 32.4203 100.391 32.1776 100.82C31.9443 101.249 31.8276 101.749 31.8276 102.318C31.8276 102.887 31.9443 103.391 32.1776 103.83C32.4203 104.259 32.7469 104.595 33.1576 104.838C33.5776 105.071 34.0489 105.188 34.5716 105.188ZM43.4693 106.07C42.7599 106.07 42.1206 105.911 41.5513 105.594C40.9913 105.267 40.5479 104.824 40.2213 104.264C39.8946 103.695 39.7313 103.046 39.7313 102.318C39.7313 101.581 39.8946 100.932 40.2213 100.372C40.5479 99.812 40.9913 99.3733 41.5513 99.056C42.1113 98.7387 42.7506 98.58 43.4693 98.58C44.1973 98.58 44.8413 98.7387 45.4013 99.056C45.9706 99.3733 46.4139 99.812 46.7313 100.372C47.0579 100.932 47.2213 101.581 47.2213 102.318C47.2213 103.046 47.0579 103.695 46.7313 104.264C46.4139 104.824 45.9706 105.267 45.4013 105.594C44.8319 105.911 44.1879 106.07 43.4693 106.07ZM43.4693 105.188C44.0013 105.188 44.4726 105.071 44.8833 104.838C45.2939 104.595 45.6159 104.259 45.8493 103.83C46.0919 103.391 46.2133 102.887 46.2133 102.318C46.2133 101.739 46.0919 101.235 45.8493 100.806C45.6159 100.377 45.2939 100.045 44.8833 99.812C44.4726 99.5693 44.0059 99.448 43.4833 99.448C42.9606 99.448 42.4939 99.5693 42.0833 99.812C41.6726 100.045 41.3459 100.377 41.1033 100.806C40.8606 101.235 40.7393 101.739 40.7393 102.318C40.7393 102.887 40.8606 103.391 41.1033 103.83C41.3459 104.259 41.6726 104.595 42.0833 104.838C42.4939 105.071 42.9559 105.188 43.4693 105.188ZM49.3456 106V98.65H50.3396V104.488L55.2536 98.65H56.1356V106H55.1416V100.148L50.2416 106H49.3456ZM60.8079 106.084C60.2759 106.084 59.7486 106.009 59.2259 105.86C58.7033 105.711 58.2413 105.482 57.8399 105.174L58.1619 104.432C58.5166 104.693 58.9273 104.894 59.3939 105.034C59.8606 105.165 60.3226 105.23 60.7799 105.23C61.2373 105.221 61.6339 105.155 61.9699 105.034C62.3059 104.913 62.5673 104.745 62.7539 104.53C62.9406 104.315 63.0339 104.073 63.0339 103.802C63.0339 103.41 62.8566 103.107 62.5019 102.892C62.1473 102.668 61.6619 102.556 61.0459 102.556H59.7859V101.828H60.9759C61.3399 101.828 61.6619 101.781 61.9419 101.688C62.2219 101.595 62.4366 101.459 62.5859 101.282C62.7446 101.105 62.8239 100.895 62.8239 100.652C62.8239 100.391 62.7306 100.167 62.5439 99.98C62.3666 99.7933 62.1193 99.6533 61.8019 99.56C61.4846 99.4667 61.1253 99.42 60.7239 99.42C60.3599 99.4293 59.9819 99.4853 59.5899 99.588C59.1979 99.6813 58.8106 99.826 58.4279 100.022L58.1479 99.252C58.5773 99.028 59.0019 98.86 59.4219 98.748C59.8513 98.6267 60.2806 98.566 60.7099 98.566C61.2979 98.5473 61.8253 98.6173 62.2919 98.776C62.7679 98.9347 63.1459 99.1633 63.4259 99.462C63.7059 99.7513 63.8459 100.101 63.8459 100.512C63.8459 100.876 63.7339 101.193 63.5099 101.464C63.2859 101.735 62.9873 101.945 62.6139 102.094C62.2406 102.243 61.8159 102.318 61.3399 102.318L61.3819 102.052C62.2219 102.052 62.8753 102.215 63.3419 102.542C63.8179 102.869 64.0559 103.312 64.0559 103.872C64.0559 104.311 63.9113 104.698 63.6219 105.034C63.3326 105.361 62.9406 105.617 62.4459 105.804C61.9606 105.991 61.4146 106.084 60.8079 106.084ZM66.3124 106V98.65H69.5604C70.3911 98.65 71.0444 98.8087 71.5204 99.126C72.0058 99.4433 72.2484 99.91 72.2484 100.526C72.2484 101.123 72.0198 101.585 71.5624 101.912C71.1051 102.229 70.5031 102.388 69.7564 102.388L69.9524 102.094C70.8298 102.094 71.4738 102.257 71.8844 102.584C72.2951 102.911 72.5004 103.382 72.5004 103.998C72.5004 104.633 72.2671 105.127 71.8004 105.482C71.3431 105.827 70.6291 106 69.6584 106H66.3124ZM67.2784 105.216H69.6164C70.2418 105.216 70.7131 105.118 71.0304 104.922C71.3571 104.717 71.5204 104.39 71.5204 103.942C71.5204 103.494 71.3758 103.167 71.0864 102.962C70.7971 102.757 70.3398 102.654 69.7144 102.654H67.2784V105.216ZM67.2784 101.912H69.4904C70.0598 101.912 70.4938 101.805 70.7924 101.59C71.1004 101.375 71.2544 101.063 71.2544 100.652C71.2544 100.241 71.1004 99.9333 70.7924 99.728C70.4938 99.5227 70.0598 99.42 69.4904 99.42H67.2784V101.912ZM77.854 106.07C77.1447 106.07 76.5053 105.911 75.936 105.594C75.376 105.267 74.9327 104.824 74.606 104.264C74.2793 103.695 74.116 103.046 74.116 102.318C74.116 101.581 74.2793 100.932 74.606 100.372C74.9327 99.812 75.376 99.3733 75.936 99.056C76.496 98.7387 77.1353 98.58 77.854 98.58C78.582 98.58 79.226 98.7387 79.786 99.056C80.3553 99.3733 80.7987 99.812 81.116 100.372C81.4427 100.932 81.606 101.581 81.606 102.318C81.606 103.046 81.4427 103.695 81.116 104.264C80.7987 104.824 80.3553 105.267 79.786 105.594C79.2167 105.911 78.5727 106.07 77.854 106.07ZM77.854 105.188C78.386 105.188 78.8573 105.071 79.268 104.838C79.6787 104.595 80.0007 104.259 80.234 103.83C80.4767 103.391 80.598 102.887 80.598 102.318C80.598 101.739 80.4767 101.235 80.234 100.806C80.0007 100.377 79.6787 100.045 79.268 99.812C78.8573 99.5693 78.3907 99.448 77.868 99.448C77.3453 99.448 76.8787 99.5693 76.468 99.812C76.0573 100.045 75.7307 100.377 75.488 100.806C75.2453 101.235 75.124 101.739 75.124 102.318C75.124 102.887 75.2453 103.391 75.488 103.83C75.7307 104.259 76.0573 104.595 76.468 104.838C76.8787 105.071 77.3407 105.188 77.854 105.188ZM88.7294 105.524V99.518H85.1874L85.1034 101.156C85.0847 101.651 85.0521 102.136 85.0054 102.612C84.9681 103.088 84.8981 103.527 84.7954 103.928C84.7021 104.32 84.5667 104.642 84.3894 104.894C84.2121 105.137 83.9834 105.277 83.7034 105.314L82.7094 105.132C82.9987 105.141 83.2367 105.039 83.4234 104.824C83.6101 104.6 83.7547 104.297 83.8574 103.914C83.9601 103.531 84.0347 103.097 84.0814 102.612C84.1281 102.117 84.1654 101.613 84.1934 101.1L84.2914 98.65H89.7234V105.524H88.7294ZM82.4014 107.778V105.132H90.8714V107.778H89.9334V106H83.3394V107.778H82.4014ZM95.8885 106.07C95.1605 106.07 94.5072 105.911 93.9285 105.594C93.3592 105.267 92.9112 104.824 92.5845 104.264C92.2579 103.695 92.0945 103.046 92.0945 102.318C92.0945 101.581 92.2579 100.932 92.5845 100.372C92.9112 99.812 93.3592 99.3733 93.9285 99.056C94.5072 98.7387 95.1605 98.58 95.8885 98.58C96.5139 98.58 97.0785 98.7013 97.5825 98.944C98.0865 99.1867 98.4832 99.5507 98.7725 100.036L98.0305 100.54C97.7785 100.167 97.4659 99.8913 97.0925 99.714C96.7192 99.5367 96.3132 99.448 95.8745 99.448C95.3519 99.448 94.8805 99.5693 94.4605 99.812C94.0405 100.045 93.7092 100.377 93.4665 100.806C93.2239 101.235 93.1025 101.739 93.1025 102.318C93.1025 102.897 93.2239 103.401 93.4665 103.83C93.7092 104.259 94.0405 104.595 94.4605 104.838C94.8805 105.071 95.3519 105.188 95.8745 105.188C96.3132 105.188 96.7192 105.099 97.0925 104.922C97.4659 104.745 97.7785 104.474 98.0305 104.11L98.7725 104.614C98.4832 105.09 98.0865 105.454 97.5825 105.706C97.0785 105.949 96.5139 106.07 95.8885 106.07ZM101.96 106V99.252L102.212 99.518H99.1745V98.65H105.74V99.518H102.702L102.954 99.252V106H101.96ZM107.178 106V98.65H110.426C111.256 98.65 111.91 98.8087 112.386 99.126C112.871 99.4433 113.114 99.91 113.114 100.526C113.114 101.123 112.885 101.585 112.428 101.912C111.97 102.229 111.368 102.388 110.622 102.388L110.818 102.094C111.695 102.094 112.339 102.257 112.75 102.584C113.16 102.911 113.366 103.382 113.366 103.998C113.366 104.633 113.132 105.127 112.666 105.482C112.208 105.827 111.494 106 110.524 106H107.178ZM108.144 105.216H110.482C111.107 105.216 111.578 105.118 111.896 104.922C112.222 104.717 112.386 104.39 112.386 103.942C112.386 103.494 112.241 103.167 111.952 102.962C111.662 102.757 111.205 102.654 110.58 102.654H108.144V105.216ZM108.144 101.912H110.356C110.925 101.912 111.359 101.805 111.658 101.59C111.966 101.375 112.12 101.063 112.12 100.652C112.12 100.241 111.966 99.9333 111.658 99.728C111.359 99.5227 110.925 99.42 110.356 99.42H108.144V101.912ZM118.719 106.07C118.01 106.07 117.371 105.911 116.801 105.594C116.241 105.267 115.798 104.824 115.471 104.264C115.145 103.695 114.981 103.046 114.981 102.318C114.981 101.581 115.145 100.932 115.471 100.372C115.798 99.812 116.241 99.3733 116.801 99.056C117.361 98.7387 118.001 98.58 118.719 98.58C119.447 98.58 120.091 98.7387 120.651 99.056C121.221 99.3733 121.664 99.812 121.981 100.372C122.308 100.932 122.471 101.581 122.471 102.318C122.471 103.046 122.308 103.695 121.981 104.264C121.664 104.824 121.221 105.267 120.651 105.594C120.082 105.911 119.438 106.07 118.719 106.07ZM118.719 105.188C119.251 105.188 119.723 105.071 120.133 104.838C120.544 104.595 120.866 104.259 121.099 103.83C121.342 103.391 121.463 102.887 121.463 102.318C121.463 101.739 121.342 101.235 121.099 100.806C120.866 100.377 120.544 100.045 120.133 99.812C119.723 99.5693 119.256 99.448 118.733 99.448C118.211 99.448 117.744 99.5693 117.333 99.812C116.923 100.045 116.596 100.377 116.353 100.806C116.111 101.235 115.989 101.739 115.989 102.318C115.989 102.887 116.111 103.391 116.353 103.83C116.596 104.259 116.923 104.595 117.333 104.838C117.744 105.071 118.206 105.188 118.719 105.188ZM24.718 128.084C24.1207 128.084 23.5887 127.986 23.122 127.79C22.6647 127.594 22.2727 127.295 21.946 126.894C21.6193 126.493 21.372 125.998 21.204 125.41C21.036 124.813 20.952 124.122 20.952 123.338C20.952 122.638 21.0173 122.027 21.148 121.504C21.2787 120.972 21.4607 120.515 21.694 120.132C21.9273 119.749 22.198 119.427 22.506 119.166C22.8233 118.895 23.164 118.681 23.528 118.522C23.9013 118.354 24.284 118.228 24.676 118.144L27.98 117.374L28.148 118.298L25.04 118.998C24.844 119.045 24.606 119.11 24.326 119.194C24.0553 119.278 23.7753 119.404 23.486 119.572C23.206 119.74 22.9447 119.973 22.702 120.272C22.4593 120.571 22.2633 120.958 22.114 121.434C21.974 121.901 21.904 122.484 21.904 123.184C21.904 123.333 21.9087 123.455 21.918 123.548C21.9273 123.632 21.9367 123.725 21.946 123.828C21.9647 123.921 21.9787 124.061 21.988 124.248L21.554 123.884C21.6567 123.315 21.8667 122.82 22.184 122.4C22.5013 121.971 22.898 121.639 23.374 121.406C23.8593 121.163 24.396 121.042 24.984 121.042C25.6653 121.042 26.272 121.191 26.804 121.49C27.336 121.779 27.7513 122.185 28.05 122.708C28.358 123.231 28.512 123.837 28.512 124.528C28.512 125.209 28.3533 125.821 28.036 126.362C27.728 126.903 27.2893 127.328 26.72 127.636C26.1507 127.935 25.4833 128.084 24.718 128.084ZM24.83 127.258C25.3527 127.258 25.8147 127.141 26.216 126.908C26.6173 126.665 26.93 126.339 27.154 125.928C27.3873 125.517 27.504 125.055 27.504 124.542C27.504 124.038 27.3873 123.59 27.154 123.198C26.93 122.806 26.6173 122.498 26.216 122.274C25.8147 122.041 25.348 121.924 24.816 121.924C24.2933 121.924 23.8313 122.036 23.43 122.26C23.0287 122.475 22.7113 122.778 22.478 123.17C22.254 123.562 22.142 124.015 22.142 124.528C22.142 125.041 22.254 125.503 22.478 125.914C22.7113 126.325 23.0287 126.651 23.43 126.894C23.8407 127.137 24.3073 127.258 24.83 127.258ZM33.7925 128.07C33.0272 128.07 32.3552 127.911 31.7765 127.594C31.1978 127.267 30.7452 126.824 30.4185 126.264C30.0918 125.695 29.9285 125.046 29.9285 124.318C29.9285 123.59 30.0825 122.946 30.3905 122.386C30.7078 121.826 31.1372 121.387 31.6785 121.07C32.2292 120.743 32.8452 120.58 33.5265 120.58C34.2172 120.58 34.8285 120.739 35.3605 121.056C35.9018 121.364 36.3265 121.803 36.6345 122.372C36.9425 122.932 37.0965 123.581 37.0965 124.318C37.0965 124.365 37.0918 124.416 37.0825 124.472C37.0825 124.519 37.0825 124.57 37.0825 124.626H30.6845V123.884H36.5505L36.1585 124.178C36.1585 123.646 36.0418 123.175 35.8085 122.764C35.5845 122.344 35.2765 122.017 34.8845 121.784C34.4925 121.551 34.0398 121.434 33.5265 121.434C33.0225 121.434 32.5698 121.551 32.1685 121.784C31.7672 122.017 31.4545 122.344 31.2305 122.764C31.0065 123.184 30.8945 123.665 30.8945 124.206V124.36C30.8945 124.92 31.0158 125.415 31.2585 125.844C31.5105 126.264 31.8558 126.595 32.2945 126.838C32.7425 127.071 33.2512 127.188 33.8205 127.188C34.2685 127.188 34.6838 127.109 35.0665 126.95C35.4585 126.791 35.7945 126.549 36.0745 126.222L36.6345 126.866C36.3078 127.258 35.8972 127.557 35.4025 127.762C34.9172 127.967 34.3805 128.07 33.7925 128.07ZM41.0657 128.084C40.5337 128.084 40.0064 128.009 39.4837 127.86C38.9611 127.711 38.4991 127.482 38.0977 127.174L38.4197 126.432C38.7744 126.693 39.1851 126.894 39.6517 127.034C40.1184 127.165 40.5804 127.23 41.0377 127.23C41.4951 127.221 41.8917 127.155 42.2277 127.034C42.5637 126.913 42.8251 126.745 43.0117 126.53C43.1984 126.315 43.2917 126.073 43.2917 125.802C43.2917 125.41 43.1144 125.107 42.7597 124.892C42.4051 124.668 41.9197 124.556 41.3037 124.556H40.0437V123.828H41.2337C41.5977 123.828 41.9197 123.781 42.1997 123.688C42.4797 123.595 42.6944 123.459 42.8437 123.282C43.0024 123.105 43.0817 122.895 43.0817 122.652C43.0817 122.391 42.9884 122.167 42.8017 121.98C42.6244 121.793 42.3771 121.653 42.0597 121.56C41.7424 121.467 41.3831 121.42 40.9817 121.42C40.6177 121.429 40.2397 121.485 39.8477 121.588C39.4557 121.681 39.0684 121.826 38.6857 122.022L38.4057 121.252C38.8351 121.028 39.2597 120.86 39.6797 120.748C40.1091 120.627 40.5384 120.566 40.9677 120.566C41.5557 120.547 42.0831 120.617 42.5497 120.776C43.0257 120.935 43.4037 121.163 43.6837 121.462C43.9637 121.751 44.1037 122.101 44.1037 122.512C44.1037 122.876 43.9917 123.193 43.7677 123.464C43.5437 123.735 43.2451 123.945 42.8717 124.094C42.4984 124.243 42.0737 124.318 41.5977 124.318L41.6397 124.052C42.4797 124.052 43.1331 124.215 43.5997 124.542C44.0757 124.869 44.3137 125.312 44.3137 125.872C44.3137 126.311 44.1691 126.698 43.8797 127.034C43.5904 127.361 43.1984 127.617 42.7037 127.804C42.2184 127.991 41.6724 128.084 41.0657 128.084ZM50.2343 128V120.65H56.8423V128H55.8483V121.252L56.1003 121.518H50.9763L51.2283 121.252V128H50.2343ZM62.8179 128.07C62.0526 128.07 61.3806 127.911 60.8019 127.594C60.2232 127.267 59.7706 126.824 59.4439 126.264C59.1172 125.695 58.9539 125.046 58.9539 124.318C58.9539 123.59 59.1079 122.946 59.4159 122.386C59.7332 121.826 60.1626 121.387 60.7039 121.07C61.2546 120.743 61.8706 120.58 62.5519 120.58C63.2426 120.58 63.8539 120.739 64.3859 121.056C64.9272 121.364 65.3519 121.803 65.6599 122.372C65.9679 122.932 66.1219 123.581 66.1219 124.318C66.1219 124.365 66.1172 124.416 66.1079 124.472C66.1079 124.519 66.1079 124.57 66.1079 124.626H59.7099V123.884H65.5759L65.1839 124.178C65.1839 123.646 65.0672 123.175 64.8339 122.764C64.6099 122.344 64.3019 122.017 63.9099 121.784C63.5179 121.551 63.0652 121.434 62.5519 121.434C62.0479 121.434 61.5952 121.551 61.1939 121.784C60.7926 122.017 60.4799 122.344 60.2559 122.764C60.0319 123.184 59.9199 123.665 59.9199 124.206V124.36C59.9199 124.92 60.0412 125.415 60.2839 125.844C60.5359 126.264 60.8812 126.595 61.3199 126.838C61.7679 127.071 62.2766 127.188 62.8459 127.188C63.2939 127.188 63.7092 127.109 64.0919 126.95C64.4839 126.791 64.8199 126.549 65.0999 126.222L65.6599 126.866C65.3332 127.258 64.9226 127.557 64.4279 127.762C63.9426 127.967 63.4059 128.07 62.8179 128.07ZM72.1162 128.07C71.4815 128.07 70.9075 127.925 70.3942 127.636C69.8809 127.337 69.4702 126.913 69.1622 126.362C68.8635 125.802 68.7142 125.121 68.7142 124.318C68.7142 123.515 68.8635 122.839 69.1622 122.288C69.4609 121.728 69.8669 121.303 70.3802 121.014C70.8935 120.725 71.4722 120.58 72.1162 120.58C72.8162 120.58 73.4415 120.739 73.9922 121.056C74.5522 121.364 74.9909 121.803 75.3082 122.372C75.6255 122.932 75.7842 123.581 75.7842 124.318C75.7842 125.065 75.6255 125.718 75.3082 126.278C74.9909 126.838 74.5522 127.277 73.9922 127.594C73.4415 127.911 72.8162 128.07 72.1162 128.07ZM68.3222 130.716V120.65H69.2742V122.862L69.1762 124.332L69.3162 125.816V130.716H68.3222ZM72.0462 127.188C72.5689 127.188 73.0355 127.071 73.4462 126.838C73.8569 126.595 74.1835 126.259 74.4262 125.83C74.6689 125.391 74.7902 124.887 74.7902 124.318C74.7902 123.749 74.6689 123.249 74.4262 122.82C74.1835 122.391 73.8569 122.055 73.4462 121.812C73.0355 121.569 72.5689 121.448 72.0462 121.448C71.5235 121.448 71.0522 121.569 70.6322 121.812C70.2215 122.055 69.8949 122.391 69.6522 122.82C69.4189 123.249 69.3022 123.749 69.3022 124.318C69.3022 124.887 69.4189 125.391 69.6522 125.83C69.8949 126.259 70.2215 126.595 70.6322 126.838C71.0522 127.071 71.5235 127.188 72.0462 127.188ZM81.0699 128.07C80.3045 128.07 79.6325 127.911 79.0539 127.594C78.4752 127.267 78.0225 126.824 77.6959 126.264C77.3692 125.695 77.2059 125.046 77.2059 124.318C77.2059 123.59 77.3599 122.946 77.6679 122.386C77.9852 121.826 78.4145 121.387 78.9559 121.07C79.5065 120.743 80.1225 120.58 80.8039 120.58C81.4945 120.58 82.1059 120.739 82.6379 121.056C83.1792 121.364 83.6039 121.803 83.9119 122.372C84.2199 122.932 84.3739 123.581 84.3739 124.318C84.3739 124.365 84.3692 124.416 84.3599 124.472C84.3599 124.519 84.3599 124.57 84.3599 124.626H77.9619V123.884H83.8279L83.4359 124.178C83.4359 123.646 83.3192 123.175 83.0859 122.764C82.8619 122.344 82.5539 122.017 82.1619 121.784C81.7699 121.551 81.3172 121.434 80.8039 121.434C80.2999 121.434 79.8472 121.551 79.4459 121.784C79.0445 122.017 78.7319 122.344 78.5079 122.764C78.2839 123.184 78.1719 123.665 78.1719 124.206V124.36C78.1719 124.92 78.2932 125.415 78.5359 125.844C78.7879 126.264 79.1332 126.595 79.5719 126.838C80.0199 127.071 80.5285 127.188 81.0979 127.188C81.5459 127.188 81.9612 127.109 82.3439 126.95C82.7359 126.791 83.0719 126.549 83.3519 126.222L83.9119 126.866C83.5852 127.258 83.1745 127.557 82.6799 127.762C82.1945 127.967 81.6579 128.07 81.0699 128.07ZM86.5742 128V120.65H93.1822V128H92.1882V121.252L92.4402 121.518H87.3162L87.5682 121.252V128H86.5742ZM94.6638 127.986L94.7338 127.132C94.7991 127.141 94.8598 127.155 94.9158 127.174C94.9811 127.183 95.0371 127.188 95.0838 127.188C95.3824 127.188 95.6204 127.076 95.7978 126.852C95.9844 126.628 96.1244 126.329 96.2178 125.956C96.3111 125.583 96.3764 125.163 96.4138 124.696C96.4511 124.22 96.4838 123.744 96.5118 123.268L96.6378 120.65H102.028V128H101.034V121.224L101.286 121.518H97.2818L97.5198 121.21L97.4078 123.338C97.3798 123.973 97.3284 124.579 97.2538 125.158C97.1884 125.737 97.0811 126.245 96.9318 126.684C96.7918 127.123 96.5958 127.468 96.3438 127.72C96.0918 127.963 95.7698 128.084 95.3778 128.084C95.2658 128.084 95.1491 128.075 95.0278 128.056C94.9158 128.037 94.7944 128.014 94.6638 127.986ZM109.417 128V126.376L109.375 126.11V123.394C109.375 122.769 109.198 122.288 108.843 121.952C108.498 121.616 107.98 121.448 107.289 121.448C106.813 121.448 106.361 121.527 105.931 121.686C105.502 121.845 105.138 122.055 104.839 122.316L104.391 121.574C104.765 121.257 105.213 121.014 105.735 120.846C106.258 120.669 106.809 120.58 107.387 120.58C108.339 120.58 109.072 120.818 109.585 121.294C110.108 121.761 110.369 122.475 110.369 123.436V128H109.417ZM106.883 128.07C106.333 128.07 105.852 127.981 105.441 127.804C105.04 127.617 104.732 127.365 104.517 127.048C104.303 126.721 104.195 126.348 104.195 125.928C104.195 125.545 104.284 125.2 104.461 124.892C104.648 124.575 104.947 124.323 105.357 124.136C105.777 123.94 106.337 123.842 107.037 123.842H109.571V124.584H107.065C106.356 124.584 105.861 124.71 105.581 124.962C105.311 125.214 105.175 125.527 105.175 125.9C105.175 126.32 105.339 126.656 105.665 126.908C105.992 127.16 106.449 127.286 107.037 127.286C107.597 127.286 108.078 127.16 108.479 126.908C108.89 126.647 109.189 126.273 109.375 125.788L109.599 126.474C109.413 126.959 109.086 127.347 108.619 127.636C108.162 127.925 107.583 128.07 106.883 128.07ZM114.416 128V121.252L114.668 121.518H111.63V120.65H118.196V121.518H115.158L115.41 121.252V128H114.416Z" fill="#141414"/>
</svg>
