<svg width="416" height="104" viewBox="0 0 416 104" fill="none" xmlns="http://www.w3.org/2000/svg">
<rect x="0.5" y="0.5" width="415" height="103" stroke="#DCE3EB"/>
<path d="M52 57C54.7615 57 57 54.7614 57 52C57 49.2386 54.7615 47 52 47C49.2386 47 47 49.2386 47 52C47 54.7614 49.2386 57 52 57Z" stroke="#29A1F8" stroke-width="2" stroke-linecap="round" stroke-linejoin="round"/>
<path d="M63.2122 56.5454C63.0105 57.0024 62.9503 57.5094 63.0394 58.0009C63.1285 58.4924 63.3629 58.9459 63.7122 59.303L63.8031 59.3939C64.0848 59.6754 64.3083 60.0096 64.4608 60.3774C64.6133 60.7453 64.6918 61.1396 64.6918 61.5379C64.6918 61.9361 64.6133 62.3304 64.4608 62.6983C64.3083 63.0662 64.0848 63.4004 63.8031 63.6818C63.5216 63.9635 63.1874 64.1871 62.8196 64.3396C62.4517 64.4921 62.0574 64.5705 61.6591 64.5705C61.2609 64.5705 60.8666 64.4921 60.4987 64.3396C60.1308 64.1871 59.7966 63.9635 59.5152 63.6818L59.4243 63.5909C59.0672 63.2416 58.6137 63.0073 58.1221 62.9182C57.6306 62.829 57.1237 62.8892 56.6667 63.0909C56.2186 63.283 55.8364 63.6019 55.5672 64.0084C55.298 64.4149 55.1535 64.8912 55.1516 65.3788V65.6363C55.1516 66.44 54.8323 67.2108 54.264 67.7791C53.6957 68.3474 52.9249 68.6666 52.1213 68.6666C51.3176 68.6666 50.5468 68.3474 49.9785 67.7791C49.4102 67.2108 49.0909 66.44 49.0909 65.6363V65.5C49.0792 64.9985 48.9169 64.5121 48.6251 64.1041C48.3332 63.696 47.9254 63.3853 47.4546 63.2121C46.9976 63.0104 46.4907 62.9502 45.9991 63.0394C45.5076 63.1285 45.0541 63.3628 44.697 63.7121L44.6061 63.803C44.3247 64.0848 43.9905 64.3083 43.6226 64.4608C43.2547 64.6133 42.8604 64.6918 42.4622 64.6918C42.0639 64.6918 41.6696 64.6133 41.3017 64.4608C40.9339 64.3083 40.5997 64.0848 40.3182 63.803C40.0365 63.5216 39.813 63.1874 39.6605 62.8195C39.508 62.4516 39.4295 62.0573 39.4295 61.6591C39.4295 61.2608 39.508 60.8665 39.6605 60.4986C39.813 60.1308 40.0365 59.7966 40.3182 59.5151L40.4091 59.4242C40.7584 59.0671 40.9927 58.6136 41.0819 58.1221C41.171 57.6306 41.1108 57.1236 40.9091 56.6666C40.7171 56.2185 40.3982 55.8363 39.9917 55.5671C39.5852 55.2979 39.1088 55.1534 38.6213 55.1515H38.3637C37.56 55.1515 36.7892 54.8322 36.2209 54.2639C35.6526 53.6956 35.3334 52.9249 35.3334 52.1212C35.3334 51.3175 35.6526 50.5467 36.2209 49.9784C36.7892 49.4102 37.56 49.0909 38.3637 49.0909H38.5C39.0015 49.0792 39.4879 48.9168 39.8959 48.625C40.304 48.3332 40.6148 47.9253 40.7879 47.4545C40.9896 46.9975 41.0498 46.4906 40.9607 45.9991C40.8715 45.5076 40.6372 45.054 40.2879 44.6969L40.197 44.606C39.9153 44.3246 39.6918 43.9904 39.5393 43.6225C39.3868 43.2547 39.3083 42.8603 39.3083 42.4621C39.3083 42.0639 39.3868 41.6695 39.5393 41.3017C39.6918 40.9338 39.9153 40.5996 40.197 40.3182C40.4784 40.0364 40.8127 39.8129 41.1805 39.6604C41.5484 39.5079 41.9427 39.4294 42.3409 39.4294C42.7392 39.4294 43.1335 39.5079 43.5014 39.6604C43.8692 39.8129 44.2035 40.0364 44.4849 40.3182L44.5758 40.4091C44.9329 40.7584 45.3864 40.9927 45.8779 41.0818C46.3694 41.1709 46.8764 41.1108 47.3334 40.9091H47.4546C47.9027 40.717 48.2849 40.3981 48.5541 39.9916C48.8233 39.5851 48.9678 39.1087 48.9697 38.6212V38.3636C48.9697 37.5599 49.289 36.7892 49.8573 36.2209C50.4256 35.6526 51.1964 35.3333 52 35.3333C52.8037 35.3333 53.5745 35.6526 54.1428 36.2209C54.7111 36.7892 55.0303 37.5599 55.0303 38.3636V38.5C55.0323 38.9875 55.1768 39.4639 55.446 39.8704C55.7152 40.2769 56.0974 40.5958 56.5455 40.7879C57.0025 40.9895 57.5094 41.0497 58.0009 40.9606C58.4924 40.8715 58.946 40.6372 59.3031 40.2879L59.394 40.1969C59.6754 39.9152 60.0096 39.6917 60.3775 39.5392C60.7454 39.3867 61.1397 39.3082 61.5379 39.3082C61.9361 39.3082 62.3305 39.3867 62.6983 39.5392C63.0662 39.6917 63.4004 39.9152 63.6819 40.1969C63.9636 40.4784 64.1871 40.8126 64.3396 41.1805C64.4921 41.5483 64.5706 41.9427 64.5706 42.3409C64.5706 42.7391 64.4921 43.1334 64.3396 43.5013C64.1871 43.8692 63.9636 44.2034 63.6819 44.4848L63.5909 44.5757C63.2417 44.9328 63.0073 45.3864 62.9182 45.8779C62.8291 46.3694 62.8893 46.8763 63.0909 47.3333V47.4545C63.283 47.9027 63.6019 48.2849 64.0084 48.5541C64.4149 48.8233 64.8913 48.9677 65.3788 48.9697H65.6364C66.4401 48.9697 67.2109 49.2889 67.7792 49.8572C68.3474 50.4255 68.6667 51.1963 68.6667 52C68.6667 52.8037 68.3474 53.5744 67.7792 54.1427C67.2109 54.711 66.4401 55.0303 65.6364 55.0303H65.5C65.0125 55.0322 64.5361 55.1767 64.1296 55.4459C63.7231 55.7151 63.4042 56.0973 63.2122 56.5454Z" stroke="#29A1F8" stroke-width="2" stroke-linecap="round" stroke-linejoin="round"/>
<path d="M106.784 46.096C105.941 46.096 105.163 45.9573 104.448 45.68C103.733 45.392 103.115 44.992 102.592 44.48C102.069 43.968 101.659 43.3653 101.36 42.672C101.072 41.9787 100.928 41.2213 100.928 40.4C100.928 39.5787 101.072 38.8213 101.36 38.128C101.659 37.4347 102.069 36.832 102.592 36.32C103.125 35.808 103.749 35.4133 104.464 35.136C105.179 34.848 105.957 34.704 106.8 34.704C107.611 34.704 108.373 34.8427 109.088 35.12C109.803 35.3867 110.405 35.792 110.896 36.336L110.144 37.088C109.685 36.6187 109.179 36.2827 108.624 36.08C108.069 35.8667 107.472 35.76 106.832 35.76C106.16 35.76 105.536 35.8773 104.96 36.112C104.384 36.336 103.883 36.6613 103.456 37.088C103.029 37.504 102.693 37.9947 102.448 38.56C102.213 39.1147 102.096 39.728 102.096 40.4C102.096 41.072 102.213 41.6907 102.448 42.256C102.693 42.8107 103.029 43.3013 103.456 43.728C103.883 44.144 104.384 44.4693 104.96 44.704C105.536 44.928 106.16 45.04 106.832 45.04C107.472 45.04 108.069 44.9333 108.624 44.72C109.179 44.5067 109.685 44.1653 110.144 43.696L110.896 44.448C110.405 44.992 109.803 45.4027 109.088 45.68C108.373 45.9573 107.605 46.096 106.784 46.096ZM116.15 46.08C115.339 46.08 114.609 45.8987 113.958 45.536C113.318 45.1627 112.811 44.656 112.438 44.016C112.065 43.3653 111.878 42.624 111.878 41.792C111.878 40.9493 112.065 40.208 112.438 39.568C112.811 38.928 113.318 38.4267 113.958 38.064C114.598 37.7013 115.329 37.52 116.15 37.52C116.982 37.52 117.718 37.7013 118.358 38.064C119.009 38.4267 119.515 38.928 119.878 39.568C120.251 40.208 120.438 40.9493 120.438 41.792C120.438 42.624 120.251 43.3653 119.878 44.016C119.515 44.656 119.009 45.1627 118.358 45.536C117.707 45.8987 116.971 46.08 116.15 46.08ZM116.15 45.072C116.758 45.072 117.297 44.9387 117.766 44.672C118.235 44.3947 118.603 44.0107 118.87 43.52C119.147 43.0187 119.286 42.4427 119.286 41.792C119.286 41.1307 119.147 40.5547 118.87 40.064C118.603 39.5733 118.235 39.1947 117.766 38.928C117.297 38.6507 116.763 38.512 116.166 38.512C115.569 38.512 115.035 38.6507 114.566 38.928C114.097 39.1947 113.723 39.5733 113.446 40.064C113.169 40.5547 113.03 41.1307 113.03 41.792C113.03 42.4427 113.169 43.0187 113.446 43.52C113.723 44.0107 114.097 44.3947 114.566 44.672C115.035 44.9387 115.563 45.072 116.15 45.072ZM126.642 46.096C125.959 46.096 125.351 45.984 124.818 45.76C124.295 45.536 123.847 45.1947 123.474 44.736C123.101 44.2773 122.818 43.712 122.626 43.04C122.434 42.3573 122.338 41.568 122.338 40.672C122.338 39.872 122.413 39.1733 122.562 38.576C122.711 37.968 122.919 37.4453 123.186 37.008C123.453 36.5707 123.762 36.2027 124.114 35.904C124.477 35.5947 124.866 35.3493 125.282 35.168C125.709 34.976 126.146 34.832 126.594 34.736L130.37 33.856L130.562 34.912L127.01 35.712C126.786 35.7653 126.514 35.84 126.194 35.936C125.885 36.032 125.565 36.176 125.234 36.368C124.914 36.56 124.615 36.8267 124.338 37.168C124.061 37.5093 123.837 37.952 123.666 38.496C123.506 39.0293 123.426 39.696 123.426 40.496C123.426 40.6667 123.431 40.8053 123.442 40.912C123.453 41.008 123.463 41.1147 123.474 41.232C123.495 41.3387 123.511 41.4987 123.522 41.712L123.026 41.296C123.143 40.6453 123.383 40.08 123.746 39.6C124.109 39.1093 124.562 38.7307 125.106 38.464C125.661 38.1867 126.274 38.048 126.946 38.048C127.725 38.048 128.418 38.2187 129.026 38.56C129.634 38.8907 130.109 39.3547 130.45 39.952C130.802 40.5493 130.978 41.2427 130.978 42.032C130.978 42.8107 130.797 43.5093 130.434 44.128C130.082 44.7467 129.581 45.232 128.93 45.584C128.279 45.9253 127.517 46.096 126.642 46.096ZM126.77 45.152C127.367 45.152 127.895 45.0187 128.354 44.752C128.813 44.4747 129.17 44.1013 129.426 43.632C129.693 43.1627 129.826 42.6347 129.826 42.048C129.826 41.472 129.693 40.96 129.426 40.512C129.17 40.064 128.813 39.712 128.354 39.456C127.895 39.1893 127.362 39.056 126.754 39.056C126.157 39.056 125.629 39.184 125.17 39.44C124.711 39.6853 124.349 40.032 124.082 40.48C123.826 40.928 123.698 41.4453 123.698 42.032C123.698 42.6187 123.826 43.1467 124.082 43.616C124.349 44.0853 124.711 44.4587 125.17 44.736C125.639 45.0133 126.173 45.152 126.77 45.152ZM136.933 46.08C136.101 46.08 135.354 45.8987 134.693 45.536C134.042 45.1627 133.53 44.656 133.157 44.016C132.784 43.3653 132.597 42.624 132.597 41.792C132.597 40.9493 132.784 40.208 133.157 39.568C133.53 38.928 134.042 38.4267 134.693 38.064C135.354 37.7013 136.101 37.52 136.933 37.52C137.648 37.52 138.293 37.6587 138.869 37.936C139.445 38.2133 139.898 38.6293 140.229 39.184L139.381 39.76C139.093 39.3333 138.736 39.0187 138.309 38.816C137.882 38.6133 137.418 38.512 136.917 38.512C136.32 38.512 135.781 38.6507 135.301 38.928C134.821 39.1947 134.442 39.5733 134.165 40.064C133.888 40.5547 133.749 41.1307 133.749 41.792C133.749 42.4533 133.888 43.0293 134.165 43.52C134.442 44.0107 134.821 44.3947 135.301 44.672C135.781 44.9387 136.32 45.072 136.917 45.072C137.418 45.072 137.882 44.9707 138.309 44.768C138.736 44.5653 139.093 44.256 139.381 43.84L140.229 44.416C139.898 44.96 139.445 45.376 138.869 45.664C138.293 45.9413 137.648 46.08 136.933 46.08ZM143.872 46V38.288L144.16 38.592H140.688V37.6H148.192V38.592H144.72L145.008 38.288V46H143.872ZM149.835 46V37.6H153.547C154.496 37.6 155.243 37.7813 155.787 38.144C156.341 38.5067 156.619 39.04 156.619 39.744C156.619 40.4267 156.357 40.9547 155.835 41.328C155.312 41.6907 154.624 41.872 153.771 41.872L153.995 41.536C154.997 41.536 155.733 41.7227 156.203 42.096C156.672 42.4693 156.907 43.008 156.907 43.712C156.907 44.4373 156.64 45.0027 156.107 45.408C155.584 45.8027 154.768 46 153.659 46H149.835ZM150.939 45.104H153.611C154.325 45.104 154.864 44.992 155.227 44.768C155.6 44.5333 155.787 44.16 155.787 43.648C155.787 43.136 155.621 42.7627 155.291 42.528C154.96 42.2933 154.437 42.176 153.723 42.176H150.939V45.104ZM150.939 41.328H153.467C154.117 41.328 154.613 41.2053 154.955 40.96C155.307 40.7147 155.483 40.3573 155.483 39.888C155.483 39.4187 155.307 39.0667 154.955 38.832C154.613 38.5973 154.117 38.48 153.467 38.48H150.939V41.328ZM163.169 46.08C162.294 46.08 161.526 45.8987 160.865 45.536C160.204 45.1627 159.686 44.656 159.313 44.016C158.94 43.3653 158.753 42.624 158.753 41.792C158.753 40.96 158.929 40.224 159.281 39.584C159.644 38.944 160.134 38.4427 160.753 38.08C161.382 37.7067 162.086 37.52 162.865 37.52C163.654 37.52 164.353 37.7013 164.961 38.064C165.58 38.416 166.065 38.9173 166.417 39.568C166.769 40.208 166.945 40.9493 166.945 41.792C166.945 41.8453 166.94 41.904 166.929 41.968C166.929 42.0213 166.929 42.08 166.929 42.144H159.617V41.296H166.321L165.873 41.632C165.873 41.024 165.74 40.4853 165.473 40.016C165.217 39.536 164.865 39.1627 164.417 38.896C163.969 38.6293 163.452 38.496 162.865 38.496C162.289 38.496 161.772 38.6293 161.313 38.896C160.854 39.1627 160.497 39.536 160.241 40.016C159.985 40.496 159.857 41.0453 159.857 41.664V41.84C159.857 42.48 159.996 43.0453 160.273 43.536C160.561 44.016 160.956 44.3947 161.457 44.672C161.969 44.9387 162.55 45.072 163.201 45.072C163.713 45.072 164.188 44.9813 164.625 44.8C165.073 44.6187 165.457 44.3413 165.777 43.968L166.417 44.704C166.044 45.152 165.574 45.4933 165.009 45.728C164.454 45.9627 163.841 46.08 163.169 46.08ZM169.46 46V37.6H170.596V41.312H175.892V37.6H177.028V46H175.892V42.288H170.596V46H169.46ZM180.257 46V37.6H181.393V41.312H186.689V37.6H187.825V46H186.689V42.288H181.393V46H180.257ZM194.51 46.08C193.699 46.08 192.968 45.8987 192.318 45.536C191.678 45.1627 191.171 44.656 190.798 44.016C190.424 43.3653 190.238 42.624 190.238 41.792C190.238 40.9493 190.424 40.208 190.798 39.568C191.171 38.928 191.678 38.4267 192.318 38.064C192.958 37.7013 193.688 37.52 194.51 37.52C195.342 37.52 196.078 37.7013 196.718 38.064C197.368 38.4267 197.875 38.928 198.238 39.568C198.611 40.208 198.798 40.9493 198.798 41.792C198.798 42.624 198.611 43.3653 198.238 44.016C197.875 44.656 197.368 45.1627 196.718 45.536C196.067 45.8987 195.331 46.08 194.51 46.08ZM194.51 45.072C195.118 45.072 195.656 44.9387 196.126 44.672C196.595 44.3947 196.963 44.0107 197.23 43.52C197.507 43.0187 197.646 42.4427 197.646 41.792C197.646 41.1307 197.507 40.5547 197.23 40.064C196.963 39.5733 196.595 39.1947 196.126 38.928C195.656 38.6507 195.123 38.512 194.526 38.512C193.928 38.512 193.395 38.6507 192.926 38.928C192.456 39.1947 192.083 39.5733 191.806 40.064C191.528 40.5547 191.39 41.1307 191.39 41.792C191.39 42.4427 191.528 43.0187 191.806 43.52C192.083 44.0107 192.456 44.3947 192.926 44.672C193.395 44.9387 193.923 45.072 194.51 45.072ZM204.825 46.08C203.951 46.08 203.183 45.8987 202.521 45.536C201.86 45.1627 201.343 44.656 200.969 44.016C200.596 43.3653 200.409 42.624 200.409 41.792C200.409 40.96 200.585 40.224 200.937 39.584C201.3 38.944 201.791 38.4427 202.409 38.08C203.039 37.7067 203.743 37.52 204.521 37.52C205.311 37.52 206.009 37.7013 206.617 38.064C207.236 38.416 207.721 38.9173 208.073 39.568C208.425 40.208 208.601 40.9493 208.601 41.792C208.601 41.8453 208.596 41.904 208.585 41.968C208.585 42.0213 208.585 42.08 208.585 42.144H201.273V41.296H207.977L207.529 41.632C207.529 41.024 207.396 40.4853 207.129 40.016C206.873 39.536 206.521 39.1627 206.073 38.896C205.625 38.6293 205.108 38.496 204.521 38.496C203.945 38.496 203.428 38.6293 202.969 38.896C202.511 39.1627 202.153 39.536 201.897 40.016C201.641 40.496 201.513 41.0453 201.513 41.664V41.84C201.513 42.48 201.652 43.0453 201.929 43.536C202.217 44.016 202.612 44.3947 203.113 44.672C203.625 44.9387 204.207 45.072 204.857 45.072C205.369 45.072 205.844 44.9813 206.281 44.8C206.729 44.6187 207.113 44.3413 207.433 43.968L208.073 44.704C207.7 45.152 207.231 45.4933 206.665 45.728C206.111 45.9627 205.497 46.08 204.825 46.08ZM215.304 46V37.6H222.856V46H221.72V38.288L222.008 38.592H216.152L216.44 38.288V46H215.304ZM230.421 46.08C229.695 46.08 229.039 45.9147 228.453 45.584C227.866 45.2427 227.397 44.7573 227.045 44.128C226.703 43.488 226.533 42.7093 226.533 41.792C226.533 40.8747 226.703 40.1013 227.045 39.472C227.386 38.832 227.85 38.3467 228.437 38.016C229.023 37.6853 229.685 37.52 230.421 37.52C231.221 37.52 231.935 37.7013 232.565 38.064C233.205 38.416 233.706 38.9173 234.069 39.568C234.431 40.208 234.613 40.9493 234.613 41.792C234.613 42.6453 234.431 43.392 234.069 44.032C233.706 44.672 233.205 45.1733 232.565 45.536C231.935 45.8987 231.221 46.08 230.421 46.08ZM226.085 49.104V37.6H227.173V40.128L227.061 41.808L227.221 43.504V49.104H226.085ZM230.341 45.072C230.938 45.072 231.471 44.9387 231.941 44.672C232.41 44.3947 232.783 44.0107 233.061 43.52C233.338 43.0187 233.477 42.4427 233.477 41.792C233.477 41.1413 233.338 40.5707 233.061 40.08C232.783 39.5893 232.41 39.2053 231.941 38.928C231.471 38.6507 230.938 38.512 230.341 38.512C229.743 38.512 229.205 38.6507 228.725 38.928C228.255 39.2053 227.882 39.5893 227.605 40.08C227.338 40.5707 227.205 41.1413 227.205 41.792C227.205 42.4427 227.338 43.0187 227.605 43.52C227.882 44.0107 228.255 44.3947 228.725 44.672C229.205 44.9387 229.743 45.072 230.341 45.072ZM240.51 46.08C239.699 46.08 238.968 45.8987 238.318 45.536C237.678 45.1627 237.171 44.656 236.798 44.016C236.424 43.3653 236.238 42.624 236.238 41.792C236.238 40.9493 236.424 40.208 236.798 39.568C237.171 38.928 237.678 38.4267 238.318 38.064C238.958 37.7013 239.688 37.52 240.51 37.52C241.342 37.52 242.078 37.7013 242.718 38.064C243.368 38.4267 243.875 38.928 244.238 39.568C244.611 40.208 244.798 40.9493 244.798 41.792C244.798 42.624 244.611 43.3653 244.238 44.016C243.875 44.656 243.368 45.1627 242.718 45.536C242.067 45.8987 241.331 46.08 240.51 46.08ZM240.51 45.072C241.118 45.072 241.656 44.9387 242.126 44.672C242.595 44.3947 242.963 44.0107 243.23 43.52C243.507 43.0187 243.646 42.4427 243.646 41.792C243.646 41.1307 243.507 40.5547 243.23 40.064C242.963 39.5733 242.595 39.1947 242.126 38.928C241.656 38.6507 241.123 38.512 240.526 38.512C239.928 38.512 239.395 38.6507 238.926 38.928C238.456 39.1947 238.083 39.5733 237.806 40.064C237.528 40.5547 237.39 41.1307 237.39 41.792C237.39 42.4427 237.528 43.0187 237.806 43.52C238.083 44.0107 238.456 44.3947 238.926 44.672C239.395 44.9387 239.923 45.072 240.51 45.072ZM247.225 46V37.6H248.361V44.272L253.977 37.6H254.985V46H253.849V39.312L248.249 46H247.225ZM260.325 46.096C259.717 46.096 259.114 46.0107 258.517 45.84C257.92 45.6693 257.392 45.408 256.933 45.056L257.301 44.208C257.706 44.5067 258.176 44.736 258.709 44.896C259.242 45.0453 259.77 45.12 260.293 45.12C260.816 45.1093 261.269 45.0347 261.653 44.896C262.037 44.7573 262.336 44.5653 262.549 44.32C262.762 44.0747 262.869 43.7973 262.869 43.488C262.869 43.04 262.666 42.6933 262.261 42.448C261.856 42.192 261.301 42.064 260.597 42.064H259.157V41.232H260.517C260.933 41.232 261.301 41.1787 261.621 41.072C261.941 40.9653 262.186 40.8107 262.357 40.608C262.538 40.4053 262.629 40.1653 262.629 39.888C262.629 39.5893 262.522 39.3333 262.309 39.12C262.106 38.9067 261.824 38.7467 261.461 38.64C261.098 38.5333 260.688 38.48 260.229 38.48C259.813 38.4907 259.381 38.5547 258.933 38.672C258.485 38.7787 258.042 38.944 257.605 39.168L257.285 38.288C257.776 38.032 258.261 37.84 258.741 37.712C259.232 37.5733 259.722 37.504 260.213 37.504C260.885 37.4827 261.488 37.5627 262.021 37.744C262.565 37.9253 262.997 38.1867 263.317 38.528C263.637 38.8587 263.797 39.2587 263.797 39.728C263.797 40.144 263.669 40.5067 263.413 40.816C263.157 41.1253 262.816 41.3653 262.389 41.536C261.962 41.7067 261.477 41.792 260.933 41.792L260.981 41.488C261.941 41.488 262.688 41.6747 263.221 42.048C263.765 42.4213 264.037 42.928 264.037 43.568C264.037 44.0693 263.872 44.512 263.541 44.896C263.21 45.2693 262.762 45.5627 262.197 45.776C261.642 45.9893 261.018 46.096 260.325 46.096ZM266.616 46V37.6H270.328C271.277 37.6 272.024 37.7813 272.568 38.144C273.123 38.5067 273.4 39.04 273.4 39.744C273.4 40.4267 273.139 40.9547 272.616 41.328C272.093 41.6907 271.405 41.872 270.552 41.872L270.776 41.536C271.779 41.536 272.515 41.7227 272.984 42.096C273.453 42.4693 273.688 43.008 273.688 43.712C273.688 44.4373 273.421 45.0027 272.888 45.408C272.365 45.8027 271.549 46 270.44 46H266.616ZM267.72 45.104H270.392C271.107 45.104 271.645 44.992 272.008 44.768C272.381 44.5333 272.568 44.16 272.568 43.648C272.568 43.136 272.403 42.7627 272.072 42.528C271.741 42.2933 271.219 42.176 270.504 42.176H267.72V45.104ZM267.72 41.328H270.248C270.899 41.328 271.395 41.2053 271.736 40.96C272.088 40.7147 272.264 40.3573 272.264 39.888C272.264 39.4187 272.088 39.0667 271.736 38.832C271.395 38.5973 270.899 38.48 270.248 38.48H267.72V41.328ZM279.806 46.08C278.996 46.08 278.265 45.8987 277.614 45.536C276.974 45.1627 276.468 44.656 276.094 44.016C275.721 43.3653 275.534 42.624 275.534 41.792C275.534 40.9493 275.721 40.208 276.094 39.568C276.468 38.928 276.974 38.4267 277.614 38.064C278.254 37.7013 278.985 37.52 279.806 37.52C280.638 37.52 281.374 37.7013 282.014 38.064C282.665 38.4267 283.172 38.928 283.534 39.568C283.908 40.208 284.094 40.9493 284.094 41.792C284.094 42.624 283.908 43.3653 283.534 44.016C283.172 44.656 282.665 45.1627 282.014 45.536C281.364 45.8987 280.628 46.08 279.806 46.08ZM279.806 45.072C280.414 45.072 280.953 44.9387 281.422 44.672C281.892 44.3947 282.26 44.0107 282.526 43.52C282.804 43.0187 282.942 42.4427 282.942 41.792C282.942 41.1307 282.804 40.5547 282.526 40.064C282.26 39.5733 281.892 39.1947 281.422 38.928C280.953 38.6507 280.42 38.512 279.822 38.512C279.225 38.512 278.692 38.6507 278.222 38.928C277.753 39.1947 277.38 39.5733 277.102 40.064C276.825 40.5547 276.686 41.1307 276.686 41.792C276.686 42.4427 276.825 43.0187 277.102 43.52C277.38 44.0107 277.753 44.3947 278.222 44.672C278.692 44.9387 279.22 45.072 279.806 45.072ZM292.235 45.456V38.592H288.187L288.091 40.464C288.07 41.0293 288.033 41.584 287.979 42.128C287.937 42.672 287.857 43.1733 287.739 43.632C287.633 44.08 287.478 44.448 287.275 44.736C287.073 45.0133 286.811 45.1733 286.491 45.216L285.355 45.008C285.686 45.0187 285.958 44.9013 286.171 44.656C286.385 44.4 286.55 44.0533 286.667 43.616C286.785 43.1787 286.87 42.6827 286.923 42.128C286.977 41.5627 287.019 40.9867 287.051 40.4L287.163 37.6H293.371V45.456H292.235ZM285.003 48.032V45.008H294.683V48.032H293.611V46H286.075V48.032H285.003ZM300.417 46.08C299.585 46.08 298.839 45.8987 298.177 45.536C297.527 45.1627 297.015 44.656 296.641 44.016C296.268 43.3653 296.081 42.624 296.081 41.792C296.081 40.9493 296.268 40.208 296.641 39.568C297.015 38.928 297.527 38.4267 298.177 38.064C298.839 37.7013 299.585 37.52 300.417 37.52C301.132 37.52 301.777 37.6587 302.353 37.936C302.929 38.2133 303.383 38.6293 303.713 39.184L302.865 39.76C302.577 39.3333 302.22 39.0187 301.793 38.816C301.367 38.6133 300.903 38.512 300.401 38.512C299.804 38.512 299.265 38.6507 298.785 38.928C298.305 39.1947 297.927 39.5733 297.649 40.064C297.372 40.5547 297.233 41.1307 297.233 41.792C297.233 42.4533 297.372 43.0293 297.649 43.52C297.927 44.0107 298.305 44.3947 298.785 44.672C299.265 44.9387 299.804 45.072 300.401 45.072C300.903 45.072 301.367 44.9707 301.793 44.768C302.22 44.5653 302.577 44.256 302.865 43.84L303.713 44.416C303.383 44.96 302.929 45.376 302.353 45.664C301.777 45.9413 301.132 46.08 300.417 46.08ZM307.357 46V38.288L307.645 38.592H304.173V37.6H311.677V38.592H308.205L308.493 38.288V46H307.357ZM313.319 46V37.6H317.031C317.98 37.6 318.727 37.7813 319.271 38.144C319.826 38.5067 320.103 39.04 320.103 39.744C320.103 40.4267 319.842 40.9547 319.319 41.328C318.796 41.6907 318.108 41.872 317.255 41.872L317.479 41.536C318.482 41.536 319.218 41.7227 319.687 42.096C320.156 42.4693 320.391 43.008 320.391 43.712C320.391 44.4373 320.124 45.0027 319.591 45.408C319.068 45.8027 318.252 46 317.143 46H313.319ZM314.423 45.104H317.095C317.81 45.104 318.348 44.992 318.711 44.768C319.084 44.5333 319.271 44.16 319.271 43.648C319.271 43.136 319.106 42.7627 318.775 42.528C318.444 42.2933 317.922 42.176 317.207 42.176H314.423V45.104ZM314.423 41.328H316.951C317.602 41.328 318.098 41.2053 318.439 40.96C318.791 40.7147 318.967 40.3573 318.967 39.888C318.967 39.4187 318.791 39.0667 318.439 38.832C318.098 38.5973 317.602 38.48 316.951 38.48H314.423V41.328ZM326.51 46.08C325.699 46.08 324.968 45.8987 324.318 45.536C323.678 45.1627 323.171 44.656 322.798 44.016C322.424 43.3653 322.238 42.624 322.238 41.792C322.238 40.9493 322.424 40.208 322.798 39.568C323.171 38.928 323.678 38.4267 324.318 38.064C324.958 37.7013 325.688 37.52 326.51 37.52C327.342 37.52 328.078 37.7013 328.718 38.064C329.368 38.4267 329.875 38.928 330.238 39.568C330.611 40.208 330.798 40.9493 330.798 41.792C330.798 42.624 330.611 43.3653 330.238 44.016C329.875 44.656 329.368 45.1627 328.718 45.536C328.067 45.8987 327.331 46.08 326.51 46.08ZM326.51 45.072C327.118 45.072 327.656 44.9387 328.126 44.672C328.595 44.3947 328.963 44.0107 329.23 43.52C329.507 43.0187 329.646 42.4427 329.646 41.792C329.646 41.1307 329.507 40.5547 329.23 40.064C328.963 39.5733 328.595 39.1947 328.126 38.928C327.656 38.6507 327.123 38.512 326.526 38.512C325.928 38.512 325.395 38.6507 324.926 38.928C324.456 39.1947 324.083 39.5733 323.806 40.064C323.528 40.5547 323.39 41.1307 323.39 41.792C323.39 42.4427 323.528 43.0187 323.806 43.52C324.083 44.0107 324.456 44.3947 324.926 44.672C325.395 44.9387 325.923 45.072 326.51 45.072ZM105.392 70.096C104.709 70.096 104.101 69.984 103.568 69.76C103.045 69.536 102.597 69.1947 102.224 68.736C101.851 68.2773 101.568 67.712 101.376 67.04C101.184 66.3573 101.088 65.568 101.088 64.672C101.088 63.872 101.163 63.1733 101.312 62.576C101.461 61.968 101.669 61.4453 101.936 61.008C102.203 60.5707 102.512 60.2027 102.864 59.904C103.227 59.5947 103.616 59.3493 104.032 59.168C104.459 58.976 104.896 58.832 105.344 58.736L109.12 57.856L109.312 58.912L105.76 59.712C105.536 59.7653 105.264 59.84 104.944 59.936C104.635 60.032 104.315 60.176 103.984 60.368C103.664 60.56 103.365 60.8267 103.088 61.168C102.811 61.5093 102.587 61.952 102.416 62.496C102.256 63.0293 102.176 63.696 102.176 64.496C102.176 64.6667 102.181 64.8053 102.192 64.912C102.203 65.008 102.213 65.1147 102.224 65.232C102.245 65.3387 102.261 65.4987 102.272 65.712L101.776 65.296C101.893 64.6453 102.133 64.08 102.496 63.6C102.859 63.1093 103.312 62.7307 103.856 62.464C104.411 62.1867 105.024 62.048 105.696 62.048C106.475 62.048 107.168 62.2187 107.776 62.56C108.384 62.8907 108.859 63.3547 109.2 63.952C109.552 64.5493 109.728 65.2427 109.728 66.032C109.728 66.8107 109.547 67.5093 109.184 68.128C108.832 68.7467 108.331 69.232 107.68 69.584C107.029 69.9253 106.267 70.096 105.392 70.096ZM105.52 69.152C106.117 69.152 106.645 69.0187 107.104 68.752C107.563 68.4747 107.92 68.1013 108.176 67.632C108.443 67.1627 108.576 66.6347 108.576 66.048C108.576 65.472 108.443 64.96 108.176 64.512C107.92 64.064 107.563 63.712 107.104 63.456C106.645 63.1893 106.112 63.056 105.504 63.056C104.907 63.056 104.379 63.184 103.92 63.44C103.461 63.6853 103.099 64.032 102.832 64.48C102.576 64.928 102.448 65.4453 102.448 66.032C102.448 66.6187 102.576 67.1467 102.832 67.616C103.099 68.0853 103.461 68.4587 103.92 68.736C104.389 69.0133 104.923 69.152 105.52 69.152ZM115.763 70.08C114.888 70.08 114.12 69.8987 113.459 69.536C112.798 69.1627 112.28 68.656 111.907 68.016C111.534 67.3653 111.347 66.624 111.347 65.792C111.347 64.96 111.523 64.224 111.875 63.584C112.238 62.944 112.728 62.4427 113.347 62.08C113.976 61.7067 114.68 61.52 115.459 61.52C116.248 61.52 116.947 61.7013 117.555 62.064C118.174 62.416 118.659 62.9173 119.011 63.568C119.363 64.208 119.539 64.9493 119.539 65.792C119.539 65.8453 119.534 65.904 119.523 65.968C119.523 66.0213 119.523 66.08 119.523 66.144H112.211V65.296H118.915L118.467 65.632C118.467 65.024 118.334 64.4853 118.067 64.016C117.811 63.536 117.459 63.1627 117.011 62.896C116.563 62.6293 116.046 62.496 115.459 62.496C114.883 62.496 114.366 62.6293 113.907 62.896C113.448 63.1627 113.091 63.536 112.835 64.016C112.579 64.496 112.451 65.0453 112.451 65.664V65.84C112.451 66.48 112.59 67.0453 112.867 67.536C113.155 68.016 113.55 68.3947 114.051 68.672C114.563 68.9387 115.144 69.072 115.795 69.072C116.307 69.072 116.782 68.9813 117.219 68.8C117.667 68.6187 118.051 68.3413 118.371 67.968L119.011 68.704C118.638 69.152 118.168 69.4933 117.603 69.728C117.048 69.9627 116.435 70.08 115.763 70.08ZM124.075 70.096C123.467 70.096 122.864 70.0107 122.267 69.84C121.67 69.6693 121.142 69.408 120.683 69.056L121.051 68.208C121.456 68.5067 121.926 68.736 122.459 68.896C122.992 69.0453 123.52 69.12 124.043 69.12C124.566 69.1093 125.019 69.0347 125.403 68.896C125.787 68.7573 126.086 68.5653 126.299 68.32C126.512 68.0747 126.619 67.7973 126.619 67.488C126.619 67.04 126.416 66.6933 126.011 66.448C125.606 66.192 125.051 66.064 124.347 66.064H122.907V65.232H124.267C124.683 65.232 125.051 65.1787 125.371 65.072C125.691 64.9653 125.936 64.8107 126.107 64.608C126.288 64.4053 126.379 64.1653 126.379 63.888C126.379 63.5893 126.272 63.3333 126.059 63.12C125.856 62.9067 125.574 62.7467 125.211 62.64C124.848 62.5333 124.438 62.48 123.979 62.48C123.563 62.4907 123.131 62.5547 122.683 62.672C122.235 62.7787 121.792 62.944 121.355 63.168L121.035 62.288C121.526 62.032 122.011 61.84 122.491 61.712C122.982 61.5733 123.472 61.504 123.963 61.504C124.635 61.4827 125.238 61.5627 125.771 61.744C126.315 61.9253 126.747 62.1867 127.067 62.528C127.387 62.8587 127.547 63.2587 127.547 63.728C127.547 64.144 127.419 64.5067 127.163 64.816C126.907 65.1253 126.566 65.3653 126.139 65.536C125.712 65.7067 125.227 65.792 124.683 65.792L124.731 65.488C125.691 65.488 126.438 65.6747 126.971 66.048C127.515 66.4213 127.787 66.928 127.787 67.568C127.787 68.0693 127.622 68.512 127.291 68.896C126.96 69.2693 126.512 69.5627 125.947 69.776C125.392 69.9893 124.768 70.096 124.075 70.096ZM134.554 70V61.6H142.106V70H140.97V62.288L141.258 62.592H135.402L135.69 62.288V70H134.554ZM148.935 70.08C148.06 70.08 147.292 69.8987 146.631 69.536C145.969 69.1627 145.452 68.656 145.079 68.016C144.705 67.3653 144.519 66.624 144.519 65.792C144.519 64.96 144.695 64.224 145.047 63.584C145.409 62.944 145.9 62.4427 146.519 62.08C147.148 61.7067 147.852 61.52 148.631 61.52C149.42 61.52 150.119 61.7013 150.727 62.064C151.345 62.416 151.831 62.9173 152.183 63.568C152.535 64.208 152.711 64.9493 152.711 65.792C152.711 65.8453 152.705 65.904 152.695 65.968C152.695 66.0213 152.695 66.08 152.695 66.144H145.383V65.296H152.087L151.639 65.632C151.639 65.024 151.505 64.4853 151.239 64.016C150.983 63.536 150.631 63.1627 150.183 62.896C149.735 62.6293 149.217 62.496 148.631 62.496C148.055 62.496 147.537 62.6293 147.079 62.896C146.62 63.1627 146.263 63.536 146.007 64.016C145.751 64.496 145.623 65.0453 145.623 65.664V65.84C145.623 66.48 145.761 67.0453 146.039 67.536C146.327 68.016 146.721 68.3947 147.223 68.672C147.735 68.9387 148.316 69.072 148.967 69.072C149.479 69.072 149.953 68.9813 150.391 68.8C150.839 68.6187 151.223 68.3413 151.543 67.968L152.183 68.704C151.809 69.152 151.34 69.4933 150.775 69.728C150.22 69.9627 149.607 70.08 148.935 70.08ZM159.561 70.08C158.836 70.08 158.18 69.9147 157.593 69.584C157.007 69.2427 156.537 68.7573 156.185 68.128C155.844 67.488 155.673 66.7093 155.673 65.792C155.673 64.8747 155.844 64.1013 156.185 63.472C156.527 62.832 156.991 62.3467 157.577 62.016C158.164 61.6853 158.825 61.52 159.561 61.52C160.361 61.52 161.076 61.7013 161.705 62.064C162.345 62.416 162.847 62.9173 163.209 63.568C163.572 64.208 163.753 64.9493 163.753 65.792C163.753 66.6453 163.572 67.392 163.209 68.032C162.847 68.672 162.345 69.1733 161.705 69.536C161.076 69.8987 160.361 70.08 159.561 70.08ZM155.225 73.104V61.6H156.313V64.128L156.201 65.808L156.361 67.504V73.104H155.225ZM159.481 69.072C160.079 69.072 160.612 68.9387 161.081 68.672C161.551 68.3947 161.924 68.0107 162.201 67.52C162.479 67.0187 162.617 66.4427 162.617 65.792C162.617 65.1413 162.479 64.5707 162.201 64.08C161.924 63.5893 161.551 63.2053 161.081 62.928C160.612 62.6507 160.079 62.512 159.481 62.512C158.884 62.512 158.345 62.6507 157.865 62.928C157.396 63.2053 157.023 63.5893 156.745 64.08C156.479 64.5707 156.345 65.1413 156.345 65.792C156.345 66.4427 156.479 67.0187 156.745 67.52C157.023 68.0107 157.396 68.3947 157.865 68.672C158.345 68.9387 158.884 69.072 159.481 69.072ZM169.794 70.08C168.919 70.08 168.151 69.8987 167.49 69.536C166.829 69.1627 166.311 68.656 165.938 68.016C165.565 67.3653 165.378 66.624 165.378 65.792C165.378 64.96 165.554 64.224 165.906 63.584C166.269 62.944 166.759 62.4427 167.378 62.08C168.007 61.7067 168.711 61.52 169.49 61.52C170.279 61.52 170.978 61.7013 171.586 62.064C172.205 62.416 172.69 62.9173 173.042 63.568C173.394 64.208 173.57 64.9493 173.57 65.792C173.57 65.8453 173.565 65.904 173.554 65.968C173.554 66.0213 173.554 66.08 173.554 66.144H166.242V65.296H172.946L172.498 65.632C172.498 65.024 172.365 64.4853 172.098 64.016C171.842 63.536 171.49 63.1627 171.042 62.896C170.594 62.6293 170.077 62.496 169.49 62.496C168.914 62.496 168.397 62.6293 167.938 62.896C167.479 63.1627 167.122 63.536 166.866 64.016C166.61 64.496 166.482 65.0453 166.482 65.664V65.84C166.482 66.48 166.621 67.0453 166.898 67.536C167.186 68.016 167.581 68.3947 168.082 68.672C168.594 68.9387 169.175 69.072 169.826 69.072C170.338 69.072 170.813 68.9813 171.25 68.8C171.698 68.6187 172.082 68.3413 172.402 67.968L173.042 68.704C172.669 69.152 172.199 69.4933 171.634 69.728C171.079 69.9627 170.466 70.08 169.794 70.08ZM176.085 70V61.6H183.637V70H182.501V62.288L182.789 62.592H176.933L177.221 62.288V70H176.085ZM185.33 69.984L185.41 69.008C185.485 69.0187 185.554 69.0347 185.618 69.056C185.693 69.0667 185.757 69.072 185.81 69.072C186.151 69.072 186.423 68.944 186.626 68.688C186.839 68.432 186.999 68.0907 187.106 67.664C187.213 67.2373 187.287 66.7573 187.33 66.224C187.373 65.68 187.41 65.136 187.442 64.592L187.586 61.6H193.746V70H192.61V62.256L192.898 62.592H188.322L188.594 62.24L188.466 64.672C188.434 65.3973 188.375 66.0907 188.29 66.752C188.215 67.4133 188.093 67.9947 187.922 68.496C187.762 68.9973 187.538 69.392 187.25 69.68C186.962 69.9573 186.594 70.096 186.146 70.096C186.018 70.096 185.885 70.0853 185.746 70.064C185.618 70.0427 185.479 70.016 185.33 69.984ZM202.191 70V68.144L202.143 67.84V64.736C202.143 64.0213 201.941 63.472 201.535 63.088C201.141 62.704 200.549 62.512 199.759 62.512C199.215 62.512 198.698 62.6027 198.207 62.784C197.717 62.9653 197.301 63.2053 196.959 63.504L196.447 62.656C196.874 62.2933 197.386 62.016 197.983 61.824C198.581 61.6213 199.21 61.52 199.871 61.52C200.959 61.52 201.797 61.792 202.383 62.336C202.981 62.8693 203.279 63.6853 203.279 64.784V70H202.191ZM199.295 70.08C198.666 70.08 198.117 69.9787 197.647 69.776C197.189 69.5627 196.837 69.2747 196.591 68.912C196.346 68.5387 196.223 68.112 196.223 67.632C196.223 67.1947 196.325 66.8 196.527 66.448C196.741 66.0853 197.082 65.7973 197.551 65.584C198.031 65.36 198.671 65.248 199.471 65.248H202.367V66.096H199.503C198.693 66.096 198.127 66.24 197.807 66.528C197.498 66.816 197.343 67.1733 197.343 67.6C197.343 68.08 197.53 68.464 197.903 68.752C198.277 69.04 198.799 69.184 199.471 69.184C200.111 69.184 200.661 69.04 201.119 68.752C201.589 68.4533 201.93 68.0267 202.143 67.472L202.399 68.256C202.186 68.8107 201.813 69.2533 201.279 69.584C200.757 69.9147 200.095 70.08 199.295 70.08ZM207.904 70V62.288L208.192 62.592H204.72V61.6H212.224V62.592H208.752L209.04 62.288V70H207.904Z" fill="#141414"/>
</svg>
