<svg width="328" height="72" viewBox="0 0 328 72" fill="none" xmlns="http://www.w3.org/2000/svg">
<rect x="0.5" y="0.5" width="327" height="71" stroke="#DCE3EB"/>
<path d="M48 33.3334H24M41.3333 22.6667V28M30.6667 22.6667V28M30.4 49.3334H41.6C43.8402 49.3334 44.9603 49.3334 45.816 48.8974C46.5686 48.5139 47.1805 47.902 47.564 47.1493C48 46.2937 48 45.1736 48 42.9334V31.7334C48 29.4931 48 28.373 47.564 27.5174C47.1805 26.7647 46.5686 26.1528 45.816 25.7693C44.9603 25.3334 43.8402 25.3334 41.6 25.3334H30.4C28.1598 25.3334 27.0397 25.3334 26.184 25.7693C25.4314 26.1528 24.8195 26.7647 24.436 27.5174C24 28.373 24 29.4931 24 31.7334V42.9334C24 45.1736 24 46.2937 24.436 47.1493C24.8195 47.902 25.4314 48.5139 26.184 48.8974C27.0397 49.3334 28.1598 49.3334 30.4 49.3334Z" stroke="#29A1F8" stroke-width="2" stroke-linecap="round" stroke-linejoin="round"/>
<path d="M69.652 41V31.2H73.726C74.762 31.2 75.574 31.4147 76.162 31.844C76.7593 32.264 77.058 32.8847 77.058 33.706C77.058 34.518 76.7733 35.134 76.204 35.554C75.6347 35.9647 74.888 36.17 73.964 36.17L74.202 35.82C75.294 35.82 76.1247 36.0347 76.694 36.464C77.2633 36.8933 77.548 37.5233 77.548 38.354C77.548 39.194 77.2493 39.8473 76.652 40.314C76.064 40.7713 75.1773 41 73.992 41H69.652ZM70.674 40.174H73.992C74.8227 40.174 75.4527 40.02 75.882 39.712C76.3113 39.404 76.526 38.928 76.526 38.284C76.526 37.6493 76.3113 37.1827 75.882 36.884C75.4527 36.5853 74.8227 36.436 73.992 36.436H70.674V40.174ZM70.674 35.638H73.67C74.426 35.638 75.0047 35.4887 75.406 35.19C75.8167 34.882 76.022 34.4293 76.022 33.832C76.022 33.2347 75.8167 32.7867 75.406 32.488C75.0047 32.18 74.426 32.026 73.67 32.026H70.674V35.638ZM83.5644 41V33.65H84.5584V36.898H89.1924V33.65H90.1864V41H89.1924V37.752H84.5584V41H83.5644ZM97.5757 41V39.376L97.5337 39.11V36.394C97.5337 35.7687 97.3563 35.288 97.0017 34.952C96.6563 34.616 96.1383 34.448 95.4477 34.448C94.9717 34.448 94.519 34.5273 94.0897 34.686C93.6603 34.8447 93.2963 35.0547 92.9977 35.316L92.5497 34.574C92.923 34.2567 93.371 34.014 93.8937 33.846C94.4163 33.6687 94.967 33.58 95.5457 33.58C96.4977 33.58 97.2303 33.818 97.7437 34.294C98.2663 34.7607 98.5277 35.4747 98.5277 36.436V41H97.5757ZM95.0417 41.07C94.491 41.07 94.0103 40.9813 93.5997 40.804C93.1983 40.6173 92.8903 40.3653 92.6757 40.048C92.461 39.7213 92.3537 39.348 92.3537 38.928C92.3537 38.5453 92.4423 38.2 92.6197 37.892C92.8063 37.5747 93.105 37.3227 93.5157 37.136C93.9357 36.94 94.4957 36.842 95.1957 36.842H97.7297V37.584H95.2237C94.5143 37.584 94.0197 37.71 93.7397 37.962C93.469 38.214 93.3337 38.5267 93.3337 38.9C93.3337 39.32 93.497 39.656 93.8237 39.908C94.1503 40.16 94.6077 40.286 95.1957 40.286C95.7557 40.286 96.2363 40.16 96.6377 39.908C97.0483 39.6467 97.347 39.2733 97.5337 38.788L97.7577 39.474C97.571 39.9593 97.2443 40.3467 96.7777 40.636C96.3203 40.9253 95.7417 41.07 95.0417 41.07ZM99.8298 40.986L99.8998 40.132C99.9651 40.1413 100.026 40.1553 100.082 40.174C100.147 40.1833 100.203 40.188 100.25 40.188C100.548 40.188 100.786 40.076 100.964 39.852C101.15 39.628 101.29 39.3293 101.384 38.956C101.477 38.5827 101.542 38.1627 101.58 37.696C101.617 37.22 101.65 36.744 101.678 36.268L101.804 33.65H107.194V41H106.2V34.224L106.452 34.518H102.448L102.686 34.21L102.574 36.338C102.546 36.9727 102.494 37.5793 102.42 38.158C102.354 38.7367 102.247 39.2453 102.098 39.684C101.958 40.1227 101.762 40.468 101.51 40.72C101.258 40.9627 100.936 41.084 100.544 41.084C100.432 41.084 100.315 41.0747 100.194 41.056C100.082 41.0373 99.9604 41.014 99.8298 40.986ZM110.019 41V33.65H111.013V39.488L115.927 33.65H116.809V41H115.815V35.148L110.915 41H110.019ZM124.306 37.892C123.877 38.0787 123.443 38.228 123.004 38.34C122.575 38.4427 122.145 38.494 121.716 38.494C120.848 38.494 120.162 38.298 119.658 37.906C119.154 37.5047 118.902 36.8887 118.902 36.058V33.65H119.882V36.002C119.882 36.562 120.064 36.982 120.428 37.262C120.792 37.542 121.282 37.682 121.898 37.682C122.271 37.682 122.663 37.6353 123.074 37.542C123.485 37.4393 123.9 37.2947 124.32 37.108L124.306 37.892ZM124.222 41V33.65H125.216V41H124.222ZM128.039 41V33.65H129.033V39.488L133.947 33.65H134.829V41H133.835V35.148L128.935 41H128.039ZM137.678 41V33.65H138.672V39.488L143.586 33.65H144.468V41H143.474V35.148L138.574 41H137.678ZM150.98 41V33.65H151.974V39.488L156.888 33.65H157.77V41H156.776V35.148L151.876 41H150.98ZM164.283 41V33.65H170.891V41H169.897V34.252L170.149 34.518H165.025L165.277 34.252V41H164.283ZM176.741 41.07C176.031 41.07 175.392 40.9113 174.823 40.594C174.263 40.2673 173.819 39.824 173.493 39.264C173.166 38.6947 173.003 38.046 173.003 37.318C173.003 36.5807 173.166 35.932 173.493 35.372C173.819 34.812 174.263 34.3733 174.823 34.056C175.383 33.7387 176.022 33.58 176.741 33.58C177.469 33.58 178.113 33.7387 178.673 34.056C179.242 34.3733 179.685 34.812 180.003 35.372C180.329 35.932 180.493 36.5807 180.493 37.318C180.493 38.046 180.329 38.6947 180.003 39.264C179.685 39.824 179.242 40.2673 178.673 40.594C178.103 40.9113 177.459 41.07 176.741 41.07ZM176.741 40.188C177.273 40.188 177.744 40.0713 178.155 39.838C178.565 39.5953 178.887 39.2593 179.121 38.83C179.363 38.3913 179.485 37.8873 179.485 37.318C179.485 36.7393 179.363 36.2353 179.121 35.806C178.887 35.3767 178.565 35.0453 178.155 34.812C177.744 34.5693 177.277 34.448 176.755 34.448C176.232 34.448 175.765 34.5693 175.355 34.812C174.944 35.0453 174.617 35.3767 174.375 35.806C174.132 36.2353 174.011 36.7393 174.011 37.318C174.011 37.8873 174.132 38.3913 174.375 38.83C174.617 39.2593 174.944 39.5953 175.355 39.838C175.765 40.0713 176.227 40.188 176.741 40.188ZM187.616 40.524V34.518H184.074L183.99 36.156C183.971 36.6507 183.939 37.136 183.892 37.612C183.855 38.088 183.785 38.5267 183.682 38.928C183.589 39.32 183.453 39.642 183.276 39.894C183.099 40.1367 182.87 40.2767 182.59 40.314L181.596 40.132C181.885 40.1413 182.123 40.0387 182.31 39.824C182.497 39.6 182.641 39.2967 182.744 38.914C182.847 38.5313 182.921 38.0973 182.968 37.612C183.015 37.1173 183.052 36.6133 183.08 36.1L183.178 33.65H188.61V40.524H187.616ZM181.288 42.778V40.132H189.758V42.778H188.82V41H182.226V42.778H181.288ZM197.333 41.084C196.801 41.084 196.274 41.0093 195.751 40.86C195.229 40.7107 194.767 40.482 194.365 40.174L194.687 39.432C195.042 39.6933 195.453 39.894 195.919 40.034C196.386 40.1647 196.848 40.23 197.305 40.23C197.763 40.2207 198.159 40.1553 198.495 40.034C198.831 39.9127 199.093 39.7447 199.279 39.53C199.466 39.3153 199.559 39.0727 199.559 38.802C199.559 38.41 199.382 38.1067 199.027 37.892C198.673 37.668 198.187 37.556 197.571 37.556H196.311V36.828H197.501C197.865 36.828 198.187 36.7813 198.467 36.688C198.747 36.5947 198.962 36.4593 199.111 36.282C199.27 36.1047 199.349 35.8947 199.349 35.652C199.349 35.3907 199.256 35.1667 199.069 34.98C198.892 34.7933 198.645 34.6533 198.327 34.56C198.01 34.4667 197.651 34.42 197.249 34.42C196.885 34.4293 196.507 34.4853 196.115 34.588C195.723 34.6813 195.336 34.826 194.953 35.022L194.673 34.252C195.103 34.028 195.527 33.86 195.947 33.748C196.377 33.6267 196.806 33.566 197.235 33.566C197.823 33.5473 198.351 33.6173 198.817 33.776C199.293 33.9347 199.671 34.1633 199.951 34.462C200.231 34.7513 200.371 35.1013 200.371 35.512C200.371 35.876 200.259 36.1933 200.035 36.464C199.811 36.7347 199.513 36.9447 199.139 37.094C198.766 37.2433 198.341 37.318 197.865 37.318L197.907 37.052C198.747 37.052 199.401 37.2153 199.867 37.542C200.343 37.8687 200.581 38.312 200.581 38.872C200.581 39.3107 200.437 39.698 200.147 40.034C199.858 40.3607 199.466 40.6173 198.971 40.804C198.486 40.9907 197.94 41.084 197.333 41.084ZM207.402 41V39.376L207.36 39.11V36.394C207.36 35.7687 207.182 35.288 206.828 34.952C206.482 34.616 205.964 34.448 205.274 34.448C204.798 34.448 204.345 34.5273 203.916 34.686C203.486 34.8447 203.122 35.0547 202.824 35.316L202.376 34.574C202.749 34.2567 203.197 34.014 203.72 33.846C204.242 33.6687 204.793 33.58 205.372 33.58C206.324 33.58 207.056 33.818 207.57 34.294C208.092 34.7607 208.354 35.4747 208.354 36.436V41H207.402ZM204.868 41.07C204.317 41.07 203.836 40.9813 203.426 40.804C203.024 40.6173 202.716 40.3653 202.502 40.048C202.287 39.7213 202.18 39.348 202.18 38.928C202.18 38.5453 202.268 38.2 202.446 37.892C202.632 37.5747 202.931 37.3227 203.342 37.136C203.762 36.94 204.322 36.842 205.022 36.842H207.556V37.584H205.05C204.34 37.584 203.846 37.71 203.566 37.962C203.295 38.214 203.16 38.5267 203.16 38.9C203.16 39.32 203.323 39.656 203.65 39.908C203.976 40.16 204.434 40.286 205.022 40.286C205.582 40.286 206.062 40.16 206.464 39.908C206.874 39.6467 207.173 39.2733 207.36 38.788L207.584 39.474C207.397 39.9593 207.07 40.3467 206.604 40.636C206.146 40.9253 205.568 41.07 204.868 41.07ZM216.39 41L213.366 37.36L214.192 36.87L217.566 41H216.39ZM211 41V33.65H211.994V41H211ZM211.686 37.724V36.87H214.052V37.724H211.686ZM214.276 37.43L213.352 37.29L216.278 33.65H217.356L214.276 37.43ZM223.562 41V39.376L223.52 39.11V36.394C223.52 35.7687 223.343 35.288 222.988 34.952C222.643 34.616 222.125 34.448 221.434 34.448C220.958 34.448 220.505 34.5273 220.076 34.686C219.647 34.8447 219.283 35.0547 218.984 35.316L218.536 34.574C218.909 34.2567 219.357 34.014 219.88 33.846C220.403 33.6687 220.953 33.58 221.532 33.58C222.484 33.58 223.217 33.818 223.73 34.294C224.253 34.7607 224.514 35.4747 224.514 36.436V41H223.562ZM221.028 41.07C220.477 41.07 219.997 40.9813 219.586 40.804C219.185 40.6173 218.877 40.3653 218.662 40.048C218.447 39.7213 218.34 39.348 218.34 38.928C218.34 38.5453 218.429 38.2 218.606 37.892C218.793 37.5747 219.091 37.3227 219.502 37.136C219.922 36.94 220.482 36.842 221.182 36.842H223.716V37.584H221.21C220.501 37.584 220.006 37.71 219.726 37.962C219.455 38.214 219.32 38.5267 219.32 38.9C219.32 39.32 219.483 39.656 219.81 39.908C220.137 40.16 220.594 40.286 221.182 40.286C221.742 40.286 222.223 40.16 222.624 39.908C223.035 39.6467 223.333 39.2733 223.52 38.788L223.744 39.474C223.557 39.9593 223.231 40.3467 222.764 40.636C222.307 40.9253 221.728 41.07 221.028 41.07ZM228.984 41.084C228.452 41.084 227.924 41.0093 227.402 40.86C226.879 40.7107 226.417 40.482 226.016 40.174L226.338 39.432C226.692 39.6933 227.103 39.894 227.57 40.034C228.036 40.1647 228.498 40.23 228.956 40.23C229.413 40.2207 229.81 40.1553 230.146 40.034C230.482 39.9127 230.743 39.7447 230.93 39.53C231.116 39.3153 231.21 39.0727 231.21 38.802C231.21 38.41 231.032 38.1067 230.678 37.892C230.323 37.668 229.838 37.556 229.222 37.556H227.962V36.828H229.152C229.516 36.828 229.838 36.7813 230.118 36.688C230.398 36.5947 230.612 36.4593 230.762 36.282C230.92 36.1047 231 35.8947 231 35.652C231 35.3907 230.906 35.1667 230.72 34.98C230.542 34.7933 230.295 34.6533 229.978 34.56C229.66 34.4667 229.301 34.42 228.9 34.42C228.536 34.4293 228.158 34.4853 227.766 34.588C227.374 34.6813 226.986 34.826 226.604 35.022L226.324 34.252C226.753 34.028 227.178 33.86 227.598 33.748C228.027 33.6267 228.456 33.566 228.886 33.566C229.474 33.5473 230.001 33.6173 230.468 33.776C230.944 33.9347 231.322 34.1633 231.602 34.462C231.882 34.7513 232.022 35.1013 232.022 35.512C232.022 35.876 231.91 36.1933 231.686 36.464C231.462 36.7347 231.163 36.9447 230.79 37.094C230.416 37.2433 229.992 37.318 229.516 37.318L229.558 37.052C230.398 37.052 231.051 37.2153 231.518 37.542C231.994 37.8687 232.232 38.312 232.232 38.872C232.232 39.3107 232.087 39.698 231.798 40.034C231.508 40.3607 231.116 40.6173 230.622 40.804C230.136 40.9907 229.59 41.084 228.984 41.084ZM240.126 41.084C239.594 41.084 239.067 41.0093 238.544 40.86C238.022 40.7107 237.56 40.482 237.158 40.174L237.48 39.432C237.835 39.6933 238.246 39.894 238.712 40.034C239.179 40.1647 239.641 40.23 240.098 40.23C240.556 40.2207 240.952 40.1553 241.288 40.034C241.624 39.9127 241.886 39.7447 242.072 39.53C242.259 39.3153 242.352 39.0727 242.352 38.802C242.352 38.41 242.175 38.1067 241.82 37.892C241.466 37.668 240.98 37.556 240.364 37.556H239.104V36.828H240.294C240.658 36.828 240.98 36.7813 241.26 36.688C241.54 36.5947 241.755 36.4593 241.904 36.282C242.063 36.1047 242.142 35.8947 242.142 35.652C242.142 35.3907 242.049 35.1667 241.862 34.98C241.685 34.7933 241.438 34.6533 241.12 34.56C240.803 34.4667 240.444 34.42 240.042 34.42C239.678 34.4293 239.3 34.4853 238.908 34.588C238.516 34.6813 238.129 34.826 237.746 35.022L237.466 34.252C237.896 34.028 238.32 33.86 238.74 33.748C239.17 33.6267 239.599 33.566 240.028 33.566C240.616 33.5473 241.144 33.6173 241.61 33.776C242.086 33.9347 242.464 34.1633 242.744 34.462C243.024 34.7513 243.164 35.1013 243.164 35.512C243.164 35.876 243.052 36.1933 242.828 36.464C242.604 36.7347 242.306 36.9447 241.932 37.094C241.559 37.2433 241.134 37.318 240.658 37.318L240.7 37.052C241.54 37.052 242.194 37.2153 242.66 37.542C243.136 37.8687 243.374 38.312 243.374 38.872C243.374 39.3107 243.23 39.698 242.94 40.034C242.651 40.3607 242.259 40.6173 241.764 40.804C241.279 40.9907 240.733 41.084 240.126 41.084ZM250.195 41V39.376L250.153 39.11V36.394C250.153 35.7687 249.975 35.288 249.621 34.952C249.275 34.616 248.757 34.448 248.067 34.448C247.591 34.448 247.138 34.5273 246.709 34.686C246.279 34.8447 245.915 35.0547 245.617 35.316L245.169 34.574C245.542 34.2567 245.99 34.014 246.513 33.846C247.035 33.6687 247.586 33.58 248.165 33.58C249.117 33.58 249.849 33.818 250.363 34.294C250.885 34.7607 251.147 35.4747 251.147 36.436V41H250.195ZM247.661 41.07C247.11 41.07 246.629 40.9813 246.219 40.804C245.817 40.6173 245.509 40.3653 245.295 40.048C245.08 39.7213 244.973 39.348 244.973 38.928C244.973 38.5453 245.061 38.2 245.239 37.892C245.425 37.5747 245.724 37.3227 246.135 37.136C246.555 36.94 247.115 36.842 247.815 36.842H250.349V37.584H247.843C247.133 37.584 246.639 37.71 246.359 37.962C246.088 38.214 245.953 38.5267 245.953 38.9C245.953 39.32 246.116 39.656 246.443 39.908C246.769 40.16 247.227 40.286 247.815 40.286C248.375 40.286 248.855 40.16 249.257 39.908C249.667 39.6467 249.966 39.2733 250.153 38.788L250.377 39.474C250.19 39.9593 249.863 40.3467 249.397 40.636C248.939 40.9253 248.361 41.07 247.661 41.07ZM259.697 41.084C258.988 41.084 258.316 40.972 257.681 40.748C257.056 40.5147 256.552 40.2067 256.169 39.824L256.659 39.026C256.976 39.3527 257.401 39.6233 257.933 39.838C258.474 40.0527 259.062 40.16 259.697 40.16C260.509 40.16 261.13 39.9827 261.559 39.628C261.998 39.2733 262.217 38.7973 262.217 38.2C262.217 37.6027 262.002 37.1267 261.573 36.772C261.153 36.4173 260.486 36.24 259.571 36.24H258.871V35.498L261.895 31.704L262.035 32.096H256.575V31.2H262.875V31.914L259.851 35.708L259.361 35.386H259.739C260.915 35.386 261.792 35.6473 262.371 36.17C262.959 36.6927 263.253 37.3647 263.253 38.186C263.253 38.7367 263.122 39.2313 262.861 39.67C262.6 40.1087 262.203 40.454 261.671 40.706C261.148 40.958 260.49 41.084 259.697 41.084ZM274.063 40.524V34.518H270.521L270.437 36.156C270.419 36.6507 270.386 37.136 270.339 37.612C270.302 38.088 270.232 38.5267 270.129 38.928C270.036 39.32 269.901 39.642 269.723 39.894C269.546 40.1367 269.317 40.2767 269.037 40.314L268.043 40.132C268.333 40.1413 268.571 40.0387 268.757 39.824C268.944 39.6 269.089 39.2967 269.191 38.914C269.294 38.5313 269.369 38.0973 269.415 37.612C269.462 37.1173 269.499 36.6133 269.527 36.1L269.625 33.65H275.057V40.524H274.063ZM267.735 42.778V40.132H276.205V42.778H275.267V41H268.673V42.778H267.735ZM278.143 41V33.65H279.137V36.898H283.771V33.65H284.765V41H283.771V37.752H279.137V41H278.143ZM292.336 41V38.354L292.518 38.564H290.026C289.083 38.564 288.346 38.3587 287.814 37.948C287.282 37.5373 287.016 36.94 287.016 36.156C287.016 35.316 287.3 34.6907 287.87 34.28C288.439 33.86 289.2 33.65 290.152 33.65H293.246V41H292.336ZM286.96 41L288.976 38.172H290.012L288.038 41H286.96ZM292.336 38.06V34.224L292.518 34.518H290.18C289.498 34.518 288.966 34.6487 288.584 34.91C288.21 35.1713 288.024 35.596 288.024 36.184C288.024 37.276 288.719 37.822 290.11 37.822H292.518L292.336 38.06Z" fill="#141414"/>
</svg>
