<svg width="220" height="154" viewBox="0 0 220 154" fill="none" xmlns="http://www.w3.org/2000/svg">
<rect x="0.5" y="0.5" width="219" height="153" stroke="#DCE3EB"/>
<path d="M47.3333 29.7037L36 36M36 36L24.6666 29.7037M36 36L36 48.6667M48 41.4114V30.5886C48 30.1318 48 29.9033 47.9327 29.6996C47.8731 29.5194 47.7758 29.3539 47.6472 29.2143C47.5018 29.0566 47.3021 28.9456 46.9027 28.7238L37.036 23.2423C36.6579 23.0322 36.4688 22.9272 36.2686 22.886C36.0914 22.8495 35.9086 22.8495 35.7314 22.886C35.5312 22.9272 35.3421 23.0322 34.964 23.2423L25.0973 28.7238C24.6979 28.9456 24.4982 29.0566 24.3528 29.2143C24.2242 29.3539 24.1269 29.5194 24.0673 29.6996C24 29.9033 24 30.1318 24 30.5886V41.4114C24 41.8683 24 42.0967 24.0673 42.3005C24.1269 42.4807 24.2242 42.6461 24.3528 42.7857C24.4982 42.9435 24.6979 43.0544 25.0973 43.2763L34.964 48.7578C35.3421 48.9679 35.5312 49.0729 35.7314 49.1141C35.9086 49.1505 36.0914 49.1505 36.2686 49.1141C36.4688 49.0729 36.6579 48.9679 37.036 48.7578L46.9027 43.2763C47.3021 43.0544 47.5018 42.9435 47.6472 42.7857C47.7758 42.6461 47.8731 42.4807 47.9327 42.3005C48 42.0967 48 41.8683 48 41.4114Z" stroke="#29A1F8" stroke-width="2" stroke-linecap="round" stroke-linejoin="round"/>
<path d="M42 32.6667L30 26" stroke="#29A1F8" stroke-width="2" stroke-linecap="round" stroke-linejoin="round"/>
<path d="M28.162 83.51V75.096H23.472L23.388 77.476C23.36 78.2133 23.3133 78.9227 23.248 79.604C23.192 80.276 23.0987 80.8827 22.968 81.424C22.8467 81.956 22.6787 82.39 22.464 82.726C22.2587 83.062 21.988 83.258 21.652 83.314L20.518 83.104C20.8913 83.1227 21.1993 82.9873 21.442 82.698C21.694 82.4087 21.8853 82.0027 22.016 81.48C22.156 80.9573 22.2587 80.346 22.324 79.646C22.3893 78.946 22.436 78.19 22.464 77.378L22.576 74.2H29.184V83.51H28.162ZM20.154 86.198L20.168 83.104H30.654V86.198H29.688V84H21.134L21.12 86.198H20.154ZM35.3482 84.07C34.6388 84.07 33.9995 83.9113 33.4302 83.594C32.8702 83.2673 32.4268 82.824 32.1002 82.264C31.7735 81.6947 31.6102 81.046 31.6102 80.318C31.6102 79.5807 31.7735 78.932 32.1002 78.372C32.4268 77.812 32.8702 77.3733 33.4302 77.056C33.9902 76.7387 34.6295 76.58 35.3482 76.58C36.0762 76.58 36.7202 76.7387 37.2802 77.056C37.8495 77.3733 38.2928 77.812 38.6102 78.372C38.9368 78.932 39.1002 79.5807 39.1002 80.318C39.1002 81.046 38.9368 81.6947 38.6102 82.264C38.2928 82.824 37.8495 83.2673 37.2802 83.594C36.7108 83.9113 36.0668 84.07 35.3482 84.07ZM35.3482 83.188C35.8802 83.188 36.3515 83.0713 36.7622 82.838C37.1728 82.5953 37.4948 82.2593 37.7282 81.83C37.9708 81.3913 38.0922 80.8873 38.0922 80.318C38.0922 79.7393 37.9708 79.2353 37.7282 78.806C37.4948 78.3767 37.1728 78.0453 36.7622 77.812C36.3515 77.5693 35.8848 77.448 35.3622 77.448C34.8395 77.448 34.3728 77.5693 33.9622 77.812C33.5515 78.0453 33.2248 78.3767 32.9822 78.806C32.7395 79.2353 32.6182 79.7393 32.6182 80.318C32.6182 80.8873 32.7395 81.3913 32.9822 81.83C33.2248 82.2593 33.5515 82.5953 33.9622 82.838C34.3728 83.0713 34.8348 83.188 35.3482 83.188ZM44.3045 84.07C43.5765 84.07 42.9232 83.9113 42.3445 83.594C41.7752 83.2673 41.3272 82.824 41.0005 82.264C40.6739 81.6947 40.5105 81.046 40.5105 80.318C40.5105 79.5807 40.6739 78.932 41.0005 78.372C41.3272 77.812 41.7752 77.3733 42.3445 77.056C42.9232 76.7387 43.5765 76.58 44.3045 76.58C44.9299 76.58 45.4945 76.7013 45.9985 76.944C46.5025 77.1867 46.8992 77.5507 47.1885 78.036L46.4465 78.54C46.1945 78.1667 45.8819 77.8913 45.5085 77.714C45.1352 77.5367 44.7292 77.448 44.2905 77.448C43.7679 77.448 43.2965 77.5693 42.8765 77.812C42.4565 78.0453 42.1252 78.3767 41.8825 78.806C41.6399 79.2353 41.5185 79.7393 41.5185 80.318C41.5185 80.8967 41.6399 81.4007 41.8825 81.83C42.1252 82.2593 42.4565 82.5953 42.8765 82.838C43.2965 83.0713 43.7679 83.188 44.2905 83.188C44.7292 83.188 45.1352 83.0993 45.5085 82.922C45.8819 82.7447 46.1945 82.474 46.4465 82.11L47.1885 82.614C46.8992 83.09 46.5025 83.454 45.9985 83.706C45.4945 83.9487 44.9299 84.07 44.3045 84.07ZM50.3765 84V77.252L50.6285 77.518H47.5905V76.65H54.1565V77.518H51.1185L51.3705 77.252V84H50.3765ZM60.1577 84V82.376L60.1157 82.11V79.394C60.1157 78.7687 59.9384 78.288 59.5837 77.952C59.2384 77.616 58.7204 77.448 58.0297 77.448C57.5537 77.448 57.101 77.5273 56.6717 77.686C56.2424 77.8447 55.8784 78.0547 55.5797 78.316L55.1317 77.574C55.505 77.2567 55.953 77.014 56.4757 76.846C56.9984 76.6687 57.549 76.58 58.1277 76.58C59.0797 76.58 59.8124 76.818 60.3257 77.294C60.8484 77.7607 61.1097 78.4747 61.1097 79.436V84H60.1577ZM57.6237 84.07C57.073 84.07 56.5924 83.9813 56.1817 83.804C55.7804 83.6173 55.4724 83.3653 55.2577 83.048C55.043 82.7213 54.9357 82.348 54.9357 81.928C54.9357 81.5453 55.0244 81.2 55.2017 80.892C55.3884 80.5747 55.687 80.3227 56.0977 80.136C56.5177 79.94 57.0777 79.842 57.7777 79.842H60.3117V80.584H57.8057C57.0964 80.584 56.6017 80.71 56.3217 80.962C56.051 81.214 55.9157 81.5267 55.9157 81.9C55.9157 82.32 56.079 82.656 56.4057 82.908C56.7324 83.16 57.1897 83.286 57.7777 83.286C58.3377 83.286 58.8184 83.16 59.2197 82.908C59.6304 82.6467 59.929 82.2733 60.1157 81.788L60.3397 82.474C60.153 82.9593 59.8264 83.3467 59.3597 83.636C58.9024 83.9253 58.3237 84.07 57.6237 84.07ZM63.7558 84V76.65H67.0038C67.8345 76.65 68.4878 76.8087 68.9638 77.126C69.4491 77.4433 69.6918 77.91 69.6918 78.526C69.6918 79.1233 69.4631 79.5853 69.0058 79.912C68.5485 80.2293 67.9465 80.388 67.1998 80.388L67.3958 80.094C68.2731 80.094 68.9171 80.2573 69.3278 80.584C69.7385 80.9107 69.9438 81.382 69.9438 81.998C69.9438 82.6327 69.7105 83.1273 69.2438 83.482C68.7865 83.8273 68.0725 84 67.1018 84H63.7558ZM64.7218 83.216H67.0598C67.6851 83.216 68.1565 83.118 68.4738 82.922C68.8005 82.7167 68.9638 82.39 68.9638 81.942C68.9638 81.494 68.8191 81.1673 68.5298 80.962C68.2405 80.7567 67.7831 80.654 67.1578 80.654H64.7218V83.216ZM64.7218 79.912H66.9338C67.5031 79.912 67.9371 79.8047 68.2358 79.59C68.5438 79.3753 68.6978 79.0627 68.6978 78.652C68.6978 78.2413 68.5438 77.9333 68.2358 77.728C67.9371 77.5227 67.5031 77.42 66.9338 77.42H64.7218V79.912ZM77.6634 84L74.6394 80.36L75.4654 79.87L78.8394 84H77.6634ZM72.2734 84V76.65H73.2674V84H72.2734ZM72.9594 80.724V79.87H75.3254V80.724H72.9594ZM75.5494 80.43L74.6254 80.29L77.5514 76.65H78.6294L75.5494 80.43ZM84.8354 84V82.376L84.7934 82.11V79.394C84.7934 78.7687 84.6161 78.288 84.2614 77.952C83.9161 77.616 83.3981 77.448 82.7074 77.448C82.2314 77.448 81.7788 77.5273 81.3494 77.686C80.9201 77.8447 80.5561 78.0547 80.2574 78.316L79.8094 77.574C80.1828 77.2567 80.6308 77.014 81.1534 76.846C81.6761 76.6687 82.2268 76.58 82.8054 76.58C83.7574 76.58 84.4901 76.818 85.0034 77.294C85.5261 77.7607 85.7874 78.4747 85.7874 79.436V84H84.8354ZM82.3014 84.07C81.7508 84.07 81.2701 83.9813 80.8594 83.804C80.4581 83.6173 80.1501 83.3653 79.9354 83.048C79.7208 82.7213 79.6134 82.348 79.6134 81.928C79.6134 81.5453 79.7021 81.2 79.8794 80.892C80.0661 80.5747 80.3648 80.3227 80.7754 80.136C81.1954 79.94 81.7554 79.842 82.4554 79.842H84.9894V80.584H82.4834C81.7741 80.584 81.2794 80.71 80.9994 80.962C80.7288 81.214 80.5934 81.5267 80.5934 81.9C80.5934 82.32 80.7568 82.656 81.0834 82.908C81.4101 83.16 81.8674 83.286 82.4554 83.286C83.0154 83.286 83.4961 83.16 83.8974 82.908C84.3081 82.6467 84.6068 82.2733 84.7934 81.788L85.0174 82.474C84.8308 82.9593 84.5041 83.3467 84.0374 83.636C83.5801 83.9253 83.0014 84.07 82.3014 84.07ZM98.2576 84V80.752L98.5376 81.032H95.3316C94.5476 81.032 93.8756 80.8967 93.3156 80.626C92.7649 80.3553 92.3403 79.9727 92.0416 79.478C91.7523 78.974 91.6076 78.372 91.6076 77.672C91.6076 76.9253 91.7663 76.2953 92.0836 75.782C92.4009 75.2593 92.8489 74.8673 93.4276 74.606C94.0156 74.3353 94.6969 74.2 95.4716 74.2H99.2796V84H98.2576ZM91.6076 84L94.0156 80.556H95.0796L92.7136 84H91.6076ZM98.2576 80.458V74.802L98.5376 75.096H95.5136C94.5989 75.096 93.8896 75.3153 93.3856 75.754C92.8909 76.1833 92.6436 76.8133 92.6436 77.644C92.6436 78.4467 92.8769 79.0673 93.3436 79.506C93.8103 79.9353 94.5009 80.15 95.4156 80.15H98.5376L98.2576 80.458ZM102.422 84.07C102.216 84.07 102.039 83.9953 101.89 83.846C101.75 83.6967 101.68 83.5147 101.68 83.3C101.68 83.076 101.75 82.894 101.89 82.754C102.039 82.614 102.216 82.544 102.422 82.544C102.627 82.544 102.8 82.614 102.94 82.754C103.089 82.894 103.164 83.076 103.164 83.3C103.164 83.5147 103.089 83.6967 102.94 83.846C102.8 83.9953 102.627 84.07 102.422 84.07ZM112.435 83.51V75.096H107.745L107.661 77.476C107.633 78.2133 107.587 78.9227 107.521 79.604C107.465 80.276 107.372 80.8827 107.241 81.424C107.12 81.956 106.952 82.39 106.737 82.726C106.532 83.062 106.261 83.258 105.925 83.314L104.791 83.104C105.165 83.1227 105.473 82.9873 105.715 82.698C105.967 82.4087 106.159 82.0027 106.289 81.48C106.429 80.9573 106.532 80.346 106.597 79.646C106.663 78.946 106.709 78.19 106.737 77.378L106.849 74.2H113.457V83.51H112.435ZM104.427 86.198L104.441 83.104H114.927V86.198H113.961V84H105.407L105.393 86.198H104.427ZM119.622 84.07C118.912 84.07 118.273 83.9113 117.704 83.594C117.144 83.2673 116.7 82.824 116.374 82.264C116.047 81.6947 115.884 81.046 115.884 80.318C115.884 79.5807 116.047 78.932 116.374 78.372C116.7 77.812 117.144 77.3733 117.704 77.056C118.264 76.7387 118.903 76.58 119.622 76.58C120.35 76.58 120.994 76.7387 121.554 77.056C122.123 77.3733 122.566 77.812 122.884 78.372C123.21 78.932 123.374 79.5807 123.374 80.318C123.374 81.046 123.21 81.6947 122.884 82.264C122.566 82.824 122.123 83.2673 121.554 83.594C120.984 83.9113 120.34 84.07 119.622 84.07ZM119.622 83.188C120.154 83.188 120.625 83.0713 121.036 82.838C121.446 82.5953 121.768 82.2593 122.002 81.83C122.244 81.3913 122.366 80.8873 122.366 80.318C122.366 79.7393 122.244 79.2353 122.002 78.806C121.768 78.3767 121.446 78.0453 121.036 77.812C120.625 77.5693 120.158 77.448 119.636 77.448C119.113 77.448 118.646 77.5693 118.236 77.812C117.825 78.0453 117.498 78.3767 117.256 78.806C117.013 79.2353 116.892 79.7393 116.892 80.318C116.892 80.8873 117.013 81.3913 117.256 81.83C117.498 82.2593 117.825 82.5953 118.236 82.838C118.646 83.0713 119.108 83.188 119.622 83.188ZM128.578 84.07C127.85 84.07 127.197 83.9113 126.618 83.594C126.049 83.2673 125.601 82.824 125.274 82.264C124.947 81.6947 124.784 81.046 124.784 80.318C124.784 79.5807 124.947 78.932 125.274 78.372C125.601 77.812 126.049 77.3733 126.618 77.056C127.197 76.7387 127.85 76.58 128.578 76.58C129.203 76.58 129.768 76.7013 130.272 76.944C130.776 77.1867 131.173 77.5507 131.462 78.036L130.72 78.54C130.468 78.1667 130.155 77.8913 129.782 77.714C129.409 77.5367 129.003 77.448 128.564 77.448C128.041 77.448 127.57 77.5693 127.15 77.812C126.73 78.0453 126.399 78.3767 126.156 78.806C125.913 79.2353 125.792 79.7393 125.792 80.318C125.792 80.8967 125.913 81.4007 126.156 81.83C126.399 82.2593 126.73 82.5953 127.15 82.838C127.57 83.0713 128.041 83.188 128.564 83.188C129.003 83.188 129.409 83.0993 129.782 82.922C130.155 82.7447 130.468 82.474 130.72 82.11L131.462 82.614C131.173 83.09 130.776 83.454 130.272 83.706C129.768 83.9487 129.203 84.07 128.578 84.07ZM134.65 84V77.252L134.902 77.518H131.864V76.65H138.43V77.518H135.392L135.644 77.252V84H134.65ZM144.431 84V82.376L144.389 82.11V79.394C144.389 78.7687 144.212 78.288 143.857 77.952C143.512 77.616 142.994 77.448 142.303 77.448C141.827 77.448 141.374 77.5273 140.945 77.686C140.516 77.8447 140.152 78.0547 139.853 78.316L139.405 77.574C139.778 77.2567 140.226 77.014 140.749 76.846C141.272 76.6687 141.822 76.58 142.401 76.58C143.353 76.58 144.086 76.818 144.599 77.294C145.122 77.7607 145.383 78.4747 145.383 79.436V84H144.431ZM141.897 84.07C141.346 84.07 140.866 83.9813 140.455 83.804C140.054 83.6173 139.746 83.3653 139.531 83.048C139.316 82.7213 139.209 82.348 139.209 81.928C139.209 81.5453 139.298 81.2 139.475 80.892C139.662 80.5747 139.96 80.3227 140.371 80.136C140.791 79.94 141.351 79.842 142.051 79.842H144.585V80.584H142.079C141.37 80.584 140.875 80.71 140.595 80.962C140.324 81.214 140.189 81.5267 140.189 81.9C140.189 82.32 140.352 82.656 140.679 82.908C141.006 83.16 141.463 83.286 142.051 83.286C142.611 83.286 143.092 83.16 143.493 82.908C143.904 82.6467 144.202 82.2733 144.389 81.788L144.613 82.474C144.426 82.9593 144.1 83.3467 143.633 83.636C143.176 83.9253 142.597 84.07 141.897 84.07ZM148.029 84V76.65H151.277C152.108 76.65 152.761 76.8087 153.237 77.126C153.723 77.4433 153.965 77.91 153.965 78.526C153.965 79.1233 153.737 79.5853 153.279 79.912C152.822 80.2293 152.22 80.388 151.473 80.388L151.669 80.094C152.547 80.094 153.191 80.2573 153.601 80.584C154.012 80.9107 154.217 81.382 154.217 81.998C154.217 82.6327 153.984 83.1273 153.517 83.482C153.06 83.8273 152.346 84 151.375 84H148.029ZM148.995 83.216H151.333C151.959 83.216 152.43 83.118 152.747 82.922C153.074 82.7167 153.237 82.39 153.237 81.942C153.237 81.494 153.093 81.1673 152.803 80.962C152.514 80.7567 152.057 80.654 151.431 80.654H148.995V83.216ZM148.995 79.912H151.207C151.777 79.912 152.211 79.8047 152.509 79.59C152.817 79.3753 152.971 79.0627 152.971 78.652C152.971 78.2413 152.817 77.9333 152.509 77.728C152.211 77.5227 151.777 77.42 151.207 77.42H148.995V79.912ZM161.937 84L158.913 80.36L159.739 79.87L163.113 84H161.937ZM156.547 84V76.65H157.541V84H156.547ZM157.233 80.724V79.87H159.599V80.724H157.233ZM159.823 80.43L158.899 80.29L161.825 76.65H162.903L159.823 80.43ZM169.109 84V82.376L169.067 82.11V79.394C169.067 78.7687 168.89 78.288 168.535 77.952C168.19 77.616 167.672 77.448 166.981 77.448C166.505 77.448 166.052 77.5273 165.623 77.686C165.194 77.8447 164.83 78.0547 164.531 78.316L164.083 77.574C164.456 77.2567 164.904 77.014 165.427 76.846C165.95 76.6687 166.5 76.58 167.079 76.58C168.031 76.58 168.764 76.818 169.277 77.294C169.8 77.7607 170.061 78.4747 170.061 79.436V84H169.109ZM166.575 84.07C166.024 84.07 165.544 83.9813 165.133 83.804C164.732 83.6173 164.424 83.3653 164.209 83.048C163.994 82.7213 163.887 82.348 163.887 81.928C163.887 81.5453 163.976 81.2 164.153 80.892C164.34 80.5747 164.638 80.3227 165.049 80.136C165.469 79.94 166.029 79.842 166.729 79.842H169.263V80.584H166.757C166.048 80.584 165.553 80.71 165.273 80.962C165.002 81.214 164.867 81.5267 164.867 81.9C164.867 82.32 165.03 82.656 165.357 82.908C165.684 83.16 166.141 83.286 166.729 83.286C167.289 83.286 167.77 83.16 168.171 82.908C168.582 82.6467 168.88 82.2733 169.067 81.788L169.291 82.474C169.104 82.9593 168.778 83.3467 168.311 83.636C167.854 83.9253 167.275 84.07 166.575 84.07ZM176.371 84V76.65H177.365V82.488L182.279 76.65H183.161V84H182.167V78.148L177.267 84H176.371ZM25.936 106.084C25.1987 106.084 24.5173 105.963 23.892 105.72C23.2667 105.468 22.7253 105.118 22.268 104.67C21.8107 104.222 21.4513 103.695 21.19 103.088C20.938 102.481 20.812 101.819 20.812 101.1C20.812 100.381 20.938 99.7187 21.19 99.112C21.4513 98.5053 21.8107 97.978 22.268 97.53C22.7347 97.082 23.2807 96.7367 23.906 96.494C24.5313 96.242 25.2127 96.116 25.95 96.116C26.6593 96.116 27.3267 96.2373 27.952 96.48C28.5773 96.7133 29.1047 97.068 29.534 97.544L28.876 98.202C28.4747 97.7913 28.0313 97.4973 27.546 97.32C27.0607 97.1333 26.538 97.04 25.978 97.04C25.39 97.04 24.844 97.1427 24.34 97.348C23.836 97.544 23.3973 97.8287 23.024 98.202C22.6507 98.566 22.3567 98.9953 22.142 99.49C21.9367 99.9753 21.834 100.512 21.834 101.1C21.834 101.688 21.9367 102.229 22.142 102.724C22.3567 103.209 22.6507 103.639 23.024 104.012C23.3973 104.376 23.836 104.661 24.34 104.866C24.844 105.062 25.39 105.16 25.978 105.16C26.538 105.16 27.0607 105.067 27.546 104.88C28.0313 104.693 28.4747 104.395 28.876 103.984L29.534 104.642C29.1047 105.118 28.5773 105.477 27.952 105.72C27.3267 105.963 26.6547 106.084 25.936 106.084ZM37.9237 105.51V97.096H33.2337L33.1497 99.476C33.1217 100.213 33.0751 100.923 33.0097 101.604C32.9537 102.276 32.8604 102.883 32.7297 103.424C32.6084 103.956 32.4404 104.39 32.2257 104.726C32.0204 105.062 31.7497 105.258 31.4137 105.314L30.2797 105.104C30.6531 105.123 30.9611 104.987 31.2037 104.698C31.4557 104.409 31.6471 104.003 31.7777 103.48C31.9177 102.957 32.0204 102.346 32.0857 101.646C32.1511 100.946 32.1977 100.19 32.2257 99.378L32.3377 96.2H38.9457V105.51H37.9237ZM29.9157 108.198L29.9297 105.104H40.4157V108.198H39.4497V106H30.8957L30.8817 108.198H29.9157ZM43.831 101.436V100.582H49.249V101.436H43.831ZM45.063 96.116C45.763 96.116 46.407 96.242 46.995 96.494C47.583 96.7367 48.0963 97.082 48.535 97.53C48.983 97.978 49.3283 98.5053 49.571 99.112C49.8136 99.7187 49.935 100.381 49.935 101.1C49.935 101.819 49.8136 102.481 49.571 103.088C49.3283 103.695 48.983 104.222 48.535 104.67C48.0963 105.118 47.583 105.468 46.995 105.72C46.407 105.963 45.763 106.084 45.063 106.084C44.3163 106.084 43.621 105.963 42.977 105.72C42.333 105.477 41.7963 105.118 41.367 104.642L42.011 103.984C42.4216 104.404 42.879 104.707 43.383 104.894C43.887 105.071 44.433 105.16 45.021 105.16C45.5716 105.16 46.0803 105.057 46.547 104.852C47.023 104.647 47.4336 104.362 47.779 103.998C48.1336 103.634 48.409 103.209 48.605 102.724C48.801 102.229 48.899 101.688 48.899 101.1C48.899 100.512 48.801 99.9753 48.605 99.49C48.409 98.9953 48.1336 98.566 47.779 98.202C47.4336 97.838 47.023 97.5533 46.547 97.348C46.0803 97.1427 45.5716 97.04 45.021 97.04C44.433 97.04 43.887 97.1333 43.383 97.32C42.879 97.5067 42.4216 97.8053 42.011 98.216L41.367 97.558C41.7963 97.082 42.333 96.7227 42.977 96.48C43.621 96.2373 44.3163 96.116 45.063 96.116ZM59.1197 106L55.3537 101.114L56.1937 100.61L60.3097 106H59.1197ZM52.4137 106V96.2H53.4217V106H52.4137ZM53.1137 101.506V100.596H56.1797V101.506H53.1137ZM56.2777 101.212L55.3257 101.044L58.9797 96.2H60.0997L56.2777 101.212ZM65.6699 106V98.65H72.2779V106H71.2839V99.252L71.5359 99.518H66.4119L66.6639 99.252V106H65.6699ZM78.1275 106.07C77.4181 106.07 76.7788 105.911 76.2095 105.594C75.6495 105.267 75.2061 104.824 74.8795 104.264C74.5528 103.695 74.3895 103.046 74.3895 102.318C74.3895 101.581 74.5528 100.932 74.8795 100.372C75.2061 99.812 75.6495 99.3733 76.2095 99.056C76.7695 98.7387 77.4088 98.58 78.1275 98.58C78.8555 98.58 79.4995 98.7387 80.0595 99.056C80.6288 99.3733 81.0721 99.812 81.3895 100.372C81.7161 100.932 81.8795 101.581 81.8795 102.318C81.8795 103.046 81.7161 103.695 81.3895 104.264C81.0721 104.824 80.6288 105.267 80.0595 105.594C79.4901 105.911 78.8461 106.07 78.1275 106.07ZM78.1275 105.188C78.6595 105.188 79.1308 105.071 79.5415 104.838C79.9521 104.595 80.2741 104.259 80.5075 103.83C80.7501 103.391 80.8715 102.887 80.8715 102.318C80.8715 101.739 80.7501 101.235 80.5075 100.806C80.2741 100.377 79.9521 100.045 79.5415 99.812C79.1308 99.5693 78.6641 99.448 78.1415 99.448C77.6188 99.448 77.1521 99.5693 76.7415 99.812C76.3308 100.045 76.0041 100.377 75.7615 100.806C75.5188 101.235 75.3975 101.739 75.3975 102.318C75.3975 102.887 75.5188 103.391 75.7615 103.83C76.0041 104.259 76.3308 104.595 76.7415 104.838C77.1521 105.071 77.6141 105.188 78.1275 105.188ZM87.6679 106V98.65H90.9159C91.7466 98.65 92.3999 98.8087 92.8759 99.126C93.3612 99.4433 93.6039 99.91 93.6039 100.526C93.6039 101.123 93.3752 101.585 92.9179 101.912C92.4606 102.229 91.8586 102.388 91.1119 102.388L91.3079 102.094C92.1852 102.094 92.8292 102.257 93.2399 102.584C93.6506 102.911 93.8559 103.382 93.8559 103.998C93.8559 104.633 93.6226 105.127 93.1559 105.482C92.6986 105.827 91.9846 106 91.0139 106H87.6679ZM88.6339 105.216H90.9719C91.5972 105.216 92.0686 105.118 92.3859 104.922C92.7126 104.717 92.8759 104.39 92.8759 103.942C92.8759 103.494 92.7312 103.167 92.4419 102.962C92.1526 102.757 91.6952 102.654 91.0699 102.654H88.6339V105.216ZM88.6339 101.912H90.8459C91.4152 101.912 91.8492 101.805 92.1479 101.59C92.4559 101.375 92.6099 101.063 92.6099 100.652C92.6099 100.241 92.4559 99.9333 92.1479 99.728C91.8492 99.5227 91.4152 99.42 90.8459 99.42H88.6339V101.912ZM99.2655 106.07C98.5375 106.07 97.8842 105.911 97.3055 105.594C96.7362 105.267 96.2882 104.824 95.9615 104.264C95.6348 103.695 95.4715 103.046 95.4715 102.318C95.4715 101.581 95.6348 100.932 95.9615 100.372C96.2882 99.812 96.7362 99.3733 97.3055 99.056C97.8842 98.7387 98.5375 98.58 99.2655 98.58C99.8908 98.58 100.455 98.7013 100.959 98.944C101.463 99.1867 101.86 99.5507 102.149 100.036L101.407 100.54C101.155 100.167 100.843 99.8913 100.469 99.714C100.096 99.5367 99.6902 99.448 99.2515 99.448C98.7288 99.448 98.2575 99.5693 97.8375 99.812C97.4175 100.045 97.0862 100.377 96.8435 100.806C96.6008 101.235 96.4795 101.739 96.4795 102.318C96.4795 102.897 96.6008 103.401 96.8435 103.83C97.0862 104.259 97.4175 104.595 97.8375 104.838C98.2575 105.071 98.7288 105.188 99.2515 105.188C99.6902 105.188 100.096 105.099 100.469 104.922C100.843 104.745 101.155 104.474 101.407 104.11L102.149 104.614C101.86 105.09 101.463 105.454 100.959 105.706C100.455 105.949 99.8908 106.07 99.2655 106.07ZM107.101 106.07C106.336 106.07 105.664 105.911 105.085 105.594C104.506 105.267 104.054 104.824 103.727 104.264C103.4 103.695 103.237 103.046 103.237 102.318C103.237 101.59 103.391 100.946 103.699 100.386C104.016 99.826 104.446 99.3873 104.987 99.07C105.538 98.7433 106.154 98.58 106.835 98.58C107.526 98.58 108.137 98.7387 108.669 99.056C109.21 99.364 109.635 99.8027 109.943 100.372C110.251 100.932 110.405 101.581 110.405 102.318C110.405 102.365 110.4 102.416 110.391 102.472C110.391 102.519 110.391 102.57 110.391 102.626H103.993V101.884H109.859L109.467 102.178C109.467 101.646 109.35 101.175 109.117 100.764C108.893 100.344 108.585 100.017 108.193 99.784C107.801 99.5507 107.348 99.434 106.835 99.434C106.331 99.434 105.878 99.5507 105.477 99.784C105.076 100.017 104.763 100.344 104.539 100.764C104.315 101.184 104.203 101.665 104.203 102.206V102.36C104.203 102.92 104.324 103.415 104.567 103.844C104.819 104.264 105.164 104.595 105.603 104.838C106.051 105.071 106.56 105.188 107.129 105.188C107.577 105.188 107.992 105.109 108.375 104.95C108.767 104.791 109.103 104.549 109.383 104.222L109.943 104.866C109.616 105.258 109.206 105.557 108.711 105.762C108.226 105.967 107.689 106.07 107.101 106.07ZM112.605 106V98.65H113.599V104.488L118.513 98.65H119.395V106H118.401V100.148L113.501 106H112.605ZM115.937 97.586C115.321 97.586 114.822 97.432 114.439 97.124C114.066 96.8067 113.87 96.354 113.851 95.766H114.565C114.575 96.1393 114.705 96.4333 114.957 96.648C115.209 96.8627 115.536 96.97 115.937 96.97C116.339 96.97 116.665 96.8627 116.917 96.648C117.179 96.4333 117.314 96.1393 117.323 95.766H118.037C118.028 96.354 117.832 96.8067 117.449 97.124C117.067 97.432 116.563 97.586 115.937 97.586ZM126.146 106V96.2H129.814C130.645 96.2 131.359 96.3353 131.956 96.606C132.553 96.8673 133.011 97.25 133.328 97.754C133.655 98.2487 133.818 98.8507 133.818 99.56C133.818 100.251 133.655 100.848 133.328 101.352C133.011 101.847 132.553 102.229 131.956 102.5C131.359 102.771 130.645 102.906 129.814 102.906H126.72L127.182 102.416V106H126.146ZM127.182 102.5L126.72 101.996H129.786C130.766 101.996 131.508 101.786 132.012 101.366C132.525 100.937 132.782 100.335 132.782 99.56C132.782 98.776 132.525 98.1693 132.012 97.74C131.508 97.3107 130.766 97.096 129.786 97.096H126.72L127.182 96.606V102.5ZM140.706 105.328C139.539 105.328 138.541 105.165 137.71 104.838C136.879 104.502 136.24 104.017 135.792 103.382C135.344 102.747 135.12 101.982 135.12 101.086C135.12 100.19 135.344 99.4293 135.792 98.804C136.24 98.1693 136.879 97.684 137.71 97.348C138.541 97.012 139.539 96.844 140.706 96.844C140.715 96.844 140.739 96.844 140.776 96.844C140.813 96.844 140.851 96.844 140.888 96.844C140.925 96.844 140.949 96.844 140.958 96.844C142.134 96.844 143.137 97.012 143.968 97.348C144.799 97.684 145.438 98.1693 145.886 98.804C146.334 99.4293 146.558 100.19 146.558 101.086C146.558 101.982 146.334 102.747 145.886 103.382C145.447 104.017 144.813 104.502 143.982 104.838C143.151 105.165 142.157 105.328 141 105.328C140.981 105.328 140.949 105.328 140.902 105.328C140.865 105.328 140.823 105.328 140.776 105.328C140.739 105.328 140.715 105.328 140.706 105.328ZM140.818 104.516C140.837 104.516 140.855 104.516 140.874 104.516C140.893 104.516 140.907 104.516 140.916 104.516C141.896 104.507 142.731 104.371 143.422 104.11C144.122 103.839 144.654 103.452 145.018 102.948C145.382 102.435 145.564 101.814 145.564 101.086C145.564 100.349 145.377 99.728 145.004 99.224C144.64 98.72 144.113 98.3373 143.422 98.076C142.741 97.8053 141.915 97.67 140.944 97.67C140.935 97.67 140.916 97.67 140.888 97.67C140.86 97.67 140.837 97.67 140.818 97.67C139.829 97.67 138.984 97.8007 138.284 98.062C137.584 98.3233 137.047 98.7107 136.674 99.224C136.301 99.728 136.114 100.349 136.114 101.086C136.114 101.833 136.301 102.463 136.674 102.976C137.057 103.48 137.598 103.863 138.298 104.124C139.007 104.385 139.847 104.516 140.818 104.516ZM140.356 106.336V95.864H141.322V106.336H140.356Z" fill="#141414"/>
</svg>
