<svg width="328" height="84" viewBox="0 0 328 84" fill="none" xmlns="http://www.w3.org/2000/svg">
<rect x="0.5" y="0.5" width="327" height="83" stroke="#DCE3EB"/>
<path d="M36 46C38.2092 46 40 44.2092 40 42C40 39.7909 38.2092 38 36 38C33.7909 38 32 39.7909 32 42C32 44.2092 33.7909 46 36 46Z" stroke="#29A1F8" stroke-width="2" stroke-linecap="round" stroke-linejoin="round"/>
<path d="M44.9697 45.6364C44.8084 46.002 44.7602 46.4075 44.8315 46.8007C44.9028 47.1939 45.0903 47.5568 45.3697 47.8424L45.4424 47.9152C45.6678 48.1403 45.8467 48.4077 45.9686 48.702C46.0906 48.9963 46.1534 49.3117 46.1534 49.6303C46.1534 49.9489 46.0906 50.2644 45.9686 50.5587C45.8467 50.853 45.6678 51.1203 45.4424 51.3455C45.2173 51.5709 44.9499 51.7497 44.6556 51.8717C44.3613 51.9937 44.0459 52.0565 43.7273 52.0565C43.4087 52.0565 43.0933 51.9937 42.799 51.8717C42.5047 51.7497 42.2373 51.5709 42.0121 51.3455L41.9394 51.2727C41.6537 50.9933 41.2909 50.8059 40.8977 50.7346C40.5045 50.6633 40.0989 50.7114 39.7334 50.8727C39.3748 51.0264 39.0691 51.2815 38.8537 51.6067C38.6384 51.9319 38.5228 52.313 38.5212 52.703V52.9091C38.5212 53.5521 38.2658 54.1687 37.8112 54.6233C37.3566 55.0779 36.7399 55.3334 36.097 55.3334C35.454 55.3334 34.8374 55.0779 34.3828 54.6233C33.9282 54.1687 33.6727 53.5521 33.6727 52.9091V52.8C33.6634 52.3988 33.5335 52.0097 33.3 51.6833C33.0666 51.3569 32.7403 51.1082 32.3637 50.9697C31.9981 50.8084 31.5925 50.7602 31.1993 50.8315C30.8061 50.9028 30.4433 51.0903 30.1576 51.3697L30.0849 51.4424C29.8597 51.6678 29.5924 51.8467 29.2981 51.9686C29.0038 52.0906 28.6883 52.1534 28.3697 52.1534C28.0511 52.1534 27.7357 52.0906 27.4414 51.9686C27.1471 51.8467 26.8797 51.6678 26.6546 51.4424C26.4292 51.2173 26.2504 50.9499 26.1284 50.6556C26.0064 50.3613 25.9436 50.0459 25.9436 49.7273C25.9436 49.4087 26.0064 49.0933 26.1284 48.799C26.2504 48.5047 26.4292 48.2373 26.6546 48.0121L26.7273 47.9394C27.0067 47.6537 27.1942 47.2909 27.2655 46.8977C27.3368 46.5045 27.2886 46.0989 27.1273 45.7334C26.9736 45.3748 26.7185 45.0691 26.3933 44.8537C26.0681 44.6384 25.687 44.5228 25.297 44.5212H25.0909C24.448 44.5212 23.8314 44.2658 23.3767 43.8112C22.9221 43.3566 22.6667 42.7399 22.6667 42.097C22.6667 41.454 22.9221 40.8374 23.3767 40.3828C23.8314 39.9282 24.448 39.6727 25.0909 39.6727H25.2C25.6012 39.6634 25.9903 39.5335 26.3167 39.3C26.6432 39.0666 26.8918 38.7403 27.0303 38.3637C27.1917 37.9981 27.2398 37.5925 27.1685 37.1993C27.0972 36.8061 26.9098 36.4433 26.6303 36.1576L26.5576 36.0849C26.3322 35.8597 26.1534 35.5924 26.0314 35.2981C25.9094 35.0038 25.8466 34.6883 25.8466 34.3697C25.8466 34.0511 25.9094 33.7357 26.0314 33.4414C26.1534 33.1471 26.3322 32.8797 26.5576 32.6546C26.7827 32.4292 27.0501 32.2504 27.3444 32.1284C27.6387 32.0064 27.9542 31.9436 28.2727 31.9436C28.5913 31.9436 28.9068 32.0064 29.2011 32.1284C29.4954 32.2504 29.7628 32.4292 29.9879 32.6546L30.0606 32.7273C30.3463 33.0067 30.7091 33.1942 31.1023 33.2655C31.4955 33.3368 31.9011 33.2886 32.2667 33.1273H32.3637C32.7222 32.9736 33.0279 32.7185 33.2433 32.3933C33.4586 32.0681 33.5742 31.687 33.5758 31.297V31.0909C33.5758 30.448 33.8312 29.8314 34.2858 29.3767C34.7405 28.9221 35.3571 28.6667 36 28.6667C36.643 28.6667 37.2596 28.9221 37.7142 29.3767C38.1689 29.8314 38.4243 30.448 38.4243 31.0909V31.2C38.4258 31.5901 38.5414 31.9711 38.7568 32.2963C38.9721 32.6215 39.2779 32.8767 39.6364 33.0303C40.002 33.1917 40.4075 33.2398 40.8007 33.1685C41.1939 33.0972 41.5568 32.9098 41.8424 32.6303L41.9152 32.5576C42.1403 32.3322 42.4077 32.1534 42.702 32.0314C42.9963 31.9094 43.3117 31.8466 43.6303 31.8466C43.9489 31.8466 44.2644 31.9094 44.5587 32.0314C44.853 32.1534 45.1203 32.3322 45.3455 32.5576C45.5709 32.7827 45.7497 33.0501 45.8717 33.3444C45.9937 33.6387 46.0565 33.9542 46.0565 34.2727C46.0565 34.5913 45.9937 34.9068 45.8717 35.2011C45.7497 35.4954 45.5709 35.7628 45.3455 35.9879L45.2727 36.0606C44.9933 36.3463 44.8059 36.7091 44.7346 37.1023C44.6633 37.4955 44.7114 37.9011 44.8727 38.2667V38.3637C45.0264 38.7222 45.2815 39.0279 45.6067 39.2433C45.9319 39.4586 46.313 39.5742 46.703 39.5758H46.9091C47.5521 39.5758 48.1687 39.8312 48.6233 40.2858C49.0779 40.7405 49.3334 41.3571 49.3334 42C49.3334 42.643 49.0779 43.2596 48.6233 43.7142C48.1687 44.1689 47.5521 44.4243 46.9091 44.4243H46.8C46.41 44.4258 46.0289 44.5414 45.7037 44.7568C45.3785 44.9721 45.1234 45.2779 44.9697 45.6364Z" stroke="#29A1F8" stroke-width="2" stroke-linecap="round" stroke-linejoin="round"/>
<path d="M73.936 36.084C73.1987 36.084 72.5173 35.9627 71.892 35.72C71.2667 35.468 70.7253 35.118 70.268 34.67C69.8107 34.222 69.4513 33.6947 69.19 33.088C68.938 32.4813 68.812 31.8187 68.812 31.1C68.812 30.3813 68.938 29.7187 69.19 29.112C69.4513 28.5053 69.8107 27.978 70.268 27.53C70.7347 27.082 71.2807 26.7367 71.906 26.494C72.5313 26.242 73.2127 26.116 73.95 26.116C74.6593 26.116 75.3267 26.2373 75.952 26.48C76.5773 26.7133 77.1047 27.068 77.534 27.544L76.876 28.202C76.4747 27.7913 76.0313 27.4973 75.546 27.32C75.0607 27.1333 74.538 27.04 73.978 27.04C73.39 27.04 72.844 27.1427 72.34 27.348C71.836 27.544 71.3973 27.8287 71.024 28.202C70.6507 28.566 70.3567 28.9953 70.142 29.49C69.9367 29.9753 69.834 30.512 69.834 31.1C69.834 31.688 69.9367 32.2293 70.142 32.724C70.3567 33.2093 70.6507 33.6387 71.024 34.012C71.3973 34.376 71.836 34.6607 72.34 34.866C72.844 35.062 73.39 35.16 73.978 35.16C74.538 35.16 75.0607 35.0667 75.546 34.88C76.0313 34.6933 76.4747 34.3947 76.876 33.984L77.534 34.642C77.1047 35.118 76.5773 35.4773 75.952 35.72C75.3267 35.9627 74.6547 36.084 73.936 36.084ZM82.1314 36.07C81.422 36.07 80.7827 35.9113 80.2134 35.594C79.6534 35.2673 79.21 34.824 78.8834 34.264C78.5567 33.6947 78.3934 33.046 78.3934 32.318C78.3934 31.5807 78.5567 30.932 78.8834 30.372C79.21 29.812 79.6534 29.3733 80.2134 29.056C80.7734 28.7387 81.4127 28.58 82.1314 28.58C82.8594 28.58 83.5034 28.7387 84.0634 29.056C84.6327 29.3733 85.076 29.812 85.3934 30.372C85.72 30.932 85.8834 31.5807 85.8834 32.318C85.8834 33.046 85.72 33.6947 85.3934 34.264C85.076 34.824 84.6327 35.2673 84.0634 35.594C83.494 35.9113 82.85 36.07 82.1314 36.07ZM82.1314 35.188C82.6634 35.188 83.1347 35.0713 83.5454 34.838C83.956 34.5953 84.278 34.2593 84.5114 33.83C84.754 33.3913 84.8754 32.8873 84.8754 32.318C84.8754 31.7393 84.754 31.2353 84.5114 30.806C84.278 30.3767 83.956 30.0453 83.5454 29.812C83.1347 29.5693 82.668 29.448 82.1454 29.448C81.6227 29.448 81.156 29.5693 80.7454 29.812C80.3347 30.0453 80.008 30.3767 79.7654 30.806C79.5227 31.2353 79.4014 31.7393 79.4014 32.318C79.4014 32.8873 79.5227 33.3913 79.7654 33.83C80.008 34.2593 80.3347 34.5953 80.7454 34.838C81.156 35.0713 81.618 35.188 82.1314 35.188ZM91.3118 36.084C90.7144 36.084 90.1824 35.986 89.7158 35.79C89.2584 35.594 88.8664 35.2953 88.5398 34.894C88.2131 34.4927 87.9658 33.998 87.7978 33.41C87.6298 32.8127 87.5458 32.122 87.5458 31.338C87.5458 30.638 87.6111 30.0267 87.7418 29.504C87.8724 28.972 88.0544 28.5147 88.2878 28.132C88.5211 27.7493 88.7918 27.4273 89.0998 27.166C89.4171 26.8953 89.7578 26.6807 90.1218 26.522C90.4951 26.354 90.8778 26.228 91.2698 26.144L94.5738 25.374L94.7418 26.298L91.6338 26.998C91.4378 27.0447 91.1998 27.11 90.9198 27.194C90.6491 27.278 90.3691 27.404 90.0798 27.572C89.7998 27.74 89.5384 27.9733 89.2958 28.272C89.0531 28.5707 88.8571 28.958 88.7078 29.434C88.5678 29.9007 88.4978 30.484 88.4978 31.184C88.4978 31.3333 88.5024 31.4547 88.5118 31.548C88.5211 31.632 88.5304 31.7253 88.5398 31.828C88.5584 31.9213 88.5724 32.0613 88.5818 32.248L88.1478 31.884C88.2504 31.3147 88.4604 30.82 88.7778 30.4C89.0951 29.9707 89.4918 29.6393 89.9678 29.406C90.4531 29.1633 90.9898 29.042 91.5778 29.042C92.2591 29.042 92.8658 29.1913 93.3978 29.49C93.9298 29.7793 94.3451 30.1853 94.6438 30.708C94.9518 31.2307 95.1058 31.8373 95.1058 32.528C95.1058 33.2093 94.9471 33.8207 94.6298 34.362C94.3218 34.9033 93.8831 35.328 93.3138 35.636C92.7444 35.9347 92.0771 36.084 91.3118 36.084ZM91.4238 35.258C91.9464 35.258 92.4084 35.1413 92.8098 34.908C93.2111 34.6653 93.5238 34.3387 93.7478 33.928C93.9811 33.5173 94.0978 33.0553 94.0978 32.542C94.0978 32.038 93.9811 31.59 93.7478 31.198C93.5238 30.806 93.2111 30.498 92.8098 30.274C92.4084 30.0407 91.9418 29.924 91.4098 29.924C90.8871 29.924 90.4251 30.036 90.0238 30.26C89.6224 30.4747 89.3051 30.778 89.0718 31.17C88.8478 31.562 88.7358 32.0147 88.7358 32.528C88.7358 33.0413 88.8478 33.5033 89.0718 33.914C89.3051 34.3247 89.6224 34.6513 90.0238 34.894C90.4344 35.1367 90.9011 35.258 91.4238 35.258ZM100.316 36.07C99.5883 36.07 98.9349 35.9113 98.3563 35.594C97.7869 35.2673 97.3389 34.824 97.0123 34.264C96.6856 33.6947 96.5223 33.046 96.5223 32.318C96.5223 31.5807 96.6856 30.932 97.0123 30.372C97.3389 29.812 97.7869 29.3733 98.3563 29.056C98.9349 28.7387 99.5883 28.58 100.316 28.58C100.942 28.58 101.506 28.7013 102.01 28.944C102.514 29.1867 102.911 29.5507 103.2 30.036L102.458 30.54C102.206 30.1667 101.894 29.8913 101.52 29.714C101.147 29.5367 100.741 29.448 100.302 29.448C99.7796 29.448 99.3083 29.5693 98.8883 29.812C98.4683 30.0453 98.1369 30.3767 97.8943 30.806C97.6516 31.2353 97.5303 31.7393 97.5303 32.318C97.5303 32.8967 97.6516 33.4007 97.8943 33.83C98.1369 34.2593 98.4683 34.5953 98.8883 34.838C99.3083 35.0713 99.7796 35.188 100.302 35.188C100.741 35.188 101.147 35.0993 101.52 34.922C101.894 34.7447 102.206 34.474 102.458 34.11L103.2 34.614C102.911 35.09 102.514 35.454 102.01 35.706C101.506 35.9487 100.942 36.07 100.316 36.07ZM106.388 36V29.252L106.64 29.518H103.602V28.65H110.168V29.518H107.13L107.382 29.252V36H106.388ZM111.605 36V28.65H114.853C115.684 28.65 116.337 28.8087 116.813 29.126C117.299 29.4433 117.541 29.91 117.541 30.526C117.541 31.1233 117.313 31.5853 116.855 31.912C116.398 32.2293 115.796 32.388 115.049 32.388L115.245 32.094C116.123 32.094 116.767 32.2573 117.177 32.584C117.588 32.9107 117.793 33.382 117.793 33.998C117.793 34.6327 117.56 35.1273 117.093 35.482C116.636 35.8273 115.922 36 114.951 36H111.605ZM112.571 35.216H114.909C115.535 35.216 116.006 35.118 116.323 34.922C116.65 34.7167 116.813 34.39 116.813 33.942C116.813 33.494 116.669 33.1673 116.379 32.962C116.09 32.7567 115.633 32.654 115.007 32.654H112.571V35.216ZM112.571 31.912H114.783C115.353 31.912 115.787 31.8047 116.085 31.59C116.393 31.3753 116.547 31.0627 116.547 30.652C116.547 30.2413 116.393 29.9333 116.085 29.728C115.787 29.5227 115.353 29.42 114.783 29.42H112.571V31.912ZM123.273 36.07C122.508 36.07 121.836 35.9113 121.257 35.594C120.678 35.2673 120.226 34.824 119.899 34.264C119.572 33.6947 119.409 33.046 119.409 32.318C119.409 31.59 119.563 30.946 119.871 30.386C120.188 29.826 120.618 29.3873 121.159 29.07C121.71 28.7433 122.326 28.58 123.007 28.58C123.698 28.58 124.309 28.7387 124.841 29.056C125.382 29.364 125.807 29.8027 126.115 30.372C126.423 30.932 126.577 31.5807 126.577 32.318C126.577 32.3647 126.572 32.416 126.563 32.472C126.563 32.5187 126.563 32.57 126.563 32.626H120.165V31.884H126.031L125.639 32.178C125.639 31.646 125.522 31.1747 125.289 30.764C125.065 30.344 124.757 30.0173 124.365 29.784C123.973 29.5507 123.52 29.434 123.007 29.434C122.503 29.434 122.05 29.5507 121.649 29.784C121.248 30.0173 120.935 30.344 120.711 30.764C120.487 31.184 120.375 31.6647 120.375 32.206V32.36C120.375 32.92 120.496 33.4147 120.739 33.844C120.991 34.264 121.336 34.5953 121.775 34.838C122.223 35.0713 122.732 35.188 123.301 35.188C123.749 35.188 124.164 35.1087 124.547 34.95C124.939 34.7913 125.275 34.5487 125.555 34.222L126.115 34.866C125.788 35.258 125.378 35.5567 124.883 35.762C124.398 35.9673 123.861 36.07 123.273 36.07ZM128.777 36V28.65H129.771V31.898H134.405V28.65H135.399V36H134.405V32.752H129.771V36H128.777ZM138.225 36V28.65H139.219V31.898H143.853V28.65H144.847V36H143.853V32.752H139.219V36H138.225ZM150.696 36.07C149.986 36.07 149.347 35.9113 148.778 35.594C148.218 35.2673 147.774 34.824 147.448 34.264C147.121 33.6947 146.958 33.046 146.958 32.318C146.958 31.5807 147.121 30.932 147.448 30.372C147.774 29.812 148.218 29.3733 148.778 29.056C149.338 28.7387 149.977 28.58 150.696 28.58C151.424 28.58 152.068 28.7387 152.628 29.056C153.197 29.3733 153.64 29.812 153.958 30.372C154.284 30.932 154.448 31.5807 154.448 32.318C154.448 33.046 154.284 33.6947 153.958 34.264C153.64 34.824 153.197 35.2673 152.628 35.594C152.058 35.9113 151.414 36.07 150.696 36.07ZM150.696 35.188C151.228 35.188 151.699 35.0713 152.11 34.838C152.52 34.5953 152.842 34.2593 153.076 33.83C153.318 33.3913 153.44 32.8873 153.44 32.318C153.44 31.7393 153.318 31.2353 153.076 30.806C152.842 30.3767 152.52 30.0453 152.11 29.812C151.699 29.5693 151.232 29.448 150.71 29.448C150.187 29.448 149.72 29.5693 149.31 29.812C148.899 30.0453 148.572 30.3767 148.33 30.806C148.087 31.2353 147.966 31.7393 147.966 32.318C147.966 32.8873 148.087 33.3913 148.33 33.83C148.572 34.2593 148.899 34.5953 149.31 34.838C149.72 35.0713 150.182 35.188 150.696 35.188ZM159.722 36.07C158.957 36.07 158.285 35.9113 157.706 35.594C157.128 35.2673 156.675 34.824 156.348 34.264C156.022 33.6947 155.858 33.046 155.858 32.318C155.858 31.59 156.012 30.946 156.32 30.386C156.638 29.826 157.067 29.3873 157.608 29.07C158.159 28.7433 158.775 28.58 159.456 28.58C160.147 28.58 160.758 28.7387 161.29 29.056C161.832 29.364 162.256 29.8027 162.564 30.372C162.872 30.932 163.026 31.5807 163.026 32.318C163.026 32.3647 163.022 32.416 163.012 32.472C163.012 32.5187 163.012 32.57 163.012 32.626H156.614V31.884H162.48L162.088 32.178C162.088 31.646 161.972 31.1747 161.738 30.764C161.514 30.344 161.206 30.0173 160.814 29.784C160.422 29.5507 159.97 29.434 159.456 29.434C158.952 29.434 158.5 29.5507 158.098 29.784C157.697 30.0173 157.384 30.344 157.16 30.764C156.936 31.184 156.824 31.6647 156.824 32.206V32.36C156.824 32.92 156.946 33.4147 157.188 33.844C157.44 34.264 157.786 34.5953 158.224 34.838C158.672 35.0713 159.181 35.188 159.75 35.188C160.198 35.188 160.614 35.1087 160.996 34.95C161.388 34.7913 161.724 34.5487 162.004 34.222L162.564 34.866C162.238 35.258 161.827 35.5567 161.332 35.762C160.847 35.9673 160.31 36.07 159.722 36.07ZM168.891 36V28.65H175.499V36H174.505V29.252L174.757 29.518H169.633L169.885 29.252V36H168.891ZM182.118 36.07C181.483 36.07 180.909 35.9253 180.396 35.636C179.883 35.3373 179.472 34.9127 179.164 34.362C178.865 33.802 178.716 33.1207 178.716 32.318C178.716 31.5153 178.865 30.8387 179.164 30.288C179.463 29.728 179.869 29.3033 180.382 29.014C180.895 28.7247 181.474 28.58 182.118 28.58C182.818 28.58 183.443 28.7387 183.994 29.056C184.554 29.364 184.993 29.8027 185.31 30.372C185.627 30.932 185.786 31.5807 185.786 32.318C185.786 33.0647 185.627 33.718 185.31 34.278C184.993 34.838 184.554 35.2767 183.994 35.594C183.443 35.9113 182.818 36.07 182.118 36.07ZM178.324 38.716V28.65H179.276V30.862L179.178 32.332L179.318 33.816V38.716H178.324ZM182.048 35.188C182.571 35.188 183.037 35.0713 183.448 34.838C183.859 34.5953 184.185 34.2593 184.428 33.83C184.671 33.3913 184.792 32.8873 184.792 32.318C184.792 31.7487 184.671 31.2493 184.428 30.82C184.185 30.3907 183.859 30.0547 183.448 29.812C183.037 29.5693 182.571 29.448 182.048 29.448C181.525 29.448 181.054 29.5693 180.634 29.812C180.223 30.0547 179.897 30.3907 179.654 30.82C179.421 31.2493 179.304 31.7487 179.304 32.318C179.304 32.8873 179.421 33.3913 179.654 33.83C179.897 34.2593 180.223 34.5953 180.634 34.838C181.054 35.0713 181.525 35.188 182.048 35.188ZM190.946 36.07C190.236 36.07 189.597 35.9113 189.028 35.594C188.468 35.2673 188.024 34.824 187.698 34.264C187.371 33.6947 187.208 33.046 187.208 32.318C187.208 31.5807 187.371 30.932 187.698 30.372C188.024 29.812 188.468 29.3733 189.028 29.056C189.588 28.7387 190.227 28.58 190.946 28.58C191.674 28.58 192.318 28.7387 192.878 29.056C193.447 29.3733 193.89 29.812 194.208 30.372C194.534 30.932 194.698 31.5807 194.698 32.318C194.698 33.046 194.534 33.6947 194.208 34.264C193.89 34.824 193.447 35.2673 192.878 35.594C192.308 35.9113 191.664 36.07 190.946 36.07ZM190.946 35.188C191.478 35.188 191.949 35.0713 192.36 34.838C192.77 34.5953 193.092 34.2593 193.326 33.83C193.568 33.3913 193.69 32.8873 193.69 32.318C193.69 31.7393 193.568 31.2353 193.326 30.806C193.092 30.3767 192.77 30.0453 192.36 29.812C191.949 29.5693 191.482 29.448 190.96 29.448C190.437 29.448 189.97 29.5693 189.56 29.812C189.149 30.0453 188.822 30.3767 188.58 30.806C188.337 31.2353 188.216 31.7393 188.216 32.318C188.216 32.8873 188.337 33.3913 188.58 33.83C188.822 34.2593 189.149 34.5953 189.56 34.838C189.97 35.0713 190.432 35.188 190.946 35.188ZM196.822 36V28.65H197.816V34.488L202.73 28.65H203.612V36H202.618V30.148L197.718 36H196.822ZM208.284 36.084C207.752 36.084 207.225 36.0093 206.702 35.86C206.18 35.7107 205.718 35.482 205.316 35.174L205.638 34.432C205.993 34.6933 206.404 34.894 206.87 35.034C207.337 35.1647 207.799 35.23 208.256 35.23C208.714 35.2207 209.11 35.1553 209.446 35.034C209.782 34.9127 210.044 34.7447 210.23 34.53C210.417 34.3153 210.51 34.0727 210.51 33.802C210.51 33.41 210.333 33.1067 209.978 32.892C209.624 32.668 209.138 32.556 208.522 32.556H207.262V31.828H208.452C208.816 31.828 209.138 31.7813 209.418 31.688C209.698 31.5947 209.913 31.4593 210.062 31.282C210.221 31.1047 210.3 30.8947 210.3 30.652C210.3 30.3907 210.207 30.1667 210.02 29.98C209.843 29.7933 209.596 29.6533 209.278 29.56C208.961 29.4667 208.602 29.42 208.2 29.42C207.836 29.4293 207.458 29.4853 207.066 29.588C206.674 29.6813 206.287 29.826 205.904 30.022L205.624 29.252C206.054 29.028 206.478 28.86 206.898 28.748C207.328 28.6267 207.757 28.566 208.186 28.566C208.774 28.5473 209.302 28.6173 209.768 28.776C210.244 28.9347 210.622 29.1633 210.902 29.462C211.182 29.7513 211.322 30.1013 211.322 30.512C211.322 30.876 211.21 31.1933 210.986 31.464C210.762 31.7347 210.464 31.9447 210.09 32.094C209.717 32.2433 209.292 32.318 208.816 32.318L208.858 32.052C209.698 32.052 210.352 32.2153 210.818 32.542C211.294 32.8687 211.532 33.312 211.532 33.872C211.532 34.3107 211.388 34.698 211.098 35.034C210.809 35.3607 210.417 35.6173 209.922 35.804C209.437 35.9907 208.891 36.084 208.284 36.084ZM213.789 36V28.65H217.037C217.868 28.65 218.521 28.8087 218.997 29.126C219.482 29.4433 219.725 29.91 219.725 30.526C219.725 31.1233 219.496 31.5853 219.039 31.912C218.582 32.2293 217.98 32.388 217.233 32.388L217.429 32.094C218.306 32.094 218.95 32.2573 219.361 32.584C219.772 32.9107 219.977 33.382 219.977 33.998C219.977 34.6327 219.744 35.1273 219.277 35.482C218.82 35.8273 218.106 36 217.135 36H213.789ZM214.755 35.216H217.093C217.718 35.216 218.19 35.118 218.507 34.922C218.834 34.7167 218.997 34.39 218.997 33.942C218.997 33.494 218.852 33.1673 218.563 32.962C218.274 32.7567 217.816 32.654 217.191 32.654H214.755V35.216ZM214.755 31.912H216.967C217.536 31.912 217.97 31.8047 218.269 31.59C218.577 31.3753 218.731 31.0627 218.731 30.652C218.731 30.2413 218.577 29.9333 218.269 29.728C217.97 29.5227 217.536 29.42 216.967 29.42H214.755V31.912ZM225.331 36.07C224.621 36.07 223.982 35.9113 223.413 35.594C222.853 35.2673 222.409 34.824 222.083 34.264C221.756 33.6947 221.593 33.046 221.593 32.318C221.593 31.5807 221.756 30.932 222.083 30.372C222.409 29.812 222.853 29.3733 223.413 29.056C223.973 28.7387 224.612 28.58 225.331 28.58C226.059 28.58 226.703 28.7387 227.263 29.056C227.832 29.3733 228.275 29.812 228.593 30.372C228.919 30.932 229.083 31.5807 229.083 32.318C229.083 33.046 228.919 33.6947 228.593 34.264C228.275 34.824 227.832 35.2673 227.263 35.594C226.693 35.9113 226.049 36.07 225.331 36.07ZM225.331 35.188C225.863 35.188 226.334 35.0713 226.745 34.838C227.155 34.5953 227.477 34.2593 227.711 33.83C227.953 33.3913 228.075 32.8873 228.075 32.318C228.075 31.7393 227.953 31.2353 227.711 30.806C227.477 30.3767 227.155 30.0453 226.745 29.812C226.334 29.5693 225.867 29.448 225.345 29.448C224.822 29.448 224.355 29.5693 223.945 29.812C223.534 30.0453 223.207 30.3767 222.965 30.806C222.722 31.2353 222.601 31.7393 222.601 32.318C222.601 32.8873 222.722 33.3913 222.965 33.83C223.207 34.2593 223.534 34.5953 223.945 34.838C224.355 35.0713 224.817 35.188 225.331 35.188ZM236.206 35.524V29.518H232.664L232.58 31.156C232.561 31.6507 232.529 32.136 232.482 32.612C232.445 33.088 232.375 33.5267 232.272 33.928C232.179 34.32 232.043 34.642 231.866 34.894C231.689 35.1367 231.46 35.2767 231.18 35.314L230.186 35.132C230.475 35.1413 230.713 35.0387 230.9 34.824C231.087 34.6 231.231 34.2967 231.334 33.914C231.437 33.5313 231.511 33.0973 231.558 32.612C231.605 32.1173 231.642 31.6133 231.67 31.1L231.768 28.65H237.2V35.524H236.206ZM229.878 37.778V35.132H238.348V37.778H237.41V36H230.816V37.778H229.878ZM243.365 36.07C242.637 36.07 241.984 35.9113 241.405 35.594C240.836 35.2673 240.388 34.824 240.061 34.264C239.734 33.6947 239.571 33.046 239.571 32.318C239.571 31.5807 239.734 30.932 240.061 30.372C240.388 29.812 240.836 29.3733 241.405 29.056C241.984 28.7387 242.637 28.58 243.365 28.58C243.99 28.58 244.555 28.7013 245.059 28.944C245.563 29.1867 245.96 29.5507 246.249 30.036L245.507 30.54C245.255 30.1667 244.942 29.8913 244.569 29.714C244.196 29.5367 243.79 29.448 243.351 29.448C242.828 29.448 242.357 29.5693 241.937 29.812C241.517 30.0453 241.186 30.3767 240.943 30.806C240.7 31.2353 240.579 31.7393 240.579 32.318C240.579 32.8967 240.7 33.4007 240.943 33.83C241.186 34.2593 241.517 34.5953 241.937 34.838C242.357 35.0713 242.828 35.188 243.351 35.188C243.79 35.188 244.196 35.0993 244.569 34.922C244.942 34.7447 245.255 34.474 245.507 34.11L246.249 34.614C245.96 35.09 245.563 35.454 245.059 35.706C244.555 35.9487 243.99 36.07 243.365 36.07ZM249.437 36V29.252L249.689 29.518H246.651V28.65H253.217V29.518H250.179L250.431 29.252V36H249.437ZM254.654 36V28.65H257.902C258.733 28.65 259.386 28.8087 259.862 29.126C260.348 29.4433 260.59 29.91 260.59 30.526C260.59 31.1233 260.362 31.5853 259.904 31.912C259.447 32.2293 258.845 32.388 258.098 32.388L258.294 32.094C259.172 32.094 259.816 32.2573 260.226 32.584C260.637 32.9107 260.842 33.382 260.842 33.998C260.842 34.6327 260.609 35.1273 260.142 35.482C259.685 35.8273 258.971 36 258 36H254.654ZM255.62 35.216H257.958C258.584 35.216 259.055 35.118 259.372 34.922C259.699 34.7167 259.862 34.39 259.862 33.942C259.862 33.494 259.718 33.1673 259.428 32.962C259.139 32.7567 258.682 32.654 258.056 32.654H255.62V35.216ZM255.62 31.912H257.832C258.402 31.912 258.836 31.8047 259.134 31.59C259.442 31.3753 259.596 31.0627 259.596 30.652C259.596 30.2413 259.442 29.9333 259.134 29.728C258.836 29.5227 258.402 29.42 257.832 29.42H255.62V31.912ZM266.196 36.07C265.486 36.07 264.847 35.9113 264.278 35.594C263.718 35.2673 263.274 34.824 262.948 34.264C262.621 33.6947 262.458 33.046 262.458 32.318C262.458 31.5807 262.621 30.932 262.948 30.372C263.274 29.812 263.718 29.3733 264.278 29.056C264.838 28.7387 265.477 28.58 266.196 28.58C266.924 28.58 267.568 28.7387 268.128 29.056C268.697 29.3733 269.14 29.812 269.458 30.372C269.784 30.932 269.948 31.5807 269.948 32.318C269.948 33.046 269.784 33.6947 269.458 34.264C269.14 34.824 268.697 35.2673 268.128 35.594C267.558 35.9113 266.914 36.07 266.196 36.07ZM266.196 35.188C266.728 35.188 267.199 35.0713 267.61 34.838C268.02 34.5953 268.342 34.2593 268.576 33.83C268.818 33.3913 268.94 32.8873 268.94 32.318C268.94 31.7393 268.818 31.2353 268.576 30.806C268.342 30.3767 268.02 30.0453 267.61 29.812C267.199 29.5693 266.732 29.448 266.21 29.448C265.687 29.448 265.22 29.5693 264.81 29.812C264.399 30.0453 264.072 30.3767 263.83 30.806C263.587 31.2353 263.466 31.7393 263.466 32.318C263.466 32.8873 263.587 33.3913 263.83 33.83C264.072 34.2593 264.399 34.5953 264.81 34.838C265.22 35.0713 265.682 35.188 266.196 35.188ZM72.718 58.084C72.1207 58.084 71.5887 57.986 71.122 57.79C70.6647 57.594 70.2727 57.2953 69.946 56.894C69.6193 56.4927 69.372 55.998 69.204 55.41C69.036 54.8127 68.952 54.122 68.952 53.338C68.952 52.638 69.0173 52.0267 69.148 51.504C69.2787 50.972 69.4607 50.5147 69.694 50.132C69.9273 49.7493 70.198 49.4273 70.506 49.166C70.8233 48.8953 71.164 48.6807 71.528 48.522C71.9013 48.354 72.284 48.228 72.676 48.144L75.98 47.374L76.148 48.298L73.04 48.998C72.844 49.0447 72.606 49.11 72.326 49.194C72.0553 49.278 71.7753 49.404 71.486 49.572C71.206 49.74 70.9447 49.9733 70.702 50.272C70.4593 50.5707 70.2633 50.958 70.114 51.434C69.974 51.9007 69.904 52.484 69.904 53.184C69.904 53.3333 69.9087 53.4547 69.918 53.548C69.9273 53.632 69.9367 53.7253 69.946 53.828C69.9647 53.9213 69.9787 54.0613 69.988 54.248L69.554 53.884C69.6567 53.3147 69.8667 52.82 70.184 52.4C70.5013 51.9707 70.898 51.6393 71.374 51.406C71.8593 51.1633 72.396 51.042 72.984 51.042C73.6653 51.042 74.272 51.1913 74.804 51.49C75.336 51.7793 75.7513 52.1853 76.05 52.708C76.358 53.2307 76.512 53.8373 76.512 54.528C76.512 55.2093 76.3533 55.8207 76.036 56.362C75.728 56.9033 75.2893 57.328 74.72 57.636C74.1507 57.9347 73.4833 58.084 72.718 58.084ZM72.83 57.258C73.3527 57.258 73.8147 57.1413 74.216 56.908C74.6173 56.6653 74.93 56.3387 75.154 55.928C75.3873 55.5173 75.504 55.0553 75.504 54.542C75.504 54.038 75.3873 53.59 75.154 53.198C74.93 52.806 74.6173 52.498 74.216 52.274C73.8147 52.0407 73.348 51.924 72.816 51.924C72.2933 51.924 71.8313 52.036 71.43 52.26C71.0287 52.4747 70.7113 52.778 70.478 53.17C70.254 53.562 70.142 54.0147 70.142 54.528C70.142 55.0413 70.254 55.5033 70.478 55.914C70.7113 56.3247 71.0287 56.6513 71.43 56.894C71.8407 57.1367 72.3073 57.258 72.83 57.258ZM81.7925 58.07C81.0272 58.07 80.3552 57.9113 79.7765 57.594C79.1978 57.2673 78.7452 56.824 78.4185 56.264C78.0918 55.6947 77.9285 55.046 77.9285 54.318C77.9285 53.59 78.0825 52.946 78.3905 52.386C78.7078 51.826 79.1372 51.3873 79.6785 51.07C80.2292 50.7433 80.8452 50.58 81.5265 50.58C82.2172 50.58 82.8285 50.7387 83.3605 51.056C83.9018 51.364 84.3265 51.8027 84.6345 52.372C84.9425 52.932 85.0965 53.5807 85.0965 54.318C85.0965 54.3647 85.0918 54.416 85.0825 54.472C85.0825 54.5187 85.0825 54.57 85.0825 54.626H78.6845V53.884H84.5505L84.1585 54.178C84.1585 53.646 84.0418 53.1747 83.8085 52.764C83.5845 52.344 83.2765 52.0173 82.8845 51.784C82.4925 51.5507 82.0398 51.434 81.5265 51.434C81.0225 51.434 80.5698 51.5507 80.1685 51.784C79.7672 52.0173 79.4545 52.344 79.2305 52.764C79.0065 53.184 78.8945 53.6647 78.8945 54.206V54.36C78.8945 54.92 79.0158 55.4147 79.2585 55.844C79.5105 56.264 79.8558 56.5953 80.2945 56.838C80.7425 57.0713 81.2512 57.188 81.8205 57.188C82.2685 57.188 82.6838 57.1087 83.0665 56.95C83.4585 56.7913 83.7945 56.5487 84.0745 56.222L84.6345 56.866C84.3078 57.258 83.8972 57.5567 83.4025 57.762C82.9172 57.9673 82.3805 58.07 81.7925 58.07ZM89.0657 58.084C88.5337 58.084 88.0064 58.0093 87.4837 57.86C86.9611 57.7107 86.4991 57.482 86.0977 57.174L86.4197 56.432C86.7744 56.6933 87.1851 56.894 87.6517 57.034C88.1184 57.1647 88.5804 57.23 89.0377 57.23C89.4951 57.2207 89.8917 57.1553 90.2277 57.034C90.5637 56.9127 90.8251 56.7447 91.0117 56.53C91.1984 56.3153 91.2917 56.0727 91.2917 55.802C91.2917 55.41 91.1144 55.1067 90.7597 54.892C90.4051 54.668 89.9197 54.556 89.3037 54.556H88.0437V53.828H89.2337C89.5977 53.828 89.9197 53.7813 90.1997 53.688C90.4797 53.5947 90.6944 53.4593 90.8437 53.282C91.0024 53.1047 91.0817 52.8947 91.0817 52.652C91.0817 52.3907 90.9884 52.1667 90.8017 51.98C90.6244 51.7933 90.3771 51.6533 90.0597 51.56C89.7424 51.4667 89.3831 51.42 88.9817 51.42C88.6177 51.4293 88.2397 51.4853 87.8477 51.588C87.4557 51.6813 87.0684 51.826 86.6857 52.022L86.4057 51.252C86.8351 51.028 87.2597 50.86 87.6797 50.748C88.1091 50.6267 88.5384 50.566 88.9677 50.566C89.5557 50.5473 90.0831 50.6173 90.5497 50.776C91.0257 50.9347 91.4037 51.1633 91.6837 51.462C91.9637 51.7513 92.1037 52.1013 92.1037 52.512C92.1037 52.876 91.9917 53.1933 91.7677 53.464C91.5437 53.7347 91.2451 53.9447 90.8717 54.094C90.4984 54.2433 90.0737 54.318 89.5977 54.318L89.6397 54.052C90.4797 54.052 91.1331 54.2153 91.5997 54.542C92.0757 54.8687 92.3137 55.312 92.3137 55.872C92.3137 56.3107 92.1691 56.698 91.8797 57.034C91.5904 57.3607 91.1984 57.6173 90.7037 57.804C90.2184 57.9907 89.6724 58.084 89.0657 58.084ZM98.2343 58V50.65H104.842V58H103.848V51.252L104.1 51.518H98.9763L99.2283 51.252V58H98.2343ZM110.818 58.07C110.053 58.07 109.381 57.9113 108.802 57.594C108.223 57.2673 107.771 56.824 107.444 56.264C107.117 55.6947 106.954 55.046 106.954 54.318C106.954 53.59 107.108 52.946 107.416 52.386C107.733 51.826 108.163 51.3873 108.704 51.07C109.255 50.7433 109.871 50.58 110.552 50.58C111.243 50.58 111.854 50.7387 112.386 51.056C112.927 51.364 113.352 51.8027 113.66 52.372C113.968 52.932 114.122 53.5807 114.122 54.318C114.122 54.3647 114.117 54.416 114.108 54.472C114.108 54.5187 114.108 54.57 114.108 54.626H107.71V53.884H113.576L113.184 54.178C113.184 53.646 113.067 53.1747 112.834 52.764C112.61 52.344 112.302 52.0173 111.91 51.784C111.518 51.5507 111.065 51.434 110.552 51.434C110.048 51.434 109.595 51.5507 109.194 51.784C108.793 52.0173 108.48 52.344 108.256 52.764C108.032 53.184 107.92 53.6647 107.92 54.206V54.36C107.92 54.92 108.041 55.4147 108.284 55.844C108.536 56.264 108.881 56.5953 109.32 56.838C109.768 57.0713 110.277 57.188 110.846 57.188C111.294 57.188 111.709 57.1087 112.092 56.95C112.484 56.7913 112.82 56.5487 113.1 56.222L113.66 56.866C113.333 57.258 112.923 57.5567 112.428 57.762C111.943 57.9673 111.406 58.07 110.818 58.07ZM120.116 58.07C119.482 58.07 118.908 57.9253 118.394 57.636C117.881 57.3373 117.47 56.9127 117.162 56.362C116.864 55.802 116.714 55.1207 116.714 54.318C116.714 53.5153 116.864 52.8387 117.162 52.288C117.461 51.728 117.867 51.3033 118.38 51.014C118.894 50.7247 119.472 50.58 120.116 50.58C120.816 50.58 121.442 50.7387 121.992 51.056C122.552 51.364 122.991 51.8027 123.308 52.372C123.626 52.932 123.784 53.5807 123.784 54.318C123.784 55.0647 123.626 55.718 123.308 56.278C122.991 56.838 122.552 57.2767 121.992 57.594C121.442 57.9113 120.816 58.07 120.116 58.07ZM116.322 60.716V50.65H117.274V52.862L117.176 54.332L117.316 55.816V60.716H116.322ZM120.046 57.188C120.569 57.188 121.036 57.0713 121.446 56.838C121.857 56.5953 122.184 56.2593 122.426 55.83C122.669 55.3913 122.79 54.8873 122.79 54.318C122.79 53.7487 122.669 53.2493 122.426 52.82C122.184 52.3907 121.857 52.0547 121.446 51.812C121.036 51.5693 120.569 51.448 120.046 51.448C119.524 51.448 119.052 51.5693 118.632 51.812C118.222 52.0547 117.895 52.3907 117.652 52.82C117.419 53.2493 117.302 53.7487 117.302 54.318C117.302 54.8873 117.419 55.3913 117.652 55.83C117.895 56.2593 118.222 56.5953 118.632 56.838C119.052 57.0713 119.524 57.188 120.046 57.188ZM129.07 58.07C128.305 58.07 127.633 57.9113 127.054 57.594C126.475 57.2673 126.023 56.824 125.696 56.264C125.369 55.6947 125.206 55.046 125.206 54.318C125.206 53.59 125.36 52.946 125.668 52.386C125.985 51.826 126.415 51.3873 126.956 51.07C127.507 50.7433 128.123 50.58 128.804 50.58C129.495 50.58 130.106 50.7387 130.638 51.056C131.179 51.364 131.604 51.8027 131.912 52.372C132.22 52.932 132.374 53.5807 132.374 54.318C132.374 54.3647 132.369 54.416 132.36 54.472C132.36 54.5187 132.36 54.57 132.36 54.626H125.962V53.884H131.828L131.436 54.178C131.436 53.646 131.319 53.1747 131.086 52.764C130.862 52.344 130.554 52.0173 130.162 51.784C129.77 51.5507 129.317 51.434 128.804 51.434C128.3 51.434 127.847 51.5507 127.446 51.784C127.045 52.0173 126.732 52.344 126.508 52.764C126.284 53.184 126.172 53.6647 126.172 54.206V54.36C126.172 54.92 126.293 55.4147 126.536 55.844C126.788 56.264 127.133 56.5953 127.572 56.838C128.02 57.0713 128.529 57.188 129.098 57.188C129.546 57.188 129.961 57.1087 130.344 56.95C130.736 56.7913 131.072 56.5487 131.352 56.222L131.912 56.866C131.585 57.258 131.175 57.5567 130.68 57.762C130.195 57.9673 129.658 58.07 129.07 58.07ZM134.574 58V50.65H141.182V58H140.188V51.252L140.44 51.518H135.316L135.568 51.252V58H134.574ZM142.664 57.986L142.734 57.132C142.799 57.1413 142.86 57.1553 142.916 57.174C142.981 57.1833 143.037 57.188 143.084 57.188C143.382 57.188 143.62 57.076 143.798 56.852C143.984 56.628 144.124 56.3293 144.218 55.956C144.311 55.5827 144.376 55.1627 144.414 54.696C144.451 54.22 144.484 53.744 144.512 53.268L144.638 50.65H150.028V58H149.034V51.224L149.286 51.518H145.282L145.52 51.21L145.408 53.338C145.38 53.9727 145.328 54.5793 145.254 55.158C145.188 55.7367 145.081 56.2453 144.932 56.684C144.792 57.1227 144.596 57.468 144.344 57.72C144.092 57.9627 143.77 58.084 143.378 58.084C143.266 58.084 143.149 58.0747 143.028 58.056C142.916 58.0373 142.794 58.014 142.664 57.986ZM157.417 58V56.376L157.375 56.11V53.394C157.375 52.7687 157.198 52.288 156.843 51.952C156.498 51.616 155.98 51.448 155.289 51.448C154.813 51.448 154.361 51.5273 153.931 51.686C153.502 51.8447 153.138 52.0547 152.839 52.316L152.391 51.574C152.765 51.2567 153.213 51.014 153.735 50.846C154.258 50.6687 154.809 50.58 155.387 50.58C156.339 50.58 157.072 50.818 157.585 51.294C158.108 51.7607 158.369 52.4747 158.369 53.436V58H157.417ZM154.883 58.07C154.333 58.07 153.852 57.9813 153.441 57.804C153.04 57.6173 152.732 57.3653 152.517 57.048C152.303 56.7213 152.195 56.348 152.195 55.928C152.195 55.5453 152.284 55.2 152.461 54.892C152.648 54.5747 152.947 54.3227 153.357 54.136C153.777 53.94 154.337 53.842 155.037 53.842H157.571V54.584H155.065C154.356 54.584 153.861 54.71 153.581 54.962C153.311 55.214 153.175 55.5267 153.175 55.9C153.175 56.32 153.339 56.656 153.665 56.908C153.992 57.16 154.449 57.286 155.037 57.286C155.597 57.286 156.078 57.16 156.479 56.908C156.89 56.6467 157.189 56.2733 157.375 55.788L157.599 56.474C157.413 56.9593 157.086 57.3467 156.619 57.636C156.162 57.9253 155.583 58.07 154.883 58.07ZM162.416 58V51.252L162.668 51.518H159.63V50.65H166.196V51.518H163.158L163.41 51.252V58H162.416Z" fill="#141414"/>
</svg>
