<svg width="328" height="84" viewBox="0 0 328 84" fill="none" xmlns="http://www.w3.org/2000/svg">
<rect x="0.5" y="0.5" width="327" height="83" stroke="#DCE3EB"/>
<path d="M47.3333 35.7037L36 42M36 42L24.6666 35.7037M36 42L36 54.6667M48 47.4114V36.5886C48 36.1318 48 35.9033 47.9327 35.6996C47.8731 35.5194 47.7758 35.3539 47.6472 35.2143C47.5018 35.0566 47.3021 34.9456 46.9027 34.7238L37.036 29.2423C36.6579 29.0322 36.4688 28.9272 36.2686 28.886C36.0914 28.8495 35.9086 28.8495 35.7314 28.886C35.5312 28.9272 35.3421 29.0322 34.964 29.2423L25.0973 34.7238C24.6979 34.9456 24.4982 35.0566 24.3528 35.2143C24.2242 35.3539 24.1269 35.5194 24.0673 35.6996C24 35.9033 24 36.1318 24 36.5886V47.4114C24 47.8683 24 48.0967 24.0673 48.3005C24.1269 48.4807 24.2242 48.6461 24.3528 48.7857C24.4982 48.9435 24.6979 49.0544 25.0973 49.2763L34.964 54.7578C35.3421 54.9679 35.5312 55.0729 35.7314 55.1141C35.9086 55.1505 36.0914 55.1505 36.2686 55.1141C36.4688 55.0729 36.6579 54.9679 37.036 54.7578L46.9027 49.2763C47.3021 49.0544 47.5018 48.9435 47.6472 48.7857C47.7758 48.6461 47.8731 48.4807 47.9327 48.3005C48 48.0967 48 47.8683 48 47.4114Z" stroke="#29A1F8" stroke-width="2" stroke-linecap="round" stroke-linejoin="round"/>
<path d="M42 38.6667L30 32" stroke="#29A1F8" stroke-width="2" stroke-linecap="round" stroke-linejoin="round"/>
<path d="M76.162 35.51V27.096H71.472L71.388 29.476C71.36 30.2133 71.3133 30.9227 71.248 31.604C71.192 32.276 71.0987 32.8827 70.968 33.424C70.8467 33.956 70.6787 34.39 70.464 34.726C70.2587 35.062 69.988 35.258 69.652 35.314L68.518 35.104C68.8913 35.1227 69.1993 34.9873 69.442 34.698C69.694 34.4087 69.8853 34.0027 70.016 33.48C70.156 32.9573 70.2587 32.346 70.324 31.646C70.3893 30.946 70.436 30.19 70.464 29.378L70.576 26.2H77.184V35.51H76.162ZM68.154 38.198L68.168 35.104H78.654V38.198H77.688V36H69.134L69.12 38.198H68.154ZM83.3482 36.07C82.6388 36.07 81.9995 35.9113 81.4302 35.594C80.8702 35.2673 80.4268 34.824 80.1002 34.264C79.7735 33.6947 79.6102 33.046 79.6102 32.318C79.6102 31.5807 79.7735 30.932 80.1002 30.372C80.4268 29.812 80.8702 29.3733 81.4302 29.056C81.9902 28.7387 82.6295 28.58 83.3482 28.58C84.0762 28.58 84.7202 28.7387 85.2802 29.056C85.8495 29.3733 86.2928 29.812 86.6102 30.372C86.9368 30.932 87.1002 31.5807 87.1002 32.318C87.1002 33.046 86.9368 33.6947 86.6102 34.264C86.2928 34.824 85.8495 35.2673 85.2802 35.594C84.7108 35.9113 84.0668 36.07 83.3482 36.07ZM83.3482 35.188C83.8802 35.188 84.3515 35.0713 84.7622 34.838C85.1728 34.5953 85.4948 34.2593 85.7282 33.83C85.9708 33.3913 86.0922 32.8873 86.0922 32.318C86.0922 31.7393 85.9708 31.2353 85.7282 30.806C85.4948 30.3767 85.1728 30.0453 84.7622 29.812C84.3515 29.5693 83.8848 29.448 83.3622 29.448C82.8395 29.448 82.3728 29.5693 81.9622 29.812C81.5515 30.0453 81.2248 30.3767 80.9822 30.806C80.7395 31.2353 80.6182 31.7393 80.6182 32.318C80.6182 32.8873 80.7395 33.3913 80.9822 33.83C81.2248 34.2593 81.5515 34.5953 81.9622 34.838C82.3728 35.0713 82.8348 35.188 83.3482 35.188ZM92.3045 36.07C91.5765 36.07 90.9232 35.9113 90.3445 35.594C89.7752 35.2673 89.3272 34.824 89.0005 34.264C88.6739 33.6947 88.5105 33.046 88.5105 32.318C88.5105 31.5807 88.6739 30.932 89.0005 30.372C89.3272 29.812 89.7752 29.3733 90.3445 29.056C90.9232 28.7387 91.5765 28.58 92.3045 28.58C92.9299 28.58 93.4945 28.7013 93.9985 28.944C94.5025 29.1867 94.8992 29.5507 95.1885 30.036L94.4465 30.54C94.1945 30.1667 93.8819 29.8913 93.5085 29.714C93.1352 29.5367 92.7292 29.448 92.2905 29.448C91.7679 29.448 91.2965 29.5693 90.8765 29.812C90.4565 30.0453 90.1252 30.3767 89.8825 30.806C89.6399 31.2353 89.5185 31.7393 89.5185 32.318C89.5185 32.8967 89.6399 33.4007 89.8825 33.83C90.1252 34.2593 90.4565 34.5953 90.8765 34.838C91.2965 35.0713 91.7679 35.188 92.2905 35.188C92.7292 35.188 93.1352 35.0993 93.5085 34.922C93.8819 34.7447 94.1945 34.474 94.4465 34.11L95.1885 34.614C94.8992 35.09 94.5025 35.454 93.9985 35.706C93.4945 35.9487 92.9299 36.07 92.3045 36.07ZM98.3765 36V29.252L98.6285 29.518H95.5905V28.65H102.157V29.518H99.1185L99.3705 29.252V36H98.3765ZM108.158 36V34.376L108.116 34.11V31.394C108.116 30.7687 107.938 30.288 107.584 29.952C107.238 29.616 106.72 29.448 106.03 29.448C105.554 29.448 105.101 29.5273 104.672 29.686C104.242 29.8447 103.878 30.0547 103.58 30.316L103.132 29.574C103.505 29.2567 103.953 29.014 104.476 28.846C104.998 28.6687 105.549 28.58 106.128 28.58C107.08 28.58 107.812 28.818 108.326 29.294C108.848 29.7607 109.11 30.4747 109.11 31.436V36H108.158ZM105.624 36.07C105.073 36.07 104.592 35.9813 104.182 35.804C103.78 35.6173 103.472 35.3653 103.258 35.048C103.043 34.7213 102.936 34.348 102.936 33.928C102.936 33.5453 103.024 33.2 103.202 32.892C103.388 32.5747 103.687 32.3227 104.098 32.136C104.518 31.94 105.078 31.842 105.778 31.842H108.312V32.584H105.806C105.096 32.584 104.602 32.71 104.322 32.962C104.051 33.214 103.916 33.5267 103.916 33.9C103.916 34.32 104.079 34.656 104.406 34.908C104.732 35.16 105.19 35.286 105.778 35.286C106.338 35.286 106.818 35.16 107.22 34.908C107.63 34.6467 107.929 34.2733 108.116 33.788L108.34 34.474C108.153 34.9593 107.826 35.3467 107.36 35.636C106.902 35.9253 106.324 36.07 105.624 36.07ZM111.756 36V28.65H115.004C115.834 28.65 116.488 28.8087 116.964 29.126C117.449 29.4433 117.692 29.91 117.692 30.526C117.692 31.1233 117.463 31.5853 117.006 31.912C116.548 32.2293 115.946 32.388 115.2 32.388L115.396 32.094C116.273 32.094 116.917 32.2573 117.328 32.584C117.738 32.9107 117.944 33.382 117.944 33.998C117.944 34.6327 117.71 35.1273 117.244 35.482C116.786 35.8273 116.072 36 115.102 36H111.756ZM112.722 35.216H115.06C115.685 35.216 116.156 35.118 116.474 34.922C116.8 34.7167 116.964 34.39 116.964 33.942C116.964 33.494 116.819 33.1673 116.53 32.962C116.24 32.7567 115.783 32.654 115.158 32.654H112.722V35.216ZM112.722 31.912H114.934C115.503 31.912 115.937 31.8047 116.236 31.59C116.544 31.3753 116.698 31.0627 116.698 30.652C116.698 30.2413 116.544 29.9333 116.236 29.728C115.937 29.5227 115.503 29.42 114.934 29.42H112.722V31.912ZM125.663 36L122.639 32.36L123.465 31.87L126.839 36H125.663ZM120.273 36V28.65H121.267V36H120.273ZM120.959 32.724V31.87H123.325V32.724H120.959ZM123.549 32.43L122.625 32.29L125.551 28.65H126.629L123.549 32.43ZM132.835 36V34.376L132.793 34.11V31.394C132.793 30.7687 132.616 30.288 132.261 29.952C131.916 29.616 131.398 29.448 130.707 29.448C130.231 29.448 129.779 29.5273 129.349 29.686C128.92 29.8447 128.556 30.0547 128.257 30.316L127.809 29.574C128.183 29.2567 128.631 29.014 129.153 28.846C129.676 28.6687 130.227 28.58 130.805 28.58C131.757 28.58 132.49 28.818 133.003 29.294C133.526 29.7607 133.787 30.4747 133.787 31.436V36H132.835ZM130.301 36.07C129.751 36.07 129.27 35.9813 128.859 35.804C128.458 35.6173 128.15 35.3653 127.935 35.048C127.721 34.7213 127.613 34.348 127.613 33.928C127.613 33.5453 127.702 33.2 127.879 32.892C128.066 32.5747 128.365 32.3227 128.775 32.136C129.195 31.94 129.755 31.842 130.455 31.842H132.989V32.584H130.483C129.774 32.584 129.279 32.71 128.999 32.962C128.729 33.214 128.593 33.5267 128.593 33.9C128.593 34.32 128.757 34.656 129.083 34.908C129.41 35.16 129.867 35.286 130.455 35.286C131.015 35.286 131.496 35.16 131.897 34.908C132.308 34.6467 132.607 34.2733 132.793 33.788L133.017 34.474C132.831 34.9593 132.504 35.3467 132.037 35.636C131.58 35.9253 131.001 36.07 130.301 36.07ZM146.258 36V32.752L146.538 33.032H143.332C142.548 33.032 141.876 32.8967 141.316 32.626C140.765 32.3553 140.34 31.9727 140.042 31.478C139.752 30.974 139.608 30.372 139.608 29.672C139.608 28.9253 139.766 28.2953 140.084 27.782C140.401 27.2593 140.849 26.8673 141.428 26.606C142.016 26.3353 142.697 26.2 143.472 26.2H147.28V36H146.258ZM139.608 36L142.016 32.556H143.08L140.714 36H139.608ZM146.258 32.458V26.802L146.538 27.096H143.514C142.599 27.096 141.89 27.3153 141.386 27.754C140.891 28.1833 140.644 28.8133 140.644 29.644C140.644 30.4467 140.877 31.0673 141.344 31.506C141.81 31.9353 142.501 32.15 143.416 32.15H146.538L146.258 32.458ZM150.422 36.07C150.216 36.07 150.039 35.9953 149.89 35.846C149.75 35.6967 149.68 35.5147 149.68 35.3C149.68 35.076 149.75 34.894 149.89 34.754C150.039 34.614 150.216 34.544 150.422 34.544C150.627 34.544 150.8 34.614 150.94 34.754C151.089 34.894 151.164 35.076 151.164 35.3C151.164 35.5147 151.089 35.6967 150.94 35.846C150.8 35.9953 150.627 36.07 150.422 36.07ZM160.435 35.51V27.096H155.745L155.661 29.476C155.633 30.2133 155.587 30.9227 155.521 31.604C155.465 32.276 155.372 32.8827 155.241 33.424C155.12 33.956 154.952 34.39 154.737 34.726C154.532 35.062 154.261 35.258 153.925 35.314L152.791 35.104C153.165 35.1227 153.473 34.9873 153.715 34.698C153.967 34.4087 154.159 34.0027 154.289 33.48C154.429 32.9573 154.532 32.346 154.597 31.646C154.663 30.946 154.709 30.19 154.737 29.378L154.849 26.2H161.457V35.51H160.435ZM152.427 38.198L152.441 35.104H162.927V38.198H161.961V36H153.407L153.393 38.198H152.427ZM167.622 36.07C166.912 36.07 166.273 35.9113 165.704 35.594C165.144 35.2673 164.7 34.824 164.374 34.264C164.047 33.6947 163.884 33.046 163.884 32.318C163.884 31.5807 164.047 30.932 164.374 30.372C164.7 29.812 165.144 29.3733 165.704 29.056C166.264 28.7387 166.903 28.58 167.622 28.58C168.35 28.58 168.994 28.7387 169.554 29.056C170.123 29.3733 170.566 29.812 170.884 30.372C171.21 30.932 171.374 31.5807 171.374 32.318C171.374 33.046 171.21 33.6947 170.884 34.264C170.566 34.824 170.123 35.2673 169.554 35.594C168.984 35.9113 168.34 36.07 167.622 36.07ZM167.622 35.188C168.154 35.188 168.625 35.0713 169.036 34.838C169.446 34.5953 169.768 34.2593 170.002 33.83C170.244 33.3913 170.366 32.8873 170.366 32.318C170.366 31.7393 170.244 31.2353 170.002 30.806C169.768 30.3767 169.446 30.0453 169.036 29.812C168.625 29.5693 168.158 29.448 167.636 29.448C167.113 29.448 166.646 29.5693 166.236 29.812C165.825 30.0453 165.498 30.3767 165.256 30.806C165.013 31.2353 164.892 31.7393 164.892 32.318C164.892 32.8873 165.013 33.3913 165.256 33.83C165.498 34.2593 165.825 34.5953 166.236 34.838C166.646 35.0713 167.108 35.188 167.622 35.188ZM176.578 36.07C175.85 36.07 175.197 35.9113 174.618 35.594C174.049 35.2673 173.601 34.824 173.274 34.264C172.947 33.6947 172.784 33.046 172.784 32.318C172.784 31.5807 172.947 30.932 173.274 30.372C173.601 29.812 174.049 29.3733 174.618 29.056C175.197 28.7387 175.85 28.58 176.578 28.58C177.203 28.58 177.768 28.7013 178.272 28.944C178.776 29.1867 179.173 29.5507 179.462 30.036L178.72 30.54C178.468 30.1667 178.155 29.8913 177.782 29.714C177.409 29.5367 177.003 29.448 176.564 29.448C176.041 29.448 175.57 29.5693 175.15 29.812C174.73 30.0453 174.399 30.3767 174.156 30.806C173.913 31.2353 173.792 31.7393 173.792 32.318C173.792 32.8967 173.913 33.4007 174.156 33.83C174.399 34.2593 174.73 34.5953 175.15 34.838C175.57 35.0713 176.041 35.188 176.564 35.188C177.003 35.188 177.409 35.0993 177.782 34.922C178.155 34.7447 178.468 34.474 178.72 34.11L179.462 34.614C179.173 35.09 178.776 35.454 178.272 35.706C177.768 35.9487 177.203 36.07 176.578 36.07ZM182.65 36V29.252L182.902 29.518H179.864V28.65H186.43V29.518H183.392L183.644 29.252V36H182.65ZM192.431 36V34.376L192.389 34.11V31.394C192.389 30.7687 192.212 30.288 191.857 29.952C191.512 29.616 190.994 29.448 190.303 29.448C189.827 29.448 189.374 29.5273 188.945 29.686C188.516 29.8447 188.152 30.0547 187.853 30.316L187.405 29.574C187.778 29.2567 188.226 29.014 188.749 28.846C189.272 28.6687 189.822 28.58 190.401 28.58C191.353 28.58 192.086 28.818 192.599 29.294C193.122 29.7607 193.383 30.4747 193.383 31.436V36H192.431ZM189.897 36.07C189.346 36.07 188.866 35.9813 188.455 35.804C188.054 35.6173 187.746 35.3653 187.531 35.048C187.316 34.7213 187.209 34.348 187.209 33.928C187.209 33.5453 187.298 33.2 187.475 32.892C187.662 32.5747 187.96 32.3227 188.371 32.136C188.791 31.94 189.351 31.842 190.051 31.842H192.585V32.584H190.079C189.37 32.584 188.875 32.71 188.595 32.962C188.324 33.214 188.189 33.5267 188.189 33.9C188.189 34.32 188.352 34.656 188.679 34.908C189.006 35.16 189.463 35.286 190.051 35.286C190.611 35.286 191.092 35.16 191.493 34.908C191.904 34.6467 192.202 34.2733 192.389 33.788L192.613 34.474C192.426 34.9593 192.1 35.3467 191.633 35.636C191.176 35.9253 190.597 36.07 189.897 36.07ZM196.029 36V28.65H199.277C200.108 28.65 200.761 28.8087 201.237 29.126C201.723 29.4433 201.965 29.91 201.965 30.526C201.965 31.1233 201.737 31.5853 201.279 31.912C200.822 32.2293 200.22 32.388 199.473 32.388L199.669 32.094C200.547 32.094 201.191 32.2573 201.601 32.584C202.012 32.9107 202.217 33.382 202.217 33.998C202.217 34.6327 201.984 35.1273 201.517 35.482C201.06 35.8273 200.346 36 199.375 36H196.029ZM196.995 35.216H199.333C199.959 35.216 200.43 35.118 200.747 34.922C201.074 34.7167 201.237 34.39 201.237 33.942C201.237 33.494 201.093 33.1673 200.803 32.962C200.514 32.7567 200.057 32.654 199.431 32.654H196.995V35.216ZM196.995 31.912H199.207C199.777 31.912 200.211 31.8047 200.509 31.59C200.817 31.3753 200.971 31.0627 200.971 30.652C200.971 30.2413 200.817 29.9333 200.509 29.728C200.211 29.5227 199.777 29.42 199.207 29.42H196.995V31.912ZM209.937 36L206.913 32.36L207.739 31.87L211.113 36H209.937ZM204.547 36V28.65H205.541V36H204.547ZM205.233 32.724V31.87H207.599V32.724H205.233ZM207.823 32.43L206.899 32.29L209.825 28.65H210.903L207.823 32.43ZM217.109 36V34.376L217.067 34.11V31.394C217.067 30.7687 216.89 30.288 216.535 29.952C216.19 29.616 215.672 29.448 214.981 29.448C214.505 29.448 214.052 29.5273 213.623 29.686C213.194 29.8447 212.83 30.0547 212.531 30.316L212.083 29.574C212.456 29.2567 212.904 29.014 213.427 28.846C213.95 28.6687 214.5 28.58 215.079 28.58C216.031 28.58 216.764 28.818 217.277 29.294C217.8 29.7607 218.061 30.4747 218.061 31.436V36H217.109ZM214.575 36.07C214.024 36.07 213.544 35.9813 213.133 35.804C212.732 35.6173 212.424 35.3653 212.209 35.048C211.994 34.7213 211.887 34.348 211.887 33.928C211.887 33.5453 211.976 33.2 212.153 32.892C212.34 32.5747 212.638 32.3227 213.049 32.136C213.469 31.94 214.029 31.842 214.729 31.842H217.263V32.584H214.757C214.048 32.584 213.553 32.71 213.273 32.962C213.002 33.214 212.867 33.5267 212.867 33.9C212.867 34.32 213.03 34.656 213.357 34.908C213.684 35.16 214.141 35.286 214.729 35.286C215.289 35.286 215.77 35.16 216.171 34.908C216.582 34.6467 216.88 34.2733 217.067 33.788L217.291 34.474C217.104 34.9593 216.778 35.3467 216.311 35.636C215.854 35.9253 215.275 36.07 214.575 36.07ZM224.371 36V28.65H225.365V34.488L230.279 28.65H231.161V36H230.167V30.148L225.267 36H224.371ZM242.196 36.084C241.458 36.084 240.777 35.9627 240.152 35.72C239.526 35.468 238.985 35.118 238.528 34.67C238.07 34.222 237.711 33.6947 237.45 33.088C237.198 32.4813 237.072 31.8187 237.072 31.1C237.072 30.3813 237.198 29.7187 237.45 29.112C237.711 28.5053 238.07 27.978 238.528 27.53C238.994 27.082 239.54 26.7367 240.166 26.494C240.791 26.242 241.472 26.116 242.21 26.116C242.919 26.116 243.586 26.2373 244.212 26.48C244.837 26.7133 245.364 27.068 245.794 27.544L245.136 28.202C244.734 27.7913 244.291 27.4973 243.806 27.32C243.32 27.1333 242.798 27.04 242.238 27.04C241.65 27.04 241.104 27.1427 240.6 27.348C240.096 27.544 239.657 27.8287 239.284 28.202C238.91 28.566 238.616 28.9953 238.402 29.49C238.196 29.9753 238.094 30.512 238.094 31.1C238.094 31.688 238.196 32.2293 238.402 32.724C238.616 33.2093 238.91 33.6387 239.284 34.012C239.657 34.376 240.096 34.6607 240.6 34.866C241.104 35.062 241.65 35.16 242.238 35.16C242.798 35.16 243.32 35.0667 243.806 34.88C244.291 34.6933 244.734 34.3947 245.136 33.984L245.794 34.642C245.364 35.118 244.837 35.4773 244.212 35.72C243.586 35.9627 242.914 36.084 242.196 36.084ZM254.183 35.51V27.096H249.493L249.409 29.476C249.381 30.2133 249.335 30.9227 249.269 31.604C249.213 32.276 249.12 32.8827 248.989 33.424C248.868 33.956 248.7 34.39 248.485 34.726C248.28 35.062 248.009 35.258 247.673 35.314L246.539 35.104C246.913 35.1227 247.221 34.9873 247.463 34.698C247.715 34.4087 247.907 34.0027 248.037 33.48C248.177 32.9573 248.28 32.346 248.345 31.646C248.411 30.946 248.457 30.19 248.485 29.378L248.597 26.2H255.205V35.51H254.183ZM246.175 38.198L246.189 35.104H256.675V38.198H255.709V36H247.155L247.141 38.198H246.175ZM260.091 31.436V30.582H265.509V31.436H260.091ZM261.323 26.116C262.023 26.116 262.667 26.242 263.255 26.494C263.843 26.7367 264.356 27.082 264.795 27.53C265.243 27.978 265.588 28.5053 265.831 29.112C266.073 29.7187 266.195 30.3813 266.195 31.1C266.195 31.8187 266.073 32.4813 265.831 33.088C265.588 33.6947 265.243 34.222 264.795 34.67C264.356 35.118 263.843 35.468 263.255 35.72C262.667 35.9627 262.023 36.084 261.323 36.084C260.576 36.084 259.881 35.9627 259.237 35.72C258.593 35.4773 258.056 35.118 257.627 34.642L258.271 33.984C258.681 34.404 259.139 34.7073 259.643 34.894C260.147 35.0713 260.693 35.16 261.281 35.16C261.831 35.16 262.34 35.0573 262.807 34.852C263.283 34.6467 263.693 34.362 264.039 33.998C264.393 33.634 264.669 33.2093 264.865 32.724C265.061 32.2293 265.159 31.688 265.159 31.1C265.159 30.512 265.061 29.9753 264.865 29.49C264.669 28.9953 264.393 28.566 264.039 28.202C263.693 27.838 263.283 27.5533 262.807 27.348C262.34 27.1427 261.831 27.04 261.281 27.04C260.693 27.04 260.147 27.1333 259.643 27.32C259.139 27.5067 258.681 27.8053 258.271 28.216L257.627 27.558C258.056 27.082 258.593 26.7227 259.237 26.48C259.881 26.2373 260.576 26.116 261.323 26.116ZM275.379 36L271.613 31.114L272.453 30.61L276.569 36H275.379ZM268.673 36V26.2H269.681V36H268.673ZM269.373 31.506V30.596H272.439V31.506H269.373ZM272.537 31.212L271.585 31.044L275.239 26.2H276.359L272.537 31.212ZM281.93 36V28.65H288.538V36H287.544V29.252L287.796 29.518H282.672L282.924 29.252V36H281.93ZM294.387 36.07C293.678 36.07 293.039 35.9113 292.469 35.594C291.909 35.2673 291.466 34.824 291.139 34.264C290.813 33.6947 290.649 33.046 290.649 32.318C290.649 31.5807 290.813 30.932 291.139 30.372C291.466 29.812 291.909 29.3733 292.469 29.056C293.029 28.7387 293.669 28.58 294.387 28.58C295.115 28.58 295.759 28.7387 296.319 29.056C296.889 29.3733 297.332 29.812 297.649 30.372C297.976 30.932 298.139 31.5807 298.139 32.318C298.139 33.046 297.976 33.6947 297.649 34.264C297.332 34.824 296.889 35.2673 296.319 35.594C295.75 35.9113 295.106 36.07 294.387 36.07ZM294.387 35.188C294.919 35.188 295.391 35.0713 295.801 34.838C296.212 34.5953 296.534 34.2593 296.767 33.83C297.01 33.3913 297.131 32.8873 297.131 32.318C297.131 31.7393 297.01 31.2353 296.767 30.806C296.534 30.3767 296.212 30.0453 295.801 29.812C295.391 29.5693 294.924 29.448 294.401 29.448C293.879 29.448 293.412 29.5693 293.001 29.812C292.591 30.0453 292.264 30.3767 292.021 30.806C291.779 31.2353 291.657 31.7393 291.657 32.318C291.657 32.8873 291.779 33.3913 292.021 33.83C292.264 34.2593 292.591 34.5953 293.001 34.838C293.412 35.0713 293.874 35.188 294.387 35.188ZM69.414 58V50.65H72.662C73.4927 50.65 74.146 50.8087 74.622 51.126C75.1073 51.4433 75.35 51.91 75.35 52.526C75.35 53.1233 75.1213 53.5853 74.664 53.912C74.2067 54.2293 73.6047 54.388 72.858 54.388L73.054 54.094C73.9313 54.094 74.5753 54.2573 74.986 54.584C75.3967 54.9107 75.602 55.382 75.602 55.998C75.602 56.6327 75.3687 57.1273 74.902 57.482C74.4447 57.8273 73.7307 58 72.76 58H69.414ZM70.38 57.216H72.718C73.3433 57.216 73.8147 57.118 74.132 56.922C74.4587 56.7167 74.622 56.39 74.622 55.942C74.622 55.494 74.4773 55.1673 74.188 54.962C73.8987 54.7567 73.4413 54.654 72.816 54.654H70.38V57.216ZM70.38 53.912H72.592C73.1613 53.912 73.5953 53.8047 73.894 53.59C74.202 53.3753 74.356 53.0627 74.356 52.652C74.356 52.2413 74.202 51.9333 73.894 51.728C73.5953 51.5227 73.1613 51.42 72.592 51.42H70.38V53.912ZM81.0116 58.07C80.2836 58.07 79.6302 57.9113 79.0516 57.594C78.4822 57.2673 78.0342 56.824 77.7076 56.264C77.3809 55.6947 77.2176 55.046 77.2176 54.318C77.2176 53.5807 77.3809 52.932 77.7076 52.372C78.0342 51.812 78.4822 51.3733 79.0516 51.056C79.6302 50.7387 80.2836 50.58 81.0116 50.58C81.6369 50.58 82.2016 50.7013 82.7056 50.944C83.2096 51.1867 83.6062 51.5507 83.8956 52.036L83.1536 52.54C82.9016 52.1667 82.5889 51.8913 82.2156 51.714C81.8422 51.5367 81.4362 51.448 80.9976 51.448C80.4749 51.448 80.0036 51.5693 79.5836 51.812C79.1636 52.0453 78.8322 52.3767 78.5896 52.806C78.3469 53.2353 78.2256 53.7393 78.2256 54.318C78.2256 54.8967 78.3469 55.4007 78.5896 55.83C78.8322 56.2593 79.1636 56.5953 79.5836 56.838C80.0036 57.0713 80.4749 57.188 80.9976 57.188C81.4362 57.188 81.8422 57.0993 82.2156 56.922C82.5889 56.7447 82.9016 56.474 83.1536 56.11L83.8956 56.614C83.6062 57.09 83.2096 57.454 82.7056 57.706C82.2016 57.9487 81.6369 58.07 81.0116 58.07ZM88.8472 58.07C88.0819 58.07 87.4099 57.9113 86.8312 57.594C86.2525 57.2673 85.7999 56.824 85.4732 56.264C85.1465 55.6947 84.9832 55.046 84.9832 54.318C84.9832 53.59 85.1372 52.946 85.4452 52.386C85.7625 51.826 86.1919 51.3873 86.7332 51.07C87.2839 50.7433 87.8999 50.58 88.5812 50.58C89.2719 50.58 89.8832 50.7387 90.4152 51.056C90.9565 51.364 91.3812 51.8027 91.6892 52.372C91.9972 52.932 92.1512 53.5807 92.1512 54.318C92.1512 54.3647 92.1465 54.416 92.1372 54.472C92.1372 54.5187 92.1372 54.57 92.1372 54.626H85.7392V53.884H91.6052L91.2132 54.178C91.2132 53.646 91.0965 53.1747 90.8632 52.764C90.6392 52.344 90.3312 52.0173 89.9392 51.784C89.5472 51.5507 89.0945 51.434 88.5812 51.434C88.0772 51.434 87.6245 51.5507 87.2232 51.784C86.8219 52.0173 86.5092 52.344 86.2852 52.764C86.0612 53.184 85.9492 53.6647 85.9492 54.206V54.36C85.9492 54.92 86.0705 55.4147 86.3132 55.844C86.5652 56.264 86.9105 56.5953 87.3492 56.838C87.7972 57.0713 88.3059 57.188 88.8752 57.188C89.3232 57.188 89.7385 57.1087 90.1212 56.95C90.5132 56.7913 90.8492 56.5487 91.1292 56.222L91.6892 56.866C91.3625 57.258 90.9519 57.5567 90.4572 57.762C89.9719 57.9673 89.4352 58.07 88.8472 58.07ZM94.3515 58V50.65H95.3455V56.488L100.26 50.65H101.142V58H100.148V52.148L95.2475 58H94.3515ZM97.6835 49.586C97.0675 49.586 96.5682 49.432 96.1855 49.124C95.8122 48.8067 95.6162 48.354 95.5975 47.766H96.3115C96.3208 48.1393 96.4515 48.4333 96.7035 48.648C96.9555 48.8627 97.2822 48.97 97.6835 48.97C98.0848 48.97 98.4115 48.8627 98.6635 48.648C98.9248 48.4333 99.0602 48.1393 99.0695 47.766H99.7835C99.7742 48.354 99.5782 48.8067 99.1955 49.124C98.8128 49.432 98.3088 49.586 97.6835 49.586ZM107.892 58V48.2H111.56C112.391 48.2 113.105 48.3353 113.702 48.606C114.3 48.8673 114.757 49.25 115.074 49.754C115.401 50.2487 115.564 50.8507 115.564 51.56C115.564 52.2507 115.401 52.848 115.074 53.352C114.757 53.8467 114.3 54.2293 113.702 54.5C113.105 54.7707 112.391 54.906 111.56 54.906H108.466L108.928 54.416V58H107.892ZM108.928 54.5L108.466 53.996H111.532C112.512 53.996 113.254 53.786 113.758 53.366C114.272 52.9367 114.528 52.3347 114.528 51.56C114.528 50.776 114.272 50.1693 113.758 49.74C113.254 49.3107 112.512 49.096 111.532 49.096H108.466L108.928 48.606V54.5ZM122.452 57.328C121.285 57.328 120.287 57.1647 119.456 56.838C118.625 56.502 117.986 56.0167 117.538 55.382C117.09 54.7473 116.866 53.982 116.866 53.086C116.866 52.19 117.09 51.4293 117.538 50.804C117.986 50.1693 118.625 49.684 119.456 49.348C120.287 49.012 121.285 48.844 122.452 48.844C122.461 48.844 122.485 48.844 122.522 48.844C122.559 48.844 122.597 48.844 122.634 48.844C122.671 48.844 122.695 48.844 122.704 48.844C123.88 48.844 124.883 49.012 125.714 49.348C126.545 49.684 127.184 50.1693 127.632 50.804C128.08 51.4293 128.304 52.19 128.304 53.086C128.304 53.982 128.08 54.7473 127.632 55.382C127.193 56.0167 126.559 56.502 125.728 56.838C124.897 57.1647 123.903 57.328 122.746 57.328C122.727 57.328 122.695 57.328 122.648 57.328C122.611 57.328 122.569 57.328 122.522 57.328C122.485 57.328 122.461 57.328 122.452 57.328ZM122.564 56.516C122.583 56.516 122.601 56.516 122.62 56.516C122.639 56.516 122.653 56.516 122.662 56.516C123.642 56.5067 124.477 56.3713 125.168 56.11C125.868 55.8393 126.4 55.452 126.764 54.948C127.128 54.4347 127.31 53.814 127.31 53.086C127.31 52.3487 127.123 51.728 126.75 51.224C126.386 50.72 125.859 50.3373 125.168 50.076C124.487 49.8053 123.661 49.67 122.69 49.67C122.681 49.67 122.662 49.67 122.634 49.67C122.606 49.67 122.583 49.67 122.564 49.67C121.575 49.67 120.73 49.8007 120.03 50.062C119.33 50.3233 118.793 50.7107 118.42 51.224C118.047 51.728 117.86 52.3487 117.86 53.086C117.86 53.8327 118.047 54.4627 118.42 54.976C118.803 55.48 119.344 55.8627 120.044 56.124C120.753 56.3853 121.593 56.516 122.564 56.516ZM122.102 58.336V47.864H123.068V58.336H122.102Z" fill="#141414"/>
</svg>
