<svg width="110" height="24" viewBox="0 0 110 24" fill="none" xmlns="http://www.w3.org/2000/svg">
<g clip-path="url(#clip0_5134_2259)">
<path fill-rule="evenodd" clip-rule="evenodd" d="M13.2236 0.0650445C10.7506 -0.194602 8.25767 0.315568 6.08741 1.52543C3.91714 2.73529 2.1761 4.58545 1.10358 6.82161C0.0310555 9.05776 -0.320287 11.5701 0.0978409 14.0134C0.515969 16.4566 1.68304 18.7109 3.43864 20.4662C5.19424 22.2215 7.45219 23.3917 9.90212 23.816C12.352 24.2404 14.8737 23.8979 17.1205 22.8358C19.3672 21.7737 21.2288 20.0441 22.4493 17.8846C23.6698 15.7252 24.1894 13.2419 23.9365 10.7762C23.6583 8.03543 22.4411 5.47391 20.4898 3.52297C18.5385 1.57204 15.9724 0.350851 13.2236 0.0650445ZM12.8335 18.3449C11.5035 18.5228 10.151 18.2808 8.96611 17.6529C7.78121 17.025 6.82348 16.0428 6.22753 14.8443C5.63159 13.6459 5.42738 12.2914 5.64361 10.9713C5.85984 9.65125 6.48563 8.43187 7.43305 7.48458C8.38046 6.53729 9.60186 5.90971 10.9256 5.69006C12.2493 5.4704 13.6088 5.66971 14.813 6.25996C16.0173 6.85022 17.0056 7.80175 17.6393 8.98082C18.2729 10.1599 18.52 11.5072 18.3457 12.8335C18.1628 14.2285 17.5237 15.5245 16.5272 16.5208C15.5307 17.5172 14.2325 18.1583 12.8335 18.3449ZM30.3742 0.539662C29.9568 0.540658 29.5448 0.634406 29.1682 0.814083C28.7917 0.993761 28.4601 1.25485 28.1976 1.57835C27.935 1.90185 27.7481 2.27962 27.6505 2.68418C27.5528 3.08874 27.5469 3.50991 27.6331 3.91703C27.8972 5.23599 29.1332 6.1372 30.4797 6.1372H38.2934L26.1335 22.1768C26.0436 22.2952 25.9885 22.4362 25.9745 22.5841C25.9604 22.7319 25.988 22.8808 26.0541 23.0139C26.1202 23.147 26.2221 23.2591 26.3486 23.3377C26.475 23.4163 26.6209 23.4582 26.7699 23.4588H45.8438C47.1894 23.4588 48.4263 22.5578 48.6904 21.2386C48.7766 20.8316 48.7708 20.4105 48.6732 20.006C48.5756 19.6014 48.3889 19.2237 48.1264 18.9002C47.864 18.5766 47.5325 18.3155 47.1561 18.1357C46.7797 17.9559 46.3678 17.862 45.9504 17.8608H36.4301L48.5806 1.8337C48.6714 1.71414 48.727 1.57172 48.7411 1.42242C48.7553 1.27312 48.7274 1.12286 48.6606 0.988473C48.5938 0.854091 48.4908 0.740913 48.3631 0.661636C48.2354 0.58236 48.0881 0.540122 47.9376 0.539662H30.3742ZM106.593 0.604228C105.961 0.753898 105.4 1.1139 105.001 1.6247C104.603 2.1355 104.391 2.76652 104.402 3.41342V12.7331L89.2509 0.715689C89.1321 0.621684 88.9891 0.563019 88.8383 0.546444C88.6875 0.529869 88.5351 0.556057 88.3986 0.621995C88.2621 0.687934 88.147 0.790944 88.0667 0.919175C87.9863 1.04741 87.9439 1.19565 87.9443 1.34685V20.59C87.934 21.2369 88.1455 21.868 88.5439 22.3788C88.9422 22.8896 89.5036 23.2496 90.1351 23.3992C90.5452 23.4892 90.9702 23.4862 91.379 23.3905C91.7878 23.2949 92.1698 23.109 92.4968 22.8465C92.8239 22.5841 93.0876 22.2518 93.2687 21.8742C93.4497 21.4966 93.5434 21.0833 93.5428 20.6648V11.2644L108.694 23.2821C108.813 23.376 108.956 23.4347 109.106 23.4512C109.257 23.4678 109.409 23.4416 109.546 23.3757C109.682 23.3098 109.797 23.2068 109.878 23.0786C109.958 22.9505 110 22.8023 110 22.6512V3.33775C110 2.91935 109.907 2.50618 109.726 2.12871C109.545 1.75123 109.281 1.41909 108.954 1.15675C108.627 0.894418 108.245 0.708587 107.836 0.61296C107.427 0.517333 107.002 0.514349 106.593 0.604228ZM67.1441 5.60141C73.5524 5.60141 78.3407 8.97697 78.3407 11.9964C78.3407 15.0158 73.5524 18.3914 67.1441 18.3914C60.7357 18.3914 55.9474 15.0158 55.9474 11.9964C55.9474 8.97697 60.7357 5.60141 67.1441 5.60141ZM67.1441 0.00410319C57.8683 0.00410319 50.3489 5.37328 50.3489 11.9964C50.3489 18.6195 57.8683 23.9887 67.1441 23.9887C76.4199 23.9887 83.939 18.6195 83.939 11.9964C83.939 5.37328 76.4197 0.00410319 67.1441 0.00410319Z" fill="#0069FF"/>
</g>
<defs>
<clipPath id="clip0_5134_2259">
<rect width="110" height="24" fill="white"/>
</clipPath>
</defs>
</svg>
