<svg width="133" height="20" viewBox="0 0 133 20" fill="none" xmlns="http://www.w3.org/2000/svg">
<g clip-path="url(#clip0_5134_2249)">
<path d="M56.0728 5.88549C54.5566 5.88549 53.2 6.33822 52.0562 7.08389V0.133156H48.8376V12.9427C48.8376 16.8309 52.0828 19.9734 56.0462 19.9734C60.0096 19.9734 63.308 16.8575 63.308 12.9161C63.308 8.9747 60.116 5.88549 56.0728 5.88549ZM39.4212 6.09854C35.8568 6.44474 32.9308 9.45406 32.9308 13.0493C32.9308 16.8309 36.2558 20.0266 40.1394 20.0266C44.023 20.0266 47.348 16.8575 47.348 13.0493C47.348 11.4248 46.7628 9.96005 45.7786 8.78828L38.6764 0.159787H34.5268L39.4212 6.09854ZM14.6034 13.8482L11.6508 6.39148H9.3898L6.4638 13.8482L3.5112 6.39148H0L5.1604 19.5473H7.4214L10.5336 11.7177L13.6458 19.5473H15.9068L21.0406 6.39148H17.556L14.6034 13.8482ZM72.0328 5.91212C68.0162 5.91212 64.771 8.94807 64.771 12.8096C64.771 16.6445 67.6172 20.0266 71.8466 20.0266C74.3736 20.0266 76.4218 18.8282 77.8848 16.8043L75.3844 14.8069C74.6662 16.0852 73.2564 16.8309 71.8732 16.8309C70.0644 16.8309 68.2822 15.5792 68.1492 13.7417H78.6562V12.783C78.6296 8.73502 75.8898 5.91212 72.0328 5.91212ZM112.997 5.91212C108.98 5.91212 105.762 8.94807 105.762 12.9694C105.762 16.751 108.608 20 112.811 20C115.338 20 117.386 18.8016 118.849 16.7776L116.641 14.9401C115.87 16.1119 114.46 16.8043 112.757 16.8043C111.082 16.8043 109.246 15.5526 109.113 13.715H119.567V12.6232C119.567 8.73502 116.854 5.91212 112.997 5.91212ZM124.222 10.2264C124.222 9.4008 125.366 8.76165 126.855 8.76165C128.345 8.76165 129.994 9.48069 131.058 10.6525L133 8.33555C131.138 6.73768 129.276 5.91212 126.935 5.91212C124.009 5.91212 121.003 7.21704 121.003 10.2264C121.003 13.9281 124.275 14.1944 126.935 14.4075C128.425 14.514 129.755 14.6205 129.755 15.5792C129.755 16.6178 128.239 17.0972 126.935 17.0972C125.233 17.0972 123.61 16.3249 122.52 15.02L120.445 17.1771C122.094 19.1478 124.488 20 126.829 20C129.755 20 132.973 18.6418 132.973 15.526C132.973 12.0107 129.675 11.6644 127.148 11.4248C125.525 11.2383 124.222 11.1052 124.222 10.2264ZM83.4974 9.37417V6.39148H80.2788V19.5206H83.4974V13.9547C83.923 10.8655 86.45 9.61385 89.376 9.61385V6.39148H89.0568C86.583 6.39148 84.7742 7.27031 83.4974 9.37417ZM93.6852 9.37417V6.39148H90.4666V19.5206H93.6852V13.9547C94.1108 10.466 97.1964 9.61385 99.5638 9.61385V6.39148H99.218C96.7708 6.39148 94.962 7.24368 93.6852 9.37417ZM28.0896 19.5206H31.3082V0.159787H28.0896V19.5206ZM40.1394 16.8575C37.9316 16.8575 36.1228 15.1265 36.1228 12.9694C36.1228 10.8123 37.905 9.05459 40.1128 9.05459C42.294 9.05459 44.156 10.7856 44.156 12.9694C44.156 15.1531 42.3738 16.8575 40.1394 16.8575ZM56.0728 16.8575C53.8916 16.8575 52.0562 15.1531 52.0562 12.9427C52.0562 10.7324 53.7852 9.05459 56.0728 9.05459C58.3604 9.05459 60.116 10.7856 60.116 12.9427C60.116 15.0999 58.2806 16.8575 56.0728 16.8575ZM22.5302 19.5206H25.7488V6.39148H22.5302V19.5206ZM100.92 19.5206H104.139V6.39148H100.92V19.5206ZM24.0996 0C22.7962 0 21.7056 1.06525 21.7056 2.3968C21.7056 3.75499 22.8494 4.68708 24.0996 4.68708C25.4828 4.68708 26.5468 3.54194 26.5468 2.34354C26.5468 1.11851 25.4296 0 24.0996 0ZM102.516 0C101.213 0 100.096 1.06525 100.096 2.3968C100.096 3.72836 101.16 4.68708 102.57 4.68708C103.979 4.68708 104.937 3.75499 104.937 2.45007C104.937 1.14514 103.846 0 102.516 0ZM109.486 11.1052C110.018 9.80027 111.161 9.05459 112.837 9.05459C114.513 9.05459 115.55 9.85353 115.976 11.1052H109.486ZM68.495 11.1052C69.027 9.80027 70.1708 9.05459 71.82 9.05459C73.4958 9.05459 74.5864 9.85353 75.012 11.1052C75.0386 11.1052 68.495 11.1052 68.495 11.1052Z" fill="#E313BF"/>
</g>
<defs>
<clipPath id="clip0_5134_2249">
<rect width="133" height="20" fill="white"/>
</clipPath>
</defs>
</svg>
