<svg width="1296" height="48" viewBox="0 0 1296 48" fill="none" xmlns="http://www.w3.org/2000/svg">
<path d="M0.96 35.52L2.96 30.88C4.16 31.6 5.44 32.16 6.8 32.56C8.18667 32.9333 9.53333 33.1467 10.84 33.2C12.1733 33.2267 13.3733 33.0933 14.44 32.8C15.5333 32.5067 16.4 32.0667 17.04 31.48C17.7067 30.8933 18.04 30.1467 18.04 29.24C18.04 28.1733 17.6 27.3867 16.72 26.88C15.84 26.3467 14.6667 26.08 13.2 26.08H6.36V21.2H12.72C14.0267 21.2 15.04 20.9333 15.76 20.4C16.5067 19.8667 16.88 19.1333 16.88 18.2C16.88 17.4 16.6133 16.76 16.08 16.28C15.5467 15.7733 14.8133 15.4 13.88 15.16C12.9733 14.92 11.9467 14.8133 10.8 14.84C9.65333 14.8667 8.46667 15.0533 7.24 15.4C6.01333 15.7467 4.84 16.2267 3.72 16.84L1.76 11.84C3.57333 10.9067 5.48 10.2667 7.48 9.92C9.50667 9.54667 11.4533 9.45333 13.32 9.64C15.2133 9.8 16.92 10.2267 18.44 10.92C19.96 11.5867 21.1733 12.4667 22.08 13.56C22.9867 14.6533 23.44 15.9467 23.44 17.44C23.44 18.7733 23.0933 19.96 22.4 21C21.7067 22.04 20.7333 22.84 19.48 23.4C18.2533 23.96 16.84 24.24 15.24 24.24L15.4 22.8C17.2667 22.8 18.88 23.12 20.24 23.76C21.6267 24.3733 22.6933 25.24 23.44 26.36C24.2133 27.4533 24.6 28.72 24.6 30.16C24.6 31.4933 24.24 32.6933 23.52 33.76C22.8267 34.8 21.8667 35.68 20.64 36.4C19.4133 37.12 18.0133 37.6533 16.44 38C14.8667 38.3467 13.1867 38.4933 11.4 38.44C9.64 38.3867 7.86667 38.1333 6.08 37.68C4.29333 37.2 2.58667 36.48 0.96 35.52ZM42.13 38V33.8L41.73 32.88V25.36C41.73 24.0267 41.3167 22.9867 40.49 22.24C39.69 21.4933 38.45 21.12 36.77 21.12C35.6233 21.12 34.49 21.3067 33.37 21.68C32.2767 22.0267 31.3433 22.5067 30.57 23.12L28.33 18.76C29.5033 17.9333 30.9167 17.2933 32.57 16.84C34.2233 16.3867 35.9033 16.16 37.61 16.16C40.89 16.16 43.4367 16.9333 45.25 18.48C47.0633 20.0267 47.97 22.44 47.97 25.72V38H42.13ZM35.57 38.32C33.89 38.32 32.45 38.04 31.25 37.48C30.05 36.8933 29.13 36.1067 28.49 35.12C27.85 34.1333 27.53 33.0267 27.53 31.8C27.53 30.52 27.8367 29.4 28.45 28.44C29.09 27.48 30.09 26.7333 31.45 26.2C32.81 25.64 34.5833 25.36 36.77 25.36H42.49V29H37.45C35.9833 29 34.97 29.24 34.41 29.72C33.8767 30.2 33.61 30.8 33.61 31.52C33.61 32.32 33.9167 32.96 34.53 33.44C35.17 33.8933 36.0367 34.12 37.13 34.12C38.17 34.12 39.1033 33.88 39.93 33.4C40.7567 32.8933 41.3567 32.16 41.73 31.2L42.69 34.08C42.2367 35.4667 41.41 36.52 40.21 37.24C39.01 37.96 37.4633 38.32 35.57 38.32ZM64.0706 38.48C62.3106 38.48 60.7106 38.2267 59.2706 37.72C57.8306 37.1867 56.5773 36.3733 55.5106 35.28C54.4706 34.16 53.6573 32.7333 53.0706 31C52.5106 29.2667 52.2306 27.2 52.2306 24.8C52.2306 23.0933 52.3773 21.5333 52.6706 20.12C52.964 18.7067 53.404 17.4267 53.9906 16.28C54.5773 15.1067 55.324 14.08 56.2306 13.2C57.164 12.2933 58.244 11.5467 59.4706 10.96C60.724 10.3467 62.1373 9.88 63.7106 9.56L73.9506 7.52L74.7906 12.88L65.7506 14.68C65.2173 14.7867 64.604 14.9333 63.9106 15.12C63.244 15.28 62.564 15.5333 61.8706 15.88C61.204 16.2267 60.5773 16.72 59.9906 17.36C59.4306 17.9733 58.9773 18.7867 58.6306 19.8C58.284 20.7867 58.1106 22.0133 58.1106 23.48C58.1106 23.9333 58.124 24.28 58.1506 24.52C58.204 24.76 58.244 25.0133 58.2706 25.28C58.324 25.5467 58.3506 25.96 58.3506 26.52L56.3506 24.56C56.9373 23.3067 57.684 22.24 58.5906 21.36C59.524 20.48 60.5906 19.8133 61.7906 19.36C63.0173 18.88 64.3773 18.64 65.8706 18.64C67.8973 18.64 69.6706 19.0533 71.1906 19.88C72.7373 20.68 73.9373 21.8133 74.7906 23.28C75.644 24.7467 76.0706 26.4133 76.0706 28.28C76.0706 30.3067 75.564 32.0933 74.5506 33.64C73.5373 35.16 72.124 36.3467 70.3106 37.2C68.524 38.0533 66.444 38.48 64.0706 38.48ZM64.3906 33.64C65.4306 33.64 66.3506 33.4133 67.1506 32.96C67.9506 32.48 68.564 31.8533 68.9906 31.08C69.444 30.28 69.6706 29.3867 69.6706 28.4C69.6706 27.44 69.444 26.5867 68.9906 25.84C68.564 25.0933 67.9506 24.5067 67.1506 24.08C66.3506 23.6533 65.4173 23.44 64.3506 23.44C63.3106 23.44 62.3773 23.6533 61.5506 24.08C60.724 24.48 60.084 25.04 59.6306 25.76C59.1773 26.48 58.9506 27.32 58.9506 28.28C58.9506 29.2667 59.1773 30.1733 59.6306 31C60.1106 31.8 60.7506 32.44 61.5506 32.92C62.3773 33.4 63.324 33.64 64.3906 33.64ZM90.8247 38.32C88.3714 38.32 86.2114 37.84 84.3447 36.88C82.5047 35.92 81.078 34.6133 80.0647 32.96C79.0514 31.28 78.5447 29.3733 78.5447 27.24C78.5447 25.08 79.038 23.1733 80.0247 21.52C81.038 19.84 82.4114 18.5333 84.1447 17.6C85.878 16.64 87.838 16.16 90.0247 16.16C92.1314 16.16 94.0247 16.6133 95.7047 17.52C97.4114 18.4 98.758 19.68 99.7447 21.36C100.731 23.0133 101.225 25 101.225 27.32C101.225 27.56 101.211 27.84 101.185 28.16C101.158 28.4533 101.131 28.7333 101.105 29H83.6247V25.36H97.8247L95.4247 26.44C95.4247 25.32 95.198 24.3467 94.7447 23.52C94.2914 22.6933 93.6647 22.0533 92.8647 21.6C92.0647 21.12 91.1314 20.88 90.0647 20.88C88.998 20.88 88.0514 21.12 87.2247 21.6C86.4247 22.0533 85.798 22.7067 85.3447 23.56C84.8914 24.3867 84.6647 25.3733 84.6647 26.52V27.48C84.6647 28.6533 84.918 29.6933 85.4247 30.6C85.958 31.48 86.6914 32.16 87.6247 32.64C88.5847 33.0933 89.7047 33.32 90.9847 33.32C92.1314 33.32 93.1314 33.1467 93.9847 32.8C94.8647 32.4533 95.6647 31.9333 96.3847 31.24L99.7047 34.84C98.718 35.96 97.478 36.8267 95.9847 37.44C94.4914 38.0267 92.7714 38.32 90.8247 38.32ZM118.688 38.32C116.874 38.32 115.288 37.92 113.928 37.12C112.568 36.32 111.501 35.1067 110.728 33.48C109.981 31.8267 109.608 29.7467 109.608 27.24C109.608 24.7067 109.968 22.6267 110.688 21C111.408 19.3733 112.448 18.16 113.808 17.36C115.168 16.56 116.794 16.16 118.688 16.16C120.714 16.16 122.528 16.6267 124.128 17.56C125.754 18.4667 127.034 19.7467 127.968 21.4C128.928 23.0533 129.408 25 129.408 27.24C129.408 29.5067 128.928 31.4667 127.968 33.12C127.034 34.7733 125.754 36.0533 124.128 36.96C122.528 37.8667 120.714 38.32 118.688 38.32ZM105.968 45.76V16.48H111.928V20.88L111.808 27.28L112.208 33.64V45.76H105.968ZM117.608 33.2C118.648 33.2 119.568 32.96 120.368 32.48C121.194 32 121.848 31.32 122.328 30.44C122.834 29.5333 123.088 28.4667 123.088 27.24C123.088 25.9867 122.834 24.92 122.328 24.04C121.848 23.16 121.194 22.48 120.368 22C119.568 21.52 118.648 21.28 117.608 21.28C116.568 21.28 115.634 21.52 114.808 22C113.981 22.48 113.328 23.16 112.848 24.04C112.368 24.92 112.128 25.9867 112.128 27.24C112.128 28.4667 112.368 29.5333 112.848 30.44C113.328 31.32 113.981 32 114.808 32.48C115.634 32.96 116.568 33.2 117.608 33.2ZM133.781 38V16.48H139.981V29.28L150.461 16.48H156.181V38H149.981V25.2L139.541 38H133.781ZM166.78 38V20.16L168.18 21.6H159.5V16.48H180.26V21.6H171.58L172.98 20.16V38H166.78ZM193.208 38.32C190.754 38.32 188.594 37.84 186.728 36.88C184.888 35.92 183.461 34.6133 182.448 32.96C181.434 31.28 180.928 29.3733 180.928 27.24C180.928 25.08 181.421 23.1733 182.408 21.52C183.421 19.84 184.794 18.5333 186.528 17.6C188.261 16.64 190.221 16.16 192.408 16.16C194.514 16.16 196.408 16.6133 198.088 17.52C199.794 18.4 201.141 19.68 202.128 21.36C203.114 23.0133 203.608 25 203.608 27.32C203.608 27.56 203.594 27.84 203.568 28.16C203.541 28.4533 203.514 28.7333 203.488 29H186.008V25.36H200.208L197.808 26.44C197.808 25.32 197.581 24.3467 197.128 23.52C196.674 22.6933 196.048 22.0533 195.248 21.6C194.448 21.12 193.514 20.88 192.448 20.88C191.381 20.88 190.434 21.12 189.608 21.6C188.808 22.0533 188.181 22.7067 187.728 23.56C187.274 24.3867 187.048 25.3733 187.048 26.52V27.48C187.048 28.6533 187.301 29.6933 187.808 30.6C188.341 31.48 189.074 32.16 190.008 32.64C190.968 33.0933 192.088 33.32 193.368 33.32C194.514 33.32 195.514 33.1467 196.368 32.8C197.248 32.4533 198.048 31.9333 198.768 31.24L202.088 34.84C201.101 35.96 199.861 36.8267 198.368 37.44C196.874 38.0267 195.154 38.32 193.208 38.32ZM226.999 38.4C225.345 38.4 223.692 38.2267 222.039 37.88C220.412 37.5333 218.905 37.0133 217.519 36.32L219.199 31.96C220.292 32.4933 221.479 32.9067 222.759 33.2C224.065 33.4667 225.385 33.6 226.719 33.6C227.679 33.6 228.505 33.5067 229.199 33.32C229.919 33.1067 230.465 32.8133 230.839 32.44C231.212 32.0667 231.399 31.6133 231.399 31.08C231.399 30.3867 231.105 29.8667 230.519 29.52C229.932 29.1467 229.079 28.96 227.959 28.96H223.559V25.08H227.439C228.159 25.08 228.772 25 229.279 24.84C229.785 24.68 230.159 24.4533 230.399 24.16C230.665 23.84 230.799 23.4667 230.799 23.04C230.799 22.5867 230.639 22.2 230.319 21.88C229.999 21.56 229.532 21.32 228.919 21.16C228.305 20.9733 227.532 20.88 226.599 20.88C225.532 20.88 224.425 21.0133 223.279 21.28C222.132 21.52 220.959 21.88 219.759 22.36L218.239 18.04C219.652 17.4533 221.052 16.9867 222.439 16.64C223.825 16.2933 225.199 16.1067 226.559 16.08C228.559 16.0267 230.359 16.24 231.959 16.72C233.559 17.2 234.812 17.8933 235.719 18.8C236.652 19.7067 237.119 20.8133 237.119 22.12C237.119 23.16 236.799 24.0933 236.159 24.92C235.545 25.7467 234.692 26.4 233.599 26.88C232.505 27.3333 231.279 27.56 229.919 27.56L230.079 26.32C232.452 26.32 234.319 26.8 235.679 27.76C237.039 28.6933 237.719 29.9733 237.719 31.6C237.719 32.9867 237.239 34.2 236.279 35.24C235.345 36.2533 234.065 37.04 232.439 37.6C230.839 38.1333 229.025 38.4 226.999 38.4ZM255.06 38V33.8L254.66 32.88V25.36C254.66 24.0267 254.246 22.9867 253.42 22.24C252.62 21.4933 251.38 21.12 249.7 21.12C248.553 21.12 247.42 21.3067 246.3 21.68C245.206 22.0267 244.273 22.5067 243.5 23.12L241.26 18.76C242.433 17.9333 243.846 17.2933 245.5 16.84C247.153 16.3867 248.833 16.16 250.54 16.16C253.82 16.16 256.366 16.9333 258.18 18.48C259.993 20.0267 260.9 22.44 260.9 25.72V38H255.06ZM248.5 38.32C246.82 38.32 245.38 38.04 244.18 37.48C242.98 36.8933 242.06 36.1067 241.42 35.12C240.78 34.1333 240.46 33.0267 240.46 31.8C240.46 30.52 240.766 29.4 241.38 28.44C242.02 27.48 243.02 26.7333 244.38 26.2C245.74 25.64 247.513 25.36 249.7 25.36H255.42V29H250.38C248.913 29 247.9 29.24 247.34 29.72C246.806 30.2 246.54 30.8 246.54 31.52C246.54 32.32 246.846 32.96 247.46 33.44C248.1 33.8933 248.966 34.12 250.06 34.12C251.1 34.12 252.033 33.88 252.86 33.4C253.686 32.8933 254.286 32.16 254.66 31.2L255.62 34.08C255.166 35.4667 254.34 36.52 253.14 37.24C251.94 37.96 250.393 38.32 248.5 38.32ZM281.56 38L274.36 27.8L279.44 24.8L288.92 38H281.56ZM266.32 38V16.48H272.56V38H266.32ZM270.72 29.84V24.84H278.24V29.84H270.72ZM280.04 27.96L274.2 27.32L281.76 16.48H288.4L280.04 27.96ZM304.474 38V33.8L304.074 32.88V25.36C304.074 24.0267 303.66 22.9867 302.834 22.24C302.034 21.4933 300.794 21.12 299.114 21.12C297.967 21.12 296.834 21.3067 295.714 21.68C294.62 22.0267 293.687 22.5067 292.914 23.12L290.674 18.76C291.847 17.9333 293.26 17.2933 294.914 16.84C296.567 16.3867 298.247 16.16 299.954 16.16C303.234 16.16 305.78 16.9333 307.594 18.48C309.407 20.0267 310.314 22.44 310.314 25.72V38H304.474ZM297.914 38.32C296.234 38.32 294.794 38.04 293.594 37.48C292.394 36.8933 291.474 36.1067 290.834 35.12C290.194 34.1333 289.874 33.0267 289.874 31.8C289.874 30.52 290.18 29.4 290.794 28.44C291.434 27.48 292.434 26.7333 293.794 26.2C295.154 25.64 296.927 25.36 299.114 25.36H304.834V29H299.794C298.327 29 297.314 29.24 296.754 29.72C296.22 30.2 295.954 30.8 295.954 31.52C295.954 32.32 296.26 32.96 296.874 33.44C297.514 33.8933 298.38 34.12 299.474 34.12C300.514 34.12 301.447 33.88 302.274 33.4C303.1 32.8933 303.7 32.16 304.074 31.2L305.034 34.08C304.58 35.4667 303.754 36.52 302.554 37.24C301.354 37.96 299.807 38.32 297.914 38.32ZM322.819 38.4C321.166 38.4 319.512 38.2267 317.859 37.88C316.232 37.5333 314.726 37.0133 313.339 36.32L315.019 31.96C316.112 32.4933 317.299 32.9067 318.579 33.2C319.886 33.4667 321.206 33.6 322.539 33.6C323.499 33.6 324.326 33.5067 325.019 33.32C325.739 33.1067 326.286 32.8133 326.659 32.44C327.032 32.0667 327.219 31.6133 327.219 31.08C327.219 30.3867 326.926 29.8667 326.339 29.52C325.752 29.1467 324.899 28.96 323.779 28.96H319.379V25.08H323.259C323.979 25.08 324.592 25 325.099 24.84C325.606 24.68 325.979 24.4533 326.219 24.16C326.486 23.84 326.619 23.4667 326.619 23.04C326.619 22.5867 326.459 22.2 326.139 21.88C325.819 21.56 325.352 21.32 324.739 21.16C324.126 20.9733 323.352 20.88 322.419 20.88C321.352 20.88 320.246 21.0133 319.099 21.28C317.952 21.52 316.779 21.88 315.579 22.36L314.059 18.04C315.472 17.4533 316.872 16.9867 318.259 16.64C319.646 16.2933 321.019 16.1067 322.379 16.08C324.379 16.0267 326.179 16.24 327.779 16.72C329.379 17.2 330.632 17.8933 331.539 18.8C332.472 19.7067 332.939 20.8133 332.939 22.12C332.939 23.16 332.619 24.0933 331.979 24.92C331.366 25.7467 330.512 26.4 329.419 26.88C328.326 27.3333 327.099 27.56 325.739 27.56L325.899 26.32C328.272 26.32 330.139 26.8 331.499 27.76C332.859 28.6933 333.539 29.9733 333.539 31.6C333.539 32.9867 333.059 34.2 332.099 35.24C331.166 36.2533 329.886 37.04 328.259 37.6C326.659 38.1333 324.846 38.4 322.819 38.4ZM336.8 44.16L339.44 34.56L340.32 38.16C339.173 38.16 338.227 37.8267 337.48 37.16C336.76 36.4933 336.4 35.5733 336.4 34.4C336.4 33.2267 336.773 32.2933 337.52 31.6C338.267 30.9067 339.187 30.56 340.28 30.56C341.4 30.56 342.32 30.92 343.04 31.64C343.76 32.3333 344.12 33.2533 344.12 34.4C344.12 34.7467 344.093 35.0933 344.04 35.44C343.987 35.76 343.88 36.16 343.72 36.64C343.587 37.0933 343.36 37.68 343.04 38.4L340.76 44.16H336.8ZM359.797 38V16.48H377.037V21.6H364.597L365.997 20.24V38H359.797ZM393.581 35.2V21.6H386.541L386.421 24.36C386.368 25.5067 386.301 26.6 386.221 27.64C386.141 28.68 385.981 29.6267 385.741 30.48C385.528 31.3067 385.208 32.0133 384.781 32.6C384.355 33.16 383.781 33.5467 383.061 33.76L376.901 32.88C377.675 32.88 378.301 32.6533 378.781 32.2C379.261 31.72 379.635 31.0667 379.901 30.24C380.168 29.3867 380.368 28.4267 380.501 27.36C380.635 26.2667 380.728 25.12 380.781 23.92L381.061 16.48H399.821V35.2H393.581ZM376.181 42.64V32.88H402.901V42.64H397.101V38H381.981V42.64H376.181ZM417.348 38.32C414.895 38.32 412.735 37.84 410.868 36.88C409.028 35.92 407.601 34.6133 406.588 32.96C405.575 31.28 405.068 29.3733 405.068 27.24C405.068 25.08 405.561 23.1733 406.548 21.52C407.561 19.84 408.935 18.5333 410.668 17.6C412.401 16.64 414.361 16.16 416.548 16.16C418.655 16.16 420.548 16.6133 422.228 17.52C423.935 18.4 425.281 19.68 426.268 21.36C427.255 23.0133 427.748 25 427.748 27.32C427.748 27.56 427.735 27.84 427.708 28.16C427.681 28.4533 427.655 28.7333 427.628 29H410.148V25.36H424.348L421.948 26.44C421.948 25.32 421.721 24.3467 421.268 23.52C420.815 22.6933 420.188 22.0533 419.388 21.6C418.588 21.12 417.655 20.88 416.588 20.88C415.521 20.88 414.575 21.12 413.748 21.6C412.948 22.0533 412.321 22.7067 411.868 23.56C411.415 24.3867 411.188 25.3733 411.188 26.52V27.48C411.188 28.6533 411.441 29.6933 411.948 30.6C412.481 31.48 413.215 32.16 414.148 32.64C415.108 33.0933 416.228 33.32 417.508 33.32C418.655 33.32 419.655 33.1467 420.508 32.8C421.388 32.4533 422.188 31.9333 422.908 31.24L426.228 34.84C425.241 35.96 424.001 36.8267 422.508 37.44C421.015 38.0267 419.295 38.32 417.348 38.32ZM446.779 46.08C445.659 46.08 444.553 45.9067 443.459 45.56C442.366 45.2133 441.473 44.7333 440.779 44.12L443.059 39.68C443.539 40.1067 444.086 40.44 444.699 40.68C445.339 40.92 445.966 41.04 446.579 41.04C447.459 41.04 448.153 40.8267 448.659 40.4C449.193 40 449.673 39.32 450.099 38.36L451.219 35.72L451.699 35.04L459.419 16.48H465.419L455.699 39.32C455.006 41.0533 454.206 42.4133 453.299 43.4C452.419 44.3867 451.433 45.08 450.339 45.48C449.273 45.88 448.086 46.08 446.779 46.08ZM450.459 38.84L440.859 16.48H447.299L454.739 34.48L450.459 38.84ZM481.706 35.2V21.6H474.666L474.546 24.36C474.493 25.5067 474.426 26.6 474.346 27.64C474.266 28.68 474.106 29.6267 473.866 30.48C473.653 31.3067 473.333 32.0133 472.906 32.6C472.48 33.16 471.906 33.5467 471.186 33.76L465.026 32.88C465.8 32.88 466.426 32.6533 466.906 32.2C467.386 31.72 467.76 31.0667 468.026 30.24C468.293 29.3867 468.493 28.4267 468.626 27.36C468.76 26.2667 468.853 25.12 468.906 23.92L469.186 16.48H487.946V35.2H481.706ZM464.306 42.64V32.88H491.026V42.64H485.226V38H470.106V42.64H464.306ZM505.033 38.32C502.74 38.32 500.7 37.84 498.913 36.88C497.153 35.92 495.753 34.6133 494.713 32.96C493.7 31.28 493.193 29.3733 493.193 27.24C493.193 25.08 493.7 23.1733 494.713 21.52C495.753 19.84 497.153 18.5333 498.913 17.6C500.7 16.64 502.74 16.16 505.033 16.16C507.3 16.16 509.326 16.64 511.113 17.6C512.9 18.5333 514.3 19.8267 515.313 21.48C516.326 23.1333 516.833 25.0533 516.833 27.24C516.833 29.3733 516.326 31.28 515.313 32.96C514.3 34.6133 512.9 35.92 511.113 36.88C509.326 37.84 507.3 38.32 505.033 38.32ZM505.033 33.2C506.073 33.2 507.006 32.96 507.833 32.48C508.66 32 509.313 31.32 509.793 30.44C510.273 29.5333 510.513 28.4667 510.513 27.24C510.513 25.9867 510.273 24.92 509.793 24.04C509.313 23.16 508.66 22.48 507.833 22C507.006 21.52 506.073 21.28 505.033 21.28C503.993 21.28 503.06 21.52 502.233 22C501.406 22.48 500.74 23.16 500.233 24.04C499.753 24.92 499.513 25.9867 499.513 27.24C499.513 28.4667 499.753 29.5333 500.233 30.44C500.74 31.32 501.406 32 502.233 32.48C503.06 32.96 503.993 33.2 505.033 33.2ZM531.805 38.48C530.045 38.48 528.445 38.2267 527.005 37.72C525.565 37.1867 524.312 36.3733 523.245 35.28C522.205 34.16 521.392 32.7333 520.805 31C520.245 29.2667 519.965 27.2 519.965 24.8C519.965 23.0933 520.112 21.5333 520.405 20.12C520.698 18.7067 521.138 17.4267 521.725 16.28C522.312 15.1067 523.058 14.08 523.965 13.2C524.898 12.2933 525.978 11.5467 527.205 10.96C528.458 10.3467 529.872 9.88 531.445 9.56L541.685 7.52L542.525 12.88L533.485 14.68C532.952 14.7867 532.338 14.9333 531.645 15.12C530.978 15.28 530.298 15.5333 529.605 15.88C528.938 16.2267 528.312 16.72 527.725 17.36C527.165 17.9733 526.712 18.7867 526.365 19.8C526.018 20.7867 525.845 22.0133 525.845 23.48C525.845 23.9333 525.858 24.28 525.885 24.52C525.938 24.76 525.978 25.0133 526.005 25.28C526.058 25.5467 526.085 25.96 526.085 26.52L524.085 24.56C524.672 23.3067 525.418 22.24 526.325 21.36C527.258 20.48 528.325 19.8133 529.525 19.36C530.752 18.88 532.112 18.64 533.605 18.64C535.632 18.64 537.405 19.0533 538.925 19.88C540.472 20.68 541.672 21.8133 542.525 23.28C543.378 24.7467 543.805 26.4133 543.805 28.28C543.805 30.3067 543.298 32.0933 542.285 33.64C541.272 35.16 539.858 36.3467 538.045 37.2C536.258 38.0533 534.178 38.48 531.805 38.48ZM532.125 33.64C533.165 33.64 534.085 33.4133 534.885 32.96C535.685 32.48 536.298 31.8533 536.725 31.08C537.178 30.28 537.405 29.3867 537.405 28.4C537.405 27.44 537.178 26.5867 536.725 25.84C536.298 25.0933 535.685 24.5067 534.885 24.08C534.085 23.6533 533.152 23.44 532.085 23.44C531.045 23.44 530.112 23.6533 529.285 24.08C528.458 24.48 527.818 25.04 527.365 25.76C526.912 26.48 526.685 27.32 526.685 28.28C526.685 29.2667 526.912 30.1733 527.365 31C527.845 31.8 528.485 32.44 529.285 32.92C530.112 33.4 531.058 33.64 532.125 33.64ZM548.039 38V16.48H554.239V24.88H563.599V16.48H569.839V38H563.599V29.96H554.239V38H548.039ZM585.893 38.32C583.599 38.32 581.559 37.84 579.773 36.88C578.013 35.92 576.613 34.6133 575.573 32.96C574.559 31.28 574.053 29.3733 574.053 27.24C574.053 25.08 574.559 23.1733 575.573 21.52C576.613 19.84 578.013 18.5333 579.773 17.6C581.559 16.64 583.599 16.16 585.893 16.16C588.159 16.16 590.186 16.64 591.973 17.6C593.759 18.5333 595.159 19.8267 596.173 21.48C597.186 23.1333 597.693 25.0533 597.693 27.24C597.693 29.3733 597.186 31.28 596.173 32.96C595.159 34.6133 593.759 35.92 591.973 36.88C590.186 37.84 588.159 38.32 585.893 38.32ZM585.893 33.2C586.933 33.2 587.866 32.96 588.693 32.48C589.519 32 590.173 31.32 590.653 30.44C591.133 29.5333 591.373 28.4667 591.373 27.24C591.373 25.9867 591.133 24.92 590.653 24.04C590.173 23.16 589.519 22.48 588.693 22C587.866 21.52 586.933 21.28 585.893 21.28C584.853 21.28 583.919 21.52 583.092 22C582.266 22.48 581.599 23.16 581.093 24.04C580.613 24.92 580.373 25.9867 580.373 27.24C580.373 28.4667 580.613 29.5333 581.093 30.44C581.599 31.32 582.266 32 583.092 32.48C583.919 32.96 584.853 33.2 585.893 33.2ZM613.313 38V16.48H624.313C627.006 16.48 629.113 16.9733 630.633 17.96C632.153 18.92 632.912 20.28 632.912 22.04C632.912 23.8 632.193 25.1867 630.753 26.2C629.339 27.1867 627.459 27.68 625.113 27.68L625.753 26.24C628.366 26.24 630.313 26.72 631.593 27.68C632.899 28.64 633.553 30.04 633.553 31.88C633.553 33.7733 632.833 35.2667 631.393 36.36C629.953 37.4533 627.753 38 624.793 38H613.313ZM619.033 33.76H624.273C625.419 33.76 626.273 33.5733 626.833 33.2C627.419 32.8 627.713 32.2 627.713 31.4C627.713 30.5733 627.446 29.9733 626.913 29.6C626.379 29.2 625.539 29 624.393 29H619.033V33.76ZM619.033 25.32H623.753C624.846 25.32 625.659 25.12 626.193 24.72C626.753 24.32 627.033 23.7467 627.033 23C627.033 22.2267 626.753 21.6533 626.193 21.28C625.659 20.9067 624.846 20.72 623.753 20.72H619.033V25.32ZM655.243 8.32L652.603 17.92L651.723 14.32C652.87 14.32 653.803 14.6533 654.523 15.32C655.243 15.9867 655.603 16.9067 655.603 18.08C655.603 19.2267 655.23 20.16 654.483 20.88C653.763 21.5733 652.857 21.92 651.763 21.92C650.643 21.92 649.71 21.5733 648.963 20.88C648.243 20.16 647.883 19.2267 647.883 18.08C647.883 17.7333 647.91 17.4 647.963 17.08C648.017 16.7333 648.123 16.3333 648.283 15.88C648.443 15.4267 648.67 14.8267 648.963 14.08L651.283 8.32H655.243ZM664.683 8.32L662.043 17.92L661.163 14.32C662.31 14.32 663.243 14.6533 663.963 15.32C664.683 15.9867 665.043 16.9067 665.043 18.08C665.043 19.2267 664.67 20.16 663.923 20.88C663.203 21.5733 662.297 21.92 661.203 21.92C660.083 21.92 659.15 21.5733 658.403 20.88C657.683 20.16 657.323 19.2267 657.323 18.08C657.323 17.7333 657.35 17.4 657.403 17.08C657.457 16.7333 657.563 16.3333 657.723 15.88C657.883 15.4267 658.11 14.8267 658.403 14.08L660.723 8.32H664.683ZM670.656 38V16.48H676.856V24.88H686.216V16.48H692.456V38H686.216V29.96H676.856V38H670.656ZM711.31 38V33.8L710.91 32.88V25.36C710.91 24.0267 710.496 22.9867 709.67 22.24C708.87 21.4933 707.63 21.12 705.95 21.12C704.803 21.12 703.67 21.3067 702.55 21.68C701.456 22.0267 700.523 22.5067 699.75 23.12L697.51 18.76C698.683 17.9333 700.096 17.2933 701.75 16.84C703.403 16.3867 705.083 16.16 706.79 16.16C710.07 16.16 712.616 16.9333 714.43 18.48C716.243 20.0267 717.15 22.44 717.15 25.72V38H711.31ZM704.75 38.32C703.07 38.32 701.63 38.04 700.43 37.48C699.23 36.8933 698.31 36.1067 697.67 35.12C697.03 34.1333 696.71 33.0267 696.71 31.8C696.71 30.52 697.016 29.4 697.63 28.44C698.27 27.48 699.27 26.7333 700.63 26.2C701.99 25.64 703.763 25.36 705.95 25.36H711.67V29H706.63C705.163 29 704.15 29.24 703.59 29.72C703.056 30.2 702.79 30.8 702.79 31.52C702.79 32.32 703.096 32.96 703.71 33.44C704.35 33.8933 705.216 34.12 706.31 34.12C707.35 34.12 708.283 33.88 709.11 33.4C709.936 32.8933 710.536 32.16 710.91 31.2L711.87 34.08C711.416 35.4667 710.59 36.52 709.39 37.24C708.19 37.96 706.643 38.32 704.75 38.32ZM729.655 38.4C728.002 38.4 726.348 38.2267 724.695 37.88C723.068 37.5333 721.562 37.0133 720.175 36.32L721.855 31.96C722.948 32.4933 724.135 32.9067 725.415 33.2C726.722 33.4667 728.042 33.6 729.375 33.6C730.335 33.6 731.162 33.5067 731.855 33.32C732.575 33.1067 733.122 32.8133 733.495 32.44C733.868 32.0667 734.055 31.6133 734.055 31.08C734.055 30.3867 733.762 29.8667 733.175 29.52C732.588 29.1467 731.735 28.96 730.615 28.96H726.215V25.08H730.095C730.815 25.08 731.428 25 731.935 24.84C732.442 24.68 732.815 24.4533 733.055 24.16C733.322 23.84 733.455 23.4667 733.455 23.04C733.455 22.5867 733.295 22.2 732.975 21.88C732.655 21.56 732.188 21.32 731.575 21.16C730.962 20.9733 730.188 20.88 729.255 20.88C728.188 20.88 727.082 21.0133 725.935 21.28C724.788 21.52 723.615 21.88 722.415 22.36L720.895 18.04C722.308 17.4533 723.708 16.9867 725.095 16.64C726.482 16.2933 727.855 16.1067 729.215 16.08C731.215 16.0267 733.015 16.24 734.615 16.72C736.215 17.2 737.468 17.8933 738.375 18.8C739.308 19.7067 739.775 20.8133 739.775 22.12C739.775 23.16 739.455 24.0933 738.815 24.92C738.202 25.7467 737.348 26.4 736.255 26.88C735.162 27.3333 733.935 27.56 732.575 27.56L732.735 26.32C735.108 26.32 736.975 26.8 738.335 27.76C739.695 28.6933 740.375 29.9733 740.375 31.6C740.375 32.9867 739.895 34.2 738.935 35.24C738.002 36.2533 736.722 37.04 735.095 37.6C733.495 38.1333 731.682 38.4 729.655 38.4ZM744.836 38V16.48H755.836C758.529 16.48 760.636 16.9733 762.156 17.96C763.676 18.92 764.436 20.28 764.436 22.04C764.436 23.8 763.716 25.1867 762.276 26.2C760.863 27.1867 758.983 27.68 756.636 27.68L757.276 26.24C759.889 26.24 761.836 26.72 763.116 27.68C764.423 28.64 765.076 30.04 765.076 31.88C765.076 33.7733 764.356 35.2667 762.916 36.36C761.476 37.4533 759.276 38 756.316 38H744.836ZM750.556 33.76H755.796C756.943 33.76 757.796 33.5733 758.356 33.2C758.943 32.8 759.236 32.2 759.236 31.4C759.236 30.5733 758.969 29.9733 758.436 29.6C757.903 29.2 757.063 29 755.916 29H750.556V33.76ZM750.556 25.32H755.276C756.369 25.32 757.183 25.12 757.716 24.72C758.276 24.32 758.556 23.7467 758.556 23C758.556 22.2267 758.276 21.6533 757.716 21.28C757.183 20.9067 756.369 20.72 755.276 20.72H750.556V25.32ZM782.599 38V33.8L782.199 32.88V25.36C782.199 24.0267 781.785 22.9867 780.959 22.24C780.159 21.4933 778.919 21.12 777.239 21.12C776.092 21.12 774.959 21.3067 773.839 21.68C772.745 22.0267 771.812 22.5067 771.039 23.12L768.799 18.76C769.972 17.9333 771.385 17.2933 773.039 16.84C774.692 16.3867 776.372 16.16 778.079 16.16C781.359 16.16 783.905 16.9333 785.719 18.48C787.532 20.0267 788.439 22.44 788.439 25.72V38H782.599ZM776.039 38.32C774.359 38.32 772.919 38.04 771.719 37.48C770.519 36.8933 769.599 36.1067 768.959 35.12C768.319 34.1333 767.999 33.0267 767.999 31.8C767.999 30.52 768.305 29.4 768.919 28.44C769.559 27.48 770.559 26.7333 771.919 26.2C773.279 25.64 775.052 25.36 777.239 25.36H782.959V29H777.919C776.452 29 775.439 29.24 774.879 29.72C774.345 30.2 774.079 30.8 774.079 31.52C774.079 32.32 774.385 32.96 774.999 33.44C775.639 33.8933 776.505 34.12 777.599 34.12C778.639 34.12 779.572 33.88 780.399 33.4C781.225 32.8933 781.825 32.16 782.199 31.2L783.159 34.08C782.705 35.4667 781.879 36.52 780.679 37.24C779.479 37.96 777.932 38.32 776.039 38.32ZM793.859 38V16.48H800.059V24.88H809.419V16.48H815.659V38H809.419V29.96H800.059V38H793.859ZM821.633 38V16.48H827.833V29.28L838.313 16.48H844.033V38H837.833V25.2L827.393 38H821.633ZM860.551 38.32C858.098 38.32 855.938 37.84 854.071 36.88C852.231 35.92 850.805 34.6133 849.791 32.96C848.778 31.28 848.271 29.3733 848.271 27.24C848.271 25.08 848.765 23.1733 849.751 21.52C850.765 19.84 852.138 18.5333 853.871 17.6C855.605 16.64 857.565 16.16 859.751 16.16C861.858 16.16 863.751 16.6133 865.431 17.52C867.138 18.4 868.485 19.68 869.471 21.36C870.458 23.0133 870.951 25 870.951 27.32C870.951 27.56 870.938 27.84 870.911 28.16C870.885 28.4533 870.858 28.7333 870.831 29H853.351V25.36H867.551L865.151 26.44C865.151 25.32 864.925 24.3467 864.471 23.52C864.018 22.6933 863.391 22.0533 862.591 21.6C861.791 21.12 860.858 20.88 859.791 20.88C858.725 20.88 857.778 21.12 856.951 21.6C856.151 22.0533 855.525 22.7067 855.071 23.56C854.618 24.3867 854.391 25.3733 854.391 26.52V27.48C854.391 28.6533 854.645 29.6933 855.151 30.6C855.685 31.48 856.418 32.16 857.351 32.64C858.311 33.0933 859.431 33.32 860.711 33.32C861.858 33.32 862.858 33.1467 863.711 32.8C864.591 32.4533 865.391 31.9333 866.111 31.24L869.431 34.84C868.445 35.96 867.205 36.8267 865.711 37.44C864.218 38.0267 862.498 38.32 860.551 38.32ZM887.063 38V16.48H904.303V21.6H891.863L893.263 20.24V38H887.063ZM916.791 38.32C914.498 38.32 912.458 37.84 910.671 36.88C908.911 35.92 907.511 34.6133 906.471 32.96C905.458 31.28 904.951 29.3733 904.951 27.24C904.951 25.08 905.458 23.1733 906.471 21.52C907.511 19.84 908.911 18.5333 910.671 17.6C912.458 16.64 914.498 16.16 916.791 16.16C919.058 16.16 921.084 16.64 922.871 17.6C924.658 18.5333 926.058 19.8267 927.071 21.48C928.084 23.1333 928.591 25.0533 928.591 27.24C928.591 29.3733 928.084 31.28 927.071 32.96C926.058 34.6133 924.658 35.92 922.871 36.88C921.084 37.84 919.058 38.32 916.791 38.32ZM916.791 33.2C917.831 33.2 918.764 32.96 919.591 32.48C920.418 32 921.071 31.32 921.551 30.44C922.031 29.5333 922.271 28.4667 922.271 27.24C922.271 25.9867 922.031 24.92 921.551 24.04C921.071 23.16 920.418 22.48 919.591 22C918.764 21.52 917.831 21.28 916.791 21.28C915.751 21.28 914.818 21.52 913.991 22C913.164 22.48 912.498 23.16 911.991 24.04C911.511 24.92 911.271 25.9867 911.271 27.24C911.271 28.4667 911.511 29.5333 911.991 30.44C912.498 31.32 913.164 32 913.991 32.48C914.818 32.96 915.751 33.2 916.791 33.2ZM945.563 38.32C943.749 38.32 942.163 37.92 940.803 37.12C939.443 36.32 938.376 35.1067 937.603 33.48C936.856 31.8267 936.483 29.7467 936.483 27.24C936.483 24.7067 936.843 22.6267 937.563 21C938.283 19.3733 939.323 18.16 940.683 17.36C942.043 16.56 943.669 16.16 945.563 16.16C947.589 16.16 949.403 16.6267 951.003 17.56C952.629 18.4667 953.909 19.7467 954.843 21.4C955.803 23.0533 956.283 25 956.283 27.24C956.283 29.5067 955.803 31.4667 954.843 33.12C953.909 34.7733 952.629 36.0533 951.003 36.96C949.403 37.8667 947.589 38.32 945.563 38.32ZM932.843 45.76V16.48H938.803V20.88L938.683 27.28L939.083 33.64V45.76H932.843ZM944.483 33.2C945.523 33.2 946.443 32.96 947.243 32.48C948.069 32 948.723 31.32 949.203 30.44C949.709 29.5333 949.963 28.4667 949.963 27.24C949.963 25.9867 949.709 24.92 949.203 24.04C948.723 23.16 948.069 22.48 947.243 22C946.443 21.52 945.523 21.28 944.483 21.28C943.443 21.28 942.509 21.52 941.683 22C940.856 22.48 940.203 23.16 939.723 24.04C939.243 24.92 939.003 25.9867 939.003 27.24C939.003 28.4667 939.243 29.5333 939.723 30.44C940.203 31.32 940.856 32 941.683 32.48C942.509 32.96 943.443 33.2 944.483 33.2ZM970.736 38.32C968.443 38.32 966.403 37.84 964.616 36.88C962.856 35.92 961.456 34.6133 960.416 32.96C959.403 31.28 958.896 29.3733 958.896 27.24C958.896 25.08 959.403 23.1733 960.416 21.52C961.456 19.84 962.856 18.5333 964.616 17.6C966.403 16.64 968.443 16.16 970.736 16.16C973.003 16.16 975.03 16.64 976.816 17.6C978.603 18.5333 980.003 19.8267 981.016 21.48C982.03 23.1333 982.536 25.0533 982.536 27.24C982.536 29.3733 982.03 31.28 981.016 32.96C980.003 34.6133 978.603 35.92 976.816 36.88C975.03 37.84 973.003 38.32 970.736 38.32ZM970.736 33.2C971.776 33.2 972.71 32.96 973.536 32.48C974.363 32 975.016 31.32 975.496 30.44C975.976 29.5333 976.216 28.4667 976.216 27.24C976.216 25.9867 975.976 24.92 975.496 24.04C975.016 23.16 974.363 22.48 973.536 22C972.71 21.52 971.776 21.28 970.736 21.28C969.696 21.28 968.763 21.52 967.936 22C967.11 22.48 966.443 23.16 965.936 24.04C965.456 24.92 965.216 25.9867 965.216 27.24C965.216 28.4667 965.456 29.5333 965.936 30.44C966.443 31.32 967.11 32 967.936 32.48C968.763 32.96 969.696 33.2 970.736 33.2ZM1001.32 35.2V21.6H994.276L994.156 24.36C994.102 25.5067 994.036 26.6 993.956 27.64C993.876 28.68 993.716 29.6267 993.476 30.48C993.262 31.3067 992.942 32.0133 992.516 32.6C992.089 33.16 991.516 33.5467 990.796 33.76L984.636 32.88C985.409 32.88 986.036 32.6533 986.516 32.2C986.996 31.72 987.369 31.0667 987.636 30.24C987.902 29.3867 988.102 28.4267 988.236 27.36C988.369 26.2667 988.462 25.12 988.516 23.92L988.796 16.48H1007.56V35.2H1001.32ZM983.916 42.64V32.88H1010.64V42.64H1004.84V38H989.716V42.64H983.916ZM1027.44 38V33.8L1027.04 32.88V25.36C1027.04 24.0267 1026.63 22.9867 1025.8 22.24C1025 21.4933 1023.76 21.12 1022.08 21.12C1020.94 21.12 1019.8 21.3067 1018.68 21.68C1017.59 22.0267 1016.66 22.5067 1015.88 23.12L1013.64 18.76C1014.82 17.9333 1016.23 17.2933 1017.88 16.84C1019.54 16.3867 1021.22 16.16 1022.92 16.16C1026.2 16.16 1028.75 16.9333 1030.56 18.48C1032.38 20.0267 1033.28 22.44 1033.28 25.72V38H1027.44ZM1020.88 38.32C1019.2 38.32 1017.76 38.04 1016.56 37.48C1015.36 36.8933 1014.44 36.1067 1013.8 35.12C1013.16 34.1333 1012.84 33.0267 1012.84 31.8C1012.84 30.52 1013.15 29.4 1013.76 28.44C1014.4 27.48 1015.4 26.7333 1016.76 26.2C1018.12 25.64 1019.9 25.36 1022.08 25.36H1027.8V29H1022.76C1021.3 29 1020.28 29.24 1019.72 29.72C1019.19 30.2 1018.92 30.8 1018.92 31.52C1018.92 32.32 1019.23 32.96 1019.84 33.44C1020.48 33.8933 1021.35 34.12 1022.44 34.12C1023.48 34.12 1024.42 33.88 1025.24 33.4C1026.07 32.8933 1026.67 32.16 1027.04 31.2L1028 34.08C1027.55 35.4667 1026.72 36.52 1025.52 37.24C1024.32 37.96 1022.78 38.32 1020.88 38.32ZM1037.5 21.6L1040.14 12L1041.02 15.64C1039.88 15.64 1038.93 15.3067 1038.18 14.64C1037.46 13.9467 1037.1 13.0133 1037.1 11.84C1037.1 10.6933 1037.48 9.77333 1038.22 9.08C1038.97 8.36 1039.89 8 1040.98 8C1042.1 8 1043.02 8.36 1043.74 9.08C1044.46 9.77333 1044.82 10.6933 1044.82 11.84C1044.82 12.1867 1044.8 12.5333 1044.74 12.88C1044.72 13.2 1044.62 13.5867 1044.46 14.04C1044.33 14.4933 1044.1 15.0933 1043.78 15.84L1041.46 21.6H1037.5ZM1046.94 21.6L1049.58 12L1050.46 15.64C1049.32 15.64 1048.37 15.3067 1047.62 14.64C1046.9 13.9467 1046.54 13.0133 1046.54 11.84C1046.54 10.6933 1046.92 9.77333 1047.66 9.08C1048.41 8.36 1049.33 8 1050.42 8C1051.54 8 1052.46 8.36 1053.18 9.08C1053.9 9.77333 1054.26 10.6933 1054.26 11.84C1054.26 12.1867 1054.24 12.5333 1054.18 12.88C1054.16 13.2 1054.06 13.5867 1053.9 14.04C1053.77 14.4933 1053.54 15.0933 1053.22 15.84L1050.9 21.6H1046.94Z" fill="#141414"/>
</svg>
