<svg width="118" height="24" viewBox="0 0 118 24" fill="none" xmlns="http://www.w3.org/2000/svg">
<path d="M11.0928 22.1538C17.2192 22.1538 22.1857 17.1945 22.1857 11.0769C22.1857 4.95931 17.2192 0 11.0928 0C4.96643 0 0 4.95931 0 11.0769C0 17.1945 4.96643 22.1538 11.0928 22.1538Z" fill="#FC3F1D"/>
<path d="M12.5719 6.27703H11.555C9.66002 6.27703 8.6894 7.24626 8.6894 8.63088C8.6894 10.2001 9.3827 10.9386 10.7693 11.9078L11.9248 12.6924L8.59696 17.677H6.10107L9.10538 13.2463C7.39524 12.0001 6.42462 10.8001 6.42462 8.81549C6.42462 6.27703 8.18098 4.56934 11.555 4.56934H14.8829V17.7232H12.5719V6.27703Z" fill="white"/>
<path d="M29.812 22.7998V19.3383H38.1778V22.7998H40.9048V17.0768H39.3333V2.67676H29.6271L29.396 9.55368C29.2574 13.4768 28.98 15.7844 28.1943 17.0768H27.1312V22.7998H29.812ZM31.9381 9.92291L32.123 4.9383H36.4677V17.0768H30.9213C31.4297 15.9229 31.7995 13.846 31.9381 9.92291ZM47.0983 7.01522C43.9554 7.01522 41.783 9.2306 41.783 13.2921C41.783 17.3075 43.9554 19.5691 47.0983 19.5691C50.2413 19.5691 52.4599 17.3537 52.4599 13.2921C52.4599 9.27676 50.2413 7.01522 47.0983 7.01522ZM47.0983 17.3075C45.5268 17.3075 44.7411 16.0614 44.7411 13.2921C44.7411 10.4768 45.5268 9.27676 47.0983 9.27676C48.6698 9.27676 49.5018 10.4768 49.5018 13.2921C49.5018 16.1075 48.716 17.3075 47.0983 17.3075ZM59.5778 19.5691C60.9181 19.5691 61.8425 19.3383 62.5358 18.8306V16.5229C61.7963 17.0306 60.9644 17.3537 59.7626 17.3537C57.729 17.3537 56.897 15.7844 56.897 13.2921C56.897 10.6614 57.9138 9.32291 59.8089 9.32291C60.9181 9.32291 61.9812 9.69214 62.5821 10.0614V7.66137C61.9812 7.3383 60.9181 7.10753 59.4853 7.10753C55.8339 7.10753 53.9389 9.7383 53.9389 13.3844C53.8927 17.3537 55.7415 19.5691 59.5778 19.5691ZM73.3051 9.50753V7.24599H63.7376V9.50753H67.1116V19.3383H69.9773V9.50753H73.3051ZM83.2887 11.1229C83.2887 8.21522 81.8096 7.10753 78.7591 7.10753C76.8641 7.10753 75.385 7.70753 74.5069 8.21522V10.6152C75.2926 10.0614 76.9565 9.41522 78.4356 9.41522C79.8222 9.41522 80.423 9.87676 80.423 11.1691V11.8614H79.9608C75.5699 11.8614 73.6287 13.2921 73.6287 15.7383C73.6287 18.1844 75.1077 19.5691 77.3263 19.5691C78.9902 19.5691 79.7297 19.0152 80.2844 18.4614H80.423C80.4693 18.7844 80.5617 19.1998 80.6541 19.4306H83.4273C83.3349 18.4614 83.2887 17.446 83.2887 16.4768V11.1229ZM80.4693 16.4768C80.0995 16.9845 79.4524 17.446 78.4356 17.446C77.2338 17.446 76.633 16.7075 76.633 15.646C76.633 14.2152 77.6036 13.7075 80.0533 13.7075H80.4693V16.4768ZM90.3604 19.3383C93.1798 19.3383 94.8899 18.1383 94.8899 15.8306C94.8899 14.2614 93.9193 13.3383 92.3016 13.0614C93.5958 12.6921 94.4277 11.7691 94.4277 10.3383C94.4277 8.26137 93.0411 7.24599 90.4066 7.24599H85.5997V19.3383H90.3604ZM89.9906 9.41522C91.0074 9.41522 91.6083 9.8306 91.6083 10.7537C91.6083 11.5844 91.0074 12.0921 89.8982 12.0921H88.4653V9.41522H89.9906ZM90.083 14.2152C91.2848 14.2152 91.9318 14.6306 91.9318 15.646C91.9318 16.7537 91.1923 17.1691 90.083 17.1691H88.5116V14.2152H90.083ZM103.903 19.3383H107.138L102.562 12.8306L106.584 7.24599H103.718L99.6968 12.8306V7.24599H96.8312V19.3383H99.6968V13.3844L103.903 19.3383ZM116.891 11.1229C116.891 8.21522 115.412 7.10753 112.361 7.10753C110.466 7.10753 108.987 7.70753 108.109 8.21522V10.6152C108.895 10.0614 110.559 9.41522 112.038 9.41522C113.424 9.41522 114.025 9.87676 114.025 11.1691V11.8614H113.563C109.172 11.8614 107.231 13.2921 107.231 15.7383C107.231 18.1844 108.71 19.5691 110.928 19.5691C112.592 19.5691 113.332 19.0152 113.886 18.4614H114.025C114.071 18.7844 114.164 19.1998 114.256 19.4306H117.029C116.937 18.4614 116.891 17.446 116.891 16.4768V11.1229ZM114.025 16.4768C113.655 16.9845 113.008 17.446 111.991 17.446C110.79 17.446 110.189 16.7075 110.189 15.646C110.189 14.2152 111.159 13.7075 113.609 13.7075H114.025V16.4768Z" fill="black"/>
</svg>
