<svg width="708" height="32" viewBox="0 0 708 32" fill="none" xmlns="http://www.w3.org/2000/svg">
<path d="M0.624 23.388L1.924 20.372C2.704 20.84 3.536 21.204 4.42 21.464C5.32133 21.7067 6.19667 21.8453 7.046 21.88C7.91267 21.8973 8.69267 21.8107 9.386 21.62C10.0967 21.4293 10.66 21.1433 11.076 20.762C11.5093 20.3807 11.726 19.8953 11.726 19.306C11.726 18.6127 11.44 18.1013 10.868 17.772C10.296 17.4253 9.53333 17.252 8.58 17.252H4.134V14.08H8.268C9.11733 14.08 9.776 13.9067 10.244 13.56C10.7293 13.2133 10.972 12.7367 10.972 12.13C10.972 11.61 10.7987 11.194 10.452 10.882C10.1053 10.5527 9.62867 10.31 9.022 10.154C8.43267 9.998 7.76533 9.92867 7.02 9.946C6.27467 9.96333 5.50333 10.0847 4.706 10.31C3.90867 10.5353 3.146 10.8473 2.418 11.246L1.144 7.996C2.32267 7.38933 3.562 6.97333 4.862 6.748C6.17933 6.50533 7.44467 6.44467 8.658 6.566C9.88867 6.67 10.998 6.94733 11.986 7.398C12.974 7.83133 13.7627 8.40333 14.352 9.114C14.9413 9.82467 15.236 10.6653 15.236 11.636C15.236 12.5027 15.0107 13.274 14.56 13.95C14.1093 14.626 13.4767 15.146 12.662 15.51C11.8647 15.874 10.946 16.056 9.906 16.056L10.01 15.12C11.2233 15.12 12.272 15.328 13.156 15.744C14.0573 16.1427 14.7507 16.706 15.236 17.434C15.7387 18.1447 15.99 18.968 15.99 19.904C15.99 20.7707 15.756 21.5507 15.288 22.244C14.8373 22.92 14.2133 23.492 13.416 23.96C12.6187 24.428 11.7087 24.7747 10.686 25C9.66333 25.2253 8.57133 25.3207 7.41 25.286C6.266 25.2513 5.11333 25.0867 3.952 24.792C2.79067 24.48 1.68133 24.012 0.624 23.388ZM27.3845 25V22.27L27.1245 21.672V16.784C27.1245 15.9173 26.8558 15.2413 26.3185 14.756C25.7985 14.2707 24.9925 14.028 23.9005 14.028C23.1552 14.028 22.4185 14.1493 21.6905 14.392C20.9798 14.6173 20.3732 14.9293 19.8705 15.328L18.4145 12.494C19.1772 11.9567 20.0958 11.5407 21.1705 11.246C22.2452 10.9513 23.3372 10.804 24.4465 10.804C26.5785 10.804 28.2338 11.3067 29.4125 12.312C30.5912 13.3173 31.1805 14.886 31.1805 17.018V25H27.3845ZM23.1205 25.208C22.0285 25.208 21.0925 25.026 20.3125 24.662C19.5325 24.2807 18.9345 23.7693 18.5185 23.128C18.1025 22.4867 17.8945 21.7673 17.8945 20.97C17.8945 20.138 18.0938 19.41 18.4925 18.786C18.9085 18.162 19.5585 17.6767 20.4425 17.33C21.3265 16.966 22.4792 16.784 23.9005 16.784H27.6185V19.15H24.3425C23.3892 19.15 22.7305 19.306 22.3665 19.618C22.0198 19.93 21.8465 20.32 21.8465 20.788C21.8465 21.308 22.0458 21.724 22.4445 22.036C22.8605 22.3307 23.4238 22.478 24.1345 22.478C24.8105 22.478 25.4172 22.322 25.9545 22.01C26.4918 21.6807 26.8818 21.204 27.1245 20.58L27.7485 22.452C27.4538 23.3533 26.9165 24.038 26.1365 24.506C25.3565 24.974 24.3512 25.208 23.1205 25.208ZM41.6459 25.312C40.5019 25.312 39.4619 25.1473 38.5259 24.818C37.5899 24.4713 36.7752 23.9427 36.0819 23.232C35.4059 22.504 34.8772 21.5767 34.4959 20.45C34.1319 19.3233 33.9499 17.98 33.9499 16.42C33.9499 15.3107 34.0452 14.2967 34.2359 13.378C34.4266 12.4593 34.7126 11.6273 35.0939 10.882C35.4752 10.1193 35.9606 9.452 36.5499 8.88C37.1566 8.29067 37.8586 7.80533 38.6559 7.424C39.4706 7.02533 40.3892 6.722 41.4119 6.514L48.0679 5.188L48.6139 8.672L42.7379 9.842C42.3912 9.91133 41.9926 10.0067 41.5419 10.128C41.1086 10.232 40.6666 10.3967 40.2159 10.622C39.7826 10.8473 39.3752 11.168 38.9939 11.584C38.6299 11.9827 38.3352 12.5113 38.1099 13.17C37.8846 13.8113 37.7719 14.6087 37.7719 15.562C37.7719 15.8567 37.7806 16.082 37.7979 16.238C37.8326 16.394 37.8586 16.5587 37.8759 16.732C37.9106 16.9053 37.9279 17.174 37.9279 17.538L36.6279 16.264C37.0092 15.4493 37.4946 14.756 38.0839 14.184C38.6906 13.612 39.3839 13.1787 40.1639 12.884C40.9612 12.572 41.8452 12.416 42.8159 12.416C44.1332 12.416 45.2859 12.6847 46.2739 13.222C47.2792 13.742 48.0592 14.4787 48.6139 15.432C49.1686 16.3853 49.4459 17.4687 49.4459 18.682C49.4459 19.9993 49.1166 21.1607 48.4579 22.166C47.7992 23.154 46.8806 23.9253 45.7019 24.48C44.5406 25.0347 43.1886 25.312 41.6459 25.312ZM41.8539 22.166C42.5299 22.166 43.1279 22.0187 43.6479 21.724C44.1679 21.412 44.5666 21.0047 44.8439 20.502C45.1386 19.982 45.2859 19.4013 45.2859 18.76C45.2859 18.136 45.1386 17.5813 44.8439 17.096C44.5666 16.6107 44.1679 16.2293 43.6479 15.952C43.1279 15.6747 42.5212 15.536 41.8279 15.536C41.1519 15.536 40.5452 15.6747 40.0079 15.952C39.4706 16.212 39.0546 16.576 38.7599 17.044C38.4652 17.512 38.3179 18.058 38.3179 18.682C38.3179 19.3233 38.4652 19.9127 38.7599 20.45C39.0719 20.97 39.4879 21.386 40.0079 21.698C40.5452 22.01 41.1606 22.166 41.8539 22.166ZM59.036 25.208C57.4414 25.208 56.0374 24.896 54.824 24.272C53.628 23.648 52.7007 22.7987 52.042 21.724C51.3834 20.632 51.054 19.3927 51.054 18.006C51.054 16.602 51.3747 15.3627 52.016 14.288C52.6747 13.196 53.5674 12.3467 54.694 11.74C55.8207 11.116 57.0947 10.804 58.516 10.804C59.8854 10.804 61.116 11.0987 62.208 11.688C63.3174 12.26 64.1927 13.092 64.834 14.184C65.4754 15.2587 65.796 16.55 65.796 18.058C65.796 18.214 65.7874 18.396 65.77 18.604C65.7527 18.7947 65.7354 18.9767 65.718 19.15H54.356V16.784H63.586L62.026 17.486C62.026 16.758 61.8787 16.1253 61.584 15.588C61.2894 15.0507 60.882 14.6347 60.362 14.34C59.842 14.028 59.2354 13.872 58.542 13.872C57.8487 13.872 57.2334 14.028 56.696 14.34C56.176 14.6347 55.7687 15.0593 55.474 15.614C55.1794 16.1513 55.032 16.7927 55.032 17.538V18.162C55.032 18.9247 55.1967 19.6007 55.526 20.19C55.8727 20.762 56.3494 21.204 56.956 21.516C57.58 21.8107 58.308 21.958 59.14 21.958C59.8854 21.958 60.5354 21.8453 61.09 21.62C61.662 21.3947 62.182 21.0567 62.65 20.606L64.808 22.946C64.1667 23.674 63.3607 24.2373 62.39 24.636C61.4194 25.0173 60.3014 25.208 59.036 25.208ZM77.1471 25.208C75.9684 25.208 74.9371 24.948 74.0531 24.428C73.1691 23.908 72.4757 23.1193 71.9731 22.062C71.4877 20.9873 71.2451 19.6353 71.2451 18.006C71.2451 16.3593 71.4791 15.0073 71.9471 13.95C72.4151 12.8927 73.0911 12.104 73.9751 11.584C74.8591 11.064 75.9164 10.804 77.1471 10.804C78.4644 10.804 79.6431 11.1073 80.6831 11.714C81.7404 12.3033 82.5724 13.1353 83.1791 14.21C83.8031 15.2847 84.1151 16.55 84.1151 18.006C84.1151 19.4793 83.8031 20.7533 83.1791 21.828C82.5724 22.9027 81.7404 23.7347 80.6831 24.324C79.6431 24.9133 78.4644 25.208 77.1471 25.208ZM68.8791 30.044V11.012H72.7531V13.872L72.6751 18.032L72.9351 22.166V30.044H68.8791ZM76.4451 21.88C77.1211 21.88 77.7191 21.724 78.2391 21.412C78.7764 21.1 79.2011 20.658 79.5131 20.086C79.8424 19.4967 80.0071 18.8033 80.0071 18.006C80.0071 17.1913 79.8424 16.498 79.5131 15.926C79.2011 15.354 78.7764 14.912 78.2391 14.6C77.7191 14.288 77.1211 14.132 76.4451 14.132C75.7691 14.132 75.1624 14.288 74.6251 14.6C74.0877 14.912 73.6631 15.354 73.3511 15.926C73.0391 16.498 72.8831 17.1913 72.8831 18.006C72.8831 18.8033 73.0391 19.4967 73.3511 20.086C73.6631 20.658 74.0877 21.1 74.6251 21.412C75.1624 21.724 75.7691 21.88 76.4451 21.88ZM86.9578 25V11.012H90.9878V19.332L97.7998 11.012H101.518V25H97.4878V16.68L90.7018 25H86.9578ZM108.407 25V13.404L109.317 14.34H103.675V11.012H117.169V14.34H111.527L112.437 13.404V25H108.407ZM125.585 25.208C123.99 25.208 122.586 24.896 121.373 24.272C120.177 23.648 119.25 22.7987 118.591 21.724C117.932 20.632 117.603 19.3927 117.603 18.006C117.603 16.602 117.924 15.3627 118.565 14.288C119.224 13.196 120.116 12.3467 121.243 11.74C122.37 11.116 123.644 10.804 125.065 10.804C126.434 10.804 127.665 11.0987 128.757 11.688C129.866 12.26 130.742 13.092 131.383 14.184C132.024 15.2587 132.345 16.55 132.345 18.058C132.345 18.214 132.336 18.396 132.319 18.604C132.302 18.7947 132.284 18.9767 132.267 19.15H120.905V16.784H130.135L128.575 17.486C128.575 16.758 128.428 16.1253 128.133 15.588C127.838 15.0507 127.431 14.6347 126.911 14.34C126.391 14.028 125.784 13.872 125.091 13.872C124.398 13.872 123.782 14.028 123.245 14.34C122.725 14.6347 122.318 15.0593 122.023 15.614C121.728 16.1513 121.581 16.7927 121.581 17.538V18.162C121.581 18.9247 121.746 19.6007 122.075 20.19C122.422 20.762 122.898 21.204 123.505 21.516C124.129 21.8107 124.857 21.958 125.689 21.958C126.434 21.958 127.084 21.8453 127.639 21.62C128.211 21.3947 128.731 21.0567 129.199 20.606L131.357 22.946C130.716 23.674 129.91 24.2373 128.939 24.636C127.968 25.0173 126.85 25.208 125.585 25.208ZM147.549 25.26C146.475 25.26 145.4 25.1473 144.325 24.922C143.268 24.6967 142.289 24.3587 141.387 23.908L142.479 21.074C143.19 21.4207 143.961 21.6893 144.793 21.88C145.643 22.0533 146.501 22.14 147.367 22.14C147.991 22.14 148.529 22.0793 148.979 21.958C149.447 21.8193 149.803 21.6287 150.045 21.386C150.288 21.1433 150.409 20.8487 150.409 20.502C150.409 20.0513 150.219 19.7133 149.837 19.488C149.456 19.2453 148.901 19.124 148.173 19.124H145.313V16.602H147.835C148.303 16.602 148.702 16.55 149.031 16.446C149.361 16.342 149.603 16.1947 149.759 16.004C149.933 15.796 150.019 15.5533 150.019 15.276C150.019 14.9813 149.915 14.73 149.707 14.522C149.499 14.314 149.196 14.158 148.797 14.054C148.399 13.9327 147.896 13.872 147.289 13.872C146.596 13.872 145.877 13.9587 145.131 14.132C144.386 14.288 143.623 14.522 142.843 14.834L141.855 12.026C142.774 11.6447 143.684 11.3413 144.585 11.116C145.487 10.8907 146.379 10.7693 147.263 10.752C148.563 10.7173 149.733 10.856 150.773 11.168C151.813 11.48 152.628 11.9307 153.217 12.52C153.824 13.1093 154.127 13.8287 154.127 14.678C154.127 15.354 153.919 15.9607 153.503 16.498C153.105 17.0353 152.55 17.46 151.839 17.772C151.129 18.0667 150.331 18.214 149.447 18.214L149.551 17.408C151.094 17.408 152.307 17.72 153.191 18.344C154.075 18.9507 154.517 19.7827 154.517 20.84C154.517 21.7413 154.205 22.53 153.581 23.206C152.975 23.8647 152.143 24.376 151.085 24.74C150.045 25.0867 148.867 25.26 147.549 25.26ZM165.789 25V22.27L165.529 21.672V16.784C165.529 15.9173 165.26 15.2413 164.723 14.756C164.203 14.2707 163.397 14.028 162.305 14.028C161.559 14.028 160.823 14.1493 160.095 14.392C159.384 14.6173 158.777 14.9293 158.275 15.328L156.819 12.494C157.581 11.9567 158.5 11.5407 159.575 11.246C160.649 10.9513 161.741 10.804 162.851 10.804C164.983 10.804 166.638 11.3067 167.817 12.312C168.995 13.3173 169.585 14.886 169.585 17.018V25H165.789ZM161.525 25.208C160.433 25.208 159.497 25.026 158.717 24.662C157.937 24.2807 157.339 23.7693 156.923 23.128C156.507 22.4867 156.299 21.7673 156.299 20.97C156.299 20.138 156.498 19.41 156.897 18.786C157.313 18.162 157.963 17.6767 158.847 17.33C159.731 16.966 160.883 16.784 162.305 16.784H166.023V19.15H162.747C161.793 19.15 161.135 19.306 160.771 19.618C160.424 19.93 160.251 20.32 160.251 20.788C160.251 21.308 160.45 21.724 160.849 22.036C161.265 22.3307 161.828 22.478 162.539 22.478C163.215 22.478 163.821 22.322 164.359 22.01C164.896 21.6807 165.286 21.204 165.529 20.58L166.153 22.452C165.858 23.3533 165.321 24.038 164.541 24.506C163.761 24.974 162.755 25.208 161.525 25.208ZM183.014 25L178.334 18.37L181.636 16.42L187.798 25H183.014ZM173.108 25V11.012H177.164V25H173.108ZM175.968 19.696V16.446H180.856V19.696H175.968ZM182.026 18.474L178.23 18.058L183.144 11.012H187.46L182.026 18.474ZM197.908 25V22.27L197.648 21.672V16.784C197.648 15.9173 197.379 15.2413 196.842 14.756C196.322 14.2707 195.516 14.028 194.424 14.028C193.679 14.028 192.942 14.1493 192.214 14.392C191.503 14.6173 190.897 14.9293 190.394 15.328L188.938 12.494C189.701 11.9567 190.619 11.5407 191.694 11.246C192.769 10.9513 193.861 10.804 194.97 10.804C197.102 10.804 198.757 11.3067 199.936 12.312C201.115 13.3173 201.704 14.886 201.704 17.018V25H197.908ZM193.644 25.208C192.552 25.208 191.616 25.026 190.836 24.662C190.056 24.2807 189.458 23.7693 189.042 23.128C188.626 22.4867 188.418 21.7673 188.418 20.97C188.418 20.138 188.617 19.41 189.016 18.786C189.432 18.162 190.082 17.6767 190.966 17.33C191.85 16.966 193.003 16.784 194.424 16.784H198.142V19.15H194.866C193.913 19.15 193.254 19.306 192.89 19.618C192.543 19.93 192.37 20.32 192.37 20.788C192.37 21.308 192.569 21.724 192.968 22.036C193.384 22.3307 193.947 22.478 194.658 22.478C195.334 22.478 195.941 22.322 196.478 22.01C197.015 21.6807 197.405 21.204 197.648 20.58L198.272 22.452C197.977 23.3533 197.44 24.038 196.66 24.506C195.88 24.974 194.875 25.208 193.644 25.208ZM209.832 25.26C208.758 25.26 207.683 25.1473 206.608 24.922C205.551 24.6967 204.572 24.3587 203.67 23.908L204.762 21.074C205.473 21.4207 206.244 21.6893 207.076 21.88C207.926 22.0533 208.784 22.14 209.65 22.14C210.274 22.14 210.812 22.0793 211.262 21.958C211.73 21.8193 212.086 21.6287 212.328 21.386C212.571 21.1433 212.692 20.8487 212.692 20.502C212.692 20.0513 212.502 19.7133 212.12 19.488C211.739 19.2453 211.184 19.124 210.456 19.124H207.596V16.602H210.118C210.586 16.602 210.985 16.55 211.314 16.446C211.644 16.342 211.886 16.1947 212.042 16.004C212.216 15.796 212.302 15.5533 212.302 15.276C212.302 14.9813 212.198 14.73 211.99 14.522C211.782 14.314 211.479 14.158 211.08 14.054C210.682 13.9327 210.179 13.872 209.572 13.872C208.879 13.872 208.16 13.9587 207.414 14.132C206.669 14.288 205.906 14.522 205.126 14.834L204.138 12.026C205.057 11.6447 205.967 11.3413 206.868 11.116C207.77 10.8907 208.662 10.7693 209.546 10.752C210.846 10.7173 212.016 10.856 213.056 11.168C214.096 11.48 214.911 11.9307 215.5 12.52C216.107 13.1093 216.41 13.8287 216.41 14.678C216.41 15.354 216.202 15.9607 215.786 16.498C215.388 17.0353 214.833 17.46 214.122 17.772C213.412 18.0667 212.614 18.214 211.73 18.214L211.834 17.408C213.377 17.408 214.59 17.72 215.474 18.344C216.358 18.9507 216.8 19.7827 216.8 20.84C216.8 21.7413 216.488 22.53 215.864 23.206C215.258 23.8647 214.426 24.376 213.368 24.74C212.328 25.0867 211.15 25.26 209.832 25.26ZM218.92 29.004L220.636 22.764L221.208 25.104C220.463 25.104 219.847 24.8873 219.362 24.454C218.894 24.0207 218.66 23.4227 218.66 22.66C218.66 21.8973 218.903 21.2907 219.388 20.84C219.873 20.3893 220.471 20.164 221.182 20.164C221.91 20.164 222.508 20.398 222.976 20.866C223.444 21.3167 223.678 21.9147 223.678 22.66C223.678 22.8853 223.661 23.1107 223.626 23.336C223.591 23.544 223.522 23.804 223.418 24.116C223.331 24.4107 223.184 24.792 222.976 25.26L221.494 29.004H218.92ZM233.868 25V11.012H245.074V14.34H236.988L237.898 13.456V25H233.868ZM255.828 23.18V14.34H251.252L251.174 16.134C251.139 16.8793 251.096 17.59 251.044 18.266C250.992 18.942 250.888 19.5573 250.732 20.112C250.593 20.6493 250.385 21.1087 250.108 21.49C249.83 21.854 249.458 22.1053 248.99 22.244L244.986 21.672C245.488 21.672 245.896 21.5247 246.208 21.23C246.52 20.918 246.762 20.4933 246.936 19.956C247.109 19.4013 247.239 18.7773 247.326 18.084C247.412 17.3733 247.473 16.628 247.508 15.848L247.69 11.012H259.884V23.18H255.828ZM244.518 28.016V21.672H261.886V28.016H258.116V25H248.288V28.016H244.518ZM271.276 25.208C269.682 25.208 268.278 24.896 267.064 24.272C265.868 23.648 264.941 22.7987 264.282 21.724C263.624 20.632 263.294 19.3927 263.294 18.006C263.294 16.602 263.615 15.3627 264.256 14.288C264.915 13.196 265.808 12.3467 266.934 11.74C268.061 11.116 269.335 10.804 270.756 10.804C272.126 10.804 273.356 11.0987 274.448 11.688C275.558 12.26 276.433 13.092 277.074 14.184C277.716 15.2587 278.036 16.55 278.036 18.058C278.036 18.214 278.028 18.396 278.01 18.604C277.993 18.7947 277.976 18.9767 277.958 19.15H266.596V16.784H275.826L274.266 17.486C274.266 16.758 274.119 16.1253 273.824 15.588C273.53 15.0507 273.122 14.6347 272.602 14.34C272.082 14.028 271.476 13.872 270.782 13.872C270.089 13.872 269.474 14.028 268.936 14.34C268.416 14.6347 268.009 15.0593 267.714 15.614C267.42 16.1513 267.272 16.7927 267.272 17.538V18.162C267.272 18.9247 267.437 19.6007 267.766 20.19C268.113 20.762 268.59 21.204 269.196 21.516C269.82 21.8107 270.548 21.958 271.38 21.958C272.126 21.958 272.776 21.8453 273.33 21.62C273.902 21.3947 274.422 21.0567 274.89 20.606L277.048 22.946C276.407 23.674 275.601 24.2373 274.63 24.636C273.66 25.0173 272.542 25.208 271.276 25.208ZM290.407 30.252C289.679 30.252 288.959 30.1393 288.249 29.914C287.538 29.6887 286.957 29.3767 286.507 28.978L287.989 26.092C288.301 26.3693 288.656 26.586 289.055 26.742C289.471 26.898 289.878 26.976 290.277 26.976C290.849 26.976 291.299 26.8373 291.629 26.56C291.975 26.3 292.287 25.858 292.565 25.234L293.293 23.518L293.605 23.076L298.623 11.012H302.523L296.205 25.858C295.754 26.9847 295.234 27.8687 294.645 28.51C294.073 29.1513 293.431 29.602 292.721 29.862C292.027 30.122 291.256 30.252 290.407 30.252ZM292.799 25.546L286.559 11.012H290.745L295.581 22.712L292.799 25.546ZM313.109 23.18V14.34H308.533L308.455 16.134C308.42 16.8793 308.377 17.59 308.325 18.266C308.273 18.942 308.169 19.5573 308.013 20.112C307.874 20.6493 307.666 21.1087 307.389 21.49C307.112 21.854 306.739 22.1053 306.271 22.244L302.267 21.672C302.77 21.672 303.177 21.5247 303.489 21.23C303.801 20.918 304.044 20.4933 304.217 19.956C304.39 19.4013 304.52 18.7773 304.607 18.084C304.694 17.3733 304.754 16.628 304.789 15.848L304.971 11.012H317.165V23.18H313.109ZM301.799 28.016V21.672H319.167V28.016H315.397V25H305.569V28.016H301.799ZM328.272 25.208C326.781 25.208 325.455 24.896 324.294 24.272C323.15 23.648 322.24 22.7987 321.564 21.724C320.905 20.632 320.576 19.3927 320.576 18.006C320.576 16.602 320.905 15.3627 321.564 14.288C322.24 13.196 323.15 12.3467 324.294 11.74C325.455 11.116 326.781 10.804 328.272 10.804C329.745 10.804 331.062 11.116 332.224 11.74C333.385 12.3467 334.295 13.1873 334.954 14.262C335.612 15.3367 335.942 16.5847 335.942 18.006C335.942 19.3927 335.612 20.632 334.954 21.724C334.295 22.7987 333.385 23.648 332.224 24.272C331.062 24.896 329.745 25.208 328.272 25.208ZM328.272 21.88C328.948 21.88 329.554 21.724 330.092 21.412C330.629 21.1 331.054 20.658 331.366 20.086C331.678 19.4967 331.834 18.8033 331.834 18.006C331.834 17.1913 331.678 16.498 331.366 15.926C331.054 15.354 330.629 14.912 330.092 14.6C329.554 14.288 328.948 14.132 328.272 14.132C327.596 14.132 326.989 14.288 326.452 14.6C325.914 14.912 325.481 15.354 325.152 15.926C324.84 16.498 324.684 17.1913 324.684 18.006C324.684 18.8033 324.84 19.4967 325.152 20.086C325.481 20.658 325.914 21.1 326.452 21.412C326.989 21.724 327.596 21.88 328.272 21.88ZM345.673 25.312C344.529 25.312 343.489 25.1473 342.553 24.818C341.617 24.4713 340.803 23.9427 340.109 23.232C339.433 22.504 338.905 21.5767 338.523 20.45C338.159 19.3233 337.977 17.98 337.977 16.42C337.977 15.3107 338.073 14.2967 338.263 13.378C338.454 12.4593 338.74 11.6273 339.121 10.882C339.503 10.1193 339.988 9.452 340.577 8.88C341.184 8.29067 341.886 7.80533 342.683 7.424C343.498 7.02533 344.417 6.722 345.439 6.514L352.095 5.188L352.641 8.672L346.765 9.842C346.419 9.91133 346.02 10.0067 345.569 10.128C345.136 10.232 344.694 10.3967 344.243 10.622C343.81 10.8473 343.403 11.168 343.021 11.584C342.657 11.9827 342.363 12.5113 342.137 13.17C341.912 13.8113 341.799 14.6087 341.799 15.562C341.799 15.8567 341.808 16.082 341.825 16.238C341.86 16.394 341.886 16.5587 341.903 16.732C341.938 16.9053 341.955 17.174 341.955 17.538L340.655 16.264C341.037 15.4493 341.522 14.756 342.111 14.184C342.718 13.612 343.411 13.1787 344.191 12.884C344.989 12.572 345.873 12.416 346.843 12.416C348.161 12.416 349.313 12.6847 350.301 13.222C351.307 13.742 352.087 14.4787 352.641 15.432C353.196 16.3853 353.473 17.4687 353.473 18.682C353.473 19.9993 353.144 21.1607 352.485 22.166C351.827 23.154 350.908 23.9253 349.729 24.48C348.568 25.0347 347.216 25.312 345.673 25.312ZM345.881 22.166C346.557 22.166 347.155 22.0187 347.675 21.724C348.195 21.412 348.594 21.0047 348.871 20.502C349.166 19.982 349.313 19.4013 349.313 18.76C349.313 18.136 349.166 17.5813 348.871 17.096C348.594 16.6107 348.195 16.2293 347.675 15.952C347.155 15.6747 346.549 15.536 345.855 15.536C345.179 15.536 344.573 15.6747 344.035 15.952C343.498 16.212 343.082 16.576 342.787 17.044C342.493 17.512 342.345 18.058 342.345 18.682C342.345 19.3233 342.493 19.9127 342.787 20.45C343.099 20.97 343.515 21.386 344.035 21.698C344.573 22.01 345.188 22.166 345.881 22.166ZM356.225 25V11.012H360.255V16.472H366.339V11.012H370.395V25H366.339V19.774H360.255V25H356.225ZM380.83 25.208C379.339 25.208 378.013 24.896 376.852 24.272C375.708 23.648 374.798 22.7987 374.122 21.724C373.463 20.632 373.134 19.3927 373.134 18.006C373.134 16.602 373.463 15.3627 374.122 14.288C374.798 13.196 375.708 12.3467 376.852 11.74C378.013 11.116 379.339 10.804 380.83 10.804C382.303 10.804 383.621 11.116 384.782 11.74C385.943 12.3467 386.853 13.1873 387.512 14.262C388.171 15.3367 388.5 16.5847 388.5 18.006C388.5 19.3927 388.171 20.632 387.512 21.724C386.853 22.7987 385.943 23.648 384.782 24.272C383.621 24.896 382.303 25.208 380.83 25.208ZM380.83 21.88C381.506 21.88 382.113 21.724 382.65 21.412C383.187 21.1 383.612 20.658 383.924 20.086C384.236 19.4967 384.392 18.8033 384.392 18.006C384.392 17.1913 384.236 16.498 383.924 15.926C383.612 15.354 383.187 14.912 382.65 14.6C382.113 14.288 381.506 14.132 380.83 14.132C380.154 14.132 379.547 14.288 379.01 14.6C378.473 14.912 378.039 15.354 377.71 15.926C377.398 16.498 377.242 17.1913 377.242 18.006C377.242 18.8033 377.398 19.4967 377.71 20.086C378.039 20.658 378.473 21.1 379.01 21.412C379.547 21.724 380.154 21.88 380.83 21.88ZM398.653 25V11.012H405.803C407.554 11.012 408.923 11.3327 409.911 11.974C410.899 12.598 411.393 13.482 411.393 14.626C411.393 15.77 410.925 16.6713 409.989 17.33C409.07 17.9713 407.848 18.292 406.323 18.292L406.739 17.356C408.438 17.356 409.703 17.668 410.535 18.292C411.384 18.916 411.809 19.826 411.809 21.022C411.809 22.2527 411.341 23.2233 410.405 23.934C409.469 24.6447 408.039 25 406.115 25H398.653ZM402.371 22.244H405.777C406.522 22.244 407.077 22.1227 407.441 21.88C407.822 21.62 408.013 21.23 408.013 20.71C408.013 20.1727 407.84 19.7827 407.493 19.54C407.146 19.28 406.6 19.15 405.855 19.15H402.371V22.244ZM402.371 16.758H405.439C406.15 16.758 406.678 16.628 407.025 16.368C407.389 16.108 407.571 15.7353 407.571 15.25C407.571 14.7473 407.389 14.3747 407.025 14.132C406.678 13.8893 406.15 13.768 405.439 13.768H402.371V16.758ZM425.908 5.708L424.192 11.948L423.62 9.608C424.366 9.608 424.972 9.82467 425.44 10.258C425.908 10.6913 426.142 11.2893 426.142 12.052C426.142 12.7973 425.9 13.404 425.414 13.872C424.946 14.3227 424.357 14.548 423.646 14.548C422.918 14.548 422.312 14.3227 421.826 13.872C421.358 13.404 421.124 12.7973 421.124 12.052C421.124 11.8267 421.142 11.61 421.176 11.402C421.211 11.1767 421.28 10.9167 421.384 10.622C421.488 10.3273 421.636 9.93733 421.826 9.452L423.334 5.708H425.908ZM432.044 5.708L430.328 11.948L429.756 9.608C430.502 9.608 431.108 9.82467 431.576 10.258C432.044 10.6913 432.278 11.2893 432.278 12.052C432.278 12.7973 432.036 13.404 431.55 13.872C431.082 14.3227 430.493 14.548 429.782 14.548C429.054 14.548 428.448 14.3227 427.962 13.872C427.494 13.404 427.26 12.7973 427.26 12.052C427.26 11.8267 427.278 11.61 427.312 11.402C427.347 11.1767 427.416 10.9167 427.52 10.622C427.624 10.3273 427.772 9.93733 427.962 9.452L429.47 5.708H432.044ZM435.927 25V11.012H439.957V16.472H446.041V11.012H450.097V25H446.041V19.774H439.957V25H435.927ZM462.351 25V22.27L462.091 21.672V16.784C462.091 15.9173 461.823 15.2413 461.285 14.756C460.765 14.2707 459.959 14.028 458.867 14.028C458.122 14.028 457.385 14.1493 456.657 14.392C455.947 14.6173 455.34 14.9293 454.837 15.328L453.381 12.494C454.144 11.9567 455.063 11.5407 456.137 11.246C457.212 10.9513 458.304 10.804 459.413 10.804C461.545 10.804 463.201 11.3067 464.379 12.312C465.558 13.3173 466.147 14.886 466.147 17.018V25H462.351ZM458.087 25.208C456.995 25.208 456.059 25.026 455.279 24.662C454.499 24.2807 453.901 23.7693 453.485 23.128C453.069 22.4867 452.861 21.7673 452.861 20.97C452.861 20.138 453.061 19.41 453.459 18.786C453.875 18.162 454.525 17.6767 455.409 17.33C456.293 16.966 457.446 16.784 458.867 16.784H462.585V19.15H459.309C458.356 19.15 457.697 19.306 457.333 19.618C456.987 19.93 456.813 20.32 456.813 20.788C456.813 21.308 457.013 21.724 457.411 22.036C457.827 22.3307 458.391 22.478 459.101 22.478C459.777 22.478 460.384 22.322 460.921 22.01C461.459 21.6807 461.849 21.204 462.091 20.58L462.715 22.452C462.421 23.3533 461.883 24.038 461.103 24.506C460.323 24.974 459.318 25.208 458.087 25.208ZM474.276 25.26C473.201 25.26 472.126 25.1473 471.052 24.922C469.994 24.6967 469.015 24.3587 468.114 23.908L469.206 21.074C469.916 21.4207 470.688 21.6893 471.52 21.88C472.369 22.0533 473.227 22.14 474.094 22.14C474.718 22.14 475.255 22.0793 475.706 21.958C476.174 21.8193 476.529 21.6287 476.772 21.386C477.014 21.1433 477.136 20.8487 477.136 20.502C477.136 20.0513 476.945 19.7133 476.564 19.488C476.182 19.2453 475.628 19.124 474.9 19.124H472.04V16.602H474.562C475.03 16.602 475.428 16.55 475.758 16.446C476.087 16.342 476.33 16.1947 476.486 16.004C476.659 15.796 476.746 15.5533 476.746 15.276C476.746 14.9813 476.642 14.73 476.434 14.522C476.226 14.314 475.922 14.158 475.524 14.054C475.125 13.9327 474.622 13.872 474.016 13.872C473.322 13.872 472.603 13.9587 471.858 14.132C471.112 14.288 470.35 14.522 469.57 14.834L468.582 12.026C469.5 11.6447 470.41 11.3413 471.312 11.116C472.213 10.8907 473.106 10.7693 473.99 10.752C475.29 10.7173 476.46 10.856 477.5 11.168C478.54 11.48 479.354 11.9307 479.944 12.52C480.55 13.1093 480.854 13.8287 480.854 14.678C480.854 15.354 480.646 15.9607 480.23 16.498C479.831 17.0353 479.276 17.46 478.566 17.772C477.855 18.0667 477.058 18.214 476.174 18.214L476.278 17.408C477.82 17.408 479.034 17.72 479.918 18.344C480.802 18.9507 481.244 19.7827 481.244 20.84C481.244 21.7413 480.932 22.53 480.308 23.206C479.701 23.8647 478.869 24.376 477.812 24.74C476.772 25.0867 475.593 25.26 474.276 25.26ZM484.143 25V11.012H491.293C493.044 11.012 494.413 11.3327 495.401 11.974C496.389 12.598 496.883 13.482 496.883 14.626C496.883 15.77 496.415 16.6713 495.479 17.33C494.561 17.9713 493.339 18.292 491.813 18.292L492.229 17.356C493.928 17.356 495.193 17.668 496.025 18.292C496.875 18.916 497.299 19.826 497.299 21.022C497.299 22.2527 496.831 23.2233 495.895 23.934C494.959 24.6447 493.529 25 491.605 25H484.143ZM487.861 22.244H491.267C492.013 22.244 492.567 22.1227 492.931 21.88C493.313 21.62 493.503 21.23 493.503 20.71C493.503 20.1727 493.33 19.7827 492.983 19.54C492.637 19.28 492.091 19.15 491.345 19.15H487.861V22.244ZM487.861 16.758H490.929C491.64 16.758 492.169 16.628 492.515 16.368C492.879 16.108 493.061 15.7353 493.061 15.25C493.061 14.7473 492.879 14.3747 492.515 14.132C492.169 13.8893 491.64 13.768 490.929 13.768H487.861V16.758ZM508.689 25V22.27L508.429 21.672V16.784C508.429 15.9173 508.161 15.2413 507.623 14.756C507.103 14.2707 506.297 14.028 505.205 14.028C504.46 14.028 503.723 14.1493 502.995 14.392C502.285 14.6173 501.678 14.9293 501.175 15.328L499.719 12.494C500.482 11.9567 501.401 11.5407 502.475 11.246C503.55 10.9513 504.642 10.804 505.751 10.804C507.883 10.804 509.539 11.3067 510.717 12.312C511.896 13.3173 512.485 14.886 512.485 17.018V25H508.689ZM504.425 25.208C503.333 25.208 502.397 25.026 501.617 24.662C500.837 24.2807 500.239 23.7693 499.823 23.128C499.407 22.4867 499.199 21.7673 499.199 20.97C499.199 20.138 499.399 19.41 499.797 18.786C500.213 18.162 500.863 17.6767 501.747 17.33C502.631 16.966 503.784 16.784 505.205 16.784H508.923V19.15H505.647C504.694 19.15 504.035 19.306 503.671 19.618C503.325 19.93 503.151 20.32 503.151 20.788C503.151 21.308 503.351 21.724 503.749 22.036C504.165 22.3307 504.729 22.478 505.439 22.478C506.115 22.478 506.722 22.322 507.259 22.01C507.797 21.6807 508.187 21.204 508.429 20.58L509.053 22.452C508.759 23.3533 508.221 24.038 507.441 24.506C506.661 24.974 505.656 25.208 504.425 25.208ZM516.009 25V11.012H520.039V16.472H526.123V11.012H530.179V25H526.123V19.774H520.039V25H516.009ZM534.061 25V11.012H538.091V19.332L544.903 11.012H548.621V25H544.591V16.68L537.805 25H534.061ZM559.358 25.208C557.764 25.208 556.36 24.896 555.146 24.272C553.95 23.648 553.023 22.7987 552.364 21.724C551.706 20.632 551.376 19.3927 551.376 18.006C551.376 16.602 551.697 15.3627 552.338 14.288C552.997 13.196 553.89 12.3467 555.016 11.74C556.143 11.116 557.417 10.804 558.838 10.804C560.208 10.804 561.438 11.0987 562.53 11.688C563.64 12.26 564.515 13.092 565.156 14.184C565.798 15.2587 566.118 16.55 566.118 18.058C566.118 18.214 566.11 18.396 566.092 18.604C566.075 18.7947 566.058 18.9767 566.04 19.15H554.678V16.784H563.908L562.348 17.486C562.348 16.758 562.201 16.1253 561.906 15.588C561.612 15.0507 561.204 14.6347 560.684 14.34C560.164 14.028 559.558 13.872 558.864 13.872C558.171 13.872 557.556 14.028 557.018 14.34C556.498 14.6347 556.091 15.0593 555.796 15.614C555.502 16.1513 555.354 16.7927 555.354 17.538V18.162C555.354 18.9247 555.519 19.6007 555.848 20.19C556.195 20.762 556.672 21.204 557.278 21.516C557.902 21.8107 558.63 21.958 559.462 21.958C560.208 21.958 560.858 21.8453 561.412 21.62C561.984 21.3947 562.504 21.0567 562.972 20.606L565.13 22.946C564.489 23.674 563.683 24.2373 562.712 24.636C561.742 25.0173 560.624 25.208 559.358 25.208ZM576.591 25V11.012H587.797V14.34H579.711L580.621 13.456V25H576.591ZM595.914 25.208C594.423 25.208 593.097 24.896 591.936 24.272C590.792 23.648 589.882 22.7987 589.206 21.724C588.547 20.632 588.218 19.3927 588.218 18.006C588.218 16.602 588.547 15.3627 589.206 14.288C589.882 13.196 590.792 12.3467 591.936 11.74C593.097 11.116 594.423 10.804 595.914 10.804C597.387 10.804 598.705 11.116 599.866 11.74C601.027 12.3467 601.937 13.1873 602.596 14.262C603.255 15.3367 603.584 16.5847 603.584 18.006C603.584 19.3927 603.255 20.632 602.596 21.724C601.937 22.7987 601.027 23.648 599.866 24.272C598.705 24.896 597.387 25.208 595.914 25.208ZM595.914 21.88C596.59 21.88 597.197 21.724 597.734 21.412C598.271 21.1 598.696 20.658 599.008 20.086C599.32 19.4967 599.476 18.8033 599.476 18.006C599.476 17.1913 599.32 16.498 599.008 15.926C598.696 15.354 598.271 14.912 597.734 14.6C597.197 14.288 596.59 14.132 595.914 14.132C595.238 14.132 594.631 14.288 594.094 14.6C593.557 14.912 593.123 15.354 592.794 15.926C592.482 16.498 592.326 17.1913 592.326 18.006C592.326 18.8033 592.482 19.4967 592.794 20.086C593.123 20.658 593.557 21.1 594.094 21.412C594.631 21.724 595.238 21.88 595.914 21.88ZM614.616 25.208C613.437 25.208 612.406 24.948 611.522 24.428C610.638 23.908 609.944 23.1193 609.442 22.062C608.956 20.9873 608.714 19.6353 608.714 18.006C608.714 16.3593 608.948 15.0073 609.416 13.95C609.884 12.8927 610.56 12.104 611.444 11.584C612.328 11.064 613.385 10.804 614.616 10.804C615.933 10.804 617.112 11.1073 618.152 11.714C619.209 12.3033 620.041 13.1353 620.648 14.21C621.272 15.2847 621.584 16.55 621.584 18.006C621.584 19.4793 621.272 20.7533 620.648 21.828C620.041 22.9027 619.209 23.7347 618.152 24.324C617.112 24.9133 615.933 25.208 614.616 25.208ZM606.348 30.044V11.012H610.222V13.872L610.144 18.032L610.404 22.166V30.044H606.348ZM613.914 21.88C614.59 21.88 615.188 21.724 615.708 21.412C616.245 21.1 616.67 20.658 616.982 20.086C617.311 19.4967 617.476 18.8033 617.476 18.006C617.476 17.1913 617.311 16.498 616.982 15.926C616.67 15.354 616.245 14.912 615.708 14.6C615.188 14.288 614.59 14.132 613.914 14.132C613.238 14.132 612.631 14.288 612.094 14.6C611.556 14.912 611.132 15.354 610.82 15.926C610.508 16.498 610.352 17.1913 610.352 18.006C610.352 18.8033 610.508 19.4967 610.82 20.086C611.132 20.658 611.556 21.1 612.094 21.412C612.631 21.724 613.238 21.88 613.914 21.88ZM630.979 25.208C629.488 25.208 628.162 24.896 627.001 24.272C625.857 23.648 624.947 22.7987 624.271 21.724C623.612 20.632 623.283 19.3927 623.283 18.006C623.283 16.602 623.612 15.3627 624.271 14.288C624.947 13.196 625.857 12.3467 627.001 11.74C628.162 11.116 629.488 10.804 630.979 10.804C632.452 10.804 633.769 11.116 634.931 11.74C636.092 12.3467 637.002 13.1873 637.661 14.262C638.319 15.3367 638.649 16.5847 638.649 18.006C638.649 19.3927 638.319 20.632 637.661 21.724C637.002 22.7987 636.092 23.648 634.931 24.272C633.769 24.896 632.452 25.208 630.979 25.208ZM630.979 21.88C631.655 21.88 632.261 21.724 632.799 21.412C633.336 21.1 633.761 20.658 634.073 20.086C634.385 19.4967 634.541 18.8033 634.541 18.006C634.541 17.1913 634.385 16.498 634.073 15.926C633.761 15.354 633.336 14.912 632.799 14.6C632.261 14.288 631.655 14.132 630.979 14.132C630.303 14.132 629.696 14.288 629.159 14.6C628.621 14.912 628.188 15.354 627.859 15.926C627.547 16.498 627.391 17.1913 627.391 18.006C627.391 18.8033 627.547 19.4967 627.859 20.086C628.188 20.658 628.621 21.1 629.159 21.412C629.696 21.724 630.303 21.88 630.979 21.88ZM650.855 23.18V14.34H646.279L646.201 16.134C646.166 16.8793 646.123 17.59 646.071 18.266C646.019 18.942 645.915 19.5573 645.759 20.112C645.62 20.6493 645.412 21.1087 645.135 21.49C644.858 21.854 644.485 22.1053 644.017 22.244L640.013 21.672C640.516 21.672 640.923 21.5247 641.235 21.23C641.547 20.918 641.79 20.4933 641.963 19.956C642.136 19.4013 642.266 18.7773 642.353 18.084C642.44 17.3733 642.5 16.628 642.535 15.848L642.717 11.012H654.911V23.18H650.855ZM639.545 28.016V21.672H656.913V28.016H653.143V25H643.315V28.016H639.545ZM667.838 25V22.27L667.578 21.672V16.784C667.578 15.9173 667.309 15.2413 666.772 14.756C666.252 14.2707 665.446 14.028 664.354 14.028C663.608 14.028 662.872 14.1493 662.144 14.392C661.433 14.6173 660.826 14.9293 660.324 15.328L658.868 12.494C659.63 11.9567 660.549 11.5407 661.624 11.246C662.698 10.9513 663.79 10.804 664.9 10.804C667.032 10.804 668.687 11.3067 669.866 12.312C671.044 13.3173 671.634 14.886 671.634 17.018V25H667.838ZM663.574 25.208C662.482 25.208 661.546 25.026 660.766 24.662C659.986 24.2807 659.388 23.7693 658.972 23.128C658.556 22.4867 658.348 21.7673 658.348 20.97C658.348 20.138 658.547 19.41 658.946 18.786C659.362 18.162 660.012 17.6767 660.896 17.33C661.78 16.966 662.932 16.784 664.354 16.784H668.072V19.15H664.796C663.842 19.15 663.184 19.306 662.82 19.618C662.473 19.93 662.3 20.32 662.3 20.788C662.3 21.308 662.499 21.724 662.898 22.036C663.314 22.3307 663.877 22.478 664.588 22.478C665.264 22.478 665.87 22.322 666.408 22.01C666.945 21.6807 667.335 21.204 667.578 20.58L668.202 22.452C667.907 23.3533 667.37 24.038 666.59 24.506C665.81 24.974 664.804 25.208 663.574 25.208ZM674.377 14.34L676.093 8.1L676.665 10.466C675.92 10.466 675.304 10.2493 674.819 9.816C674.351 9.36533 674.117 8.75867 674.117 7.996C674.117 7.25067 674.36 6.65267 674.845 6.202C675.33 5.734 675.928 5.5 676.639 5.5C677.367 5.5 677.965 5.734 678.433 6.202C678.901 6.65267 679.135 7.25067 679.135 7.996C679.135 8.22133 679.118 8.44667 679.083 8.672C679.066 8.88 679.005 9.13133 678.901 9.426C678.814 9.72067 678.667 10.1107 678.459 10.596L676.951 14.34H674.377ZM680.513 14.34L682.229 8.1L682.801 10.466C682.056 10.466 681.44 10.2493 680.955 9.816C680.487 9.36533 680.253 8.75867 680.253 7.996C680.253 7.25067 680.496 6.65267 680.981 6.202C681.466 5.734 682.064 5.5 682.775 5.5C683.503 5.5 684.101 5.734 684.569 6.202C685.037 6.65267 685.271 7.25067 685.271 7.996C685.271 8.22133 685.254 8.44667 685.219 8.672C685.202 8.88 685.141 9.13133 685.037 9.426C684.95 9.72067 684.803 10.1107 684.595 10.596L683.087 14.34H680.513Z" fill="#141414"/>
</svg>
