<svg width="85" height="24" viewBox="0 0 85 24" fill="none" xmlns="http://www.w3.org/2000/svg">
<g clip-path="url(#clip0_5134_2153)">
<path fill-rule="evenodd" clip-rule="evenodd" d="M13.3185 17.8364H9.65329C3.93549 17.8364 8.08946 5.70962 12.9032 5.70962H18.6943C19.6228 5.70962 21.26 5.88044 22.0663 3.58682L23.3125 0.0244141H15.3711C11.0706 0.0244141 7.72291 1.53722 5.30385 4.07482C1.12545 8.418 -0.291779 15.2012 0.710061 18.4464C1.66303 21.4476 4.25315 23.424 8.30935 23.4729L11.4615 23.4972H15.3466L16.2996 20.6424C17.0082 18.6172 15.42 17.8364 13.3185 17.8364ZM57.937 12.81L59.1342 8.93043H46.3548C44.2289 8.93043 43.2759 9.51603 42.9095 10.736L41.7121 14.6156H54.4917C56.6175 14.6156 57.5705 14.03 57.937 12.81ZM39.8062 19.642L38.6089 23.5216H51.3884C53.4898 23.5216 54.4672 22.936 54.8338 21.7161L56.0311 17.8364H43.2516C41.1501 17.8364 40.1971 18.422 39.8062 19.642ZM60.918 3.92842L62.1156 0.0488137H49.3359C47.21 0.0488137 46.257 0.634413 45.8905 1.85442L44.6932 5.73402H57.4728C59.5744 5.73402 60.527 5.14842 60.918 3.92842ZM41.6144 4.70922C41.0768 1.09802 39.1464 0.0488137 34.4549 0.0488137H25.9027L20.9179 14.6156H24.07C25.9515 14.6156 26.9045 14.64 27.9063 11.956L29.9833 5.70962H33.1598C35.8722 5.70962 35.2613 9.10124 33.8929 12.3952C32.6712 15.2988 30.5453 17.8608 27.9796 17.8608H22.6772C20.5513 17.8608 19.574 18.4464 19.183 19.6665L17.8635 23.546H21.7487L25.5605 23.5216C28.9326 23.4972 31.6937 23.2532 34.9192 20.3496C38.3401 17.2508 42.2986 9.2964 41.6144 4.70922ZM84.5715 0.0244141H77.1677L70.2035 7.41761C69.3969 8.2716 68.5663 9.1256 67.7596 10.126H67.6864L71.1561 0.0244141H65.1211L56.984 23.5216H63.0196L65.6094 16.1284L68.2972 13.8592L70.4234 20.5449C71.0828 22.6188 71.7675 23.5216 73.2336 23.5216H77.8518L73.1111 10.3944L84.5715 0.0244141Z" fill="#00B33C"/>
</g>
<defs>
<clipPath id="clip0_5134_2153">
<rect width="85" height="24" fill="white"/>
</clipPath>
</defs>
</svg>
