<svg width="329" height="78" viewBox="0 0 329 78" fill="none" xmlns="http://www.w3.org/2000/svg">
<path d="M0.572006 19.636L1.67201 17.084C2.33201 17.48 3.03601 17.788 3.78401 18.008C4.54667 18.2133 5.28734 18.3307 6.00601 18.36C6.73934 18.3747 7.39934 18.3013 7.98601 18.14C8.58734 17.9787 9.06401 17.7367 9.41601 17.414C9.78267 17.0913 9.96601 16.6807 9.96601 16.182C9.96601 15.5953 9.72401 15.1627 9.24001 14.884C8.75601 14.5907 8.11067 14.444 7.30401 14.444H3.54201V11.76H7.04001C7.75867 11.76 8.31601 11.6133 8.71201 11.32C9.12267 11.0267 9.32801 10.6233 9.32801 10.11C9.32801 9.67 9.18134 9.318 8.88801 9.054C8.59467 8.77533 8.19134 8.57 7.67801 8.438C7.17934 8.306 6.61467 8.24733 5.98401 8.262C5.35334 8.27667 4.70067 8.37933 4.02601 8.57C3.35134 8.76067 2.70601 9.02467 2.09001 9.362L1.01201 6.612C2.00934 6.09867 3.05801 5.74667 4.15801 5.556C5.27267 5.35067 6.34334 5.29933 7.37001 5.402C8.41134 5.49 9.35001 5.72467 10.186 6.106C11.022 6.47267 11.6893 6.95667 12.188 7.558C12.6867 8.15933 12.936 8.87067 12.936 9.692C12.936 10.4253 12.7453 11.078 12.364 11.65C11.9827 12.222 11.4473 12.662 10.758 12.97C10.0833 13.278 9.30601 13.432 8.42601 13.432L8.51401 12.64C9.54067 12.64 10.428 12.816 11.176 13.168C11.9387 13.5053 12.5253 13.982 12.936 14.598C13.3613 15.1993 13.574 15.896 13.574 16.688C13.574 17.4213 13.376 18.0813 12.98 18.668C12.5987 19.24 12.0707 19.724 11.396 20.12C10.7213 20.516 9.95134 20.8093 9.08601 21C8.22067 21.1907 7.29667 21.2713 6.31401 21.242C5.34601 21.2127 4.37067 21.0733 3.38801 20.824C2.40534 20.56 1.46667 20.164 0.572006 19.636ZM23.2155 21V18.69L22.9955 18.184V14.048C22.9955 13.3147 22.7682 12.7427 22.3135 12.332C21.8735 11.9213 21.1915 11.716 20.2675 11.716C19.6368 11.716 19.0135 11.8187 18.3975 12.024C17.7962 12.2147 17.2828 12.4787 16.8575 12.816L15.6255 10.418C16.2708 9.96333 17.0482 9.61133 17.9575 9.362C18.8668 9.11267 19.7908 8.988 20.7295 8.988C22.5335 8.988 23.9342 9.41333 24.9315 10.264C25.9288 11.1147 26.4275 12.442 26.4275 14.246V21H23.2155ZM19.6075 21.176C18.6835 21.176 17.8915 21.022 17.2315 20.714C16.5715 20.3913 16.0655 19.9587 15.7135 19.416C15.3615 18.8733 15.1855 18.2647 15.1855 17.59C15.1855 16.886 15.3542 16.27 15.6915 15.742C16.0435 15.214 16.5935 14.8033 17.3415 14.51C18.0895 14.202 19.0648 14.048 20.2675 14.048H23.4135V16.05H20.6415C19.8348 16.05 19.2775 16.182 18.9695 16.446C18.6762 16.71 18.5295 17.04 18.5295 17.436C18.5295 17.876 18.6982 18.228 19.0355 18.492C19.3875 18.7413 19.8642 18.866 20.4655 18.866C21.0375 18.866 21.5508 18.734 22.0055 18.47C22.4602 18.1913 22.7902 17.788 22.9955 17.26L23.5235 18.844C23.2742 19.6067 22.8195 20.186 22.1595 20.582C21.4995 20.978 20.6488 21.176 19.6075 21.176ZM35.2829 21.264C34.3149 21.264 33.4349 21.1247 32.6429 20.846C31.8509 20.5527 31.1615 20.1053 30.5749 19.504C30.0029 18.888 29.5555 18.1033 29.2329 17.15C28.9249 16.1967 28.7709 15.06 28.7709 13.74C28.7709 12.8013 28.8515 11.9433 29.0129 11.166C29.1742 10.3887 29.4162 9.68467 29.7389 9.054C30.0615 8.40867 30.4722 7.844 30.9709 7.36C31.4842 6.86133 32.0782 6.45067 32.7529 6.128C33.4422 5.79067 34.2195 5.534 35.0849 5.358L40.7169 4.236L41.1789 7.184L36.2069 8.174C35.9135 8.23267 35.5762 8.31333 35.1949 8.416C34.8282 8.504 34.4542 8.64333 34.0729 8.834C33.7062 9.02467 33.3615 9.296 33.0389 9.648C32.7309 9.98533 32.4815 10.4327 32.2909 10.99C32.1002 11.5327 32.0049 12.2073 32.0049 13.014C32.0049 13.2633 32.0122 13.454 32.0269 13.586C32.0562 13.718 32.0782 13.8573 32.0929 14.004C32.1222 14.1507 32.1369 14.378 32.1369 14.686L31.0369 13.608C31.3595 12.9187 31.7702 12.332 32.2689 11.848C32.7822 11.364 33.3689 10.9973 34.0289 10.748C34.7035 10.484 35.4515 10.352 36.2729 10.352C37.3875 10.352 38.3629 10.5793 39.1989 11.034C40.0495 11.474 40.7095 12.0973 41.1789 12.904C41.6482 13.7107 41.8829 14.6273 41.8829 15.654C41.8829 16.7687 41.6042 17.7513 41.0469 18.602C40.4895 19.438 39.7122 20.0907 38.7149 20.56C37.7322 21.0293 36.5882 21.264 35.2829 21.264ZM35.4589 18.602C36.0309 18.602 36.5369 18.4773 36.9769 18.228C37.4169 17.964 37.7542 17.6193 37.9889 17.194C38.2382 16.754 38.3629 16.2627 38.3629 15.72C38.3629 15.192 38.2382 14.7227 37.9889 14.312C37.7542 13.9013 37.4169 13.5787 36.9769 13.344C36.5369 13.1093 36.0235 12.992 35.4369 12.992C34.8649 12.992 34.3515 13.1093 33.8969 13.344C33.4422 13.564 33.0902 13.872 32.8409 14.268C32.5915 14.664 32.4669 15.126 32.4669 15.654C32.4669 16.1967 32.5915 16.6953 32.8409 17.15C33.1049 17.59 33.4569 17.942 33.8969 18.206C34.3515 18.47 34.8722 18.602 35.4589 18.602ZM49.9976 21.176C48.6483 21.176 47.4603 20.912 46.4336 20.384C45.4216 19.856 44.6369 19.1373 44.0796 18.228C43.5223 17.304 43.2436 16.2553 43.2436 15.082C43.2436 13.894 43.5149 12.8453 44.0576 11.936C44.6149 11.012 45.3703 10.2933 46.3236 9.78C47.2769 9.252 48.3549 8.988 49.5576 8.988C50.7163 8.988 51.7576 9.23733 52.6816 9.736C53.6203 10.22 54.3609 10.924 54.9036 11.848C55.4463 12.7573 55.7176 13.85 55.7176 15.126C55.7176 15.258 55.7103 15.412 55.6956 15.588C55.6809 15.7493 55.6663 15.9033 55.6516 16.05H46.0376V14.048H53.8476L52.5276 14.642C52.5276 14.026 52.4029 13.4907 52.1536 13.036C51.9043 12.5813 51.5596 12.2293 51.1196 11.98C50.6796 11.716 50.1663 11.584 49.5796 11.584C48.9929 11.584 48.4723 11.716 48.0176 11.98C47.5776 12.2293 47.2329 12.5887 46.9836 13.058C46.7343 13.5127 46.6096 14.0553 46.6096 14.686V15.214C46.6096 15.8593 46.7489 16.4313 47.0276 16.93C47.3209 17.414 47.7243 17.788 48.2376 18.052C48.7656 18.3013 49.3816 18.426 50.0856 18.426C50.7163 18.426 51.2663 18.3307 51.7356 18.14C52.2196 17.9493 52.6596 17.6633 53.0556 17.282L54.8816 19.262C54.3389 19.878 53.6569 20.3547 52.8356 20.692C52.0143 21.0147 51.0683 21.176 49.9976 21.176ZM65.3223 21.176C64.325 21.176 63.4523 20.956 62.7043 20.516C61.9563 20.076 61.3696 19.4087 60.9443 18.514C60.5336 17.6047 60.3283 16.4607 60.3283 15.082C60.3283 13.6887 60.5263 12.5447 60.9223 11.65C61.3183 10.7553 61.8903 10.088 62.6383 9.648C63.3863 9.208 64.281 8.988 65.3223 8.988C66.437 8.988 67.4343 9.24467 68.3143 9.758C69.209 10.2567 69.913 10.9607 70.4263 11.87C70.9543 12.7793 71.2183 13.85 71.2183 15.082C71.2183 16.3287 70.9543 17.4067 70.4263 18.316C69.913 19.2253 69.209 19.9293 68.3143 20.428C67.4343 20.9267 66.437 21.176 65.3223 21.176ZM58.3263 25.268V9.164H61.6043V11.584L61.5383 15.104L61.7583 18.602V25.268H58.3263ZM64.7283 18.36C65.3003 18.36 65.8063 18.228 66.2463 17.964C66.701 17.7 67.0603 17.326 67.3243 16.842C67.603 16.3433 67.7423 15.7567 67.7423 15.082C67.7423 14.3927 67.603 13.806 67.3243 13.322C67.0603 12.838 66.701 12.464 66.2463 12.2C65.8063 11.936 65.3003 11.804 64.7283 11.804C64.1563 11.804 63.643 11.936 63.1883 12.2C62.7336 12.464 62.3743 12.838 62.1103 13.322C61.8463 13.806 61.7143 14.3927 61.7143 15.082C61.7143 15.7567 61.8463 16.3433 62.1103 16.842C62.3743 17.326 62.7336 17.7 63.1883 17.964C63.643 18.228 64.1563 18.36 64.7283 18.36ZM73.6237 21V9.164H77.0337V16.204L82.7977 9.164H85.9437V21H82.5337V13.96L76.7917 21H73.6237ZM91.7728 21V11.188L92.5428 11.98H87.7688V9.164H99.1868V11.98H94.4128L95.1828 11.188V21H91.7728ZM106.308 21.176C104.959 21.176 103.771 20.912 102.744 20.384C101.732 19.856 100.947 19.1373 100.39 18.228C99.8328 17.304 99.5541 16.2553 99.5541 15.082C99.5541 13.894 99.8255 12.8453 100.368 11.936C100.925 11.012 101.681 10.2933 102.634 9.78C103.587 9.252 104.665 8.988 105.868 8.988C107.027 8.988 108.068 9.23733 108.992 9.736C109.931 10.22 110.671 10.924 111.214 11.848C111.757 12.7573 112.028 13.85 112.028 15.126C112.028 15.258 112.021 15.412 112.006 15.588C111.991 15.7493 111.977 15.9033 111.962 16.05H102.348V14.048H110.158L108.838 14.642C108.838 14.026 108.713 13.4907 108.464 13.036C108.215 12.5813 107.87 12.2293 107.43 11.98C106.99 11.716 106.477 11.584 105.89 11.584C105.303 11.584 104.783 11.716 104.328 11.98C103.888 12.2293 103.543 12.5887 103.294 13.058C103.045 13.5127 102.92 14.0553 102.92 14.686V15.214C102.92 15.8593 103.059 16.4313 103.338 16.93C103.631 17.414 104.035 17.788 104.548 18.052C105.076 18.3013 105.692 18.426 106.396 18.426C107.027 18.426 107.577 18.3307 108.046 18.14C108.53 17.9493 108.97 17.6633 109.366 17.282L111.192 19.262C110.649 19.878 109.967 20.3547 109.146 20.692C108.325 21.0147 107.379 21.176 106.308 21.176ZM124.893 21.22C123.984 21.22 123.075 21.1247 122.165 20.934C121.271 20.7433 120.442 20.4573 119.679 20.076L120.603 17.678C121.205 17.9713 121.857 18.1987 122.561 18.36C123.28 18.5067 124.006 18.58 124.739 18.58C125.267 18.58 125.722 18.5287 126.103 18.426C126.499 18.3087 126.8 18.1473 127.005 17.942C127.211 17.7367 127.313 17.4873 127.313 17.194C127.313 16.8127 127.152 16.5267 126.829 16.336C126.507 16.1307 126.037 16.028 125.421 16.028H123.001V13.894H125.135C125.531 13.894 125.869 13.85 126.147 13.762C126.426 13.674 126.631 13.5493 126.763 13.388C126.91 13.212 126.983 13.0067 126.983 12.772C126.983 12.5227 126.895 12.31 126.719 12.134C126.543 11.958 126.287 11.826 125.949 11.738C125.612 11.6353 125.187 11.584 124.673 11.584C124.087 11.584 123.478 11.6573 122.847 11.804C122.217 11.936 121.571 12.134 120.911 12.398L120.075 10.022C120.853 9.69933 121.623 9.44267 122.385 9.252C123.148 9.06133 123.903 8.95867 124.651 8.944C125.751 8.91467 126.741 9.032 127.621 9.296C128.501 9.56 129.191 9.94133 129.689 10.44C130.203 10.9387 130.459 11.5473 130.459 12.266C130.459 12.838 130.283 13.3513 129.931 13.806C129.594 14.2607 129.125 14.62 128.523 14.884C127.922 15.1333 127.247 15.258 126.499 15.258L126.587 14.576C127.893 14.576 128.919 14.84 129.667 15.368C130.415 15.8813 130.789 16.5853 130.789 17.48C130.789 18.2427 130.525 18.91 129.997 19.482C129.484 20.0393 128.78 20.472 127.885 20.78C127.005 21.0733 126.008 21.22 124.893 21.22ZM140.327 21V18.69L140.107 18.184V14.048C140.107 13.3147 139.88 12.7427 139.425 12.332C138.985 11.9213 138.303 11.716 137.379 11.716C136.748 11.716 136.125 11.8187 135.509 12.024C134.908 12.2147 134.394 12.4787 133.969 12.816L132.737 10.418C133.382 9.96333 134.16 9.61133 135.069 9.362C135.978 9.11267 136.902 8.988 137.841 8.988C139.645 8.988 141.046 9.41333 142.043 10.264C143.04 11.1147 143.539 12.442 143.539 14.246V21H140.327ZM136.719 21.176C135.795 21.176 135.003 21.022 134.343 20.714C133.683 20.3913 133.177 19.9587 132.825 19.416C132.473 18.8733 132.297 18.2647 132.297 17.59C132.297 16.886 132.466 16.27 132.803 15.742C133.155 15.214 133.705 14.8033 134.453 14.51C135.201 14.202 136.176 14.048 137.379 14.048H140.525V16.05H137.753C136.946 16.05 136.389 16.182 136.081 16.446C135.788 16.71 135.641 17.04 135.641 17.436C135.641 17.876 135.81 18.228 136.147 18.492C136.499 18.7413 136.976 18.866 137.577 18.866C138.149 18.866 138.662 18.734 139.117 18.47C139.572 18.1913 139.902 17.788 140.107 17.26L140.635 18.844C140.386 19.6067 139.931 20.186 139.271 20.582C138.611 20.978 137.76 21.176 136.719 21.176ZM154.902 21L150.942 15.39L153.736 13.74L158.95 21H154.902ZM146.52 21V9.164H149.952V21H146.52ZM148.94 16.512V13.762H153.076V16.512H148.94ZM154.066 15.478L150.854 15.126L155.012 9.164H158.664L154.066 15.478ZM167.505 21V18.69L167.285 18.184V14.048C167.285 13.3147 167.057 12.7427 166.603 12.332C166.163 11.9213 165.481 11.716 164.557 11.716C163.926 11.716 163.303 11.8187 162.687 12.024C162.085 12.2147 161.572 12.4787 161.147 12.816L159.915 10.418C160.56 9.96333 161.337 9.61133 162.247 9.362C163.156 9.11267 164.08 8.988 165.019 8.988C166.823 8.988 168.223 9.41333 169.221 10.264C170.218 11.1147 170.717 12.442 170.717 14.246V21H167.505ZM163.897 21.176C162.973 21.176 162.181 21.022 161.521 20.714C160.861 20.3913 160.355 19.9587 160.003 19.416C159.651 18.8733 159.475 18.2647 159.475 17.59C159.475 16.886 159.643 16.27 159.981 15.742C160.333 15.214 160.883 14.8033 161.631 14.51C162.379 14.202 163.354 14.048 164.557 14.048H167.703V16.05H164.931C164.124 16.05 163.567 16.182 163.259 16.446C162.965 16.71 162.819 17.04 162.819 17.436C162.819 17.876 162.987 18.228 163.325 18.492C163.677 18.7413 164.153 18.866 164.755 18.866C165.327 18.866 165.84 18.734 166.295 18.47C166.749 18.1913 167.079 17.788 167.285 17.26L167.813 18.844C167.563 19.6067 167.109 20.186 166.449 20.582C165.789 20.978 164.938 21.176 163.897 21.176ZM177.594 21.22C176.685 21.22 175.776 21.1247 174.866 20.934C173.972 20.7433 173.143 20.4573 172.38 20.076L173.304 17.678C173.906 17.9713 174.558 18.1987 175.262 18.36C175.981 18.5067 176.707 18.58 177.44 18.58C177.968 18.58 178.423 18.5287 178.804 18.426C179.2 18.3087 179.501 18.1473 179.706 17.942C179.912 17.7367 180.014 17.4873 180.014 17.194C180.014 16.8127 179.853 16.5267 179.53 16.336C179.208 16.1307 178.738 16.028 178.122 16.028H175.702V13.894H177.836C178.232 13.894 178.57 13.85 178.848 13.762C179.127 13.674 179.332 13.5493 179.464 13.388C179.611 13.212 179.684 13.0067 179.684 12.772C179.684 12.5227 179.596 12.31 179.42 12.134C179.244 11.958 178.988 11.826 178.65 11.738C178.313 11.6353 177.888 11.584 177.374 11.584C176.788 11.584 176.179 11.6573 175.548 11.804C174.918 11.936 174.272 12.134 173.612 12.398L172.776 10.022C173.554 9.69933 174.324 9.44267 175.086 9.252C175.849 9.06133 176.604 8.95867 177.352 8.944C178.452 8.91467 179.442 9.032 180.322 9.296C181.202 9.56 181.892 9.94133 182.39 10.44C182.904 10.9387 183.16 11.5473 183.16 12.266C183.16 12.838 182.984 13.3513 182.632 13.806C182.295 14.2607 181.826 14.62 181.224 14.884C180.623 15.1333 179.948 15.258 179.2 15.258L179.288 14.576C180.594 14.576 181.62 14.84 182.368 15.368C183.116 15.8813 183.49 16.5853 183.49 17.48C183.49 18.2427 183.226 18.91 182.698 19.482C182.185 20.0393 181.481 20.472 180.586 20.78C179.706 21.0733 178.709 21.22 177.594 21.22ZM185.284 24.388L186.736 19.108L187.22 21.088C186.589 21.088 186.069 20.9047 185.658 20.538C185.262 20.1713 185.064 19.6653 185.064 19.02C185.064 18.3747 185.269 17.8613 185.68 17.48C186.091 17.0987 186.597 16.908 187.198 16.908C187.814 16.908 188.32 17.106 188.716 17.502C189.112 17.8833 189.31 18.3893 189.31 19.02C189.31 19.2107 189.295 19.4013 189.266 19.592C189.237 19.768 189.178 19.988 189.09 20.252C189.017 20.5013 188.892 20.824 188.716 21.22L187.462 24.388H185.284ZM197.932 21V9.164H207.414V11.98H200.572L201.342 11.232V21H197.932ZM216.514 19.46V11.98H212.642L212.576 13.498C212.546 14.1287 212.51 14.73 212.466 15.302C212.422 15.874 212.334 16.3947 212.202 16.864C212.084 17.3187 211.908 17.7073 211.674 18.03C211.439 18.338 211.124 18.5507 210.728 18.668L207.34 18.184C207.765 18.184 208.11 18.0593 208.374 17.81C208.638 17.546 208.843 17.1867 208.99 16.732C209.136 16.2627 209.246 15.7347 209.32 15.148C209.393 14.5467 209.444 13.916 209.474 13.256L209.628 9.164H219.946V19.46H216.514ZM206.944 23.552V18.184H221.64V23.552H218.45V21H210.134V23.552H206.944ZM229.585 21.176C228.236 21.176 227.048 20.912 226.021 20.384C225.009 19.856 224.225 19.1373 223.667 18.228C223.11 17.304 222.831 16.2553 222.831 15.082C222.831 13.894 223.103 12.8453 223.645 11.936C224.203 11.012 224.958 10.2933 225.911 9.78C226.865 9.252 227.943 8.988 229.145 8.988C230.304 8.988 231.345 9.23733 232.269 9.736C233.208 10.22 233.949 10.924 234.491 11.848C235.034 12.7573 235.305 13.85 235.305 15.126C235.305 15.258 235.298 15.412 235.283 15.588C235.269 15.7493 235.254 15.9033 235.239 16.05H225.625V14.048H233.435L232.115 14.642C232.115 14.026 231.991 13.4907 231.741 13.036C231.492 12.5813 231.147 12.2293 230.707 11.98C230.267 11.716 229.754 11.584 229.167 11.584C228.581 11.584 228.06 11.716 227.605 11.98C227.165 12.2293 226.821 12.5887 226.571 13.058C226.322 13.5127 226.197 14.0553 226.197 14.686V15.214C226.197 15.8593 226.337 16.4313 226.615 16.93C226.909 17.414 227.312 17.788 227.825 18.052C228.353 18.3013 228.969 18.426 229.673 18.426C230.304 18.426 230.854 18.3307 231.323 18.14C231.807 17.9493 232.247 17.6633 232.643 17.282L234.469 19.262C233.927 19.878 233.245 20.3547 232.423 20.692C231.602 21.0147 230.656 21.176 229.585 21.176ZM3.30001 51.444C2.68401 51.444 2.07534 51.3487 1.47401 51.158C0.872673 50.9673 0.38134 50.7033 6.34557e-06 50.366L1.25401 47.924C1.51801 48.1587 1.81867 48.342 2.15601 48.474C2.50801 48.606 2.85267 48.672 3.19001 48.672C3.67401 48.672 4.05534 48.5547 4.33401 48.32C4.62734 48.1 4.89134 47.726 5.12601 47.198L5.74201 45.746L6.00601 45.372L10.252 35.164H13.552L8.20601 47.726C7.82467 48.6793 7.38467 49.4273 6.88601 49.97C6.40201 50.5127 5.85934 50.894 5.25801 51.114C4.67134 51.334 4.01867 51.444 3.30001 51.444ZM5.32401 47.462L0.0440063 35.164H3.58601L7.67801 45.064L5.32401 47.462ZM22.5098 45.46V37.98H18.6378L18.5718 39.498C18.5425 40.1287 18.5058 40.73 18.4618 41.302C18.4178 41.874 18.3298 42.3947 18.1978 42.864C18.0805 43.3187 17.9045 43.7073 17.6698 44.03C17.4351 44.338 17.1198 44.5507 16.7238 44.668L13.3358 44.184C13.7611 44.184 14.1058 44.0593 14.3698 43.81C14.6338 43.546 14.8391 43.1867 14.9858 42.732C15.1325 42.2627 15.2425 41.7347 15.3158 41.148C15.3891 40.5467 15.4405 39.916 15.4698 39.256L15.6238 35.164H25.9418V45.46H22.5098ZM12.9398 49.552V44.184H27.6358V49.552H24.4458V47H16.1298V49.552H12.9398ZM35.3396 47.176C34.0782 47.176 32.9562 46.912 31.9736 46.384C31.0056 45.856 30.2356 45.1373 29.6636 44.228C29.1062 43.304 28.8276 42.2553 28.8276 41.082C28.8276 39.894 29.1062 38.8453 29.6636 37.936C30.2356 37.012 31.0056 36.2933 31.9736 35.78C32.9562 35.252 34.0782 34.988 35.3396 34.988C36.5862 34.988 37.7009 35.252 38.6836 35.78C39.6662 36.2933 40.4362 37.0047 40.9936 37.914C41.5509 38.8233 41.8296 39.8793 41.8296 41.082C41.8296 42.2553 41.5509 43.304 40.9936 44.228C40.4362 45.1373 39.6662 45.856 38.6836 46.384C37.7009 46.912 36.5862 47.176 35.3396 47.176ZM35.3396 44.36C35.9116 44.36 36.4249 44.228 36.8796 43.964C37.3342 43.7 37.6936 43.326 37.9576 42.842C38.2216 42.3433 38.3536 41.7567 38.3536 41.082C38.3536 40.3927 38.2216 39.806 37.9576 39.322C37.6936 38.838 37.3342 38.464 36.8796 38.2C36.4249 37.936 35.9116 37.804 35.3396 37.804C34.7676 37.804 34.2542 37.936 33.7996 38.2C33.3449 38.464 32.9782 38.838 32.6996 39.322C32.4356 39.806 32.3036 40.3927 32.3036 41.082C32.3036 41.7567 32.4356 42.3433 32.6996 42.842C32.9782 43.326 33.3449 43.7 33.7996 43.964C34.2542 44.228 34.7676 44.36 35.3396 44.36ZM50.0641 47.264C49.0961 47.264 48.2161 47.1247 47.4241 46.846C46.6321 46.5527 45.9428 46.1053 45.3561 45.504C44.7841 44.888 44.3368 44.1033 44.0141 43.15C43.7061 42.1967 43.5521 41.06 43.5521 39.74C43.5521 38.8013 43.6328 37.9433 43.7941 37.166C43.9554 36.3887 44.1974 35.6847 44.5201 35.054C44.8428 34.4087 45.2534 33.844 45.7521 33.36C46.2654 32.8613 46.8594 32.4507 47.5341 32.128C48.2234 31.7907 49.0008 31.534 49.8661 31.358L55.4981 30.236L55.9601 33.184L50.9881 34.174C50.6948 34.2327 50.3574 34.3133 49.9761 34.416C49.6094 34.504 49.2354 34.6433 48.8541 34.834C48.4874 35.0247 48.1428 35.296 47.8201 35.648C47.5121 35.9853 47.2628 36.4327 47.0721 36.99C46.8814 37.5327 46.7861 38.2073 46.7861 39.014C46.7861 39.2633 46.7934 39.454 46.8081 39.586C46.8374 39.718 46.8594 39.8573 46.8741 40.004C46.9034 40.1507 46.9181 40.378 46.9181 40.686L45.8181 39.608C46.1408 38.9187 46.5514 38.332 47.0501 37.848C47.5634 37.364 48.1501 36.9973 48.8101 36.748C49.4848 36.484 50.2328 36.352 51.0541 36.352C52.1688 36.352 53.1441 36.5793 53.9801 37.034C54.8308 37.474 55.4908 38.0973 55.9601 38.904C56.4294 39.7107 56.6641 40.6273 56.6641 41.654C56.6641 42.7687 56.3854 43.7513 55.8281 44.602C55.2708 45.438 54.4934 46.0907 53.4961 46.56C52.5134 47.0293 51.3694 47.264 50.0641 47.264ZM50.2401 44.602C50.8121 44.602 51.3181 44.4773 51.7581 44.228C52.1981 43.964 52.5354 43.6193 52.7701 43.194C53.0194 42.754 53.1441 42.2627 53.1441 41.72C53.1441 41.192 53.0194 40.7227 52.7701 40.312C52.5354 39.9013 52.1981 39.5787 51.7581 39.344C51.3181 39.1093 50.8048 38.992 50.2181 38.992C49.6461 38.992 49.1328 39.1093 48.6781 39.344C48.2234 39.564 47.8714 39.872 47.6221 40.268C47.3728 40.664 47.2481 41.126 47.2481 41.654C47.2481 42.1967 47.3728 42.6953 47.6221 43.15C47.8861 43.59 48.2381 43.942 48.6781 44.206C49.1328 44.47 49.6534 44.602 50.2401 44.602ZM58.9928 47V35.164H62.4028V39.784H67.5508V35.164H70.9828V47H67.5508V42.578H62.4028V47H58.9928ZM79.8122 47.176C78.5509 47.176 77.4289 46.912 76.4462 46.384C75.4782 45.856 74.7082 45.1373 74.1362 44.228C73.5789 43.304 73.3002 42.2553 73.3002 41.082C73.3002 39.894 73.5789 38.8453 74.1362 37.936C74.7082 37.012 75.4782 36.2933 76.4462 35.78C77.4289 35.252 78.5509 34.988 79.8122 34.988C81.0589 34.988 82.1736 35.252 83.1562 35.78C84.1389 36.2933 84.9089 37.0047 85.4662 37.914C86.0236 38.8233 86.3022 39.8793 86.3022 41.082C86.3022 42.2553 86.0236 43.304 85.4662 44.228C84.9089 45.1373 84.1389 45.856 83.1562 46.384C82.1736 46.912 81.0589 47.176 79.8122 47.176ZM79.8122 44.36C80.3842 44.36 80.8976 44.228 81.3522 43.964C81.8069 43.7 82.1662 43.326 82.4302 42.842C82.6942 42.3433 82.8262 41.7567 82.8262 41.082C82.8262 40.3927 82.6942 39.806 82.4302 39.322C82.1662 38.838 81.8069 38.464 81.3522 38.2C80.8976 37.936 80.3842 37.804 79.8122 37.804C79.2402 37.804 78.7269 37.936 78.2722 38.2C77.8176 38.464 77.4509 38.838 77.1722 39.322C76.9082 39.806 76.7762 40.3927 76.7762 41.082C76.7762 41.7567 76.9082 42.3433 77.1722 42.842C77.4509 43.326 77.8176 43.7 78.2722 43.964C78.7269 44.228 79.2402 44.36 79.8122 44.36ZM94.8932 47V35.164H100.943C102.425 35.164 103.583 35.4353 104.419 35.978C105.255 36.506 105.673 37.254 105.673 38.222C105.673 39.19 105.277 39.9527 104.485 40.51C103.708 41.0527 102.674 41.324 101.383 41.324L101.735 40.532C103.173 40.532 104.243 40.796 104.947 41.324C105.666 41.852 106.025 42.622 106.025 43.634C106.025 44.6753 105.629 45.4967 104.837 46.098C104.045 46.6993 102.835 47 101.207 47H94.8932ZM98.0392 44.668H100.921C101.552 44.668 102.021 44.5653 102.329 44.36C102.652 44.14 102.813 43.81 102.813 43.37C102.813 42.9153 102.667 42.5853 102.373 42.38C102.08 42.16 101.618 42.05 100.987 42.05H98.0392V44.668ZM98.0392 40.026H100.635C101.237 40.026 101.684 39.916 101.977 39.696C102.285 39.476 102.439 39.1607 102.439 38.75C102.439 38.3247 102.285 38.0093 101.977 37.804C101.684 37.5987 101.237 37.496 100.635 37.496H98.0392V40.026ZM117.955 30.676L116.503 35.956L116.019 33.976C116.65 33.976 117.163 34.1593 117.559 34.526C117.955 34.8927 118.153 35.3987 118.153 36.044C118.153 36.6747 117.948 37.188 117.537 37.584C117.141 37.9653 116.643 38.156 116.041 38.156C115.425 38.156 114.912 37.9653 114.501 37.584C114.105 37.188 113.907 36.6747 113.907 36.044C113.907 35.8533 113.922 35.67 113.951 35.494C113.981 35.3033 114.039 35.0833 114.127 34.834C114.215 34.5847 114.34 34.2547 114.501 33.844L115.777 30.676H117.955ZM123.147 30.676L121.695 35.956L121.211 33.976C121.842 33.976 122.355 34.1593 122.751 34.526C123.147 34.8927 123.345 35.3987 123.345 36.044C123.345 36.6747 123.14 37.188 122.729 37.584C122.333 37.9653 121.835 38.156 121.233 38.156C120.617 38.156 120.104 37.9653 119.693 37.584C119.297 37.188 119.099 36.6747 119.099 36.044C119.099 35.8533 119.114 35.67 119.143 35.494C119.173 35.3033 119.231 35.0833 119.319 34.834C119.407 34.5847 119.532 34.2547 119.693 33.844L120.969 30.676H123.147ZM126.432 47V35.164H129.842V39.784H134.99V35.164H138.422V47H134.99V42.578H129.842V47H126.432ZM148.792 47V44.69L148.572 44.184V40.048C148.572 39.3147 148.344 38.7427 147.89 38.332C147.45 37.9213 146.768 37.716 145.844 37.716C145.213 37.716 144.59 37.8187 143.974 38.024C143.372 38.2147 142.859 38.4787 142.434 38.816L141.202 36.418C141.847 35.9633 142.624 35.6113 143.534 35.362C144.443 35.1127 145.367 34.988 146.306 34.988C148.11 34.988 149.51 35.4133 150.508 36.264C151.505 37.1147 152.004 38.442 152.004 40.246V47H148.792ZM145.184 47.176C144.26 47.176 143.468 47.022 142.808 46.714C142.148 46.3913 141.642 45.9587 141.29 45.416C140.938 44.8733 140.762 44.2647 140.762 43.59C140.762 42.886 140.93 42.27 141.268 41.742C141.62 41.214 142.17 40.8033 142.918 40.51C143.666 40.202 144.641 40.048 145.844 40.048H148.99V42.05H146.218C145.411 42.05 144.854 42.182 144.546 42.446C144.252 42.71 144.106 43.04 144.106 43.436C144.106 43.876 144.274 44.228 144.612 44.492C144.964 44.7413 145.44 44.866 146.042 44.866C146.614 44.866 147.127 44.734 147.582 44.47C148.036 44.1913 148.366 43.788 148.572 43.26L149.1 44.844C148.85 45.6067 148.396 46.186 147.736 46.582C147.076 46.978 146.225 47.176 145.184 47.176ZM158.882 47.22C157.972 47.22 157.063 47.1247 156.154 46.934C155.259 46.7433 154.43 46.4573 153.668 46.076L154.592 43.678C155.193 43.9713 155.846 44.1987 156.55 44.36C157.268 44.5067 157.994 44.58 158.728 44.58C159.256 44.58 159.71 44.5287 160.092 44.426C160.488 44.3087 160.788 44.1473 160.994 43.942C161.199 43.7367 161.302 43.4873 161.302 43.194C161.302 42.8127 161.14 42.5267 160.818 42.336C160.495 42.1307 160.026 42.028 159.41 42.028H156.99V39.894H159.124C159.52 39.894 159.857 39.85 160.136 39.762C160.414 39.674 160.62 39.5493 160.752 39.388C160.898 39.212 160.972 39.0067 160.972 38.772C160.972 38.5227 160.884 38.31 160.708 38.134C160.532 37.958 160.275 37.826 159.938 37.738C159.6 37.6353 159.175 37.584 158.662 37.584C158.075 37.584 157.466 37.6573 156.836 37.804C156.205 37.936 155.56 38.134 154.9 38.398L154.064 36.022C154.841 35.6993 155.611 35.4427 156.374 35.252C157.136 35.0613 157.892 34.9587 158.64 34.944C159.74 34.9147 160.73 35.032 161.61 35.296C162.49 35.56 163.179 35.9413 163.678 36.44C164.191 36.9387 164.448 37.5473 164.448 38.266C164.448 38.838 164.272 39.3513 163.92 39.806C163.582 40.2607 163.113 40.62 162.512 40.884C161.91 41.1333 161.236 41.258 160.488 41.258L160.576 40.576C161.881 40.576 162.908 40.84 163.656 41.368C164.404 41.8813 164.778 42.5853 164.778 43.48C164.778 44.2427 164.514 44.91 163.986 45.482C163.472 46.0393 162.768 46.472 161.874 46.78C160.994 47.0733 159.996 47.22 158.882 47.22ZM167.231 47V35.164H173.281C174.762 35.164 175.921 35.4353 176.757 35.978C177.593 36.506 178.011 37.254 178.011 38.222C178.011 39.19 177.615 39.9527 176.823 40.51C176.046 41.0527 175.012 41.324 173.721 41.324L174.073 40.532C175.51 40.532 176.581 40.796 177.285 41.324C178.004 41.852 178.363 42.622 178.363 43.634C178.363 44.6753 177.967 45.4967 177.175 46.098C176.383 46.6993 175.173 47 173.545 47H167.231ZM170.377 44.668H173.259C173.89 44.668 174.359 44.5653 174.667 44.36C174.99 44.14 175.151 43.81 175.151 43.37C175.151 42.9153 175.004 42.5853 174.711 42.38C174.418 42.16 173.956 42.05 173.325 42.05H170.377V44.668ZM170.377 40.026H172.973C173.574 40.026 174.022 39.916 174.315 39.696C174.623 39.476 174.777 39.1607 174.777 38.75C174.777 38.3247 174.623 38.0093 174.315 37.804C174.022 37.5987 173.574 37.496 172.973 37.496H170.377V40.026ZM188.001 47V44.69L187.781 44.184V40.048C187.781 39.3147 187.553 38.7427 187.099 38.332C186.659 37.9213 185.977 37.716 185.053 37.716C184.422 37.716 183.799 37.8187 183.183 38.024C182.581 38.2147 182.068 38.4787 181.643 38.816L180.411 36.418C181.056 35.9633 181.833 35.6113 182.743 35.362C183.652 35.1127 184.576 34.988 185.515 34.988C187.319 34.988 188.719 35.4133 189.717 36.264C190.714 37.1147 191.213 38.442 191.213 40.246V47H188.001ZM184.393 47.176C183.469 47.176 182.677 47.022 182.017 46.714C181.357 46.3913 180.851 45.9587 180.499 45.416C180.147 44.8733 179.971 44.2647 179.971 43.59C179.971 42.886 180.139 42.27 180.477 41.742C180.829 41.214 181.379 40.8033 182.127 40.51C182.875 40.202 183.85 40.048 185.053 40.048H188.199V42.05H185.427C184.62 42.05 184.063 42.182 183.755 42.446C183.461 42.71 183.315 43.04 183.315 43.436C183.315 43.876 183.483 44.228 183.821 44.492C184.173 44.7413 184.649 44.866 185.251 44.866C185.823 44.866 186.336 44.734 186.791 44.47C187.245 44.1913 187.575 43.788 187.781 43.26L188.309 44.844C188.059 45.6067 187.605 46.186 186.945 46.582C186.285 46.978 185.434 47.176 184.393 47.176ZM194.194 47V35.164H197.604V39.784H202.752V35.164H206.184V47H202.752V42.578H197.604V47H194.194ZM209.469 47V35.164H212.879V42.204L218.643 35.164H221.789V47H218.379V39.96L212.637 47H209.469ZM230.875 47.176C229.525 47.176 228.337 46.912 227.311 46.384C226.299 45.856 225.514 45.1373 224.957 44.228C224.399 43.304 224.121 42.2553 224.121 41.082C224.121 39.894 224.392 38.8453 224.935 37.936C225.492 37.012 226.247 36.2933 227.201 35.78C228.154 35.252 229.232 34.988 230.435 34.988C231.593 34.988 232.635 35.2373 233.559 35.736C234.497 36.22 235.238 36.924 235.781 37.848C236.323 38.7573 236.595 39.85 236.595 41.126C236.595 41.258 236.587 41.412 236.573 41.588C236.558 41.7493 236.543 41.9033 236.529 42.05H226.915V40.048H234.725L233.405 40.642C233.405 40.026 233.28 39.4907 233.031 39.036C232.781 38.5813 232.437 38.2293 231.997 37.98C231.557 37.716 231.043 37.584 230.457 37.584C229.87 37.584 229.349 37.716 228.895 37.98C228.455 38.2293 228.11 38.5887 227.861 39.058C227.611 39.5127 227.487 40.0553 227.487 40.686V41.214C227.487 41.8593 227.626 42.4313 227.905 42.93C228.198 43.414 228.601 43.788 229.115 44.052C229.643 44.3013 230.259 44.426 230.963 44.426C231.593 44.426 232.143 44.3307 232.613 44.14C233.097 43.9493 233.537 43.6633 233.933 43.282L235.759 45.262C235.216 45.878 234.534 46.3547 233.713 46.692C232.891 47.0147 231.945 47.176 230.875 47.176ZM1.69401 73V61.164H11.176V63.98H4.33401L5.10401 63.232V73H1.69401ZM18.0446 73.176C16.7833 73.176 15.6613 72.912 14.6786 72.384C13.7106 71.856 12.9406 71.1373 12.3686 70.228C11.8113 69.304 11.5326 68.2553 11.5326 67.082C11.5326 65.894 11.8113 64.8453 12.3686 63.936C12.9406 63.012 13.7106 62.2933 14.6786 61.78C15.6613 61.252 16.7833 60.988 18.0446 60.988C19.2913 60.988 20.406 61.252 21.3886 61.78C22.3713 62.2933 23.1413 63.0047 23.6986 63.914C24.256 64.8233 24.5346 65.8793 24.5346 67.082C24.5346 68.2553 24.256 69.304 23.6986 70.228C23.1413 71.1373 22.3713 71.856 21.3886 72.384C20.406 72.912 19.2913 73.176 18.0446 73.176ZM18.0446 70.36C18.6166 70.36 19.13 70.228 19.5846 69.964C20.0393 69.7 20.3986 69.326 20.6626 68.842C20.9266 68.3433 21.0586 67.7567 21.0586 67.082C21.0586 66.3927 20.9266 65.806 20.6626 65.322C20.3986 64.838 20.0393 64.464 19.5846 64.2C19.13 63.936 18.6166 63.804 18.0446 63.804C17.4726 63.804 16.9593 63.936 16.5046 64.2C16.05 64.464 15.6833 64.838 15.4046 65.322C15.1406 65.806 15.0086 66.3927 15.0086 67.082C15.0086 67.7567 15.1406 68.3433 15.4046 68.842C15.6833 69.326 16.05 69.7 16.5046 69.964C16.9593 70.228 17.4726 70.36 18.0446 70.36ZM33.8692 73.176C32.8718 73.176 31.9992 72.956 31.2512 72.516C30.5032 72.076 29.9165 71.4087 29.4912 70.514C29.0805 69.6047 28.8752 68.4607 28.8752 67.082C28.8752 65.6887 29.0732 64.5447 29.4692 63.65C29.8652 62.7553 30.4372 62.088 31.1852 61.648C31.9332 61.208 32.8278 60.988 33.8692 60.988C34.9838 60.988 35.9812 61.2447 36.8612 61.758C37.7558 62.2567 38.4598 62.9607 38.9732 63.87C39.5012 64.7793 39.7652 65.85 39.7652 67.082C39.7652 68.3287 39.5012 69.4067 38.9732 70.316C38.4598 71.2253 37.7558 71.9293 36.8612 72.428C35.9812 72.9267 34.9838 73.176 33.8692 73.176ZM26.8732 77.268V61.164H30.1512V63.584L30.0852 67.104L30.3052 70.602V77.268H26.8732ZM33.2752 70.36C33.8472 70.36 34.3532 70.228 34.7932 69.964C35.2478 69.7 35.6072 69.326 35.8712 68.842C36.1498 68.3433 36.2892 67.7567 36.2892 67.082C36.2892 66.3927 36.1498 65.806 35.8712 65.322C35.6072 64.838 35.2478 64.464 34.7932 64.2C34.3532 63.936 33.8472 63.804 33.2752 63.804C32.7032 63.804 32.1898 63.936 31.7352 64.2C31.2805 64.464 30.9212 64.838 30.6572 65.322C30.3932 65.806 30.2612 66.3927 30.2612 67.082C30.2612 67.7567 30.3932 68.3433 30.6572 68.842C30.9212 69.326 31.2805 69.7 31.7352 69.964C32.1898 70.228 32.7032 70.36 33.2752 70.36ZM47.7146 73.176C46.4532 73.176 45.3312 72.912 44.3486 72.384C43.3806 71.856 42.6106 71.1373 42.0386 70.228C41.4812 69.304 41.2026 68.2553 41.2026 67.082C41.2026 65.894 41.4812 64.8453 42.0386 63.936C42.6106 63.012 43.3806 62.2933 44.3486 61.78C45.3312 61.252 46.4532 60.988 47.7146 60.988C48.9612 60.988 50.0759 61.252 51.0586 61.78C52.0412 62.2933 52.8112 63.0047 53.3686 63.914C53.9259 64.8233 54.2046 65.8793 54.2046 67.082C54.2046 68.2553 53.9259 69.304 53.3686 70.228C52.8112 71.1373 52.0412 71.856 51.0586 72.384C50.0759 72.912 48.9612 73.176 47.7146 73.176ZM47.7146 70.36C48.2866 70.36 48.7999 70.228 49.2546 69.964C49.7092 69.7 50.0686 69.326 50.3326 68.842C50.5966 68.3433 50.7286 67.7567 50.7286 67.082C50.7286 66.3927 50.5966 65.806 50.3326 65.322C50.0686 64.838 49.7092 64.464 49.2546 64.2C48.7999 63.936 48.2866 63.804 47.7146 63.804C47.1426 63.804 46.6292 63.936 46.1746 64.2C45.7199 64.464 45.3532 64.838 45.0746 65.322C44.8106 65.806 44.6786 66.3927 44.6786 67.082C44.6786 67.7567 44.8106 68.3433 45.0746 68.842C45.3532 69.326 45.7199 69.7 46.1746 69.964C46.6292 70.228 47.1426 70.36 47.7146 70.36ZM64.5332 71.46V63.98H60.6612L60.5952 65.498C60.5659 66.1287 60.5292 66.73 60.4852 67.302C60.4412 67.874 60.3532 68.3947 60.2212 68.864C60.1039 69.3187 59.9279 69.7073 59.6932 70.03C59.4586 70.338 59.1432 70.5507 58.7472 70.668L55.3592 70.184C55.7846 70.184 56.1292 70.0593 56.3932 69.81C56.6572 69.546 56.8626 69.1867 57.0092 68.732C57.1559 68.2627 57.2659 67.7347 57.3392 67.148C57.4126 66.5467 57.4639 65.916 57.4932 65.256L57.6472 61.164H67.9652V71.46H64.5332ZM54.9632 75.552V70.184H69.6592V75.552H66.4692V73H58.1532V75.552H54.9632ZM78.903 73V70.69L78.683 70.184V66.048C78.683 65.3147 78.4557 64.7427 78.001 64.332C77.561 63.9213 76.879 63.716 75.955 63.716C75.3243 63.716 74.701 63.8187 74.085 64.024C73.4837 64.2147 72.9703 64.4787 72.545 64.816L71.313 62.418C71.9583 61.9633 72.7357 61.6113 73.645 61.362C74.5543 61.1127 75.4783 60.988 76.417 60.988C78.221 60.988 79.6217 61.4133 80.619 62.264C81.6163 63.1147 82.115 64.442 82.115 66.246V73H78.903ZM75.295 73.176C74.371 73.176 73.579 73.022 72.919 72.714C72.259 72.3913 71.753 71.9587 71.401 71.416C71.049 70.8733 70.873 70.2647 70.873 69.59C70.873 68.886 71.0417 68.27 71.379 67.742C71.731 67.214 72.281 66.8033 73.029 66.51C73.777 66.202 74.7523 66.048 75.955 66.048H79.101V68.05H76.329C75.5223 68.05 74.965 68.182 74.657 68.446C74.3637 68.71 74.217 69.04 74.217 69.436C74.217 69.876 74.3857 70.228 74.723 70.492C75.075 70.7413 75.5517 70.866 76.153 70.866C76.725 70.866 77.2383 70.734 77.693 70.47C78.1477 70.1913 78.4777 69.788 78.683 69.26L79.211 70.844C78.9617 71.6067 78.507 72.186 77.847 72.582C77.187 72.978 76.3363 73.176 75.295 73.176ZM84.4364 63.98L85.8884 58.7L86.3724 60.702C85.7417 60.702 85.221 60.5187 84.8104 60.152C84.4144 59.7707 84.2164 59.2573 84.2164 58.612C84.2164 57.9813 84.4217 57.4753 84.8324 57.094C85.243 56.698 85.749 56.5 86.3504 56.5C86.9664 56.5 87.4724 56.698 87.8684 57.094C88.2644 57.4753 88.4624 57.9813 88.4624 58.612C88.4624 58.8027 88.4477 58.9933 88.4184 59.184C88.4037 59.36 88.3524 59.5727 88.2644 59.822C88.191 60.0713 88.0664 60.4013 87.8904 60.812L86.6144 63.98H84.4364ZM89.6284 63.98L91.0804 58.7L91.5644 60.702C90.9337 60.702 90.413 60.5187 90.0024 60.152C89.6064 59.7707 89.4084 59.2573 89.4084 58.612C89.4084 57.9813 89.6137 57.4753 90.0244 57.094C90.435 56.698 90.941 56.5 91.5424 56.5C92.1584 56.5 92.6644 56.698 93.0604 57.094C93.4564 57.4753 93.6544 57.9813 93.6544 58.612C93.6544 58.8027 93.6397 58.9933 93.6104 59.184C93.5957 59.36 93.5444 59.5727 93.4564 59.822C93.383 60.0713 93.2584 60.4013 93.0824 60.812L91.8064 63.98H89.6284Z" fill="#141414"/>
</svg>
