<svg width="136" height="20" viewBox="0 0 136 20" fill="none" xmlns="http://www.w3.org/2000/svg">
<g clip-path="url(#clip0_5134_2278)">
<mask id="mask0_5134_2278" style="mask-type:luminance" maskUnits="userSpaceOnUse" x="0" y="0" width="20" height="20">
<path d="M0 0H20V20H0V0Z" fill="white"/>
</mask>
<g mask="url(#mask0_5134_2278)">
<path d="M10 20C15.5228 20 20 15.5228 20 10C20 4.47715 15.5228 0 10 0C4.47715 0 0 4.47715 0 10C0 15.5228 4.47715 20 10 20Z" fill="#FF5226"/>
<path d="M11.62 16.2997V5.59306H10.364C9.45865 5.59306 8.77198 5.78506 8.30532 6.16973C7.83865 6.54039 7.60532 7.03439 7.60532 7.65239C7.60532 8.11906 7.68732 8.51706 7.85198 8.84639C8.01665 9.17573 8.25732 9.47773 8.57265 9.75239C8.88865 10.0271 9.28665 10.3291 9.76732 10.6584L10.9613 11.4611L7.46132 16.3004H4.82532L8.16132 11.7704L9.72598 13.1704L8.49065 12.3877C7.86947 11.9842 7.27776 11.5371 6.71998 11.0497C6.22532 10.6097 5.84798 10.1297 5.58732 9.60839C5.32665 9.08639 5.19598 8.47573 5.19598 7.77573C5.19598 6.56773 5.62865 5.59306 6.49332 4.85173C7.37198 4.09706 8.65532 3.71973 10.3433 3.71973H14.07V16.2997H11.62Z" fill="white"/>
</g>
<path d="M31.7033 20C26.1866 20 21.7033 15.534 21.7033 10.018C21.7033 4.50133 26.1866 0 31.7033 0C37.2193 0 41.7033 4.50133 41.7033 10.018C41.7033 15.534 37.2193 20 31.7033 20Z" fill="#FF5226"/>
<path d="M30.1547 1.35352L18.9987 18.7602H24.1127L30.5573 8.72685L30.4 8.65552L28.6133 15.8355L32.396 16.5022L36.284 11.6155L36.0733 11.5108L34.76 17.0615L43.002 15.4908L41.3207 12.7215L38.35 13.4015L38.7007 13.8048L40.084 8.00818L36.8613 5.85352L32.6413 11.1602L32.8513 11.2655L34.5847 4.31218L30.1547 1.35352Z" fill="#FFDD00"/>
<path d="M30.1547 1.35352L18.9987 18.7602H24.1127L30.5573 8.72685L30.4 8.65552L28.6133 15.8355L32.396 16.5022L36.284 11.6155L36.0733 11.5108L34.76 17.0615L38.0733 16.4302L40.084 8.00818L36.8613 5.85352L32.6413 11.1602L32.8513 11.2655L34.5847 4.31218L30.1547 1.35352Z" fill="#FFDD00"/>
<path d="M45.5367 16.3004L51.7547 3.72039H56.49L57.458 11.3797L62.2553 3.71973H66.95V16.3004H62.3587V9.54706L58.096 16.3004H53.5047L52.62 9.48506L49.2427 16.3004H45.5367ZM81.054 13.8091C81.054 14.2351 81.0613 14.6537 81.0747 15.0651C81.0887 15.4771 81.116 15.8817 81.1573 16.2797H76.8947C76.7935 16.082 76.7109 15.8754 76.648 15.6624C76.564 15.3805 76.5089 15.0908 76.4833 14.7977C76.044 15.3191 75.488 15.7511 74.8153 16.0944C74.1567 16.4244 73.216 16.5891 71.9947 16.5891C70.7593 16.5891 69.7707 16.3004 69.0293 15.7244C68.302 15.1477 67.9387 14.3791 67.9387 13.4177C67.9387 12.5257 68.192 11.8397 68.7 11.3591C69.222 10.8651 70.0313 10.5217 71.13 10.3297C72.228 10.1231 73.6347 10.0204 75.3507 10.0204H76.4213V9.79373C76.4213 9.35506 76.236 9.01839 75.8653 8.78506C75.4947 8.55173 74.8013 8.43506 73.786 8.43506C72.784 8.43506 71.8507 8.56573 70.9853 8.82639C70.1347 9.07306 69.4413 9.32039 68.906 9.56773V6.80839C69.51 6.58839 70.32 6.36906 71.336 6.14973C72.3653 5.91639 73.5387 5.79973 74.8567 5.79973C76.188 5.79973 77.3133 5.92306 78.2333 6.17039C79.1533 6.40373 79.8533 6.80839 80.3333 7.38506C80.814 7.94773 81.054 8.73039 81.054 9.73239V13.8091ZM82.454 6.10906H86.7167L86.9633 7.85839C87.4853 7.17239 88.1093 6.67173 88.8373 6.35573C89.5647 6.03973 90.402 5.88239 91.3493 5.88239C92.42 5.88239 93.3807 6.07439 94.232 6.45839C95.0645 6.82695 95.7672 7.4368 96.2493 8.20906C96.744 8.99106 96.9907 9.97973 96.9907 11.1737C96.9907 12.3677 96.744 13.3631 96.2493 14.1591C95.7693 14.9417 95.0967 15.5324 94.232 15.9297C93.3667 16.3284 92.3787 16.5271 91.2667 16.5271C90.4707 16.5321 89.681 16.3853 88.94 16.0944C88.226 15.7931 87.6087 15.3191 87.0873 14.6744V18.9571H82.454V6.10839V6.10906ZM110.415 11.1737C110.415 10.1577 110.69 9.25173 111.239 8.45573C111.802 7.65973 112.598 7.03573 113.627 6.58239C114.671 6.11573 115.899 5.88239 117.313 5.88239C118.782 5.88239 120.011 6.13573 120.999 6.64373C122.001 7.15173 122.701 7.87239 123.099 8.80573C123.511 9.73906 123.565 10.8444 123.263 12.1211H115.131C115.295 12.7111 115.659 13.1571 116.222 13.4591C116.799 13.7477 117.649 13.8917 118.775 13.8917C119.557 13.8917 120.285 13.8231 120.957 13.6851C121.59 13.5452 122.216 13.3737 122.831 13.1711V15.6211C122.241 15.8957 121.582 16.1151 120.855 16.2797C120.141 16.4444 119.201 16.5271 118.034 16.5271C115.467 16.5271 113.552 16.0537 112.289 15.1064C111.04 14.1457 110.415 12.8351 110.415 11.1737ZM123.655 6.10839H135.412V8.74439H131.747V16.2797H127.114V8.74439H123.655V6.10839ZM97.876 6.10839H102.509V10.7204L106.895 6.10839H110.889L106.812 10.3497L111.733 16.2797H106.133L102.509 11.7911V16.2797H97.876V6.10839ZM117.334 8.18839C116.702 8.18839 116.201 8.37373 115.831 8.74439C115.46 9.10106 115.22 9.56106 115.11 10.1237H119.187C119.173 9.56106 119.022 9.10106 118.734 8.74373C118.445 8.37373 117.979 8.18839 117.334 8.18839ZM92.2553 11.1737C92.2553 10.3497 92.0287 9.69773 91.5753 9.21773C91.1367 8.72373 90.5047 8.47639 89.6813 8.47639C88.9267 8.47639 88.2947 8.70973 87.7873 9.17639C87.2793 9.62973 87.0253 10.2951 87.0253 11.1737C87.0253 12.0524 87.272 12.7317 87.7667 13.2124C88.2747 13.6791 88.9127 13.9124 89.6813 13.9124C90.5327 13.9124 91.1707 13.6651 91.596 13.1711C92.0353 12.6771 92.2553 12.0111 92.2553 11.1737ZM76.4213 11.8937H75.3713C74.3693 11.8937 73.6487 11.9771 73.2093 12.1417C72.784 12.3064 72.5713 12.6217 72.5713 13.0884C72.5713 13.4864 72.7087 13.7817 72.9827 13.9737C73.2713 14.1524 73.614 14.2417 74.0127 14.2417C74.6167 14.2417 75.1107 14.1317 75.4947 13.9124C75.8927 13.6791 76.202 13.4111 76.4213 13.1091V11.8937Z" fill="black"/>
</g>
<defs>
<clipPath id="clip0_5134_2278">
<rect width="136" height="20" fill="white"/>
</clipPath>
</defs>
</svg>
