<svg width="144" height="20" viewBox="0 0 144 20" fill="none" xmlns="http://www.w3.org/2000/svg">
<g clip-path="url(#clip0_5134_2177)">
<path d="M11.836 0.426758V19.684H8.63939V3.19371H3.20274V19.684H0V0.426758H11.836Z" fill="#1937FF"/>
<path d="M15.8719 18.9225C14.9117 18.0391 14.2152 16.9054 13.8601 15.648C13.3399 13.8871 13.0984 12.0553 13.1443 10.2193C13.0999 8.33664 13.3413 6.45814 13.8601 4.64826C14.2124 3.35404 14.9076 2.1797 15.8719 1.24994C16.717 0.524587 17.7926 0.125977 18.9049 0.125977C20.0171 0.125977 21.0928 0.524587 21.9379 1.24994C22.901 2.16863 23.5928 3.33595 23.9374 4.62351C24.4528 6.43409 24.6941 8.31209 24.6532 10.1945C24.6996 12.0407 24.4581 13.8828 23.9374 15.6541C23.5921 16.9111 22.8989 18.0444 21.9379 18.9225C21.0789 19.6226 20.0057 20.0049 18.8988 20.0049C17.7918 20.0049 16.7186 19.6226 15.8595 18.9225H15.8719ZM16.6618 14.0571C16.7877 14.8823 17.0955 15.669 17.5627 16.3598C17.7095 16.5839 17.9078 16.7694 18.1407 16.9008C18.3737 17.0321 18.6347 17.1056 18.9018 17.115C19.6917 17.115 20.315 16.5394 20.7531 15.3756C21.2945 13.713 21.5368 11.967 21.4689 10.2193C21.4883 8.8797 21.385 7.5412 21.1604 6.22053C21.024 5.36155 20.7086 4.5411 20.2347 3.81261C20.0933 3.57694 19.8958 3.38008 19.66 3.23967C19.4242 3.09924 19.1573 3.01961 18.8833 3.00791C18.6142 3.023 18.353 3.10431 18.1227 3.24465C17.8924 3.38499 17.7001 3.58005 17.5627 3.81261C17.0952 4.54869 16.7882 5.37558 16.6618 6.23914C16.4269 7.55647 16.3195 8.89359 16.3409 10.2317C16.3201 11.5144 16.4276 12.796 16.6618 14.0571Z" fill="#1937FF"/>
<path d="M33.4345 0.426758V7.81148H31.7437C31.127 7.83742 30.5126 7.72092 29.9479 7.47104C29.5015 7.23548 29.16 6.83981 28.9914 6.36298C28.7642 5.70276 28.6616 5.00585 28.689 4.30791V0.426758H25.4924V4.30791C25.3962 5.98737 25.8945 7.64698 26.8994 8.99376C27.8374 10.1286 29.2382 10.696 31.1018 10.696H33.4345V19.684H36.6373V0.426758H33.4345Z" fill="#1937FF"/>
<path d="M48.6823 3.19371H44.918V19.684H41.7337V3.19371H37.9756V0.426758H48.6823V3.19371Z" fill="#1937FF"/>
<path d="M53.2329 0.427H55.794C56.8463 0.38545 57.888 0.656794 58.7869 1.20695C59.5784 1.74074 60.1926 2.49945 60.552 3.38584C60.9946 4.48402 61.2732 5.64162 61.3784 6.82128L62.8721 19.6842H59.6759L58.6324 10.6963H53.2329V19.6842H50.0365V0.427H53.2329ZM53.2329 7.92934H58.3178L58.17 6.82128C58.1135 6.11051 57.9684 5.40971 57.738 4.73527C57.5746 4.28214 57.2583 3.90092 56.8429 3.6582C56.3046 3.4019 55.7109 3.28487 55.1151 3.31775H53.2329V7.92934Z" fill="#1937FF"/>
<path d="M76.1256 0.427415C77.1923 0.401764 78.2446 0.678537 79.1618 1.22593C80.0612 1.80003 80.7613 2.63887 81.1673 3.62766C81.6796 4.88553 81.9238 6.23719 81.8828 7.59546C81.9127 8.88452 81.684 10.1665 81.2105 11.3652C80.8571 12.2793 80.2922 13.0961 79.5628 13.7484C79.0571 14.223 78.4025 14.5054 77.7113 14.5469C77.3557 14.5699 76.9985 14.5135 76.6673 14.3819C76.335 14.2501 76.0364 14.0465 75.7927 13.7855V19.6846H72.5959V0.427415H76.1256ZM75.9833 10.4243C76.0647 10.768 76.2275 11.0866 76.459 11.3529C76.5349 11.4445 76.6285 11.5192 76.7348 11.5726C76.8412 11.6259 76.9575 11.6564 77.076 11.6624C77.3551 11.6467 77.6177 11.525 77.8104 11.3219C78.1051 11.0076 78.3172 10.6247 78.4268 10.2077C78.6052 9.56724 78.6866 8.90374 78.6678 8.23924C78.6678 6.44002 78.4501 5.16896 78.0142 4.42618C77.8298 4.0837 77.5545 3.79895 77.2194 3.60341C76.8838 3.40788 76.5011 3.30916 76.1134 3.31816H75.7927V8.88919C75.7867 9.40724 75.8515 9.92363 75.9833 10.4243Z" fill="#1937FF"/>
<path d="M85.4435 18.9228C84.4815 18.0411 83.7842 16.9068 83.4319 15.6483C82.9091 13.8878 82.6654 12.0559 82.7097 10.2196C82.6665 8.3366 82.9096 6.45799 83.4319 4.64858C83.7808 3.35301 84.4765 2.17786 85.4435 1.25026C86.2754 0.508557 87.3543 0.10659 88.4669 0.123671C89.5846 0.105032 90.669 0.504435 91.5098 1.24406C92.4757 2.16873 93.1696 3.3423 93.5152 4.6362C94.0281 6.44716 94.2674 8.3251 94.2247 10.2073C94.269 12.0443 94.0314 13.8773 93.5213 15.6421C93.1735 16.898 92.4807 18.0305 91.522 18.9104C90.658 19.6344 89.5619 20.0194 88.4365 19.9937C87.3432 20.0049 86.2826 19.6253 85.4435 18.9228ZM86.2272 14.0574C86.359 14.8811 86.6664 15.6665 87.1283 16.3602C87.2751 16.5838 87.4733 16.769 87.706 16.9004C87.9397 17.0318 88.2005 17.1054 88.4669 17.1153C89.2634 17.1153 89.8803 16.5396 90.3184 15.3759C90.8496 13.7114 91.0811 11.9655 91.0035 10.2196C91.024 8.87971 90.9188 7.54088 90.689 6.22082C90.5688 5.36724 90.2747 4.54754 89.825 3.81293C89.6926 3.57013 89.4976 3.36753 89.26 3.22638C89.023 3.08525 88.7522 3.01076 88.4763 3.01076C88.2005 3.01076 87.9297 3.08525 87.6921 3.22638C87.4556 3.36753 87.2601 3.57013 87.1283 3.81293C86.6653 4.55127 86.3584 5.3772 86.2272 6.23938C85.9979 7.55749 85.8921 8.89416 85.912 10.232C85.8927 11.5144 85.9984 12.7956 86.2272 14.0574Z" fill="#1937FF"/>
<path d="M96.4407 4.78481C97.2277 3.3438 98.4567 2.19557 99.9454 1.51028C101.683 0.748627 103.566 0.378845 105.462 0.427021V3.31777C103.191 3.31777 101.451 3.89551 100.242 5.05095C99.0072 6.20234 98.4274 7.92934 98.4274 10.2196C98.4274 12.5099 99.0443 14.0761 100.235 15.1717C101.426 16.2673 103.179 16.8121 105.462 16.8121V19.7028C102.197 19.7028 99.6674 18.9105 97.8907 17.3258C96.1134 15.7412 95.2245 13.3828 95.2245 10.2382C95.1569 8.34595 95.5756 6.46801 96.4407 4.78481Z" fill="#1937FF"/>
<path d="M107.209 4.78481C107.996 3.3438 109.225 2.19557 110.714 1.51028C112.451 0.748627 114.334 0.378845 116.231 0.427021V3.31777C113.959 3.31777 112.219 3.89551 111.01 5.05095C109.776 6.20234 109.195 7.92934 109.195 10.2196C109.195 12.5099 109.812 14.0761 111.004 15.1717C112.194 16.2673 113.947 16.8121 116.231 16.8121V19.7028C112.966 19.7028 110.436 18.9105 108.659 17.3258C106.881 15.7412 106.011 13.3642 106.011 10.2196C105.941 8.33523 106.353 6.46417 107.209 4.78481Z" fill="#1937FF"/>
<path d="M120.932 0.427096V7.30419L126.375 2.70503L129.56 0.0185547V19.7029H126.375V6.58002L120.938 11.1792V19.6843H117.736V0.427096H120.932Z" fill="#1937FF"/>
<path d="M134.269 0.427096V7.30419L139.712 2.70503L142.896 0.0185547V19.7029H139.699V6.58002L134.256 11.1792V19.6843H131.059V0.427096H134.269Z" fill="#1937FF"/>
</g>
<defs>
<clipPath id="clip0_5134_2177">
<rect width="144" height="20" fill="white"/>
</clipPath>
</defs>
</svg>
