<svg width="77" height="22" viewBox="0 0 77 22" fill="none" xmlns="http://www.w3.org/2000/svg">
<g clip-path="url(#clip0_5285_11569)">
<path fill-rule="evenodd" clip-rule="evenodd" d="M12.0643 16.3501L8.74399 16.3501C3.56434 16.3501 7.32735 5.23384 11.688 5.23384L16.9341 5.23384C17.7752 5.23384 19.2583 5.39043 19.9888 3.28794L21.1176 0.0223999L13.9236 0.0223999C10.0279 0.0223999 6.99529 1.40914 4.80392 3.73527C1.01878 7.71653 -0.265069 13.9345 0.642479 16.9093C1.50576 19.6603 3.8521 21.4721 7.52654 21.5168L10.382 21.5391L13.9015 21.5391L14.7648 18.9223C15.4067 17.0658 13.9679 16.3501 12.0643 16.3501ZM52.4834 11.7425L53.5679 8.18625L41.9912 8.18625C40.0655 8.18625 39.2022 8.72305 38.8702 9.84135L37.7855 13.3977L49.3623 13.3977C51.288 13.3977 52.1513 12.8609 52.4834 11.7425ZM36.059 18.0052L34.9743 21.5615H46.5511C48.4547 21.5615 49.3401 21.0247 49.6722 19.9064L50.7568 16.3501H39.1801C37.2764 16.3501 36.4131 16.8869 36.059 18.0052ZM55.1838 3.60107L56.2687 0.0447663L44.6917 0.0447663C42.766 0.0447663 41.9027 0.581566 41.5707 1.6999L40.486 5.25621L52.0628 5.25621C53.9667 5.25621 54.8296 4.71941 55.1838 3.60107ZM37.697 4.31681C37.21 1.00654 35.4613 0.0447663 31.2113 0.0447663L23.464 0.0447663L18.9484 13.3977H21.8038C23.5082 13.3977 24.3715 13.4201 25.2791 10.9597L27.1606 5.23384H30.0382C32.4952 5.23384 31.9418 8.34283 30.7022 11.3623C29.5955 14.0239 27.6697 16.3725 25.3455 16.3725H20.5421C18.6163 16.3725 17.731 16.9093 17.3768 18.0276L16.1814 21.5839H19.701L23.1541 21.5615C26.2088 21.5391 28.71 21.3155 31.6319 18.6539C34.7309 15.8133 38.3168 8.52173 37.697 4.31681ZM76.611 0.0223999L69.9041 0.0223999L63.5954 6.7995C62.8647 7.58233 62.1122 8.36515 61.3815 9.28223H61.3151L64.4583 0.0223999L58.9913 0.0223999L51.6201 21.5615L57.0876 21.5615L59.4337 14.7844L61.8685 12.7043L63.7945 18.8328C64.3919 20.7339 65.0122 21.5615 66.3403 21.5615H70.5238L66.2293 9.52825L76.611 0.0223999Z" fill="#00B33C"/>
</g>
<defs>
<clipPath id="clip0_5285_11569">
<rect width="77" height="22" fill="white"/>
</clipPath>
</defs>
</svg>
