<svg width="98" height="28" viewBox="0 0 98 28" fill="none" xmlns="http://www.w3.org/2000/svg">
<g clip-path="url(#clip0_5140_5255)">
<path fill-rule="evenodd" clip-rule="evenodd" d="M15.357 20.8092L11.1312 20.8092C4.53891 20.8092 9.3282 6.66124 14.8781 6.66124L21.555 6.66124C22.6255 6.66124 24.513 6.86054 25.4427 4.18464L26.8795 0.0285034L17.7235 0.0285034C12.7652 0.0285034 8.90559 1.79344 6.11656 4.75398C1.29911 9.82103 -0.334875 17.7348 0.820186 21.5209C1.9189 25.0222 4.90516 27.3281 9.58172 27.385L13.216 27.4134H17.6953L18.7941 24.0829C19.611 21.7201 17.7799 20.8092 15.357 20.8092ZM66.7995 14.945L68.1798 10.4189L53.4458 10.4189C50.9949 10.4189 49.8961 11.1021 49.4736 12.5253L48.0931 17.0516L62.8272 17.0516C65.2782 17.0516 66.3769 16.3684 66.7995 14.945ZM45.8957 22.9157L44.5153 27.4419L59.2493 27.4419C61.6722 27.4419 62.799 26.7587 63.2216 25.3354L64.6021 20.8092L49.868 20.8092C47.4452 20.8092 46.3465 21.4924 45.8957 22.9157ZM70.2364 4.58318L71.6172 0.0569697L56.8829 0.0569697C54.4319 0.0569697 53.3332 0.740169 52.9106 2.1635L51.5302 6.68971L66.2642 6.68971C68.6873 6.68971 69.7856 6.00651 70.2364 4.58318ZM47.9805 5.49411C47.3607 1.28104 45.135 0.0569697 39.726 0.0569697L29.8658 0.0569697L24.1186 17.0516H27.7528C29.9221 17.0516 31.0208 17.0801 32.1759 13.9487L34.5705 6.66124L38.2329 6.66124C41.36 6.66124 40.6557 10.6181 39.078 14.4611C37.6695 17.8486 35.2185 20.8377 32.2603 20.8377H26.147C23.696 20.8377 22.5692 21.5209 22.1184 22.9442L20.5971 27.4704H25.0765L29.4713 27.4419C33.3591 27.4134 36.5425 27.1288 40.2613 23.7413C44.2054 20.126 48.7693 10.8458 47.9805 5.49411ZM97.5075 0.0285034L88.9713 0.0285034L80.9421 8.6539C80.0121 9.65023 79.0544 10.6465 78.1244 11.8137H78.0399L82.0404 0.0285034L75.0824 0.0285034L65.7008 27.4419H72.6594L75.6453 18.8165L78.7442 16.1691L81.1955 23.969C81.9559 26.3886 82.7453 27.4419 84.4356 27.4419H89.76L84.2943 12.1269L97.5075 0.0285034Z" fill="white"/>
</g>
<defs>
<clipPath id="clip0_5140_5255">
<rect width="98" height="28" fill="white"/>
</clipPath>
</defs>
</svg>
