<svg width="708" height="100" viewBox="0 0 708 100" fill="none" xmlns="http://www.w3.org/2000/svg">
<rect width="708" height="100" fill="#F1F4F9"/>
<path d="M25.392 42V30.8H34.432V32.864H27.968V35.168H31.072C32.4267 35.168 33.456 35.4507 34.16 36.016C34.8747 36.5813 35.232 37.4027 35.232 38.48C35.232 39.5893 34.8373 40.4533 34.048 41.072C33.2587 41.6907 32.144 42 30.704 42H25.392ZM27.968 40.08H30.56C31.2213 40.08 31.728 39.952 32.08 39.696C32.432 39.4293 32.608 39.0453 32.608 38.544C32.608 37.5627 31.9253 37.072 30.56 37.072H27.968V40.08ZM41.2205 42.128C40.2392 42.128 39.3752 41.936 38.6285 41.552C37.8925 41.168 37.3218 40.6453 36.9165 39.984C36.5112 39.312 36.3085 38.5493 36.3085 37.696C36.3085 36.832 36.5058 36.0693 36.9005 35.408C37.3058 34.736 37.8552 34.2133 38.5485 33.84C39.2418 33.456 40.0258 33.264 40.9005 33.264C41.7432 33.264 42.5005 33.4453 43.1725 33.808C43.8552 34.16 44.3938 34.672 44.7885 35.344C45.1832 36.0053 45.3805 36.8 45.3805 37.728C45.3805 37.824 45.3752 37.936 45.3645 38.064C45.3538 38.1813 45.3432 38.2933 45.3325 38.4H38.3405V36.944H44.0205L43.0605 37.376C43.0605 36.928 42.9698 36.5387 42.7885 36.208C42.6072 35.8773 42.3565 35.6213 42.0365 35.44C41.7165 35.248 41.3432 35.152 40.9165 35.152C40.4898 35.152 40.1112 35.248 39.7805 35.44C39.4605 35.6213 39.2098 35.8827 39.0285 36.224C38.8472 36.5547 38.7565 36.9493 38.7565 37.408V37.792C38.7565 38.2613 38.8578 38.6773 39.0605 39.04C39.2738 39.392 39.5672 39.664 39.9405 39.856C40.3245 40.0373 40.7725 40.128 41.2845 40.128C41.7432 40.128 42.1432 40.0587 42.4845 39.92C42.8365 39.7813 43.1565 39.5733 43.4445 39.296L44.7725 40.736C44.3778 41.184 43.8818 41.5307 43.2845 41.776C42.6872 42.0107 41.9992 42.128 41.2205 42.128ZM51.3898 42.128C50.4618 42.128 49.6351 41.9413 48.9098 41.568C48.1844 41.184 47.6138 40.656 47.1978 39.984C46.7924 39.312 46.5898 38.5493 46.5898 37.696C46.5898 36.832 46.7924 36.0693 47.1978 35.408C47.6138 34.736 48.1844 34.2133 48.9098 33.84C49.6351 33.456 50.4618 33.264 51.3898 33.264C52.2964 33.264 53.0858 33.456 53.7578 33.84C54.4298 34.2133 54.9258 34.752 55.2458 35.456L53.3098 36.496C53.0858 36.0907 52.8031 35.792 52.4618 35.6C52.1311 35.408 51.7684 35.312 51.3738 35.312C50.9471 35.312 50.5631 35.408 50.2218 35.6C49.8804 35.792 49.6084 36.064 49.4058 36.416C49.2138 36.768 49.1178 37.1947 49.1178 37.696C49.1178 38.1973 49.2138 38.624 49.4058 38.976C49.6084 39.328 49.8804 39.6 50.2218 39.792C50.5631 39.984 50.9471 40.08 51.3738 40.08C51.7684 40.08 52.1311 39.9893 52.4618 39.808C52.8031 39.616 53.0858 39.312 53.3098 38.896L55.2458 39.952C54.9258 40.6453 54.4298 41.184 53.7578 41.568C53.0858 41.9413 52.2964 42.128 51.3898 42.128ZM56.7625 42V33.392H65.3225V42H62.8265V34.88L63.3865 35.44H58.6825L59.2425 34.88V42H56.7625ZM66.6276 41.984L66.7556 39.936C66.8196 39.9467 66.8836 39.9573 66.9476 39.968C67.0116 39.968 67.0703 39.968 67.1236 39.968C67.4223 39.968 67.657 39.8827 67.8276 39.712C67.9983 39.5413 68.1263 39.312 68.2116 39.024C68.297 38.7253 68.3556 38.3893 68.3876 38.016C68.4303 37.6427 68.4623 37.2533 68.4836 36.848L68.6116 33.392H75.9716V42H73.4756V34.832L74.0356 35.44H70.2596L70.7876 34.8L70.6756 36.96C70.6436 37.728 70.5796 38.432 70.4836 39.072C70.3983 39.712 70.2543 40.2667 70.0516 40.736C69.849 41.1947 69.577 41.552 69.2356 41.808C68.8943 42.0533 68.457 42.176 67.9236 42.176C67.7316 42.176 67.529 42.16 67.3156 42.128C67.1023 42.096 66.873 42.048 66.6276 41.984ZM83.5239 42V40.32L83.3639 39.952V36.944C83.3639 36.4107 83.1985 35.9947 82.8679 35.696C82.5479 35.3973 82.0519 35.248 81.3799 35.248C80.9212 35.248 80.4679 35.3227 80.0199 35.472C79.5825 35.6107 79.2092 35.8027 78.8999 36.048L78.0039 34.304C78.4732 33.9733 79.0385 33.7173 79.6999 33.536C80.3612 33.3547 81.0332 33.264 81.7159 33.264C83.0279 33.264 84.0465 33.5733 84.7719 34.192C85.4972 34.8107 85.8599 35.776 85.8599 37.088V42H83.5239ZM80.8999 42.128C80.2279 42.128 79.6519 42.016 79.1719 41.792C78.6919 41.5573 78.3239 41.2427 78.0679 40.848C77.8119 40.4533 77.6839 40.0107 77.6839 39.52C77.6839 39.008 77.8065 38.56 78.0519 38.176C78.3079 37.792 78.7079 37.4933 79.2519 37.28C79.7959 37.056 80.5052 36.944 81.3799 36.944H83.6679V38.4H81.6519C81.0652 38.4 80.6599 38.496 80.4359 38.688C80.2225 38.88 80.1159 39.12 80.1159 39.408C80.1159 39.728 80.2385 39.984 80.4839 40.176C80.7399 40.3573 81.0865 40.448 81.5239 40.448C81.9399 40.448 82.3132 40.352 82.6439 40.16C82.9745 39.9573 83.2145 39.664 83.3639 39.28L83.7479 40.432C83.5665 40.9867 83.2359 41.408 82.7559 41.696C82.2759 41.984 81.6572 42.128 80.8999 42.128ZM89.8681 42V34.864L90.4281 35.44H86.9561V33.392H95.2601V35.44H91.7881L92.3481 34.864V42H89.8681ZM96.5906 42V33.392H99.0706V36.752H102.815V33.392H105.311V42H102.815V38.784H99.0706V42H96.5906ZM112.852 42V40.32L112.692 39.952V36.944C112.692 36.4107 112.527 35.9947 112.196 35.696C111.876 35.3973 111.38 35.248 110.708 35.248C110.249 35.248 109.796 35.3227 109.348 35.472C108.911 35.6107 108.537 35.8027 108.228 36.048L107.332 34.304C107.801 33.9733 108.367 33.7173 109.028 33.536C109.689 33.3547 110.361 33.264 111.044 33.264C112.356 33.264 113.375 33.5733 114.1 34.192C114.825 34.8107 115.188 35.776 115.188 37.088V42H112.852ZM110.228 42.128C109.556 42.128 108.98 42.016 108.5 41.792C108.02 41.5573 107.652 41.2427 107.396 40.848C107.14 40.4533 107.012 40.0107 107.012 39.52C107.012 39.008 107.135 38.56 107.38 38.176C107.636 37.792 108.036 37.4933 108.58 37.28C109.124 37.056 109.833 36.944 110.708 36.944H112.996V38.4H110.98C110.393 38.4 109.988 38.496 109.764 38.688C109.551 38.88 109.444 39.12 109.444 39.408C109.444 39.728 109.567 39.984 109.812 40.176C110.068 40.3573 110.415 40.448 110.852 40.448C111.268 40.448 111.641 40.352 111.972 40.16C112.303 39.9573 112.543 39.664 112.692 39.28L113.076 40.432C112.895 40.9867 112.564 41.408 112.084 41.696C111.604 41.984 110.985 42.128 110.228 42.128ZM122.78 42V39.136L123.132 39.536H120.748C119.511 39.536 118.54 39.28 117.836 38.768C117.132 38.256 116.78 37.52 116.78 36.56C116.78 35.536 117.148 34.752 117.884 34.208C118.631 33.664 119.634 33.392 120.892 33.392H125.004V42H122.78ZM116.652 42L118.94 38.72H121.484L119.308 42H116.652ZM122.78 38.368V34.784L123.132 35.424H120.94C120.428 35.424 120.028 35.52 119.74 35.712C119.463 35.904 119.324 36.2133 119.324 36.64C119.324 37.4613 119.852 37.872 120.908 37.872H123.132L122.78 38.368ZM137.854 40.88V35.44H135.038L134.99 36.544C134.969 37.0027 134.942 37.44 134.91 37.856C134.878 38.272 134.814 38.6507 134.718 38.992C134.633 39.3227 134.505 39.6053 134.334 39.84C134.164 40.064 133.934 40.2187 133.646 40.304L131.182 39.952C131.492 39.952 131.742 39.8613 131.934 39.68C132.126 39.488 132.276 39.2267 132.382 38.896C132.489 38.5547 132.569 38.1707 132.622 37.744C132.676 37.3067 132.713 36.848 132.734 36.368L132.846 33.392H140.35V40.88H137.854ZM130.894 43.856V39.952H141.582V43.856H139.262V42H133.214V43.856H130.894ZM147.185 42.128C146.268 42.128 145.452 41.936 144.737 41.552C144.033 41.168 143.473 40.6453 143.057 39.984C142.652 39.312 142.449 38.5493 142.449 37.696C142.449 36.832 142.652 36.0693 143.057 35.408C143.473 34.736 144.033 34.2133 144.737 33.84C145.452 33.456 146.268 33.264 147.185 33.264C148.092 33.264 148.902 33.456 149.617 33.84C150.332 34.2133 150.892 34.7307 151.297 35.392C151.702 36.0533 151.905 36.8213 151.905 37.696C151.905 38.5493 151.702 39.312 151.297 39.984C150.892 40.6453 150.332 41.168 149.617 41.552C148.902 41.936 148.092 42.128 147.185 42.128ZM147.185 40.08C147.601 40.08 147.974 39.984 148.305 39.792C148.636 39.6 148.897 39.328 149.089 38.976C149.281 38.6133 149.377 38.1867 149.377 37.696C149.377 37.1947 149.281 36.768 149.089 36.416C148.897 36.064 148.636 35.792 148.305 35.6C147.974 35.408 147.601 35.312 147.185 35.312C146.769 35.312 146.396 35.408 146.065 35.6C145.734 35.792 145.468 36.064 145.265 36.416C145.073 36.768 144.977 37.1947 144.977 37.696C144.977 38.1867 145.073 38.6133 145.265 38.976C145.468 39.328 145.734 39.6 146.065 39.792C146.396 39.984 146.769 40.08 147.185 40.08ZM157.718 42.128C156.79 42.128 155.963 41.9413 155.238 41.568C154.513 41.184 153.942 40.656 153.526 39.984C153.121 39.312 152.918 38.5493 152.918 37.696C152.918 36.832 153.121 36.0693 153.526 35.408C153.942 34.736 154.513 34.2133 155.238 33.84C155.963 33.456 156.79 33.264 157.718 33.264C158.625 33.264 159.414 33.456 160.086 33.84C160.758 34.2133 161.254 34.752 161.574 35.456L159.638 36.496C159.414 36.0907 159.131 35.792 158.79 35.6C158.459 35.408 158.097 35.312 157.702 35.312C157.275 35.312 156.891 35.408 156.55 35.6C156.209 35.792 155.937 36.064 155.734 36.416C155.542 36.768 155.446 37.1947 155.446 37.696C155.446 38.1973 155.542 38.624 155.734 38.976C155.937 39.328 156.209 39.6 156.55 39.792C156.891 39.984 157.275 40.08 157.702 40.08C158.097 40.08 158.459 39.9893 158.79 39.808C159.131 39.616 159.414 39.312 159.638 38.896L161.574 39.952C161.254 40.6453 160.758 41.184 160.086 41.568C159.414 41.9413 158.625 42.128 157.718 42.128ZM164.915 42V34.864L165.475 35.44H162.003V33.392H170.307V35.44H166.835L167.395 34.864V42H164.915ZM176.79 42V40.32L176.63 39.952V36.944C176.63 36.4107 176.464 35.9947 176.134 35.696C175.814 35.3973 175.318 35.248 174.646 35.248C174.187 35.248 173.734 35.3227 173.286 35.472C172.848 35.6107 172.475 35.8027 172.166 36.048L171.27 34.304C171.739 33.9733 172.304 33.7173 172.966 33.536C173.627 33.3547 174.299 33.264 174.982 33.264C176.294 33.264 177.312 33.5733 178.038 34.192C178.763 34.8107 179.126 35.776 179.126 37.088V42H176.79ZM174.166 42.128C173.494 42.128 172.918 42.016 172.438 41.792C171.958 41.5573 171.59 41.2427 171.334 40.848C171.078 40.4533 170.95 40.0107 170.95 39.52C170.95 39.008 171.072 38.56 171.318 38.176C171.574 37.792 171.974 37.4933 172.518 37.28C173.062 37.056 173.771 36.944 174.646 36.944H176.934V38.4H174.918C174.331 38.4 173.926 38.496 173.702 38.688C173.488 38.88 173.382 39.12 173.382 39.408C173.382 39.728 173.504 39.984 173.75 40.176C174.006 40.3573 174.352 40.448 174.79 40.448C175.206 40.448 175.579 40.352 175.91 40.16C176.24 39.9573 176.48 39.664 176.63 39.28L177.014 40.432C176.832 40.9867 176.502 41.408 176.022 41.696C175.542 41.984 174.923 42.128 174.166 42.128ZM181.294 42V33.392H185.694C186.771 33.392 187.614 33.5893 188.222 33.984C188.83 34.368 189.134 34.912 189.134 35.616C189.134 36.32 188.846 36.8747 188.27 37.28C187.704 37.6747 186.952 37.872 186.014 37.872L186.27 37.296C187.315 37.296 188.094 37.488 188.606 37.872C189.128 38.256 189.39 38.816 189.39 39.552C189.39 40.3093 189.102 40.9067 188.526 41.344C187.95 41.7813 187.07 42 185.886 42H181.294ZM183.582 40.304H185.678C186.136 40.304 186.478 40.2293 186.702 40.08C186.936 39.92 187.054 39.68 187.054 39.36C187.054 39.0293 186.947 38.7893 186.734 38.64C186.52 38.48 186.184 38.4 185.726 38.4H183.582V40.304ZM183.582 36.928H185.47C185.907 36.928 186.232 36.848 186.446 36.688C186.67 36.528 186.782 36.2987 186.782 36C186.782 35.6907 186.67 35.4613 186.446 35.312C186.232 35.1627 185.907 35.088 185.47 35.088H183.582V36.928ZM197.343 42L194.463 37.92L196.495 36.72L200.287 42H197.343ZM191.247 42V33.392H193.743V42H191.247ZM193.007 38.736V36.736H196.015V38.736H193.007ZM196.735 37.984L194.399 37.728L197.423 33.392H200.079L196.735 37.984ZM206.508 42V40.32L206.348 39.952V36.944C206.348 36.4107 206.183 35.9947 205.852 35.696C205.532 35.3973 205.036 35.248 204.364 35.248C203.906 35.248 203.452 35.3227 203.004 35.472C202.567 35.6107 202.194 35.8027 201.884 36.048L200.988 34.304C201.458 33.9733 202.023 33.7173 202.684 33.536C203.346 33.3547 204.018 33.264 204.7 33.264C206.012 33.264 207.031 33.5733 207.756 34.192C208.482 34.8107 208.844 35.776 208.844 37.088V42H206.508ZM203.884 42.128C203.212 42.128 202.636 42.016 202.156 41.792C201.676 41.5573 201.308 41.2427 201.052 40.848C200.796 40.4533 200.668 40.0107 200.668 39.52C200.668 39.008 200.791 38.56 201.036 38.176C201.292 37.792 201.692 37.4933 202.236 37.28C202.78 37.056 203.49 36.944 204.364 36.944H206.652V38.4H204.636C204.05 38.4 203.644 38.496 203.42 38.688C203.207 38.88 203.1 39.12 203.1 39.408C203.1 39.728 203.223 39.984 203.468 40.176C203.724 40.3573 204.071 40.448 204.508 40.448C204.924 40.448 205.298 40.352 205.628 40.16C205.959 39.9573 206.199 39.664 206.348 39.28L206.732 40.432C206.551 40.9867 206.22 41.408 205.74 41.696C205.26 41.984 204.642 42.128 203.884 42.128Z" fill="#141414"/>
<path d="M32.162 69.51V61.096H27.472L27.388 63.476C27.36 64.2133 27.3133 64.9227 27.248 65.604C27.192 66.276 27.0987 66.8827 26.968 67.424C26.8467 67.956 26.6787 68.39 26.464 68.726C26.2587 69.062 25.988 69.258 25.652 69.314L24.518 69.104C24.8913 69.1227 25.1993 68.9873 25.442 68.698C25.694 68.4087 25.8853 68.0027 26.016 67.48C26.156 66.9573 26.2587 66.346 26.324 65.646C26.3893 64.946 26.436 64.19 26.464 63.378L26.576 60.2H33.184V69.51H32.162ZM24.154 72.198L24.168 69.104H34.654V72.198H33.688V70H25.134L25.12 72.198H24.154ZM39.3482 70.07C38.6388 70.07 37.9995 69.9113 37.4302 69.594C36.8702 69.2673 36.4268 68.824 36.1002 68.264C35.7735 67.6947 35.6102 67.046 35.6102 66.318C35.6102 65.5807 35.7735 64.932 36.1002 64.372C36.4268 63.812 36.8702 63.3733 37.4302 63.056C37.9902 62.7387 38.6295 62.58 39.3482 62.58C40.0762 62.58 40.7202 62.7387 41.2802 63.056C41.8495 63.3733 42.2928 63.812 42.6102 64.372C42.9368 64.932 43.1002 65.5807 43.1002 66.318C43.1002 67.046 42.9368 67.6947 42.6102 68.264C42.2928 68.824 41.8495 69.2673 41.2802 69.594C40.7108 69.9113 40.0668 70.07 39.3482 70.07ZM39.3482 69.188C39.8802 69.188 40.3515 69.0713 40.7622 68.838C41.1728 68.5953 41.4948 68.2593 41.7282 67.83C41.9708 67.3913 42.0922 66.8873 42.0922 66.318C42.0922 65.7393 41.9708 65.2353 41.7282 64.806C41.4948 64.3767 41.1728 64.0453 40.7622 63.812C40.3515 63.5693 39.8848 63.448 39.3622 63.448C38.8395 63.448 38.3728 63.5693 37.9622 63.812C37.5515 64.0453 37.2248 64.3767 36.9822 64.806C36.7395 65.2353 36.6182 65.7393 36.6182 66.318C36.6182 66.8873 36.7395 67.3913 36.9822 67.83C37.2248 68.2593 37.5515 68.5953 37.9622 68.838C38.3728 69.0713 38.8348 69.188 39.3482 69.188ZM48.3045 70.07C47.5765 70.07 46.9232 69.9113 46.3445 69.594C45.7752 69.2673 45.3272 68.824 45.0005 68.264C44.6739 67.6947 44.5105 67.046 44.5105 66.318C44.5105 65.5807 44.6739 64.932 45.0005 64.372C45.3272 63.812 45.7752 63.3733 46.3445 63.056C46.9232 62.7387 47.5765 62.58 48.3045 62.58C48.9299 62.58 49.4945 62.7013 49.9985 62.944C50.5025 63.1867 50.8992 63.5507 51.1885 64.036L50.4465 64.54C50.1945 64.1667 49.8819 63.8913 49.5085 63.714C49.1352 63.5367 48.7292 63.448 48.2905 63.448C47.7679 63.448 47.2965 63.5693 46.8765 63.812C46.4565 64.0453 46.1252 64.3767 45.8825 64.806C45.6399 65.2353 45.5185 65.7393 45.5185 66.318C45.5185 66.8967 45.6399 67.4007 45.8825 67.83C46.1252 68.2593 46.4565 68.5953 46.8765 68.838C47.2965 69.0713 47.7679 69.188 48.2905 69.188C48.7292 69.188 49.1352 69.0993 49.5085 68.922C49.8819 68.7447 50.1945 68.474 50.4465 68.11L51.1885 68.614C50.8992 69.09 50.5025 69.454 49.9985 69.706C49.4945 69.9487 48.9299 70.07 48.3045 70.07ZM54.3765 70V63.252L54.6285 63.518H51.5905V62.65H58.1565V63.518H55.1185L55.3705 63.252V70H54.3765ZM64.1577 70V68.376L64.1157 68.11V65.394C64.1157 64.7687 63.9384 64.288 63.5837 63.952C63.2384 63.616 62.7204 63.448 62.0297 63.448C61.5537 63.448 61.101 63.5273 60.6717 63.686C60.2424 63.8447 59.8784 64.0547 59.5797 64.316L59.1317 63.574C59.505 63.2567 59.953 63.014 60.4757 62.846C60.9984 62.6687 61.549 62.58 62.1277 62.58C63.0797 62.58 63.8124 62.818 64.3257 63.294C64.8484 63.7607 65.1097 64.4747 65.1097 65.436V70H64.1577ZM61.6237 70.07C61.073 70.07 60.5924 69.9813 60.1817 69.804C59.7804 69.6173 59.4724 69.3653 59.2577 69.048C59.043 68.7213 58.9357 68.348 58.9357 67.928C58.9357 67.5453 59.0244 67.2 59.2017 66.892C59.3884 66.5747 59.687 66.3227 60.0977 66.136C60.5177 65.94 61.0777 65.842 61.7777 65.842H64.3117V66.584H61.8057C61.0964 66.584 60.6017 66.71 60.3217 66.962C60.051 67.214 59.9157 67.5267 59.9157 67.9C59.9157 68.32 60.079 68.656 60.4057 68.908C60.7324 69.16 61.1897 69.286 61.7777 69.286C62.3377 69.286 62.8184 69.16 63.2197 68.908C63.6304 68.6467 63.929 68.2733 64.1157 67.788L64.3397 68.474C64.153 68.9593 63.8264 69.3467 63.3597 69.636C62.9024 69.9253 62.3237 70.07 61.6237 70.07ZM67.7558 70V62.65H71.0038C71.8345 62.65 72.4878 62.8087 72.9638 63.126C73.4491 63.4433 73.6918 63.91 73.6918 64.526C73.6918 65.1233 73.4631 65.5853 73.0058 65.912C72.5485 66.2293 71.9465 66.388 71.1998 66.388L71.3958 66.094C72.2731 66.094 72.9171 66.2573 73.3278 66.584C73.7385 66.9107 73.9438 67.382 73.9438 67.998C73.9438 68.6327 73.7105 69.1273 73.2438 69.482C72.7865 69.8273 72.0725 70 71.1018 70H67.7558ZM68.7218 69.216H71.0598C71.6851 69.216 72.1565 69.118 72.4738 68.922C72.8005 68.7167 72.9638 68.39 72.9638 67.942C72.9638 67.494 72.8191 67.1673 72.5298 66.962C72.2405 66.7567 71.7831 66.654 71.1578 66.654H68.7218V69.216ZM68.7218 65.912H70.9338C71.5031 65.912 71.9371 65.8047 72.2358 65.59C72.5438 65.3753 72.6978 65.0627 72.6978 64.652C72.6978 64.2413 72.5438 63.9333 72.2358 63.728C71.9371 63.5227 71.5031 63.42 70.9338 63.42H68.7218V65.912ZM76.2734 70V62.65H77.2674V68.488L82.1814 62.65H83.0634V70H82.0694V64.148L77.1694 70H76.2734ZM85.912 70V62.65H86.92L90.252 68.292H89.832L93.22 62.65H94.144V70H93.234V63.784L93.416 63.868L90.252 69.104H89.804L86.612 63.812L86.822 63.77V70H85.912ZM105.285 66.892C104.855 67.0787 104.421 67.228 103.983 67.34C103.553 67.4427 103.124 67.494 102.695 67.494C101.827 67.494 101.141 67.298 100.637 66.906C100.133 66.5047 99.8807 65.8887 99.8807 65.058V62.65H100.861V65.002C100.861 65.562 101.043 65.982 101.407 66.262C101.771 66.542 102.261 66.682 102.877 66.682C103.25 66.682 103.642 66.6353 104.053 66.542C104.463 66.4393 104.879 66.2947 105.299 66.108L105.285 66.892ZM105.201 70V62.65H106.195V70H105.201ZM112.168 70.07C111.402 70.07 110.73 69.9113 110.152 69.594C109.573 69.2673 109.12 68.824 108.794 68.264C108.467 67.6947 108.304 67.046 108.304 66.318C108.304 65.59 108.458 64.946 108.766 64.386C109.083 63.826 109.512 63.3873 110.054 63.07C110.604 62.7433 111.22 62.58 111.902 62.58C112.592 62.58 113.204 62.7387 113.736 63.056C114.277 63.364 114.702 63.8027 115.01 64.372C115.318 64.932 115.472 65.5807 115.472 66.318C115.472 66.3647 115.467 66.416 115.458 66.472C115.458 66.5187 115.458 66.57 115.458 66.626H109.06V65.884H114.926L114.534 66.178C114.534 65.646 114.417 65.1747 114.184 64.764C113.96 64.344 113.652 64.0173 113.26 63.784C112.868 63.5507 112.415 63.434 111.902 63.434C111.398 63.434 110.945 63.5507 110.544 63.784C110.142 64.0173 109.83 64.344 109.606 64.764C109.382 65.184 109.27 65.6647 109.27 66.206V66.36C109.27 66.92 109.391 67.4147 109.634 67.844C109.886 68.264 110.231 68.5953 110.67 68.838C111.118 69.0713 111.626 69.188 112.196 69.188C112.644 69.188 113.059 69.1087 113.442 68.95C113.834 68.7913 114.17 68.5487 114.45 68.222L115.01 68.866C114.683 69.258 114.272 69.5567 113.778 69.762C113.292 69.9673 112.756 70.07 112.168 70.07ZM116.263 70L119.371 65.968L119.357 66.458L116.403 62.65H117.523L119.945 65.8L119.525 65.786L121.947 62.65H123.039L120.057 66.5L120.071 65.968L123.207 70H122.073L119.511 66.64L119.903 66.696L117.383 70H116.263ZM123.492 69.986L123.562 69.132C123.627 69.1413 123.688 69.1553 123.744 69.174C123.809 69.1833 123.865 69.188 123.912 69.188C124.211 69.188 124.449 69.076 124.626 68.852C124.813 68.628 124.953 68.3293 125.046 67.956C125.139 67.5827 125.205 67.1627 125.242 66.696C125.279 66.22 125.312 65.744 125.34 65.268L125.466 62.65H130.856V70H129.862V63.224L130.114 63.518H126.11L126.348 63.21L126.236 65.338C126.208 65.9727 126.157 66.5793 126.082 67.158C126.017 67.7367 125.909 68.2453 125.76 68.684C125.62 69.1227 125.424 69.468 125.172 69.72C124.92 69.9627 124.598 70.084 124.206 70.084C124.094 70.084 123.977 70.0747 123.856 70.056C123.744 70.0373 123.623 70.014 123.492 69.986ZM140.85 70V62.65H141.844V70H140.85ZM136.776 65.24C137.7 65.2493 138.404 65.4547 138.89 65.856C139.375 66.2573 139.618 66.836 139.618 67.592C139.618 68.376 139.356 68.978 138.834 69.398C138.311 69.818 137.564 70.0233 136.594 70.014L133.682 70V62.65H134.676V65.212L136.776 65.24ZM136.524 69.258C137.214 69.2673 137.732 69.132 138.078 68.852C138.432 68.5627 138.61 68.1427 138.61 67.592C138.61 67.0413 138.437 66.64 138.092 66.388C137.746 66.1267 137.224 65.9913 136.524 65.982L134.676 65.954V69.23L136.524 69.258ZM148.338 70V62.65H151.586C152.416 62.65 153.07 62.8087 153.546 63.126C154.031 63.4433 154.274 63.91 154.274 64.526C154.274 65.1233 154.045 65.5853 153.588 65.912C153.13 66.2293 152.528 66.388 151.782 66.388L151.978 66.094C152.855 66.094 153.499 66.2573 153.91 66.584C154.32 66.9107 154.526 67.382 154.526 67.998C154.526 68.6327 154.292 69.1273 153.826 69.482C153.368 69.8273 152.654 70 151.684 70H148.338ZM149.304 69.216H151.642C152.267 69.216 152.738 69.118 153.056 68.922C153.382 68.7167 153.546 68.39 153.546 67.942C153.546 67.494 153.401 67.1673 153.112 66.962C152.822 66.7567 152.365 66.654 151.74 66.654H149.304V69.216ZM149.304 65.912H151.516C152.085 65.912 152.519 65.8047 152.818 65.59C153.126 65.3753 153.28 65.0627 153.28 64.652C153.28 64.2413 153.126 63.9333 152.818 63.728C152.519 63.5227 152.085 63.42 151.516 63.42H149.304V65.912ZM159.175 69.986L159.245 69.132C159.311 69.1413 159.371 69.1553 159.427 69.174C159.493 69.1833 159.549 69.188 159.595 69.188C159.894 69.188 160.132 69.076 160.309 68.852C160.496 68.628 160.636 68.3293 160.729 67.956C160.823 67.5827 160.888 67.1627 160.925 66.696C160.963 66.22 160.995 65.744 161.023 65.268L161.149 62.65H166.539V70H165.545V63.224L165.797 63.518H161.793L162.031 63.21L161.919 65.338C161.891 65.9727 161.84 66.5793 161.765 67.158C161.7 67.7367 161.593 68.2453 161.443 68.684C161.303 69.1227 161.107 69.468 160.855 69.72C160.603 69.9627 160.281 70.084 159.889 70.084C159.777 70.084 159.661 70.0747 159.539 70.056C159.427 70.0373 159.306 70.014 159.175 69.986ZM169.365 70V62.65H170.359V65.814H172.599V66.724H170.359V70H169.365ZM175.693 70.07C174.993 70.07 174.363 69.9113 173.803 69.594C173.253 69.2673 172.819 68.824 172.501 68.264C172.184 67.6947 172.025 67.046 172.025 66.318C172.025 65.5807 172.184 64.932 172.501 64.372C172.819 63.812 173.253 63.3733 173.803 63.056C174.363 62.7387 174.993 62.58 175.693 62.58C176.393 62.58 177.019 62.7387 177.569 63.056C178.12 63.3733 178.554 63.812 178.871 64.372C179.189 64.932 179.347 65.5807 179.347 66.318C179.347 67.046 179.189 67.6947 178.871 68.264C178.554 68.824 178.12 69.2673 177.569 69.594C177.019 69.9113 176.393 70.07 175.693 70.07ZM175.693 69.202C176.207 69.202 176.664 69.0807 177.065 68.838C177.467 68.5953 177.784 68.2593 178.017 67.83C178.251 67.3913 178.367 66.8873 178.367 66.318C178.367 65.7393 178.251 65.2353 178.017 64.806C177.784 64.3767 177.467 64.0453 177.065 63.812C176.664 63.5693 176.207 63.448 175.693 63.448C175.189 63.448 174.732 63.5693 174.321 63.812C173.92 64.0453 173.603 64.3767 173.369 64.806C173.136 65.2353 173.019 65.7393 173.019 66.318C173.019 66.8873 173.136 67.3913 173.369 67.83C173.603 68.2593 173.92 68.5953 174.321 68.838C174.732 69.0807 175.189 69.202 175.693 69.202ZM184.782 70.084C184.185 70.084 183.653 69.986 183.186 69.79C182.729 69.594 182.337 69.2953 182.01 68.894C181.684 68.4927 181.436 67.998 181.268 67.41C181.1 66.8127 181.016 66.122 181.016 65.338C181.016 64.638 181.082 64.0267 181.212 63.504C181.343 62.972 181.525 62.5147 181.758 62.132C181.992 61.7493 182.262 61.4273 182.57 61.166C182.888 60.8953 183.228 60.6807 183.592 60.522C183.966 60.354 184.348 60.228 184.74 60.144L188.044 59.374L188.212 60.298L185.104 60.998C184.908 61.0447 184.67 61.11 184.39 61.194C184.12 61.278 183.84 61.404 183.55 61.572C183.27 61.74 183.009 61.9733 182.766 62.272C182.524 62.5707 182.328 62.958 182.178 63.434C182.038 63.9007 181.968 64.484 181.968 65.184C181.968 65.3333 181.973 65.4547 181.982 65.548C181.992 65.632 182.001 65.7253 182.01 65.828C182.029 65.9213 182.043 66.0613 182.052 66.248L181.618 65.884C181.721 65.3147 181.931 64.82 182.248 64.4C182.566 63.9707 182.962 63.6393 183.438 63.406C183.924 63.1633 184.46 63.042 185.048 63.042C185.73 63.042 186.336 63.1913 186.868 63.49C187.4 63.7793 187.816 64.1853 188.114 64.708C188.422 65.2307 188.576 65.8373 188.576 66.528C188.576 67.2093 188.418 67.8207 188.1 68.362C187.792 68.9033 187.354 69.328 186.784 69.636C186.215 69.9347 185.548 70.084 184.782 70.084ZM184.894 69.258C185.417 69.258 185.879 69.1413 186.28 68.908C186.682 68.6653 186.994 68.3387 187.218 67.928C187.452 67.5173 187.568 67.0553 187.568 66.542C187.568 66.038 187.452 65.59 187.218 65.198C186.994 64.806 186.682 64.498 186.28 64.274C185.879 64.0407 185.412 63.924 184.88 63.924C184.358 63.924 183.896 64.036 183.494 64.26C183.093 64.4747 182.776 64.778 182.542 65.17C182.318 65.562 182.206 66.0147 182.206 66.528C182.206 67.0413 182.318 67.5033 182.542 67.914C182.776 68.3247 183.093 68.6513 183.494 68.894C183.905 69.1367 184.372 69.258 184.894 69.258ZM190.628 72.786C190.283 72.786 189.951 72.73 189.634 72.618C189.326 72.506 189.06 72.338 188.836 72.114L189.298 71.372C189.485 71.5493 189.685 71.6847 189.9 71.778C190.124 71.8807 190.371 71.932 190.642 71.932C190.969 71.932 191.249 71.8387 191.482 71.652C191.725 71.4747 191.953 71.1573 192.168 70.7L192.644 69.622L192.756 69.468L195.78 62.65H196.76L193.078 70.882C192.873 71.358 192.644 71.736 192.392 72.016C192.149 72.296 191.883 72.492 191.594 72.604C191.305 72.7253 190.983 72.786 190.628 72.786ZM192.588 70.21L189.2 62.65H190.236L193.232 69.398L192.588 70.21ZM198.309 70V62.65H199.303V65.814H201.543V66.724H199.303V70H198.309ZM204.637 70.07C203.937 70.07 203.307 69.9113 202.747 69.594C202.196 69.2673 201.762 68.824 201.445 68.264C201.127 67.6947 200.969 67.046 200.969 66.318C200.969 65.5807 201.127 64.932 201.445 64.372C201.762 63.812 202.196 63.3733 202.747 63.056C203.307 62.7387 203.937 62.58 204.637 62.58C205.337 62.58 205.962 62.7387 206.513 63.056C207.063 63.3733 207.497 63.812 207.815 64.372C208.132 64.932 208.291 65.5807 208.291 66.318C208.291 67.046 208.132 67.6947 207.815 68.264C207.497 68.824 207.063 69.2673 206.513 69.594C205.962 69.9113 205.337 70.07 204.637 70.07ZM204.637 69.202C205.15 69.202 205.607 69.0807 206.009 68.838C206.41 68.5953 206.727 68.2593 206.961 67.83C207.194 67.3913 207.311 66.8873 207.311 66.318C207.311 65.7393 207.194 65.2353 206.961 64.806C206.727 64.3767 206.41 64.0453 206.009 63.812C205.607 63.5693 205.15 63.448 204.637 63.448C204.133 63.448 203.675 63.5693 203.265 63.812C202.863 64.0453 202.546 64.3767 202.313 64.806C202.079 65.2353 201.963 65.7393 201.963 66.318C201.963 66.8873 202.079 67.3913 202.313 67.83C202.546 68.2593 202.863 68.5953 203.265 68.838C203.675 69.0807 204.133 69.202 204.637 69.202ZM215.486 70V63.252L215.738 63.518H212.7V62.65H219.266V63.518H216.228L216.48 63.252V70H215.486ZM223.385 70.07C222.676 70.07 222.037 69.9113 221.467 69.594C220.907 69.2673 220.464 68.824 220.137 68.264C219.811 67.6947 219.647 67.046 219.647 66.318C219.647 65.5807 219.811 64.932 220.137 64.372C220.464 63.812 220.907 63.3733 221.467 63.056C222.027 62.7387 222.667 62.58 223.385 62.58C224.113 62.58 224.757 62.7387 225.317 63.056C225.887 63.3733 226.33 63.812 226.647 64.372C226.974 64.932 227.137 65.5807 227.137 66.318C227.137 67.046 226.974 67.6947 226.647 68.264C226.33 68.824 225.887 69.2673 225.317 69.594C224.748 69.9113 224.104 70.07 223.385 70.07ZM223.385 69.188C223.917 69.188 224.389 69.0713 224.799 68.838C225.21 68.5953 225.532 68.2593 225.765 67.83C226.008 67.3913 226.129 66.8873 226.129 66.318C226.129 65.7393 226.008 65.2353 225.765 64.806C225.532 64.3767 225.21 64.0453 224.799 63.812C224.389 63.5693 223.922 63.448 223.399 63.448C222.877 63.448 222.41 63.5693 221.999 63.812C221.589 64.0453 221.262 64.3767 221.019 64.806C220.777 65.2353 220.655 65.7393 220.655 66.318C220.655 66.8873 220.777 67.3913 221.019 67.83C221.262 68.2593 221.589 68.5953 221.999 68.838C222.41 69.0713 222.872 69.188 223.385 69.188ZM233.91 66.892C233.48 67.0787 233.046 67.228 232.608 67.34C232.178 67.4427 231.749 67.494 231.32 67.494C230.452 67.494 229.766 67.298 229.262 66.906C228.758 66.5047 228.506 65.8887 228.506 65.058V62.65H229.486V65.002C229.486 65.562 229.668 65.982 230.032 66.262C230.396 66.542 230.886 66.682 231.502 66.682C231.875 66.682 232.267 66.6353 232.678 66.542C233.088 66.4393 233.504 66.2947 233.924 66.108L233.91 66.892ZM233.826 70V62.65H234.82V70H233.826ZM243.033 70L240.009 66.36L240.835 65.87L244.209 70H243.033ZM237.643 70V62.65H238.637V70H237.643ZM238.329 66.724V65.87H240.695V66.724H238.329ZM240.919 66.43L239.995 66.29L242.921 62.65H243.999L240.919 66.43ZM245.777 70V62.65H246.771V68.488L251.685 62.65H252.567V70H251.573V64.148L246.673 70H245.777ZM259.318 70V60.2H262.986C263.817 60.2 264.531 60.3353 265.128 60.606C265.725 60.8673 266.183 61.25 266.5 61.754C266.827 62.2487 266.99 62.8507 266.99 63.56C266.99 64.2507 266.827 64.848 266.5 65.352C266.183 65.8467 265.725 66.2293 265.128 66.5C264.531 66.7707 263.817 66.906 262.986 66.906H259.892L260.354 66.416V70H259.318ZM260.354 66.5L259.892 65.996H262.958C263.938 65.996 264.68 65.786 265.184 65.366C265.697 64.9367 265.954 64.3347 265.954 63.56C265.954 62.776 265.697 62.1693 265.184 61.74C264.68 61.3107 263.938 61.096 262.958 61.096H259.892L260.354 60.606V66.5ZM271.852 70.07C271.143 70.07 270.503 69.9113 269.934 69.594C269.374 69.2673 268.931 68.824 268.604 68.264C268.277 67.6947 268.114 67.046 268.114 66.318C268.114 65.5807 268.277 64.932 268.604 64.372C268.931 63.812 269.374 63.3733 269.934 63.056C270.494 62.7387 271.133 62.58 271.852 62.58C272.58 62.58 273.224 62.7387 273.784 63.056C274.353 63.3733 274.797 63.812 275.114 64.372C275.441 64.932 275.604 65.5807 275.604 66.318C275.604 67.046 275.441 67.6947 275.114 68.264C274.797 68.824 274.353 69.2673 273.784 69.594C273.215 69.9113 272.571 70.07 271.852 70.07ZM271.852 69.188C272.384 69.188 272.855 69.0713 273.266 68.838C273.677 68.5953 273.999 68.2593 274.232 67.83C274.475 67.3913 274.596 66.8873 274.596 66.318C274.596 65.7393 274.475 65.2353 274.232 64.806C273.999 64.3767 273.677 64.0453 273.266 63.812C272.855 63.5693 272.389 63.448 271.866 63.448C271.343 63.448 270.877 63.5693 270.466 63.812C270.055 64.0453 269.729 64.3767 269.486 64.806C269.243 65.2353 269.122 65.7393 269.122 66.318C269.122 66.8873 269.243 67.3913 269.486 67.83C269.729 68.2593 270.055 68.5953 270.466 68.838C270.877 69.0713 271.339 69.188 271.852 69.188ZM280.808 70.07C280.08 70.07 279.427 69.9113 278.848 69.594C278.279 69.2673 277.831 68.824 277.504 68.264C277.178 67.6947 277.014 67.046 277.014 66.318C277.014 65.5807 277.178 64.932 277.504 64.372C277.831 63.812 278.279 63.3733 278.848 63.056C279.427 62.7387 280.08 62.58 280.808 62.58C281.434 62.58 281.998 62.7013 282.502 62.944C283.006 63.1867 283.403 63.5507 283.692 64.036L282.95 64.54C282.698 64.1667 282.386 63.8913 282.012 63.714C281.639 63.5367 281.233 63.448 280.794 63.448C280.272 63.448 279.8 63.5693 279.38 63.812C278.96 64.0453 278.629 64.3767 278.386 64.806C278.144 65.2353 278.022 65.7393 278.022 66.318C278.022 66.8967 278.144 67.4007 278.386 67.83C278.629 68.2593 278.96 68.5953 279.38 68.838C279.8 69.0713 280.272 69.188 280.794 69.188C281.233 69.188 281.639 69.0993 282.012 68.922C282.386 68.7447 282.698 68.474 282.95 68.11L283.692 68.614C283.403 69.09 283.006 69.454 282.502 69.706C281.998 69.9487 281.434 70.07 280.808 70.07ZM288.574 70.07C287.846 70.07 287.193 69.9113 286.614 69.594C286.045 69.2673 285.597 68.824 285.27 68.264C284.943 67.6947 284.78 67.046 284.78 66.318C284.78 65.5807 284.943 64.932 285.27 64.372C285.597 63.812 286.045 63.3733 286.614 63.056C287.193 62.7387 287.846 62.58 288.574 62.58C289.199 62.58 289.764 62.7013 290.268 62.944C290.772 63.1867 291.169 63.5507 291.458 64.036L290.716 64.54C290.464 64.1667 290.151 63.8913 289.778 63.714C289.405 63.5367 288.999 63.448 288.56 63.448C288.037 63.448 287.566 63.5693 287.146 63.812C286.726 64.0453 286.395 64.3767 286.152 64.806C285.909 65.2353 285.788 65.7393 285.788 66.318C285.788 66.8967 285.909 67.4007 286.152 67.83C286.395 68.2593 286.726 68.5953 287.146 68.838C287.566 69.0713 288.037 69.188 288.56 69.188C288.999 69.188 289.405 69.0993 289.778 68.922C290.151 68.7447 290.464 68.474 290.716 68.11L291.458 68.614C291.169 69.09 290.772 69.454 290.268 69.706C289.764 69.9487 289.199 70.07 288.574 70.07ZM293.383 70V62.65H294.377V68.488L299.291 62.65H300.173V70H299.179V64.148L294.279 70H293.383ZM303.021 70V62.65H304.015V68.488L308.929 62.65H309.811V70H308.817V64.148L303.917 70H303.021Z" fill="#141414"/>
<g clip-path="url(#clip0_5285_11600)">
<path fill-rule="evenodd" clip-rule="evenodd" d="M412.357 56.8092H408.131C401.539 56.8092 406.328 42.6613 411.878 42.6613H418.555C419.625 42.6613 421.513 42.8606 422.443 40.1847L423.879 36.0286L414.723 36.0286C409.765 36.0286 405.906 37.7935 403.117 40.754C398.299 45.8211 396.665 53.7348 397.82 57.5209C398.919 61.0223 401.905 63.3281 406.582 63.3851L410.216 63.4135H414.695L415.794 60.0829C416.611 57.7202 414.78 56.8092 412.357 56.8092ZM463.8 50.9451L465.18 46.4189L450.446 46.4189C447.995 46.4189 446.896 47.1021 446.474 48.5254L445.093 53.0516L459.827 53.0516C462.278 53.0516 463.377 52.3684 463.8 50.9451ZM442.896 58.9158L441.515 63.442L456.249 63.442C458.672 63.442 459.799 62.7588 460.222 61.3355L461.602 56.8092L446.868 56.8092C444.445 56.8092 443.346 57.4924 442.896 58.9158ZM467.236 40.5832L468.617 36.057L453.883 36.057C451.432 36.057 450.333 36.7402 449.911 38.1636L448.53 42.6898L463.264 42.6898C465.687 42.6898 466.786 42.0066 467.236 40.5832ZM444.98 41.4942C444.361 37.2811 442.135 36.057 436.726 36.057H426.866L421.119 53.0516H424.753C426.922 53.0516 428.021 53.0801 429.176 49.9488L431.57 42.6613H435.233C438.36 42.6613 437.656 46.6182 436.078 50.4612C434.669 53.8487 432.218 56.8377 429.26 56.8377H423.147C420.696 56.8377 419.569 57.5209 419.118 58.9443L417.597 63.4704H422.076L426.471 63.442C430.359 63.4135 433.543 63.1288 437.261 59.7413C441.205 56.126 445.769 46.8459 444.98 41.4942ZM494.507 36.0286H485.971L477.942 44.654C477.012 45.6503 476.054 46.6466 475.124 47.8138H475.04L479.04 36.0286H472.082L462.701 63.442H469.659L472.645 54.8166L475.744 52.1692L478.196 59.9691C478.956 62.3887 479.745 63.442 481.436 63.442H486.76L481.294 48.1269L494.507 36.0286Z" fill="#00B33C"/>
</g>
<path d="M541.759 63.5385C549.91 63.5385 556.518 56.9261 556.518 48.7692C556.518 40.6124 549.91 34 541.759 34C533.608 34 527 40.6124 527 48.7692C527 56.9261 533.608 63.5385 541.759 63.5385Z" fill="#FC3F1D"/>
<path d="M543.727 42.3692H542.374C539.852 42.3692 538.561 43.6615 538.561 45.5077C538.561 47.6 539.483 48.5846 541.328 49.8769L542.866 50.9231L538.438 57.5692H535.117L539.114 51.6615C536.839 50 535.548 48.4 535.548 45.7538C535.548 42.3692 537.885 40.0923 542.374 40.0923H546.801V57.6307H543.727V42.3692Z" fill="white"/>
<path d="M566.664 64.4001V59.7847H577.795V64.4001H581.424V56.7693H579.333V37.5693H566.418L566.111 46.7386C565.926 51.9693 565.558 55.0463 564.512 56.7693H563.098V64.4001H566.664ZM569.493 47.2309L569.739 40.5847H575.52V56.7693H568.14C568.817 55.2309 569.309 52.4616 569.493 47.2309ZM589.664 43.354C585.482 43.354 582.592 46.3078 582.592 51.7232C582.592 57.077 585.482 60.0924 589.664 60.0924C593.846 60.0924 596.798 57.1386 596.798 51.7232C596.798 46.3693 593.846 43.354 589.664 43.354ZM589.664 57.077C587.573 57.077 586.528 55.4155 586.528 51.7232C586.528 47.9693 587.573 46.3693 589.664 46.3693C591.755 46.3693 592.862 47.9693 592.862 51.7232C592.862 55.477 591.816 57.077 589.664 57.077ZM606.268 60.0924C608.051 60.0924 609.281 59.7847 610.204 59.1078V56.0309C609.22 56.7078 608.113 57.1386 606.514 57.1386C603.808 57.1386 602.701 55.0463 602.701 51.7232C602.701 48.2155 604.054 46.4309 606.576 46.4309C608.051 46.4309 609.466 46.9232 610.265 47.4155V44.2155C609.466 43.7847 608.051 43.477 606.145 43.477C601.287 43.477 598.765 46.9847 598.765 51.8463C598.704 57.1386 601.164 60.0924 606.268 60.0924ZM624.532 46.677V43.6616H611.803V46.677H616.292V59.7847H620.105V46.677H624.532ZM637.816 48.8309C637.816 44.954 635.848 43.477 631.789 43.477C629.268 43.477 627.3 44.277 626.131 44.954V48.154C627.177 47.4155 629.391 46.554 631.359 46.554C633.203 46.554 634.003 47.1693 634.003 48.8924V49.8155H633.388C627.546 49.8155 624.963 51.7232 624.963 54.9847C624.963 58.2463 626.931 60.0924 629.883 60.0924C632.096 60.0924 633.08 59.354 633.818 58.6155H634.003C634.064 59.0463 634.187 59.6001 634.31 59.9078H638C637.877 58.6155 637.816 57.2616 637.816 55.9693V48.8309ZM634.064 55.9693C633.572 56.6463 632.711 57.2616 631.359 57.2616C629.76 57.2616 628.96 56.277 628.96 54.8616C628.96 52.954 630.252 52.277 633.511 52.277H634.064V55.9693ZM647.225 59.7847C650.976 59.7847 653.251 58.1847 653.251 55.1078C653.251 53.0155 651.96 51.7847 649.807 51.4155C651.529 50.9232 652.636 49.6924 652.636 47.7847C652.636 45.0155 650.791 43.6616 647.286 43.6616H640.89V59.7847H647.225ZM646.733 46.554C648.086 46.554 648.885 47.1078 648.885 48.3386C648.885 49.4463 648.086 50.1232 646.61 50.1232H644.703V46.554H646.733ZM646.856 52.954C648.454 52.954 649.315 53.5078 649.315 54.8616C649.315 56.3386 648.331 56.8924 646.856 56.8924H644.765V52.954H646.856ZM665.243 59.7847H669.548L663.46 51.1078L668.81 43.6616H664.997L659.647 51.1078V43.6616H655.834V59.7847H659.647V51.8463L665.243 59.7847ZM682.523 48.8309C682.523 44.954 680.556 43.477 676.497 43.477C673.975 43.477 672.008 44.277 670.839 44.954V48.154C671.885 47.4155 674.098 46.554 676.066 46.554C677.911 46.554 678.711 47.1693 678.711 48.8924V49.8155H678.096C672.254 49.8155 669.671 51.7232 669.671 54.9847C669.671 58.2463 671.639 60.0924 674.59 60.0924C676.804 60.0924 677.788 59.354 678.526 58.6155H678.711C678.772 59.0463 678.895 59.6001 679.018 59.9078H682.708C682.585 58.6155 682.523 57.2616 682.523 55.9693V48.8309ZM678.711 55.9693C678.219 56.6463 677.358 57.2616 676.005 57.2616C674.406 57.2616 673.606 56.277 673.606 54.8616C673.606 52.954 674.898 52.277 678.157 52.277H678.711V55.9693Z" fill="black"/>
<defs>
<clipPath id="clip0_5285_11600">
<rect width="98" height="28" fill="white" transform="translate(397 36)"/>
</clipPath>
</defs>
</svg>
