<svg width="306" height="226" viewBox="0 0 306 226" fill="none" xmlns="http://www.w3.org/2000/svg">
<rect width="306" height="226" fill="#F1F4F9"/>
<g clip-path="url(#clip0_5285_11564)">
<path fill-rule="evenodd" clip-rule="evenodd" d="M36.0643 42.3501H32.744C27.5643 42.3501 31.3273 31.2338 35.688 31.2338L40.9341 31.2338C41.7752 31.2338 43.2583 31.3904 43.9888 29.2879L45.1176 26.0224H37.9236C34.0279 26.0224 30.9953 27.4091 28.8039 29.7353C25.0188 33.7165 23.7349 39.9345 24.6425 42.9093C25.5058 45.6603 27.8521 47.4721 31.5265 47.5168L34.382 47.5391H37.9015L38.7648 44.9223C39.4067 43.0658 37.9679 42.3501 36.0643 42.3501ZM76.4834 37.7425L77.5679 34.1863H65.9912C64.0655 34.1863 63.2022 34.7231 62.8702 35.8414L61.7855 39.3977H73.3623C75.288 39.3977 76.1513 38.8609 76.4834 37.7425ZM60.059 44.0052L58.9743 47.5615H70.5511C72.4547 47.5615 73.3401 47.0247 73.6722 45.9064L74.7568 42.3501H63.1801C61.2764 42.3501 60.4131 42.8869 60.059 44.0052ZM79.1838 29.6011L80.2687 26.0448L68.6917 26.0448C66.766 26.0448 65.9027 26.5816 65.5707 27.6999L64.486 31.2562H76.0628C77.9667 31.2562 78.8296 30.7194 79.1838 29.6011ZM61.697 30.3168C61.21 27.0065 59.4613 26.0448 55.2113 26.0448H47.464L42.9484 39.3977H45.8038C47.5082 39.3977 48.3715 39.4201 49.2791 36.9597L51.1606 31.2338H54.0382C56.4952 31.2338 55.9418 34.3428 54.7022 37.3623C53.5955 40.0239 51.6697 42.3725 49.3455 42.3725H44.5421C42.6163 42.3725 41.731 42.9093 41.3768 44.0276L40.1814 47.5839H43.701L47.1541 47.5615C50.2088 47.5391 52.71 47.3155 55.6319 44.6539C58.7309 41.8133 62.3168 34.5217 61.697 30.3168ZM100.611 26.0224H93.9041L87.5954 32.7995C86.8647 33.5823 86.1122 34.3652 85.3815 35.2822H85.3151L88.4583 26.0224H82.9913L75.6201 47.5615L81.0876 47.5615L83.4337 40.7844L85.8685 38.7043L87.7945 44.8328C88.3919 46.7339 89.0122 47.5615 90.3403 47.5615H94.5238L90.2293 35.5283L100.611 26.0224Z" fill="#00B33C"/>
</g>
<path d="M137.033 48C143.678 48 149.066 42.6274 149.066 36C149.066 29.3726 143.678 24 137.033 24C130.387 24 125 29.3726 125 36C125 42.6274 130.387 48 137.033 48Z" fill="#FC3F1D"/>
<path d="M138.636 30.8H137.533C135.478 30.8 134.425 31.85 134.425 33.35C134.425 35.05 135.177 35.85 136.681 36.9L137.934 37.75L134.325 43.15H131.617L134.876 38.35C133.021 37 131.968 35.7 131.968 33.55C131.968 30.8 133.873 28.95 137.533 28.95H141.143V43.2H138.636V30.8Z" fill="white"/>
<path d="M157.338 48.7V44.95H166.412V48.7H169.371V42.5H167.666V26.9H157.137L156.886 34.35C156.736 38.6 156.435 41.1 155.583 42.5H154.43V48.7H157.338ZM159.644 34.75L159.844 29.35H164.557V42.5H158.541C159.092 41.25 159.494 39 159.644 34.75ZM176.089 31.6C172.68 31.6 170.323 34 170.323 38.4C170.323 42.75 172.68 45.2 176.089 45.2C179.498 45.2 181.905 42.8 181.905 38.4C181.905 34.05 179.498 31.6 176.089 31.6ZM176.089 42.75C174.384 42.75 173.532 41.4 173.532 38.4C173.532 35.35 174.384 34.05 176.089 34.05C177.794 34.05 178.696 35.35 178.696 38.4C178.696 41.45 177.844 42.75 176.089 42.75ZM189.626 45.2C191.08 45.2 192.083 44.95 192.835 44.4V41.9C192.033 42.45 191.13 42.8 189.826 42.8C187.62 42.8 186.718 41.1 186.718 38.4C186.718 35.55 187.821 34.1 189.877 34.1C191.08 34.1 192.233 34.5 192.885 34.9V32.3C192.233 31.95 191.08 31.7 189.526 31.7C185.565 31.7 183.509 34.55 183.509 38.5C183.459 42.8 185.465 45.2 189.626 45.2ZM204.517 34.3V31.85H194.138V34.3H197.798V44.95H200.907V34.3H204.517ZM215.346 36.05C215.346 32.9 213.742 31.7 210.433 31.7C208.377 31.7 206.773 32.35 205.82 32.9V35.5C206.673 34.9 208.477 34.2 210.082 34.2C211.586 34.2 212.238 34.7 212.238 36.1V36.85H211.736C206.973 36.85 204.868 38.4 204.868 41.05C204.868 43.7 206.472 45.2 208.879 45.2C210.684 45.2 211.486 44.6 212.087 44H212.238C212.288 44.35 212.388 44.8 212.488 45.05H215.497C215.396 44 215.346 42.9 215.346 41.85V36.05ZM212.288 41.85C211.887 42.4 211.185 42.9 210.082 42.9C208.778 42.9 208.127 42.1 208.127 40.95C208.127 39.4 209.179 38.85 211.837 38.85H212.288V41.85ZM223.017 44.95C226.076 44.95 227.931 43.65 227.931 41.15C227.931 39.45 226.878 38.45 225.123 38.15C226.527 37.75 227.429 36.75 227.429 35.2C227.429 32.95 225.925 31.85 223.067 31.85H217.853V44.95H223.017ZM222.616 34.2C223.719 34.2 224.371 34.65 224.371 35.65C224.371 36.55 223.719 37.1 222.516 37.1H220.962V34.2H222.616ZM222.716 39.4C224.02 39.4 224.722 39.85 224.722 40.95C224.722 42.15 223.92 42.6 222.716 42.6H221.012V39.4H222.716ZM237.707 44.95H241.217L236.253 37.9L240.615 31.85H237.507L233.145 37.9V31.85H230.036V44.95H233.145V38.5L237.707 44.95ZM251.796 36.05C251.796 32.9 250.192 31.7 246.882 31.7C244.827 31.7 243.222 32.35 242.27 32.9V35.5C243.122 34.9 244.927 34.2 246.532 34.2C248.036 34.2 248.687 34.7 248.687 36.1V36.85H248.186C243.423 36.85 241.317 38.4 241.317 41.05C241.317 43.7 242.922 45.2 245.328 45.2C247.133 45.2 247.935 44.6 248.537 44H248.687C248.738 44.35 248.838 44.8 248.938 45.05H251.946C251.846 44 251.796 42.9 251.796 41.85V36.05ZM248.687 41.85C248.286 42.4 247.584 42.9 246.481 42.9C245.178 42.9 244.526 42.1 244.526 40.95C244.526 39.4 245.579 38.85 248.236 38.85H248.687V41.85Z" fill="black"/>
<path d="M26.088 107V90.2H39.648V93.296H29.952V96.752H34.608C36.64 96.752 38.184 97.176 39.24 98.024C40.312 98.872 40.848 100.104 40.848 101.72C40.848 103.384 40.256 104.68 39.072 105.608C37.888 106.536 36.216 107 34.056 107H26.088ZM29.952 104.12H33.84C34.832 104.12 35.592 103.928 36.12 103.544C36.648 103.144 36.912 102.568 36.912 101.816C36.912 100.344 35.888 99.608 33.84 99.608H29.952V104.12ZM49.8308 107.192C48.3588 107.192 47.0628 106.904 45.9428 106.328C44.8388 105.752 43.9828 104.968 43.3748 103.976C42.7668 102.968 42.4628 101.824 42.4628 100.544C42.4628 99.248 42.7588 98.104 43.3508 97.112C43.9588 96.104 44.7828 95.32 45.8228 94.76C46.8628 94.184 48.0388 93.896 49.3508 93.896C50.6148 93.896 51.7508 94.168 52.7588 94.712C53.7828 95.24 54.5908 96.008 55.1828 97.016C55.7748 98.008 56.0708 99.2 56.0708 100.592C56.0708 100.736 56.0628 100.904 56.0468 101.096C56.0308 101.272 56.0148 101.44 55.9988 101.6H45.5108V99.416H54.0308L52.5908 100.064C52.5908 99.392 52.4548 98.808 52.1828 98.312C51.9108 97.816 51.5348 97.432 51.0548 97.16C50.5748 96.872 50.0148 96.728 49.3748 96.728C48.7348 96.728 48.1668 96.872 47.6708 97.16C47.1908 97.432 46.8148 97.824 46.5428 98.336C46.2708 98.832 46.1348 99.424 46.1348 100.112V100.688C46.1348 101.392 46.2868 102.016 46.5908 102.56C46.9108 103.088 47.3508 103.496 47.9108 103.784C48.4868 104.056 49.1588 104.192 49.9268 104.192C50.6148 104.192 51.2148 104.088 51.7268 103.88C52.2548 103.672 52.7348 103.36 53.1668 102.944L55.1588 105.104C54.5668 105.776 53.8228 106.296 52.9268 106.664C52.0308 107.016 50.9988 107.192 49.8308 107.192ZM65.0846 107.192C63.6926 107.192 62.4526 106.912 61.3646 106.352C60.2766 105.776 59.4206 104.984 58.7966 103.976C58.1886 102.968 57.8846 101.824 57.8846 100.544C57.8846 99.248 58.1886 98.104 58.7966 97.112C59.4206 96.104 60.2766 95.32 61.3646 94.76C62.4526 94.184 63.6926 93.896 65.0846 93.896C66.4446 93.896 67.6286 94.184 68.6366 94.76C69.6446 95.32 70.3886 96.128 70.8686 97.184L67.9646 98.744C67.6286 98.136 67.2046 97.688 66.6926 97.4C66.1966 97.112 65.6526 96.968 65.0606 96.968C64.4206 96.968 63.8446 97.112 63.3326 97.4C62.8206 97.688 62.4126 98.096 62.1086 98.624C61.8206 99.152 61.6766 99.792 61.6766 100.544C61.6766 101.296 61.8206 101.936 62.1086 102.464C62.4126 102.992 62.8206 103.4 63.3326 103.688C63.8446 103.976 64.4206 104.12 65.0606 104.12C65.6526 104.12 66.1966 103.984 66.6926 103.712C67.2046 103.424 67.6286 102.968 67.9646 102.344L70.8686 103.928C70.3886 104.968 69.6446 105.776 68.6366 106.352C67.6286 106.912 66.4446 107.192 65.0846 107.192ZM73.1438 107V94.088H85.9838V107H82.2398V96.32L83.0798 97.16H76.0238L76.8638 96.32V107H73.1438ZM87.9414 106.976L88.1334 103.904C88.2294 103.92 88.3254 103.936 88.4214 103.952C88.5174 103.952 88.6054 103.952 88.6854 103.952C89.1334 103.952 89.4854 103.824 89.7414 103.568C89.9974 103.312 90.1894 102.968 90.3174 102.536C90.4454 102.088 90.5334 101.584 90.5814 101.024C90.6454 100.464 90.6934 99.88 90.7254 99.272L90.9174 94.088H101.957V107H98.2134V96.248L99.0534 97.16H93.3894L94.1814 96.2L94.0134 99.44C93.9654 100.592 93.8694 101.648 93.7254 102.608C93.5974 103.568 93.3814 104.4 93.0774 105.104C92.7734 105.792 92.3654 106.328 91.8534 106.712C91.3414 107.08 90.6854 107.264 89.8854 107.264C89.5974 107.264 89.2934 107.24 88.9734 107.192C88.6534 107.144 88.3094 107.072 87.9414 106.976ZM113.286 107V104.48L113.046 103.928V99.416C113.046 98.616 112.798 97.992 112.302 97.544C111.822 97.096 111.078 96.872 110.07 96.872C109.382 96.872 108.702 96.984 108.03 97.208C107.374 97.416 106.814 97.704 106.35 98.072L105.006 95.456C105.71 94.96 106.558 94.576 107.55 94.304C108.542 94.032 109.55 93.896 110.574 93.896C112.542 93.896 114.07 94.36 115.158 95.288C116.246 96.216 116.79 97.664 116.79 99.632V107H113.286ZM109.35 107.192C108.342 107.192 107.478 107.024 106.758 106.688C106.038 106.336 105.486 105.864 105.102 105.272C104.718 104.68 104.526 104.016 104.526 103.28C104.526 102.512 104.71 101.84 105.078 101.264C105.462 100.688 106.062 100.24 106.878 99.92C107.694 99.584 108.758 99.416 110.07 99.416H113.502V101.6H110.478C109.598 101.6 108.99 101.744 108.654 102.032C108.334 102.32 108.174 102.68 108.174 103.112C108.174 103.592 108.358 103.976 108.726 104.264C109.11 104.536 109.63 104.672 110.286 104.672C110.91 104.672 111.47 104.528 111.966 104.24C112.462 103.936 112.822 103.496 113.046 102.92L113.622 104.648C113.35 105.48 112.854 106.112 112.134 106.544C111.414 106.976 110.486 107.192 109.35 107.192ZM122.802 107V96.296L123.642 97.16H118.434V94.088H130.89V97.16H125.682L126.522 96.296V107H122.802ZM132.886 107V94.088H136.606V99.128H142.222V94.088H145.966V107H142.222V102.176H136.606V107H132.886ZM157.278 107V104.48L157.038 103.928V99.416C157.038 98.616 156.79 97.992 156.294 97.544C155.814 97.096 155.07 96.872 154.062 96.872C153.374 96.872 152.694 96.984 152.022 97.208C151.366 97.416 150.806 97.704 150.342 98.072L148.998 95.456C149.702 94.96 150.55 94.576 151.542 94.304C152.534 94.032 153.542 93.896 154.566 93.896C156.534 93.896 158.062 94.36 159.15 95.288C160.238 96.216 160.782 97.664 160.782 99.632V107H157.278ZM153.342 107.192C152.334 107.192 151.47 107.024 150.75 106.688C150.03 106.336 149.478 105.864 149.094 105.272C148.71 104.68 148.518 104.016 148.518 103.28C148.518 102.512 148.702 101.84 149.07 101.264C149.454 100.688 150.054 100.24 150.87 99.92C151.686 99.584 152.75 99.416 154.062 99.416H157.494V101.6H154.47C153.59 101.6 152.982 101.744 152.646 102.032C152.326 102.32 152.166 102.68 152.166 103.112C152.166 103.592 152.35 103.976 152.718 104.264C153.102 104.536 153.622 104.672 154.278 104.672C154.902 104.672 155.462 104.528 155.958 104.24C156.454 103.936 156.814 103.496 157.038 102.92L157.614 104.648C157.342 105.48 156.846 106.112 156.126 106.544C155.406 106.976 154.478 107.192 153.342 107.192ZM172.17 107V102.704L172.698 103.304H169.122C167.266 103.304 165.81 102.92 164.754 102.152C163.698 101.384 163.17 100.28 163.17 98.84C163.17 97.304 163.722 96.128 164.826 95.312C165.946 94.496 167.45 94.088 169.338 94.088H175.506V107H172.17ZM162.978 107L166.41 102.08H170.226L166.962 107H162.978ZM172.17 101.552V96.176L172.698 97.136H169.41C168.642 97.136 168.042 97.28 167.61 97.568C167.194 97.856 166.986 98.32 166.986 98.96C166.986 100.192 167.778 100.808 169.362 100.808H172.698L172.17 101.552ZM34.68 137.32V129.16H30.456L30.384 130.816C30.352 131.504 30.312 132.16 30.264 132.784C30.216 133.408 30.12 133.976 29.976 134.488C29.848 134.984 29.656 135.408 29.4 135.76C29.144 136.096 28.8 136.328 28.368 136.456L24.672 135.928C25.136 135.928 25.512 135.792 25.8 135.52C26.088 135.232 26.312 134.84 26.472 134.344C26.632 133.832 26.752 133.256 26.832 132.616C26.912 131.96 26.968 131.272 27 130.552L27.168 126.088H38.424V137.32H34.68ZM24.24 141.784V135.928H40.272V141.784H36.792V139H27.72V141.784H24.24ZM48.6761 139.192C47.3001 139.192 46.0761 138.904 45.0041 138.328C43.9481 137.752 43.1081 136.968 42.4841 135.976C41.8761 134.968 41.5721 133.824 41.5721 132.544C41.5721 131.248 41.8761 130.104 42.4841 129.112C43.1081 128.104 43.9481 127.32 45.0041 126.76C46.0761 126.184 47.3001 125.896 48.6761 125.896C50.0361 125.896 51.2521 126.184 52.3241 126.76C53.3961 127.32 54.2361 128.096 54.8441 129.088C55.4521 130.08 55.7561 131.232 55.7561 132.544C55.7561 133.824 55.4521 134.968 54.8441 135.976C54.2361 136.968 53.3961 137.752 52.3241 138.328C51.2521 138.904 50.0361 139.192 48.6761 139.192ZM48.6761 136.12C49.3001 136.12 49.8601 135.976 50.3561 135.688C50.8521 135.4 51.2441 134.992 51.5321 134.464C51.8201 133.92 51.9641 133.28 51.9641 132.544C51.9641 131.792 51.8201 131.152 51.5321 130.624C51.2441 130.096 50.8521 129.688 50.3561 129.4C49.8601 129.112 49.3001 128.968 48.6761 128.968C48.0521 128.968 47.4921 129.112 46.9961 129.4C46.5001 129.688 46.1001 130.096 45.7961 130.624C45.5081 131.152 45.3641 131.792 45.3641 132.544C45.3641 133.28 45.5081 133.92 45.7961 134.464C46.1001 134.992 46.5001 135.4 46.9961 135.688C47.4921 135.976 48.0521 136.12 48.6761 136.12ZM64.4753 139.192C63.0833 139.192 61.8433 138.912 60.7553 138.352C59.6673 137.776 58.8113 136.984 58.1873 135.976C57.5793 134.968 57.2753 133.824 57.2753 132.544C57.2753 131.248 57.5793 130.104 58.1873 129.112C58.8113 128.104 59.6673 127.32 60.7553 126.76C61.8433 126.184 63.0833 125.896 64.4753 125.896C65.8353 125.896 67.0193 126.184 68.0273 126.76C69.0353 127.32 69.7793 128.128 70.2593 129.184L67.3553 130.744C67.0193 130.136 66.5953 129.688 66.0833 129.4C65.5873 129.112 65.0433 128.968 64.4513 128.968C63.8113 128.968 63.2353 129.112 62.7233 129.4C62.2113 129.688 61.8033 130.096 61.4993 130.624C61.2113 131.152 61.0673 131.792 61.0673 132.544C61.0673 133.296 61.2113 133.936 61.4993 134.464C61.8033 134.992 62.2113 135.4 62.7233 135.688C63.2353 135.976 63.8113 136.12 64.4513 136.12C65.0433 136.12 65.5873 135.984 66.0833 135.712C66.5953 135.424 67.0193 134.968 67.3553 134.344L70.2593 135.928C69.7793 136.968 69.0353 137.776 68.0273 138.352C67.0193 138.912 65.8353 139.192 64.4753 139.192ZM75.2709 139V128.296L76.1109 129.16H70.9029V126.088H83.3589V129.16H78.1509L78.9909 128.296V139H75.2709ZM93.0827 139V136.48L92.8427 135.928V131.416C92.8427 130.616 92.5947 129.992 92.0987 129.544C91.6187 129.096 90.8747 128.872 89.8667 128.872C89.1787 128.872 88.4987 128.984 87.8267 129.208C87.1707 129.416 86.6107 129.704 86.1467 130.072L84.8027 127.456C85.5067 126.96 86.3547 126.576 87.3467 126.304C88.3387 126.032 89.3467 125.896 90.3707 125.896C92.3387 125.896 93.8667 126.36 94.9547 127.288C96.0427 128.216 96.5867 129.664 96.5867 131.632V139H93.0827ZM89.1467 139.192C88.1387 139.192 87.2747 139.024 86.5547 138.688C85.8347 138.336 85.2827 137.864 84.8987 137.272C84.5147 136.68 84.3227 136.016 84.3227 135.28C84.3227 134.512 84.5067 133.84 84.8747 133.264C85.2587 132.688 85.8587 132.24 86.6747 131.92C87.4907 131.584 88.5547 131.416 89.8667 131.416H93.2987V133.6H90.2747C89.3947 133.6 88.7867 133.744 88.4507 134.032C88.1307 134.32 87.9707 134.68 87.9707 135.112C87.9707 135.592 88.1547 135.976 88.5227 136.264C88.9067 136.536 89.4267 136.672 90.0827 136.672C90.7067 136.672 91.2667 136.528 91.7627 136.24C92.2587 135.936 92.6187 135.496 92.8427 134.92L93.4187 136.648C93.1467 137.48 92.6507 138.112 91.9307 138.544C91.2107 138.976 90.2827 139.192 89.1467 139.192ZM99.8391 139V126.088H106.439C108.055 126.088 109.319 126.384 110.231 126.976C111.143 127.552 111.599 128.368 111.599 129.424C111.599 130.48 111.167 131.312 110.303 131.92C109.455 132.512 108.327 132.808 106.919 132.808L107.303 131.944C108.871 131.944 110.039 132.232 110.807 132.808C111.591 133.384 111.983 134.224 111.983 135.328C111.983 136.464 111.551 137.36 110.687 138.016C109.823 138.672 108.503 139 106.727 139H99.8391ZM103.271 136.456H106.415C107.103 136.456 107.615 136.344 107.951 136.12C108.303 135.88 108.479 135.52 108.479 135.04C108.479 134.544 108.319 134.184 107.999 133.96C107.679 133.72 107.175 133.6 106.487 133.6H103.271V136.456ZM103.271 131.392H106.103C106.759 131.392 107.247 131.272 107.567 131.032C107.903 130.792 108.071 130.448 108.071 130C108.071 129.536 107.903 129.192 107.567 128.968C107.247 128.744 106.759 128.632 106.103 128.632H103.271V131.392ZM123.913 139L119.593 132.88L122.641 131.08L128.329 139H123.913ZM114.769 139V126.088H118.513V139H114.769ZM117.409 134.104V131.104H121.921V134.104H117.409ZM123.001 132.976L119.497 132.592L124.033 126.088H128.017L123.001 132.976ZM137.661 139V136.48L137.421 135.928V131.416C137.421 130.616 137.173 129.992 136.677 129.544C136.197 129.096 135.453 128.872 134.445 128.872C133.757 128.872 133.077 128.984 132.405 129.208C131.749 129.416 131.189 129.704 130.725 130.072L129.381 127.456C130.085 126.96 130.933 126.576 131.925 126.304C132.917 126.032 133.925 125.896 134.949 125.896C136.917 125.896 138.445 126.36 139.533 127.288C140.621 128.216 141.165 129.664 141.165 131.632V139H137.661ZM133.725 139.192C132.717 139.192 131.853 139.024 131.133 138.688C130.413 138.336 129.861 137.864 129.477 137.272C129.093 136.68 128.901 136.016 128.901 135.28C128.901 134.512 129.085 133.84 129.453 133.264C129.837 132.688 130.437 132.24 131.253 131.92C132.069 131.584 133.133 131.416 134.445 131.416H137.877V133.6H134.853C133.973 133.6 133.365 133.744 133.029 134.032C132.709 134.32 132.549 134.68 132.549 135.112C132.549 135.592 132.733 135.976 133.101 136.264C133.485 136.536 134.005 136.672 134.661 136.672C135.285 136.672 135.845 136.528 136.341 136.24C136.837 135.936 137.197 135.496 137.421 134.92L137.997 136.648C137.725 137.48 137.229 138.112 136.509 138.544C135.789 138.976 134.861 139.192 133.725 139.192Z" fill="#141414"/>
<path d="M33.328 171.44V161.824H27.968L27.872 164.544C27.84 165.387 27.7867 166.197 27.712 166.976C27.648 167.744 27.5413 168.437 27.392 169.056C27.2533 169.664 27.0613 170.16 26.816 170.544C26.5813 170.928 26.272 171.152 25.888 171.216L24.592 170.976C25.0187 170.997 25.3707 170.843 25.648 170.512C25.936 170.181 26.1547 169.717 26.304 169.12C26.464 168.523 26.5813 167.824 26.656 167.024C26.7307 166.224 26.784 165.36 26.816 164.432L26.944 160.8H34.496V171.44H33.328ZM24.176 174.512L24.192 170.976H36.176V174.512H35.072V172H25.296L25.28 174.512H24.176ZM41.5408 172.08C40.7301 172.08 39.9994 171.899 39.3488 171.536C38.7088 171.163 38.2021 170.656 37.8288 170.016C37.4554 169.365 37.2688 168.624 37.2688 167.792C37.2688 166.949 37.4554 166.208 37.8288 165.568C38.2021 164.928 38.7088 164.427 39.3488 164.064C39.9888 163.701 40.7194 163.52 41.5408 163.52C42.3728 163.52 43.1088 163.701 43.7488 164.064C44.3994 164.427 44.9061 164.928 45.2688 165.568C45.6421 166.208 45.8288 166.949 45.8288 167.792C45.8288 168.624 45.6421 169.365 45.2688 170.016C44.9061 170.656 44.3994 171.163 43.7488 171.536C43.0981 171.899 42.3621 172.08 41.5408 172.08ZM41.5408 171.072C42.1488 171.072 42.6874 170.939 43.1568 170.672C43.6261 170.395 43.9941 170.011 44.2608 169.52C44.5381 169.019 44.6768 168.443 44.6768 167.792C44.6768 167.131 44.5381 166.555 44.2608 166.064C43.9941 165.573 43.6261 165.195 43.1568 164.928C42.6874 164.651 42.1541 164.512 41.5568 164.512C40.9594 164.512 40.4261 164.651 39.9568 164.928C39.4874 165.195 39.1141 165.573 38.8368 166.064C38.5594 166.555 38.4208 167.131 38.4208 167.792C38.4208 168.443 38.5594 169.019 38.8368 169.52C39.1141 170.011 39.4874 170.395 39.9568 170.672C40.4261 170.939 40.9541 171.072 41.5408 171.072ZM51.7766 172.08C50.9446 172.08 50.198 171.899 49.5366 171.536C48.886 171.163 48.374 170.656 48.0006 170.016C47.6273 169.365 47.4406 168.624 47.4406 167.792C47.4406 166.949 47.6273 166.208 48.0006 165.568C48.374 164.928 48.886 164.427 49.5366 164.064C50.198 163.701 50.9446 163.52 51.7766 163.52C52.4913 163.52 53.1366 163.659 53.7126 163.936C54.2886 164.213 54.742 164.629 55.0726 165.184L54.2246 165.76C53.9366 165.333 53.5793 165.019 53.1526 164.816C52.726 164.613 52.262 164.512 51.7606 164.512C51.1633 164.512 50.6246 164.651 50.1446 164.928C49.6646 165.195 49.286 165.573 49.0086 166.064C48.7313 166.555 48.5926 167.131 48.5926 167.792C48.5926 168.453 48.7313 169.029 49.0086 169.52C49.286 170.011 49.6646 170.395 50.1446 170.672C50.6246 170.939 51.1633 171.072 51.7606 171.072C52.262 171.072 52.726 170.971 53.1526 170.768C53.5793 170.565 53.9366 170.256 54.2246 169.84L55.0726 170.416C54.742 170.96 54.2886 171.376 53.7126 171.664C53.1366 171.941 52.4913 172.08 51.7766 172.08ZM58.716 172V164.288L59.004 164.592H55.532V163.6H63.036V164.592H59.564L59.852 164.288V172H58.716ZM69.8945 172V170.144L69.8465 169.84V166.736C69.8465 166.021 69.6438 165.472 69.2385 165.088C68.8438 164.704 68.2518 164.512 67.4625 164.512C66.9185 164.512 66.4012 164.603 65.9105 164.784C65.4198 164.965 65.0038 165.205 64.6625 165.504L64.1505 164.656C64.5772 164.293 65.0892 164.016 65.6865 163.824C66.2838 163.621 66.9132 163.52 67.5745 163.52C68.6625 163.52 69.4998 163.792 70.0865 164.336C70.6838 164.869 70.9825 165.685 70.9825 166.784V172H69.8945ZM66.9985 172.08C66.3692 172.08 65.8198 171.979 65.3505 171.776C64.8918 171.563 64.5398 171.275 64.2945 170.912C64.0492 170.539 63.9265 170.112 63.9265 169.632C63.9265 169.195 64.0278 168.8 64.2305 168.448C64.4438 168.085 64.7852 167.797 65.2545 167.584C65.7345 167.36 66.3745 167.248 67.1745 167.248H70.0705V168.096H67.2065C66.3958 168.096 65.8305 168.24 65.5105 168.528C65.2012 168.816 65.0465 169.173 65.0465 169.6C65.0465 170.08 65.2332 170.464 65.6065 170.752C65.9798 171.04 66.5025 171.184 67.1745 171.184C67.8145 171.184 68.3638 171.04 68.8225 170.752C69.2918 170.453 69.6332 170.027 69.8465 169.472L70.1025 170.256C69.8892 170.811 69.5158 171.253 68.9825 171.584C68.4598 171.915 67.7985 172.08 66.9985 172.08ZM74.0066 172V163.6H77.7186C78.668 163.6 79.4146 163.781 79.9586 164.144C80.5133 164.507 80.7906 165.04 80.7906 165.744C80.7906 166.427 80.5293 166.955 80.0066 167.328C79.484 167.691 78.796 167.872 77.9426 167.872L78.1666 167.536C79.1693 167.536 79.9053 167.723 80.3746 168.096C80.844 168.469 81.0786 169.008 81.0786 169.712C81.0786 170.437 80.812 171.003 80.2786 171.408C79.756 171.803 78.94 172 77.8306 172H74.0066ZM75.1106 171.104H77.7826C78.4973 171.104 79.036 170.992 79.3986 170.768C79.772 170.533 79.9586 170.16 79.9586 169.648C79.9586 169.136 79.7933 168.763 79.4626 168.528C79.132 168.293 78.6093 168.176 77.8946 168.176H75.1106V171.104ZM75.1106 167.328H77.6386C78.2893 167.328 78.7853 167.205 79.1266 166.96C79.4786 166.715 79.6546 166.357 79.6546 165.888C79.6546 165.419 79.4786 165.067 79.1266 164.832C78.7853 164.597 78.2893 164.48 77.6386 164.48H75.1106V167.328ZM83.741 172V163.6H84.877V170.272L90.493 163.6H91.501V172H90.365V165.312L84.765 172H83.741ZM94.7566 172V163.6H95.9086L99.7166 170.048H99.2366L103.109 163.6H104.165V172H103.125V164.896L103.333 164.992L99.7166 170.976H99.2046L95.5566 164.928L95.7966 164.88V172H94.7566ZM116.897 168.448C116.406 168.661 115.91 168.832 115.409 168.96C114.918 169.077 114.427 169.136 113.937 169.136C112.945 169.136 112.161 168.912 111.585 168.464C111.009 168.005 110.721 167.301 110.721 166.352V163.6H111.841V166.288C111.841 166.928 112.049 167.408 112.465 167.728C112.881 168.048 113.441 168.208 114.145 168.208C114.571 168.208 115.019 168.155 115.489 168.048C115.958 167.931 116.433 167.765 116.913 167.552L116.897 168.448ZM116.801 172V163.6H117.937V172H116.801ZM124.763 172.08C123.888 172.08 123.12 171.899 122.459 171.536C121.798 171.163 121.28 170.656 120.907 170.016C120.534 169.365 120.347 168.624 120.347 167.792C120.347 166.96 120.523 166.224 120.875 165.584C121.238 164.944 121.728 164.443 122.347 164.08C122.976 163.707 123.68 163.52 124.459 163.52C125.248 163.52 125.947 163.701 126.555 164.064C127.174 164.416 127.659 164.917 128.011 165.568C128.363 166.208 128.539 166.949 128.539 167.792C128.539 167.845 128.534 167.904 128.523 167.968C128.523 168.021 128.523 168.08 128.523 168.144H121.211V167.296H127.915L127.467 167.632C127.467 167.024 127.334 166.485 127.067 166.016C126.811 165.536 126.459 165.163 126.011 164.896C125.563 164.629 125.046 164.496 124.459 164.496C123.883 164.496 123.366 164.629 122.907 164.896C122.448 165.163 122.091 165.536 121.835 166.016C121.579 166.496 121.451 167.045 121.451 167.664V167.84C121.451 168.48 121.59 169.045 121.867 169.536C122.155 170.016 122.55 170.395 123.051 170.672C123.563 170.939 124.144 171.072 124.795 171.072C125.307 171.072 125.782 170.981 126.219 170.8C126.667 170.619 127.051 170.341 127.371 169.968L128.011 170.704C127.638 171.152 127.168 171.493 126.603 171.728C126.048 171.963 125.435 172.08 124.763 172.08ZM129.443 172L132.995 167.392L132.979 167.952L129.603 163.6H130.883L133.651 167.2L133.171 167.184L135.939 163.6H137.187L133.779 168L133.795 167.392L137.379 172H136.083L133.155 168.16L133.603 168.224L130.723 172H129.443ZM137.705 171.984L137.785 171.008C137.86 171.019 137.929 171.035 137.993 171.056C138.068 171.067 138.132 171.072 138.185 171.072C138.526 171.072 138.798 170.944 139.001 170.688C139.214 170.432 139.374 170.091 139.481 169.664C139.588 169.237 139.662 168.757 139.705 168.224C139.748 167.68 139.785 167.136 139.817 166.592L139.961 163.6H146.121V172H144.985V164.256L145.273 164.592H140.697L140.969 164.24L140.841 166.672C140.809 167.397 140.75 168.091 140.665 168.752C140.59 169.413 140.468 169.995 140.297 170.496C140.137 170.997 139.913 171.392 139.625 171.68C139.337 171.957 138.969 172.096 138.521 172.096C138.393 172.096 138.26 172.085 138.121 172.064C137.993 172.043 137.854 172.016 137.705 171.984ZM157.542 172V163.6H158.678V172H157.542ZM152.886 166.56C153.942 166.571 154.748 166.805 155.302 167.264C155.857 167.723 156.134 168.384 156.134 169.248C156.134 170.144 155.836 170.832 155.238 171.312C154.641 171.792 153.788 172.027 152.678 172.016L149.35 172V163.6H150.486V166.528L152.886 166.56ZM152.598 171.152C153.388 171.163 153.98 171.008 154.374 170.688C154.78 170.357 154.982 169.877 154.982 169.248C154.982 168.619 154.785 168.16 154.39 167.872C153.996 167.573 153.398 167.419 152.598 167.408L150.486 167.376V171.12L152.598 171.152ZM166.1 172V163.6H169.812C170.762 163.6 171.508 163.781 172.052 164.144C172.607 164.507 172.884 165.04 172.884 165.744C172.884 166.427 172.623 166.955 172.1 167.328C171.578 167.691 170.89 167.872 170.036 167.872L170.26 167.536C171.263 167.536 171.999 167.723 172.468 168.096C172.938 168.469 173.172 169.008 173.172 169.712C173.172 170.437 172.906 171.003 172.372 171.408C171.85 171.803 171.034 172 169.924 172H166.1ZM167.204 171.104H169.876C170.591 171.104 171.13 170.992 171.492 170.768C171.866 170.533 172.052 170.16 172.052 169.648C172.052 169.136 171.887 168.763 171.556 168.528C171.226 168.293 170.703 168.176 169.988 168.176H167.204V171.104ZM167.204 167.328H169.732C170.383 167.328 170.879 167.205 171.22 166.96C171.572 166.715 171.748 166.357 171.748 165.888C171.748 165.419 171.572 165.067 171.22 164.832C170.879 164.597 170.383 164.48 169.732 164.48H167.204V167.328ZM178.486 171.984L178.566 171.008C178.641 171.019 178.71 171.035 178.774 171.056C178.849 171.067 178.913 171.072 178.966 171.072C179.308 171.072 179.58 170.944 179.782 170.688C179.996 170.432 180.156 170.091 180.262 169.664C180.369 169.237 180.444 168.757 180.486 168.224C180.529 167.68 180.566 167.136 180.598 166.592L180.742 163.6H186.902V172H185.766V164.256L186.054 164.592H181.478L181.75 164.24L181.622 166.672C181.59 167.397 181.532 168.091 181.446 168.752C181.372 169.413 181.249 169.995 181.078 170.496C180.918 170.997 180.694 171.392 180.406 171.68C180.118 171.957 179.75 172.096 179.302 172.096C179.174 172.096 179.041 172.085 178.902 172.064C178.774 172.043 178.636 172.016 178.486 171.984ZM190.132 172V163.6H191.268V167.216H193.828V168.256H191.268V172H190.132ZM197.364 172.08C196.564 172.08 195.844 171.899 195.204 171.536C194.574 171.163 194.078 170.656 193.716 170.016C193.353 169.365 193.172 168.624 193.172 167.792C193.172 166.949 193.353 166.208 193.716 165.568C194.078 164.928 194.574 164.427 195.204 164.064C195.844 163.701 196.564 163.52 197.364 163.52C198.164 163.52 198.878 163.701 199.508 164.064C200.137 164.427 200.633 164.928 200.996 165.568C201.358 166.208 201.54 166.949 201.54 167.792C201.54 168.624 201.358 169.365 200.996 170.016C200.633 170.656 200.137 171.163 199.508 171.536C198.878 171.899 198.164 172.08 197.364 172.08ZM197.364 171.088C197.95 171.088 198.473 170.949 198.932 170.672C199.39 170.395 199.753 170.011 200.02 169.52C200.286 169.019 200.42 168.443 200.42 167.792C200.42 167.131 200.286 166.555 200.02 166.064C199.753 165.573 199.39 165.195 198.932 164.928C198.473 164.651 197.95 164.512 197.364 164.512C196.788 164.512 196.265 164.651 195.796 164.928C195.337 165.195 194.974 165.573 194.708 166.064C194.441 166.555 194.308 167.131 194.308 167.792C194.308 168.443 194.441 169.019 194.708 169.52C194.974 170.011 195.337 170.395 195.796 170.672C196.265 170.949 196.788 171.088 197.364 171.088ZM207.751 172.096C207.069 172.096 206.461 171.984 205.927 171.76C205.405 171.536 204.957 171.195 204.583 170.736C204.21 170.277 203.927 169.712 203.735 169.04C203.543 168.357 203.447 167.568 203.447 166.672C203.447 165.872 203.522 165.173 203.671 164.576C203.821 163.968 204.029 163.445 204.295 163.008C204.562 162.571 204.871 162.203 205.223 161.904C205.586 161.595 205.975 161.349 206.391 161.168C206.818 160.976 207.255 160.832 207.703 160.736L211.479 159.856L211.671 160.912L208.119 161.712C207.895 161.765 207.623 161.84 207.303 161.936C206.994 162.032 206.674 162.176 206.343 162.368C206.023 162.56 205.725 162.827 205.447 163.168C205.17 163.509 204.946 163.952 204.775 164.496C204.615 165.029 204.535 165.696 204.535 166.496C204.535 166.667 204.541 166.805 204.551 166.912C204.562 167.008 204.573 167.115 204.583 167.232C204.605 167.339 204.621 167.499 204.631 167.712L204.135 167.296C204.253 166.645 204.493 166.08 204.855 165.6C205.218 165.109 205.671 164.731 206.215 164.464C206.77 164.187 207.383 164.048 208.055 164.048C208.834 164.048 209.527 164.219 210.135 164.56C210.743 164.891 211.218 165.355 211.559 165.952C211.911 166.549 212.087 167.243 212.087 168.032C212.087 168.811 211.906 169.509 211.543 170.128C211.191 170.747 210.69 171.232 210.039 171.584C209.389 171.925 208.626 172.096 207.751 172.096ZM207.879 171.152C208.477 171.152 209.005 171.019 209.463 170.752C209.922 170.475 210.279 170.101 210.535 169.632C210.802 169.163 210.935 168.635 210.935 168.048C210.935 167.472 210.802 166.96 210.535 166.512C210.279 166.064 209.922 165.712 209.463 165.456C209.005 165.189 208.471 165.056 207.863 165.056C207.266 165.056 206.738 165.184 206.279 165.44C205.821 165.685 205.458 166.032 205.191 166.48C204.935 166.928 204.807 167.445 204.807 168.032C204.807 168.619 204.935 169.147 205.191 169.616C205.458 170.085 205.821 170.459 206.279 170.736C206.749 171.013 207.282 171.152 207.879 171.152ZM214.432 175.184C214.037 175.184 213.659 175.12 213.296 174.992C212.944 174.864 212.64 174.672 212.384 174.416L212.912 173.568C213.125 173.771 213.355 173.925 213.6 174.032C213.856 174.149 214.139 174.208 214.448 174.208C214.821 174.208 215.141 174.101 215.408 173.888C215.685 173.685 215.947 173.323 216.192 172.8L216.736 171.568L216.864 171.392L220.32 163.6H221.44L217.232 173.008C216.997 173.552 216.736 173.984 216.448 174.304C216.171 174.624 215.867 174.848 215.536 174.976C215.205 175.115 214.837 175.184 214.432 175.184ZM216.672 172.24L212.8 163.6H213.984L217.408 171.312L216.672 172.24ZM223.21 172V163.6H224.346V167.216H226.906V168.256H224.346V172H223.21ZM230.442 172.08C229.642 172.08 228.922 171.899 228.282 171.536C227.652 171.163 227.156 170.656 226.794 170.016C226.431 169.365 226.25 168.624 226.25 167.792C226.25 166.949 226.431 166.208 226.794 165.568C227.156 164.928 227.652 164.427 228.282 164.064C228.922 163.701 229.642 163.52 230.442 163.52C231.242 163.52 231.956 163.701 232.586 164.064C233.215 164.427 233.711 164.928 234.074 165.568C234.436 166.208 234.618 166.949 234.618 167.792C234.618 168.624 234.436 169.365 234.074 170.016C233.711 170.656 233.215 171.163 232.586 171.536C231.956 171.899 231.242 172.08 230.442 172.08ZM230.442 171.088C231.028 171.088 231.551 170.949 232.01 170.672C232.468 170.395 232.831 170.011 233.098 169.52C233.364 169.019 233.498 168.443 233.498 167.792C233.498 167.131 233.364 166.555 233.098 166.064C232.831 165.573 232.468 165.195 232.01 164.928C231.551 164.651 231.028 164.512 230.442 164.512C229.866 164.512 229.343 164.651 228.874 164.928C228.415 165.195 228.052 165.573 227.786 166.064C227.519 166.555 227.386 167.131 227.386 167.792C227.386 168.443 227.519 169.019 227.786 169.52C228.052 170.011 228.415 170.395 228.874 170.672C229.343 170.949 229.866 171.088 230.442 171.088ZM27.216 196V188.288L27.504 188.592H24.032V187.6H31.536V188.592H28.064L28.352 188.288V196H27.216ZM36.2439 196.08C35.4332 196.08 34.7025 195.899 34.0519 195.536C33.4119 195.163 32.9052 194.656 32.5319 194.016C32.1585 193.365 31.9719 192.624 31.9719 191.792C31.9719 190.949 32.1585 190.208 32.5319 189.568C32.9052 188.928 33.4119 188.427 34.0519 188.064C34.6919 187.701 35.4225 187.52 36.2439 187.52C37.0759 187.52 37.8119 187.701 38.4519 188.064C39.1025 188.427 39.6092 188.928 39.9719 189.568C40.3452 190.208 40.5319 190.949 40.5319 191.792C40.5319 192.624 40.3452 193.365 39.9719 194.016C39.6092 194.656 39.1025 195.163 38.4519 195.536C37.8012 195.899 37.0652 196.08 36.2439 196.08ZM36.2439 195.072C36.8519 195.072 37.3905 194.939 37.8599 194.672C38.3292 194.395 38.6972 194.011 38.9639 193.52C39.2412 193.019 39.3799 192.443 39.3799 191.792C39.3799 191.131 39.2412 190.555 38.9639 190.064C38.6972 189.573 38.3292 189.195 37.8599 188.928C37.3905 188.651 36.8572 188.512 36.2599 188.512C35.6625 188.512 35.1292 188.651 34.6599 188.928C34.1905 189.195 33.8172 189.573 33.5399 190.064C33.2625 190.555 33.1239 191.131 33.1239 191.792C33.1239 192.443 33.2625 193.019 33.5399 193.52C33.8172 194.011 34.1905 194.395 34.6599 194.672C35.1292 194.939 35.6572 195.072 36.2439 195.072ZM48.2718 192.448C47.7811 192.661 47.2851 192.832 46.7838 192.96C46.2931 193.077 45.8024 193.136 45.3118 193.136C44.3198 193.136 43.5358 192.912 42.9598 192.464C42.3838 192.005 42.0958 191.301 42.0958 190.352V187.6H43.2158V190.288C43.2158 190.928 43.4238 191.408 43.8398 191.728C44.2558 192.048 44.8158 192.208 45.5198 192.208C45.9464 192.208 46.3944 192.155 46.8638 192.048C47.3331 191.931 47.8078 191.765 48.2878 191.552L48.2718 192.448ZM48.1758 196V187.6H49.3118V196H48.1758ZM58.6979 196L55.2419 191.84L56.1859 191.28L60.0419 196H58.6979ZM52.5379 196V187.6H53.6739V196H52.5379ZM53.3219 192.256V191.28H56.0259V192.256H53.3219ZM56.2819 191.92L55.2259 191.76L58.5699 187.6H59.8019L56.2819 191.92ZM61.8348 196V187.6H62.9708V194.272L68.5868 187.6H69.5948V196H68.4588V189.312L62.8588 196H61.8348ZM77.3099 196V184.8H81.5019C82.4512 184.8 83.2672 184.955 83.9499 185.264C84.6325 185.563 85.1552 186 85.5179 186.576C85.8912 187.141 86.0779 187.829 86.0779 188.64C86.0779 189.429 85.8912 190.112 85.5179 190.688C85.1552 191.253 84.6325 191.691 83.9499 192C83.2672 192.309 82.4512 192.464 81.5019 192.464H77.9659L78.4939 191.904V196H77.3099ZM78.4939 192L77.9659 191.424H81.4699C82.5899 191.424 83.4379 191.184 84.0139 190.704C84.6005 190.213 84.8939 189.525 84.8939 188.64C84.8939 187.744 84.6005 187.051 84.0139 186.56C83.4379 186.069 82.5899 185.824 81.4699 185.824H77.9659L78.4939 185.264V192ZM91.6345 196.08C90.8238 196.08 90.0932 195.899 89.4425 195.536C88.8025 195.163 88.2958 194.656 87.9225 194.016C87.5492 193.365 87.3625 192.624 87.3625 191.792C87.3625 190.949 87.5492 190.208 87.9225 189.568C88.2958 188.928 88.8025 188.427 89.4425 188.064C90.0825 187.701 90.8132 187.52 91.6345 187.52C92.4665 187.52 93.2025 187.701 93.8425 188.064C94.4932 188.427 94.9998 188.928 95.3625 189.568C95.7358 190.208 95.9225 190.949 95.9225 191.792C95.9225 192.624 95.7358 193.365 95.3625 194.016C94.9998 194.656 94.4932 195.163 93.8425 195.536C93.1918 195.899 92.4558 196.08 91.6345 196.08ZM91.6345 195.072C92.2425 195.072 92.7812 194.939 93.2505 194.672C93.7198 194.395 94.0878 194.011 94.3545 193.52C94.6318 193.019 94.7705 192.443 94.7705 191.792C94.7705 191.131 94.6318 190.555 94.3545 190.064C94.0878 189.573 93.7198 189.195 93.2505 188.928C92.7812 188.651 92.2478 188.512 91.6505 188.512C91.0532 188.512 90.5198 188.651 90.0505 188.928C89.5812 189.195 89.2078 189.573 88.9305 190.064C88.6532 190.555 88.5145 191.131 88.5145 191.792C88.5145 192.443 88.6532 193.019 88.9305 193.52C89.2078 194.011 89.5812 194.395 90.0505 194.672C90.5198 194.939 91.0478 195.072 91.6345 195.072ZM101.87 196.08C101.038 196.08 100.292 195.899 99.6304 195.536C98.9797 195.163 98.4677 194.656 98.0944 194.016C97.721 193.365 97.5344 192.624 97.5344 191.792C97.5344 190.949 97.721 190.208 98.0944 189.568C98.4677 188.928 98.9797 188.427 99.6304 188.064C100.292 187.701 101.038 187.52 101.87 187.52C102.585 187.52 103.23 187.659 103.806 187.936C104.382 188.213 104.836 188.629 105.166 189.184L104.318 189.76C104.03 189.333 103.673 189.019 103.246 188.816C102.82 188.613 102.356 188.512 101.854 188.512C101.257 188.512 100.718 188.651 100.238 188.928C99.7584 189.195 99.3797 189.573 99.1024 190.064C98.825 190.555 98.6864 191.131 98.6864 191.792C98.6864 192.453 98.825 193.029 99.1024 193.52C99.3797 194.011 99.7584 194.395 100.238 194.672C100.718 194.939 101.257 195.072 101.854 195.072C102.356 195.072 102.82 194.971 103.246 194.768C103.673 194.565 104.03 194.256 104.318 193.84L105.166 194.416C104.836 194.96 104.382 195.376 103.806 195.664C103.23 195.941 102.585 196.08 101.87 196.08ZM110.745 196.08C109.913 196.08 109.167 195.899 108.505 195.536C107.855 195.163 107.343 194.656 106.969 194.016C106.596 193.365 106.409 192.624 106.409 191.792C106.409 190.949 106.596 190.208 106.969 189.568C107.343 188.928 107.855 188.427 108.505 188.064C109.167 187.701 109.913 187.52 110.745 187.52C111.46 187.52 112.105 187.659 112.681 187.936C113.257 188.213 113.711 188.629 114.041 189.184L113.193 189.76C112.905 189.333 112.548 189.019 112.121 188.816C111.695 188.613 111.231 188.512 110.729 188.512C110.132 188.512 109.593 188.651 109.113 188.928C108.633 189.195 108.255 189.573 107.977 190.064C107.7 190.555 107.561 191.131 107.561 191.792C107.561 192.453 107.7 193.029 107.977 193.52C108.255 194.011 108.633 194.395 109.113 194.672C109.593 194.939 110.132 195.072 110.729 195.072C111.231 195.072 111.695 194.971 112.121 194.768C112.548 194.565 112.905 194.256 113.193 193.84L114.041 194.416C113.711 194.96 113.257 195.376 112.681 195.664C112.105 195.941 111.46 196.08 110.745 196.08ZM116.241 196V187.6H117.377V194.272L122.993 187.6H124.001V196H122.865V189.312L117.265 196H116.241ZM127.257 196V187.6H128.393V194.272L134.009 187.6H135.017V196H133.881V189.312L128.281 196H127.257Z" fill="#141414"/>
<defs>
<clipPath id="clip0_5285_11564">
<rect width="77" height="22" fill="white" transform="translate(24 26)"/>
</clipPath>
</defs>
</svg>
