<svg width="328" height="182" viewBox="0 0 328 182" fill="none" xmlns="http://www.w3.org/2000/svg">
<rect width="328" height="182" fill="#F1F4F9"/>
<g clip-path="url(#clip0_5285_11576)">
<path fill-rule="evenodd" clip-rule="evenodd" d="M36.0643 42.3501H32.744C27.5643 42.3501 31.3273 31.2339 35.688 31.2339L40.9341 31.2339C41.7752 31.2339 43.2583 31.3905 43.9888 29.288L45.1176 26.0225H37.9236C34.0279 26.0225 30.9953 27.4092 28.8039 29.7353C25.0188 33.7166 23.7349 39.9345 24.6425 42.9093C25.5058 45.6604 27.8521 47.4721 31.5265 47.5169L34.382 47.5392H37.9015L38.7648 44.9223C39.4067 43.0659 37.9679 42.3501 36.0643 42.3501ZM76.4834 37.7426L77.5679 34.1863H65.9912C64.0655 34.1863 63.2022 34.7231 62.8702 35.8414L61.7855 39.3977H73.3623C75.288 39.3977 76.1513 38.8609 76.4834 37.7426ZM60.059 44.0053L58.9743 47.5616H70.5511C72.4547 47.5616 73.3401 47.0248 73.6722 45.9065L74.7568 42.3501H63.1801C61.2764 42.3501 60.4131 42.8869 60.059 44.0053ZM79.1838 29.6011L80.2687 26.0448L68.6917 26.0448C66.766 26.0448 65.9027 26.5816 65.5707 27.7L64.486 31.2563H76.0628C77.9667 31.2563 78.8296 30.7195 79.1838 29.6011ZM61.697 30.3169C61.21 27.0066 59.4613 26.0448 55.2113 26.0448H47.464L42.9484 39.3977H45.8038C47.5082 39.3977 48.3715 39.4201 49.2791 36.9598L51.1606 31.2339H54.0382C56.4952 31.2339 55.9418 34.3429 54.7022 37.3624C53.5955 40.024 51.6697 42.3725 49.3455 42.3725H44.5421C42.6163 42.3725 41.731 42.9093 41.3768 44.0277L40.1814 47.5839H43.701L47.1541 47.5616C50.2088 47.5392 52.71 47.3155 55.6319 44.6539C58.7309 41.8133 62.3168 34.5218 61.697 30.3169ZM100.611 26.0225H93.9041L87.5954 32.7996C86.8647 33.5824 86.1122 34.3652 85.3815 35.2823H85.3151L88.4583 26.0225H82.9913L75.6201 47.5616L81.0876 47.5616L83.4337 40.7845L85.8685 38.7044L87.7945 44.8329C88.3919 46.734 89.0122 47.5616 90.3403 47.5616H94.5238L90.2293 35.5283L100.611 26.0225Z" fill="#00B33C"/>
</g>
<path d="M137.033 48C143.678 48 149.066 42.6274 149.066 36C149.066 29.3726 143.678 24 137.033 24C130.387 24 125 29.3726 125 36C125 42.6274 130.387 48 137.033 48Z" fill="#FC3F1D"/>
<path d="M138.636 30.8H137.533C135.478 30.8 134.425 31.85 134.425 33.35C134.425 35.05 135.177 35.85 136.681 36.9L137.934 37.75L134.325 43.15H131.617L134.876 38.35C133.021 37 131.968 35.7 131.968 33.55C131.968 30.8 133.873 28.95 137.533 28.95H141.143V43.2H138.636V30.8Z" fill="white"/>
<path d="M157.338 48.7V44.95H166.412V48.7H169.371V42.5H167.666V26.9H157.137L156.886 34.35C156.736 38.6 156.435 41.1 155.583 42.5H154.43V48.7H157.338ZM159.644 34.75L159.844 29.35H164.557V42.5H158.541C159.092 41.25 159.494 39 159.644 34.75ZM176.089 31.6C172.68 31.6 170.323 34 170.323 38.4C170.323 42.75 172.68 45.2 176.089 45.2C179.498 45.2 181.905 42.8 181.905 38.4C181.905 34.05 179.498 31.6 176.089 31.6ZM176.089 42.75C174.384 42.75 173.532 41.4 173.532 38.4C173.532 35.35 174.384 34.05 176.089 34.05C177.794 34.05 178.696 35.35 178.696 38.4C178.696 41.45 177.844 42.75 176.089 42.75ZM189.626 45.2C191.08 45.2 192.083 44.95 192.835 44.4V41.9C192.033 42.45 191.13 42.8 189.826 42.8C187.62 42.8 186.718 41.1 186.718 38.4C186.718 35.55 187.821 34.1 189.877 34.1C191.08 34.1 192.233 34.5 192.885 34.9V32.3C192.233 31.95 191.08 31.7 189.526 31.7C185.565 31.7 183.509 34.55 183.509 38.5C183.459 42.8 185.465 45.2 189.626 45.2ZM204.517 34.3V31.85H194.138V34.3H197.798V44.95H200.907V34.3H204.517ZM215.346 36.05C215.346 32.9 213.742 31.7 210.433 31.7C208.377 31.7 206.773 32.35 205.82 32.9V35.5C206.673 34.9 208.477 34.2 210.082 34.2C211.586 34.2 212.238 34.7 212.238 36.1V36.85H211.736C206.973 36.85 204.868 38.4 204.868 41.05C204.868 43.7 206.472 45.2 208.879 45.2C210.684 45.2 211.486 44.6 212.087 44H212.238C212.288 44.35 212.388 44.8 212.488 45.05H215.497C215.396 44 215.346 42.9 215.346 41.85V36.05ZM212.288 41.85C211.887 42.4 211.185 42.9 210.082 42.9C208.778 42.9 208.127 42.1 208.127 40.95C208.127 39.4 209.179 38.85 211.837 38.85H212.288V41.85ZM223.017 44.95C226.076 44.95 227.931 43.65 227.931 41.15C227.931 39.45 226.878 38.45 225.123 38.15C226.527 37.75 227.429 36.75 227.429 35.2C227.429 32.95 225.925 31.85 223.067 31.85H217.853V44.95H223.017ZM222.616 34.2C223.719 34.2 224.371 34.65 224.371 35.65C224.371 36.55 223.719 37.1 222.516 37.1H220.962V34.2H222.616ZM222.716 39.4C224.02 39.4 224.722 39.85 224.722 40.95C224.722 42.15 223.92 42.6 222.716 42.6H221.012V39.4H222.716ZM237.707 44.95H241.217L236.253 37.9L240.615 31.85H237.507L233.145 37.9V31.85H230.036V44.95H233.145V38.5L237.707 44.95ZM251.796 36.05C251.796 32.9 250.192 31.7 246.882 31.7C244.827 31.7 243.222 32.35 242.27 32.9V35.5C243.122 34.9 244.927 34.2 246.532 34.2C248.036 34.2 248.687 34.7 248.687 36.1V36.85H248.186C243.423 36.85 241.317 38.4 241.317 41.05C241.317 43.7 242.922 45.2 245.328 45.2C247.133 45.2 247.935 44.6 248.537 44H248.687C248.738 44.35 248.838 44.8 248.938 45.05H251.946C251.846 44 251.796 42.9 251.796 41.85V36.05ZM248.687 41.85C248.286 42.4 247.584 42.9 246.481 42.9C245.178 42.9 244.526 42.1 244.526 40.95C244.526 39.4 245.579 38.85 248.236 38.85H248.687V41.85Z" fill="black"/>
<path d="M25.566 100V87.4H35.736V89.722H28.464V92.314H31.956C33.48 92.314 34.638 92.632 35.43 93.268C36.234 93.904 36.636 94.828 36.636 96.04C36.636 97.288 36.192 98.26 35.304 98.956C34.416 99.652 33.162 100 31.542 100H25.566ZM28.464 97.84H31.38C32.124 97.84 32.694 97.696 33.09 97.408C33.486 97.108 33.684 96.676 33.684 96.112C33.684 95.008 32.916 94.456 31.38 94.456H28.464V97.84ZM43.3731 100.144C42.2691 100.144 41.2971 99.928 40.4571 99.496C39.6291 99.064 38.9871 98.476 38.5311 97.732C38.0751 96.976 37.8471 96.118 37.8471 95.158C37.8471 94.186 38.0691 93.328 38.5131 92.584C38.9691 91.828 39.5871 91.24 40.3671 90.82C41.1471 90.388 42.0291 90.172 43.0131 90.172C43.9611 90.172 44.8131 90.376 45.5691 90.784C46.3371 91.18 46.9431 91.756 47.3871 92.512C47.8311 93.256 48.0531 94.15 48.0531 95.194C48.0531 95.302 48.0471 95.428 48.0351 95.572C48.0231 95.704 48.0111 95.83 47.9991 95.95H40.1331V94.312H46.5231L45.4431 94.798C45.4431 94.294 45.3411 93.856 45.1371 93.484C44.9331 93.112 44.6511 92.824 44.2911 92.62C43.9311 92.404 43.5111 92.296 43.0311 92.296C42.5511 92.296 42.1251 92.404 41.7531 92.62C41.3931 92.824 41.1111 93.118 40.9071 93.502C40.7031 93.874 40.6011 94.318 40.6011 94.834V95.266C40.6011 95.794 40.7151 96.262 40.9431 96.67C41.1831 97.066 41.5131 97.372 41.9331 97.588C42.3651 97.792 42.8691 97.894 43.4451 97.894C43.9611 97.894 44.4111 97.816 44.7951 97.66C45.1911 97.504 45.5511 97.27 45.8751 96.958L47.3691 98.578C46.9251 99.082 46.3671 99.472 45.6951 99.748C45.0231 100.012 44.2491 100.144 43.3731 100.144ZM54.8135 100.144C53.7695 100.144 52.8395 99.934 52.0235 99.514C51.2075 99.082 50.5655 98.488 50.0975 97.732C49.6415 96.976 49.4135 96.118 49.4135 95.158C49.4135 94.186 49.6415 93.328 50.0975 92.584C50.5655 91.828 51.2075 91.24 52.0235 90.82C52.8395 90.388 53.7695 90.172 54.8135 90.172C55.8335 90.172 56.7215 90.388 57.4775 90.82C58.2335 91.24 58.7915 91.846 59.1515 92.638L56.9735 93.808C56.7215 93.352 56.4035 93.016 56.0195 92.8C55.6475 92.584 55.2395 92.476 54.7955 92.476C54.3155 92.476 53.8835 92.584 53.4995 92.8C53.1155 93.016 52.8095 93.322 52.5815 93.718C52.3655 94.114 52.2575 94.594 52.2575 95.158C52.2575 95.722 52.3655 96.202 52.5815 96.598C52.8095 96.994 53.1155 97.3 53.4995 97.516C53.8835 97.732 54.3155 97.84 54.7955 97.84C55.2395 97.84 55.6475 97.738 56.0195 97.534C56.4035 97.318 56.7215 96.976 56.9735 96.508L59.1515 97.696C58.7915 98.476 58.2335 99.082 57.4775 99.514C56.7215 99.934 55.8335 100.144 54.8135 100.144ZM60.8578 100V90.316H70.4878V100H67.6798V91.99L68.3098 92.62H63.0178L63.6478 91.99V100H60.8578ZM71.9561 99.982L72.1001 97.678C72.1721 97.69 72.2441 97.702 72.3161 97.714C72.3881 97.714 72.4541 97.714 72.5141 97.714C72.8501 97.714 73.1141 97.618 73.3061 97.426C73.4981 97.234 73.6421 96.976 73.7381 96.652C73.8341 96.316 73.9001 95.938 73.9361 95.518C73.9841 95.098 74.0201 94.66 74.0441 94.204L74.1881 90.316H82.4681V100H79.6601V91.936L80.2901 92.62H76.0421L76.6361 91.9L76.5101 94.33C76.4741 95.194 76.4021 95.986 76.2941 96.706C76.1981 97.426 76.0361 98.05 75.8081 98.578C75.5801 99.094 75.2741 99.496 74.8901 99.784C74.5061 100.06 74.0141 100.198 73.4141 100.198C73.1981 100.198 72.9701 100.18 72.7301 100.144C72.4901 100.108 72.2321 100.054 71.9561 99.982ZM90.9644 100V98.11L90.7844 97.696V94.312C90.7844 93.712 90.5984 93.244 90.2264 92.908C89.8664 92.572 89.3084 92.404 88.5524 92.404C88.0364 92.404 87.5264 92.488 87.0224 92.656C86.5304 92.812 86.1104 93.028 85.7624 93.304L84.7544 91.342C85.2824 90.97 85.9184 90.682 86.6624 90.478C87.4064 90.274 88.1624 90.172 88.9304 90.172C90.4064 90.172 91.5524 90.52 92.3684 91.216C93.1844 91.912 93.5924 92.998 93.5924 94.474V100H90.9644ZM88.0124 100.144C87.2564 100.144 86.6084 100.018 86.0684 99.766C85.5284 99.502 85.1144 99.148 84.8264 98.704C84.5384 98.26 84.3944 97.762 84.3944 97.21C84.3944 96.634 84.5324 96.13 84.8084 95.698C85.0964 95.266 85.5464 94.93 86.1584 94.69C86.7704 94.438 87.5684 94.312 88.5524 94.312H91.1264V95.95H88.8584C88.1984 95.95 87.7424 96.058 87.4904 96.274C87.2504 96.49 87.1304 96.76 87.1304 97.084C87.1304 97.444 87.2684 97.732 87.5444 97.948C87.8324 98.152 88.2224 98.254 88.7144 98.254C89.1824 98.254 89.6024 98.146 89.9744 97.93C90.3464 97.702 90.6164 97.372 90.7844 96.94L91.2164 98.236C91.0124 98.86 90.6404 99.334 90.1004 99.658C89.5604 99.982 88.8644 100.144 88.0124 100.144ZM98.1016 100V91.972L98.7316 92.62H94.8256V90.316H104.168V92.62H100.262L100.892 91.972V100H98.1016ZM105.664 100V90.316H108.454V94.096H112.666V90.316H115.474V100H112.666V96.382H108.454V100H105.664ZM123.959 100V98.11L123.779 97.696V94.312C123.779 93.712 123.593 93.244 123.221 92.908C122.861 92.572 122.303 92.404 121.547 92.404C121.031 92.404 120.521 92.488 120.017 92.656C119.525 92.812 119.105 93.028 118.757 93.304L117.749 91.342C118.277 90.97 118.913 90.682 119.657 90.478C120.401 90.274 121.157 90.172 121.925 90.172C123.401 90.172 124.547 90.52 125.363 91.216C126.179 91.912 126.587 92.998 126.587 94.474V100H123.959ZM121.007 100.144C120.251 100.144 119.603 100.018 119.062 99.766C118.523 99.502 118.109 99.148 117.821 98.704C117.533 98.26 117.389 97.762 117.389 97.21C117.389 96.634 117.527 96.13 117.803 95.698C118.091 95.266 118.541 94.93 119.153 94.69C119.765 94.438 120.563 94.312 121.547 94.312H124.121V95.95H121.853C121.193 95.95 120.737 96.058 120.485 96.274C120.245 96.49 120.125 96.76 120.125 97.084C120.125 97.444 120.263 97.732 120.539 97.948C120.827 98.152 121.217 98.254 121.709 98.254C122.177 98.254 122.597 98.146 122.969 97.93C123.341 97.702 123.611 97.372 123.779 96.94L124.211 98.236C124.007 98.86 123.635 99.334 123.095 99.658C122.555 99.982 121.859 100.144 121.007 100.144ZM135.128 100V96.778L135.524 97.228H132.842C131.45 97.228 130.358 96.94 129.566 96.364C128.774 95.788 128.378 94.96 128.378 93.88C128.378 92.728 128.792 91.846 129.62 91.234C130.46 90.622 131.588 90.316 133.004 90.316H137.63V100H135.128ZM128.234 100L130.808 96.31H133.67L131.222 100H128.234ZM135.128 95.914V91.882L135.524 92.602H133.058C132.482 92.602 132.032 92.71 131.708 92.926C131.396 93.142 131.24 93.49 131.24 93.97C131.24 94.894 131.834 95.356 133.022 95.356H135.524L135.128 95.914ZM152.086 98.74V92.62H148.918L148.864 93.862C148.84 94.378 148.81 94.87 148.774 95.338C148.738 95.806 148.666 96.232 148.558 96.616C148.462 96.988 148.318 97.306 148.126 97.57C147.934 97.822 147.676 97.996 147.352 98.092L144.58 97.696C144.928 97.696 145.21 97.594 145.426 97.39C145.642 97.174 145.81 96.88 145.93 96.508C146.05 96.124 146.14 95.692 146.2 95.212C146.26 94.72 146.302 94.204 146.326 93.664L146.452 90.316H154.894V98.74H152.086ZM144.256 102.088V97.696H156.28V102.088H153.67V100H146.866V102.088H144.256ZM162.583 100.144C161.551 100.144 160.633 99.928 159.829 99.496C159.037 99.064 158.407 98.476 157.939 97.732C157.483 96.976 157.255 96.118 157.255 95.158C157.255 94.186 157.483 93.328 157.939 92.584C158.407 91.828 159.037 91.24 159.829 90.82C160.633 90.388 161.551 90.172 162.583 90.172C163.603 90.172 164.515 90.388 165.319 90.82C166.123 91.24 166.753 91.822 167.209 92.566C167.665 93.31 167.893 94.174 167.893 95.158C167.893 96.118 167.665 96.976 167.209 97.732C166.753 98.476 166.123 99.064 165.319 99.496C164.515 99.928 163.603 100.144 162.583 100.144ZM162.583 97.84C163.051 97.84 163.471 97.732 163.843 97.516C164.215 97.3 164.509 96.994 164.725 96.598C164.941 96.19 165.049 95.71 165.049 95.158C165.049 94.594 164.941 94.114 164.725 93.718C164.509 93.322 164.215 93.016 163.843 92.8C163.471 92.584 163.051 92.476 162.583 92.476C162.115 92.476 161.695 92.584 161.323 92.8C160.951 93.016 160.651 93.322 160.423 93.718C160.207 94.114 160.099 94.594 160.099 95.158C160.099 95.71 160.207 96.19 160.423 96.598C160.651 96.994 160.951 97.3 161.323 97.516C161.695 97.732 162.115 97.84 162.583 97.84ZM174.433 100.144C173.389 100.144 172.459 99.934 171.643 99.514C170.827 99.082 170.185 98.488 169.717 97.732C169.261 96.976 169.033 96.118 169.033 95.158C169.033 94.186 169.261 93.328 169.717 92.584C170.185 91.828 170.827 91.24 171.643 90.82C172.459 90.388 173.389 90.172 174.433 90.172C175.453 90.172 176.341 90.388 177.097 90.82C177.853 91.24 178.411 91.846 178.771 92.638L176.593 93.808C176.341 93.352 176.023 93.016 175.639 92.8C175.267 92.584 174.859 92.476 174.415 92.476C173.935 92.476 173.503 92.584 173.119 92.8C172.735 93.016 172.429 93.322 172.201 93.718C171.985 94.114 171.877 94.594 171.877 95.158C171.877 95.722 171.985 96.202 172.201 96.598C172.429 96.994 172.735 97.3 173.119 97.516C173.503 97.732 173.935 97.84 174.415 97.84C174.859 97.84 175.267 97.738 175.639 97.534C176.023 97.318 176.341 96.976 176.593 96.508L178.771 97.696C178.411 98.476 177.853 99.082 177.097 99.514C176.341 99.934 175.453 100.144 174.433 100.144ZM182.529 100V91.972L183.159 92.62H179.253V90.316H188.595V92.62H184.689L185.319 91.972V100H182.529ZM195.888 100V98.11L195.708 97.696V94.312C195.708 93.712 195.522 93.244 195.15 92.908C194.79 92.572 194.232 92.404 193.476 92.404C192.96 92.404 192.45 92.488 191.946 92.656C191.454 92.812 191.034 93.028 190.686 93.304L189.678 91.342C190.206 90.97 190.842 90.682 191.586 90.478C192.33 90.274 193.086 90.172 193.854 90.172C195.33 90.172 196.476 90.52 197.292 91.216C198.108 91.912 198.516 92.998 198.516 94.474V100H195.888ZM192.936 100.144C192.18 100.144 191.532 100.018 190.992 99.766C190.452 99.502 190.038 99.148 189.75 98.704C189.462 98.26 189.318 97.762 189.318 97.21C189.318 96.634 189.456 96.13 189.732 95.698C190.02 95.266 190.47 94.93 191.082 94.69C191.694 94.438 192.492 94.312 193.476 94.312H196.05V95.95H193.782C193.122 95.95 192.666 96.058 192.414 96.274C192.174 96.49 192.054 96.76 192.054 97.084C192.054 97.444 192.192 97.732 192.468 97.948C192.756 98.152 193.146 98.254 193.638 98.254C194.106 98.254 194.526 98.146 194.898 97.93C195.27 97.702 195.54 97.372 195.708 96.94L196.14 98.236C195.936 98.86 195.564 99.334 195.024 99.658C194.484 99.982 193.788 100.144 192.936 100.144ZM200.955 100V90.316H205.905C207.117 90.316 208.065 90.538 208.749 90.982C209.433 91.414 209.775 92.026 209.775 92.818C209.775 93.61 209.451 94.234 208.803 94.69C208.167 95.134 207.321 95.356 206.265 95.356L206.553 94.708C207.729 94.708 208.605 94.924 209.181 95.356C209.769 95.788 210.063 96.418 210.063 97.246C210.063 98.098 209.739 98.77 209.091 99.262C208.443 99.754 207.453 100 206.121 100H200.955ZM203.529 98.092H205.887C206.403 98.092 206.787 98.008 207.039 97.84C207.303 97.66 207.435 97.39 207.435 97.03C207.435 96.658 207.315 96.388 207.075 96.22C206.835 96.04 206.457 95.95 205.941 95.95H203.529V98.092ZM203.529 94.294H205.653C206.145 94.294 206.511 94.204 206.751 94.024C207.003 93.844 207.129 93.586 207.129 93.25C207.129 92.902 207.003 92.644 206.751 92.476C206.511 92.308 206.145 92.224 205.653 92.224H203.529V94.294ZM219.011 100L215.771 95.41L218.057 94.06L222.323 100H219.011ZM212.153 100V90.316H214.961V100H212.153ZM214.133 96.328V94.078H217.517V96.328H214.133ZM218.327 95.482L215.699 95.194L219.101 90.316H222.089L218.327 95.482ZM229.322 100V98.11L229.142 97.696V94.312C229.142 93.712 228.956 93.244 228.584 92.908C228.224 92.572 227.666 92.404 226.91 92.404C226.394 92.404 225.884 92.488 225.38 92.656C224.888 92.812 224.468 93.028 224.12 93.304L223.112 91.342C223.64 90.97 224.276 90.682 225.02 90.478C225.764 90.274 226.52 90.172 227.288 90.172C228.764 90.172 229.91 90.52 230.726 91.216C231.542 91.912 231.95 92.998 231.95 94.474V100H229.322ZM226.37 100.144C225.614 100.144 224.966 100.018 224.426 99.766C223.886 99.502 223.472 99.148 223.184 98.704C222.896 98.26 222.752 97.762 222.752 97.21C222.752 96.634 222.89 96.13 223.166 95.698C223.454 95.266 223.904 94.93 224.516 94.69C225.128 94.438 225.926 94.312 226.91 94.312H229.484V95.95H227.216C226.556 95.95 226.1 96.058 225.848 96.274C225.608 96.49 225.488 96.76 225.488 97.084C225.488 97.444 225.626 97.732 225.902 97.948C226.19 98.152 226.58 98.254 227.072 98.254C227.54 98.254 227.96 98.146 228.332 97.93C228.704 97.702 228.974 97.372 229.142 96.94L229.574 98.236C229.37 98.86 228.998 99.334 228.458 99.658C227.918 99.982 227.222 100.144 226.37 100.144Z" fill="#141414"/>
<path d="M32.162 129.51V121.096H27.472L27.388 123.476C27.36 124.213 27.3133 124.923 27.248 125.604C27.192 126.276 27.0987 126.883 26.968 127.424C26.8467 127.956 26.6787 128.39 26.464 128.726C26.2587 129.062 25.988 129.258 25.652 129.314L24.518 129.104C24.8913 129.123 25.1993 128.987 25.442 128.698C25.694 128.409 25.8853 128.003 26.016 127.48C26.156 126.957 26.2587 126.346 26.324 125.646C26.3893 124.946 26.436 124.19 26.464 123.378L26.576 120.2H33.184V129.51H32.162ZM24.154 132.198L24.168 129.104H34.654V132.198H33.688V130H25.134L25.12 132.198H24.154ZM39.3482 130.07C38.6388 130.07 37.9995 129.911 37.4302 129.594C36.8702 129.267 36.4268 128.824 36.1002 128.264C35.7735 127.695 35.6102 127.046 35.6102 126.318C35.6102 125.581 35.7735 124.932 36.1002 124.372C36.4268 123.812 36.8702 123.373 37.4302 123.056C37.9902 122.739 38.6295 122.58 39.3482 122.58C40.0762 122.58 40.7202 122.739 41.2802 123.056C41.8495 123.373 42.2928 123.812 42.6102 124.372C42.9368 124.932 43.1002 125.581 43.1002 126.318C43.1002 127.046 42.9368 127.695 42.6102 128.264C42.2928 128.824 41.8495 129.267 41.2802 129.594C40.7108 129.911 40.0668 130.07 39.3482 130.07ZM39.3482 129.188C39.8802 129.188 40.3515 129.071 40.7622 128.838C41.1728 128.595 41.4948 128.259 41.7282 127.83C41.9708 127.391 42.0922 126.887 42.0922 126.318C42.0922 125.739 41.9708 125.235 41.7282 124.806C41.4948 124.377 41.1728 124.045 40.7622 123.812C40.3515 123.569 39.8848 123.448 39.3622 123.448C38.8395 123.448 38.3728 123.569 37.9622 123.812C37.5515 124.045 37.2248 124.377 36.9822 124.806C36.7395 125.235 36.6182 125.739 36.6182 126.318C36.6182 126.887 36.7395 127.391 36.9822 127.83C37.2248 128.259 37.5515 128.595 37.9622 128.838C38.3728 129.071 38.8348 129.188 39.3482 129.188ZM48.3045 130.07C47.5765 130.07 46.9232 129.911 46.3445 129.594C45.7752 129.267 45.3272 128.824 45.0005 128.264C44.6739 127.695 44.5105 127.046 44.5105 126.318C44.5105 125.581 44.6739 124.932 45.0005 124.372C45.3272 123.812 45.7752 123.373 46.3445 123.056C46.9232 122.739 47.5765 122.58 48.3045 122.58C48.9299 122.58 49.4945 122.701 49.9985 122.944C50.5025 123.187 50.8992 123.551 51.1885 124.036L50.4465 124.54C50.1945 124.167 49.8819 123.891 49.5085 123.714C49.1352 123.537 48.7292 123.448 48.2905 123.448C47.7679 123.448 47.2965 123.569 46.8765 123.812C46.4565 124.045 46.1252 124.377 45.8825 124.806C45.6399 125.235 45.5185 125.739 45.5185 126.318C45.5185 126.897 45.6399 127.401 45.8825 127.83C46.1252 128.259 46.4565 128.595 46.8765 128.838C47.2965 129.071 47.7679 129.188 48.2905 129.188C48.7292 129.188 49.1352 129.099 49.5085 128.922C49.8819 128.745 50.1945 128.474 50.4465 128.11L51.1885 128.614C50.8992 129.09 50.5025 129.454 49.9985 129.706C49.4945 129.949 48.9299 130.07 48.3045 130.07ZM54.3765 130V123.252L54.6285 123.518H51.5905V122.65H58.1565V123.518H55.1185L55.3705 123.252V130H54.3765ZM64.1577 130V128.376L64.1157 128.11V125.394C64.1157 124.769 63.9384 124.288 63.5837 123.952C63.2384 123.616 62.7204 123.448 62.0297 123.448C61.5537 123.448 61.101 123.527 60.6717 123.686C60.2424 123.845 59.8784 124.055 59.5797 124.316L59.1317 123.574C59.505 123.257 59.953 123.014 60.4757 122.846C60.9984 122.669 61.549 122.58 62.1277 122.58C63.0797 122.58 63.8124 122.818 64.3257 123.294C64.8484 123.761 65.1097 124.475 65.1097 125.436V130H64.1577ZM61.6237 130.07C61.073 130.07 60.5924 129.981 60.1817 129.804C59.7804 129.617 59.4724 129.365 59.2577 129.048C59.043 128.721 58.9357 128.348 58.9357 127.928C58.9357 127.545 59.0244 127.2 59.2017 126.892C59.3884 126.575 59.687 126.323 60.0977 126.136C60.5177 125.94 61.0777 125.842 61.7777 125.842H64.3117V126.584H61.8057C61.0964 126.584 60.6017 126.71 60.3217 126.962C60.051 127.214 59.9157 127.527 59.9157 127.9C59.9157 128.32 60.079 128.656 60.4057 128.908C60.7324 129.16 61.1897 129.286 61.7777 129.286C62.3377 129.286 62.8184 129.16 63.2197 128.908C63.6304 128.647 63.929 128.273 64.1157 127.788L64.3397 128.474C64.153 128.959 63.8264 129.347 63.3597 129.636C62.9024 129.925 62.3237 130.07 61.6237 130.07ZM67.7558 130V122.65H71.0038C71.8345 122.65 72.4878 122.809 72.9638 123.126C73.4491 123.443 73.6918 123.91 73.6918 124.526C73.6918 125.123 73.4631 125.585 73.0058 125.912C72.5485 126.229 71.9465 126.388 71.1998 126.388L71.3958 126.094C72.2731 126.094 72.9171 126.257 73.3278 126.584C73.7385 126.911 73.9438 127.382 73.9438 127.998C73.9438 128.633 73.7105 129.127 73.2438 129.482C72.7865 129.827 72.0725 130 71.1018 130H67.7558ZM68.7218 129.216H71.0598C71.6851 129.216 72.1565 129.118 72.4738 128.922C72.8005 128.717 72.9638 128.39 72.9638 127.942C72.9638 127.494 72.8191 127.167 72.5298 126.962C72.2405 126.757 71.7831 126.654 71.1578 126.654H68.7218V129.216ZM68.7218 125.912H70.9338C71.5031 125.912 71.9371 125.805 72.2358 125.59C72.5438 125.375 72.6978 125.063 72.6978 124.652C72.6978 124.241 72.5438 123.933 72.2358 123.728C71.9371 123.523 71.5031 123.42 70.9338 123.42H68.7218V125.912ZM76.2734 130V122.65H77.2674V128.488L82.1814 122.65H83.0634V130H82.0694V124.148L77.1694 130H76.2734ZM85.912 130V122.65H86.92L90.252 128.292H89.832L93.22 122.65H94.144V130H93.234V123.784L93.416 123.868L90.252 129.104H89.804L86.612 123.812L86.822 123.77V130H85.912ZM105.285 126.892C104.855 127.079 104.421 127.228 103.983 127.34C103.553 127.443 103.124 127.494 102.695 127.494C101.827 127.494 101.141 127.298 100.637 126.906C100.133 126.505 99.8807 125.889 99.8807 125.058V122.65H100.861V125.002C100.861 125.562 101.043 125.982 101.407 126.262C101.771 126.542 102.261 126.682 102.877 126.682C103.25 126.682 103.642 126.635 104.053 126.542C104.463 126.439 104.879 126.295 105.299 126.108L105.285 126.892ZM105.201 130V122.65H106.195V130H105.201ZM112.168 130.07C111.402 130.07 110.73 129.911 110.152 129.594C109.573 129.267 109.12 128.824 108.794 128.264C108.467 127.695 108.304 127.046 108.304 126.318C108.304 125.59 108.458 124.946 108.766 124.386C109.083 123.826 109.512 123.387 110.054 123.07C110.604 122.743 111.22 122.58 111.902 122.58C112.592 122.58 113.204 122.739 113.736 123.056C114.277 123.364 114.702 123.803 115.01 124.372C115.318 124.932 115.472 125.581 115.472 126.318C115.472 126.365 115.467 126.416 115.458 126.472C115.458 126.519 115.458 126.57 115.458 126.626H109.06V125.884H114.926L114.534 126.178C114.534 125.646 114.417 125.175 114.184 124.764C113.96 124.344 113.652 124.017 113.26 123.784C112.868 123.551 112.415 123.434 111.902 123.434C111.398 123.434 110.945 123.551 110.544 123.784C110.142 124.017 109.83 124.344 109.606 124.764C109.382 125.184 109.27 125.665 109.27 126.206V126.36C109.27 126.92 109.391 127.415 109.634 127.844C109.886 128.264 110.231 128.595 110.67 128.838C111.118 129.071 111.626 129.188 112.196 129.188C112.644 129.188 113.059 129.109 113.442 128.95C113.834 128.791 114.17 128.549 114.45 128.222L115.01 128.866C114.683 129.258 114.272 129.557 113.778 129.762C113.292 129.967 112.756 130.07 112.168 130.07ZM116.263 130L119.371 125.968L119.357 126.458L116.403 122.65H117.523L119.945 125.8L119.525 125.786L121.947 122.65H123.039L120.057 126.5L120.071 125.968L123.207 130H122.073L119.511 126.64L119.903 126.696L117.383 130H116.263ZM123.492 129.986L123.562 129.132C123.627 129.141 123.688 129.155 123.744 129.174C123.809 129.183 123.865 129.188 123.912 129.188C124.211 129.188 124.449 129.076 124.626 128.852C124.813 128.628 124.953 128.329 125.046 127.956C125.139 127.583 125.205 127.163 125.242 126.696C125.279 126.22 125.312 125.744 125.34 125.268L125.466 122.65H130.856V130H129.862V123.224L130.114 123.518H126.11L126.348 123.21L126.236 125.338C126.208 125.973 126.157 126.579 126.082 127.158C126.017 127.737 125.909 128.245 125.76 128.684C125.62 129.123 125.424 129.468 125.172 129.72C124.92 129.963 124.598 130.084 124.206 130.084C124.094 130.084 123.977 130.075 123.856 130.056C123.744 130.037 123.623 130.014 123.492 129.986ZM140.85 130V122.65H141.844V130H140.85ZM136.776 125.24C137.7 125.249 138.404 125.455 138.89 125.856C139.375 126.257 139.618 126.836 139.618 127.592C139.618 128.376 139.356 128.978 138.834 129.398C138.311 129.818 137.564 130.023 136.594 130.014L133.682 130V122.65H134.676V125.212L136.776 125.24ZM136.524 129.258C137.214 129.267 137.732 129.132 138.078 128.852C138.432 128.563 138.61 128.143 138.61 127.592C138.61 127.041 138.437 126.64 138.092 126.388C137.746 126.127 137.224 125.991 136.524 125.982L134.676 125.954V129.23L136.524 129.258ZM148.338 130V122.65H151.586C152.416 122.65 153.07 122.809 153.546 123.126C154.031 123.443 154.274 123.91 154.274 124.526C154.274 125.123 154.045 125.585 153.588 125.912C153.13 126.229 152.528 126.388 151.782 126.388L151.978 126.094C152.855 126.094 153.499 126.257 153.91 126.584C154.32 126.911 154.526 127.382 154.526 127.998C154.526 128.633 154.292 129.127 153.826 129.482C153.368 129.827 152.654 130 151.684 130H148.338ZM149.304 129.216H151.642C152.267 129.216 152.738 129.118 153.056 128.922C153.382 128.717 153.546 128.39 153.546 127.942C153.546 127.494 153.401 127.167 153.112 126.962C152.822 126.757 152.365 126.654 151.74 126.654H149.304V129.216ZM149.304 125.912H151.516C152.085 125.912 152.519 125.805 152.818 125.59C153.126 125.375 153.28 125.063 153.28 124.652C153.28 124.241 153.126 123.933 152.818 123.728C152.519 123.523 152.085 123.42 151.516 123.42H149.304V125.912ZM159.175 129.986L159.245 129.132C159.311 129.141 159.371 129.155 159.427 129.174C159.493 129.183 159.549 129.188 159.595 129.188C159.894 129.188 160.132 129.076 160.309 128.852C160.496 128.628 160.636 128.329 160.729 127.956C160.823 127.583 160.888 127.163 160.925 126.696C160.963 126.22 160.995 125.744 161.023 125.268L161.149 122.65H166.539V130H165.545V123.224L165.797 123.518H161.793L162.031 123.21L161.919 125.338C161.891 125.973 161.84 126.579 161.765 127.158C161.7 127.737 161.593 128.245 161.443 128.684C161.303 129.123 161.107 129.468 160.855 129.72C160.603 129.963 160.281 130.084 159.889 130.084C159.777 130.084 159.661 130.075 159.539 130.056C159.427 130.037 159.306 130.014 159.175 129.986ZM169.365 130V122.65H170.359V125.814H172.599V126.724H170.359V130H169.365ZM175.693 130.07C174.993 130.07 174.363 129.911 173.803 129.594C173.253 129.267 172.819 128.824 172.501 128.264C172.184 127.695 172.025 127.046 172.025 126.318C172.025 125.581 172.184 124.932 172.501 124.372C172.819 123.812 173.253 123.373 173.803 123.056C174.363 122.739 174.993 122.58 175.693 122.58C176.393 122.58 177.019 122.739 177.569 123.056C178.12 123.373 178.554 123.812 178.871 124.372C179.189 124.932 179.347 125.581 179.347 126.318C179.347 127.046 179.189 127.695 178.871 128.264C178.554 128.824 178.12 129.267 177.569 129.594C177.019 129.911 176.393 130.07 175.693 130.07ZM175.693 129.202C176.207 129.202 176.664 129.081 177.065 128.838C177.467 128.595 177.784 128.259 178.017 127.83C178.251 127.391 178.367 126.887 178.367 126.318C178.367 125.739 178.251 125.235 178.017 124.806C177.784 124.377 177.467 124.045 177.065 123.812C176.664 123.569 176.207 123.448 175.693 123.448C175.189 123.448 174.732 123.569 174.321 123.812C173.92 124.045 173.603 124.377 173.369 124.806C173.136 125.235 173.019 125.739 173.019 126.318C173.019 126.887 173.136 127.391 173.369 127.83C173.603 128.259 173.92 128.595 174.321 128.838C174.732 129.081 175.189 129.202 175.693 129.202ZM184.782 130.084C184.185 130.084 183.653 129.986 183.186 129.79C182.729 129.594 182.337 129.295 182.01 128.894C181.684 128.493 181.436 127.998 181.268 127.41C181.1 126.813 181.016 126.122 181.016 125.338C181.016 124.638 181.082 124.027 181.212 123.504C181.343 122.972 181.525 122.515 181.758 122.132C181.992 121.749 182.262 121.427 182.57 121.166C182.888 120.895 183.228 120.681 183.592 120.522C183.966 120.354 184.348 120.228 184.74 120.144L188.044 119.374L188.212 120.298L185.104 120.998C184.908 121.045 184.67 121.11 184.39 121.194C184.12 121.278 183.84 121.404 183.55 121.572C183.27 121.74 183.009 121.973 182.766 122.272C182.524 122.571 182.328 122.958 182.178 123.434C182.038 123.901 181.968 124.484 181.968 125.184C181.968 125.333 181.973 125.455 181.982 125.548C181.992 125.632 182.001 125.725 182.01 125.828C182.029 125.921 182.043 126.061 182.052 126.248L181.618 125.884C181.721 125.315 181.931 124.82 182.248 124.4C182.566 123.971 182.962 123.639 183.438 123.406C183.924 123.163 184.46 123.042 185.048 123.042C185.73 123.042 186.336 123.191 186.868 123.49C187.4 123.779 187.816 124.185 188.114 124.708C188.422 125.231 188.576 125.837 188.576 126.528C188.576 127.209 188.418 127.821 188.1 128.362C187.792 128.903 187.354 129.328 186.784 129.636C186.215 129.935 185.548 130.084 184.782 130.084ZM184.894 129.258C185.417 129.258 185.879 129.141 186.28 128.908C186.682 128.665 186.994 128.339 187.218 127.928C187.452 127.517 187.568 127.055 187.568 126.542C187.568 126.038 187.452 125.59 187.218 125.198C186.994 124.806 186.682 124.498 186.28 124.274C185.879 124.041 185.412 123.924 184.88 123.924C184.358 123.924 183.896 124.036 183.494 124.26C183.093 124.475 182.776 124.778 182.542 125.17C182.318 125.562 182.206 126.015 182.206 126.528C182.206 127.041 182.318 127.503 182.542 127.914C182.776 128.325 183.093 128.651 183.494 128.894C183.905 129.137 184.372 129.258 184.894 129.258ZM190.628 132.786C190.283 132.786 189.951 132.73 189.634 132.618C189.326 132.506 189.06 132.338 188.836 132.114L189.298 131.372C189.485 131.549 189.685 131.685 189.9 131.778C190.124 131.881 190.371 131.932 190.642 131.932C190.969 131.932 191.249 131.839 191.482 131.652C191.725 131.475 191.953 131.157 192.168 130.7L192.644 129.622L192.756 129.468L195.78 122.65H196.76L193.078 130.882C192.873 131.358 192.644 131.736 192.392 132.016C192.149 132.296 191.883 132.492 191.594 132.604C191.305 132.725 190.983 132.786 190.628 132.786ZM192.588 130.21L189.2 122.65H190.236L193.232 129.398L192.588 130.21ZM198.309 130V122.65H199.303V125.814H201.543V126.724H199.303V130H198.309ZM204.637 130.07C203.937 130.07 203.307 129.911 202.747 129.594C202.196 129.267 201.762 128.824 201.445 128.264C201.127 127.695 200.969 127.046 200.969 126.318C200.969 125.581 201.127 124.932 201.445 124.372C201.762 123.812 202.196 123.373 202.747 123.056C203.307 122.739 203.937 122.58 204.637 122.58C205.337 122.58 205.962 122.739 206.513 123.056C207.063 123.373 207.497 123.812 207.815 124.372C208.132 124.932 208.291 125.581 208.291 126.318C208.291 127.046 208.132 127.695 207.815 128.264C207.497 128.824 207.063 129.267 206.513 129.594C205.962 129.911 205.337 130.07 204.637 130.07ZM204.637 129.202C205.15 129.202 205.607 129.081 206.009 128.838C206.41 128.595 206.727 128.259 206.961 127.83C207.194 127.391 207.311 126.887 207.311 126.318C207.311 125.739 207.194 125.235 206.961 124.806C206.727 124.377 206.41 124.045 206.009 123.812C205.607 123.569 205.15 123.448 204.637 123.448C204.133 123.448 203.675 123.569 203.265 123.812C202.863 124.045 202.546 124.377 202.313 124.806C202.079 125.235 201.963 125.739 201.963 126.318C201.963 126.887 202.079 127.391 202.313 127.83C202.546 128.259 202.863 128.595 203.265 128.838C203.675 129.081 204.133 129.202 204.637 129.202ZM215.486 130V123.252L215.738 123.518H212.7V122.65H219.266V123.518H216.228L216.48 123.252V130H215.486ZM223.385 130.07C222.676 130.07 222.037 129.911 221.467 129.594C220.907 129.267 220.464 128.824 220.137 128.264C219.811 127.695 219.647 127.046 219.647 126.318C219.647 125.581 219.811 124.932 220.137 124.372C220.464 123.812 220.907 123.373 221.467 123.056C222.027 122.739 222.667 122.58 223.385 122.58C224.113 122.58 224.757 122.739 225.317 123.056C225.887 123.373 226.33 123.812 226.647 124.372C226.974 124.932 227.137 125.581 227.137 126.318C227.137 127.046 226.974 127.695 226.647 128.264C226.33 128.824 225.887 129.267 225.317 129.594C224.748 129.911 224.104 130.07 223.385 130.07ZM223.385 129.188C223.917 129.188 224.389 129.071 224.799 128.838C225.21 128.595 225.532 128.259 225.765 127.83C226.008 127.391 226.129 126.887 226.129 126.318C226.129 125.739 226.008 125.235 225.765 124.806C225.532 124.377 225.21 124.045 224.799 123.812C224.389 123.569 223.922 123.448 223.399 123.448C222.877 123.448 222.41 123.569 221.999 123.812C221.589 124.045 221.262 124.377 221.019 124.806C220.777 125.235 220.655 125.739 220.655 126.318C220.655 126.887 220.777 127.391 221.019 127.83C221.262 128.259 221.589 128.595 221.999 128.838C222.41 129.071 222.872 129.188 223.385 129.188ZM233.91 126.892C233.48 127.079 233.046 127.228 232.608 127.34C232.178 127.443 231.749 127.494 231.32 127.494C230.452 127.494 229.766 127.298 229.262 126.906C228.758 126.505 228.506 125.889 228.506 125.058V122.65H229.486V125.002C229.486 125.562 229.668 125.982 230.032 126.262C230.396 126.542 230.886 126.682 231.502 126.682C231.875 126.682 232.267 126.635 232.678 126.542C233.088 126.439 233.504 126.295 233.924 126.108L233.91 126.892ZM233.826 130V122.65H234.82V130H233.826ZM243.033 130L240.009 126.36L240.835 125.87L244.209 130H243.033ZM237.643 130V122.65H238.637V130H237.643ZM238.329 126.724V125.87H240.695V126.724H238.329ZM240.919 126.43L239.995 126.29L242.921 122.65H243.999L240.919 126.43ZM245.777 130V122.65H246.771V128.488L251.685 122.65H252.567V130H251.573V124.148L246.673 130H245.777ZM25.652 152V142.2H29.32C30.1507 142.2 30.8647 142.335 31.462 142.606C32.0593 142.867 32.5167 143.25 32.834 143.754C33.1607 144.249 33.324 144.851 33.324 145.56C33.324 146.251 33.1607 146.848 32.834 147.352C32.5167 147.847 32.0593 148.229 31.462 148.5C30.8647 148.771 30.1507 148.906 29.32 148.906H26.226L26.688 148.416V152H25.652ZM26.688 148.5L26.226 147.996H29.292C30.272 147.996 31.014 147.786 31.518 147.366C32.0313 146.937 32.288 146.335 32.288 145.56C32.288 144.776 32.0313 144.169 31.518 143.74C31.014 143.311 30.272 143.096 29.292 143.096H26.226L26.688 142.606V148.5ZM38.186 152.07C37.4767 152.07 36.8374 151.911 36.268 151.594C35.708 151.267 35.2647 150.824 34.938 150.264C34.6114 149.695 34.448 149.046 34.448 148.318C34.448 147.581 34.6114 146.932 34.938 146.372C35.2647 145.812 35.708 145.373 36.268 145.056C36.828 144.739 37.4674 144.58 38.186 144.58C38.914 144.58 39.558 144.739 40.118 145.056C40.6874 145.373 41.1307 145.812 41.448 146.372C41.7747 146.932 41.938 147.581 41.938 148.318C41.938 149.046 41.7747 149.695 41.448 150.264C41.1307 150.824 40.6874 151.267 40.118 151.594C39.5487 151.911 38.9047 152.07 38.186 152.07ZM38.186 151.188C38.718 151.188 39.1894 151.071 39.6 150.838C40.0107 150.595 40.3327 150.259 40.566 149.83C40.8087 149.391 40.93 148.887 40.93 148.318C40.93 147.739 40.8087 147.235 40.566 146.806C40.3327 146.377 40.0107 146.045 39.6 145.812C39.1894 145.569 38.7227 145.448 38.2 145.448C37.6774 145.448 37.2107 145.569 36.8 145.812C36.3894 146.045 36.0627 146.377 35.82 146.806C35.5774 147.235 35.456 147.739 35.456 148.318C35.456 148.887 35.5774 149.391 35.82 149.83C36.0627 150.259 36.3894 150.595 36.8 150.838C37.2107 151.071 37.6727 151.188 38.186 151.188ZM47.1424 152.07C46.4144 152.07 45.7611 151.911 45.1824 151.594C44.6131 151.267 44.1651 150.824 43.8384 150.264C43.5118 149.695 43.3484 149.046 43.3484 148.318C43.3484 147.581 43.5118 146.932 43.8384 146.372C44.1651 145.812 44.6131 145.373 45.1824 145.056C45.7611 144.739 46.4144 144.58 47.1424 144.58C47.7678 144.58 48.3324 144.701 48.8364 144.944C49.3404 145.187 49.7371 145.551 50.0264 146.036L49.2844 146.54C49.0324 146.167 48.7198 145.891 48.3464 145.714C47.9731 145.537 47.5671 145.448 47.1284 145.448C46.6058 145.448 46.1344 145.569 45.7144 145.812C45.2944 146.045 44.9631 146.377 44.7204 146.806C44.4778 147.235 44.3564 147.739 44.3564 148.318C44.3564 148.897 44.4778 149.401 44.7204 149.83C44.9631 150.259 45.2944 150.595 45.7144 150.838C46.1344 151.071 46.6058 151.188 47.1284 151.188C47.5671 151.188 47.9731 151.099 48.3464 150.922C48.7198 150.745 49.0324 150.474 49.2844 150.11L50.0264 150.614C49.7371 151.09 49.3404 151.454 48.8364 151.706C48.3324 151.949 47.7678 152.07 47.1424 152.07ZM54.9081 152.07C54.1801 152.07 53.5267 151.911 52.9481 151.594C52.3787 151.267 51.9307 150.824 51.6041 150.264C51.2774 149.695 51.1141 149.046 51.1141 148.318C51.1141 147.581 51.2774 146.932 51.6041 146.372C51.9307 145.812 52.3787 145.373 52.9481 145.056C53.5267 144.739 54.1801 144.58 54.9081 144.58C55.5334 144.58 56.0981 144.701 56.6021 144.944C57.1061 145.187 57.5027 145.551 57.7921 146.036L57.0501 146.54C56.7981 146.167 56.4854 145.891 56.1121 145.714C55.7387 145.537 55.3327 145.448 54.8941 145.448C54.3714 145.448 53.9001 145.569 53.4801 145.812C53.0601 146.045 52.7287 146.377 52.4861 146.806C52.2434 147.235 52.1221 147.739 52.1221 148.318C52.1221 148.897 52.2434 149.401 52.4861 149.83C52.7287 150.259 53.0601 150.595 53.4801 150.838C53.9001 151.071 54.3714 151.188 54.8941 151.188C55.3327 151.188 55.7387 151.099 56.1121 150.922C56.4854 150.745 56.7981 150.474 57.0501 150.11L57.7921 150.614C57.5027 151.09 57.1061 151.454 56.6021 151.706C56.0981 151.949 55.5334 152.07 54.9081 152.07ZM59.7167 152V144.65H60.7107V150.488L65.6247 144.65H66.5067V152H65.5127V146.148L60.6127 152H59.7167ZM69.3554 152V144.65H70.3494V150.488L75.2634 144.65H76.1454V152H75.1514V146.148L70.2514 152H69.3554Z" fill="#141414"/>
<defs>
<clipPath id="clip0_5285_11576">
<rect width="77" height="22" fill="white" transform="translate(24 26)"/>
</clipPath>
</defs>
</svg>
