<svg width="1296" height="152" viewBox="0 0 1296 152" fill="none" xmlns="http://www.w3.org/2000/svg">
<rect width="1296" height="152" fill="#29A1F8"/>
<path d="M79.1502 71.0002C79.542 69.8863 80.3154 68.947 81.3334 68.3487C82.3514 67.7504 83.5483 67.5317 84.7121 67.7313C85.8759 67.931 86.9315 68.536 87.692 69.4394C88.4524 70.3427 88.8686 71.486 88.8668 72.6668C88.8668 76.0002 83.8668 77.6668 83.8668 77.6668M84.0002 84.3335H84.0168M100.667 76.0002C100.667 85.2049 93.2049 92.6668 84.0002 92.6668C74.7954 92.6668 67.3335 85.2049 67.3335 76.0002C67.3335 66.7954 74.7954 59.3335 84.0002 59.3335C93.2049 59.3335 100.667 66.7954 100.667 76.0002Z" stroke="white" stroke-width="2" stroke-linecap="round" stroke-linejoin="round"/>
<path d="M131.48 90V62H144.52C147.773 62 150.307 62.6267 152.12 63.88C153.933 65.1333 154.84 66.92 154.84 69.24C154.84 71.5333 153.987 73.32 152.28 74.6C150.573 75.8533 148.307 76.48 145.48 76.48L146.24 74.8C149.387 74.8 151.827 75.4267 153.56 76.68C155.293 77.9333 156.16 79.7467 156.16 82.12C156.16 84.5733 155.227 86.5067 153.36 87.92C151.52 89.3067 148.827 90 145.28 90H131.48ZM137.92 85.2H145.04C146.533 85.2 147.667 84.9067 148.44 84.32C149.213 83.7333 149.6 82.8267 149.6 81.6C149.6 80.4267 149.213 79.56 148.44 79C147.667 78.4133 146.533 78.12 145.04 78.12H137.92V85.2ZM137.92 73.6H143.96C145.373 73.6 146.44 73.32 147.16 72.76C147.88 72.1733 148.24 71.32 148.24 70.2C148.24 69.08 147.88 68.24 147.16 67.68C146.44 67.0933 145.373 66.8 143.96 66.8H137.92V73.6ZM170.885 90.32C168.591 90.32 166.551 89.84 164.765 88.88C163.005 87.92 161.605 86.6133 160.565 84.96C159.551 83.28 159.045 81.3733 159.045 79.24C159.045 77.08 159.551 75.1733 160.565 73.52C161.605 71.84 163.005 70.5333 164.765 69.6C166.551 68.64 168.591 68.16 170.885 68.16C173.151 68.16 175.178 68.64 176.965 69.6C178.751 70.5333 180.151 71.8267 181.165 73.48C182.178 75.1333 182.685 77.0533 182.685 79.24C182.685 81.3733 182.178 83.28 181.165 84.96C180.151 86.6133 178.751 87.92 176.965 88.88C175.178 89.84 173.151 90.32 170.885 90.32ZM170.885 85.2C171.925 85.2 172.858 84.96 173.685 84.48C174.511 84 175.165 83.32 175.645 82.44C176.125 81.5333 176.365 80.4667 176.365 79.24C176.365 77.9867 176.125 76.92 175.645 76.04C175.165 75.16 174.511 74.48 173.685 74C172.858 73.52 171.925 73.28 170.885 73.28C169.845 73.28 168.911 73.52 168.085 74C167.258 74.48 166.591 75.16 166.085 76.04C165.605 76.92 165.365 77.9867 165.365 79.24C165.365 80.4667 165.605 81.5333 166.085 82.44C166.591 83.32 167.258 84 168.085 84.48C168.911 84.96 169.845 85.2 170.885 85.2ZM186.977 90V68.48H208.377V90H202.137V72.2L203.537 73.6H191.777L193.177 72.2V90H186.977ZM227.039 90.32C225.226 90.32 223.639 89.92 222.279 89.12C220.919 88.32 219.853 87.1067 219.079 85.48C218.333 83.8267 217.959 81.7467 217.959 79.24C217.959 76.7067 218.319 74.6267 219.039 73C219.759 71.3733 220.799 70.16 222.159 69.36C223.519 68.56 225.146 68.16 227.039 68.16C229.066 68.16 230.879 68.6267 232.479 69.56C234.106 70.4667 235.386 71.7467 236.319 73.4C237.279 75.0533 237.759 77 237.759 79.24C237.759 81.5067 237.279 83.4667 236.319 85.12C235.386 86.7733 234.106 88.0533 232.479 88.96C230.879 89.8667 229.066 90.32 227.039 90.32ZM214.319 97.76V68.48H220.279V72.88L220.159 79.28L220.559 85.64V97.76H214.319ZM225.959 85.2C226.999 85.2 227.919 84.96 228.719 84.48C229.546 84 230.199 83.32 230.679 82.44C231.186 81.5333 231.439 80.4667 231.439 79.24C231.439 77.9867 231.186 76.92 230.679 76.04C230.199 75.16 229.546 74.48 228.719 74C227.919 73.52 226.999 73.28 225.959 73.28C224.919 73.28 223.986 73.52 223.159 74C222.333 74.48 221.679 75.16 221.199 76.04C220.719 76.92 220.479 77.9867 220.479 79.24C220.479 80.4667 220.719 81.5333 221.199 82.44C221.679 83.32 222.333 84 223.159 84.48C223.986 84.96 224.919 85.2 225.959 85.2ZM252.213 90.32C249.919 90.32 247.879 89.84 246.093 88.88C244.333 87.92 242.933 86.6133 241.893 84.96C240.879 83.28 240.373 81.3733 240.373 79.24C240.373 77.08 240.879 75.1733 241.893 73.52C242.933 71.84 244.333 70.5333 246.093 69.6C247.879 68.64 249.919 68.16 252.213 68.16C254.479 68.16 256.506 68.64 258.293 69.6C260.079 70.5333 261.479 71.8267 262.493 73.48C263.506 75.1333 264.013 77.0533 264.013 79.24C264.013 81.3733 263.506 83.28 262.493 84.96C261.479 86.6133 260.079 87.92 258.293 88.88C256.506 89.84 254.479 90.32 252.213 90.32ZM252.213 85.2C253.253 85.2 254.186 84.96 255.013 84.48C255.839 84 256.493 83.32 256.973 82.44C257.453 81.5333 257.693 80.4667 257.693 79.24C257.693 77.9867 257.453 76.92 256.973 76.04C256.493 75.16 255.839 74.48 255.013 74C254.186 73.52 253.253 73.28 252.213 73.28C251.173 73.28 250.239 73.52 249.413 74C248.586 74.48 247.919 75.16 247.413 76.04C246.933 76.92 246.693 77.9867 246.693 79.24C246.693 80.4667 246.933 81.5333 247.413 82.44C247.919 83.32 248.586 84 249.413 84.48C250.239 84.96 251.173 85.2 252.213 85.2ZM278.545 90.32C276.225 90.32 274.158 89.8533 272.345 88.92C270.531 87.96 269.105 86.64 268.065 84.96C267.051 83.28 266.545 81.3733 266.545 79.24C266.545 77.08 267.051 75.1733 268.065 73.52C269.105 71.84 270.531 70.5333 272.345 69.6C274.158 68.64 276.225 68.16 278.545 68.16C280.811 68.16 282.785 68.64 284.465 69.6C286.145 70.5333 287.385 71.88 288.185 73.64L283.345 76.24C282.785 75.2267 282.078 74.48 281.225 74C280.398 73.52 279.491 73.28 278.505 73.28C277.438 73.28 276.478 73.52 275.625 74C274.771 74.48 274.091 75.16 273.585 76.04C273.105 76.92 272.865 77.9867 272.865 79.24C272.865 80.4933 273.105 81.56 273.585 82.44C274.091 83.32 274.771 84 275.625 84.48C276.478 84.96 277.438 85.2 278.505 85.2C279.491 85.2 280.398 84.9733 281.225 84.52C282.078 84.04 282.785 83.28 283.345 82.24L288.185 84.88C287.385 86.6133 286.145 87.96 284.465 88.92C282.785 89.8533 280.811 90.32 278.545 90.32ZM290.275 81.24V76.24H301.595V81.24H290.275ZM317.096 90.32C314.802 90.32 312.762 89.84 310.976 88.88C309.216 87.92 307.816 86.6133 306.776 84.96C305.762 83.28 305.256 81.3733 305.256 79.24C305.256 77.08 305.762 75.1733 306.776 73.52C307.816 71.84 309.216 70.5333 310.976 69.6C312.762 68.64 314.802 68.16 317.096 68.16C319.362 68.16 321.389 68.64 323.176 69.6C324.962 70.5333 326.362 71.8267 327.376 73.48C328.389 75.1333 328.896 77.0533 328.896 79.24C328.896 81.3733 328.389 83.28 327.376 84.96C326.362 86.6133 324.962 87.92 323.176 88.88C321.389 89.84 319.362 90.32 317.096 90.32ZM317.096 85.2C318.136 85.2 319.069 84.96 319.896 84.48C320.722 84 321.376 83.32 321.856 82.44C322.336 81.5333 322.576 80.4667 322.576 79.24C322.576 77.9867 322.336 76.92 321.856 76.04C321.376 75.16 320.722 74.48 319.896 74C319.069 73.52 318.136 73.28 317.096 73.28C316.056 73.28 315.122 73.52 314.296 74C313.469 74.48 312.802 75.16 312.296 76.04C311.816 76.92 311.576 77.9867 311.576 79.24C311.576 80.4667 311.816 81.5333 312.296 82.44C312.802 83.32 313.469 84 314.296 84.48C315.122 84.96 316.056 85.2 317.096 85.2ZM337.006 90V72.16L338.406 73.6H329.726V68.48H350.486V73.6H341.806L343.206 72.16V90H337.006ZM353.813 90V68.48H364.813C367.506 68.48 369.613 68.9733 371.133 69.96C372.653 70.92 373.412 72.28 373.412 74.04C373.412 75.8 372.693 77.1867 371.253 78.2C369.839 79.1867 367.959 79.68 365.613 79.68L366.253 78.24C368.866 78.24 370.813 78.72 372.093 79.68C373.399 80.64 374.053 82.04 374.053 83.88C374.053 85.7733 373.333 87.2667 371.893 88.36C370.453 89.4533 368.253 90 365.293 90H353.813ZM359.533 85.76H364.773C365.919 85.76 366.773 85.5733 367.333 85.2C367.919 84.8 368.213 84.2 368.213 83.4C368.213 82.5733 367.946 81.9733 367.413 81.6C366.879 81.2 366.039 81 364.893 81H359.533V85.76ZM359.533 77.32H364.253C365.346 77.32 366.159 77.12 366.693 76.72C367.253 76.32 367.533 75.7467 367.533 75C367.533 74.2267 367.253 73.6533 366.693 73.28C366.159 72.9067 365.346 72.72 364.253 72.72H359.533V77.32ZM389.215 90.32C386.762 90.32 384.602 89.84 382.735 88.88C380.895 87.92 379.469 86.6133 378.455 84.96C377.442 83.28 376.935 81.3733 376.935 79.24C376.935 77.08 377.429 75.1733 378.415 73.52C379.429 71.84 380.802 70.5333 382.535 69.6C384.269 68.64 386.229 68.16 388.415 68.16C390.522 68.16 392.415 68.6133 394.095 69.52C395.802 70.4 397.149 71.68 398.135 73.36C399.122 75.0133 399.615 77 399.615 79.32C399.615 79.56 399.602 79.84 399.575 80.16C399.549 80.4533 399.522 80.7333 399.495 81H382.015V77.36H396.215L393.815 78.44C393.815 77.32 393.589 76.3467 393.135 75.52C392.682 74.6933 392.055 74.0533 391.255 73.6C390.455 73.12 389.522 72.88 388.455 72.88C387.389 72.88 386.442 73.12 385.615 73.6C384.815 74.0533 384.189 74.7067 383.735 75.56C383.282 76.3867 383.055 77.3733 383.055 78.52V79.48C383.055 80.6533 383.309 81.6933 383.815 82.6C384.349 83.48 385.082 84.16 386.015 84.64C386.975 85.0933 388.095 85.32 389.375 85.32C390.522 85.32 391.522 85.1467 392.375 84.8C393.255 84.4533 394.055 83.9333 394.775 83.24L398.095 86.84C397.109 87.96 395.869 88.8267 394.375 89.44C392.882 90.0267 391.162 90.32 389.215 90.32ZM408.256 90V72.16L409.656 73.6H400.976V68.48H421.736V73.6H413.056L414.456 72.16V90H408.256Z" fill="white"/>
<path d="M451.112 82V71.504L451.432 71.824H447.176V70.8H456.216V71.824H451.976L452.28 71.504V82H451.112ZM457.619 85.184C457.225 85.184 456.846 85.12 456.483 84.992C456.131 84.864 455.827 84.672 455.571 84.416L456.099 83.568C456.313 83.7707 456.542 83.9253 456.787 84.032C457.043 84.1493 457.326 84.208 457.635 84.208C458.009 84.208 458.329 84.1013 458.595 83.888C458.873 83.6853 459.134 83.3227 459.379 82.8L459.923 81.568L460.051 81.392L463.507 73.6H464.627L460.419 83.008C460.185 83.552 459.923 83.984 459.635 84.304C459.358 84.624 459.054 84.848 458.723 84.976C458.393 85.1147 458.025 85.184 457.619 85.184ZM459.859 82.24L455.987 73.6H457.171L460.595 81.312L459.859 82.24ZM467.997 82V74.288L468.285 74.592H464.813V73.6H472.317V74.592H468.845L469.133 74.288V82H467.997ZM478.147 82V73.6H481.859C482.809 73.6 483.555 73.7813 484.099 74.144C484.654 74.5067 484.931 75.04 484.931 75.744C484.931 76.4267 484.67 76.9547 484.147 77.328C483.625 77.6907 482.937 77.872 482.083 77.872L482.307 77.536C483.31 77.536 484.046 77.7227 484.515 78.096C484.985 78.4693 485.219 79.008 485.219 79.712C485.219 80.4373 484.953 81.0027 484.419 81.408C483.897 81.8027 483.081 82 481.971 82H478.147ZM479.251 81.104H481.923C482.638 81.104 483.177 80.992 483.539 80.768C483.913 80.5333 484.099 80.16 484.099 79.648C484.099 79.136 483.934 78.7627 483.603 78.528C483.273 78.2933 482.75 78.176 482.035 78.176H479.251V81.104ZM479.251 77.328H481.779C482.43 77.328 482.926 77.2053 483.267 76.96C483.619 76.7147 483.795 76.3573 483.795 75.888C483.795 75.4187 483.619 75.0667 483.267 74.832C482.926 74.5973 482.43 74.48 481.779 74.48H479.251V77.328ZM496.074 82V73.6H497.21V82H496.074ZM491.418 76.56C492.474 76.5707 493.279 76.8053 493.834 77.264C494.388 77.7227 494.666 78.384 494.666 79.248C494.666 80.144 494.367 80.832 493.77 81.312C493.172 81.792 492.319 82.0267 491.21 82.016L487.882 82V73.6H489.018V76.528L491.418 76.56ZM491.13 81.152C491.919 81.1627 492.511 81.008 492.906 80.688C493.311 80.3573 493.514 79.8773 493.514 79.248C493.514 78.6187 493.316 78.16 492.922 77.872C492.527 77.5733 491.93 77.4187 491.13 77.408L489.018 77.376V81.12L491.13 81.152ZM504.632 82V73.6H505.768V77.312H511.064V73.6H512.2V82H511.064V78.288H505.768V82H504.632ZM520.645 82V80.144L520.597 79.84V76.736C520.597 76.0213 520.394 75.472 519.989 75.088C519.594 74.704 519.002 74.512 518.213 74.512C517.669 74.512 517.151 74.6027 516.661 74.784C516.17 74.9653 515.754 75.2053 515.413 75.504L514.901 74.656C515.327 74.2933 515.839 74.016 516.437 73.824C517.034 73.6213 517.663 73.52 518.325 73.52C519.413 73.52 520.25 73.792 520.837 74.336C521.434 74.8693 521.733 75.6853 521.733 76.784V82H520.645ZM517.749 82.08C517.119 82.08 516.57 81.9787 516.101 81.776C515.642 81.5627 515.29 81.2747 515.045 80.912C514.799 80.5387 514.677 80.112 514.677 79.632C514.677 79.1947 514.778 78.8 514.981 78.448C515.194 78.0853 515.535 77.7973 516.005 77.584C516.485 77.36 517.125 77.248 517.924 77.248H520.821V78.096H517.957C517.146 78.096 516.581 78.24 516.261 78.528C515.951 78.816 515.797 79.1733 515.797 79.6C515.797 80.08 515.983 80.464 516.357 80.752C516.73 81.04 517.253 81.184 517.924 81.184C518.565 81.184 519.114 81.04 519.573 80.752C520.042 80.4533 520.383 80.0267 520.597 79.472L520.853 80.256C520.639 80.8107 520.266 81.2533 519.733 81.584C519.21 81.9147 518.549 82.08 517.749 82.08ZM524.757 82V73.6H525.893V80.272L531.509 73.6H532.517V82H531.381V75.312L525.781 82H524.757ZM528.565 72.384C527.861 72.384 527.29 72.208 526.853 71.856C526.426 71.4933 526.202 70.976 526.181 70.304H526.997C527.007 70.7307 527.157 71.0667 527.445 71.312C527.733 71.5573 528.106 71.68 528.565 71.68C529.023 71.68 529.397 71.5573 529.685 71.312C529.983 71.0667 530.138 70.7307 530.149 70.304H530.965C530.954 70.976 530.73 71.4933 530.293 71.856C529.855 72.208 529.279 72.384 528.565 72.384ZM541.532 81.456V74.592H537.484L537.388 76.464C537.367 77.0293 537.33 77.584 537.276 78.128C537.234 78.672 537.154 79.1733 537.036 79.632C536.93 80.08 536.775 80.448 536.572 80.736C536.37 81.0133 536.108 81.1733 535.788 81.216L534.652 81.008C534.983 81.0187 535.255 80.9013 535.468 80.656C535.682 80.4 535.847 80.0533 535.964 79.616C536.082 79.1787 536.167 78.6827 536.22 78.128C536.274 77.5627 536.316 76.9867 536.348 76.4L536.46 73.6H542.668V81.456H541.532ZM534.3 84.032V81.008H543.98V84.032H542.908V82H535.372V84.032H534.3ZM549.794 82.08C548.919 82.08 548.151 81.8987 547.49 81.536C546.829 81.1627 546.311 80.656 545.938 80.016C545.565 79.3653 545.378 78.624 545.378 77.792C545.378 76.96 545.554 76.224 545.906 75.584C546.269 74.944 546.759 74.4427 547.378 74.08C548.007 73.7067 548.711 73.52 549.49 73.52C550.279 73.52 550.978 73.7013 551.586 74.064C552.205 74.416 552.69 74.9173 553.042 75.568C553.394 76.208 553.57 76.9493 553.57 77.792C553.57 77.8453 553.565 77.904 553.554 77.968C553.554 78.0213 553.554 78.08 553.554 78.144H546.242V77.296H552.946L552.498 77.632C552.498 77.024 552.365 76.4853 552.098 76.016C551.842 75.536 551.49 75.1627 551.042 74.896C550.594 74.6293 550.077 74.496 549.49 74.496C548.914 74.496 548.397 74.6293 547.938 74.896C547.479 75.1627 547.122 75.536 546.866 76.016C546.61 76.496 546.482 77.0453 546.482 77.664V77.84C546.482 78.48 546.621 79.0453 546.898 79.536C547.186 80.016 547.581 80.3947 548.082 80.672C548.594 80.9387 549.175 81.072 549.826 81.072C550.338 81.072 550.813 80.9813 551.25 80.8C551.698 80.6187 552.082 80.3413 552.402 79.968L553.042 80.704C552.669 81.152 552.199 81.4933 551.634 81.728C551.079 81.9627 550.466 82.08 549.794 82.08ZM557.31 82V74.288L557.598 74.592H554.126V73.6H561.63V74.592H558.158L558.446 74.288V82H557.31ZM566.482 82.08C565.607 82.08 564.839 81.8987 564.178 81.536C563.516 81.1627 562.999 80.656 562.626 80.016C562.252 79.3653 562.066 78.624 562.066 77.792C562.066 76.96 562.242 76.224 562.594 75.584C562.956 74.944 563.447 74.4427 564.066 74.08C564.695 73.7067 565.399 73.52 566.178 73.52C566.967 73.52 567.666 73.7013 568.274 74.064C568.892 74.416 569.378 74.9173 569.73 75.568C570.082 76.208 570.258 76.9493 570.258 77.792C570.258 77.8453 570.252 77.904 570.242 77.968C570.242 78.0213 570.242 78.08 570.242 78.144H562.93V77.296H569.634L569.186 77.632C569.186 77.024 569.052 76.4853 568.786 76.016C568.53 75.536 568.178 75.1627 567.73 74.896C567.282 74.6293 566.764 74.496 566.178 74.496C565.602 74.496 565.084 74.6293 564.626 74.896C564.167 75.1627 563.81 75.536 563.554 76.016C563.298 76.496 563.17 77.0453 563.17 77.664V77.84C563.17 78.48 563.308 79.0453 563.586 79.536C563.874 80.016 564.268 80.3947 564.77 80.672C565.282 80.9387 565.863 81.072 566.514 81.072C567.026 81.072 567.5 80.9813 567.938 80.8C568.386 80.6187 568.77 80.3413 569.09 79.968L569.73 80.704C569.356 81.152 568.887 81.4933 568.322 81.728C567.767 81.9627 567.154 82.08 566.482 82.08ZM580.416 82.08C579.605 82.08 578.874 81.8987 578.224 81.536C577.584 81.1627 577.077 80.656 576.704 80.016C576.33 79.3653 576.144 78.624 576.144 77.792C576.144 76.9493 576.33 76.208 576.704 75.568C577.077 74.928 577.584 74.4267 578.224 74.064C578.864 73.7013 579.594 73.52 580.416 73.52C581.248 73.52 581.984 73.7013 582.624 74.064C583.274 74.4267 583.781 74.928 584.144 75.568C584.517 76.208 584.704 76.9493 584.704 77.792C584.704 78.624 584.517 79.3653 584.144 80.016C583.781 80.656 583.274 81.1627 582.624 81.536C581.973 81.8987 581.237 82.08 580.416 82.08ZM580.416 81.072C581.024 81.072 581.562 80.9387 582.032 80.672C582.501 80.3947 582.869 80.0107 583.136 79.52C583.413 79.0187 583.552 78.4427 583.552 77.792C583.552 77.1307 583.413 76.5547 583.136 76.064C582.869 75.5733 582.501 75.1947 582.032 74.928C581.562 74.6507 581.029 74.512 580.432 74.512C579.834 74.512 579.301 74.6507 578.832 74.928C578.362 75.1947 577.989 75.5733 577.712 76.064C577.434 76.5547 577.296 77.1307 577.296 77.792C577.296 78.4427 577.434 79.0187 577.712 79.52C577.989 80.0107 578.362 80.3947 578.832 80.672C579.301 80.9387 579.829 81.072 580.416 81.072ZM588.419 82V74.288L588.707 74.592H585.235V73.6H592.739V74.592H589.267L589.555 74.288V82H588.419ZM594.382 82V73.6H598.094C599.043 73.6 599.79 73.7813 600.334 74.144C600.888 74.5067 601.166 75.04 601.166 75.744C601.166 76.4267 600.904 76.9547 600.382 77.328C599.859 77.6907 599.171 77.872 598.318 77.872L598.542 77.536C599.544 77.536 600.28 77.7227 600.75 78.096C601.219 78.4693 601.454 79.008 601.454 79.712C601.454 80.4373 601.187 81.0027 600.654 81.408C600.131 81.8027 599.315 82 598.206 82H594.382ZM595.486 81.104H598.158C598.872 81.104 599.411 80.992 599.774 80.768C600.147 80.5333 600.334 80.16 600.334 79.648C600.334 79.136 600.168 78.7627 599.838 78.528C599.507 78.2933 598.984 78.176 598.27 78.176H595.486V81.104ZM595.486 77.328H598.014C598.664 77.328 599.16 77.2053 599.502 76.96C599.854 76.7147 600.03 76.3573 600.03 75.888C600.03 75.4187 599.854 75.0667 599.502 74.832C599.16 74.5973 598.664 74.48 598.014 74.48H595.486V77.328ZM607.716 82.08C606.841 82.08 606.073 81.8987 605.412 81.536C604.751 81.1627 604.233 80.656 603.86 80.016C603.487 79.3653 603.3 78.624 603.3 77.792C603.3 76.96 603.476 76.224 603.828 75.584C604.191 74.944 604.681 74.4427 605.3 74.08C605.929 73.7067 606.633 73.52 607.412 73.52C608.201 73.52 608.9 73.7013 609.508 74.064C610.127 74.416 610.612 74.9173 610.964 75.568C611.316 76.208 611.492 76.9493 611.492 77.792C611.492 77.8453 611.487 77.904 611.476 77.968C611.476 78.0213 611.476 78.08 611.476 78.144H604.164V77.296H610.868L610.42 77.632C610.42 77.024 610.287 76.4853 610.02 76.016C609.764 75.536 609.412 75.1627 608.964 74.896C608.516 74.6293 607.999 74.496 607.412 74.496C606.836 74.496 606.319 74.6293 605.86 74.896C605.401 75.1627 605.044 75.536 604.788 76.016C604.532 76.496 604.404 77.0453 604.404 77.664V77.84C604.404 78.48 604.543 79.0453 604.82 79.536C605.108 80.016 605.503 80.3947 606.004 80.672C606.516 80.9387 607.097 81.072 607.748 81.072C608.26 81.072 608.735 80.9813 609.172 80.8C609.62 80.6187 610.004 80.3413 610.324 79.968L610.964 80.704C610.591 81.152 610.121 81.4933 609.556 81.728C609.001 81.9627 608.388 82.08 607.716 82.08ZM615.232 82V74.288L615.52 74.592H612.048V73.6H619.552V74.592H616.08L616.368 74.288V82H615.232ZM629.386 82V73.6H630.522V82H629.386ZM624.73 76.56C625.786 76.5707 626.591 76.8053 627.146 77.264C627.701 77.7227 627.978 78.384 627.978 79.248C627.978 80.144 627.679 80.832 627.082 81.312C626.485 81.792 625.631 82.0267 624.522 82.016L621.194 82V73.6H622.33V76.528L624.73 76.56ZM624.442 81.152C625.231 81.1627 625.823 81.008 626.218 80.688C626.623 80.3573 626.826 79.8773 626.826 79.248C626.826 78.6187 626.629 78.16 626.234 77.872C625.839 77.5733 625.242 77.4187 624.442 77.408L622.33 77.376V81.12L624.442 81.152ZM637.944 82V73.6H639.08V77.312H644.376V73.6H645.512V82H644.376V78.288H639.08V82H637.944ZM653.957 82V80.144L653.909 79.84V76.736C653.909 76.0213 653.706 75.472 653.301 75.088C652.906 74.704 652.314 74.512 651.525 74.512C650.981 74.512 650.464 74.6027 649.973 74.784C649.482 74.9653 649.066 75.2053 648.725 75.504L648.213 74.656C648.64 74.2933 649.152 74.016 649.749 73.824C650.346 73.6213 650.976 73.52 651.637 73.52C652.725 73.52 653.562 73.792 654.149 74.336C654.746 74.8693 655.045 75.6853 655.045 76.784V82H653.957ZM651.061 82.08C650.432 82.08 649.882 81.9787 649.413 81.776C648.954 81.5627 648.602 81.2747 648.357 80.912C648.112 80.5387 647.989 80.112 647.989 79.632C647.989 79.1947 648.09 78.8 648.293 78.448C648.506 78.0853 648.848 77.7973 649.317 77.584C649.797 77.36 650.437 77.248 651.237 77.248H654.133V78.096H651.269C650.458 78.096 649.893 78.24 649.573 78.528C649.264 78.816 649.109 79.1733 649.109 79.6C649.109 80.08 649.296 80.464 649.669 80.752C650.042 81.04 650.565 81.184 651.237 81.184C651.877 81.184 652.426 81.04 652.885 80.752C653.354 80.4533 653.696 80.0267 653.909 79.472L654.165 80.256C653.952 80.8107 653.578 81.2533 653.045 81.584C652.522 81.9147 651.861 82.08 651.061 82.08ZM667.569 78.448C667.078 78.6613 666.582 78.832 666.081 78.96C665.59 79.0773 665.099 79.136 664.609 79.136C663.617 79.136 662.833 78.912 662.257 78.464C661.681 78.0053 661.393 77.3013 661.393 76.352V73.6H662.513V76.288C662.513 76.928 662.721 77.408 663.137 77.728C663.553 78.048 664.113 78.208 664.817 78.208C665.243 78.208 665.691 78.1547 666.161 78.048C666.63 77.9307 667.105 77.7653 667.585 77.552L667.569 78.448ZM667.473 82V73.6H668.609V82H667.473ZM677.051 82V80.144L677.003 79.84V76.736C677.003 76.0213 676.8 75.472 676.395 75.088C676 74.704 675.408 74.512 674.619 74.512C674.075 74.512 673.557 74.6027 673.067 74.784C672.576 74.9653 672.16 75.2053 671.819 75.504L671.307 74.656C671.733 74.2933 672.245 74.016 672.843 73.824C673.44 73.6213 674.069 73.52 674.731 73.52C675.819 73.52 676.656 73.792 677.243 74.336C677.84 74.8693 678.139 75.6853 678.139 76.784V82H677.051ZM674.155 82.08C673.525 82.08 672.976 81.9787 672.507 81.776C672.048 81.5627 671.696 81.2747 671.451 80.912C671.205 80.5387 671.083 80.112 671.083 79.632C671.083 79.1947 671.184 78.8 671.387 78.448C671.6 78.0853 671.941 77.7973 672.411 77.584C672.891 77.36 673.531 77.248 674.331 77.248H677.227V78.096H674.363C673.552 78.096 672.987 78.24 672.667 78.528C672.357 78.816 672.203 79.1733 672.203 79.6C672.203 80.08 672.389 80.464 672.763 80.752C673.136 81.04 673.659 81.184 674.331 81.184C674.971 81.184 675.52 81.04 675.979 80.752C676.448 80.4533 676.789 80.0267 677.003 79.472L677.259 80.256C677.045 80.8107 676.672 81.2533 676.139 81.584C675.616 81.9147 674.955 82.08 674.155 82.08ZM684.683 82.08C683.851 82.08 683.104 81.8987 682.443 81.536C681.792 81.1627 681.28 80.656 680.907 80.016C680.534 79.3653 680.347 78.624 680.347 77.792C680.347 76.9493 680.534 76.208 680.907 75.568C681.28 74.928 681.792 74.4267 682.443 74.064C683.104 73.7013 683.851 73.52 684.683 73.52C685.398 73.52 686.043 73.6587 686.619 73.936C687.195 74.2133 687.648 74.6293 687.979 75.184L687.131 75.76C686.843 75.3333 686.486 75.0187 686.059 74.816C685.632 74.6133 685.168 74.512 684.667 74.512C684.07 74.512 683.531 74.6507 683.051 74.928C682.571 75.1947 682.192 75.5733 681.915 76.064C681.638 76.5547 681.499 77.1307 681.499 77.792C681.499 78.4533 681.638 79.0293 681.915 79.52C682.192 80.0107 682.571 80.3947 683.051 80.672C683.531 80.9387 684.07 81.072 684.667 81.072C685.168 81.072 685.632 80.9707 686.059 80.768C686.486 80.5653 686.843 80.256 687.131 79.84L687.979 80.416C687.648 80.96 687.195 81.376 686.619 81.664C686.043 81.9413 685.398 82.08 684.683 82.08ZM691.622 82V74.288L691.91 74.592H688.438V73.6H695.942V74.592H692.47L692.758 74.288V82H691.622ZM700.65 82.08C699.839 82.08 699.109 81.8987 698.458 81.536C697.818 81.1627 697.311 80.656 696.938 80.016C696.565 79.3653 696.378 78.624 696.378 77.792C696.378 76.9493 696.565 76.208 696.938 75.568C697.311 74.928 697.818 74.4267 698.458 74.064C699.098 73.7013 699.829 73.52 700.65 73.52C701.482 73.52 702.218 73.7013 702.858 74.064C703.509 74.4267 704.015 74.928 704.378 75.568C704.751 76.208 704.938 76.9493 704.938 77.792C704.938 78.624 704.751 79.3653 704.378 80.016C704.015 80.656 703.509 81.1627 702.858 81.536C702.207 81.8987 701.471 82.08 700.65 82.08ZM700.65 81.072C701.258 81.072 701.797 80.9387 702.266 80.672C702.735 80.3947 703.103 80.0107 703.37 79.52C703.647 79.0187 703.786 78.4427 703.786 77.792C703.786 77.1307 703.647 76.5547 703.37 76.064C703.103 75.5733 702.735 75.1947 702.266 74.928C701.797 74.6507 701.263 74.512 700.666 74.512C700.069 74.512 699.535 74.6507 699.066 74.928C698.597 75.1947 698.223 75.5733 697.946 76.064C697.669 76.5547 697.53 77.1307 697.53 77.792C697.53 78.4427 697.669 79.0187 697.946 79.52C698.223 80.0107 698.597 80.3947 699.066 80.672C699.535 80.9387 700.063 81.072 700.65 81.072ZM713.81 82.096C713.202 82.096 712.599 82.0107 712.002 81.84C711.404 81.6693 710.876 81.408 710.418 81.056L710.786 80.208C711.191 80.5067 711.66 80.736 712.194 80.896C712.727 81.0453 713.255 81.12 713.778 81.12C714.3 81.1093 714.754 81.0347 715.138 80.896C715.522 80.7573 715.82 80.5653 716.034 80.32C716.247 80.0747 716.354 79.7973 716.354 79.488C716.354 79.04 716.151 78.6933 715.746 78.448C715.34 78.192 714.786 78.064 714.082 78.064H712.642V77.232H714.002C714.418 77.232 714.786 77.1787 715.106 77.072C715.426 76.9653 715.671 76.8107 715.842 76.608C716.023 76.4053 716.114 76.1653 716.114 75.888C716.114 75.5893 716.007 75.3333 715.794 75.12C715.591 74.9067 715.308 74.7467 714.946 74.64C714.583 74.5333 714.172 74.48 713.714 74.48C713.298 74.4907 712.866 74.5547 712.418 74.672C711.97 74.7787 711.527 74.944 711.09 75.168L710.77 74.288C711.26 74.032 711.746 73.84 712.226 73.712C712.716 73.5733 713.207 73.504 713.698 73.504C714.37 73.4827 714.972 73.5627 715.506 73.744C716.05 73.9253 716.482 74.1867 716.802 74.528C717.122 74.8587 717.282 75.2587 717.282 75.728C717.282 76.144 717.154 76.5067 716.898 76.816C716.642 77.1253 716.3 77.3653 715.874 77.536C715.447 77.7067 714.962 77.792 714.418 77.792L714.466 77.488C715.426 77.488 716.172 77.6747 716.706 78.048C717.25 78.4213 717.522 78.928 717.522 79.568C717.522 80.0693 717.356 80.512 717.026 80.896C716.695 81.2693 716.247 81.5627 715.682 81.776C715.127 81.9893 714.503 82.096 713.81 82.096ZM725.316 82V80.144L725.268 79.84V76.736C725.268 76.0213 725.066 75.472 724.66 75.088C724.266 74.704 723.674 74.512 722.884 74.512C722.34 74.512 721.823 74.6027 721.332 74.784C720.842 74.9653 720.426 75.2053 720.084 75.504L719.572 74.656C719.999 74.2933 720.511 74.016 721.108 73.824C721.706 73.6213 722.335 73.52 722.996 73.52C724.084 73.52 724.922 73.792 725.508 74.336C726.106 74.8693 726.404 75.6853 726.404 76.784V82H725.316ZM722.42 82.08C721.791 82.08 721.242 81.9787 720.772 81.776C720.314 81.5627 719.962 81.2747 719.716 80.912C719.471 80.5387 719.348 80.112 719.348 79.632C719.348 79.1947 719.45 78.8 719.652 78.448C719.866 78.0853 720.207 77.7973 720.676 77.584C721.156 77.36 721.796 77.248 722.596 77.248H725.492V78.096H722.628C721.818 78.096 721.252 78.24 720.932 78.528C720.623 78.816 720.468 79.1733 720.468 79.6C720.468 80.08 720.655 80.464 721.028 80.752C721.402 81.04 721.924 81.184 722.596 81.184C723.236 81.184 723.786 81.04 724.244 80.752C724.714 80.4533 725.055 80.0267 725.268 79.472L725.524 80.256C725.311 80.8107 724.938 81.2533 724.404 81.584C723.882 81.9147 723.22 82.08 722.42 82.08ZM735.189 81.456V74.592H731.141L731.045 76.464C731.023 77.0293 730.986 77.584 730.933 78.128C730.89 78.672 730.81 79.1733 730.693 79.632C730.586 80.08 730.431 80.448 730.229 80.736C730.026 81.0133 729.765 81.1733 729.445 81.216L728.309 81.008C728.639 81.0187 728.911 80.9013 729.125 80.656C729.338 80.4 729.503 80.0533 729.621 79.616C729.738 79.1787 729.823 78.6827 729.877 78.128C729.93 77.5627 729.973 76.9867 730.005 76.4L730.117 73.6H736.325V81.456H735.189ZM727.957 84.032V81.008H737.637V84.032H736.565V82H729.029V84.032H727.957ZM745.066 82V80.144L745.018 79.84V76.736C745.018 76.0213 744.816 75.472 744.41 75.088C744.016 74.704 743.424 74.512 742.634 74.512C742.09 74.512 741.573 74.6027 741.082 74.784C740.592 74.9653 740.176 75.2053 739.834 75.504L739.322 74.656C739.749 74.2933 740.261 74.016 740.858 73.824C741.456 73.6213 742.085 73.52 742.746 73.52C743.834 73.52 744.672 73.792 745.258 74.336C745.856 74.8693 746.154 75.6853 746.154 76.784V82H745.066ZM742.17 82.08C741.541 82.08 740.992 81.9787 740.522 81.776C740.064 81.5627 739.712 81.2747 739.466 80.912C739.221 80.5387 739.098 80.112 739.098 79.632C739.098 79.1947 739.2 78.8 739.402 78.448C739.616 78.0853 739.957 77.7973 740.426 77.584C740.906 77.36 741.546 77.248 742.346 77.248H745.242V78.096H742.378C741.568 78.096 741.002 78.24 740.682 78.528C740.373 78.816 740.218 79.1733 740.218 79.6C740.218 80.08 740.405 80.464 740.778 80.752C741.152 81.04 741.674 81.184 742.346 81.184C742.986 81.184 743.536 81.04 743.994 80.752C744.464 80.4533 744.805 80.0267 745.018 79.472L745.274 80.256C745.061 80.8107 744.688 81.2533 744.154 81.584C743.632 81.9147 742.97 82.08 742.17 82.08ZM749.179 82V73.6H752.891C753.84 73.6 754.587 73.7813 755.131 74.144C755.685 74.5067 755.963 75.04 755.963 75.744C755.963 76.4267 755.701 76.9547 755.179 77.328C754.656 77.6907 753.968 77.872 753.115 77.872L753.339 77.536C754.341 77.536 755.077 77.7227 755.547 78.096C756.016 78.4693 756.251 79.008 756.251 79.712C756.251 80.4373 755.984 81.0027 755.451 81.408C754.928 81.8027 754.112 82 753.003 82H749.179ZM750.283 81.104H752.955C753.669 81.104 754.208 80.992 754.571 80.768C754.944 80.5333 755.131 80.16 755.131 79.648C755.131 79.136 754.965 78.7627 754.635 78.528C754.304 78.2933 753.781 78.176 753.067 78.176H750.283V81.104ZM750.283 77.328H752.811C753.461 77.328 753.957 77.2053 754.299 76.96C754.651 76.7147 754.827 76.3573 754.827 75.888C754.827 75.4187 754.651 75.0667 754.299 74.832C753.957 74.5973 753.461 74.48 752.811 74.48H750.283V77.328ZM764.129 82V80.144L764.081 79.84V76.736C764.081 76.0213 763.878 75.472 763.473 75.088C763.078 74.704 762.486 74.512 761.697 74.512C761.153 74.512 760.636 74.6027 760.145 74.784C759.654 74.9653 759.238 75.2053 758.897 75.504L758.385 74.656C758.812 74.2933 759.324 74.016 759.921 73.824C760.518 73.6213 761.148 73.52 761.809 73.52C762.897 73.52 763.734 73.792 764.321 74.336C764.918 74.8693 765.217 75.6853 765.217 76.784V82H764.129ZM761.233 82.08C760.604 82.08 760.054 81.9787 759.585 81.776C759.126 81.5627 758.774 81.2747 758.529 80.912C758.284 80.5387 758.161 80.112 758.161 79.632C758.161 79.1947 758.262 78.8 758.465 78.448C758.678 78.0853 759.02 77.7973 759.489 77.584C759.969 77.36 760.609 77.248 761.409 77.248H764.305V78.096H761.441C760.63 78.096 760.065 78.24 759.745 78.528C759.436 78.816 759.281 79.1733 759.281 79.6C759.281 80.08 759.468 80.464 759.841 80.752C760.214 81.04 760.737 81.184 761.409 81.184C762.049 81.184 762.598 81.04 763.057 80.752C763.526 80.4533 763.868 80.0267 764.081 79.472L764.337 80.256C764.124 80.8107 763.75 81.2533 763.217 81.584C762.694 81.9147 762.033 82.08 761.233 82.08ZM771.841 82.08C770.966 82.08 770.198 81.8987 769.537 81.536C768.876 81.1627 768.358 80.656 767.985 80.016C767.612 79.3653 767.425 78.624 767.425 77.792C767.425 76.96 767.601 76.224 767.953 75.584C768.316 74.944 768.806 74.4427 769.425 74.08C770.054 73.7067 770.758 73.52 771.537 73.52C772.326 73.52 773.025 73.7013 773.633 74.064C774.252 74.416 774.737 74.9173 775.089 75.568C775.441 76.208 775.617 76.9493 775.617 77.792C775.617 77.8453 775.612 77.904 775.601 77.968C775.601 78.0213 775.601 78.08 775.601 78.144H768.289V77.296H774.993L774.545 77.632C774.545 77.024 774.412 76.4853 774.145 76.016C773.889 75.536 773.537 75.1627 773.089 74.896C772.641 74.6293 772.124 74.496 771.537 74.496C770.961 74.496 770.444 74.6293 769.985 74.896C769.526 75.1627 769.169 75.536 768.913 76.016C768.657 76.496 768.529 77.0453 768.529 77.664V77.84C768.529 78.48 768.668 79.0453 768.945 79.536C769.233 80.016 769.628 80.3947 770.129 80.672C770.641 80.9387 771.222 81.072 771.873 81.072C772.385 81.072 772.86 80.9813 773.297 80.8C773.745 80.6187 774.129 80.3413 774.449 79.968L775.089 80.704C774.716 81.152 774.246 81.4933 773.681 81.728C773.126 81.9627 772.513 82.08 771.841 82.08ZM778.132 82V73.6H779.284L783.092 80.048H782.612L786.484 73.6H787.54V82H786.5V74.896L786.708 74.992L783.092 80.976H782.58L778.932 74.928L779.172 74.88V82H778.132ZM798.964 82V73.6H800.1V82H798.964ZM794.308 76.56C795.364 76.5707 796.17 76.8053 796.724 77.264C797.279 77.7227 797.556 78.384 797.556 79.248C797.556 80.144 797.258 80.832 796.66 81.312C796.063 81.792 795.21 82.0267 794.1 82.016L790.772 82V73.6H791.908V76.528L794.308 76.56ZM794.02 81.152C794.81 81.1627 795.402 81.008 795.796 80.688C796.202 80.3573 796.404 79.8773 796.404 79.248C796.404 78.6187 796.207 78.16 795.812 77.872C795.418 77.5733 794.82 77.4187 794.02 77.408L791.908 77.376V81.12L794.02 81.152ZM806.935 82.08C806.06 82.08 805.292 81.8987 804.631 81.536C803.969 81.1627 803.452 80.656 803.079 80.016C802.705 79.3653 802.519 78.624 802.519 77.792C802.519 76.96 802.695 76.224 803.047 75.584C803.409 74.944 803.9 74.4427 804.519 74.08C805.148 73.7067 805.852 73.52 806.631 73.52C807.42 73.52 808.119 73.7013 808.727 74.064C809.345 74.416 809.831 74.9173 810.183 75.568C810.535 76.208 810.711 76.9493 810.711 77.792C810.711 77.8453 810.705 77.904 810.695 77.968C810.695 78.0213 810.695 78.08 810.695 78.144H803.383V77.296H810.087L809.639 77.632C809.639 77.024 809.505 76.4853 809.239 76.016C808.983 75.536 808.631 75.1627 808.183 74.896C807.735 74.6293 807.217 74.496 806.631 74.496C806.055 74.496 805.537 74.6293 805.079 74.896C804.62 75.1627 804.263 75.536 804.007 76.016C803.751 76.496 803.623 77.0453 803.623 77.664V77.84C803.623 78.48 803.761 79.0453 804.039 79.536C804.327 80.016 804.721 80.3947 805.223 80.672C805.735 80.9387 806.316 81.072 806.967 81.072C807.479 81.072 807.953 80.9813 808.391 80.8C808.839 80.6187 809.223 80.3413 809.543 79.968L810.183 80.704C809.809 81.152 809.34 81.4933 808.775 81.728C808.22 81.9627 807.607 82.08 806.935 82.08ZM817.413 82V73.6H821.125C822.074 73.6 822.821 73.7813 823.365 74.144C823.92 74.5067 824.197 75.04 824.197 75.744C824.197 76.4267 823.936 76.9547 823.413 77.328C822.89 77.6907 822.202 77.872 821.349 77.872L821.573 77.536C822.576 77.536 823.312 77.7227 823.781 78.096C824.25 78.4693 824.485 79.008 824.485 79.712C824.485 80.4373 824.218 81.0027 823.685 81.408C823.162 81.8027 822.346 82 821.237 82H817.413ZM818.517 81.104H821.189C821.904 81.104 822.442 80.992 822.805 80.768C823.178 80.5333 823.365 80.16 823.365 79.648C823.365 79.136 823.2 78.7627 822.869 78.528C822.538 78.2933 822.016 78.176 821.301 78.176H818.517V81.104ZM818.517 77.328H821.045C821.696 77.328 822.192 77.2053 822.533 76.96C822.885 76.7147 823.061 76.3573 823.061 75.888C823.061 75.4187 822.885 75.0667 822.533 74.832C822.192 74.5973 821.696 74.48 821.045 74.48H818.517V77.328ZM830.603 82.08C829.793 82.08 829.062 81.8987 828.411 81.536C827.771 81.1627 827.265 80.656 826.891 80.016C826.518 79.3653 826.331 78.624 826.331 77.792C826.331 76.9493 826.518 76.208 826.891 75.568C827.265 74.928 827.771 74.4267 828.411 74.064C829.051 73.7013 829.782 73.52 830.603 73.52C831.435 73.52 832.171 73.7013 832.811 74.064C833.462 74.4267 833.969 74.928 834.331 75.568C834.705 76.208 834.891 76.9493 834.891 77.792C834.891 78.624 834.705 79.3653 834.331 80.016C833.969 80.656 833.462 81.1627 832.811 81.536C832.161 81.8987 831.425 82.08 830.603 82.08ZM830.603 81.072C831.211 81.072 831.75 80.9387 832.219 80.672C832.689 80.3947 833.057 80.0107 833.323 79.52C833.601 79.0187 833.739 78.4427 833.739 77.792C833.739 77.1307 833.601 76.5547 833.323 76.064C833.057 75.5733 832.689 75.1947 832.219 74.928C831.75 74.6507 831.217 74.512 830.619 74.512C830.022 74.512 829.489 74.6507 829.019 74.928C828.55 75.1947 828.177 75.5733 827.899 76.064C827.622 76.5547 827.483 77.1307 827.483 77.792C827.483 78.4427 827.622 79.0187 827.899 79.52C828.177 80.0107 828.55 80.3947 829.019 80.672C829.489 80.9387 830.017 81.072 830.603 81.072ZM837.319 82V73.6H844.871V82H843.735V74.288L844.023 74.592H838.167L838.455 74.288V82H837.319ZM852.436 82.08C851.711 82.08 851.055 81.9147 850.468 81.584C849.882 81.2427 849.412 80.7573 849.06 80.128C848.719 79.488 848.548 78.7093 848.548 77.792C848.548 76.8747 848.719 76.1013 849.06 75.472C849.402 74.832 849.866 74.3467 850.452 74.016C851.039 73.6853 851.7 73.52 852.436 73.52C853.236 73.52 853.951 73.7013 854.58 74.064C855.22 74.416 855.722 74.9173 856.084 75.568C856.447 76.208 856.628 76.9493 856.628 77.792C856.628 78.6453 856.447 79.392 856.084 80.032C855.722 80.672 855.22 81.1733 854.58 81.536C853.951 81.8987 853.236 82.08 852.436 82.08ZM848.1 85.104V73.6H849.188V76.128L849.076 77.808L849.236 79.504V85.104H848.1ZM852.356 81.072C852.954 81.072 853.487 80.9387 853.956 80.672C854.426 80.3947 854.799 80.0107 855.076 79.52C855.354 79.0187 855.492 78.4427 855.492 77.792C855.492 77.1413 855.354 76.5707 855.076 76.08C854.799 75.5893 854.426 75.2053 853.956 74.928C853.487 74.6507 852.954 74.512 852.356 74.512C851.759 74.512 851.22 74.6507 850.74 74.928C850.271 75.2053 849.898 75.5893 849.62 76.08C849.354 76.5707 849.22 77.1413 849.22 77.792C849.22 78.4427 849.354 79.0187 849.62 79.52C849.898 80.0107 850.271 80.3947 850.74 80.672C851.22 80.9387 851.759 81.072 852.356 81.072ZM862.525 82.08C861.714 82.08 860.984 81.8987 860.333 81.536C859.693 81.1627 859.186 80.656 858.813 80.016C858.44 79.3653 858.253 78.624 858.253 77.792C858.253 76.9493 858.44 76.208 858.813 75.568C859.186 74.928 859.693 74.4267 860.333 74.064C860.973 73.7013 861.704 73.52 862.525 73.52C863.357 73.52 864.093 73.7013 864.733 74.064C865.384 74.4267 865.89 74.928 866.253 75.568C866.626 76.208 866.813 76.9493 866.813 77.792C866.813 78.624 866.626 79.3653 866.253 80.016C865.89 80.656 865.384 81.1627 864.733 81.536C864.082 81.8987 863.346 82.08 862.525 82.08ZM862.525 81.072C863.133 81.072 863.672 80.9387 864.141 80.672C864.61 80.3947 864.978 80.0107 865.245 79.52C865.522 79.0187 865.661 78.4427 865.661 77.792C865.661 77.1307 865.522 76.5547 865.245 76.064C864.978 75.5733 864.61 75.1947 864.141 74.928C863.672 74.6507 863.138 74.512 862.541 74.512C861.944 74.512 861.41 74.6507 860.941 74.928C860.472 75.1947 860.098 75.5733 859.821 76.064C859.544 76.5547 859.405 77.1307 859.405 77.792C859.405 78.4427 859.544 79.0187 859.821 79.52C860.098 80.0107 860.472 80.3947 860.941 80.672C861.41 80.9387 861.938 81.072 862.525 81.072ZM872.761 82.08C871.929 82.08 871.182 81.8987 870.521 81.536C869.87 81.1627 869.358 80.656 868.985 80.016C868.612 79.3653 868.425 78.624 868.425 77.792C868.425 76.9493 868.612 76.208 868.985 75.568C869.358 74.928 869.87 74.4267 870.521 74.064C871.182 73.7013 871.929 73.52 872.761 73.52C873.476 73.52 874.121 73.6587 874.697 73.936C875.273 74.2133 875.726 74.6293 876.057 75.184L875.209 75.76C874.921 75.3333 874.564 75.0187 874.137 74.816C873.71 74.6133 873.246 74.512 872.745 74.512C872.148 74.512 871.609 74.6507 871.129 74.928C870.649 75.1947 870.27 75.5733 869.993 76.064C869.716 76.5547 869.577 77.1307 869.577 77.792C869.577 78.4533 869.716 79.0293 869.993 79.52C870.27 80.0107 870.649 80.3947 871.129 80.672C871.609 80.9387 872.148 81.072 872.745 81.072C873.246 81.072 873.71 80.9707 874.137 80.768C874.564 80.5653 874.921 80.256 875.209 79.84L876.057 80.416C875.726 80.96 875.273 81.376 874.697 81.664C874.121 81.9413 873.476 82.08 872.761 82.08ZM886.449 82V73.6H887.585V82H886.449ZM881.793 76.56C882.849 76.5707 883.654 76.8053 884.209 77.264C884.763 77.7227 885.041 78.384 885.041 79.248C885.041 80.144 884.742 80.832 884.145 81.312C883.547 81.792 882.694 82.0267 881.585 82.016L878.257 82V73.6H879.393V76.528L881.793 76.56ZM881.505 81.152C882.294 81.1627 882.886 81.008 883.281 80.688C883.686 80.3573 883.889 79.8773 883.889 79.248C883.889 78.6187 883.691 78.16 883.297 77.872C882.902 77.5733 882.305 77.4187 881.505 77.408L879.393 77.376V81.12L881.505 81.152Z" fill="white"/>
<rect width="155" height="56" transform="translate(1077 48)" fill="white"/>
<path d="M1115.78 82.128C1114.93 82.128 1114.14 81.984 1113.4 81.696C1112.67 81.408 1112.05 81.008 1111.51 80.496C1110.98 79.9733 1110.56 79.3653 1110.26 78.672C1109.97 77.9787 1109.82 77.2213 1109.82 76.4C1109.82 75.5787 1109.97 74.8213 1110.26 74.128C1110.56 73.4347 1110.98 72.832 1111.51 72.32C1112.05 71.7973 1112.67 71.392 1113.4 71.104C1114.13 70.816 1114.92 70.672 1115.78 70.672C1116.64 70.672 1117.42 70.816 1118.14 71.104C1118.86 71.3813 1119.49 71.7813 1120.02 72.304C1120.57 72.816 1120.98 73.4187 1121.27 74.112C1121.57 74.8053 1121.72 75.568 1121.72 76.4C1121.72 77.232 1121.57 77.9947 1121.27 78.688C1120.98 79.3813 1120.57 79.9893 1120.02 80.512C1119.49 81.024 1118.86 81.424 1118.14 81.712C1117.42 81.9893 1116.64 82.128 1115.78 82.128ZM1115.78 80.704C1116.4 80.704 1116.97 80.5973 1117.5 80.384C1118.03 80.1707 1118.49 79.872 1118.87 79.488C1119.27 79.0933 1119.57 78.6347 1119.78 78.112C1120.01 77.5893 1120.12 77.0187 1120.12 76.4C1120.12 75.7813 1120.01 75.2107 1119.78 74.688C1119.57 74.1653 1119.27 73.712 1118.87 73.328C1118.49 72.9333 1118.03 72.6293 1117.5 72.416C1116.97 72.2027 1116.4 72.096 1115.78 72.096C1115.15 72.096 1114.57 72.2027 1114.04 72.416C1113.52 72.6293 1113.06 72.9333 1112.66 73.328C1112.27 73.712 1111.96 74.1653 1111.74 74.688C1111.52 75.2107 1111.42 75.7813 1111.42 76.4C1111.42 77.0187 1111.52 77.5893 1111.74 78.112C1111.96 78.6347 1112.27 79.0933 1112.66 79.488C1113.06 79.872 1113.52 80.1707 1114.04 80.384C1114.57 80.5973 1115.15 80.704 1115.78 80.704ZM1125.54 82V74.464L1125.93 74.864H1122.44V73.52H1130.18V74.864H1126.71L1127.08 74.464V82H1125.54ZM1131.75 82V73.52H1139.61V82H1138.07V74.48L1138.44 74.864H1132.92L1133.29 74.48V82H1131.75ZM1147.08 82.096C1146.37 82.096 1145.73 81.936 1145.14 81.616C1144.57 81.2853 1144.1 80.8 1143.75 80.16C1143.41 79.52 1143.24 78.72 1143.24 77.76C1143.24 76.8 1143.4 76 1143.73 75.36C1144.08 74.72 1144.53 74.24 1145.11 73.92C1145.7 73.6 1146.35 73.44 1147.08 73.44C1147.91 73.44 1148.65 73.6213 1149.29 73.984C1149.93 74.3467 1150.43 74.8533 1150.81 75.504C1151.18 76.144 1151.37 76.896 1151.37 77.76C1151.37 78.624 1151.18 79.3813 1150.81 80.032C1150.43 80.6827 1149.93 81.1893 1149.29 81.552C1148.65 81.9147 1147.91 82.096 1147.08 82.096ZM1142.58 85.104V73.52H1144.05V75.808L1143.96 77.776L1144.12 79.744V85.104H1142.58ZM1146.95 80.752C1147.49 80.752 1147.98 80.6293 1148.41 80.384C1148.84 80.1387 1149.18 79.792 1149.43 79.344C1149.69 78.8853 1149.81 78.3573 1149.81 77.76C1149.81 77.152 1149.69 76.6293 1149.43 76.192C1149.18 75.744 1148.84 75.3973 1148.41 75.152C1147.98 74.9067 1147.49 74.784 1146.95 74.784C1146.42 74.784 1145.93 74.9067 1145.49 75.152C1145.07 75.3973 1144.73 75.744 1144.47 76.192C1144.22 76.6293 1144.1 77.152 1144.1 77.76C1144.1 78.3573 1144.22 78.8853 1144.47 79.344C1144.73 79.792 1145.07 80.1387 1145.49 80.384C1145.93 80.6293 1146.42 80.752 1146.95 80.752ZM1158.72 82V80.208L1158.64 79.872V76.816C1158.64 76.1653 1158.45 75.664 1158.06 75.312C1157.69 74.9493 1157.12 74.768 1156.37 74.768C1155.87 74.768 1155.38 74.8533 1154.9 75.024C1154.42 75.184 1154.01 75.4027 1153.68 75.68L1153.04 74.528C1153.48 74.176 1154 73.9093 1154.61 73.728C1155.23 73.536 1155.87 73.44 1156.54 73.44C1157.71 73.44 1158.6 73.7227 1159.23 74.288C1159.86 74.8533 1160.18 75.7173 1160.18 76.88V82H1158.72ZM1155.94 82.096C1155.31 82.096 1154.75 81.9893 1154.27 81.776C1153.8 81.5627 1153.44 81.2693 1153.18 80.896C1152.93 80.512 1152.8 80.08 1152.8 79.6C1152.8 79.1413 1152.91 78.7253 1153.12 78.352C1153.34 77.9787 1153.7 77.68 1154.19 77.456C1154.69 77.232 1155.36 77.12 1156.21 77.12H1158.9V78.224H1156.27C1155.5 78.224 1154.99 78.352 1154.72 78.608C1154.45 78.864 1154.32 79.1733 1154.32 79.536C1154.32 79.952 1154.48 80.288 1154.82 80.544C1155.15 80.7893 1155.6 80.912 1156.19 80.912C1156.77 80.912 1157.27 80.784 1157.7 80.528C1158.13 80.272 1158.45 79.8987 1158.64 79.408L1158.94 80.464C1158.74 80.9653 1158.38 81.3653 1157.87 81.664C1157.36 81.952 1156.71 82.096 1155.94 82.096ZM1162.94 82V73.52H1166.88C1167.87 73.52 1168.65 73.712 1169.21 74.096C1169.79 74.4693 1170.08 75.0027 1170.08 75.696C1170.08 76.3893 1169.81 76.928 1169.26 77.312C1168.73 77.6853 1168.02 77.872 1167.13 77.872L1167.37 77.456C1168.39 77.456 1169.14 77.6427 1169.63 78.016C1170.12 78.3893 1170.37 78.9387 1170.37 79.664C1170.37 80.4 1170.09 80.976 1169.53 81.392C1168.99 81.7973 1168.15 82 1167.02 82H1162.94ZM1164.45 80.816H1166.91C1167.55 80.816 1168.03 80.72 1168.35 80.528C1168.67 80.3253 1168.83 80.0053 1168.83 79.568C1168.83 79.12 1168.68 78.7947 1168.38 78.592C1168.09 78.3787 1167.63 78.272 1167.01 78.272H1164.45V80.816ZM1164.45 77.168H1166.75C1167.34 77.168 1167.78 77.0613 1168.08 76.848C1168.39 76.624 1168.54 76.3147 1168.54 75.92C1168.54 75.5147 1168.39 75.2107 1168.08 75.008C1167.78 74.8053 1167.34 74.704 1166.75 74.704H1164.45V77.168ZM1172.77 82V73.52H1174.31V79.696L1179.51 73.52H1180.9V82H1179.36V75.824L1174.18 82H1172.77ZM1185.56 82V74.464L1185.94 74.864H1182.45V73.52H1190.2V74.864H1186.73L1187.09 74.464V82H1185.56ZM1195.69 76.4C1196.77 76.4107 1197.59 76.656 1198.15 77.136C1198.72 77.616 1199 78.2933 1199 79.168C1199 80.0853 1198.69 80.7947 1198.07 81.296C1197.45 81.7867 1196.58 82.0267 1195.45 82.016L1191.77 82V73.52H1193.31V76.384L1195.69 76.4ZM1195.32 80.848C1196.01 80.8587 1196.54 80.72 1196.89 80.432C1197.25 80.144 1197.43 79.7173 1197.43 79.152C1197.43 78.5973 1197.26 78.192 1196.91 77.936C1196.55 77.68 1196.03 77.5467 1195.32 77.536L1193.31 77.504V80.832L1195.32 80.848Z" fill="#141414"/>
</svg>
