<svg width="328" height="268" viewBox="0 0 328 268" fill="none" xmlns="http://www.w3.org/2000/svg">
<rect width="328" height="268" fill="#29A1F8"/>
<path d="M39.1497 38.9997C39.5415 37.8858 40.3149 36.9465 41.3329 36.3482C42.3509 35.7499 43.5478 35.5312 44.7116 35.7309C45.8754 35.9305 46.931 36.5355 47.6915 37.4389C48.4519 38.3422 48.8681 39.4855 48.8663 40.6663C48.8663 43.9997 43.8663 45.6663 43.8663 45.6663M43.9997 52.333H44.0163M60.6663 43.9997C60.6663 53.2044 53.2044 60.6663 43.9997 60.6663C34.7949 60.6663 27.333 53.2044 27.333 43.9997C27.333 34.7949 34.7949 27.333 43.9997 27.333C53.2044 27.333 60.6663 34.7949 60.6663 43.9997Z" stroke="white" stroke-width="2" stroke-linecap="round" stroke-linejoin="round"/>
<path d="M25.914 109V93.6H33.086C34.8753 93.6 36.2687 93.9447 37.266 94.634C38.2633 95.3233 38.762 96.306 38.762 97.582C38.762 98.8433 38.2927 99.826 37.354 100.53C36.4153 101.219 35.1687 101.564 33.614 101.564L34.032 100.64C35.7627 100.64 37.1047 100.985 38.058 101.674C39.0113 102.363 39.488 103.361 39.488 104.666C39.488 106.015 38.9747 107.079 37.948 107.856C36.936 108.619 35.4547 109 33.504 109H25.914ZM29.456 106.36H33.372C34.1933 106.36 34.8167 106.199 35.242 105.876C35.6673 105.553 35.88 105.055 35.88 104.38C35.88 103.735 35.6673 103.258 35.242 102.95C34.8167 102.627 34.1933 102.466 33.372 102.466H29.456V106.36ZM29.456 99.98H32.778C33.5553 99.98 34.142 99.826 34.538 99.518C34.934 99.1953 35.132 98.726 35.132 98.11C35.132 97.494 34.934 97.032 34.538 96.724C34.142 96.4013 33.5553 96.24 32.778 96.24H29.456V99.98ZM47.5866 109.176C46.3252 109.176 45.2032 108.912 44.2206 108.384C43.2526 107.856 42.4826 107.137 41.9106 106.228C41.3532 105.304 41.0746 104.255 41.0746 103.082C41.0746 101.894 41.3532 100.845 41.9106 99.936C42.4826 99.012 43.2526 98.2933 44.2206 97.78C45.2032 97.252 46.3252 96.988 47.5866 96.988C48.8332 96.988 49.9479 97.252 50.9306 97.78C51.9132 98.2933 52.6832 99.0047 53.2406 99.914C53.7979 100.823 54.0766 101.879 54.0766 103.082C54.0766 104.255 53.7979 105.304 53.2406 106.228C52.6832 107.137 51.9132 107.856 50.9306 108.384C49.9479 108.912 48.8332 109.176 47.5866 109.176ZM47.5866 106.36C48.1586 106.36 48.6719 106.228 49.1266 105.964C49.5812 105.7 49.9406 105.326 50.2046 104.842C50.4686 104.343 50.6006 103.757 50.6006 103.082C50.6006 102.393 50.4686 101.806 50.2046 101.322C49.9406 100.838 49.5812 100.464 49.1266 100.2C48.6719 99.936 48.1586 99.804 47.5866 99.804C47.0146 99.804 46.5012 99.936 46.0466 100.2C45.5919 100.464 45.2252 100.838 44.9466 101.322C44.6826 101.806 44.5506 102.393 44.5506 103.082C44.5506 103.757 44.6826 104.343 44.9466 104.842C45.2252 105.326 45.5919 105.7 46.0466 105.964C46.5012 106.228 47.0146 106.36 47.5866 106.36ZM56.4371 109V97.164H68.2071V109H64.7751V99.21L65.5451 99.98H59.0771L59.8471 99.21V109H56.4371ZM78.4717 109.176C77.4743 109.176 76.6017 108.956 75.8537 108.516C75.1057 108.076 74.519 107.409 74.0937 106.514C73.683 105.605 73.4777 104.461 73.4777 103.082C73.4777 101.689 73.6757 100.545 74.0717 99.65C74.4677 98.7553 75.0397 98.088 75.7877 97.648C76.5357 97.208 77.4303 96.988 78.4717 96.988C79.5863 96.988 80.5837 97.2447 81.4637 97.758C82.3583 98.2567 83.0623 98.9607 83.5757 99.87C84.1037 100.779 84.3677 101.85 84.3677 103.082C84.3677 104.329 84.1037 105.407 83.5757 106.316C83.0623 107.225 82.3583 107.929 81.4637 108.428C80.5837 108.927 79.5863 109.176 78.4717 109.176ZM71.4757 113.268V97.164H74.7537V99.584L74.6877 103.104L74.9077 106.602V113.268H71.4757ZM77.8777 106.36C78.4497 106.36 78.9557 106.228 79.3957 105.964C79.8503 105.7 80.2097 105.326 80.4737 104.842C80.7523 104.343 80.8917 103.757 80.8917 103.082C80.8917 102.393 80.7523 101.806 80.4737 101.322C80.2097 100.838 79.8503 100.464 79.3957 100.2C78.9557 99.936 78.4497 99.804 77.8777 99.804C77.3057 99.804 76.7923 99.936 76.3377 100.2C75.883 100.464 75.5237 100.838 75.2597 101.322C74.9957 101.806 74.8637 102.393 74.8637 103.082C74.8637 103.757 74.9957 104.343 75.2597 104.842C75.5237 105.326 75.883 105.7 76.3377 105.964C76.7923 106.228 77.3057 106.36 77.8777 106.36ZM92.317 109.176C91.0557 109.176 89.9337 108.912 88.951 108.384C87.983 107.856 87.213 107.137 86.641 106.228C86.0837 105.304 85.805 104.255 85.805 103.082C85.805 101.894 86.0837 100.845 86.641 99.936C87.213 99.012 87.983 98.2933 88.951 97.78C89.9337 97.252 91.0557 96.988 92.317 96.988C93.5637 96.988 94.6784 97.252 95.661 97.78C96.6437 98.2933 97.4137 99.0047 97.971 99.914C98.5284 100.823 98.807 101.879 98.807 103.082C98.807 104.255 98.5284 105.304 97.971 106.228C97.4137 107.137 96.6437 107.856 95.661 108.384C94.6784 108.912 93.5637 109.176 92.317 109.176ZM92.317 106.36C92.889 106.36 93.4024 106.228 93.857 105.964C94.3117 105.7 94.671 105.326 94.935 104.842C95.199 104.343 95.331 103.757 95.331 103.082C95.331 102.393 95.199 101.806 94.935 101.322C94.671 100.838 94.3117 100.464 93.857 100.2C93.4024 99.936 92.889 99.804 92.317 99.804C91.745 99.804 91.2317 99.936 90.777 100.2C90.3224 100.464 89.9557 100.838 89.677 101.322C89.413 101.806 89.281 102.393 89.281 103.082C89.281 103.757 89.413 104.343 89.677 104.842C89.9557 105.326 90.3224 105.7 90.777 105.964C91.2317 106.228 91.745 106.36 92.317 106.36ZM106.8 109.176C105.524 109.176 104.387 108.919 103.39 108.406C102.392 107.878 101.608 107.152 101.036 106.228C100.478 105.304 100.2 104.255 100.2 103.082C100.2 101.894 100.478 100.845 101.036 99.936C101.608 99.012 102.392 98.2933 103.39 97.78C104.387 97.252 105.524 96.988 106.8 96.988C108.046 96.988 109.132 97.252 110.056 97.78C110.98 98.2933 111.662 99.034 112.102 100.002L109.44 101.432C109.132 100.875 108.743 100.464 108.274 100.2C107.819 99.936 107.32 99.804 106.778 99.804C106.191 99.804 105.663 99.936 105.194 100.2C104.724 100.464 104.35 100.838 104.072 101.322C103.808 101.806 103.676 102.393 103.676 103.082C103.676 103.771 103.808 104.358 104.072 104.842C104.35 105.326 104.724 105.7 105.194 105.964C105.663 106.228 106.191 106.36 106.778 106.36C107.32 106.36 107.819 106.235 108.274 105.986C108.743 105.722 109.132 105.304 109.44 104.732L112.102 106.184C111.662 107.137 110.98 107.878 110.056 108.406C109.132 108.919 108.046 109.176 106.8 109.176ZM113.251 104.182V101.432H119.477V104.182H113.251ZM128.003 109.176C126.741 109.176 125.619 108.912 124.637 108.384C123.669 107.856 122.899 107.137 122.327 106.228C121.769 105.304 121.491 104.255 121.491 103.082C121.491 101.894 121.769 100.845 122.327 99.936C122.899 99.012 123.669 98.2933 124.637 97.78C125.619 97.252 126.741 96.988 128.003 96.988C129.249 96.988 130.364 97.252 131.347 97.78C132.329 98.2933 133.099 99.0047 133.657 99.914C134.214 100.823 134.493 101.879 134.493 103.082C134.493 104.255 134.214 105.304 133.657 106.228C133.099 107.137 132.329 107.856 131.347 108.384C130.364 108.912 129.249 109.176 128.003 109.176ZM128.003 106.36C128.575 106.36 129.088 106.228 129.543 105.964C129.997 105.7 130.357 105.326 130.621 104.842C130.885 104.343 131.017 103.757 131.017 103.082C131.017 102.393 130.885 101.806 130.621 101.322C130.357 100.838 129.997 100.464 129.543 100.2C129.088 99.936 128.575 99.804 128.003 99.804C127.431 99.804 126.917 99.936 126.463 100.2C126.008 100.464 125.641 100.838 125.363 101.322C125.099 101.806 124.967 102.393 124.967 103.082C124.967 103.757 125.099 104.343 125.363 104.842C125.641 105.326 126.008 105.7 126.463 105.964C126.917 106.228 127.431 106.36 128.003 106.36ZM138.953 109V99.188L139.723 99.98H134.949V97.164H146.367V99.98H141.593L142.363 99.188V109H138.953ZM148.197 109V97.164H154.247C155.728 97.164 156.887 97.4353 157.723 97.978C158.559 98.506 158.977 99.254 158.977 100.222C158.977 101.19 158.581 101.953 157.789 102.51C157.012 103.053 155.978 103.324 154.687 103.324L155.039 102.532C156.476 102.532 157.547 102.796 158.251 103.324C158.97 103.852 159.329 104.622 159.329 105.634C159.329 106.675 158.933 107.497 158.141 108.098C157.349 108.699 156.139 109 154.511 109H148.197ZM151.343 106.668H154.225C154.856 106.668 155.325 106.565 155.633 106.36C155.956 106.14 156.117 105.81 156.117 105.37C156.117 104.915 155.97 104.585 155.677 104.38C155.384 104.16 154.922 104.05 154.291 104.05H151.343V106.668ZM151.343 102.026H153.939C154.54 102.026 154.988 101.916 155.281 101.696C155.589 101.476 155.743 101.161 155.743 100.75C155.743 100.325 155.589 100.009 155.281 99.804C154.988 99.5987 154.54 99.496 153.939 99.496H151.343V102.026ZM167.668 109.176C166.319 109.176 165.131 108.912 164.104 108.384C163.092 107.856 162.308 107.137 161.75 106.228C161.193 105.304 160.914 104.255 160.914 103.082C160.914 101.894 161.186 100.845 161.728 99.936C162.286 99.012 163.041 98.2933 163.994 97.78C164.948 97.252 166.026 96.988 167.228 96.988C168.387 96.988 169.428 97.2373 170.352 97.736C171.291 98.22 172.032 98.924 172.574 99.848C173.117 100.757 173.388 101.85 173.388 103.126C173.388 103.258 173.381 103.412 173.366 103.588C173.352 103.749 173.337 103.903 173.322 104.05H163.708V102.048H171.518L170.198 102.642C170.198 102.026 170.074 101.491 169.824 101.036C169.575 100.581 169.23 100.229 168.79 99.98C168.35 99.716 167.837 99.584 167.25 99.584C166.664 99.584 166.143 99.716 165.688 99.98C165.248 100.229 164.904 100.589 164.654 101.058C164.405 101.513 164.28 102.055 164.28 102.686V103.214C164.28 103.859 164.42 104.431 164.698 104.93C164.992 105.414 165.395 105.788 165.908 106.052C166.436 106.301 167.052 106.426 167.756 106.426C168.387 106.426 168.937 106.331 169.406 106.14C169.89 105.949 170.33 105.663 170.726 105.282L172.552 107.262C172.01 107.878 171.328 108.355 170.506 108.692C169.685 109.015 168.739 109.176 167.668 109.176ZM178.141 109V99.188L178.911 99.98H174.137V97.164H185.555V99.98H180.781L181.551 99.188V109H178.141Z" fill="white"/>
<path d="M27.598 138V128.816L27.878 129.096H24.154V128.2H32.064V129.096H28.354L28.62 128.816V138H27.598ZM33.292 140.786C32.9466 140.786 32.6153 140.73 32.298 140.618C31.99 140.506 31.724 140.338 31.5 140.114L31.962 139.372C32.1486 139.549 32.3493 139.685 32.564 139.778C32.788 139.881 33.0353 139.932 33.306 139.932C33.6326 139.932 33.9126 139.839 34.146 139.652C34.3886 139.475 34.6173 139.157 34.832 138.7L35.308 137.622L35.42 137.468L38.444 130.65H39.424L35.742 138.882C35.5366 139.358 35.308 139.736 35.056 140.016C34.8133 140.296 34.5473 140.492 34.258 140.604C33.9686 140.725 33.6466 140.786 33.292 140.786ZM35.252 138.21L31.864 130.65H32.9L35.896 137.398L35.252 138.21ZM42.3726 138V131.252L42.6246 131.518H39.5866V130.65H46.1526V131.518H43.1146L43.3666 131.252V138H42.3726ZM51.2538 138V130.65H54.5018C55.3325 130.65 55.9858 130.809 56.4618 131.126C56.9472 131.443 57.1898 131.91 57.1898 132.526C57.1898 133.123 56.9612 133.585 56.5038 133.912C56.0465 134.229 55.4445 134.388 54.6978 134.388L54.8938 134.094C55.7712 134.094 56.4152 134.257 56.8258 134.584C57.2365 134.911 57.4418 135.382 57.4418 135.998C57.4418 136.633 57.2085 137.127 56.7418 137.482C56.2845 137.827 55.5705 138 54.5998 138H51.2538ZM52.2198 137.216H54.5578C55.1832 137.216 55.6545 137.118 55.9718 136.922C56.2985 136.717 56.4618 136.39 56.4618 135.942C56.4618 135.494 56.3172 135.167 56.0278 134.962C55.7385 134.757 55.2812 134.654 54.6558 134.654H52.2198V137.216ZM52.2198 133.912H54.4318C55.0012 133.912 55.4352 133.805 55.7338 133.59C56.0418 133.375 56.1958 133.063 56.1958 132.652C56.1958 132.241 56.0418 131.933 55.7338 131.728C55.4352 131.523 55.0012 131.42 54.4318 131.42H52.2198V133.912ZM66.9394 138V130.65H67.9334V138H66.9394ZM62.8654 133.24C63.7894 133.249 64.4941 133.455 64.9794 133.856C65.4648 134.257 65.7074 134.836 65.7074 135.592C65.7074 136.376 65.4461 136.978 64.9234 137.398C64.4008 137.818 63.6541 138.023 62.6834 138.014L59.7714 138V130.65H60.7654V133.212L62.8654 133.24ZM62.6134 137.258C63.3041 137.267 63.8221 137.132 64.1674 136.852C64.5221 136.563 64.6994 136.143 64.6994 135.592C64.6994 135.041 64.5268 134.64 64.1814 134.388C63.8361 134.127 63.3134 133.991 62.6134 133.982L60.7654 133.954V137.23L62.6134 137.258ZM74.4277 138V130.65H75.4217V133.898H80.0557V130.65H81.0497V138H80.0557V134.752H75.4217V138H74.4277ZM88.4389 138V136.376L88.3969 136.11V133.394C88.3969 132.769 88.2196 132.288 87.8649 131.952C87.5196 131.616 87.0016 131.448 86.3109 131.448C85.8349 131.448 85.3823 131.527 84.9529 131.686C84.5236 131.845 84.1596 132.055 83.8609 132.316L83.4129 131.574C83.7863 131.257 84.2343 131.014 84.7569 130.846C85.2796 130.669 85.8303 130.58 86.4089 130.58C87.3609 130.58 88.0936 130.818 88.6069 131.294C89.1296 131.761 89.3909 132.475 89.3909 133.436V138H88.4389ZM85.9049 138.07C85.3543 138.07 84.8736 137.981 84.4629 137.804C84.0616 137.617 83.7536 137.365 83.5389 137.048C83.3243 136.721 83.2169 136.348 83.2169 135.928C83.2169 135.545 83.3056 135.2 83.4829 134.892C83.6696 134.575 83.9683 134.323 84.3789 134.136C84.7989 133.94 85.3589 133.842 86.0589 133.842H88.5929V134.584H86.0869C85.3776 134.584 84.8829 134.71 84.6029 134.962C84.3323 135.214 84.1969 135.527 84.1969 135.9C84.1969 136.32 84.3603 136.656 84.6869 136.908C85.0136 137.16 85.4709 137.286 86.0589 137.286C86.6189 137.286 87.0996 137.16 87.5009 136.908C87.9116 136.647 88.2103 136.273 88.3969 135.788L88.6209 136.474C88.4343 136.959 88.1076 137.347 87.6409 137.636C87.1836 137.925 86.6049 138.07 85.9049 138.07ZM92.037 138V130.65H93.031V136.488L97.945 130.65H98.827V138H97.833V132.148L92.933 138H92.037ZM95.369 129.586C94.753 129.586 94.2537 129.432 93.871 129.124C93.4977 128.807 93.3017 128.354 93.283 127.766H93.997C94.0064 128.139 94.137 128.433 94.389 128.648C94.641 128.863 94.9677 128.97 95.369 128.97C95.7704 128.97 96.097 128.863 96.349 128.648C96.6104 128.433 96.7457 128.139 96.755 127.766H97.469C97.4597 128.354 97.2637 128.807 96.881 129.124C96.4984 129.432 95.9944 129.586 95.369 129.586ZM106.716 137.524V131.518H103.174L103.09 133.156C103.071 133.651 103.038 134.136 102.992 134.612C102.954 135.088 102.884 135.527 102.782 135.928C102.688 136.32 102.553 136.642 102.376 136.894C102.198 137.137 101.97 137.277 101.69 137.314L100.696 137.132C100.985 137.141 101.223 137.039 101.41 136.824C101.596 136.6 101.741 136.297 101.844 135.914C101.946 135.531 102.021 135.097 102.068 134.612C102.114 134.117 102.152 133.613 102.18 133.1L102.278 130.65H107.71V137.524H106.716ZM100.388 139.778V137.132H108.858V139.778H107.92V138H101.326V139.778H100.388ZM113.945 138.07C113.18 138.07 112.508 137.911 111.929 137.594C111.35 137.267 110.898 136.824 110.571 136.264C110.244 135.695 110.081 135.046 110.081 134.318C110.081 133.59 110.235 132.946 110.543 132.386C110.86 131.826 111.29 131.387 111.831 131.07C112.382 130.743 112.998 130.58 113.679 130.58C114.37 130.58 114.981 130.739 115.513 131.056C116.054 131.364 116.479 131.803 116.787 132.372C117.095 132.932 117.249 133.581 117.249 134.318C117.249 134.365 117.244 134.416 117.235 134.472C117.235 134.519 117.235 134.57 117.235 134.626H110.837V133.884H116.703L116.311 134.178C116.311 133.646 116.194 133.175 115.961 132.764C115.737 132.344 115.429 132.017 115.037 131.784C114.645 131.551 114.192 131.434 113.679 131.434C113.175 131.434 112.722 131.551 112.321 131.784C111.92 132.017 111.607 132.344 111.383 132.764C111.159 133.184 111.047 133.665 111.047 134.206V134.36C111.047 134.92 111.168 135.415 111.411 135.844C111.663 136.264 112.008 136.595 112.447 136.838C112.895 137.071 113.404 137.188 113.973 137.188C114.421 137.188 114.836 137.109 115.219 136.95C115.611 136.791 115.947 136.549 116.227 136.222L116.787 136.866C116.46 137.258 116.05 137.557 115.555 137.762C115.07 137.967 114.533 138.07 113.945 138.07ZM120.521 138V131.252L120.773 131.518H117.735V130.65H124.301V131.518H121.263L121.515 131.252V138H120.521ZM128.546 138.07C127.781 138.07 127.109 137.911 126.53 137.594C125.952 137.267 125.499 136.824 125.172 136.264C124.846 135.695 124.682 135.046 124.682 134.318C124.682 133.59 124.836 132.946 125.144 132.386C125.462 131.826 125.891 131.387 126.432 131.07C126.983 130.743 127.599 130.58 128.28 130.58C128.971 130.58 129.582 130.739 130.114 131.056C130.656 131.364 131.08 131.803 131.388 132.372C131.696 132.932 131.85 133.581 131.85 134.318C131.85 134.365 131.846 134.416 131.836 134.472C131.836 134.519 131.836 134.57 131.836 134.626H125.438V133.884H131.304L130.912 134.178C130.912 133.646 130.796 133.175 130.562 132.764C130.338 132.344 130.03 132.017 129.638 131.784C129.246 131.551 128.794 131.434 128.28 131.434C127.776 131.434 127.324 131.551 126.922 131.784C126.521 132.017 126.208 132.344 125.984 132.764C125.76 133.184 125.648 133.665 125.648 134.206V134.36C125.648 134.92 125.77 135.415 126.012 135.844C126.264 136.264 126.61 136.595 127.048 136.838C127.496 137.071 128.005 137.188 128.574 137.188C129.022 137.188 129.438 137.109 129.82 136.95C130.212 136.791 130.548 136.549 130.828 136.222L131.388 136.866C131.062 137.258 130.651 137.557 130.156 137.762C129.671 137.967 129.134 138.07 128.546 138.07ZM140.739 138.07C140.029 138.07 139.39 137.911 138.821 137.594C138.261 137.267 137.817 136.824 137.491 136.264C137.164 135.695 137.001 135.046 137.001 134.318C137.001 133.581 137.164 132.932 137.491 132.372C137.817 131.812 138.261 131.373 138.821 131.056C139.381 130.739 140.02 130.58 140.739 130.58C141.467 130.58 142.111 130.739 142.671 131.056C143.24 131.373 143.683 131.812 144.001 132.372C144.327 132.932 144.491 133.581 144.491 134.318C144.491 135.046 144.327 135.695 144.001 136.264C143.683 136.824 143.24 137.267 142.671 137.594C142.101 137.911 141.457 138.07 140.739 138.07ZM140.739 137.188C141.271 137.188 141.742 137.071 142.153 136.838C142.563 136.595 142.885 136.259 143.119 135.83C143.361 135.391 143.483 134.887 143.483 134.318C143.483 133.739 143.361 133.235 143.119 132.806C142.885 132.377 142.563 132.045 142.153 131.812C141.742 131.569 141.275 131.448 140.753 131.448C140.23 131.448 139.763 131.569 139.353 131.812C138.942 132.045 138.615 132.377 138.373 132.806C138.13 133.235 138.009 133.739 138.009 134.318C138.009 134.887 138.13 135.391 138.373 135.83C138.615 136.259 138.942 136.595 139.353 136.838C139.763 137.071 140.225 137.188 140.739 137.188ZM147.742 138V131.252L147.994 131.518H144.956V130.65H151.522V131.518H148.484L148.736 131.252V138H147.742ZM152.959 138V130.65H156.207C157.038 130.65 157.691 130.809 158.167 131.126C158.652 131.443 158.895 131.91 158.895 132.526C158.895 133.123 158.666 133.585 158.209 133.912C157.752 134.229 157.15 134.388 156.403 134.388L156.599 134.094C157.476 134.094 158.12 134.257 158.531 134.584C158.942 134.911 159.147 135.382 159.147 135.998C159.147 136.633 158.914 137.127 158.447 137.482C157.99 137.827 157.276 138 156.305 138H152.959ZM153.925 137.216H156.263C156.888 137.216 157.36 137.118 157.677 136.922C158.004 136.717 158.167 136.39 158.167 135.942C158.167 135.494 158.022 135.167 157.733 134.962C157.444 134.757 156.986 134.654 156.361 134.654H153.925V137.216ZM153.925 133.912H156.137C156.706 133.912 157.14 133.805 157.439 133.59C157.747 133.375 157.901 133.063 157.901 132.652C157.901 132.241 157.747 131.933 157.439 131.728C157.14 131.523 156.706 131.42 156.137 131.42H153.925V133.912ZM164.627 138.07C163.861 138.07 163.189 137.911 162.611 137.594C162.032 137.267 161.579 136.824 161.253 136.264C160.926 135.695 160.763 135.046 160.763 134.318C160.763 133.59 160.917 132.946 161.225 132.386C161.542 131.826 161.971 131.387 162.513 131.07C163.063 130.743 163.679 130.58 164.361 130.58C165.051 130.58 165.663 130.739 166.195 131.056C166.736 131.364 167.161 131.803 167.469 132.372C167.777 132.932 167.931 133.581 167.931 134.318C167.931 134.365 167.926 134.416 167.917 134.472C167.917 134.519 167.917 134.57 167.917 134.626H161.519V133.884H167.385L166.993 134.178C166.993 133.646 166.876 133.175 166.643 132.764C166.419 132.344 166.111 132.017 165.719 131.784C165.327 131.551 164.874 131.434 164.361 131.434C163.857 131.434 163.404 131.551 163.003 131.784C162.601 132.017 162.289 132.344 162.065 132.764C161.841 133.184 161.729 133.665 161.729 134.206V134.36C161.729 134.92 161.85 135.415 162.093 135.844C162.345 136.264 162.69 136.595 163.129 136.838C163.577 137.071 164.085 137.188 164.655 137.188C165.103 137.188 165.518 137.109 165.901 136.95C166.293 136.791 166.629 136.549 166.909 136.222L167.469 136.866C167.142 137.258 166.731 137.557 166.237 137.762C165.751 137.967 165.215 138.07 164.627 138.07ZM171.203 138V131.252L171.455 131.518H168.417V130.65H174.983V131.518H171.945L172.197 131.252V138H171.203ZM183.588 138V130.65H184.582V138H183.588ZM179.514 133.24C180.438 133.249 181.143 133.455 181.628 133.856C182.113 134.257 182.356 134.836 182.356 135.592C182.356 136.376 182.095 136.978 181.572 137.398C181.049 137.818 180.303 138.023 179.332 138.014L176.42 138V130.65H177.414V133.212L179.514 133.24ZM179.262 137.258C179.953 137.267 180.471 137.132 180.816 136.852C181.171 136.563 181.348 136.143 181.348 135.592C181.348 135.041 181.175 134.64 180.83 134.388C180.485 134.127 179.962 133.991 179.262 133.982L177.414 133.954V137.23L179.262 137.258ZM191.076 138V130.65H192.07V133.898H196.704V130.65H197.698V138H196.704V134.752H192.07V138H191.076ZM205.087 138V136.376L205.045 136.11V133.394C205.045 132.769 204.868 132.288 204.513 131.952C204.168 131.616 203.65 131.448 202.959 131.448C202.483 131.448 202.031 131.527 201.601 131.686C201.172 131.845 200.808 132.055 200.509 132.316L200.061 131.574C200.435 131.257 200.883 131.014 201.405 130.846C201.928 130.669 202.479 130.58 203.057 130.58C204.009 130.58 204.742 130.818 205.255 131.294C205.778 131.761 206.039 132.475 206.039 133.436V138H205.087ZM202.553 138.07C202.003 138.07 201.522 137.981 201.111 137.804C200.71 137.617 200.402 137.365 200.187 137.048C199.973 136.721 199.865 136.348 199.865 135.928C199.865 135.545 199.954 135.2 200.131 134.892C200.318 134.575 200.617 134.323 201.027 134.136C201.447 133.94 202.007 133.842 202.707 133.842H205.241V134.584H202.735C202.026 134.584 201.531 134.71 201.251 134.962C200.981 135.214 200.845 135.527 200.845 135.9C200.845 136.32 201.009 136.656 201.335 136.908C201.662 137.16 202.119 137.286 202.707 137.286C203.267 137.286 203.748 137.16 204.149 136.908C204.56 136.647 204.859 136.273 205.045 135.788L205.269 136.474C205.083 136.959 204.756 137.347 204.289 137.636C203.832 137.925 203.253 138.07 202.553 138.07ZM216.998 134.892C216.568 135.079 216.134 135.228 215.696 135.34C215.266 135.443 214.837 135.494 214.408 135.494C213.54 135.494 212.854 135.298 212.35 134.906C211.846 134.505 211.594 133.889 211.594 133.058V130.65H212.574V133.002C212.574 133.562 212.756 133.982 213.12 134.262C213.484 134.542 213.974 134.682 214.59 134.682C214.963 134.682 215.355 134.635 215.766 134.542C216.176 134.439 216.592 134.295 217.012 134.108L216.998 134.892ZM216.914 138V130.65H217.908V138H216.914ZM225.294 138V136.376L225.252 136.11V133.394C225.252 132.769 225.075 132.288 224.72 131.952C224.375 131.616 223.857 131.448 223.166 131.448C222.69 131.448 222.238 131.527 221.808 131.686C221.379 131.845 221.015 132.055 220.716 132.316L220.268 131.574C220.642 131.257 221.09 131.014 221.612 130.846C222.135 130.669 222.686 130.58 223.264 130.58C224.216 130.58 224.949 130.818 225.462 131.294C225.985 131.761 226.246 132.475 226.246 133.436V138H225.294ZM222.76 138.07C222.21 138.07 221.729 137.981 221.318 137.804C220.917 137.617 220.609 137.365 220.394 137.048C220.18 136.721 220.072 136.348 220.072 135.928C220.072 135.545 220.161 135.2 220.338 134.892C220.525 134.575 220.824 134.323 221.234 134.136C221.654 133.94 222.214 133.842 222.914 133.842H225.448V134.584H222.942C222.233 134.584 221.738 134.71 221.458 134.962C221.188 135.214 221.052 135.527 221.052 135.9C221.052 136.32 221.216 136.656 221.542 136.908C221.869 137.16 222.326 137.286 222.914 137.286C223.474 137.286 223.955 137.16 224.356 136.908C224.767 136.647 225.066 136.273 225.252 135.788L225.476 136.474C225.29 136.959 224.963 137.347 224.496 137.636C224.039 137.925 223.46 138.07 222.76 138.07ZM231.973 138.07C231.245 138.07 230.591 137.911 230.013 137.594C229.443 137.267 228.995 136.824 228.669 136.264C228.342 135.695 228.179 135.046 228.179 134.318C228.179 133.581 228.342 132.932 228.669 132.372C228.995 131.812 229.443 131.373 230.013 131.056C230.591 130.739 231.245 130.58 231.973 130.58C232.598 130.58 233.163 130.701 233.667 130.944C234.171 131.187 234.567 131.551 234.857 132.036L234.115 132.54C233.863 132.167 233.55 131.891 233.177 131.714C232.803 131.537 232.397 131.448 231.959 131.448C231.436 131.448 230.965 131.569 230.545 131.812C230.125 132.045 229.793 132.377 229.551 132.806C229.308 133.235 229.187 133.739 229.187 134.318C229.187 134.897 229.308 135.401 229.551 135.83C229.793 136.259 230.125 136.595 230.545 136.838C230.965 137.071 231.436 137.188 231.959 137.188C232.397 137.188 232.803 137.099 233.177 136.922C233.55 136.745 233.863 136.474 234.115 136.11L234.857 136.614C234.567 137.09 234.171 137.454 233.667 137.706C233.163 137.949 232.598 138.07 231.973 138.07ZM238.044 138V131.252L238.296 131.518H235.258V130.65H241.824V131.518H238.786L239.038 131.252V138H238.044ZM245.944 138.07C245.235 138.07 244.595 137.911 244.026 137.594C243.466 137.267 243.023 136.824 242.696 136.264C242.369 135.695 242.206 135.046 242.206 134.318C242.206 133.581 242.369 132.932 242.696 132.372C243.023 131.812 243.466 131.373 244.026 131.056C244.586 130.739 245.225 130.58 245.944 130.58C246.672 130.58 247.316 130.739 247.876 131.056C248.445 131.373 248.889 131.812 249.206 132.372C249.533 132.932 249.696 133.581 249.696 134.318C249.696 135.046 249.533 135.695 249.206 136.264C248.889 136.824 248.445 137.267 247.876 137.594C247.307 137.911 246.663 138.07 245.944 138.07ZM245.944 137.188C246.476 137.188 246.947 137.071 247.358 136.838C247.769 136.595 248.091 136.259 248.324 135.83C248.567 135.391 248.688 134.887 248.688 134.318C248.688 133.739 248.567 133.235 248.324 132.806C248.091 132.377 247.769 132.045 247.358 131.812C246.947 131.569 246.481 131.448 245.958 131.448C245.435 131.448 244.969 131.569 244.558 131.812C244.147 132.045 243.821 132.377 243.578 132.806C243.335 133.235 243.214 133.739 243.214 134.318C243.214 134.887 243.335 135.391 243.578 135.83C243.821 136.259 244.147 136.595 244.558 136.838C244.969 137.071 245.431 137.188 245.944 137.188ZM27.388 160.084C26.856 160.084 26.3287 160.009 25.806 159.86C25.2833 159.711 24.8213 159.482 24.42 159.174L24.742 158.432C25.0967 158.693 25.5073 158.894 25.974 159.034C26.4407 159.165 26.9027 159.23 27.36 159.23C27.8173 159.221 28.214 159.155 28.55 159.034C28.886 158.913 29.1473 158.745 29.334 158.53C29.5207 158.315 29.614 158.073 29.614 157.802C29.614 157.41 29.4367 157.107 29.082 156.892C28.7273 156.668 28.242 156.556 27.626 156.556H26.366V155.828H27.556C27.92 155.828 28.242 155.781 28.522 155.688C28.802 155.595 29.0167 155.459 29.166 155.282C29.3247 155.105 29.404 154.895 29.404 154.652C29.404 154.391 29.3107 154.167 29.124 153.98C28.9467 153.793 28.6993 153.653 28.382 153.56C28.0647 153.467 27.7053 153.42 27.304 153.42C26.94 153.429 26.562 153.485 26.17 153.588C25.778 153.681 25.3907 153.826 25.008 154.022L24.728 153.252C25.1573 153.028 25.582 152.86 26.002 152.748C26.4313 152.627 26.8607 152.566 27.29 152.566C27.878 152.547 28.4053 152.617 28.872 152.776C29.348 152.935 29.726 153.163 30.006 153.462C30.286 153.751 30.426 154.101 30.426 154.512C30.426 154.876 30.314 155.193 30.09 155.464C29.866 155.735 29.5673 155.945 29.194 156.094C28.8207 156.243 28.396 156.318 27.92 156.318L27.962 156.052C28.802 156.052 29.4553 156.215 29.922 156.542C30.398 156.869 30.636 157.312 30.636 157.872C30.636 158.311 30.4913 158.698 30.202 159.034C29.9127 159.361 29.5207 159.617 29.026 159.804C28.5407 159.991 27.9947 160.084 27.388 160.084ZM37.4565 160V158.376L37.4145 158.11V155.394C37.4145 154.769 37.2372 154.288 36.8825 153.952C36.5372 153.616 36.0192 153.448 35.3285 153.448C34.8525 153.448 34.3998 153.527 33.9705 153.686C33.5412 153.845 33.1772 154.055 32.8785 154.316L32.4305 153.574C32.8038 153.257 33.2518 153.014 33.7745 152.846C34.2972 152.669 34.8478 152.58 35.4265 152.58C36.3785 152.58 37.1112 152.818 37.6245 153.294C38.1472 153.761 38.4085 154.475 38.4085 155.436V160H37.4565ZM34.9225 160.07C34.3718 160.07 33.8912 159.981 33.4805 159.804C33.0792 159.617 32.7712 159.365 32.5565 159.048C32.3418 158.721 32.2345 158.348 32.2345 157.928C32.2345 157.545 32.3232 157.2 32.5005 156.892C32.6872 156.575 32.9858 156.323 33.3965 156.136C33.8165 155.94 34.3765 155.842 35.0765 155.842H37.6105V156.584H35.1045C34.3952 156.584 33.9005 156.71 33.6205 156.962C33.3498 157.214 33.2145 157.527 33.2145 157.9C33.2145 158.32 33.3778 158.656 33.7045 158.908C34.0312 159.16 34.4885 159.286 35.0765 159.286C35.6365 159.286 36.1172 159.16 36.5185 158.908C36.9292 158.647 37.2278 158.273 37.4145 157.788L37.6385 158.474C37.4518 158.959 37.1252 159.347 36.6585 159.636C36.2012 159.925 35.6225 160.07 34.9225 160.07ZM46.0946 159.524V153.518H42.5526L42.4686 155.156C42.45 155.651 42.4173 156.136 42.3706 156.612C42.3333 157.088 42.2633 157.527 42.1606 157.928C42.0673 158.32 41.932 158.642 41.7546 158.894C41.5773 159.137 41.3486 159.277 41.0686 159.314L40.0746 159.132C40.364 159.141 40.602 159.039 40.7886 158.824C40.9753 158.6 41.12 158.297 41.2226 157.914C41.3253 157.531 41.4 157.097 41.4466 156.612C41.4933 156.117 41.5306 155.613 41.5586 155.1L41.6566 152.65H47.0886V159.524H46.0946ZM39.7666 161.778V159.132H48.2366V161.778H47.2986V160H40.7046V161.778H39.7666ZM54.7378 160V158.376L54.6958 158.11V155.394C54.6958 154.769 54.5184 154.288 54.1638 153.952C53.8184 153.616 53.3004 153.448 52.6098 153.448C52.1338 153.448 51.6811 153.527 51.2518 153.686C50.8224 153.845 50.4584 154.055 50.1598 154.316L49.7118 153.574C50.0851 153.257 50.5331 153.014 51.0558 152.846C51.5784 152.669 52.1291 152.58 52.7078 152.58C53.6598 152.58 54.3924 152.818 54.9058 153.294C55.4284 153.761 55.6898 154.475 55.6898 155.436V160H54.7378ZM52.2038 160.07C51.6531 160.07 51.1724 159.981 50.7618 159.804C50.3604 159.617 50.0524 159.365 49.8378 159.048C49.6231 158.721 49.5158 158.348 49.5158 157.928C49.5158 157.545 49.6044 157.2 49.7818 156.892C49.9684 156.575 50.2671 156.323 50.6778 156.136C51.0978 155.94 51.6578 155.842 52.3578 155.842H54.8918V156.584H52.3858C51.6764 156.584 51.1818 156.71 50.9018 156.962C50.6311 157.214 50.4958 157.527 50.4958 157.9C50.4958 158.32 50.6591 158.656 50.9858 158.908C51.3124 159.16 51.7698 159.286 52.3578 159.286C52.9178 159.286 53.3984 159.16 53.7998 158.908C54.2104 158.647 54.5091 158.273 54.6958 157.788L54.9198 158.474C54.7331 158.959 54.4064 159.347 53.9398 159.636C53.4824 159.925 52.9038 160.07 52.2038 160.07ZM58.3359 160V152.65H61.5839C62.4145 152.65 63.0679 152.809 63.5439 153.126C64.0292 153.443 64.2719 153.91 64.2719 154.526C64.2719 155.123 64.0432 155.585 63.5859 155.912C63.1285 156.229 62.5265 156.388 61.7799 156.388L61.9759 156.094C62.8532 156.094 63.4972 156.257 63.9079 156.584C64.3185 156.911 64.5239 157.382 64.5239 157.998C64.5239 158.633 64.2905 159.127 63.8239 159.482C63.3665 159.827 62.6525 160 61.6819 160H58.3359ZM59.3019 159.216H61.6399C62.2652 159.216 62.7365 159.118 63.0539 158.922C63.3805 158.717 63.5439 158.39 63.5439 157.942C63.5439 157.494 63.3992 157.167 63.1099 156.962C62.8205 156.757 62.3632 156.654 61.7379 156.654H59.3019V159.216ZM59.3019 155.912H61.5139C62.0832 155.912 62.5172 155.805 62.8159 155.59C63.1239 155.375 63.2779 155.063 63.2779 154.652C63.2779 154.241 63.1239 153.933 62.8159 153.728C62.5172 153.523 62.0832 153.42 61.5139 153.42H59.3019V155.912ZM71.4175 160V158.376L71.3755 158.11V155.394C71.3755 154.769 71.1981 154.288 70.8435 153.952C70.4981 153.616 69.9801 153.448 69.2895 153.448C68.8135 153.448 68.3608 153.527 67.9315 153.686C67.5021 153.845 67.1381 154.055 66.8395 154.316L66.3915 153.574C66.7648 153.257 67.2128 153.014 67.7355 152.846C68.2581 152.669 68.8088 152.58 69.3875 152.58C70.3395 152.58 71.0721 152.818 71.5855 153.294C72.1081 153.761 72.3695 154.475 72.3695 155.436V160H71.4175ZM68.8835 160.07C68.3328 160.07 67.8521 159.981 67.4415 159.804C67.0401 159.617 66.7321 159.365 66.5175 159.048C66.3028 158.721 66.1955 158.348 66.1955 157.928C66.1955 157.545 66.2841 157.2 66.4615 156.892C66.6481 156.575 66.9468 156.323 67.3575 156.136C67.7775 155.94 68.3375 155.842 69.0375 155.842H71.5715V156.584H69.0655C68.3561 156.584 67.8615 156.71 67.5815 156.962C67.3108 157.214 67.1755 157.527 67.1755 157.9C67.1755 158.32 67.3388 158.656 67.6655 158.908C67.9921 159.16 68.4495 159.286 69.0375 159.286C69.5975 159.286 70.0781 159.16 70.4795 158.908C70.8901 158.647 71.1888 158.273 71.3755 157.788L71.5995 158.474C71.4128 158.959 71.0861 159.347 70.6195 159.636C70.1621 159.925 69.5835 160.07 68.8835 160.07ZM78.1656 160.07C77.4002 160.07 76.7282 159.911 76.1496 159.594C75.5709 159.267 75.1182 158.824 74.7916 158.264C74.4649 157.695 74.3016 157.046 74.3016 156.318C74.3016 155.59 74.4556 154.946 74.7636 154.386C75.0809 153.826 75.5102 153.387 76.0516 153.07C76.6022 152.743 77.2182 152.58 77.8996 152.58C78.5902 152.58 79.2016 152.739 79.7336 153.056C80.2749 153.364 80.6996 153.803 81.0076 154.372C81.3156 154.932 81.4696 155.581 81.4696 156.318C81.4696 156.365 81.4649 156.416 81.4556 156.472C81.4556 156.519 81.4556 156.57 81.4556 156.626H75.0576V155.884H80.9236L80.5316 156.178C80.5316 155.646 80.4149 155.175 80.1816 154.764C79.9576 154.344 79.6496 154.017 79.2576 153.784C78.8656 153.551 78.4129 153.434 77.8996 153.434C77.3956 153.434 76.9429 153.551 76.5416 153.784C76.1402 154.017 75.8276 154.344 75.6036 154.764C75.3796 155.184 75.2676 155.665 75.2676 156.206V156.36C75.2676 156.92 75.3889 157.415 75.6316 157.844C75.8836 158.264 76.2289 158.595 76.6676 158.838C77.1156 159.071 77.6242 159.188 78.1936 159.188C78.6416 159.188 79.0569 159.109 79.4396 158.95C79.8316 158.791 80.1676 158.549 80.4476 158.222L81.0076 158.866C80.6809 159.258 80.2702 159.557 79.7756 159.762C79.2902 159.967 78.7536 160.07 78.1656 160.07ZM83.6699 160V152.65H84.6779L88.0099 158.292H87.5899L90.9779 152.65H91.9019V160H90.9919V153.784L91.1739 153.868L88.0099 159.104H87.5619L84.3699 153.812L84.5799 153.77V160H83.6699ZM101.898 160V152.65H102.892V160H101.898ZM97.8244 155.24C98.7484 155.249 99.4531 155.455 99.9384 155.856C100.424 156.257 100.666 156.836 100.666 157.592C100.666 158.376 100.405 158.978 99.8824 159.398C99.3597 159.818 98.6131 160.023 97.6424 160.014L94.7304 160V152.65H95.7244V155.212L97.8244 155.24ZM97.5724 159.258C98.2631 159.267 98.7811 159.132 99.1264 158.852C99.4811 158.563 99.6584 158.143 99.6584 157.592C99.6584 157.041 99.4857 156.64 99.1404 156.388C98.7951 156.127 98.2724 155.991 97.5724 155.982L95.7244 155.954V159.23L97.5724 159.258ZM108.873 160.07C108.107 160.07 107.435 159.911 106.857 159.594C106.278 159.267 105.825 158.824 105.499 158.264C105.172 157.695 105.009 157.046 105.009 156.318C105.009 155.59 105.163 154.946 105.471 154.386C105.788 153.826 106.217 153.387 106.759 153.07C107.309 152.743 107.925 152.58 108.607 152.58C109.297 152.58 109.909 152.739 110.441 153.056C110.982 153.364 111.407 153.803 111.715 154.372C112.023 154.932 112.177 155.581 112.177 156.318C112.177 156.365 112.172 156.416 112.163 156.472C112.163 156.519 112.163 156.57 112.163 156.626H105.765V155.884H111.631L111.239 156.178C111.239 155.646 111.122 155.175 110.889 154.764C110.665 154.344 110.357 154.017 109.965 153.784C109.573 153.551 109.12 153.434 108.607 153.434C108.103 153.434 107.65 153.551 107.249 153.784C106.847 154.017 106.535 154.344 106.311 154.764C106.087 155.184 105.975 155.665 105.975 156.206V156.36C105.975 156.92 106.096 157.415 106.339 157.844C106.591 158.264 106.936 158.595 107.375 158.838C107.823 159.071 108.331 159.188 108.901 159.188C109.349 159.188 109.764 159.109 110.147 158.95C110.539 158.791 110.875 158.549 111.155 158.222L111.715 158.866C111.388 159.258 110.977 159.557 110.483 159.762C109.997 159.967 109.461 160.07 108.873 160.07ZM118.041 160V152.65H121.289C122.12 152.65 122.773 152.809 123.249 153.126C123.734 153.443 123.977 153.91 123.977 154.526C123.977 155.123 123.748 155.585 123.291 155.912C122.834 156.229 122.232 156.388 121.485 156.388L121.681 156.094C122.558 156.094 123.202 156.257 123.613 156.584C124.024 156.911 124.229 157.382 124.229 157.998C124.229 158.633 123.996 159.127 123.529 159.482C123.072 159.827 122.358 160 121.387 160H118.041ZM119.007 159.216H121.345C121.97 159.216 122.442 159.118 122.759 158.922C123.086 158.717 123.249 158.39 123.249 157.942C123.249 157.494 123.104 157.167 122.815 156.962C122.526 156.757 122.068 156.654 121.443 156.654H119.007V159.216ZM119.007 155.912H121.219C121.788 155.912 122.222 155.805 122.521 155.59C122.829 155.375 122.983 155.063 122.983 154.652C122.983 154.241 122.829 153.933 122.521 153.728C122.222 153.523 121.788 153.42 121.219 153.42H119.007V155.912ZM129.583 160.07C128.873 160.07 128.234 159.911 127.665 159.594C127.105 159.267 126.661 158.824 126.335 158.264C126.008 157.695 125.845 157.046 125.845 156.318C125.845 155.581 126.008 154.932 126.335 154.372C126.661 153.812 127.105 153.373 127.665 153.056C128.225 152.739 128.864 152.58 129.583 152.58C130.311 152.58 130.955 152.739 131.515 153.056C132.084 153.373 132.527 153.812 132.845 154.372C133.171 154.932 133.335 155.581 133.335 156.318C133.335 157.046 133.171 157.695 132.845 158.264C132.527 158.824 132.084 159.267 131.515 159.594C130.945 159.911 130.301 160.07 129.583 160.07ZM129.583 159.188C130.115 159.188 130.586 159.071 130.997 158.838C131.407 158.595 131.729 158.259 131.963 157.83C132.205 157.391 132.327 156.887 132.327 156.318C132.327 155.739 132.205 155.235 131.963 154.806C131.729 154.377 131.407 154.045 130.997 153.812C130.586 153.569 130.119 153.448 129.597 153.448C129.074 153.448 128.607 153.569 128.197 153.812C127.786 154.045 127.459 154.377 127.217 154.806C126.974 155.235 126.853 155.739 126.853 156.318C126.853 156.887 126.974 157.391 127.217 157.83C127.459 158.259 127.786 158.595 128.197 158.838C128.607 159.071 129.069 159.188 129.583 159.188ZM135.459 160V152.65H142.067V160H141.073V153.252L141.325 153.518H136.201L136.453 153.252V160H135.459ZM148.687 160.07C148.052 160.07 147.478 159.925 146.965 159.636C146.451 159.337 146.041 158.913 145.733 158.362C145.434 157.802 145.285 157.121 145.285 156.318C145.285 155.515 145.434 154.839 145.733 154.288C146.031 153.728 146.437 153.303 146.951 153.014C147.464 152.725 148.043 152.58 148.687 152.58C149.387 152.58 150.012 152.739 150.563 153.056C151.123 153.364 151.561 153.803 151.879 154.372C152.196 154.932 152.355 155.581 152.355 156.318C152.355 157.065 152.196 157.718 151.879 158.278C151.561 158.838 151.123 159.277 150.563 159.594C150.012 159.911 149.387 160.07 148.687 160.07ZM144.893 162.716V152.65H145.845V154.862L145.747 156.332L145.887 157.816V162.716H144.893ZM148.617 159.188C149.139 159.188 149.606 159.071 150.017 158.838C150.427 158.595 150.754 158.259 150.997 157.83C151.239 157.391 151.361 156.887 151.361 156.318C151.361 155.749 151.239 155.249 150.997 154.82C150.754 154.391 150.427 154.055 150.017 153.812C149.606 153.569 149.139 153.448 148.617 153.448C148.094 153.448 147.623 153.569 147.203 153.812C146.792 154.055 146.465 154.391 146.223 154.82C145.989 155.249 145.873 155.749 145.873 156.318C145.873 156.887 145.989 157.391 146.223 157.83C146.465 158.259 146.792 158.595 147.203 158.838C147.623 159.071 148.094 159.188 148.617 159.188ZM157.514 160.07C156.805 160.07 156.166 159.911 155.596 159.594C155.036 159.267 154.593 158.824 154.266 158.264C153.94 157.695 153.776 157.046 153.776 156.318C153.776 155.581 153.94 154.932 154.266 154.372C154.593 153.812 155.036 153.373 155.596 153.056C156.156 152.739 156.796 152.58 157.514 152.58C158.242 152.58 158.886 152.739 159.446 153.056C160.016 153.373 160.459 153.812 160.776 154.372C161.103 154.932 161.266 155.581 161.266 156.318C161.266 157.046 161.103 157.695 160.776 158.264C160.459 158.824 160.016 159.267 159.446 159.594C158.877 159.911 158.233 160.07 157.514 160.07ZM157.514 159.188C158.046 159.188 158.518 159.071 158.928 158.838C159.339 158.595 159.661 158.259 159.894 157.83C160.137 157.391 160.258 156.887 160.258 156.318C160.258 155.739 160.137 155.235 159.894 154.806C159.661 154.377 159.339 154.045 158.928 153.812C158.518 153.569 158.051 153.448 157.528 153.448C157.006 153.448 156.539 153.569 156.128 153.812C155.718 154.045 155.391 154.377 155.148 154.806C154.906 155.235 154.784 155.739 154.784 156.318C154.784 156.887 154.906 157.391 155.148 157.83C155.391 158.259 155.718 158.595 156.128 158.838C156.539 159.071 157.001 159.188 157.514 159.188ZM166.471 160.07C165.743 160.07 165.089 159.911 164.511 159.594C163.941 159.267 163.493 158.824 163.167 158.264C162.84 157.695 162.677 157.046 162.677 156.318C162.677 155.581 162.84 154.932 163.167 154.372C163.493 153.812 163.941 153.373 164.511 153.056C165.089 152.739 165.743 152.58 166.471 152.58C167.096 152.58 167.661 152.701 168.165 152.944C168.669 153.187 169.065 153.551 169.355 154.036L168.613 154.54C168.361 154.167 168.048 153.891 167.675 153.714C167.301 153.537 166.895 153.448 166.457 153.448C165.934 153.448 165.463 153.569 165.043 153.812C164.623 154.045 164.291 154.377 164.049 154.806C163.806 155.235 163.685 155.739 163.685 156.318C163.685 156.897 163.806 157.401 164.049 157.83C164.291 158.259 164.623 158.595 165.043 158.838C165.463 159.071 165.934 159.188 166.457 159.188C166.895 159.188 167.301 159.099 167.675 158.922C168.048 158.745 168.361 158.474 168.613 158.11L169.355 158.614C169.065 159.09 168.669 159.454 168.165 159.706C167.661 159.949 167.096 160.07 166.471 160.07ZM178.447 160V152.65H179.441V160H178.447ZM174.373 155.24C175.297 155.249 176.002 155.455 176.487 155.856C176.973 156.257 177.215 156.836 177.215 157.592C177.215 158.376 176.954 158.978 176.431 159.398C175.909 159.818 175.162 160.023 174.191 160.014L171.279 160V152.65H172.273V155.212L174.373 155.24ZM174.121 159.258C174.812 159.267 175.33 159.132 175.675 158.852C176.03 158.563 176.207 158.143 176.207 157.592C176.207 157.041 176.035 156.64 175.689 156.388C175.344 156.127 174.821 155.991 174.121 155.982L172.273 155.954V159.23L174.121 159.258Z" fill="white"/>
<rect width="280" height="54" transform="translate(24 190)" fill="white"/>
<path d="M129.936 222.112C129.189 222.112 128.494 221.986 127.85 221.734C127.215 221.482 126.665 221.132 126.198 220.684C125.731 220.227 125.367 219.695 125.106 219.088C124.845 218.481 124.714 217.819 124.714 217.1C124.714 216.381 124.845 215.719 125.106 215.112C125.367 214.505 125.731 213.978 126.198 213.53C126.665 213.073 127.215 212.718 127.85 212.466C128.485 212.214 129.18 212.088 129.936 212.088C130.683 212.088 131.369 212.214 131.994 212.466C132.629 212.709 133.179 213.059 133.646 213.516C134.122 213.964 134.486 214.491 134.738 215.098C134.999 215.705 135.13 216.372 135.13 217.1C135.13 217.828 134.999 218.495 134.738 219.102C134.486 219.709 134.122 220.241 133.646 220.698C133.179 221.146 132.629 221.496 131.994 221.748C131.369 221.991 130.683 222.112 129.936 222.112ZM129.936 220.866C130.477 220.866 130.977 220.773 131.434 220.586C131.901 220.399 132.302 220.138 132.638 219.802C132.983 219.457 133.249 219.055 133.436 218.598C133.632 218.141 133.73 217.641 133.73 217.1C133.73 216.559 133.632 216.059 133.436 215.602C133.249 215.145 132.983 214.748 132.638 214.412C132.302 214.067 131.901 213.801 131.434 213.614C130.977 213.427 130.477 213.334 129.936 213.334C129.385 213.334 128.877 213.427 128.41 213.614C127.953 213.801 127.551 214.067 127.206 214.412C126.861 214.748 126.59 215.145 126.394 215.602C126.207 216.059 126.114 216.559 126.114 217.1C126.114 217.641 126.207 218.141 126.394 218.598C126.59 219.055 126.861 219.457 127.206 219.802C127.551 220.138 127.953 220.399 128.41 220.586C128.877 220.773 129.385 220.866 129.936 220.866ZM138.475 222V215.406L138.811 215.756H135.759V214.58H142.535V215.756H139.497L139.819 215.406V222H138.475ZM143.909 222V214.58H150.783V222H149.439V215.42L149.761 215.756H144.931L145.253 215.42V222H143.909ZM157.318 222.084C156.702 222.084 156.137 221.944 155.624 221.664C155.12 221.375 154.714 220.95 154.406 220.39C154.107 219.83 153.958 219.13 153.958 218.29C153.958 217.45 154.103 216.75 154.392 216.19C154.691 215.63 155.092 215.21 155.596 214.93C156.109 214.65 156.683 214.51 157.318 214.51C158.046 214.51 158.69 214.669 159.25 214.986C159.81 215.303 160.253 215.747 160.58 216.316C160.907 216.876 161.07 217.534 161.07 218.29C161.07 219.046 160.907 219.709 160.58 220.278C160.253 220.847 159.81 221.291 159.25 221.608C158.69 221.925 158.046 222.084 157.318 222.084ZM153.384 224.716V214.58H154.672V216.582L154.588 218.304L154.728 220.026V224.716H153.384ZM157.206 220.908C157.682 220.908 158.107 220.801 158.48 220.586C158.863 220.371 159.161 220.068 159.376 219.676C159.6 219.275 159.712 218.813 159.712 218.29C159.712 217.758 159.6 217.301 159.376 216.918C159.161 216.526 158.863 216.223 158.48 216.008C158.107 215.793 157.682 215.686 157.206 215.686C156.739 215.686 156.315 215.793 155.932 216.008C155.559 216.223 155.26 216.526 155.036 216.918C154.821 217.301 154.714 217.758 154.714 218.29C154.714 218.813 154.821 219.275 155.036 219.676C155.26 220.068 155.559 220.371 155.932 220.586C156.315 220.801 156.739 220.908 157.206 220.908ZM167.504 222V220.432L167.434 220.138V217.464C167.434 216.895 167.266 216.456 166.93 216.148C166.604 215.831 166.109 215.672 165.446 215.672C165.008 215.672 164.578 215.747 164.158 215.896C163.738 216.036 163.384 216.227 163.094 216.47L162.534 215.462C162.917 215.154 163.374 214.921 163.906 214.762C164.448 214.594 165.012 214.51 165.6 214.51C166.618 214.51 167.402 214.757 167.952 215.252C168.503 215.747 168.778 216.503 168.778 217.52V222H167.504ZM165.068 222.084C164.518 222.084 164.032 221.991 163.612 221.804C163.202 221.617 162.884 221.361 162.66 221.034C162.436 220.698 162.324 220.32 162.324 219.9C162.324 219.499 162.418 219.135 162.604 218.808C162.8 218.481 163.113 218.22 163.542 218.024C163.981 217.828 164.569 217.73 165.306 217.73H167.658V218.696H165.362C164.69 218.696 164.238 218.808 164.004 219.032C163.771 219.256 163.654 219.527 163.654 219.844C163.654 220.208 163.799 220.502 164.088 220.726C164.378 220.941 164.779 221.048 165.292 221.048C165.796 221.048 166.235 220.936 166.608 220.712C166.991 220.488 167.266 220.161 167.434 219.732L167.7 220.656C167.523 221.095 167.21 221.445 166.762 221.706C166.314 221.958 165.75 222.084 165.068 222.084ZM171.198 222V214.58H174.642C175.51 214.58 176.192 214.748 176.686 215.084C177.19 215.411 177.442 215.877 177.442 216.484C177.442 217.091 177.204 217.562 176.728 217.898C176.262 218.225 175.641 218.388 174.866 218.388L175.076 218.024C175.963 218.024 176.621 218.187 177.05 218.514C177.48 218.841 177.694 219.321 177.694 219.956C177.694 220.6 177.452 221.104 176.966 221.468C176.49 221.823 175.758 222 174.768 222H171.198ZM172.514 220.964H174.67C175.23 220.964 175.65 220.88 175.93 220.712C176.21 220.535 176.35 220.255 176.35 219.872C176.35 219.48 176.22 219.195 175.958 219.018C175.706 218.831 175.305 218.738 174.754 218.738H172.514V220.964ZM172.514 217.772H174.53C175.044 217.772 175.431 217.679 175.692 217.492C175.963 217.296 176.098 217.025 176.098 216.68C176.098 216.325 175.963 216.059 175.692 215.882C175.431 215.705 175.044 215.616 174.53 215.616H172.514V217.772ZM179.798 222V214.58H181.142V219.984L185.692 214.58H186.91V222H185.566V216.596L181.03 222H179.798ZM190.989 222V215.406L191.325 215.756H188.273V214.58H195.049V215.756H192.011L192.333 215.406V222H190.989ZM199.853 217.1C200.796 217.109 201.514 217.324 202.009 217.744C202.504 218.164 202.751 218.757 202.751 219.522C202.751 220.325 202.48 220.945 201.939 221.384C201.398 221.813 200.632 222.023 199.643 222.014L196.423 222V214.58H197.767V217.086L199.853 217.1ZM199.531 220.992C200.138 221.001 200.595 220.88 200.903 220.628C201.22 220.376 201.379 220.003 201.379 219.508C201.379 219.023 201.225 218.668 200.917 218.444C200.609 218.22 200.147 218.103 199.531 218.094L197.767 218.066V220.978L199.531 220.992Z" fill="#141414"/>
</svg>
