<svg width="708" height="126" viewBox="0 0 708 126" fill="none" xmlns="http://www.w3.org/2000/svg">
<rect width="708" height="126" fill="#29A1F8"/>
<path d="M47.1502 57.9997C47.542 56.8858 48.3154 55.9465 49.3334 55.3482C50.3514 54.7499 51.5483 54.5312 52.7121 54.7309C53.8759 54.9305 54.9315 55.5355 55.692 56.4389C56.4524 57.3422 56.8686 58.4855 56.8668 59.6663C56.8668 62.9997 51.8668 64.6663 51.8668 64.6663M52.0002 71.333H52.0168M68.6668 62.9997C68.6668 72.2044 61.2049 79.6663 52.0002 79.6663C42.7954 79.6663 35.3335 72.2044 35.3335 62.9997C35.3335 53.7949 42.7954 46.333 52.0002 46.333C61.2049 46.333 68.6668 53.7949 68.6668 62.9997Z" stroke="white" stroke-width="2" stroke-linecap="round" stroke-linejoin="round"/>
<path d="M98.262 57V38.8H106.738C108.853 38.8 110.499 39.2073 111.678 40.022C112.857 40.8367 113.446 41.998 113.446 43.506C113.446 44.9967 112.891 46.158 111.782 46.99C110.673 47.8047 109.199 48.212 107.362 48.212L107.856 47.12C109.901 47.12 111.487 47.5273 112.614 48.342C113.741 49.1567 114.304 50.3353 114.304 51.878C114.304 53.4727 113.697 54.7293 112.484 55.648C111.288 56.5493 109.537 57 107.232 57H98.262ZM102.448 53.88H107.076C108.047 53.88 108.783 53.6893 109.286 53.308C109.789 52.9267 110.04 52.3373 110.04 51.54C110.04 50.7773 109.789 50.214 109.286 49.85C108.783 49.4687 108.047 49.278 107.076 49.278H102.448V53.88ZM102.448 46.34H106.374C107.293 46.34 107.986 46.158 108.454 45.794C108.922 45.4127 109.156 44.858 109.156 44.13C109.156 43.402 108.922 42.856 108.454 42.492C107.986 42.1107 107.293 41.92 106.374 41.92H102.448V46.34ZM123.875 57.208C122.384 57.208 121.058 56.896 119.897 56.272C118.753 55.648 117.843 54.7987 117.167 53.724C116.508 52.632 116.179 51.3927 116.179 50.006C116.179 48.602 116.508 47.3627 117.167 46.288C117.843 45.196 118.753 44.3467 119.897 43.74C121.058 43.116 122.384 42.804 123.875 42.804C125.348 42.804 126.666 43.116 127.827 43.74C128.988 44.3467 129.898 45.1873 130.557 46.262C131.216 47.3367 131.545 48.5847 131.545 50.006C131.545 51.3927 131.216 52.632 130.557 53.724C129.898 54.7987 128.988 55.648 127.827 56.272C126.666 56.896 125.348 57.208 123.875 57.208ZM123.875 53.88C124.551 53.88 125.158 53.724 125.695 53.412C126.232 53.1 126.657 52.658 126.969 52.086C127.281 51.4967 127.437 50.8033 127.437 50.006C127.437 49.1913 127.281 48.498 126.969 47.926C126.657 47.354 126.232 46.912 125.695 46.6C125.158 46.288 124.551 46.132 123.875 46.132C123.199 46.132 122.592 46.288 122.055 46.6C121.518 46.912 121.084 47.354 120.755 47.926C120.443 48.498 120.287 49.1913 120.287 50.006C120.287 50.8033 120.443 51.4967 120.755 52.086C121.084 52.658 121.518 53.1 122.055 53.412C122.592 53.724 123.199 53.88 123.875 53.88ZM134.335 57V43.012H148.245V57H144.189V45.43L145.099 46.34H137.455L138.365 45.43V57H134.335ZM160.376 57.208C159.197 57.208 158.166 56.948 157.282 56.428C156.398 55.908 155.704 55.1193 155.202 54.062C154.716 52.9873 154.474 51.6353 154.474 50.006C154.474 48.3593 154.708 47.0073 155.176 45.95C155.644 44.8927 156.32 44.104 157.204 43.584C158.088 43.064 159.145 42.804 160.376 42.804C161.693 42.804 162.872 43.1073 163.912 43.714C164.969 44.3033 165.801 45.1353 166.408 46.21C167.032 47.2847 167.344 48.55 167.344 50.006C167.344 51.4793 167.032 52.7533 166.408 53.828C165.801 54.9027 164.969 55.7347 163.912 56.324C162.872 56.9133 161.693 57.208 160.376 57.208ZM152.108 62.044V43.012H155.982V45.872L155.904 50.032L156.164 54.166V62.044H152.108ZM159.674 53.88C160.35 53.88 160.948 53.724 161.468 53.412C162.005 53.1 162.43 52.658 162.742 52.086C163.071 51.4967 163.236 50.8033 163.236 50.006C163.236 49.1913 163.071 48.498 162.742 47.926C162.43 47.354 162.005 46.912 161.468 46.6C160.948 46.288 160.35 46.132 159.674 46.132C158.998 46.132 158.391 46.288 157.854 46.6C157.316 46.912 156.892 47.354 156.58 47.926C156.268 48.498 156.112 49.1913 156.112 50.006C156.112 50.8033 156.268 51.4967 156.58 52.086C156.892 52.658 157.316 53.1 157.854 53.412C158.391 53.724 158.998 53.88 159.674 53.88ZM176.738 57.208C175.248 57.208 173.922 56.896 172.76 56.272C171.616 55.648 170.706 54.7987 170.03 53.724C169.372 52.632 169.042 51.3927 169.042 50.006C169.042 48.602 169.372 47.3627 170.03 46.288C170.706 45.196 171.616 44.3467 172.76 43.74C173.922 43.116 175.248 42.804 176.738 42.804C178.212 42.804 179.529 43.116 180.69 43.74C181.852 44.3467 182.762 45.1873 183.42 46.262C184.079 47.3367 184.408 48.5847 184.408 50.006C184.408 51.3927 184.079 52.632 183.42 53.724C182.762 54.7987 181.852 55.648 180.69 56.272C179.529 56.896 178.212 57.208 176.738 57.208ZM176.738 53.88C177.414 53.88 178.021 53.724 178.558 53.412C179.096 53.1 179.52 52.658 179.832 52.086C180.144 51.4967 180.3 50.8033 180.3 50.006C180.3 49.1913 180.144 48.498 179.832 47.926C179.52 47.354 179.096 46.912 178.558 46.6C178.021 46.288 177.414 46.132 176.738 46.132C176.062 46.132 175.456 46.288 174.918 46.6C174.381 46.912 173.948 47.354 173.618 47.926C173.306 48.498 173.15 49.1913 173.15 50.006C173.15 50.8033 173.306 51.4967 173.618 52.086C173.948 52.658 174.381 53.1 174.918 53.412C175.456 53.724 176.062 53.88 176.738 53.88ZM193.854 57.208C192.346 57.208 191.003 56.9047 189.824 56.298C188.645 55.674 187.718 54.816 187.042 53.724C186.383 52.632 186.054 51.3927 186.054 50.006C186.054 48.602 186.383 47.3627 187.042 46.288C187.718 45.196 188.645 44.3467 189.824 43.74C191.003 43.116 192.346 42.804 193.854 42.804C195.327 42.804 196.61 43.116 197.702 43.74C198.794 44.3467 199.6 45.222 200.12 46.366L196.974 48.056C196.61 47.3973 196.151 46.912 195.596 46.6C195.059 46.288 194.469 46.132 193.828 46.132C193.135 46.132 192.511 46.288 191.956 46.6C191.401 46.912 190.959 47.354 190.63 47.926C190.318 48.498 190.162 49.1913 190.162 50.006C190.162 50.8207 190.318 51.514 190.63 52.086C190.959 52.658 191.401 53.1 191.956 53.412C192.511 53.724 193.135 53.88 193.828 53.88C194.469 53.88 195.059 53.7327 195.596 53.438C196.151 53.126 196.61 52.632 196.974 51.956L200.12 53.672C199.6 54.7987 198.794 55.674 197.702 56.298C196.61 56.9047 195.327 57.208 193.854 57.208ZM201.479 51.306V48.056H208.837V51.306H201.479ZM218.912 57.208C217.421 57.208 216.095 56.896 214.934 56.272C213.79 55.648 212.88 54.7987 212.204 53.724C211.545 52.632 211.216 51.3927 211.216 50.006C211.216 48.602 211.545 47.3627 212.204 46.288C212.88 45.196 213.79 44.3467 214.934 43.74C216.095 43.116 217.421 42.804 218.912 42.804C220.385 42.804 221.703 43.116 222.864 43.74C224.025 44.3467 224.935 45.1873 225.594 46.262C226.253 47.3367 226.582 48.5847 226.582 50.006C226.582 51.3927 226.253 52.632 225.594 53.724C224.935 54.7987 224.025 55.648 222.864 56.272C221.703 56.896 220.385 57.208 218.912 57.208ZM218.912 53.88C219.588 53.88 220.195 53.724 220.732 53.412C221.269 53.1 221.694 52.658 222.006 52.086C222.318 51.4967 222.474 50.8033 222.474 50.006C222.474 49.1913 222.318 48.498 222.006 47.926C221.694 47.354 221.269 46.912 220.732 46.6C220.195 46.288 219.588 46.132 218.912 46.132C218.236 46.132 217.629 46.288 217.092 46.6C216.555 46.912 216.121 47.354 215.792 47.926C215.48 48.498 215.324 49.1913 215.324 50.006C215.324 50.8033 215.48 51.4967 215.792 52.086C216.121 52.658 216.555 53.1 217.092 53.412C217.629 53.724 218.236 53.88 218.912 53.88ZM231.854 57V45.404L232.764 46.34H227.122V43.012H240.616V46.34H234.974L235.884 45.404V57H231.854ZM242.778 57V43.012H249.928C251.679 43.012 253.048 43.3327 254.036 43.974C255.024 44.598 255.518 45.482 255.518 46.626C255.518 47.77 255.05 48.6713 254.114 49.33C253.195 49.9713 251.973 50.292 250.448 50.292L250.864 49.356C252.563 49.356 253.828 49.668 254.66 50.292C255.509 50.916 255.934 51.826 255.934 53.022C255.934 54.2527 255.466 55.2233 254.53 55.934C253.594 56.6447 252.164 57 250.24 57H242.778ZM246.496 54.244H249.902C250.647 54.244 251.202 54.1227 251.566 53.88C251.947 53.62 252.138 53.23 252.138 52.71C252.138 52.1727 251.965 51.7827 251.618 51.54C251.271 51.28 250.725 51.15 249.98 51.15H246.496V54.244ZM246.496 48.758H249.564C250.275 48.758 250.803 48.628 251.15 48.368C251.514 48.108 251.696 47.7353 251.696 47.25C251.696 46.7473 251.514 46.3747 251.15 46.132C250.803 45.8893 250.275 45.768 249.564 45.768H246.496V48.758ZM265.79 57.208C264.195 57.208 262.791 56.896 261.578 56.272C260.382 55.648 259.455 54.7987 258.796 53.724C258.137 52.632 257.808 51.3927 257.808 50.006C257.808 48.602 258.129 47.3627 258.77 46.288C259.429 45.196 260.321 44.3467 261.448 43.74C262.575 43.116 263.849 42.804 265.27 42.804C266.639 42.804 267.87 43.0987 268.962 43.688C270.071 44.26 270.947 45.092 271.588 46.184C272.229 47.2587 272.55 48.55 272.55 50.058C272.55 50.214 272.541 50.396 272.524 50.604C272.507 50.7947 272.489 50.9767 272.472 51.15H261.11V48.784H270.34L268.78 49.486C268.78 48.758 268.633 48.1253 268.338 47.588C268.043 47.0507 267.636 46.6347 267.116 46.34C266.596 46.028 265.989 45.872 265.296 45.872C264.603 45.872 263.987 46.028 263.45 46.34C262.93 46.6347 262.523 47.0593 262.228 47.614C261.933 48.1513 261.786 48.7927 261.786 49.538V50.162C261.786 50.9247 261.951 51.6007 262.28 52.19C262.627 52.762 263.103 53.204 263.71 53.516C264.334 53.8107 265.062 53.958 265.894 53.958C266.639 53.958 267.289 53.8453 267.844 53.62C268.416 53.3947 268.936 53.0567 269.404 52.606L271.562 54.946C270.921 55.674 270.115 56.2373 269.144 56.636C268.173 57.0173 267.055 57.208 265.79 57.208ZM278.167 57V45.404L279.077 46.34H273.435V43.012H286.929V46.34H281.287L282.197 45.404V57H278.167Z" fill="white"/>
<path d="M99.598 88V78.816L99.878 79.096H96.154V78.2H104.064V79.096H100.354L100.62 78.816V88H99.598ZM105.292 90.786C104.947 90.786 104.615 90.73 104.298 90.618C103.99 90.506 103.724 90.338 103.5 90.114L103.962 89.372C104.149 89.5493 104.349 89.6847 104.564 89.778C104.788 89.8807 105.035 89.932 105.306 89.932C105.633 89.932 105.913 89.8387 106.146 89.652C106.389 89.4747 106.617 89.1573 106.832 88.7L107.308 87.622L107.42 87.468L110.444 80.65H111.424L107.742 88.882C107.537 89.358 107.308 89.736 107.056 90.016C106.813 90.296 106.547 90.492 106.258 90.604C105.969 90.7253 105.647 90.786 105.292 90.786ZM107.252 88.21L103.864 80.65H104.9L107.896 87.398L107.252 88.21ZM114.373 88V81.252L114.625 81.518H111.587V80.65H118.153V81.518H115.115L115.367 81.252V88H114.373ZM123.254 88V80.65H126.502C127.333 80.65 127.986 80.8087 128.462 81.126C128.947 81.4433 129.19 81.91 129.19 82.526C129.19 83.1233 128.961 83.5853 128.504 83.912C128.047 84.2293 127.445 84.388 126.698 84.388L126.894 84.094C127.771 84.094 128.415 84.2573 128.826 84.584C129.237 84.9107 129.442 85.382 129.442 85.998C129.442 86.6327 129.209 87.1273 128.742 87.482C128.285 87.8273 127.571 88 126.6 88H123.254ZM124.22 87.216H126.558C127.183 87.216 127.655 87.118 127.972 86.922C128.299 86.7167 128.462 86.39 128.462 85.942C128.462 85.494 128.317 85.1673 128.028 84.962C127.739 84.7567 127.281 84.654 126.656 84.654H124.22V87.216ZM124.22 83.912H126.432C127.001 83.912 127.435 83.8047 127.734 83.59C128.042 83.3753 128.196 83.0627 128.196 82.652C128.196 82.2413 128.042 81.9333 127.734 81.728C127.435 81.5227 127.001 81.42 126.432 81.42H124.22V83.912ZM138.939 88V80.65H139.933V88H138.939ZM134.865 83.24C135.789 83.2493 136.494 83.4547 136.979 83.856C137.465 84.2573 137.707 84.836 137.707 85.592C137.707 86.376 137.446 86.978 136.923 87.398C136.401 87.818 135.654 88.0233 134.683 88.014L131.771 88V80.65H132.765V83.212L134.865 83.24ZM134.613 87.258C135.304 87.2673 135.822 87.132 136.167 86.852C136.522 86.5627 136.699 86.1427 136.699 85.592C136.699 85.0413 136.527 84.64 136.181 84.388C135.836 84.1267 135.313 83.9913 134.613 83.982L132.765 83.954V87.23L134.613 87.258ZM146.428 88V80.65H147.422V83.898H152.056V80.65H153.05V88H152.056V84.752H147.422V88H146.428ZM160.439 88V86.376L160.397 86.11V83.394C160.397 82.7687 160.22 82.288 159.865 81.952C159.52 81.616 159.002 81.448 158.311 81.448C157.835 81.448 157.382 81.5273 156.953 81.686C156.524 81.8447 156.16 82.0547 155.861 82.316L155.413 81.574C155.786 81.2567 156.234 81.014 156.757 80.846C157.28 80.6687 157.83 80.58 158.409 80.58C159.361 80.58 160.094 80.818 160.607 81.294C161.13 81.7607 161.391 82.4747 161.391 83.436V88H160.439ZM157.905 88.07C157.354 88.07 156.874 87.9813 156.463 87.804C156.062 87.6173 155.754 87.3653 155.539 87.048C155.324 86.7213 155.217 86.348 155.217 85.928C155.217 85.5453 155.306 85.2 155.483 84.892C155.67 84.5747 155.968 84.3227 156.379 84.136C156.799 83.94 157.359 83.842 158.059 83.842H160.593V84.584H158.087C157.378 84.584 156.883 84.71 156.603 84.962C156.332 85.214 156.197 85.5267 156.197 85.9C156.197 86.32 156.36 86.656 156.687 86.908C157.014 87.16 157.471 87.286 158.059 87.286C158.619 87.286 159.1 87.16 159.501 86.908C159.912 86.6467 160.21 86.2733 160.397 85.788L160.621 86.474C160.434 86.9593 160.108 87.3467 159.641 87.636C159.184 87.9253 158.605 88.07 157.905 88.07ZM164.037 88V80.65H165.031V86.488L169.945 80.65H170.827V88H169.833V82.148L164.933 88H164.037ZM167.369 79.586C166.753 79.586 166.254 79.432 165.871 79.124C165.498 78.8067 165.302 78.354 165.283 77.766H165.997C166.006 78.1393 166.137 78.4333 166.389 78.648C166.641 78.8627 166.968 78.97 167.369 78.97C167.77 78.97 168.097 78.8627 168.349 78.648C168.61 78.4333 168.746 78.1393 168.755 77.766H169.469C169.46 78.354 169.264 78.8067 168.881 79.124C168.498 79.432 167.994 79.586 167.369 79.586ZM178.716 87.524V81.518H175.174L175.09 83.156C175.071 83.6507 175.038 84.136 174.992 84.612C174.954 85.088 174.884 85.5267 174.782 85.928C174.688 86.32 174.553 86.642 174.376 86.894C174.198 87.1367 173.97 87.2767 173.69 87.314L172.696 87.132C172.985 87.1413 173.223 87.0387 173.41 86.824C173.596 86.6 173.741 86.2967 173.844 85.914C173.946 85.5313 174.021 85.0973 174.068 84.612C174.114 84.1173 174.152 83.6133 174.18 83.1L174.278 80.65H179.71V87.524H178.716ZM172.388 89.778V87.132H180.858V89.778H179.92V88H173.326V89.778H172.388ZM185.945 88.07C185.18 88.07 184.508 87.9113 183.929 87.594C183.35 87.2673 182.898 86.824 182.571 86.264C182.244 85.6947 182.081 85.046 182.081 84.318C182.081 83.59 182.235 82.946 182.543 82.386C182.86 81.826 183.29 81.3873 183.831 81.07C184.382 80.7433 184.998 80.58 185.679 80.58C186.37 80.58 186.981 80.7387 187.513 81.056C188.054 81.364 188.479 81.8027 188.787 82.372C189.095 82.932 189.249 83.5807 189.249 84.318C189.249 84.3647 189.244 84.416 189.235 84.472C189.235 84.5187 189.235 84.57 189.235 84.626H182.837V83.884H188.703L188.311 84.178C188.311 83.646 188.194 83.1747 187.961 82.764C187.737 82.344 187.429 82.0173 187.037 81.784C186.645 81.5507 186.192 81.434 185.679 81.434C185.175 81.434 184.722 81.5507 184.321 81.784C183.92 82.0173 183.607 82.344 183.383 82.764C183.159 83.184 183.047 83.6647 183.047 84.206V84.36C183.047 84.92 183.168 85.4147 183.411 85.844C183.663 86.264 184.008 86.5953 184.447 86.838C184.895 87.0713 185.404 87.188 185.973 87.188C186.421 87.188 186.836 87.1087 187.219 86.95C187.611 86.7913 187.947 86.5487 188.227 86.222L188.787 86.866C188.46 87.258 188.05 87.5567 187.555 87.762C187.07 87.9673 186.533 88.07 185.945 88.07ZM192.521 88V81.252L192.773 81.518H189.735V80.65H196.301V81.518H193.263L193.515 81.252V88H192.521ZM200.546 88.07C199.781 88.07 199.109 87.9113 198.53 87.594C197.952 87.2673 197.499 86.824 197.172 86.264C196.846 85.6947 196.682 85.046 196.682 84.318C196.682 83.59 196.836 82.946 197.144 82.386C197.462 81.826 197.891 81.3873 198.432 81.07C198.983 80.7433 199.599 80.58 200.28 80.58C200.971 80.58 201.582 80.7387 202.114 81.056C202.656 81.364 203.08 81.8027 203.388 82.372C203.696 82.932 203.85 83.5807 203.85 84.318C203.85 84.3647 203.846 84.416 203.836 84.472C203.836 84.5187 203.836 84.57 203.836 84.626H197.438V83.884H203.304L202.912 84.178C202.912 83.646 202.796 83.1747 202.562 82.764C202.338 82.344 202.03 82.0173 201.638 81.784C201.246 81.5507 200.794 81.434 200.28 81.434C199.776 81.434 199.324 81.5507 198.922 81.784C198.521 82.0173 198.208 82.344 197.984 82.764C197.76 83.184 197.648 83.6647 197.648 84.206V84.36C197.648 84.92 197.77 85.4147 198.012 85.844C198.264 86.264 198.61 86.5953 199.048 86.838C199.496 87.0713 200.005 87.188 200.574 87.188C201.022 87.188 201.438 87.1087 201.82 86.95C202.212 86.7913 202.548 86.5487 202.828 86.222L203.388 86.866C203.062 87.258 202.651 87.5567 202.156 87.762C201.671 87.9673 201.134 88.07 200.546 88.07ZM212.739 88.07C212.029 88.07 211.39 87.9113 210.821 87.594C210.261 87.2673 209.817 86.824 209.491 86.264C209.164 85.6947 209.001 85.046 209.001 84.318C209.001 83.5807 209.164 82.932 209.491 82.372C209.817 81.812 210.261 81.3733 210.821 81.056C211.381 80.7387 212.02 80.58 212.739 80.58C213.467 80.58 214.111 80.7387 214.671 81.056C215.24 81.3733 215.683 81.812 216.001 82.372C216.327 82.932 216.491 83.5807 216.491 84.318C216.491 85.046 216.327 85.6947 216.001 86.264C215.683 86.824 215.24 87.2673 214.671 87.594C214.101 87.9113 213.457 88.07 212.739 88.07ZM212.739 87.188C213.271 87.188 213.742 87.0713 214.153 86.838C214.563 86.5953 214.885 86.2593 215.119 85.83C215.361 85.3913 215.483 84.8873 215.483 84.318C215.483 83.7393 215.361 83.2353 215.119 82.806C214.885 82.3767 214.563 82.0453 214.153 81.812C213.742 81.5693 213.275 81.448 212.753 81.448C212.23 81.448 211.763 81.5693 211.353 81.812C210.942 82.0453 210.615 82.3767 210.373 82.806C210.13 83.2353 210.009 83.7393 210.009 84.318C210.009 84.8873 210.13 85.3913 210.373 85.83C210.615 86.2593 210.942 86.5953 211.353 86.838C211.763 87.0713 212.225 87.188 212.739 87.188ZM219.742 88V81.252L219.994 81.518H216.956V80.65H223.522V81.518H220.484L220.736 81.252V88H219.742ZM224.959 88V80.65H228.207C229.038 80.65 229.691 80.8087 230.167 81.126C230.652 81.4433 230.895 81.91 230.895 82.526C230.895 83.1233 230.666 83.5853 230.209 83.912C229.752 84.2293 229.15 84.388 228.403 84.388L228.599 84.094C229.476 84.094 230.12 84.2573 230.531 84.584C230.942 84.9107 231.147 85.382 231.147 85.998C231.147 86.6327 230.914 87.1273 230.447 87.482C229.99 87.8273 229.276 88 228.305 88H224.959ZM225.925 87.216H228.263C228.888 87.216 229.36 87.118 229.677 86.922C230.004 86.7167 230.167 86.39 230.167 85.942C230.167 85.494 230.022 85.1673 229.733 84.962C229.444 84.7567 228.986 84.654 228.361 84.654H225.925V87.216ZM225.925 83.912H228.137C228.706 83.912 229.14 83.8047 229.439 83.59C229.747 83.3753 229.901 83.0627 229.901 82.652C229.901 82.2413 229.747 81.9333 229.439 81.728C229.14 81.5227 228.706 81.42 228.137 81.42H225.925V83.912ZM236.627 88.07C235.861 88.07 235.189 87.9113 234.611 87.594C234.032 87.2673 233.579 86.824 233.253 86.264C232.926 85.6947 232.763 85.046 232.763 84.318C232.763 83.59 232.917 82.946 233.225 82.386C233.542 81.826 233.971 81.3873 234.513 81.07C235.063 80.7433 235.679 80.58 236.361 80.58C237.051 80.58 237.663 80.7387 238.195 81.056C238.736 81.364 239.161 81.8027 239.469 82.372C239.777 82.932 239.931 83.5807 239.931 84.318C239.931 84.3647 239.926 84.416 239.917 84.472C239.917 84.5187 239.917 84.57 239.917 84.626H233.519V83.884H239.385L238.993 84.178C238.993 83.646 238.876 83.1747 238.643 82.764C238.419 82.344 238.111 82.0173 237.719 81.784C237.327 81.5507 236.874 81.434 236.361 81.434C235.857 81.434 235.404 81.5507 235.003 81.784C234.601 82.0173 234.289 82.344 234.065 82.764C233.841 83.184 233.729 83.6647 233.729 84.206V84.36C233.729 84.92 233.85 85.4147 234.093 85.844C234.345 86.264 234.69 86.5953 235.129 86.838C235.577 87.0713 236.085 87.188 236.655 87.188C237.103 87.188 237.518 87.1087 237.901 86.95C238.293 86.7913 238.629 86.5487 238.909 86.222L239.469 86.866C239.142 87.258 238.731 87.5567 238.237 87.762C237.751 87.9673 237.215 88.07 236.627 88.07ZM243.203 88V81.252L243.455 81.518H240.417V80.65H246.983V81.518H243.945L244.197 81.252V88H243.203ZM255.588 88V80.65H256.582V88H255.588ZM251.514 83.24C252.438 83.2493 253.143 83.4547 253.628 83.856C254.113 84.2573 254.356 84.836 254.356 85.592C254.356 86.376 254.095 86.978 253.572 87.398C253.049 87.818 252.303 88.0233 251.332 88.014L248.42 88V80.65H249.414V83.212L251.514 83.24ZM251.262 87.258C251.953 87.2673 252.471 87.132 252.816 86.852C253.171 86.5627 253.348 86.1427 253.348 85.592C253.348 85.0413 253.175 84.64 252.83 84.388C252.485 84.1267 251.962 83.9913 251.262 83.982L249.414 83.954V87.23L251.262 87.258ZM263.076 88V80.65H264.07V83.898H268.704V80.65H269.698V88H268.704V84.752H264.07V88H263.076ZM277.087 88V86.376L277.045 86.11V83.394C277.045 82.7687 276.868 82.288 276.513 81.952C276.168 81.616 275.65 81.448 274.959 81.448C274.483 81.448 274.031 81.5273 273.601 81.686C273.172 81.8447 272.808 82.0547 272.509 82.316L272.061 81.574C272.435 81.2567 272.883 81.014 273.405 80.846C273.928 80.6687 274.479 80.58 275.057 80.58C276.009 80.58 276.742 80.818 277.255 81.294C277.778 81.7607 278.039 82.4747 278.039 83.436V88H277.087ZM274.553 88.07C274.003 88.07 273.522 87.9813 273.111 87.804C272.71 87.6173 272.402 87.3653 272.187 87.048C271.973 86.7213 271.865 86.348 271.865 85.928C271.865 85.5453 271.954 85.2 272.131 84.892C272.318 84.5747 272.617 84.3227 273.027 84.136C273.447 83.94 274.007 83.842 274.707 83.842H277.241V84.584H274.735C274.026 84.584 273.531 84.71 273.251 84.962C272.981 85.214 272.845 85.5267 272.845 85.9C272.845 86.32 273.009 86.656 273.335 86.908C273.662 87.16 274.119 87.286 274.707 87.286C275.267 87.286 275.748 87.16 276.149 86.908C276.56 86.6467 276.859 86.2733 277.045 85.788L277.269 86.474C277.083 86.9593 276.756 87.3467 276.289 87.636C275.832 87.9253 275.253 88.07 274.553 88.07ZM288.998 84.892C288.568 85.0787 288.134 85.228 287.696 85.34C287.266 85.4427 286.837 85.494 286.408 85.494C285.54 85.494 284.854 85.298 284.35 84.906C283.846 84.5047 283.594 83.8887 283.594 83.058V80.65H284.574V83.002C284.574 83.562 284.756 83.982 285.12 84.262C285.484 84.542 285.974 84.682 286.59 84.682C286.963 84.682 287.355 84.6353 287.766 84.542C288.176 84.4393 288.592 84.2947 289.012 84.108L288.998 84.892ZM288.914 88V80.65H289.908V88H288.914ZM297.294 88V86.376L297.252 86.11V83.394C297.252 82.7687 297.075 82.288 296.72 81.952C296.375 81.616 295.857 81.448 295.166 81.448C294.69 81.448 294.238 81.5273 293.808 81.686C293.379 81.8447 293.015 82.0547 292.716 82.316L292.268 81.574C292.642 81.2567 293.09 81.014 293.612 80.846C294.135 80.6687 294.686 80.58 295.264 80.58C296.216 80.58 296.949 80.818 297.462 81.294C297.985 81.7607 298.246 82.4747 298.246 83.436V88H297.294ZM294.76 88.07C294.21 88.07 293.729 87.9813 293.318 87.804C292.917 87.6173 292.609 87.3653 292.394 87.048C292.18 86.7213 292.072 86.348 292.072 85.928C292.072 85.5453 292.161 85.2 292.338 84.892C292.525 84.5747 292.824 84.3227 293.234 84.136C293.654 83.94 294.214 83.842 294.914 83.842H297.448V84.584H294.942C294.233 84.584 293.738 84.71 293.458 84.962C293.188 85.214 293.052 85.5267 293.052 85.9C293.052 86.32 293.216 86.656 293.542 86.908C293.869 87.16 294.326 87.286 294.914 87.286C295.474 87.286 295.955 87.16 296.356 86.908C296.767 86.6467 297.066 86.2733 297.252 85.788L297.476 86.474C297.29 86.9593 296.963 87.3467 296.496 87.636C296.039 87.9253 295.46 88.07 294.76 88.07ZM303.973 88.07C303.245 88.07 302.591 87.9113 302.013 87.594C301.443 87.2673 300.995 86.824 300.669 86.264C300.342 85.6947 300.179 85.046 300.179 84.318C300.179 83.5807 300.342 82.932 300.669 82.372C300.995 81.812 301.443 81.3733 302.013 81.056C302.591 80.7387 303.245 80.58 303.973 80.58C304.598 80.58 305.163 80.7013 305.667 80.944C306.171 81.1867 306.567 81.5507 306.857 82.036L306.115 82.54C305.863 82.1667 305.55 81.8913 305.177 81.714C304.803 81.5367 304.397 81.448 303.959 81.448C303.436 81.448 302.965 81.5693 302.545 81.812C302.125 82.0453 301.793 82.3767 301.551 82.806C301.308 83.2353 301.187 83.7393 301.187 84.318C301.187 84.8967 301.308 85.4007 301.551 85.83C301.793 86.2593 302.125 86.5953 302.545 86.838C302.965 87.0713 303.436 87.188 303.959 87.188C304.397 87.188 304.803 87.0993 305.177 86.922C305.55 86.7447 305.863 86.474 306.115 86.11L306.857 86.614C306.567 87.09 306.171 87.454 305.667 87.706C305.163 87.9487 304.598 88.07 303.973 88.07ZM310.044 88V81.252L310.296 81.518H307.258V80.65H313.824V81.518H310.786L311.038 81.252V88H310.044ZM317.944 88.07C317.235 88.07 316.595 87.9113 316.026 87.594C315.466 87.2673 315.023 86.824 314.696 86.264C314.369 85.6947 314.206 85.046 314.206 84.318C314.206 83.5807 314.369 82.932 314.696 82.372C315.023 81.812 315.466 81.3733 316.026 81.056C316.586 80.7387 317.225 80.58 317.944 80.58C318.672 80.58 319.316 80.7387 319.876 81.056C320.445 81.3733 320.889 81.812 321.206 82.372C321.533 82.932 321.696 83.5807 321.696 84.318C321.696 85.046 321.533 85.6947 321.206 86.264C320.889 86.824 320.445 87.2673 319.876 87.594C319.307 87.9113 318.663 88.07 317.944 88.07ZM317.944 87.188C318.476 87.188 318.947 87.0713 319.358 86.838C319.769 86.5953 320.091 86.2593 320.324 85.83C320.567 85.3913 320.688 84.8873 320.688 84.318C320.688 83.7393 320.567 83.2353 320.324 82.806C320.091 82.3767 319.769 82.0453 319.358 81.812C318.947 81.5693 318.481 81.448 317.958 81.448C317.435 81.448 316.969 81.5693 316.558 81.812C316.147 82.0453 315.821 82.3767 315.578 82.806C315.335 83.2353 315.214 83.7393 315.214 84.318C315.214 84.8873 315.335 85.3913 315.578 85.83C315.821 86.2593 316.147 86.5953 316.558 86.838C316.969 87.0713 317.431 87.188 317.944 87.188ZM329.458 88.084C328.926 88.084 328.399 88.0093 327.876 87.86C327.354 87.7107 326.892 87.482 326.49 87.174L326.812 86.432C327.167 86.6933 327.578 86.894 328.044 87.034C328.511 87.1647 328.973 87.23 329.43 87.23C329.888 87.2207 330.284 87.1553 330.62 87.034C330.956 86.9127 331.218 86.7447 331.404 86.53C331.591 86.3153 331.684 86.0727 331.684 85.802C331.684 85.41 331.507 85.1067 331.152 84.892C330.798 84.668 330.312 84.556 329.696 84.556H328.436V83.828H329.626C329.99 83.828 330.312 83.7813 330.592 83.688C330.872 83.5947 331.087 83.4593 331.236 83.282C331.395 83.1047 331.474 82.8947 331.474 82.652C331.474 82.3907 331.381 82.1667 331.194 81.98C331.017 81.7933 330.77 81.6533 330.452 81.56C330.135 81.4667 329.776 81.42 329.374 81.42C329.01 81.4293 328.632 81.4853 328.24 81.588C327.848 81.6813 327.461 81.826 327.078 82.022L326.798 81.252C327.228 81.028 327.652 80.86 328.072 80.748C328.502 80.6267 328.931 80.566 329.36 80.566C329.948 80.5473 330.476 80.6173 330.942 80.776C331.418 80.9347 331.796 81.1633 332.076 81.462C332.356 81.7513 332.496 82.1013 332.496 82.512C332.496 82.876 332.384 83.1933 332.16 83.464C331.936 83.7347 331.638 83.9447 331.264 84.094C330.891 84.2433 330.466 84.318 329.99 84.318L330.032 84.052C330.872 84.052 331.526 84.2153 331.992 84.542C332.468 84.8687 332.706 85.312 332.706 85.872C332.706 86.3107 332.562 86.698 332.272 87.034C331.983 87.3607 331.591 87.6173 331.096 87.804C330.611 87.9907 330.065 88.084 329.458 88.084ZM339.527 88V86.376L339.485 86.11V83.394C339.485 82.7687 339.307 82.288 338.953 81.952C338.607 81.616 338.089 81.448 337.399 81.448C336.923 81.448 336.47 81.5273 336.041 81.686C335.611 81.8447 335.247 82.0547 334.949 82.316L334.501 81.574C334.874 81.2567 335.322 81.014 335.845 80.846C336.367 80.6687 336.918 80.58 337.497 80.58C338.449 80.58 339.181 80.818 339.695 81.294C340.217 81.7607 340.479 82.4747 340.479 83.436V88H339.527ZM336.993 88.07C336.442 88.07 335.961 87.9813 335.551 87.804C335.149 87.6173 334.841 87.3653 334.627 87.048C334.412 86.7213 334.305 86.348 334.305 85.928C334.305 85.5453 334.393 85.2 334.571 84.892C334.757 84.5747 335.056 84.3227 335.467 84.136C335.887 83.94 336.447 83.842 337.147 83.842H339.681V84.584H337.175C336.465 84.584 335.971 84.71 335.691 84.962C335.42 85.214 335.285 85.5267 335.285 85.9C335.285 86.32 335.448 86.656 335.775 86.908C336.101 87.16 336.559 87.286 337.147 87.286C337.707 87.286 338.187 87.16 338.589 86.908C338.999 86.6467 339.298 86.2733 339.485 85.788L339.709 86.474C339.522 86.9593 339.195 87.3467 338.729 87.636C338.271 87.9253 337.693 88.07 336.993 88.07ZM348.165 87.524V81.518H344.623L344.539 83.156C344.52 83.6507 344.488 84.136 344.441 84.612C344.404 85.088 344.334 85.5267 344.231 85.928C344.138 86.32 344.002 86.642 343.825 86.894C343.648 87.1367 343.419 87.2767 343.139 87.314L342.145 87.132C342.434 87.1413 342.672 87.0387 342.859 86.824C343.046 86.6 343.19 86.2967 343.293 85.914C343.396 85.5313 343.47 85.0973 343.517 84.612C343.564 84.1173 343.601 83.6133 343.629 83.1L343.727 80.65H349.159V87.524H348.165ZM341.837 89.778V87.132H350.307V89.778H349.369V88H342.775V89.778H341.837ZM356.808 88V86.376L356.766 86.11V83.394C356.766 82.7687 356.589 82.288 356.234 81.952C355.889 81.616 355.371 81.448 354.68 81.448C354.204 81.448 353.751 81.5273 353.322 81.686C352.893 81.8447 352.529 82.0547 352.23 82.316L351.782 81.574C352.155 81.2567 352.603 81.014 353.126 80.846C353.649 80.6687 354.199 80.58 354.778 80.58C355.73 80.58 356.463 80.818 356.976 81.294C357.499 81.7607 357.76 82.4747 357.76 83.436V88H356.808ZM354.274 88.07C353.723 88.07 353.243 87.9813 352.832 87.804C352.431 87.6173 352.123 87.3653 351.908 87.048C351.693 86.7213 351.586 86.348 351.586 85.928C351.586 85.5453 351.675 85.2 351.852 84.892C352.039 84.5747 352.337 84.3227 352.748 84.136C353.168 83.94 353.728 83.842 354.428 83.842H356.962V84.584H354.456C353.747 84.584 353.252 84.71 352.972 84.962C352.701 85.214 352.566 85.5267 352.566 85.9C352.566 86.32 352.729 86.656 353.056 86.908C353.383 87.16 353.84 87.286 354.428 87.286C354.988 87.286 355.469 87.16 355.87 86.908C356.281 86.6467 356.579 86.2733 356.766 85.788L356.99 86.474C356.803 86.9593 356.477 87.3467 356.01 87.636C355.553 87.9253 354.974 88.07 354.274 88.07ZM360.406 88V80.65H363.654C364.485 80.65 365.138 80.8087 365.614 81.126C366.1 81.4433 366.342 81.91 366.342 82.526C366.342 83.1233 366.114 83.5853 365.656 83.912C365.199 84.2293 364.597 84.388 363.85 84.388L364.046 84.094C364.924 84.094 365.568 84.2573 365.978 84.584C366.389 84.9107 366.594 85.382 366.594 85.998C366.594 86.6327 366.361 87.1273 365.894 87.482C365.437 87.8273 364.723 88 363.752 88H360.406ZM361.372 87.216H363.71C364.336 87.216 364.807 87.118 365.124 86.922C365.451 86.7167 365.614 86.39 365.614 85.942C365.614 85.494 365.47 85.1673 365.18 84.962C364.891 84.7567 364.434 84.654 363.808 84.654H361.372V87.216ZM361.372 83.912H363.584C364.154 83.912 364.588 83.8047 364.886 83.59C365.194 83.3753 365.348 83.0627 365.348 82.652C365.348 82.2413 365.194 81.9333 364.886 81.728C364.588 81.5227 364.154 81.42 363.584 81.42H361.372V83.912ZM373.488 88V86.376L373.446 86.11V83.394C373.446 82.7687 373.268 82.288 372.914 81.952C372.568 81.616 372.05 81.448 371.36 81.448C370.884 81.448 370.431 81.5273 370.002 81.686C369.572 81.8447 369.208 82.0547 368.91 82.316L368.462 81.574C368.835 81.2567 369.283 81.014 369.806 80.846C370.328 80.6687 370.879 80.58 371.458 80.58C372.41 80.58 373.142 80.818 373.656 81.294C374.178 81.7607 374.44 82.4747 374.44 83.436V88H373.488ZM370.954 88.07C370.403 88.07 369.922 87.9813 369.512 87.804C369.11 87.6173 368.802 87.3653 368.588 87.048C368.373 86.7213 368.266 86.348 368.266 85.928C368.266 85.5453 368.354 85.2 368.532 84.892C368.718 84.5747 369.017 84.3227 369.428 84.136C369.848 83.94 370.408 83.842 371.108 83.842H373.642V84.584H371.136C370.426 84.584 369.932 84.71 369.652 84.962C369.381 85.214 369.246 85.5267 369.246 85.9C369.246 86.32 369.409 86.656 369.736 86.908C370.062 87.16 370.52 87.286 371.108 87.286C371.668 87.286 372.148 87.16 372.55 86.908C372.96 86.6467 373.259 86.2733 373.446 85.788L373.67 86.474C373.483 86.9593 373.156 87.3467 372.69 87.636C372.232 87.9253 371.654 88.07 370.954 88.07ZM380.236 88.07C379.471 88.07 378.799 87.9113 378.22 87.594C377.641 87.2673 377.189 86.824 376.862 86.264C376.535 85.6947 376.372 85.046 376.372 84.318C376.372 83.59 376.526 82.946 376.834 82.386C377.151 81.826 377.581 81.3873 378.122 81.07C378.673 80.7433 379.289 80.58 379.97 80.58C380.661 80.58 381.272 80.7387 381.804 81.056C382.345 81.364 382.77 81.8027 383.078 82.372C383.386 82.932 383.54 83.5807 383.54 84.318C383.54 84.3647 383.535 84.416 383.526 84.472C383.526 84.5187 383.526 84.57 383.526 84.626H377.128V83.884H382.994L382.602 84.178C382.602 83.646 382.485 83.1747 382.252 82.764C382.028 82.344 381.72 82.0173 381.328 81.784C380.936 81.5507 380.483 81.434 379.97 81.434C379.466 81.434 379.013 81.5507 378.612 81.784C378.211 82.0173 377.898 82.344 377.674 82.764C377.45 83.184 377.338 83.6647 377.338 84.206V84.36C377.338 84.92 377.459 85.4147 377.702 85.844C377.954 86.264 378.299 86.5953 378.738 86.838C379.186 87.0713 379.695 87.188 380.264 87.188C380.712 87.188 381.127 87.1087 381.51 86.95C381.902 86.7913 382.238 86.5487 382.518 86.222L383.078 86.866C382.751 87.258 382.341 87.5567 381.846 87.762C381.361 87.9673 380.824 88.07 380.236 88.07ZM385.74 88V80.65H386.748L390.08 86.292H389.66L393.048 80.65H393.972V88H393.062V81.784L393.244 81.868L390.08 87.104H389.632L386.44 81.812L386.65 81.77V88H385.74ZM403.969 88V80.65H404.963V88H403.969ZM399.895 83.24C400.819 83.2493 401.523 83.4547 402.009 83.856C402.494 84.2573 402.737 84.836 402.737 85.592C402.737 86.376 402.475 86.978 401.953 87.398C401.43 87.818 400.683 88.0233 399.713 88.014L396.801 88V80.65H397.795V83.212L399.895 83.24ZM399.643 87.258C400.333 87.2673 400.851 87.132 401.197 86.852C401.551 86.5627 401.729 86.1427 401.729 85.592C401.729 85.0413 401.556 84.64 401.211 84.388C400.865 84.1267 400.343 83.9913 399.643 83.982L397.795 83.954V87.23L399.643 87.258ZM410.943 88.07C410.178 88.07 409.506 87.9113 408.927 87.594C408.348 87.2673 407.896 86.824 407.569 86.264C407.242 85.6947 407.079 85.046 407.079 84.318C407.079 83.59 407.233 82.946 407.541 82.386C407.858 81.826 408.288 81.3873 408.829 81.07C409.38 80.7433 409.996 80.58 410.677 80.58C411.368 80.58 411.979 80.7387 412.511 81.056C413.052 81.364 413.477 81.8027 413.785 82.372C414.093 82.932 414.247 83.5807 414.247 84.318C414.247 84.3647 414.242 84.416 414.233 84.472C414.233 84.5187 414.233 84.57 414.233 84.626H407.835V83.884H413.701L413.309 84.178C413.309 83.646 413.192 83.1747 412.959 82.764C412.735 82.344 412.427 82.0173 412.035 81.784C411.643 81.5507 411.19 81.434 410.677 81.434C410.173 81.434 409.72 81.5507 409.319 81.784C408.918 82.0173 408.605 82.344 408.381 82.764C408.157 83.184 408.045 83.6647 408.045 84.206V84.36C408.045 84.92 408.166 85.4147 408.409 85.844C408.661 86.264 409.006 86.5953 409.445 86.838C409.893 87.0713 410.402 87.188 410.971 87.188C411.419 87.188 411.834 87.1087 412.217 86.95C412.609 86.7913 412.945 86.5487 413.225 86.222L413.785 86.866C413.458 87.258 413.048 87.5567 412.553 87.762C412.068 87.9673 411.531 88.07 410.943 88.07ZM420.111 88V80.65H423.359C424.19 80.65 424.843 80.8087 425.319 81.126C425.805 81.4433 426.047 81.91 426.047 82.526C426.047 83.1233 425.819 83.5853 425.361 83.912C424.904 84.2293 424.302 84.388 423.555 84.388L423.751 84.094C424.629 84.094 425.273 84.2573 425.683 84.584C426.094 84.9107 426.299 85.382 426.299 85.998C426.299 86.6327 426.066 87.1273 425.599 87.482C425.142 87.8273 424.428 88 423.457 88H420.111ZM421.077 87.216H423.415C424.041 87.216 424.512 87.118 424.829 86.922C425.156 86.7167 425.319 86.39 425.319 85.942C425.319 85.494 425.175 85.1673 424.885 84.962C424.596 84.7567 424.139 84.654 423.513 84.654H421.077V87.216ZM421.077 83.912H423.289C423.859 83.912 424.293 83.8047 424.591 83.59C424.899 83.3753 425.053 83.0627 425.053 82.652C425.053 82.2413 424.899 81.9333 424.591 81.728C424.293 81.5227 423.859 81.42 423.289 81.42H421.077V83.912ZM431.653 88.07C430.944 88.07 430.304 87.9113 429.735 87.594C429.175 87.2673 428.732 86.824 428.405 86.264C428.078 85.6947 427.915 85.046 427.915 84.318C427.915 83.5807 428.078 82.932 428.405 82.372C428.732 81.812 429.175 81.3733 429.735 81.056C430.295 80.7387 430.934 80.58 431.653 80.58C432.381 80.58 433.025 80.7387 433.585 81.056C434.154 81.3733 434.598 81.812 434.915 82.372C435.242 82.932 435.405 83.5807 435.405 84.318C435.405 85.046 435.242 85.6947 434.915 86.264C434.598 86.824 434.154 87.2673 433.585 87.594C433.016 87.9113 432.372 88.07 431.653 88.07ZM431.653 87.188C432.185 87.188 432.656 87.0713 433.067 86.838C433.478 86.5953 433.8 86.2593 434.033 85.83C434.276 85.3913 434.397 84.8873 434.397 84.318C434.397 83.7393 434.276 83.2353 434.033 82.806C433.8 82.3767 433.478 82.0453 433.067 81.812C432.656 81.5693 432.19 81.448 431.667 81.448C431.144 81.448 430.678 81.5693 430.267 81.812C429.856 82.0453 429.53 82.3767 429.287 82.806C429.044 83.2353 428.923 83.7393 428.923 84.318C428.923 84.8873 429.044 85.3913 429.287 85.83C429.53 86.2593 429.856 86.5953 430.267 86.838C430.678 87.0713 431.14 87.188 431.653 87.188ZM437.529 88V80.65H444.137V88H443.143V81.252L443.395 81.518H438.271L438.523 81.252V88H437.529ZM450.757 88.07C450.122 88.07 449.548 87.9253 449.035 87.636C448.521 87.3373 448.111 86.9127 447.803 86.362C447.504 85.802 447.355 85.1207 447.355 84.318C447.355 83.5153 447.504 82.8387 447.803 82.288C448.101 81.728 448.507 81.3033 449.021 81.014C449.534 80.7247 450.113 80.58 450.757 80.58C451.457 80.58 452.082 80.7387 452.633 81.056C453.193 81.364 453.631 81.8027 453.949 82.372C454.266 82.932 454.425 83.5807 454.425 84.318C454.425 85.0647 454.266 85.718 453.949 86.278C453.631 86.838 453.193 87.2767 452.633 87.594C452.082 87.9113 451.457 88.07 450.757 88.07ZM446.963 90.716V80.65H447.915V82.862L447.817 84.332L447.957 85.816V90.716H446.963ZM450.687 87.188C451.209 87.188 451.676 87.0713 452.087 86.838C452.497 86.5953 452.824 86.2593 453.067 85.83C453.309 85.3913 453.431 84.8873 453.431 84.318C453.431 83.7487 453.309 83.2493 453.067 82.82C452.824 82.3907 452.497 82.0547 452.087 81.812C451.676 81.5693 451.209 81.448 450.687 81.448C450.164 81.448 449.693 81.5693 449.273 81.812C448.862 82.0547 448.535 82.3907 448.293 82.82C448.059 83.2493 447.943 83.7487 447.943 84.318C447.943 84.8873 448.059 85.3913 448.293 85.83C448.535 86.2593 448.862 86.5953 449.273 86.838C449.693 87.0713 450.164 87.188 450.687 87.188ZM459.584 88.07C458.875 88.07 458.236 87.9113 457.666 87.594C457.106 87.2673 456.663 86.824 456.336 86.264C456.01 85.6947 455.846 85.046 455.846 84.318C455.846 83.5807 456.01 82.932 456.336 82.372C456.663 81.812 457.106 81.3733 457.666 81.056C458.226 80.7387 458.866 80.58 459.584 80.58C460.312 80.58 460.956 80.7387 461.516 81.056C462.086 81.3733 462.529 81.812 462.846 82.372C463.173 82.932 463.336 83.5807 463.336 84.318C463.336 85.046 463.173 85.6947 462.846 86.264C462.529 86.824 462.086 87.2673 461.516 87.594C460.947 87.9113 460.303 88.07 459.584 88.07ZM459.584 87.188C460.116 87.188 460.588 87.0713 460.998 86.838C461.409 86.5953 461.731 86.2593 461.964 85.83C462.207 85.3913 462.328 84.8873 462.328 84.318C462.328 83.7393 462.207 83.2353 461.964 82.806C461.731 82.3767 461.409 82.0453 460.998 81.812C460.588 81.5693 460.121 81.448 459.598 81.448C459.076 81.448 458.609 81.5693 458.198 81.812C457.788 82.0453 457.461 82.3767 457.218 82.806C456.976 83.2353 456.854 83.7393 456.854 84.318C456.854 84.8873 456.976 85.3913 457.218 85.83C457.461 86.2593 457.788 86.5953 458.198 86.838C458.609 87.0713 459.071 87.188 459.584 87.188ZM468.541 88.07C467.813 88.07 467.16 87.9113 466.581 87.594C466.012 87.2673 465.564 86.824 465.237 86.264C464.91 85.6947 464.747 85.046 464.747 84.318C464.747 83.5807 464.91 82.932 465.237 82.372C465.564 81.812 466.012 81.3733 466.581 81.056C467.16 80.7387 467.813 80.58 468.541 80.58C469.166 80.58 469.731 80.7013 470.235 80.944C470.739 81.1867 471.136 81.5507 471.425 82.036L470.683 82.54C470.431 82.1667 470.118 81.8913 469.745 81.714C469.372 81.5367 468.966 81.448 468.527 81.448C468.004 81.448 467.533 81.5693 467.113 81.812C466.693 82.0453 466.362 82.3767 466.119 82.806C465.876 83.2353 465.755 83.7393 465.755 84.318C465.755 84.8967 465.876 85.4007 466.119 85.83C466.362 86.2593 466.693 86.5953 467.113 86.838C467.533 87.0713 468.004 87.188 468.527 87.188C468.966 87.188 469.372 87.0993 469.745 86.922C470.118 86.7447 470.431 86.474 470.683 86.11L471.425 86.614C471.136 87.09 470.739 87.454 470.235 87.706C469.731 87.9487 469.166 88.07 468.541 88.07ZM480.518 88V80.65H481.512V88H480.518ZM476.444 83.24C477.368 83.2493 478.072 83.4547 478.558 83.856C479.043 84.2573 479.286 84.836 479.286 85.592C479.286 86.376 479.024 86.978 478.502 87.398C477.979 87.818 477.232 88.0233 476.262 88.014L473.35 88V80.65H474.344V83.212L476.444 83.24ZM476.192 87.258C476.882 87.2673 477.4 87.132 477.746 86.852C478.1 86.5627 478.278 86.1427 478.278 85.592C478.278 85.0413 478.105 84.64 477.76 84.388C477.414 84.1267 476.892 83.9913 476.192 83.982L474.344 83.954V87.23L476.192 87.258Z" fill="white"/>
<rect width="144" height="54" transform="translate(532 36)" fill="white"/>
<path d="M569.936 68.112C569.189 68.112 568.494 67.986 567.85 67.734C567.215 67.482 566.665 67.132 566.198 66.684C565.731 66.2267 565.367 65.6947 565.106 65.088C564.845 64.4813 564.714 63.8187 564.714 63.1C564.714 62.3813 564.845 61.7187 565.106 61.112C565.367 60.5053 565.731 59.978 566.198 59.53C566.665 59.0727 567.215 58.718 567.85 58.466C568.485 58.214 569.18 58.088 569.936 58.088C570.683 58.088 571.369 58.214 571.994 58.466C572.629 58.7087 573.179 59.0587 573.646 59.516C574.122 59.964 574.486 60.4913 574.738 61.098C574.999 61.7047 575.13 62.372 575.13 63.1C575.13 63.828 574.999 64.4953 574.738 65.102C574.486 65.7087 574.122 66.2407 573.646 66.698C573.179 67.146 572.629 67.496 571.994 67.748C571.369 67.9907 570.683 68.112 569.936 68.112ZM569.936 66.866C570.477 66.866 570.977 66.7727 571.434 66.586C571.901 66.3993 572.302 66.138 572.638 65.802C572.983 65.4567 573.249 65.0553 573.436 64.598C573.632 64.1407 573.73 63.6413 573.73 63.1C573.73 62.5587 573.632 62.0593 573.436 61.602C573.249 61.1447 572.983 60.748 572.638 60.412C572.302 60.0667 571.901 59.8007 571.434 59.614C570.977 59.4273 570.477 59.334 569.936 59.334C569.385 59.334 568.877 59.4273 568.41 59.614C567.953 59.8007 567.551 60.0667 567.206 60.412C566.861 60.748 566.59 61.1447 566.394 61.602C566.207 62.0593 566.114 62.5587 566.114 63.1C566.114 63.6413 566.207 64.1407 566.394 64.598C566.59 65.0553 566.861 65.4567 567.206 65.802C567.551 66.138 567.953 66.3993 568.41 66.586C568.877 66.7727 569.385 66.866 569.936 66.866ZM578.475 68V61.406L578.811 61.756H575.759V60.58H582.535V61.756H579.497L579.819 61.406V68H578.475ZM583.909 68V60.58H590.783V68H589.439V61.42L589.761 61.756H584.931L585.253 61.42V68H583.909ZM597.318 68.084C596.702 68.084 596.137 67.944 595.624 67.664C595.12 67.3747 594.714 66.95 594.406 66.39C594.107 65.83 593.958 65.13 593.958 64.29C593.958 63.45 594.103 62.75 594.392 62.19C594.691 61.63 595.092 61.21 595.596 60.93C596.109 60.65 596.683 60.51 597.318 60.51C598.046 60.51 598.69 60.6687 599.25 60.986C599.81 61.3033 600.253 61.7467 600.58 62.316C600.907 62.876 601.07 63.534 601.07 64.29C601.07 65.046 600.907 65.7087 600.58 66.278C600.253 66.8473 599.81 67.2907 599.25 67.608C598.69 67.9253 598.046 68.084 597.318 68.084ZM593.384 70.716V60.58H594.672V62.582L594.588 64.304L594.728 66.026V70.716H593.384ZM597.206 66.908C597.682 66.908 598.107 66.8007 598.48 66.586C598.863 66.3713 599.161 66.068 599.376 65.676C599.6 65.2747 599.712 64.8127 599.712 64.29C599.712 63.758 599.6 63.3007 599.376 62.918C599.161 62.526 598.863 62.2227 598.48 62.008C598.107 61.7933 597.682 61.686 597.206 61.686C596.739 61.686 596.315 61.7933 595.932 62.008C595.559 62.2227 595.26 62.526 595.036 62.918C594.821 63.3007 594.714 63.758 594.714 64.29C594.714 64.8127 594.821 65.2747 595.036 65.676C595.26 66.068 595.559 66.3713 595.932 66.586C596.315 66.8007 596.739 66.908 597.206 66.908ZM607.504 68V66.432L607.434 66.138V63.464C607.434 62.8947 607.266 62.456 606.93 62.148C606.604 61.8307 606.109 61.672 605.446 61.672C605.008 61.672 604.578 61.7467 604.158 61.896C603.738 62.036 603.384 62.2273 603.094 62.47L602.534 61.462C602.917 61.154 603.374 60.9207 603.906 60.762C604.448 60.594 605.012 60.51 605.6 60.51C606.618 60.51 607.402 60.7573 607.952 61.252C608.503 61.7467 608.778 62.5027 608.778 63.52V68H607.504ZM605.068 68.084C604.518 68.084 604.032 67.9907 603.612 67.804C603.202 67.6173 602.884 67.3607 602.66 67.034C602.436 66.698 602.324 66.32 602.324 65.9C602.324 65.4987 602.418 65.1347 602.604 64.808C602.8 64.4813 603.113 64.22 603.542 64.024C603.981 63.828 604.569 63.73 605.306 63.73H607.658V64.696H605.362C604.69 64.696 604.238 64.808 604.004 65.032C603.771 65.256 603.654 65.5267 603.654 65.844C603.654 66.208 603.799 66.502 604.088 66.726C604.378 66.9407 604.779 67.048 605.292 67.048C605.796 67.048 606.235 66.936 606.608 66.712C606.991 66.488 607.266 66.1613 607.434 65.732L607.7 66.656C607.523 67.0947 607.21 67.4447 606.762 67.706C606.314 67.958 605.75 68.084 605.068 68.084ZM611.198 68V60.58H614.642C615.51 60.58 616.192 60.748 616.686 61.084C617.19 61.4107 617.442 61.8773 617.442 62.484C617.442 63.0907 617.204 63.562 616.728 63.898C616.262 64.2247 615.641 64.388 614.866 64.388L615.076 64.024C615.963 64.024 616.621 64.1873 617.05 64.514C617.48 64.8407 617.694 65.3213 617.694 65.956C617.694 66.6 617.452 67.104 616.966 67.468C616.49 67.8227 615.758 68 614.768 68H611.198ZM612.514 66.964H614.67C615.23 66.964 615.65 66.88 615.93 66.712C616.21 66.5347 616.35 66.2547 616.35 65.872C616.35 65.48 616.22 65.1953 615.958 65.018C615.706 64.8313 615.305 64.738 614.754 64.738H612.514V66.964ZM612.514 63.772H614.53C615.044 63.772 615.431 63.6787 615.692 63.492C615.963 63.296 616.098 63.0253 616.098 62.68C616.098 62.3253 615.963 62.0593 615.692 61.882C615.431 61.7047 615.044 61.616 614.53 61.616H612.514V63.772ZM619.798 68V60.58H621.142V65.984L625.692 60.58H626.91V68H625.566V62.596L621.03 68H619.798ZM630.989 68V61.406L631.325 61.756H628.273V60.58H635.049V61.756H632.011L632.333 61.406V68H630.989ZM639.853 63.1C640.796 63.1093 641.514 63.324 642.009 63.744C642.504 64.164 642.751 64.7567 642.751 65.522C642.751 66.3247 642.48 66.9453 641.939 67.384C641.398 67.8133 640.632 68.0233 639.643 68.014L636.423 68V60.58H637.767V63.086L639.853 63.1ZM639.531 66.992C640.138 67.0013 640.595 66.88 640.903 66.628C641.22 66.376 641.379 66.0027 641.379 65.508C641.379 65.0227 641.225 64.668 640.917 64.444C640.609 64.22 640.147 64.1033 639.531 64.094L637.767 64.066V66.978L639.531 66.992Z" fill="#141414"/>
</svg>
