<svg width="302" height="70" viewBox="0 0 302 70" fill="none" xmlns="http://www.w3.org/2000/svg">
<path d="M2.262 25V6.8H16.952V10.154H6.448V13.898H11.492C13.6933 13.898 15.366 14.3573 16.51 15.276C17.6713 16.1947 18.252 17.5293 18.252 19.28C18.252 21.0827 17.6107 22.4867 16.328 23.492C15.0453 24.4973 13.234 25 10.894 25H2.262ZM6.448 21.88H10.66C11.7347 21.88 12.558 21.672 13.13 21.256C13.702 20.8227 13.988 20.1987 13.988 19.384C13.988 17.7893 12.8787 16.992 10.66 16.992H6.448V21.88ZM27.9833 25.208C26.3886 25.208 24.9846 24.896 23.7713 24.272C22.5753 23.648 21.648 22.7987 20.9893 21.724C20.3306 20.632 20.0013 19.3927 20.0013 18.006C20.0013 16.602 20.322 15.3627 20.9633 14.288C21.622 13.196 22.5146 12.3467 23.6413 11.74C24.768 11.116 26.042 10.804 27.4633 10.804C28.8326 10.804 30.0633 11.0987 31.1553 11.688C32.2646 12.26 33.14 13.092 33.7813 14.184C34.4226 15.2587 34.7433 16.55 34.7433 18.058C34.7433 18.214 34.7346 18.396 34.7173 18.604C34.7 18.7947 34.6826 18.9767 34.6653 19.15H23.3033V16.784H32.5333L30.9733 17.486C30.9733 16.758 30.826 16.1253 30.5313 15.588C30.2366 15.0507 29.8293 14.6347 29.3093 14.34C28.7893 14.028 28.1826 13.872 27.4893 13.872C26.796 13.872 26.1806 14.028 25.6433 14.34C25.1233 14.6347 24.716 15.0593 24.4213 15.614C24.1266 16.1513 23.9793 16.7927 23.9793 17.538V18.162C23.9793 18.9247 24.144 19.6007 24.4733 20.19C24.82 20.762 25.2966 21.204 25.9033 21.516C26.5273 21.8107 27.2553 21.958 28.0873 21.958C28.8326 21.958 29.4826 21.8453 30.0373 21.62C30.6093 21.3947 31.1293 21.0567 31.5973 20.606L33.7553 22.946C33.114 23.674 32.308 24.2373 31.3373 24.636C30.3666 25.0173 29.2486 25.208 27.9833 25.208ZM44.5083 25.208C43.0003 25.208 41.657 24.9047 40.4783 24.298C39.2997 23.674 38.3723 22.816 37.6963 21.724C37.0377 20.632 36.7083 19.3927 36.7083 18.006C36.7083 16.602 37.0377 15.3627 37.6963 14.288C38.3723 13.196 39.2997 12.3467 40.4783 11.74C41.657 11.116 43.0003 10.804 44.5083 10.804C45.9817 10.804 47.2643 11.116 48.3563 11.74C49.4483 12.3467 50.2543 13.222 50.7743 14.366L47.6283 16.056C47.2643 15.3973 46.805 14.912 46.2503 14.6C45.713 14.288 45.1237 14.132 44.4823 14.132C43.789 14.132 43.165 14.288 42.6103 14.6C42.0557 14.912 41.6137 15.354 41.2843 15.926C40.9723 16.498 40.8163 17.1913 40.8163 18.006C40.8163 18.8207 40.9723 19.514 41.2843 20.086C41.6137 20.658 42.0557 21.1 42.6103 21.412C43.165 21.724 43.789 21.88 44.4823 21.88C45.1237 21.88 45.713 21.7327 46.2503 21.438C46.805 21.126 47.2643 20.632 47.6283 19.956L50.7743 21.672C50.2543 22.7987 49.4483 23.674 48.3563 24.298C47.2643 24.9047 45.9817 25.208 44.5083 25.208ZM53.2391 25V11.012H67.1491V25H63.0931V13.43L64.0031 14.34H56.3591L57.2691 13.43V25H53.2391ZM69.2699 24.974L69.4779 21.646C69.5819 21.6633 69.6859 21.6807 69.7899 21.698C69.8939 21.698 69.9892 21.698 70.0759 21.698C70.5612 21.698 70.9426 21.5593 71.2199 21.282C71.4972 21.0047 71.7052 20.632 71.8439 20.164C71.9826 19.6787 72.0779 19.1327 72.1299 18.526C72.1992 17.9193 72.2512 17.2867 72.2859 16.628L72.4939 11.012H84.4539V25H80.3979V13.352L81.3079 14.34H75.1719L76.0299 13.3L75.8479 16.81C75.7959 18.058 75.6919 19.202 75.5359 20.242C75.3972 21.282 75.1632 22.1833 74.8339 22.946C74.5046 23.6913 74.0626 24.272 73.5079 24.688C72.9532 25.0867 72.2426 25.286 71.3759 25.286C71.0639 25.286 70.7346 25.26 70.3879 25.208C70.0412 25.156 69.6686 25.078 69.2699 24.974ZM96.7263 25V22.27L96.4663 21.672V16.784C96.4663 15.9173 96.1976 15.2413 95.6603 14.756C95.1403 14.2707 94.3343 14.028 93.2423 14.028C92.497 14.028 91.7603 14.1493 91.0323 14.392C90.3216 14.6173 89.715 14.9293 89.2123 15.328L87.7563 12.494C88.519 11.9567 89.4376 11.5407 90.5123 11.246C91.587 10.9513 92.679 10.804 93.7883 10.804C95.9203 10.804 97.5756 11.3067 98.7543 12.312C99.933 13.3173 100.522 14.886 100.522 17.018V25H96.7263ZM92.4623 25.208C91.3703 25.208 90.4343 25.026 89.6543 24.662C88.8743 24.2807 88.2763 23.7693 87.8603 23.128C87.4443 22.4867 87.2363 21.7673 87.2363 20.97C87.2363 20.138 87.4356 19.41 87.8343 18.786C88.2503 18.162 88.9003 17.6767 89.7843 17.33C90.6683 16.966 91.821 16.784 93.2423 16.784H96.9603V19.15H93.6843C92.731 19.15 92.0723 19.306 91.7083 19.618C91.3616 19.93 91.1883 20.32 91.1883 20.788C91.1883 21.308 91.3876 21.724 91.7863 22.036C92.2023 22.3307 92.7656 22.478 93.4763 22.478C94.1523 22.478 94.759 22.322 95.2963 22.01C95.8336 21.6807 96.2236 21.204 96.4663 20.58L97.0903 22.452C96.7956 23.3533 96.2583 24.038 95.4783 24.506C94.6983 24.974 93.693 25.208 92.4623 25.208ZM107.036 25V13.404L107.946 14.34H102.304V11.012H115.798V14.34H110.156L111.066 13.404V25H107.036ZM117.96 25V11.012H121.99V16.472H128.074V11.012H132.13V25H128.074V19.774H121.99V25H117.96ZM144.385 25V22.27L144.125 21.672V16.784C144.125 15.9173 143.856 15.2413 143.319 14.756C142.799 14.2707 141.993 14.028 140.901 14.028C140.155 14.028 139.419 14.1493 138.691 14.392C137.98 14.6173 137.373 14.9293 136.871 15.328L135.415 12.494C136.177 11.9567 137.096 11.5407 138.171 11.246C139.245 10.9513 140.337 10.804 141.447 10.804C143.579 10.804 145.234 11.3067 146.413 12.312C147.591 13.3173 148.181 14.886 148.181 17.018V25H144.385ZM140.121 25.208C139.029 25.208 138.093 25.026 137.312 24.662C136.533 24.2807 135.935 23.7693 135.519 23.128C135.103 22.4867 134.895 21.7673 134.895 20.97C134.895 20.138 135.094 19.41 135.493 18.786C135.909 18.162 136.559 17.6767 137.443 17.33C138.327 16.966 139.479 16.784 140.901 16.784H144.619V19.15H141.343C140.389 19.15 139.731 19.306 139.367 19.618C139.02 19.93 138.847 20.32 138.847 20.788C138.847 21.308 139.046 21.724 139.445 22.036C139.861 22.3307 140.424 22.478 141.135 22.478C141.811 22.478 142.417 22.322 142.955 22.01C143.492 21.6807 143.882 21.204 144.125 20.58L144.749 22.452C144.454 23.3533 143.917 24.038 143.137 24.506C142.357 24.974 141.351 25.208 140.121 25.208ZM160.518 25V20.346L161.09 20.996H157.216C155.205 20.996 153.628 20.58 152.484 19.748C151.34 18.916 150.768 17.72 150.768 16.16C150.768 14.496 151.366 13.222 152.562 12.338C153.775 11.454 155.405 11.012 157.45 11.012H164.132V25H160.518ZM150.56 25L154.278 19.67H158.412L154.876 25H150.56ZM160.518 19.098V13.274L161.09 14.314H157.528C156.696 14.314 156.046 14.47 155.578 14.782C155.127 15.094 154.902 15.5967 154.902 16.29C154.902 17.6247 155.76 18.292 157.476 18.292H161.09L160.518 19.098ZM185.013 23.18V14.34H180.437L180.359 16.134C180.325 16.8793 180.281 17.59 180.229 18.266C180.177 18.942 180.073 19.5573 179.917 20.112C179.779 20.6493 179.571 21.1087 179.293 21.49C179.016 21.854 178.643 22.1053 178.175 22.244L174.171 21.672C174.674 21.672 175.081 21.5247 175.393 21.23C175.705 20.918 175.948 20.4933 176.121 19.956C176.295 19.4013 176.425 18.7773 176.511 18.084C176.598 17.3733 176.659 16.628 176.693 15.848L176.875 11.012H189.069V23.18H185.013ZM173.703 28.016V21.672H191.071V28.016H187.301V25H177.473V28.016H173.703ZM200.176 25.208C198.685 25.208 197.359 24.896 196.198 24.272C195.054 23.648 194.144 22.7987 193.468 21.724C192.809 20.632 192.48 19.3927 192.48 18.006C192.48 16.602 192.809 15.3627 193.468 14.288C194.144 13.196 195.054 12.3467 196.198 11.74C197.359 11.116 198.685 10.804 200.176 10.804C201.649 10.804 202.966 11.116 204.128 11.74C205.289 12.3467 206.199 13.1873 206.858 14.262C207.516 15.3367 207.846 16.5847 207.846 18.006C207.846 19.3927 207.516 20.632 206.858 21.724C206.199 22.7987 205.289 23.648 204.128 24.272C202.966 24.896 201.649 25.208 200.176 25.208ZM200.176 21.88C200.852 21.88 201.458 21.724 201.996 21.412C202.533 21.1 202.958 20.658 203.27 20.086C203.582 19.4967 203.738 18.8033 203.738 18.006C203.738 17.1913 203.582 16.498 203.27 15.926C202.958 15.354 202.533 14.912 201.996 14.6C201.458 14.288 200.852 14.132 200.176 14.132C199.5 14.132 198.893 14.288 198.356 14.6C197.818 14.912 197.385 15.354 197.056 15.926C196.744 16.498 196.588 17.1913 196.588 18.006C196.588 18.8033 196.744 19.4967 197.056 20.086C197.385 20.658 197.818 21.1 198.356 21.412C198.893 21.724 199.5 21.88 200.176 21.88ZM217.292 25.208C215.784 25.208 214.44 24.9047 213.262 24.298C212.083 23.674 211.156 22.816 210.48 21.724C209.821 20.632 209.492 19.3927 209.492 18.006C209.492 16.602 209.821 15.3627 210.48 14.288C211.156 13.196 212.083 12.3467 213.262 11.74C214.44 11.116 215.784 10.804 217.292 10.804C218.765 10.804 220.048 11.116 221.14 11.74C222.232 12.3467 223.038 13.222 223.558 14.366L220.412 16.056C220.048 15.3973 219.588 14.912 219.034 14.6C218.496 14.288 217.907 14.132 217.266 14.132C216.572 14.132 215.948 14.288 215.394 14.6C214.839 14.912 214.397 15.354 214.068 15.926C213.756 16.498 213.6 17.1913 213.6 18.006C213.6 18.8207 213.756 19.514 214.068 20.086C214.397 20.658 214.839 21.1 215.394 21.412C215.948 21.724 216.572 21.88 217.266 21.88C217.907 21.88 218.496 21.7327 219.034 21.438C219.588 21.126 220.048 20.632 220.412 19.956L223.558 21.672C223.038 22.7987 222.232 23.674 221.14 24.298C220.048 24.9047 218.765 25.208 217.292 25.208ZM228.987 25V13.404L229.897 14.34H224.255V11.012H237.749V14.34H232.107L233.017 13.404V25H228.987ZM248.283 25V22.27L248.023 21.672V16.784C248.023 15.9173 247.754 15.2413 247.217 14.756C246.697 14.2707 245.891 14.028 244.799 14.028C244.054 14.028 243.317 14.1493 242.589 14.392C241.878 14.6173 241.272 14.9293 240.769 15.328L239.313 12.494C240.076 11.9567 240.994 11.5407 242.069 11.246C243.144 10.9513 244.236 10.804 245.345 10.804C247.477 10.804 249.132 11.3067 250.311 12.312C251.49 13.3173 252.079 14.886 252.079 17.018V25H248.283ZM244.019 25.208C242.927 25.208 241.991 25.026 241.211 24.662C240.431 24.2807 239.833 23.7693 239.417 23.128C239.001 22.4867 238.793 21.7673 238.793 20.97C238.793 20.138 238.992 19.41 239.391 18.786C239.807 18.162 240.457 17.6767 241.341 17.33C242.225 16.966 243.378 16.784 244.799 16.784H248.517V19.15H245.241C244.288 19.15 243.629 19.306 243.265 19.618C242.918 19.93 242.745 20.32 242.745 20.788C242.745 21.308 242.944 21.724 243.343 22.036C243.759 22.3307 244.322 22.478 245.033 22.478C245.709 22.478 246.316 22.322 246.853 22.01C247.39 21.6807 247.78 21.204 248.023 20.58L248.647 22.452C248.352 23.3533 247.815 24.038 247.035 24.506C246.255 24.974 245.25 25.208 244.019 25.208ZM255.602 25V11.012H262.752C264.503 11.012 265.872 11.3327 266.86 11.974C267.848 12.598 268.342 13.482 268.342 14.626C268.342 15.77 267.874 16.6713 266.938 17.33C266.02 17.9713 264.798 18.292 263.272 18.292L263.688 17.356C265.387 17.356 266.652 17.668 267.484 18.292C268.334 18.916 268.758 19.826 268.758 21.022C268.758 22.2527 268.29 23.2233 267.354 23.934C266.418 24.6447 264.988 25 263.064 25H255.602ZM259.32 22.244H262.726C263.472 22.244 264.026 22.1227 264.39 21.88C264.772 21.62 264.962 21.23 264.962 20.71C264.962 20.1727 264.789 19.7827 264.442 19.54C264.096 19.28 263.55 19.15 262.804 19.15H259.32V22.244ZM259.32 16.758H262.388C263.099 16.758 263.628 16.628 263.974 16.368C264.338 16.108 264.52 15.7353 264.52 15.25C264.52 14.7473 264.338 14.3747 263.974 14.132C263.628 13.8893 263.099 13.768 262.388 13.768H259.32V16.758ZM281.682 25L277.002 18.37L280.304 16.42L286.466 25H281.682ZM271.776 25V11.012H275.832V25H271.776ZM274.636 19.696V16.446H279.524V19.696H274.636ZM280.694 18.474L276.898 18.058L281.812 11.012H286.128L280.694 18.474ZM296.576 25V22.27L296.316 21.672V16.784C296.316 15.9173 296.047 15.2413 295.51 14.756C294.99 14.2707 294.184 14.028 293.092 14.028C292.347 14.028 291.61 14.1493 290.882 14.392C290.171 14.6173 289.565 14.9293 289.062 15.328L287.606 12.494C288.369 11.9567 289.287 11.5407 290.362 11.246C291.437 10.9513 292.529 10.804 293.638 10.804C295.77 10.804 297.425 11.3067 298.604 12.312C299.783 13.3173 300.372 14.886 300.372 17.018V25H296.576ZM292.312 25.208C291.22 25.208 290.284 25.026 289.504 24.662C288.724 24.2807 288.126 23.7693 287.71 23.128C287.294 22.4867 287.086 21.7673 287.086 20.97C287.086 20.138 287.285 19.41 287.684 18.786C288.1 18.162 288.75 17.6767 289.634 17.33C290.518 16.966 291.671 16.784 293.092 16.784H296.81V19.15H293.534C292.581 19.15 291.922 19.306 291.558 19.618C291.211 19.93 291.038 20.32 291.038 20.788C291.038 21.308 291.237 21.724 291.636 22.036C292.052 22.3307 292.615 22.478 293.326 22.478C294.002 22.478 294.609 22.322 295.146 22.01C295.683 21.6807 296.073 21.204 296.316 20.58L296.94 22.452C296.645 23.3533 296.108 24.038 295.328 24.506C294.548 24.974 293.543 25.208 292.312 25.208Z" fill="#141414"/>
<path d="M1.414 64V56.65H8.022V64H7.028V57.252L7.28 57.518H2.156L2.408 57.252V64H1.414ZM13.8716 64.07C13.1623 64.07 12.5229 63.9113 11.9536 63.594C11.3936 63.2673 10.9503 62.824 10.6236 62.264C10.2969 61.6947 10.1336 61.046 10.1336 60.318C10.1336 59.5807 10.2969 58.932 10.6236 58.372C10.9503 57.812 11.3936 57.3733 11.9536 57.056C12.5136 56.7387 13.1529 56.58 13.8716 56.58C14.5996 56.58 15.2436 56.7387 15.8036 57.056C16.3729 57.3733 16.8163 57.812 17.1336 58.372C17.4603 58.932 17.6236 59.5807 17.6236 60.318C17.6236 61.046 17.4603 61.6947 17.1336 62.264C16.8163 62.824 16.3729 63.2673 15.8036 63.594C15.2343 63.9113 14.5903 64.07 13.8716 64.07ZM13.8716 63.188C14.4036 63.188 14.8749 63.0713 15.2856 62.838C15.6963 62.5953 16.0183 62.2593 16.2516 61.83C16.4943 61.3913 16.6156 60.8873 16.6156 60.318C16.6156 59.7393 16.4943 59.2353 16.2516 58.806C16.0183 58.3767 15.6963 58.0453 15.2856 57.812C14.8749 57.5693 14.4083 57.448 13.8856 57.448C13.3629 57.448 12.8963 57.5693 12.4856 57.812C12.0749 58.0453 11.7483 58.3767 11.5056 58.806C11.2629 59.2353 11.1416 59.7393 11.1416 60.318C11.1416 60.8873 11.2629 61.3913 11.5056 61.83C11.7483 62.2593 12.0749 62.5953 12.4856 62.838C12.8963 63.0713 13.3583 63.188 13.8716 63.188ZM23.412 64V56.65H26.66C27.4907 56.65 28.144 56.8087 28.62 57.126C29.1054 57.4433 29.348 57.91 29.348 58.526C29.348 59.1233 29.1194 59.5853 28.662 59.912C28.2047 60.2293 27.6027 60.388 26.856 60.388L27.052 60.094C27.9294 60.094 28.5734 60.2573 28.984 60.584C29.3947 60.9107 29.6 61.382 29.6 61.998C29.6 62.6327 29.3667 63.1273 28.9 63.482C28.4427 63.8273 27.7287 64 26.758 64H23.412ZM24.378 63.216H26.716C27.3414 63.216 27.8127 63.118 28.13 62.922C28.4567 62.7167 28.62 62.39 28.62 61.942C28.62 61.494 28.4754 61.1673 28.186 60.962C27.8967 60.7567 27.4394 60.654 26.814 60.654H24.378V63.216ZM24.378 59.912H26.59C27.1594 59.912 27.5934 59.8047 27.892 59.59C28.2 59.3753 28.354 59.0627 28.354 58.652C28.354 58.2413 28.2 57.9333 27.892 57.728C27.5934 57.5227 27.1594 57.42 26.59 57.42H24.378V59.912ZM35.0096 64.07C34.2816 64.07 33.6283 63.9113 33.0496 63.594C32.4803 63.2673 32.0323 62.824 31.7056 62.264C31.379 61.6947 31.2156 61.046 31.2156 60.318C31.2156 59.5807 31.379 58.932 31.7056 58.372C32.0323 57.812 32.4803 57.3733 33.0496 57.056C33.6283 56.7387 34.2816 56.58 35.0096 56.58C35.635 56.58 36.1996 56.7013 36.7036 56.944C37.2076 57.1867 37.6043 57.5507 37.8936 58.036L37.1516 58.54C36.8996 58.1667 36.587 57.8913 36.2136 57.714C35.8403 57.5367 35.4343 57.448 34.9956 57.448C34.473 57.448 34.0016 57.5693 33.5816 57.812C33.1616 58.0453 32.8303 58.3767 32.5876 58.806C32.345 59.2353 32.2236 59.7393 32.2236 60.318C32.2236 60.8967 32.345 61.4007 32.5876 61.83C32.8303 62.2593 33.1616 62.5953 33.5816 62.838C34.0016 63.0713 34.473 63.188 34.9956 63.188C35.4343 63.188 35.8403 63.0993 36.2136 62.922C36.587 62.7447 36.8996 62.474 37.1516 62.11L37.8936 62.614C37.6043 63.09 37.2076 63.454 36.7036 63.706C36.1996 63.9487 35.635 64.07 35.0096 64.07ZM42.8453 64.07C42.0799 64.07 41.4079 63.9113 40.8293 63.594C40.2506 63.2673 39.7979 62.824 39.4713 62.264C39.1446 61.6947 38.9813 61.046 38.9813 60.318C38.9813 59.59 39.1353 58.946 39.4433 58.386C39.7606 57.826 40.1899 57.3873 40.7313 57.07C41.2819 56.7433 41.8979 56.58 42.5793 56.58C43.2699 56.58 43.8813 56.7387 44.4133 57.056C44.9546 57.364 45.3793 57.8027 45.6873 58.372C45.9953 58.932 46.1493 59.5807 46.1493 60.318C46.1493 60.3647 46.1446 60.416 46.1353 60.472C46.1353 60.5187 46.1353 60.57 46.1353 60.626H39.7373V59.884H45.6033L45.2113 60.178C45.2113 59.646 45.0946 59.1747 44.8613 58.764C44.6373 58.344 44.3293 58.0173 43.9373 57.784C43.5453 57.5507 43.0926 57.434 42.5793 57.434C42.0753 57.434 41.6226 57.5507 41.2213 57.784C40.8199 58.0173 40.5073 58.344 40.2833 58.764C40.0593 59.184 39.9473 59.6647 39.9473 60.206V60.36C39.9473 60.92 40.0686 61.4147 40.3113 61.844C40.5633 62.264 40.9086 62.5953 41.3473 62.838C41.7953 63.0713 42.3039 63.188 42.8733 63.188C43.3213 63.188 43.7366 63.1087 44.1193 62.95C44.5113 62.7913 44.8473 62.5487 45.1273 62.222L45.6873 62.866C45.3606 63.258 44.9499 63.5567 44.4553 63.762C43.9699 63.9673 43.4333 64.07 42.8453 64.07ZM48.3495 64V56.65H49.3435V62.488L54.2575 56.65H55.1395V64H54.1455V58.148L49.2455 64H48.3495ZM51.6815 55.586C51.0655 55.586 50.5662 55.432 50.1835 55.124C49.8102 54.8067 49.6142 54.354 49.5955 53.766H50.3095C50.3189 54.1393 50.4495 54.4333 50.7015 54.648C50.9535 54.8627 51.2802 54.97 51.6815 54.97C52.0829 54.97 52.4095 54.8627 52.6615 54.648C52.9229 54.4333 53.0582 54.1393 53.0675 53.766H53.7815C53.7722 54.354 53.5762 54.8067 53.1935 55.124C52.8109 55.432 52.3069 55.586 51.6815 55.586ZM61.8903 64V54.2H65.5583C66.3889 54.2 67.1029 54.3353 67.7003 54.606C68.2976 54.8673 68.7549 55.25 69.0723 55.754C69.3989 56.2487 69.5623 56.8507 69.5623 57.56C69.5623 58.2507 69.3989 58.848 69.0723 59.352C68.7549 59.8467 68.2976 60.2293 67.7003 60.5C67.1029 60.7707 66.3889 60.906 65.5583 60.906H62.4643L62.9263 60.416V64H61.8903ZM62.9263 60.5L62.4643 59.996H65.5303C66.5103 59.996 67.2523 59.786 67.7563 59.366C68.2696 58.9367 68.5263 58.3347 68.5263 57.56C68.5263 56.776 68.2696 56.1693 67.7563 55.74C67.2523 55.3107 66.5103 55.096 65.5303 55.096H62.4643L62.9263 54.606V60.5ZM74.4243 64.07C73.715 64.07 73.0757 63.9113 72.5063 63.594C71.9463 63.2673 71.503 62.824 71.1763 62.264C70.8497 61.6947 70.6863 61.046 70.6863 60.318C70.6863 59.5807 70.8497 58.932 71.1763 58.372C71.503 57.812 71.9463 57.3733 72.5063 57.056C73.0663 56.7387 73.7057 56.58 74.4243 56.58C75.1523 56.58 75.7963 56.7387 76.3563 57.056C76.9257 57.3733 77.369 57.812 77.6863 58.372C78.013 58.932 78.1763 59.5807 78.1763 60.318C78.1763 61.046 78.013 61.6947 77.6863 62.264C77.369 62.824 76.9257 63.2673 76.3563 63.594C75.787 63.9113 75.143 64.07 74.4243 64.07ZM74.4243 63.188C74.9563 63.188 75.4277 63.0713 75.8383 62.838C76.249 62.5953 76.571 62.2593 76.8043 61.83C77.047 61.3913 77.1683 60.8873 77.1683 60.318C77.1683 59.7393 77.047 59.2353 76.8043 58.806C76.571 58.3767 76.249 58.0453 75.8383 57.812C75.4277 57.5693 74.961 57.448 74.4383 57.448C73.9157 57.448 73.449 57.5693 73.0383 57.812C72.6277 58.0453 72.301 58.3767 72.0583 58.806C71.8157 59.2353 71.6943 59.7393 71.6943 60.318C71.6943 60.8873 71.8157 61.3913 72.0583 61.83C72.301 62.2593 72.6277 62.5953 73.0383 62.838C73.449 63.0713 73.911 63.188 74.4243 63.188ZM83.3807 64.07C82.6527 64.07 81.9994 63.9113 81.4207 63.594C80.8514 63.2673 80.4034 62.824 80.0767 62.264C79.7501 61.6947 79.5867 61.046 79.5867 60.318C79.5867 59.5807 79.7501 58.932 80.0767 58.372C80.4034 57.812 80.8514 57.3733 81.4207 57.056C81.9994 56.7387 82.6527 56.58 83.3807 56.58C84.0061 56.58 84.5707 56.7013 85.0747 56.944C85.5787 57.1867 85.9754 57.5507 86.2647 58.036L85.5227 58.54C85.2707 58.1667 84.9581 57.8913 84.5847 57.714C84.2114 57.5367 83.8054 57.448 83.3667 57.448C82.8441 57.448 82.3727 57.5693 81.9527 57.812C81.5327 58.0453 81.2014 58.3767 80.9587 58.806C80.7161 59.2353 80.5947 59.7393 80.5947 60.318C80.5947 60.8967 80.7161 61.4007 80.9587 61.83C81.2014 62.2593 81.5327 62.5953 81.9527 62.838C82.3727 63.0713 82.8441 63.188 83.3667 63.188C83.8054 63.188 84.2114 63.0993 84.5847 62.922C84.9581 62.7447 85.2707 62.474 85.5227 62.11L86.2647 62.614C85.9754 63.09 85.5787 63.454 85.0747 63.706C84.5707 63.9487 84.0061 64.07 83.3807 64.07ZM91.1463 64.07C90.4183 64.07 89.765 63.9113 89.1863 63.594C88.617 63.2673 88.169 62.824 87.8423 62.264C87.5157 61.6947 87.3523 61.046 87.3523 60.318C87.3523 59.5807 87.5157 58.932 87.8423 58.372C88.169 57.812 88.617 57.3733 89.1863 57.056C89.765 56.7387 90.4183 56.58 91.1463 56.58C91.7717 56.58 92.3363 56.7013 92.8403 56.944C93.3443 57.1867 93.741 57.5507 94.0303 58.036L93.2883 58.54C93.0363 58.1667 92.7237 57.8913 92.3503 57.714C91.977 57.5367 91.571 57.448 91.1323 57.448C90.6097 57.448 90.1383 57.5693 89.7183 57.812C89.2983 58.0453 88.967 58.3767 88.7243 58.806C88.4817 59.2353 88.3603 59.7393 88.3603 60.318C88.3603 60.8967 88.4817 61.4007 88.7243 61.83C88.967 62.2593 89.2983 62.5953 89.7183 62.838C90.1383 63.0713 90.6097 63.188 91.1323 63.188C91.571 63.188 91.977 63.0993 92.3503 62.922C92.7237 62.7447 93.0363 62.474 93.2883 62.11L94.0303 62.614C93.741 63.09 93.3443 63.454 92.8403 63.706C92.3363 63.9487 91.7717 64.07 91.1463 64.07ZM95.955 64V56.65H96.949V62.488L101.863 56.65H102.745V64H101.751V58.148L96.851 64H95.955ZM105.594 64V56.65H106.588V62.488L111.502 56.65H112.384V64H111.39V58.148L106.49 64H105.594Z" fill="#141414"/>
</svg>
