<svg width="328" height="64" viewBox="0 0 328 64" fill="none" xmlns="http://www.w3.org/2000/svg">
<path d="M1.914 21V5.6H14.344V8.438H5.456V11.606H9.724C11.5867 11.606 13.002 11.9947 13.97 12.772C14.9527 13.5493 15.444 14.6787 15.444 16.16C15.444 17.6853 14.9013 18.8733 13.816 19.724C12.7307 20.5747 11.198 21 9.218 21H1.914ZM5.456 18.36H9.02C9.92933 18.36 10.626 18.184 11.11 17.832C11.594 17.4653 11.836 16.9373 11.836 16.248C11.836 14.8987 10.8973 14.224 9.02 14.224H5.456V18.36ZM23.6782 21.176C22.3289 21.176 21.1409 20.912 20.1142 20.384C19.1022 19.856 18.3175 19.1373 17.7602 18.228C17.2029 17.304 16.9242 16.2553 16.9242 15.082C16.9242 13.894 17.1955 12.8453 17.7382 11.936C18.2955 11.012 19.0509 10.2933 20.0042 9.78C20.9575 9.252 22.0355 8.988 23.2382 8.988C24.3969 8.988 25.4382 9.23733 26.3622 9.736C27.3009 10.22 28.0415 10.924 28.5842 11.848C29.1269 12.7573 29.3982 13.85 29.3982 15.126C29.3982 15.258 29.3909 15.412 29.3762 15.588C29.3615 15.7493 29.3469 15.9033 29.3322 16.05H19.7182V14.048H27.5282L26.2082 14.642C26.2082 14.026 26.0835 13.4907 25.8342 13.036C25.5849 12.5813 25.2402 12.2293 24.8002 11.98C24.3602 11.716 23.8469 11.584 23.2602 11.584C22.6735 11.584 22.1529 11.716 21.6982 11.98C21.2582 12.2293 20.9135 12.5887 20.6642 13.058C20.4149 13.5127 20.2902 14.0553 20.2902 14.686V15.214C20.2902 15.8593 20.4295 16.4313 20.7082 16.93C21.0015 17.414 21.4049 17.788 21.9182 18.052C22.4462 18.3013 23.0622 18.426 23.7662 18.426C24.3969 18.426 24.9469 18.3307 25.4162 18.14C25.9002 17.9493 26.3402 17.6633 26.7362 17.282L28.5622 19.262C28.0195 19.878 27.3375 20.3547 26.5162 20.692C25.6949 21.0147 24.7489 21.176 23.6782 21.176ZM37.6609 21.176C36.3849 21.176 35.2482 20.9193 34.2509 20.406C33.2536 19.878 32.4689 19.152 31.8969 18.228C31.3396 17.304 31.0609 16.2553 31.0609 15.082C31.0609 13.894 31.3396 12.8453 31.8969 11.936C32.4689 11.012 33.2536 10.2933 34.2509 9.78C35.2482 9.252 36.3849 8.988 37.6609 8.988C38.9076 8.988 39.9929 9.252 40.9169 9.78C41.8409 10.2933 42.5229 11.034 42.9629 12.002L40.3009 13.432C39.9929 12.8747 39.6042 12.464 39.1349 12.2C38.6802 11.936 38.1816 11.804 37.6389 11.804C37.0522 11.804 36.5242 11.936 36.0549 12.2C35.5856 12.464 35.2116 12.838 34.9329 13.322C34.6689 13.806 34.5369 14.3927 34.5369 15.082C34.5369 15.7713 34.6689 16.358 34.9329 16.842C35.2116 17.326 35.5856 17.7 36.0549 17.964C36.5242 18.228 37.0522 18.36 37.6389 18.36C38.1816 18.36 38.6802 18.2353 39.1349 17.986C39.6042 17.722 39.9929 17.304 40.3009 16.732L42.9629 18.184C42.5229 19.1373 41.8409 19.878 40.9169 20.406C39.9929 20.9193 38.9076 21.176 37.6609 21.176ZM45.0484 21V9.164H56.8184V21H53.3864V11.21L54.1564 11.98H47.6884L48.4584 11.21V21H45.0484ZM58.613 20.978L58.789 18.162C58.877 18.1767 58.965 18.1913 59.053 18.206C59.141 18.206 59.2217 18.206 59.295 18.206C59.7057 18.206 60.0283 18.0887 60.263 17.854C60.4977 17.6193 60.6737 17.304 60.791 16.908C60.9083 16.4973 60.989 16.0353 61.033 15.522C61.0917 15.0087 61.1357 14.4733 61.165 13.916L61.341 9.164H71.461V21H68.029V11.144L68.799 11.98H63.607L64.333 11.1L64.179 14.07C64.135 15.126 64.047 16.094 63.915 16.974C63.7977 17.854 63.5997 18.6167 63.321 19.262C63.0423 19.8927 62.6683 20.384 62.199 20.736C61.7297 21.0733 61.1283 21.242 60.395 21.242C60.131 21.242 59.8523 21.22 59.559 21.176C59.2657 21.132 58.9503 21.066 58.613 20.978ZM81.8453 21V18.69L81.6253 18.184V14.048C81.6253 13.3147 81.398 12.7427 80.9433 12.332C80.5033 11.9213 79.8213 11.716 78.8973 11.716C78.2667 11.716 77.6433 11.8187 77.0273 12.024C76.426 12.2147 75.9127 12.4787 75.4873 12.816L74.2553 10.418C74.9007 9.96333 75.678 9.61133 76.5873 9.362C77.4967 9.11267 78.4207 8.988 79.3593 8.988C81.1633 8.988 82.564 9.41333 83.5613 10.264C84.5587 11.1147 85.0573 12.442 85.0573 14.246V21H81.8453ZM78.2373 21.176C77.3133 21.176 76.5213 21.022 75.8613 20.714C75.2013 20.3913 74.6953 19.9587 74.3433 19.416C73.9913 18.8733 73.8153 18.2647 73.8153 17.59C73.8153 16.886 73.984 16.27 74.3213 15.742C74.6733 15.214 75.2233 14.8033 75.9713 14.51C76.7193 14.202 77.6947 14.048 78.8973 14.048H82.0433V16.05H79.2713C78.4647 16.05 77.9073 16.182 77.5993 16.446C77.306 16.71 77.1593 17.04 77.1593 17.436C77.1593 17.876 77.328 18.228 77.6653 18.492C78.0173 18.7413 78.494 18.866 79.0953 18.866C79.6673 18.866 80.1807 18.734 80.6353 18.47C81.09 18.1913 81.42 17.788 81.6253 17.26L82.1533 18.844C81.904 19.6067 81.4493 20.186 80.7893 20.582C80.1293 20.978 79.2787 21.176 78.2373 21.176ZM90.5687 21V11.188L91.3387 11.98H86.5647V9.164H97.9827V11.98H93.2087L93.9787 11.188V21H90.5687ZM99.8121 21V9.164H103.222V13.784H108.37V9.164H111.802V21H108.37V16.578H103.222V21H99.8121ZM122.172 21V18.69L121.952 18.184V14.048C121.952 13.3147 121.724 12.7427 121.27 12.332C120.83 11.9213 120.148 11.716 119.224 11.716C118.593 11.716 117.97 11.8187 117.354 12.024C116.752 12.2147 116.239 12.4787 115.814 12.816L114.582 10.418C115.227 9.96333 116.004 9.61133 116.914 9.362C117.823 9.11267 118.747 8.988 119.686 8.988C121.49 8.988 122.89 9.41333 123.888 10.264C124.885 11.1147 125.384 12.442 125.384 14.246V21H122.172ZM118.564 21.176C117.64 21.176 116.848 21.022 116.188 20.714C115.528 20.3913 115.022 19.9587 114.67 19.416C114.318 18.8733 114.142 18.2647 114.142 17.59C114.142 16.886 114.31 16.27 114.648 15.742C115 15.214 115.55 14.8033 116.298 14.51C117.046 14.202 118.021 14.048 119.224 14.048H122.37V16.05H119.598C118.791 16.05 118.234 16.182 117.926 16.446C117.632 16.71 117.486 17.04 117.486 17.436C117.486 17.876 117.654 18.228 117.992 18.492C118.344 18.7413 118.82 18.866 119.422 18.866C119.994 18.866 120.507 18.734 120.962 18.47C121.416 18.1913 121.746 17.788 121.952 17.26L122.48 18.844C122.23 19.6067 121.776 20.186 121.116 20.582C120.456 20.978 119.605 21.176 118.564 21.176ZM135.823 21V17.062L136.307 17.612H133.029C131.328 17.612 129.993 17.26 129.025 16.556C128.057 15.852 127.573 14.84 127.573 13.52C127.573 12.112 128.079 11.034 129.091 10.286C130.118 9.538 131.496 9.164 133.227 9.164H138.881V21H135.823ZM127.397 21L130.543 16.49H134.041L131.049 21H127.397ZM135.823 16.006V11.078L136.307 11.958H133.293C132.589 11.958 132.039 12.09 131.643 12.354C131.262 12.618 131.071 13.0433 131.071 13.63C131.071 14.7593 131.797 15.324 133.249 15.324H136.307L135.823 16.006ZM156.55 19.46V11.98H152.678L152.612 13.498C152.582 14.1287 152.546 14.73 152.502 15.302C152.458 15.874 152.37 16.3947 152.238 16.864C152.12 17.3187 151.944 17.7073 151.71 18.03C151.475 18.338 151.16 18.5507 150.764 18.668L147.376 18.184C147.801 18.184 148.146 18.0593 148.41 17.81C148.674 17.546 148.879 17.1867 149.026 16.732C149.172 16.2627 149.282 15.7347 149.356 15.148C149.429 14.5467 149.48 13.916 149.51 13.256L149.664 9.164H159.982V19.46H156.55ZM146.98 23.552V18.184H161.676V23.552H158.486V21H150.17V23.552H146.98ZM169.38 21.176C168.118 21.176 166.996 20.912 166.014 20.384C165.046 19.856 164.276 19.1373 163.704 18.228C163.146 17.304 162.868 16.2553 162.868 15.082C162.868 13.894 163.146 12.8453 163.704 11.936C164.276 11.012 165.046 10.2933 166.014 9.78C166.996 9.252 168.118 8.988 169.38 8.988C170.626 8.988 171.741 9.252 172.724 9.78C173.706 10.2933 174.476 11.0047 175.034 11.914C175.591 12.8233 175.87 13.8793 175.87 15.082C175.87 16.2553 175.591 17.304 175.034 18.228C174.476 19.1373 173.706 19.856 172.724 20.384C171.741 20.912 170.626 21.176 169.38 21.176ZM169.38 18.36C169.952 18.36 170.465 18.228 170.92 17.964C171.374 17.7 171.734 17.326 171.998 16.842C172.262 16.3433 172.394 15.7567 172.394 15.082C172.394 14.3927 172.262 13.806 171.998 13.322C171.734 12.838 171.374 12.464 170.92 12.2C170.465 11.936 169.952 11.804 169.38 11.804C168.808 11.804 168.294 11.936 167.84 12.2C167.385 12.464 167.018 12.838 166.74 13.322C166.476 13.806 166.344 14.3927 166.344 15.082C166.344 15.7567 166.476 16.3433 166.74 16.842C167.018 17.326 167.385 17.7 167.84 17.964C168.294 18.228 168.808 18.36 169.38 18.36ZM183.862 21.176C182.586 21.176 181.449 20.9193 180.452 20.406C179.455 19.878 178.67 19.152 178.098 18.228C177.541 17.304 177.262 16.2553 177.262 15.082C177.262 13.894 177.541 12.8453 178.098 11.936C178.67 11.012 179.455 10.2933 180.452 9.78C181.449 9.252 182.586 8.988 183.862 8.988C185.109 8.988 186.194 9.252 187.118 9.78C188.042 10.2933 188.724 11.034 189.164 12.002L186.502 13.432C186.194 12.8747 185.805 12.464 185.336 12.2C184.881 11.936 184.383 11.804 183.84 11.804C183.253 11.804 182.725 11.936 182.256 12.2C181.787 12.464 181.413 12.838 181.134 13.322C180.87 13.806 180.738 14.3927 180.738 15.082C180.738 15.7713 180.87 16.358 181.134 16.842C181.413 17.326 181.787 17.7 182.256 17.964C182.725 18.228 183.253 18.36 183.84 18.36C184.383 18.36 184.881 18.2353 185.336 17.986C185.805 17.722 186.194 17.304 186.502 16.732L189.164 18.184C188.724 19.1373 188.042 19.878 187.118 20.406C186.194 20.9193 185.109 21.176 183.862 21.176ZM193.758 21V11.188L194.528 11.98H189.754V9.164H201.172V11.98H196.398L197.168 11.188V21H193.758ZM210.086 21V18.69L209.866 18.184V14.048C209.866 13.3147 209.638 12.7427 209.184 12.332C208.744 11.9213 208.062 11.716 207.138 11.716C206.507 11.716 205.884 11.8187 205.268 12.024C204.666 12.2147 204.153 12.4787 203.728 12.816L202.496 10.418C203.141 9.96333 203.918 9.61133 204.828 9.362C205.737 9.11267 206.661 8.988 207.6 8.988C209.404 8.988 210.804 9.41333 211.802 10.264C212.799 11.1147 213.298 12.442 213.298 14.246V21H210.086ZM206.478 21.176C205.554 21.176 204.762 21.022 204.102 20.714C203.442 20.3913 202.936 19.9587 202.584 19.416C202.232 18.8733 202.056 18.2647 202.056 17.59C202.056 16.886 202.224 16.27 202.562 15.742C202.914 15.214 203.464 14.8033 204.212 14.51C204.96 14.202 205.935 14.048 207.138 14.048H210.284V16.05H207.512C206.705 16.05 206.148 16.182 205.84 16.446C205.546 16.71 205.4 17.04 205.4 17.436C205.4 17.876 205.568 18.228 205.906 18.492C206.258 18.7413 206.734 18.866 207.336 18.866C207.908 18.866 208.421 18.734 208.876 18.47C209.33 18.1913 209.66 17.788 209.866 17.26L210.394 18.844C210.144 19.6067 209.69 20.186 209.03 20.582C208.37 20.978 207.519 21.176 206.478 21.176ZM216.279 21V9.164H222.329C223.81 9.164 224.969 9.43533 225.805 9.978C226.641 10.506 227.059 11.254 227.059 12.222C227.059 13.19 226.663 13.9527 225.871 14.51C225.094 15.0527 224.06 15.324 222.769 15.324L223.121 14.532C224.558 14.532 225.629 14.796 226.333 15.324C227.052 15.852 227.411 16.622 227.411 17.634C227.411 18.6753 227.015 19.4967 226.223 20.098C225.431 20.6993 224.221 21 222.593 21H216.279ZM219.425 18.668H222.307C222.938 18.668 223.407 18.5653 223.715 18.36C224.038 18.14 224.199 17.81 224.199 17.37C224.199 16.9153 224.052 16.5853 223.759 16.38C223.466 16.16 223.004 16.05 222.373 16.05H219.425V18.668ZM219.425 14.026H222.021C222.622 14.026 223.07 13.916 223.363 13.696C223.671 13.476 223.825 13.1607 223.825 12.75C223.825 12.3247 223.671 12.0093 223.363 11.804C223.07 11.5987 222.622 11.496 222.021 11.496H219.425V14.026ZM238.346 21L234.386 15.39L237.18 13.74L242.394 21H238.346ZM229.964 21V9.164H233.396V21H229.964ZM232.384 16.512V13.762H236.52V16.512H232.384ZM237.51 15.478L234.298 15.126L238.456 9.164H242.108L237.51 15.478ZM250.949 21V18.69L250.729 18.184V14.048C250.729 13.3147 250.502 12.7427 250.047 12.332C249.607 11.9213 248.925 11.716 248.001 11.716C247.37 11.716 246.747 11.8187 246.131 12.024C245.53 12.2147 245.016 12.4787 244.591 12.816L243.359 10.418C244.004 9.96333 244.782 9.61133 245.691 9.362C246.6 9.11267 247.524 8.988 248.463 8.988C250.267 8.988 251.668 9.41333 252.665 10.264C253.662 11.1147 254.161 12.442 254.161 14.246V21H250.949ZM247.341 21.176C246.417 21.176 245.625 21.022 244.965 20.714C244.305 20.3913 243.799 19.9587 243.447 19.416C243.095 18.8733 242.919 18.2647 242.919 17.59C242.919 16.886 243.088 16.27 243.425 15.742C243.777 15.214 244.327 14.8033 245.075 14.51C245.823 14.202 246.798 14.048 248.001 14.048H251.147V16.05H248.375C247.568 16.05 247.011 16.182 246.703 16.446C246.41 16.71 246.263 17.04 246.263 17.436C246.263 17.876 246.432 18.228 246.769 18.492C247.121 18.7413 247.598 18.866 248.199 18.866C248.771 18.866 249.284 18.734 249.739 18.47C250.194 18.1913 250.524 17.788 250.729 17.26L251.257 18.844C251.008 19.6067 250.553 20.186 249.893 20.582C249.233 20.978 248.382 21.176 247.341 21.176Z" fill="#141414"/>
<path d="M1.414 58V50.65H8.022V58H7.028V51.252L7.28 51.518H2.156L2.408 51.252V58H1.414ZM13.8716 58.07C13.1623 58.07 12.5229 57.9113 11.9536 57.594C11.3936 57.2673 10.9503 56.824 10.6236 56.264C10.2969 55.6947 10.1336 55.046 10.1336 54.318C10.1336 53.5807 10.2969 52.932 10.6236 52.372C10.9503 51.812 11.3936 51.3733 11.9536 51.056C12.5136 50.7387 13.1529 50.58 13.8716 50.58C14.5996 50.58 15.2436 50.7387 15.8036 51.056C16.3729 51.3733 16.8163 51.812 17.1336 52.372C17.4603 52.932 17.6236 53.5807 17.6236 54.318C17.6236 55.046 17.4603 55.6947 17.1336 56.264C16.8163 56.824 16.3729 57.2673 15.8036 57.594C15.2343 57.9113 14.5903 58.07 13.8716 58.07ZM13.8716 57.188C14.4036 57.188 14.8749 57.0713 15.2856 56.838C15.6963 56.5953 16.0183 56.2593 16.2516 55.83C16.4943 55.3913 16.6156 54.8873 16.6156 54.318C16.6156 53.7393 16.4943 53.2353 16.2516 52.806C16.0183 52.3767 15.6963 52.0453 15.2856 51.812C14.8749 51.5693 14.4083 51.448 13.8856 51.448C13.3629 51.448 12.8963 51.5693 12.4856 51.812C12.0749 52.0453 11.7483 52.3767 11.5056 52.806C11.2629 53.2353 11.1416 53.7393 11.1416 54.318C11.1416 54.8873 11.2629 55.3913 11.5056 55.83C11.7483 56.2593 12.0749 56.5953 12.4856 56.838C12.8963 57.0713 13.3583 57.188 13.8716 57.188ZM23.412 58V50.65H26.66C27.4907 50.65 28.144 50.8087 28.62 51.126C29.1054 51.4433 29.348 51.91 29.348 52.526C29.348 53.1233 29.1194 53.5853 28.662 53.912C28.2047 54.2293 27.6027 54.388 26.856 54.388L27.052 54.094C27.9294 54.094 28.5734 54.2573 28.984 54.584C29.3947 54.9107 29.6 55.382 29.6 55.998C29.6 56.6327 29.3667 57.1273 28.9 57.482C28.4427 57.8273 27.7287 58 26.758 58H23.412ZM24.378 57.216H26.716C27.3414 57.216 27.8127 57.118 28.13 56.922C28.4567 56.7167 28.62 56.39 28.62 55.942C28.62 55.494 28.4754 55.1673 28.186 54.962C27.8967 54.7567 27.4394 54.654 26.814 54.654H24.378V57.216ZM24.378 53.912H26.59C27.1594 53.912 27.5934 53.8047 27.892 53.59C28.2 53.3753 28.354 53.0627 28.354 52.652C28.354 52.2413 28.2 51.9333 27.892 51.728C27.5934 51.5227 27.1594 51.42 26.59 51.42H24.378V53.912ZM35.0096 58.07C34.2816 58.07 33.6283 57.9113 33.0496 57.594C32.4803 57.2673 32.0323 56.824 31.7056 56.264C31.379 55.6947 31.2156 55.046 31.2156 54.318C31.2156 53.5807 31.379 52.932 31.7056 52.372C32.0323 51.812 32.4803 51.3733 33.0496 51.056C33.6283 50.7387 34.2816 50.58 35.0096 50.58C35.635 50.58 36.1996 50.7013 36.7036 50.944C37.2076 51.1867 37.6043 51.5507 37.8936 52.036L37.1516 52.54C36.8996 52.1667 36.587 51.8913 36.2136 51.714C35.8403 51.5367 35.4343 51.448 34.9956 51.448C34.473 51.448 34.0016 51.5693 33.5816 51.812C33.1616 52.0453 32.8303 52.3767 32.5876 52.806C32.345 53.2353 32.2236 53.7393 32.2236 54.318C32.2236 54.8967 32.345 55.4007 32.5876 55.83C32.8303 56.2593 33.1616 56.5953 33.5816 56.838C34.0016 57.0713 34.473 57.188 34.9956 57.188C35.4343 57.188 35.8403 57.0993 36.2136 56.922C36.587 56.7447 36.8996 56.474 37.1516 56.11L37.8936 56.614C37.6043 57.09 37.2076 57.454 36.7036 57.706C36.1996 57.9487 35.635 58.07 35.0096 58.07ZM42.8453 58.07C42.0799 58.07 41.4079 57.9113 40.8293 57.594C40.2506 57.2673 39.7979 56.824 39.4713 56.264C39.1446 55.6947 38.9813 55.046 38.9813 54.318C38.9813 53.59 39.1353 52.946 39.4433 52.386C39.7606 51.826 40.1899 51.3873 40.7313 51.07C41.2819 50.7433 41.8979 50.58 42.5793 50.58C43.2699 50.58 43.8813 50.7387 44.4133 51.056C44.9546 51.364 45.3793 51.8027 45.6873 52.372C45.9953 52.932 46.1493 53.5807 46.1493 54.318C46.1493 54.3647 46.1446 54.416 46.1353 54.472C46.1353 54.5187 46.1353 54.57 46.1353 54.626H39.7373V53.884H45.6033L45.2113 54.178C45.2113 53.646 45.0946 53.1747 44.8613 52.764C44.6373 52.344 44.3293 52.0173 43.9373 51.784C43.5453 51.5507 43.0926 51.434 42.5793 51.434C42.0753 51.434 41.6226 51.5507 41.2213 51.784C40.8199 52.0173 40.5073 52.344 40.2833 52.764C40.0593 53.184 39.9473 53.6647 39.9473 54.206V54.36C39.9473 54.92 40.0686 55.4147 40.3113 55.844C40.5633 56.264 40.9086 56.5953 41.3473 56.838C41.7953 57.0713 42.3039 57.188 42.8733 57.188C43.3213 57.188 43.7366 57.1087 44.1193 56.95C44.5113 56.7913 44.8473 56.5487 45.1273 56.222L45.6873 56.866C45.3606 57.258 44.9499 57.5567 44.4553 57.762C43.9699 57.9673 43.4333 58.07 42.8453 58.07ZM48.3495 58V50.65H49.3435V56.488L54.2575 50.65H55.1395V58H54.1455V52.148L49.2455 58H48.3495ZM51.6815 49.586C51.0655 49.586 50.5662 49.432 50.1835 49.124C49.8102 48.8067 49.6142 48.354 49.5955 47.766H50.3095C50.3189 48.1393 50.4495 48.4333 50.7015 48.648C50.9535 48.8627 51.2802 48.97 51.6815 48.97C52.0829 48.97 52.4095 48.8627 52.6615 48.648C52.9229 48.4333 53.0582 48.1393 53.0675 47.766H53.7815C53.7722 48.354 53.5762 48.8067 53.1935 49.124C52.8109 49.432 52.3069 49.586 51.6815 49.586ZM61.8903 58V48.2H65.5583C66.3889 48.2 67.1029 48.3353 67.7003 48.606C68.2976 48.8673 68.7549 49.25 69.0723 49.754C69.3989 50.2487 69.5623 50.8507 69.5623 51.56C69.5623 52.2507 69.3989 52.848 69.0723 53.352C68.7549 53.8467 68.2976 54.2293 67.7003 54.5C67.1029 54.7707 66.3889 54.906 65.5583 54.906H62.4643L62.9263 54.416V58H61.8903ZM62.9263 54.5L62.4643 53.996H65.5303C66.5103 53.996 67.2523 53.786 67.7563 53.366C68.2696 52.9367 68.5263 52.3347 68.5263 51.56C68.5263 50.776 68.2696 50.1693 67.7563 49.74C67.2523 49.3107 66.5103 49.096 65.5303 49.096H62.4643L62.9263 48.606V54.5ZM74.4243 58.07C73.715 58.07 73.0757 57.9113 72.5063 57.594C71.9463 57.2673 71.503 56.824 71.1763 56.264C70.8497 55.6947 70.6863 55.046 70.6863 54.318C70.6863 53.5807 70.8497 52.932 71.1763 52.372C71.503 51.812 71.9463 51.3733 72.5063 51.056C73.0663 50.7387 73.7057 50.58 74.4243 50.58C75.1523 50.58 75.7963 50.7387 76.3563 51.056C76.9257 51.3733 77.369 51.812 77.6863 52.372C78.013 52.932 78.1763 53.5807 78.1763 54.318C78.1763 55.046 78.013 55.6947 77.6863 56.264C77.369 56.824 76.9257 57.2673 76.3563 57.594C75.787 57.9113 75.143 58.07 74.4243 58.07ZM74.4243 57.188C74.9563 57.188 75.4277 57.0713 75.8383 56.838C76.249 56.5953 76.571 56.2593 76.8043 55.83C77.047 55.3913 77.1683 54.8873 77.1683 54.318C77.1683 53.7393 77.047 53.2353 76.8043 52.806C76.571 52.3767 76.249 52.0453 75.8383 51.812C75.4277 51.5693 74.961 51.448 74.4383 51.448C73.9157 51.448 73.449 51.5693 73.0383 51.812C72.6277 52.0453 72.301 52.3767 72.0583 52.806C71.8157 53.2353 71.6943 53.7393 71.6943 54.318C71.6943 54.8873 71.8157 55.3913 72.0583 55.83C72.301 56.2593 72.6277 56.5953 73.0383 56.838C73.449 57.0713 73.911 57.188 74.4243 57.188ZM83.3807 58.07C82.6527 58.07 81.9994 57.9113 81.4207 57.594C80.8514 57.2673 80.4034 56.824 80.0767 56.264C79.7501 55.6947 79.5867 55.046 79.5867 54.318C79.5867 53.5807 79.7501 52.932 80.0767 52.372C80.4034 51.812 80.8514 51.3733 81.4207 51.056C81.9994 50.7387 82.6527 50.58 83.3807 50.58C84.0061 50.58 84.5707 50.7013 85.0747 50.944C85.5787 51.1867 85.9754 51.5507 86.2647 52.036L85.5227 52.54C85.2707 52.1667 84.9581 51.8913 84.5847 51.714C84.2114 51.5367 83.8054 51.448 83.3667 51.448C82.8441 51.448 82.3727 51.5693 81.9527 51.812C81.5327 52.0453 81.2014 52.3767 80.9587 52.806C80.7161 53.2353 80.5947 53.7393 80.5947 54.318C80.5947 54.8967 80.7161 55.4007 80.9587 55.83C81.2014 56.2593 81.5327 56.5953 81.9527 56.838C82.3727 57.0713 82.8441 57.188 83.3667 57.188C83.8054 57.188 84.2114 57.0993 84.5847 56.922C84.9581 56.7447 85.2707 56.474 85.5227 56.11L86.2647 56.614C85.9754 57.09 85.5787 57.454 85.0747 57.706C84.5707 57.9487 84.0061 58.07 83.3807 58.07ZM91.1463 58.07C90.4183 58.07 89.765 57.9113 89.1863 57.594C88.617 57.2673 88.169 56.824 87.8423 56.264C87.5157 55.6947 87.3523 55.046 87.3523 54.318C87.3523 53.5807 87.5157 52.932 87.8423 52.372C88.169 51.812 88.617 51.3733 89.1863 51.056C89.765 50.7387 90.4183 50.58 91.1463 50.58C91.7717 50.58 92.3363 50.7013 92.8403 50.944C93.3443 51.1867 93.741 51.5507 94.0303 52.036L93.2883 52.54C93.0363 52.1667 92.7237 51.8913 92.3503 51.714C91.977 51.5367 91.571 51.448 91.1323 51.448C90.6097 51.448 90.1383 51.5693 89.7183 51.812C89.2983 52.0453 88.967 52.3767 88.7243 52.806C88.4817 53.2353 88.3603 53.7393 88.3603 54.318C88.3603 54.8967 88.4817 55.4007 88.7243 55.83C88.967 56.2593 89.2983 56.5953 89.7183 56.838C90.1383 57.0713 90.6097 57.188 91.1323 57.188C91.571 57.188 91.977 57.0993 92.3503 56.922C92.7237 56.7447 93.0363 56.474 93.2883 56.11L94.0303 56.614C93.741 57.09 93.3443 57.454 92.8403 57.706C92.3363 57.9487 91.7717 58.07 91.1463 58.07ZM95.955 58V50.65H96.949V56.488L101.863 50.65H102.745V58H101.751V52.148L96.851 58H95.955ZM105.594 58V50.65H106.588V56.488L111.502 50.65H112.384V58H111.39V52.148L106.49 58H105.594Z" fill="#141414"/>
</svg>
