<svg width="141" height="40" viewBox="0 0 141 40" fill="none" xmlns="http://www.w3.org/2000/svg">
<path fill-rule="evenodd" clip-rule="evenodd" d="M22.0933 29.7275H16.0132C6.52842 29.7275 13.4191 9.51611 21.4042 9.51611H31.0107C32.5509 9.51611 35.2666 9.80082 36.6043 5.97811L38.6715 0.0407715H25.4981C18.3642 0.0407715 12.8111 2.56211 8.7983 6.79145C1.86707 14.0301 -0.483868 25.3355 1.17801 30.7441C2.75881 35.7461 7.05536 39.0401 13.7839 39.1215L19.0127 39.1621H25.4575L27.0384 34.4041C28.2138 31.0288 25.5792 29.7275 22.0933 29.7275ZM96.1075 21.3501L98.0933 14.8841H76.8945C73.3681 14.8841 71.7873 15.8601 71.1793 17.8934L69.1932 24.3595H90.3922C93.9186 24.3595 95.4994 23.3835 96.1075 21.3501ZM66.0316 32.7368L64.0454 39.2028H85.2444C88.7303 39.2028 90.3516 38.2268 90.9597 36.1935L92.9458 29.7275H71.7468C68.2609 29.7275 66.6801 30.7035 66.0316 32.7368ZM101.052 6.54745L103.039 0.0814376H81.8396C78.3133 0.0814376 76.7324 1.05744 76.1245 3.09077L74.1383 9.55678H95.3373C98.8236 9.55678 100.404 8.58078 101.052 6.54745ZM69.0311 7.84878C68.1393 1.83011 64.9371 0.0814376 57.1547 0.0814376H42.9681L34.6992 24.3595H39.928C43.0491 24.3595 44.6299 24.4001 46.2918 19.9268L49.7371 9.51611H55.0064C59.5057 9.51611 58.4924 15.1688 56.2225 20.6588C54.1958 25.4981 50.6694 29.7681 46.4133 29.7681H37.6176C34.0912 29.7681 32.4699 30.7441 31.8213 32.7775L29.6325 39.2435H36.0773L42.4006 39.2028C47.9942 39.1621 52.5744 38.7555 57.9249 33.9161C63.5996 28.7515 70.166 15.4941 69.0311 7.84878ZM140.289 0.0407715H128.008L116.455 12.3628C115.117 13.7861 113.739 15.2094 112.401 16.8768H112.28L118.036 0.0407715H108.025L94.5266 39.2028H104.538L108.835 26.8808L113.293 23.0988L116.82 34.2415C117.914 37.6981 119.05 39.2028 121.482 39.2028H129.143L121.279 17.3241L140.289 0.0407715Z" fill="#00B33C"/>
</svg>
