<svg width="572" height="88" viewBox="0 0 572 88" fill="none" xmlns="http://www.w3.org/2000/svg">
<path d="M3.48 38V10H26.08V15.16H9.92V20.92H17.68C21.0667 20.92 23.64 21.6267 25.4 23.04C27.1867 24.4533 28.08 26.5067 28.08 29.2C28.08 31.9733 27.0933 34.1333 25.12 35.68C23.1467 37.2267 20.36 38 16.76 38H3.48ZM9.92 33.2H16.4C18.0533 33.2 19.32 32.88 20.2 32.24C21.08 31.5733 21.52 30.6133 21.52 29.36C21.52 26.9067 19.8133 25.68 16.4 25.68H9.92V33.2ZM43.0513 38.32C40.5979 38.32 38.4379 37.84 36.5713 36.88C34.7313 35.92 33.3046 34.6133 32.2913 32.96C31.2779 31.28 30.7713 29.3733 30.7713 27.24C30.7713 25.08 31.2646 23.1733 32.2513 21.52C33.2646 19.84 34.6379 18.5333 36.3713 17.6C38.1046 16.64 40.0646 16.16 42.2513 16.16C44.3579 16.16 46.2513 16.6133 47.9313 17.52C49.6379 18.4 50.9846 19.68 51.9713 21.36C52.9579 23.0133 53.4513 25 53.4513 27.32C53.4513 27.56 53.4379 27.84 53.4113 28.16C53.3846 28.4533 53.3579 28.7333 53.3313 29H35.8513V25.36H50.0513L47.6513 26.44C47.6513 25.32 47.4246 24.3467 46.9713 23.52C46.5179 22.6933 45.8913 22.0533 45.0913 21.6C44.2913 21.12 43.3579 20.88 42.2913 20.88C41.2246 20.88 40.2779 21.12 39.4513 21.6C38.6513 22.0533 38.0246 22.7067 37.5713 23.56C37.1179 24.3867 36.8913 25.3733 36.8913 26.52V27.48C36.8913 28.6533 37.1446 29.6933 37.6513 30.6C38.1846 31.48 38.9179 32.16 39.8513 32.64C40.8113 33.0933 41.9313 33.32 43.2113 33.32C44.3579 33.32 45.3579 33.1467 46.2113 32.8C47.0913 32.4533 47.8913 31.9333 48.6113 31.24L51.9313 34.84C50.9446 35.96 49.7046 36.8267 48.2113 37.44C46.7179 38.0267 44.9979 38.32 43.0513 38.32ZM68.4744 38.32C66.1544 38.32 64.0877 37.8533 62.2744 36.92C60.461 35.96 59.0344 34.64 57.9944 32.96C56.981 31.28 56.4744 29.3733 56.4744 27.24C56.4744 25.08 56.981 23.1733 57.9944 21.52C59.0344 19.84 60.461 18.5333 62.2744 17.6C64.0877 16.64 66.1544 16.16 68.4744 16.16C70.741 16.16 72.7144 16.64 74.3944 17.6C76.0744 18.5333 77.3144 19.88 78.1144 21.64L73.2744 24.24C72.7144 23.2267 72.0077 22.48 71.1544 22C70.3277 21.52 69.421 21.28 68.4344 21.28C67.3677 21.28 66.4077 21.52 65.5544 22C64.701 22.48 64.021 23.16 63.5144 24.04C63.0344 24.92 62.7944 25.9867 62.7944 27.24C62.7944 28.4933 63.0344 29.56 63.5144 30.44C64.021 31.32 64.701 32 65.5544 32.48C66.4077 32.96 67.3677 33.2 68.4344 33.2C69.421 33.2 70.3277 32.9733 71.1544 32.52C72.0077 32.04 72.7144 31.28 73.2744 30.24L78.1144 32.88C77.3144 34.6133 76.0744 35.96 74.3944 36.92C72.7144 37.8533 70.741 38.32 68.4744 38.32ZM81.9063 38V16.48H103.306V38H97.0663V20.2L98.4663 21.6H86.7063L88.1063 20.2V38H81.9063ZM106.569 37.96L106.889 32.84C107.049 32.8667 107.209 32.8933 107.369 32.92C107.529 32.92 107.676 32.92 107.809 32.92C108.556 32.92 109.142 32.7067 109.569 32.28C109.996 31.8533 110.316 31.28 110.529 30.56C110.742 29.8133 110.889 28.9733 110.969 28.04C111.076 27.1067 111.156 26.1333 111.209 25.12L111.529 16.48H129.929V38H123.689V20.08L125.089 21.6H115.649L116.969 20L116.689 25.4C116.609 27.32 116.449 29.08 116.209 30.68C115.996 32.28 115.636 33.6667 115.129 34.84C114.622 35.9867 113.942 36.88 113.089 37.52C112.236 38.1333 111.142 38.44 109.809 38.44C109.329 38.44 108.822 38.4 108.289 38.32C107.756 38.24 107.182 38.12 106.569 37.96ZM148.81 38V33.8L148.41 32.88V25.36C148.41 24.0267 147.996 22.9867 147.17 22.24C146.37 21.4933 145.13 21.12 143.45 21.12C142.303 21.12 141.17 21.3067 140.05 21.68C138.956 22.0267 138.023 22.5067 137.25 23.12L135.01 18.76C136.183 17.9333 137.596 17.2933 139.25 16.84C140.903 16.3867 142.583 16.16 144.29 16.16C147.57 16.16 150.116 16.9333 151.93 18.48C153.743 20.0267 154.65 22.44 154.65 25.72V38H148.81ZM142.25 38.32C140.57 38.32 139.13 38.04 137.93 37.48C136.73 36.8933 135.81 36.1067 135.17 35.12C134.53 34.1333 134.21 33.0267 134.21 31.8C134.21 30.52 134.516 29.4 135.13 28.44C135.77 27.48 136.77 26.7333 138.13 26.2C139.49 25.64 141.263 25.36 143.45 25.36H149.17V29H144.13C142.663 29 141.65 29.24 141.09 29.72C140.556 30.2 140.29 30.8 140.29 31.52C140.29 32.32 140.596 32.96 141.21 33.44C141.85 33.8933 142.716 34.12 143.81 34.12C144.85 34.12 145.783 33.88 146.61 33.4C147.436 32.8933 148.036 32.16 148.41 31.2L149.37 34.08C148.916 35.4667 148.09 36.52 146.89 37.24C145.69 37.96 144.143 38.32 142.25 38.32ZM164.67 38V20.16L166.07 21.6H157.39V16.48H178.15V21.6H169.47L170.87 20.16V38H164.67ZM181.477 38V16.48H187.677V24.88H197.037V16.48H203.277V38H197.037V29.96H187.677V38H181.477ZM222.13 38V33.8L221.73 32.88V25.36C221.73 24.0267 221.317 22.9867 220.49 22.24C219.69 21.4933 218.45 21.12 216.77 21.12C215.623 21.12 214.49 21.3067 213.37 21.68C212.277 22.0267 211.343 22.5067 210.57 23.12L208.33 18.76C209.503 17.9333 210.917 17.2933 212.57 16.84C214.223 16.3867 215.903 16.16 217.61 16.16C220.89 16.16 223.437 16.9333 225.25 18.48C227.063 20.0267 227.97 22.44 227.97 25.72V38H222.13ZM215.57 38.32C213.89 38.32 212.45 38.04 211.25 37.48C210.05 36.8933 209.13 36.1067 208.49 35.12C207.85 34.1333 207.53 33.0267 207.53 31.8C207.53 30.52 207.837 29.4 208.45 28.44C209.09 27.48 210.09 26.7333 211.45 26.2C212.81 25.64 214.583 25.36 216.77 25.36H222.49V29H217.45C215.983 29 214.97 29.24 214.41 29.72C213.877 30.2 213.61 30.8 213.61 31.52C213.61 32.32 213.917 32.96 214.53 33.44C215.17 33.8933 216.037 34.12 217.13 34.12C218.17 34.12 219.103 33.88 219.93 33.4C220.757 32.8933 221.357 32.16 221.73 31.2L222.69 34.08C222.237 35.4667 221.41 36.52 220.21 37.24C219.01 37.96 217.463 38.32 215.57 38.32ZM246.951 38V30.84L247.831 31.84H241.871C238.777 31.84 236.351 31.2 234.591 29.92C232.831 28.64 231.951 26.8 231.951 24.4C231.951 21.84 232.871 19.88 234.711 18.52C236.577 17.16 239.084 16.48 242.231 16.48H252.511V38H246.951ZM231.631 38L237.351 29.8H243.711L238.271 38H231.631ZM246.951 28.92V19.96L247.831 21.56H242.351C241.071 21.56 240.071 21.8 239.351 22.28C238.657 22.76 238.311 23.5333 238.311 24.6C238.311 26.6533 239.631 27.68 242.271 27.68H247.831L246.951 28.92ZM284.636 35.2V21.6H277.596L277.476 24.36C277.423 25.5067 277.356 26.6 277.276 27.64C277.196 28.68 277.036 29.6267 276.796 30.48C276.583 31.3067 276.263 32.0133 275.836 32.6C275.409 33.16 274.836 33.5467 274.116 33.76L267.956 32.88C268.729 32.88 269.356 32.6533 269.836 32.2C270.316 31.72 270.689 31.0667 270.956 30.24C271.223 29.3867 271.423 28.4267 271.556 27.36C271.689 26.2667 271.783 25.12 271.836 23.92L272.116 16.48H290.876V35.2H284.636ZM267.236 42.64V32.88H293.956V42.64H288.156V38H273.036V42.64H267.236ZM307.963 38.32C305.669 38.32 303.629 37.84 301.843 36.88C300.083 35.92 298.683 34.6133 297.643 32.96C296.629 31.28 296.123 29.3733 296.123 27.24C296.123 25.08 296.629 23.1733 297.643 21.52C298.683 19.84 300.083 18.5333 301.843 17.6C303.629 16.64 305.669 16.16 307.963 16.16C310.229 16.16 312.256 16.64 314.043 17.6C315.829 18.5333 317.229 19.8267 318.243 21.48C319.256 23.1333 319.763 25.0533 319.763 27.24C319.763 29.3733 319.256 31.28 318.243 32.96C317.229 34.6133 315.829 35.92 314.043 36.88C312.256 37.84 310.229 38.32 307.963 38.32ZM307.963 33.2C309.003 33.2 309.936 32.96 310.763 32.48C311.589 32 312.243 31.32 312.723 30.44C313.203 29.5333 313.443 28.4667 313.443 27.24C313.443 25.9867 313.203 24.92 312.723 24.04C312.243 23.16 311.589 22.48 310.763 22C309.936 21.52 309.003 21.28 307.963 21.28C306.923 21.28 305.989 21.52 305.163 22C304.336 22.48 303.669 23.16 303.163 24.04C302.683 24.92 302.443 25.9867 302.443 27.24C302.443 28.4667 302.683 29.5333 303.163 30.44C303.669 31.32 304.336 32 305.163 32.48C305.989 32.96 306.923 33.2 307.963 33.2ZM334.295 38.32C331.975 38.32 329.908 37.8533 328.095 36.92C326.281 35.96 324.855 34.64 323.815 32.96C322.801 31.28 322.295 29.3733 322.295 27.24C322.295 25.08 322.801 23.1733 323.815 21.52C324.855 19.84 326.281 18.5333 328.095 17.6C329.908 16.64 331.975 16.16 334.295 16.16C336.561 16.16 338.535 16.64 340.215 17.6C341.895 18.5333 343.135 19.88 343.935 21.64L339.095 24.24C338.535 23.2267 337.828 22.48 336.975 22C336.148 21.52 335.241 21.28 334.255 21.28C333.188 21.28 332.228 21.52 331.375 22C330.521 22.48 329.841 23.16 329.335 24.04C328.855 24.92 328.615 25.9867 328.615 27.24C328.615 28.4933 328.855 29.56 329.335 30.44C329.841 31.32 330.521 32 331.375 32.48C332.228 32.96 333.188 33.2 334.255 33.2C335.241 33.2 336.148 32.9733 336.975 32.52C337.828 32.04 338.535 31.28 339.095 30.24L343.935 32.88C343.135 34.6133 341.895 35.96 340.215 36.92C338.535 37.8533 336.561 38.32 334.295 38.32ZM352.288 38V20.16L353.688 21.6H345.008V16.48H365.768V21.6H357.088L358.488 20.16V38H352.288ZM381.974 38V33.8L381.574 32.88V25.36C381.574 24.0267 381.16 22.9867 380.334 22.24C379.534 21.4933 378.294 21.12 376.614 21.12C375.467 21.12 374.334 21.3067 373.214 21.68C372.12 22.0267 371.187 22.5067 370.414 23.12L368.174 18.76C369.347 17.9333 370.76 17.2933 372.414 16.84C374.067 16.3867 375.747 16.16 377.454 16.16C380.734 16.16 383.28 16.9333 385.094 18.48C386.907 20.0267 387.814 22.44 387.814 25.72V38H381.974ZM375.414 38.32C373.734 38.32 372.294 38.04 371.094 37.48C369.894 36.8933 368.974 36.1067 368.334 35.12C367.694 34.1333 367.374 33.0267 367.374 31.8C367.374 30.52 367.68 29.4 368.294 28.44C368.934 27.48 369.934 26.7333 371.294 26.2C372.654 25.64 374.427 25.36 376.614 25.36H382.334V29H377.294C375.827 29 374.814 29.24 374.254 29.72C373.72 30.2 373.454 30.8 373.454 31.52C373.454 32.32 373.76 32.96 374.374 33.44C375.014 33.8933 375.88 34.12 376.974 34.12C378.014 34.12 378.947 33.88 379.774 33.4C380.6 32.8933 381.2 32.16 381.574 31.2L382.534 34.08C382.08 35.4667 381.254 36.52 380.054 37.24C378.854 37.96 377.307 38.32 375.414 38.32ZM393.234 38V16.48H404.234C406.928 16.48 409.034 16.9733 410.554 17.96C412.074 18.92 412.834 20.28 412.834 22.04C412.834 23.8 412.114 25.1867 410.674 26.2C409.261 27.1867 407.381 27.68 405.034 27.68L405.674 26.24C408.288 26.24 410.234 26.72 411.514 27.68C412.821 28.64 413.474 30.04 413.474 31.88C413.474 33.7733 412.754 35.2667 411.314 36.36C409.874 37.4533 407.674 38 404.714 38H393.234ZM398.954 33.76H404.194C405.341 33.76 406.194 33.5733 406.754 33.2C407.341 32.8 407.634 32.2 407.634 31.4C407.634 30.5733 407.368 29.9733 406.834 29.6C406.301 29.2 405.461 29 404.314 29H398.954V33.76ZM398.954 25.32H403.674C404.768 25.32 405.581 25.12 406.114 24.72C406.674 24.32 406.954 23.7467 406.954 23C406.954 22.2267 406.674 21.6533 406.114 21.28C405.581 20.9067 404.768 20.72 403.674 20.72H398.954V25.32ZM433.357 38L426.157 27.8L431.237 24.8L440.717 38H433.357ZM418.117 38V16.48H424.357V38H418.117ZM422.517 29.84V24.84H430.037V29.84H422.517ZM431.837 27.96L425.997 27.32L433.557 16.48H440.197L431.837 27.96ZM456.271 38V33.8L455.871 32.88V25.36C455.871 24.0267 455.457 22.9867 454.631 22.24C453.831 21.4933 452.591 21.12 450.911 21.12C449.764 21.12 448.631 21.3067 447.511 21.68C446.417 22.0267 445.484 22.5067 444.711 23.12L442.471 18.76C443.644 17.9333 445.057 17.2933 446.711 16.84C448.364 16.3867 450.044 16.16 451.751 16.16C455.031 16.16 457.577 16.9333 459.391 18.48C461.204 20.0267 462.111 22.44 462.111 25.72V38H456.271ZM449.711 38.32C448.031 38.32 446.591 38.04 445.391 37.48C444.191 36.8933 443.271 36.1067 442.631 35.12C441.991 34.1333 441.671 33.0267 441.671 31.8C441.671 30.52 441.977 29.4 442.591 28.44C443.231 27.48 444.231 26.7333 445.591 26.2C446.951 25.64 448.724 25.36 450.911 25.36H456.631V29H451.591C450.124 29 449.111 29.24 448.551 29.72C448.017 30.2 447.751 30.8 447.751 31.52C447.751 32.32 448.057 32.96 448.671 33.44C449.311 33.8933 450.177 34.12 451.271 34.12C452.311 34.12 453.244 33.88 454.071 33.4C454.897 32.8933 455.497 32.16 455.871 31.2L456.831 34.08C456.377 35.4667 455.551 36.52 454.351 37.24C453.151 37.96 451.604 38.32 449.711 38.32Z" fill="#141414"/>
<path d="M1.616 82V73.6H9.168V82H8.032V74.288L8.32 74.592H2.464L2.752 74.288V82H1.616ZM15.8533 82.08C15.0426 82.08 14.3119 81.8987 13.6613 81.536C13.0213 81.1627 12.5146 80.656 12.1413 80.016C11.7679 79.3653 11.5813 78.624 11.5813 77.792C11.5813 76.9493 11.7679 76.208 12.1413 75.568C12.5146 74.928 13.0213 74.4267 13.6613 74.064C14.3013 73.7013 15.0319 73.52 15.8533 73.52C16.6853 73.52 17.4213 73.7013 18.0613 74.064C18.7119 74.4267 19.2186 74.928 19.5813 75.568C19.9546 76.208 20.1413 76.9493 20.1413 77.792C20.1413 78.624 19.9546 79.3653 19.5813 80.016C19.2186 80.656 18.7119 81.1627 18.0613 81.536C17.4106 81.8987 16.6746 82.08 15.8533 82.08ZM15.8533 81.072C16.4613 81.072 16.9999 80.9387 17.4693 80.672C17.9386 80.3947 18.3066 80.0107 18.5733 79.52C18.8506 79.0187 18.9893 78.4427 18.9893 77.792C18.9893 77.1307 18.8506 76.5547 18.5733 76.064C18.3066 75.5733 17.9386 75.1947 17.4693 74.928C16.9999 74.6507 16.4666 74.512 15.8693 74.512C15.2719 74.512 14.7386 74.6507 14.2693 74.928C13.7999 75.1947 13.4266 75.5733 13.1493 76.064C12.8719 76.5547 12.7333 77.1307 12.7333 77.792C12.7333 78.4427 12.8719 79.0187 13.1493 79.52C13.4266 80.0107 13.7999 80.3947 14.2693 80.672C14.7386 80.9387 15.2666 81.072 15.8533 81.072ZM26.7566 82V73.6H30.4686C31.418 73.6 32.1646 73.7813 32.7086 74.144C33.2633 74.5067 33.5406 75.04 33.5406 75.744C33.5406 76.4267 33.2793 76.9547 32.7566 77.328C32.234 77.6907 31.546 77.872 30.6926 77.872L30.9166 77.536C31.9193 77.536 32.6553 77.7227 33.1246 78.096C33.594 78.4693 33.8286 79.008 33.8286 79.712C33.8286 80.4373 33.562 81.0027 33.0286 81.408C32.506 81.8027 31.69 82 30.5806 82H26.7566ZM27.8606 81.104H30.5326C31.2473 81.104 31.786 80.992 32.1486 80.768C32.522 80.5333 32.7086 80.16 32.7086 79.648C32.7086 79.136 32.5433 78.7627 32.2126 78.528C31.882 78.2933 31.3593 78.176 30.6446 78.176H27.8606V81.104ZM27.8606 77.328H30.3886C31.0393 77.328 31.5353 77.2053 31.8766 76.96C32.2286 76.7147 32.4046 76.3573 32.4046 75.888C32.4046 75.4187 32.2286 75.0667 31.8766 74.832C31.5353 74.5973 31.0393 74.48 30.3886 74.48H27.8606V77.328ZM40.011 82.08C39.179 82.08 38.4323 81.8987 37.771 81.536C37.1203 81.1627 36.6083 80.656 36.235 80.016C35.8617 79.3653 35.675 78.624 35.675 77.792C35.675 76.9493 35.8617 76.208 36.235 75.568C36.6083 74.928 37.1203 74.4267 37.771 74.064C38.4323 73.7013 39.179 73.52 40.011 73.52C40.7257 73.52 41.371 73.6587 41.947 73.936C42.523 74.2133 42.9763 74.6293 43.307 75.184L42.459 75.76C42.171 75.3333 41.8137 75.0187 41.387 74.816C40.9603 74.6133 40.4963 74.512 39.995 74.512C39.3977 74.512 38.859 74.6507 38.379 74.928C37.899 75.1947 37.5203 75.5733 37.243 76.064C36.9657 76.5547 36.827 77.1307 36.827 77.792C36.827 78.4533 36.9657 79.0293 37.243 79.52C37.5203 80.0107 37.899 80.3947 38.379 80.672C38.859 80.9387 39.3977 81.072 39.995 81.072C40.4963 81.072 40.9603 80.9707 41.387 80.768C41.8137 80.5653 42.171 80.256 42.459 79.84L43.307 80.416C42.9763 80.96 42.523 81.376 41.947 81.664C41.371 81.9413 40.7257 82.08 40.011 82.08ZM48.966 82.08C48.0913 82.08 47.3233 81.8987 46.662 81.536C46.0007 81.1627 45.4833 80.656 45.11 80.016C44.7367 79.3653 44.55 78.624 44.55 77.792C44.55 76.96 44.726 76.224 45.078 75.584C45.4407 74.944 45.9313 74.4427 46.55 74.08C47.1793 73.7067 47.8833 73.52 48.662 73.52C49.4513 73.52 50.15 73.7013 50.758 74.064C51.3767 74.416 51.862 74.9173 52.214 75.568C52.566 76.208 52.742 76.9493 52.742 77.792C52.742 77.8453 52.7367 77.904 52.726 77.968C52.726 78.0213 52.726 78.08 52.726 78.144H45.414V77.296H52.118L51.67 77.632C51.67 77.024 51.5367 76.4853 51.27 76.016C51.014 75.536 50.662 75.1627 50.214 74.896C49.766 74.6293 49.2487 74.496 48.662 74.496C48.086 74.496 47.5687 74.6293 47.11 74.896C46.6513 75.1627 46.294 75.536 46.038 76.016C45.782 76.496 45.654 77.0453 45.654 77.664V77.84C45.654 78.48 45.7927 79.0453 46.07 79.536C46.358 80.016 46.7527 80.3947 47.254 80.672C47.766 80.9387 48.3473 81.072 48.998 81.072C49.51 81.072 49.9847 80.9813 50.422 80.8C50.87 80.6187 51.254 80.3413 51.574 79.968L52.214 80.704C51.8407 81.152 51.3713 81.4933 50.806 81.728C50.2513 81.9627 49.638 82.08 48.966 82.08ZM55.2566 82V73.6H56.3926V80.272L62.0086 73.6H63.0166V82H61.8806V75.312L56.2806 82H55.2566ZM59.0646 72.384C58.3606 72.384 57.79 72.208 57.3526 71.856C56.926 71.4933 56.702 70.976 56.6806 70.304H57.4966C57.5073 70.7307 57.6566 71.0667 57.9446 71.312C58.2326 71.5573 58.606 71.68 59.0646 71.68C59.5233 71.68 59.8966 71.5573 60.1846 71.312C60.4833 71.0667 60.638 70.7307 60.6486 70.304H61.4646C61.454 70.976 61.23 71.4933 60.7926 71.856C60.3553 72.208 59.7793 72.384 59.0646 72.384ZM70.7318 82V70.8H74.9238C75.8731 70.8 76.6891 70.9547 77.3718 71.264C78.0544 71.5627 78.5771 72 78.9398 72.576C79.3131 73.1413 79.4998 73.8293 79.4998 74.64C79.4998 75.4293 79.3131 76.112 78.9398 76.688C78.5771 77.2533 78.0544 77.6907 77.3718 78C76.6891 78.3093 75.8731 78.464 74.9238 78.464H71.3878L71.9158 77.904V82H70.7318ZM71.9158 78L71.3878 77.424H74.8918C76.0118 77.424 76.8598 77.184 77.4358 76.704C78.0224 76.2133 78.3158 75.5253 78.3158 74.64C78.3158 73.744 78.0224 73.0507 77.4358 72.56C76.8598 72.0693 76.0118 71.824 74.8918 71.824H71.3878L71.9158 71.264V78ZM85.0564 82.08C84.2457 82.08 83.515 81.8987 82.8644 81.536C82.2244 81.1627 81.7177 80.656 81.3444 80.016C80.971 79.3653 80.7844 78.624 80.7844 77.792C80.7844 76.9493 80.971 76.208 81.3444 75.568C81.7177 74.928 82.2244 74.4267 82.8644 74.064C83.5044 73.7013 84.235 73.52 85.0564 73.52C85.8884 73.52 86.6244 73.7013 87.2644 74.064C87.915 74.4267 88.4217 74.928 88.7844 75.568C89.1577 76.208 89.3444 76.9493 89.3444 77.792C89.3444 78.624 89.1577 79.3653 88.7844 80.016C88.4217 80.656 87.915 81.1627 87.2644 81.536C86.6137 81.8987 85.8777 82.08 85.0564 82.08ZM85.0564 81.072C85.6644 81.072 86.203 80.9387 86.6724 80.672C87.1417 80.3947 87.5097 80.0107 87.7764 79.52C88.0537 79.0187 88.1924 78.4427 88.1924 77.792C88.1924 77.1307 88.0537 76.5547 87.7764 76.064C87.5097 75.5733 87.1417 75.1947 86.6724 74.928C86.203 74.6507 85.6697 74.512 85.0724 74.512C84.475 74.512 83.9417 74.6507 83.4724 74.928C83.003 75.1947 82.6297 75.5733 82.3524 76.064C82.075 76.5547 81.9364 77.1307 81.9364 77.792C81.9364 78.4427 82.075 79.0187 82.3524 79.52C82.6297 80.0107 83.003 80.3947 83.4724 80.672C83.9417 80.9387 84.4697 81.072 85.0564 81.072ZM95.2923 82.08C94.4603 82.08 93.7136 81.8987 93.0523 81.536C92.4016 81.1627 91.8896 80.656 91.5163 80.016C91.1429 79.3653 90.9563 78.624 90.9563 77.792C90.9563 76.9493 91.1429 76.208 91.5163 75.568C91.8896 74.928 92.4016 74.4267 93.0523 74.064C93.7136 73.7013 94.4603 73.52 95.2923 73.52C96.0069 73.52 96.6523 73.6587 97.2283 73.936C97.8043 74.2133 98.2576 74.6293 98.5883 75.184L97.7403 75.76C97.4523 75.3333 97.0949 75.0187 96.6683 74.816C96.2416 74.6133 95.7776 74.512 95.2763 74.512C94.6789 74.512 94.1403 74.6507 93.6603 74.928C93.1803 75.1947 92.8016 75.5733 92.5243 76.064C92.2469 76.5547 92.1083 77.1307 92.1083 77.792C92.1083 78.4533 92.2469 79.0293 92.5243 79.52C92.8016 80.0107 93.1803 80.3947 93.6603 80.672C94.1403 80.9387 94.6789 81.072 95.2763 81.072C95.7776 81.072 96.2416 80.9707 96.6683 80.768C97.0949 80.5653 97.4523 80.256 97.7403 79.84L98.5883 80.416C98.2576 80.96 97.8043 81.376 97.2283 81.664C96.6523 81.9413 96.0069 82.08 95.2923 82.08ZM104.167 82.08C103.335 82.08 102.589 81.8987 101.927 81.536C101.277 81.1627 100.765 80.656 100.391 80.016C100.018 79.3653 99.8313 78.624 99.8313 77.792C99.8313 76.9493 100.018 76.208 100.391 75.568C100.765 74.928 101.277 74.4267 101.927 74.064C102.589 73.7013 103.335 73.52 104.167 73.52C104.882 73.52 105.527 73.6587 106.103 73.936C106.679 74.2133 107.133 74.6293 107.463 75.184L106.615 75.76C106.327 75.3333 105.97 75.0187 105.543 74.816C105.117 74.6133 104.653 74.512 104.151 74.512C103.554 74.512 103.015 74.6507 102.535 74.928C102.055 75.1947 101.677 75.5733 101.399 76.064C101.122 76.5547 100.983 77.1307 100.983 77.792C100.983 78.4533 101.122 79.0293 101.399 79.52C101.677 80.0107 102.055 80.3947 102.535 80.672C103.015 80.9387 103.554 81.072 104.151 81.072C104.653 81.072 105.117 80.9707 105.543 80.768C105.97 80.5653 106.327 80.256 106.615 79.84L107.463 80.416C107.133 80.96 106.679 81.376 106.103 81.664C105.527 81.9413 104.882 82.08 104.167 82.08ZM109.663 82V73.6H110.799V80.272L116.415 73.6H117.423V82H116.287V75.312L110.687 82H109.663ZM120.679 82V73.6H121.815V80.272L127.431 73.6H128.439V82H127.303V75.312L121.703 82H120.679Z" fill="#141414"/>
</svg>
