<svg width="196" height="40" viewBox="0 0 196 40" fill="none" xmlns="http://www.w3.org/2000/svg">
<path d="M18.4254 36.9231C28.6014 36.9231 36.8508 28.6576 36.8508 18.4615C36.8508 8.26551 28.6014 0 18.4254 0C8.24932 0 0 8.26551 0 18.4615C0 28.6576 8.24932 36.9231 18.4254 36.9231Z" fill="#FC3F1D"/>
<path d="M20.8822 10.4616H19.1932C16.0455 10.4616 14.4333 12.077 14.4333 14.3847C14.4333 17.0001 15.5849 18.2309 17.888 19.8462L19.8074 21.1539L14.2797 29.4616H10.134L15.1242 22.077C12.2837 20.0001 10.6714 18.0001 10.6714 14.6924C10.6714 10.4616 13.5888 7.61548 19.1932 7.61548H24.7208V29.5386H20.8822V10.4616Z" fill="white"/>
<path d="M49.5182 37.9999V32.2307H63.414V37.9999H67.9436V28.4614H65.3333V4.46143H49.2111L48.8273 15.923C48.597 22.4614 48.1363 26.3076 46.8312 28.4614H45.0654V37.9999H49.5182ZM53.0498 16.5383L53.3569 8.23066H60.5735V28.4614H51.3608C52.2053 26.5383 52.8194 23.0768 53.0498 16.5383ZM78.2311 11.6922C73.0106 11.6922 69.4023 15.3845 69.4023 22.1537C69.4023 28.846 73.0106 32.6153 78.2311 32.6153C83.4516 32.6153 87.1367 28.923 87.1367 22.1537C87.1367 15.4614 83.4516 11.6922 78.2311 11.6922ZM78.2311 28.846C75.6209 28.846 74.3157 26.7691 74.3157 22.1537C74.3157 17.4614 75.6209 15.4614 78.2311 15.4614C80.8414 15.4614 82.2233 17.4614 82.2233 22.1537C82.2233 26.846 80.9182 28.846 78.2311 28.846ZM98.9597 32.6153C101.186 32.6153 102.722 32.2307 103.873 31.3845V27.5383C102.645 28.3845 101.263 28.923 99.2668 28.923C95.8888 28.923 94.5069 26.3076 94.5069 22.1537C94.5069 17.7691 96.1959 15.5383 99.3435 15.5383C101.186 15.5383 102.952 16.1537 103.95 16.7691V12.7691C102.952 12.2307 101.186 11.846 98.8061 11.846C92.7411 11.846 89.5934 16.2307 89.5934 22.3076C89.5167 28.923 92.5876 32.6153 98.9597 32.6153ZM121.761 15.846V12.0768H105.869V15.846H111.474V32.2307H116.233V15.846H121.761ZM138.344 18.5383C138.344 13.6922 135.887 11.846 130.82 11.846C127.673 11.846 125.216 12.846 123.757 13.6922V17.6922C125.062 16.7691 127.826 15.6922 130.283 15.6922C132.586 15.6922 133.584 16.4614 133.584 18.6153V19.7691H132.816C125.523 19.7691 122.298 22.1537 122.298 26.2307C122.298 30.3076 124.755 32.6153 128.44 32.6153C131.204 32.6153 132.432 31.6922 133.354 30.7691H133.584C133.661 31.3076 133.814 31.9999 133.968 32.3845H138.574C138.421 30.7691 138.344 29.0768 138.344 27.4614V18.5383ZM133.661 27.4614C133.047 28.3076 131.972 29.0768 130.283 29.0768C128.287 29.0768 127.289 27.846 127.289 26.0768C127.289 23.6922 128.901 22.846 132.97 22.846H133.661V27.4614ZM150.09 32.2307C154.773 32.2307 157.614 30.2307 157.614 26.3845C157.614 23.7691 156.002 22.2307 153.315 21.7691C155.464 21.1537 156.846 19.6153 156.846 17.2307C156.846 13.7691 154.543 12.0768 150.167 12.0768H142.183V32.2307H150.09ZM149.476 15.6922C151.165 15.6922 152.163 16.3845 152.163 17.923C152.163 19.3076 151.165 20.1537 149.322 20.1537H146.942V15.6922H149.476ZM149.629 23.6922C151.626 23.6922 152.7 24.3845 152.7 26.0768C152.7 27.923 151.472 28.6153 149.629 28.6153H147.019V23.6922H149.629ZM172.584 32.2307H177.958L170.358 21.3845L177.037 12.0768H172.277L165.598 21.3845V12.0768H160.838V32.2307H165.598V22.3076L172.584 32.2307ZM194.157 18.5383C194.157 13.6922 191.701 11.846 186.634 11.846C183.486 11.846 181.029 12.846 179.571 13.6922V17.6922C180.876 16.7691 183.64 15.6922 186.096 15.6922C188.4 15.6922 189.398 16.4614 189.398 18.6153V19.7691H188.63C181.336 19.7691 178.112 22.1537 178.112 26.2307C178.112 30.3076 180.569 32.6153 184.254 32.6153C187.018 32.6153 188.246 31.6922 189.167 30.7691H189.398C189.474 31.3076 189.628 31.9999 189.781 32.3845H194.388C194.234 30.7691 194.157 29.0768 194.157 27.4614V18.5383ZM189.398 27.4614C188.783 28.3076 187.709 29.0768 186.02 29.0768C184.024 29.0768 183.025 27.846 183.025 26.0768C183.025 23.6922 184.638 22.846 188.707 22.846H189.398V27.4614Z" fill="black"/>
</svg>
