<svg width="1296" height="368" viewBox="0 0 1296 368" fill="none" xmlns="http://www.w3.org/2000/svg">
<rect width="1296" height="368" fill="#29A1F8"/>
<path d="M67.48 102V74H93V102H86.56V77.8L88.04 79.28H72.44L73.92 77.8V102H67.48ZM109.541 102.32C107.248 102.32 105.208 101.84 103.421 100.88C101.661 99.92 100.261 98.6133 99.2209 96.96C98.2076 95.28 97.7009 93.3733 97.7009 91.24C97.7009 89.08 98.2076 87.1733 99.2209 85.52C100.261 83.84 101.661 82.5333 103.421 81.6C105.208 80.64 107.248 80.16 109.541 80.16C111.808 80.16 113.834 80.64 115.621 81.6C117.408 82.5333 118.808 83.8267 119.821 85.48C120.834 87.1333 121.341 89.0533 121.341 91.24C121.341 93.3733 120.834 95.28 119.821 96.96C118.808 98.6133 117.408 99.92 115.621 100.88C113.834 101.84 111.808 102.32 109.541 102.32ZM109.541 97.2C110.581 97.2 111.514 96.96 112.341 96.48C113.168 96 113.821 95.32 114.301 94.44C114.781 93.5333 115.021 92.4667 115.021 91.24C115.021 89.9867 114.781 88.92 114.301 88.04C113.821 87.16 113.168 86.48 112.341 86C111.514 85.52 110.581 85.28 109.541 85.28C108.501 85.28 107.568 85.52 106.741 86C105.914 86.48 105.248 87.16 104.741 88.04C104.261 88.92 104.021 89.9867 104.021 91.24C104.021 92.4667 104.261 93.5333 104.741 94.44C105.248 95.32 105.914 96 106.741 96.48C107.568 96.96 108.501 97.2 109.541 97.2ZM140.12 99.2V85.6H133.08L132.96 88.36C132.907 89.5067 132.84 90.6 132.76 91.64C132.68 92.68 132.52 93.6267 132.28 94.48C132.067 95.3067 131.747 96.0133 131.32 96.6C130.894 97.16 130.32 97.5467 129.6 97.76L123.44 96.88C124.214 96.88 124.84 96.6533 125.32 96.2C125.8 95.72 126.174 95.0667 126.44 94.24C126.707 93.3867 126.907 92.4267 127.04 91.36C127.174 90.2667 127.267 89.12 127.32 87.92L127.6 80.48H146.36V99.2H140.12ZM122.72 106.64V96.88H149.44V106.64H143.64V102H128.52V106.64H122.72ZM166.047 102.32C164.234 102.32 162.647 101.92 161.287 101.12C159.927 100.32 158.861 99.1067 158.087 97.48C157.341 95.8267 156.967 93.7467 156.967 91.24C156.967 88.7067 157.327 86.6267 158.047 85C158.767 83.3733 159.807 82.16 161.167 81.36C162.527 80.56 164.154 80.16 166.047 80.16C168.074 80.16 169.887 80.6267 171.487 81.56C173.114 82.4667 174.394 83.7467 175.327 85.4C176.287 87.0533 176.767 89 176.767 91.24C176.767 93.5067 176.287 95.4667 175.327 97.12C174.394 98.7733 173.114 100.053 171.487 100.96C169.887 101.867 168.074 102.32 166.047 102.32ZM153.327 109.76V80.48H159.287V84.88L159.167 91.28L159.567 97.64V109.76H153.327ZM164.967 97.2C166.007 97.2 166.927 96.96 167.727 96.48C168.554 96 169.207 95.32 169.687 94.44C170.194 93.5333 170.447 92.4667 170.447 91.24C170.447 89.9867 170.194 88.92 169.687 88.04C169.207 87.16 168.554 86.48 167.727 86C166.927 85.52 166.007 85.28 164.967 85.28C163.927 85.28 162.994 85.52 162.167 86C161.341 86.48 160.687 87.16 160.207 88.04C159.727 88.92 159.487 89.9867 159.487 91.24C159.487 92.4667 159.727 93.5333 160.207 94.44C160.687 95.32 161.341 96 162.167 96.48C162.994 96.96 163.927 97.2 164.967 97.2ZM191.221 102.32C188.927 102.32 186.887 101.84 185.101 100.88C183.341 99.92 181.941 98.6133 180.901 96.96C179.887 95.28 179.381 93.3733 179.381 91.24C179.381 89.08 179.887 87.1733 180.901 85.52C181.941 83.84 183.341 82.5333 185.101 81.6C186.887 80.64 188.927 80.16 191.221 80.16C193.487 80.16 195.514 80.64 197.301 81.6C199.087 82.5333 200.487 83.8267 201.501 85.48C202.514 87.1333 203.021 89.0533 203.021 91.24C203.021 93.3733 202.514 95.28 201.501 96.96C200.487 98.6133 199.087 99.92 197.301 100.88C195.514 101.84 193.487 102.32 191.221 102.32ZM191.221 97.2C192.261 97.2 193.194 96.96 194.021 96.48C194.847 96 195.501 95.32 195.981 94.44C196.461 93.5333 196.701 92.4667 196.701 91.24C196.701 89.9867 196.461 88.92 195.981 88.04C195.501 87.16 194.847 86.48 194.021 86C193.194 85.52 192.261 85.28 191.221 85.28C190.181 85.28 189.247 85.52 188.421 86C187.594 86.48 186.927 87.16 186.421 88.04C185.941 88.92 185.701 89.9867 185.701 91.24C185.701 92.4667 185.941 93.5333 186.421 94.44C186.927 95.32 187.594 96 188.421 96.48C189.247 96.96 190.181 97.2 191.221 97.2ZM217.993 102.48C216.233 102.48 214.633 102.227 213.193 101.72C211.753 101.187 210.499 100.373 209.433 99.28C208.393 98.16 207.579 96.7333 206.993 95C206.433 93.2667 206.153 91.2 206.153 88.8C206.153 87.0933 206.299 85.5333 206.593 84.12C206.886 82.7067 207.326 81.4267 207.913 80.28C208.499 79.1067 209.246 78.08 210.153 77.2C211.086 76.2933 212.166 75.5467 213.393 74.96C214.646 74.3467 216.059 73.88 217.633 73.56L227.873 71.52L228.713 76.88L219.673 78.68C219.139 78.7867 218.526 78.9333 217.833 79.12C217.166 79.28 216.486 79.5333 215.793 79.88C215.126 80.2267 214.499 80.72 213.913 81.36C213.353 81.9733 212.899 82.7867 212.553 83.8C212.206 84.7867 212.033 86.0133 212.033 87.48C212.033 87.9333 212.046 88.28 212.073 88.52C212.126 88.76 212.166 89.0133 212.193 89.28C212.246 89.5467 212.273 89.96 212.273 90.52L210.273 88.56C210.859 87.3067 211.606 86.24 212.513 85.36C213.446 84.48 214.513 83.8133 215.713 83.36C216.939 82.88 218.299 82.64 219.793 82.64C221.819 82.64 223.593 83.0533 225.113 83.88C226.659 84.68 227.859 85.8133 228.713 87.28C229.566 88.7467 229.993 90.4133 229.993 92.28C229.993 94.3067 229.486 96.0933 228.473 97.64C227.459 99.16 226.046 100.347 224.233 101.2C222.446 102.053 220.366 102.48 217.993 102.48ZM218.313 97.64C219.353 97.64 220.273 97.4133 221.073 96.96C221.873 96.48 222.486 95.8533 222.913 95.08C223.366 94.28 223.593 93.3867 223.593 92.4C223.593 91.44 223.366 90.5867 222.913 89.84C222.486 89.0933 221.873 88.5067 221.073 88.08C220.273 87.6533 219.339 87.44 218.273 87.44C217.233 87.44 216.299 87.6533 215.473 88.08C214.646 88.48 214.006 89.04 213.553 89.76C213.099 90.48 212.873 91.32 212.873 92.28C212.873 93.2667 213.099 94.1733 213.553 95C214.033 95.8 214.673 96.44 215.473 96.92C216.299 97.4 217.246 97.64 218.313 97.64ZM234.227 102V80.48H240.427V88.88H249.787V80.48H256.027V102H249.787V93.96H240.427V102H234.227ZM274.88 102V97.8L274.48 96.88V89.36C274.48 88.0267 274.067 86.9867 273.24 86.24C272.44 85.4933 271.2 85.12 269.52 85.12C268.373 85.12 267.24 85.3067 266.12 85.68C265.027 86.0267 264.093 86.5067 263.32 87.12L261.08 82.76C262.253 81.9333 263.667 81.2933 265.32 80.84C266.973 80.3867 268.653 80.16 270.36 80.16C273.64 80.16 276.187 80.9333 278 82.48C279.813 84.0267 280.72 86.44 280.72 89.72V102H274.88ZM268.32 102.32C266.64 102.32 265.2 102.04 264 101.48C262.8 100.893 261.88 100.107 261.24 99.12C260.6 98.1333 260.28 97.0267 260.28 95.8C260.28 94.52 260.587 93.4 261.2 92.44C261.84 91.48 262.84 90.7333 264.2 90.2C265.56 89.64 267.333 89.36 269.52 89.36H275.24V93H270.2C268.733 93 267.72 93.24 267.16 93.72C266.627 94.2 266.36 94.8 266.36 95.52C266.36 96.32 266.667 96.96 267.28 97.44C267.92 97.8933 268.787 98.12 269.88 98.12C270.92 98.12 271.853 97.88 272.68 97.4C273.507 96.8933 274.107 96.16 274.48 95.2L275.44 98.08C274.987 99.4667 274.16 100.52 272.96 101.24C271.76 101.96 270.213 102.32 268.32 102.32ZM299.701 102V94.84L300.581 95.84H294.621C291.527 95.84 289.101 95.2 287.341 93.92C285.581 92.64 284.701 90.8 284.701 88.4C284.701 85.84 285.621 83.88 287.461 82.52C289.327 81.16 291.834 80.48 294.981 80.48H305.261V102H299.701ZM284.381 102L290.101 93.8H296.461L291.021 102H284.381ZM299.701 92.92V83.96L300.581 85.56H295.101C293.821 85.56 292.821 85.8 292.101 86.28C291.407 86.76 291.061 87.5333 291.061 88.6C291.061 90.6533 292.381 91.68 295.021 91.68H300.581L299.701 92.92ZM322.586 102V80.48H328.786V93.28L339.266 80.48H344.986V102H338.786V89.2L328.346 102H322.586ZM350.984 102V80.48H357.184V88.88H366.544V80.48H372.784V102H366.544V93.96H357.184V102H350.984ZM388.998 102.32C386.678 102.32 384.611 101.853 382.798 100.92C380.984 99.96 379.558 98.64 378.518 96.96C377.504 95.28 376.998 93.3733 376.998 91.24C376.998 89.08 377.504 87.1733 378.518 85.52C379.558 83.84 380.984 82.5333 382.798 81.6C384.611 80.64 386.678 80.16 388.998 80.16C391.264 80.16 393.238 80.64 394.918 81.6C396.598 82.5333 397.838 83.88 398.638 85.64L393.798 88.24C393.238 87.2267 392.531 86.48 391.678 86C390.851 85.52 389.944 85.28 388.958 85.28C387.891 85.28 386.931 85.52 386.078 86C385.224 86.48 384.544 87.16 384.038 88.04C383.558 88.92 383.318 89.9867 383.318 91.24C383.318 92.4933 383.558 93.56 384.038 94.44C384.544 95.32 385.224 96 386.078 96.48C386.931 96.96 387.891 97.2 388.958 97.2C389.944 97.2 390.851 96.9733 391.678 96.52C392.531 96.04 393.238 95.28 393.798 94.24L398.638 96.88C397.838 98.6133 396.598 99.96 394.918 100.92C393.238 101.853 391.264 102.32 388.998 102.32ZM406.991 102V84.16L408.391 85.6H399.711V80.48H420.471V85.6H411.791L413.191 84.16V102H406.991ZM436.477 102.32C434.664 102.32 433.077 101.92 431.717 101.12C430.357 100.32 429.29 99.1067 428.517 97.48C427.77 95.8267 427.397 93.7467 427.397 91.24C427.397 88.7067 427.757 86.6267 428.477 85C429.197 83.3733 430.237 82.16 431.597 81.36C432.957 80.56 434.584 80.16 436.477 80.16C438.504 80.16 440.317 80.6267 441.917 81.56C443.544 82.4667 444.824 83.7467 445.757 85.4C446.717 87.0533 447.197 89 447.197 91.24C447.197 93.5067 446.717 95.4667 445.757 97.12C444.824 98.7733 443.544 100.053 441.917 100.96C440.317 101.867 438.504 102.32 436.477 102.32ZM423.757 109.76V80.48H429.717V84.88L429.597 91.28L429.997 97.64V109.76H423.757ZM435.397 97.2C436.437 97.2 437.357 96.96 438.157 96.48C438.984 96 439.637 95.32 440.117 94.44C440.624 93.5333 440.877 92.4667 440.877 91.24C440.877 89.9867 440.624 88.92 440.117 88.04C439.637 87.16 438.984 86.48 438.157 86C437.357 85.52 436.437 85.28 435.397 85.28C434.357 85.28 433.424 85.52 432.597 86C431.77 86.48 431.117 87.16 430.637 88.04C430.157 88.92 429.917 89.9867 429.917 91.24C429.917 92.4667 430.157 93.5333 430.637 94.44C431.117 95.32 431.77 96 432.597 96.48C433.424 96.96 434.357 97.2 435.397 97.2ZM453.904 110.08C452.784 110.08 451.678 109.907 450.584 109.56C449.491 109.213 448.598 108.733 447.904 108.12L450.184 103.68C450.664 104.107 451.211 104.44 451.824 104.68C452.464 104.92 453.091 105.04 453.704 105.04C454.584 105.04 455.278 104.827 455.784 104.4C456.318 104 456.798 103.32 457.224 102.36L458.344 99.72L458.824 99.04L466.544 80.48H472.544L462.824 103.32C462.131 105.053 461.331 106.413 460.424 107.4C459.544 108.387 458.558 109.08 457.464 109.48C456.398 109.88 455.211 110.08 453.904 110.08ZM457.584 102.84L447.984 80.48H454.424L461.864 98.48L457.584 102.84ZM490.795 102L483.595 91.8L488.675 88.8L498.155 102H490.795ZM475.555 102V80.48H481.795V102H475.555ZM479.955 93.84V88.84H487.475V93.84H479.955ZM489.275 91.96L483.435 91.32L490.995 80.48H497.635L489.275 91.96ZM501.219 102V80.48H507.419V96.88H516.099V80.48H522.339V102H501.219ZM519.659 106.64V101.92L521.099 102H516.099V96.88H525.459V106.64H519.659ZM529.383 102V80.48H535.583V93.28L546.063 80.48H551.783V102H545.583V89.2L535.143 102H529.383ZM571.341 102V94.84L572.221 95.84H566.261C563.168 95.84 560.741 95.2 558.981 93.92C557.221 92.64 556.341 90.8 556.341 88.4C556.341 85.84 557.261 83.88 559.101 82.52C560.968 81.16 563.475 80.48 566.621 80.48H576.901V102H571.341ZM556.021 102L561.741 93.8H568.101L562.661 102H556.021ZM571.341 92.92V83.96L572.221 85.56H566.741C565.461 85.56 564.461 85.8 563.741 86.28C563.048 86.76 562.701 87.5333 562.701 88.6C562.701 90.6533 564.021 91.68 566.661 91.68H572.221L571.341 92.92ZM69.92 158.08C68.8 158.08 67.6933 157.907 66.6 157.56C65.5067 157.213 64.6133 156.733 63.92 156.12L66.2 151.68C66.68 152.107 67.2267 152.44 67.84 152.68C68.48 152.92 69.1067 153.04 69.72 153.04C70.6 153.04 71.2933 152.827 71.8 152.4C72.3333 152 72.8133 151.32 73.24 150.36L74.36 147.72L74.84 147.04L82.56 128.48H88.56L78.84 151.32C78.1467 153.053 77.3467 154.413 76.44 155.4C75.56 156.387 74.5733 157.08 73.48 157.48C72.4133 157.88 71.2267 158.08 69.92 158.08ZM73.6 150.84L64 128.48H70.44L77.88 146.48L73.6 150.84ZM101.224 150.32C98.9044 150.32 96.8377 149.853 95.0244 148.92C93.211 147.96 91.7844 146.64 90.7444 144.96C89.731 143.28 89.2244 141.373 89.2244 139.24C89.2244 137.08 89.731 135.173 90.7444 133.52C91.7844 131.84 93.211 130.533 95.0244 129.6C96.8377 128.64 98.9044 128.16 101.224 128.16C103.491 128.16 105.464 128.64 107.144 129.6C108.824 130.533 110.064 131.88 110.864 133.64L106.024 136.24C105.464 135.227 104.758 134.48 103.904 134C103.078 133.52 102.171 133.28 101.184 133.28C100.118 133.28 99.1577 133.52 98.3044 134C97.451 134.48 96.771 135.16 96.2644 136.04C95.7844 136.92 95.5444 137.987 95.5444 139.24C95.5444 140.493 95.7844 141.56 96.2644 142.44C96.771 143.32 97.451 144 98.3044 144.48C99.1577 144.96 100.118 145.2 101.184 145.2C102.171 145.2 103.078 144.973 103.904 144.52C104.758 144.04 105.464 143.28 106.024 142.24L110.864 144.88C110.064 146.613 108.824 147.96 107.144 148.92C105.464 149.853 103.491 150.32 101.224 150.32ZM119.217 150V132.16L120.617 133.6H111.937V128.48H132.697V133.6H124.017L125.417 132.16V150H119.217ZM148.903 150V145.8L148.503 144.88V137.36C148.503 136.027 148.09 134.987 147.263 134.24C146.463 133.493 145.223 133.12 143.543 133.12C142.397 133.12 141.263 133.307 140.143 133.68C139.05 134.027 138.117 134.507 137.343 135.12L135.103 130.76C136.277 129.933 137.69 129.293 139.343 128.84C140.997 128.387 142.677 128.16 144.383 128.16C147.663 128.16 150.21 128.933 152.023 130.48C153.837 132.027 154.743 134.44 154.743 137.72V150H148.903ZM142.343 150.32C140.663 150.32 139.223 150.04 138.023 149.48C136.823 148.893 135.903 148.107 135.263 147.12C134.623 146.133 134.303 145.027 134.303 143.8C134.303 142.52 134.61 141.4 135.223 140.44C135.863 139.48 136.863 138.733 138.223 138.2C139.583 137.64 141.357 137.36 143.543 137.36H149.263V141H144.223C142.757 141 141.743 141.24 141.183 141.72C140.65 142.2 140.383 142.8 140.383 143.52C140.383 144.32 140.69 144.96 141.303 145.44C141.943 145.893 142.81 146.12 143.903 146.12C144.943 146.12 145.877 145.88 146.703 145.4C147.53 144.893 148.13 144.16 148.503 143.2L149.463 146.08C149.01 147.467 148.183 148.52 146.983 149.24C145.783 149.96 144.237 150.32 142.343 150.32ZM160.164 150V128.48H166.364V136.88H175.724V128.48H181.964V150H175.724V141.96H166.364V150H160.164ZM198.018 150.32C195.724 150.32 193.684 149.84 191.898 148.88C190.138 147.92 188.738 146.613 187.698 144.96C186.684 143.28 186.178 141.373 186.178 139.24C186.178 137.08 186.684 135.173 187.698 133.52C188.738 131.84 190.138 130.533 191.898 129.6C193.684 128.64 195.724 128.16 198.018 128.16C200.284 128.16 202.311 128.64 204.098 129.6C205.884 130.533 207.284 131.827 208.298 133.48C209.311 135.133 209.818 137.053 209.818 139.24C209.818 141.373 209.311 143.28 208.298 144.96C207.284 146.613 205.884 147.92 204.098 148.88C202.311 149.84 200.284 150.32 198.018 150.32ZM198.018 145.2C199.058 145.2 199.991 144.96 200.818 144.48C201.644 144 202.298 143.32 202.778 142.44C203.258 141.533 203.498 140.467 203.498 139.24C203.498 137.987 203.258 136.92 202.778 136.04C202.298 135.16 201.644 134.48 200.818 134C199.991 133.52 199.058 133.28 198.018 133.28C196.978 133.28 196.044 133.52 195.217 134C194.391 134.48 193.724 135.16 193.218 136.04C192.738 136.92 192.498 137.987 192.498 139.24C192.498 140.467 192.738 141.533 193.218 142.44C193.724 143.32 194.391 144 195.217 144.48C196.044 144.96 196.978 145.2 198.018 145.2ZM214.109 150V128.48H225.109C227.803 128.48 229.909 128.973 231.429 129.96C232.949 130.92 233.709 132.28 233.709 134.04C233.709 135.8 232.989 137.187 231.549 138.2C230.136 139.187 228.256 139.68 225.909 139.68L226.549 138.24C229.163 138.24 231.109 138.72 232.389 139.68C233.696 140.64 234.349 142.04 234.349 143.88C234.349 145.773 233.629 147.267 232.189 148.36C230.749 149.453 228.549 150 225.589 150H214.109ZM219.829 145.76H225.069C226.216 145.76 227.069 145.573 227.629 145.2C228.216 144.8 228.509 144.2 228.509 143.4C228.509 142.573 228.243 141.973 227.709 141.6C227.176 141.2 226.336 141 225.189 141H219.829V145.76ZM219.829 137.32H224.549C225.643 137.32 226.456 137.12 226.989 136.72C227.549 136.32 227.829 135.747 227.829 135C227.829 134.227 227.549 133.653 226.989 133.28C226.456 132.907 225.643 132.72 224.549 132.72H219.829V137.32ZM254.232 150L247.032 139.8L252.112 136.8L261.592 150H254.232ZM238.992 150V128.48H245.232V150H238.992ZM243.392 141.84V136.84H250.912V141.84H243.392ZM252.712 139.96L246.872 139.32L254.432 128.48H261.072L252.712 139.96ZM264.656 150V128.48H270.856V141.28L281.336 128.48H287.056V150H280.856V137.2L270.416 150H264.656Z" fill="white"/>
<path d="M65.696 192.896C66.24 193.109 66.752 193.163 67.232 193.056C67.712 192.939 68.1547 192.56 68.56 191.92L69.104 191.056L69.216 190.912L73.504 182.8H74.688L69.6 192.176C69.2587 192.827 68.8533 193.312 68.384 193.632C67.9253 193.952 67.4347 194.123 66.912 194.144C66.4 194.165 65.8827 194.069 65.36 193.856L65.696 192.896ZM69.184 191.984L64.336 182.8H65.6L69.824 191.008L69.184 191.984ZM79.136 194.08C78.304 194.08 77.5573 193.899 76.896 193.536C76.2453 193.163 75.7333 192.656 75.36 192.016C74.9867 191.365 74.8 190.624 74.8 189.792C74.8 188.949 74.9867 188.208 75.36 187.568C75.7333 186.928 76.2453 186.427 76.896 186.064C77.5573 185.701 78.304 185.52 79.136 185.52C79.8507 185.52 80.496 185.659 81.072 185.936C81.648 186.213 82.1013 186.629 82.432 187.184L81.584 187.76C81.296 187.333 80.9387 187.019 80.512 186.816C80.0853 186.613 79.6213 186.512 79.12 186.512C78.5227 186.512 77.984 186.651 77.504 186.928C77.024 187.195 76.6453 187.573 76.368 188.064C76.0907 188.555 75.952 189.131 75.952 189.792C75.952 190.453 76.0907 191.029 76.368 191.52C76.6453 192.011 77.024 192.395 77.504 192.672C77.984 192.939 78.5227 193.072 79.12 193.072C79.6213 193.072 80.0853 192.971 80.512 192.768C80.9387 192.565 81.296 192.256 81.584 191.84L82.432 192.416C82.1013 192.96 81.648 193.376 81.072 193.664C80.496 193.941 79.8507 194.08 79.136 194.08ZM86.0754 194V186.288L86.3634 186.592H82.8914V185.6H90.3954V186.592H86.9234L87.2114 186.288V194H86.0754ZM97.2539 194V192.144L97.2059 191.84V188.736C97.2059 188.021 97.0032 187.472 96.5979 187.088C96.2032 186.704 95.6112 186.512 94.8219 186.512C94.2779 186.512 93.7605 186.603 93.2699 186.784C92.7792 186.965 92.3632 187.205 92.0219 187.504L91.5099 186.656C91.9365 186.293 92.4485 186.016 93.0459 185.824C93.6432 185.621 94.2725 185.52 94.9339 185.52C96.0219 185.52 96.8592 185.792 97.4459 186.336C98.0432 186.869 98.3419 187.685 98.3419 188.784V194H97.2539ZM94.3579 194.08C93.7285 194.08 93.1792 193.979 92.7099 193.776C92.2512 193.563 91.8992 193.275 91.6539 192.912C91.4085 192.539 91.2859 192.112 91.2859 191.632C91.2859 191.195 91.3872 190.8 91.5899 190.448C91.8032 190.085 92.1445 189.797 92.6139 189.584C93.0939 189.36 93.7339 189.248 94.5339 189.248H97.4299V190.096H94.5659C93.7552 190.096 93.1899 190.24 92.8699 190.528C92.5605 190.816 92.4059 191.173 92.4059 191.6C92.4059 192.08 92.5925 192.464 92.9659 192.752C93.3392 193.04 93.8619 193.184 94.5339 193.184C95.1739 193.184 95.7232 193.04 96.1819 192.752C96.6512 192.453 96.9925 192.027 97.2059 191.472L97.4619 192.256C97.2485 192.811 96.8752 193.253 96.3419 193.584C95.8192 193.915 95.1579 194.08 94.3579 194.08ZM101.366 194V185.6H102.502V189.312H107.798V185.6H108.934V194H107.798V190.288H102.502V194H101.366ZM115.619 194.08C114.808 194.08 114.078 193.899 113.427 193.536C112.787 193.163 112.28 192.656 111.907 192.016C111.534 191.365 111.347 190.624 111.347 189.792C111.347 188.949 111.534 188.208 111.907 187.568C112.28 186.928 112.787 186.427 113.427 186.064C114.067 185.701 114.798 185.52 115.619 185.52C116.451 185.52 117.187 185.701 117.827 186.064C118.478 186.427 118.984 186.928 119.347 187.568C119.72 188.208 119.907 188.949 119.907 189.792C119.907 190.624 119.72 191.365 119.347 192.016C118.984 192.656 118.478 193.163 117.827 193.536C117.176 193.899 116.44 194.08 115.619 194.08ZM115.619 193.072C116.227 193.072 116.766 192.939 117.235 192.672C117.704 192.395 118.072 192.011 118.339 191.52C118.616 191.019 118.755 190.443 118.755 189.792C118.755 189.131 118.616 188.555 118.339 188.064C118.072 187.573 117.704 187.195 117.235 186.928C116.766 186.651 116.232 186.512 115.635 186.512C115.038 186.512 114.504 186.651 114.035 186.928C113.566 187.195 113.192 187.573 112.915 188.064C112.638 188.555 112.499 189.131 112.499 189.792C112.499 190.443 112.638 191.019 112.915 191.52C113.192 192.011 113.566 192.395 114.035 192.672C114.504 192.939 115.032 193.072 115.619 193.072ZM122.335 194V185.6H126.047C126.996 185.6 127.743 185.781 128.287 186.144C128.841 186.507 129.119 187.04 129.119 187.744C129.119 188.427 128.857 188.955 128.335 189.328C127.812 189.691 127.124 189.872 126.271 189.872L126.495 189.536C127.497 189.536 128.233 189.723 128.703 190.096C129.172 190.469 129.407 191.008 129.407 191.712C129.407 192.437 129.14 193.003 128.607 193.408C128.084 193.803 127.268 194 126.159 194H122.335ZM123.439 193.104H126.111C126.825 193.104 127.364 192.992 127.727 192.768C128.1 192.533 128.287 192.16 128.287 191.648C128.287 191.136 128.121 190.763 127.791 190.528C127.46 190.293 126.937 190.176 126.223 190.176H123.439V193.104ZM123.439 189.328H125.967C126.617 189.328 127.113 189.205 127.455 188.96C127.807 188.715 127.983 188.357 127.983 187.888C127.983 187.419 127.807 187.067 127.455 186.832C127.113 186.597 126.617 186.48 125.967 186.48H123.439V189.328ZM132.069 194V185.6H133.205V192.272L138.821 185.6H139.829V194H138.693V187.312L133.093 194H132.069ZM144.685 194V186.288L144.973 186.592H141.501V185.6H149.005V186.592H145.533L145.821 186.288V194H144.685ZM153.857 194.08C152.982 194.08 152.214 193.899 151.553 193.536C150.891 193.163 150.374 192.656 150.001 192.016C149.627 191.365 149.441 190.624 149.441 189.792C149.441 188.96 149.617 188.224 149.969 187.584C150.331 186.944 150.822 186.443 151.441 186.08C152.07 185.707 152.774 185.52 153.553 185.52C154.342 185.52 155.041 185.701 155.649 186.064C156.267 186.416 156.753 186.917 157.105 187.568C157.457 188.208 157.633 188.949 157.633 189.792C157.633 189.845 157.627 189.904 157.617 189.968C157.617 190.021 157.617 190.08 157.617 190.144H150.305V189.296H157.009L156.561 189.632C156.561 189.024 156.427 188.485 156.161 188.016C155.905 187.536 155.553 187.163 155.105 186.896C154.657 186.629 154.139 186.496 153.553 186.496C152.977 186.496 152.459 186.629 152.001 186.896C151.542 187.163 151.185 187.536 150.929 188.016C150.673 188.496 150.545 189.045 150.545 189.664V189.84C150.545 190.48 150.683 191.045 150.961 191.536C151.249 192.016 151.643 192.395 152.145 192.672C152.657 192.939 153.238 193.072 153.889 193.072C154.401 193.072 154.875 192.981 155.313 192.8C155.761 192.619 156.145 192.341 156.465 191.968L157.105 192.704C156.731 193.152 156.262 193.493 155.697 193.728C155.142 193.963 154.529 194.08 153.857 194.08ZM169.647 190.448C169.156 190.661 168.66 190.832 168.159 190.96C167.668 191.077 167.177 191.136 166.687 191.136C165.695 191.136 164.911 190.912 164.335 190.464C163.759 190.005 163.471 189.301 163.471 188.352V185.6H164.591V188.288C164.591 188.928 164.799 189.408 165.215 189.728C165.631 190.048 166.191 190.208 166.895 190.208C167.321 190.208 167.769 190.155 168.239 190.048C168.708 189.931 169.183 189.765 169.663 189.552L169.647 190.448ZM169.551 194V185.6H170.687V194H169.551ZM177.513 194.08C176.638 194.08 175.87 193.899 175.209 193.536C174.548 193.163 174.03 192.656 173.657 192.016C173.284 191.365 173.097 190.624 173.097 189.792C173.097 188.96 173.273 188.224 173.625 187.584C173.988 186.944 174.478 186.443 175.097 186.08C175.726 185.707 176.43 185.52 177.209 185.52C177.998 185.52 178.697 185.701 179.305 186.064C179.924 186.416 180.409 186.917 180.761 187.568C181.113 188.208 181.289 188.949 181.289 189.792C181.289 189.845 181.284 189.904 181.273 189.968C181.273 190.021 181.273 190.08 181.273 190.144H173.961V189.296H180.665L180.217 189.632C180.217 189.024 180.084 188.485 179.817 188.016C179.561 187.536 179.209 187.163 178.761 186.896C178.313 186.629 177.796 186.496 177.209 186.496C176.633 186.496 176.116 186.629 175.657 186.896C175.198 187.163 174.841 187.536 174.585 188.016C174.329 188.496 174.201 189.045 174.201 189.664V189.84C174.201 190.48 174.34 191.045 174.617 191.536C174.905 192.016 175.3 192.395 175.801 192.672C176.313 192.939 176.894 193.072 177.545 193.072C178.057 193.072 178.532 192.981 178.969 192.8C179.417 192.619 179.801 192.341 180.121 191.968L180.761 192.704C180.388 193.152 179.918 193.493 179.353 193.728C178.798 193.963 178.185 194.08 177.513 194.08ZM182.193 194L185.745 189.392L185.729 189.952L182.353 185.6H183.633L186.401 189.2L185.921 189.184L188.689 185.6H189.937L186.529 190L186.545 189.392L190.129 194H188.833L185.905 190.16L186.353 190.224L183.473 194H182.193ZM190.455 193.984L190.535 193.008C190.61 193.019 190.679 193.035 190.743 193.056C190.818 193.067 190.882 193.072 190.935 193.072C191.276 193.072 191.548 192.944 191.751 192.688C191.964 192.432 192.124 192.091 192.231 191.664C192.338 191.237 192.412 190.757 192.455 190.224C192.498 189.68 192.535 189.136 192.567 188.592L192.711 185.6H198.871V194H197.735V186.256L198.023 186.592H193.447L193.719 186.24L193.591 188.672C193.559 189.397 193.5 190.091 193.415 190.752C193.34 191.413 193.218 191.995 193.047 192.496C192.887 192.997 192.663 193.392 192.375 193.68C192.087 193.957 191.719 194.096 191.271 194.096C191.143 194.096 191.01 194.085 190.871 194.064C190.743 194.043 190.604 194.016 190.455 193.984ZM210.292 194V185.6H211.428V194H210.292ZM205.636 188.56C206.692 188.571 207.498 188.805 208.052 189.264C208.607 189.723 208.884 190.384 208.884 191.248C208.884 192.144 208.586 192.832 207.988 193.312C207.391 193.792 206.538 194.027 205.428 194.016L202.1 194V185.6H203.236V188.528L205.636 188.56ZM205.348 193.152C206.138 193.163 206.73 193.008 207.124 192.688C207.53 192.357 207.732 191.877 207.732 191.248C207.732 190.619 207.535 190.16 207.14 189.872C206.746 189.573 206.148 189.419 205.348 189.408L203.236 189.376V193.12L205.348 193.152ZM222.37 194.08C221.538 194.08 220.792 193.899 220.13 193.536C219.48 193.163 218.968 192.656 218.594 192.016C218.221 191.365 218.034 190.624 218.034 189.792C218.034 188.949 218.221 188.208 218.594 187.568C218.968 186.928 219.48 186.427 220.13 186.064C220.792 185.701 221.538 185.52 222.37 185.52C223.085 185.52 223.73 185.659 224.306 185.936C224.882 186.213 225.336 186.629 225.666 187.184L224.818 187.76C224.53 187.333 224.173 187.019 223.746 186.816C223.32 186.613 222.856 186.512 222.354 186.512C221.757 186.512 221.218 186.651 220.738 186.928C220.258 187.195 219.88 187.573 219.602 188.064C219.325 188.555 219.186 189.131 219.186 189.792C219.186 190.453 219.325 191.029 219.602 191.52C219.88 192.011 220.258 192.395 220.738 192.672C221.218 192.939 221.757 193.072 222.354 193.072C222.856 193.072 223.32 192.971 223.746 192.768C224.173 192.565 224.53 192.256 224.818 191.84L225.666 192.416C225.336 192.96 224.882 193.376 224.306 193.664C223.73 193.941 223.085 194.08 222.37 194.08ZM233.082 194V192.144L233.034 191.84V188.736C233.034 188.021 232.831 187.472 232.426 187.088C232.031 186.704 231.439 186.512 230.65 186.512C230.106 186.512 229.589 186.603 229.098 186.784C228.607 186.965 228.191 187.205 227.85 187.504L227.338 186.656C227.765 186.293 228.277 186.016 228.874 185.824C229.471 185.621 230.101 185.52 230.762 185.52C231.85 185.52 232.687 185.792 233.274 186.336C233.871 186.869 234.17 187.685 234.17 188.784V194H233.082ZM230.186 194.08C229.557 194.08 229.007 193.979 228.538 193.776C228.079 193.563 227.727 193.275 227.482 192.912C227.237 192.539 227.114 192.112 227.114 191.632C227.114 191.195 227.215 190.8 227.418 190.448C227.631 190.085 227.973 189.797 228.442 189.584C228.922 189.36 229.562 189.248 230.362 189.248H233.258V190.096H230.394C229.583 190.096 229.018 190.24 228.698 190.528C228.389 190.816 228.234 191.173 228.234 191.6C228.234 192.08 228.421 192.464 228.794 192.752C229.167 193.04 229.69 193.184 230.362 193.184C231.002 193.184 231.551 193.04 232.01 192.752C232.479 192.453 232.821 192.027 233.034 191.472L233.29 192.256C233.077 192.811 232.703 193.253 232.17 193.584C231.647 193.915 230.986 194.08 230.186 194.08ZM237.194 194V185.6H238.346L242.154 192.048H241.674L245.546 185.6H246.602V194H245.562V186.896L245.77 186.992L242.154 192.976H241.642L237.994 186.928L238.234 186.88V194H237.194ZM253.291 194.08C252.48 194.08 251.749 193.899 251.099 193.536C250.459 193.163 249.952 192.656 249.579 192.016C249.205 191.365 249.019 190.624 249.019 189.792C249.019 188.949 249.205 188.208 249.579 187.568C249.952 186.928 250.459 186.427 251.099 186.064C251.739 185.701 252.469 185.52 253.291 185.52C254.123 185.52 254.859 185.701 255.499 186.064C256.149 186.427 256.656 186.928 257.019 187.568C257.392 188.208 257.579 188.949 257.579 189.792C257.579 190.624 257.392 191.365 257.019 192.016C256.656 192.656 256.149 193.163 255.499 193.536C254.848 193.899 254.112 194.08 253.291 194.08ZM253.291 193.072C253.899 193.072 254.437 192.939 254.907 192.672C255.376 192.395 255.744 192.011 256.011 191.52C256.288 191.019 256.427 190.443 256.427 189.792C256.427 189.131 256.288 188.555 256.011 188.064C255.744 187.573 255.376 187.195 254.907 186.928C254.437 186.651 253.904 186.512 253.307 186.512C252.709 186.512 252.176 186.651 251.707 186.928C251.237 187.195 250.864 187.573 250.587 188.064C250.309 188.555 250.171 189.131 250.171 189.792C250.171 190.443 250.309 191.019 250.587 191.52C250.864 192.011 251.237 192.395 251.707 192.672C252.176 192.939 252.704 193.072 253.291 193.072ZM263.527 194.08C262.695 194.08 261.948 193.899 261.287 193.536C260.636 193.163 260.124 192.656 259.751 192.016C259.377 191.365 259.191 190.624 259.191 189.792C259.191 188.949 259.377 188.208 259.751 187.568C260.124 186.928 260.636 186.427 261.287 186.064C261.948 185.701 262.695 185.52 263.527 185.52C264.241 185.52 264.887 185.659 265.463 185.936C266.039 186.213 266.492 186.629 266.823 187.184L265.975 187.76C265.687 187.333 265.329 187.019 264.903 186.816C264.476 186.613 264.012 186.512 263.511 186.512C262.913 186.512 262.375 186.651 261.895 186.928C261.415 187.195 261.036 187.573 260.759 188.064C260.481 188.555 260.343 189.131 260.343 189.792C260.343 190.453 260.481 191.029 260.759 191.52C261.036 192.011 261.415 192.395 261.895 192.672C262.375 192.939 262.913 193.072 263.511 193.072C264.012 193.072 264.476 192.971 264.903 192.768C265.329 192.565 265.687 192.256 265.975 191.84L266.823 192.416C266.492 192.96 266.039 193.376 265.463 193.664C264.887 193.941 264.241 194.08 263.527 194.08ZM270.466 194V186.288L270.754 186.592H267.282V185.6H274.786V186.592H271.314L271.602 186.288V194H270.466ZM279.494 194.08C278.683 194.08 277.953 193.899 277.302 193.536C276.662 193.163 276.155 192.656 275.782 192.016C275.409 191.365 275.222 190.624 275.222 189.792C275.222 188.949 275.409 188.208 275.782 187.568C276.155 186.928 276.662 186.427 277.302 186.064C277.942 185.701 278.673 185.52 279.494 185.52C280.326 185.52 281.062 185.701 281.702 186.064C282.353 186.427 282.859 186.928 283.222 187.568C283.595 188.208 283.782 188.949 283.782 189.792C283.782 190.624 283.595 191.365 283.222 192.016C282.859 192.656 282.353 193.163 281.702 193.536C281.051 193.899 280.315 194.08 279.494 194.08ZM279.494 193.072C280.102 193.072 280.641 192.939 281.11 192.672C281.579 192.395 281.947 192.011 282.214 191.52C282.491 191.019 282.63 190.443 282.63 189.792C282.63 189.131 282.491 188.555 282.214 188.064C281.947 187.573 281.579 187.195 281.11 186.928C280.641 186.651 280.107 186.512 279.51 186.512C278.913 186.512 278.379 186.651 277.91 186.928C277.441 187.195 277.067 187.573 276.79 188.064C276.513 188.555 276.374 189.131 276.374 189.792C276.374 190.443 276.513 191.019 276.79 191.52C277.067 192.011 277.441 192.395 277.91 192.672C278.379 192.939 278.907 193.072 279.494 193.072ZM291.337 194V190.976L291.545 191.216H288.697C287.62 191.216 286.777 190.981 286.169 190.512C285.561 190.043 285.257 189.36 285.257 188.464C285.257 187.504 285.582 186.789 286.233 186.32C286.884 185.84 287.753 185.6 288.841 185.6H292.377V194H291.337ZM285.193 194L287.497 190.768H288.681L286.425 194H285.193ZM291.337 190.64V186.256L291.545 186.592H288.873C288.094 186.592 287.486 186.741 287.049 187.04C286.622 187.339 286.409 187.824 286.409 188.496C286.409 189.744 287.204 190.368 288.793 190.368H291.545L291.337 190.64ZM297.216 194V186.288L297.504 186.592H294.032V185.6H301.536V186.592H298.064L298.352 186.288V194H297.216ZM306.388 194.08C305.513 194.08 304.745 193.899 304.084 193.536C303.423 193.163 302.905 192.656 302.532 192.016C302.159 191.365 301.972 190.624 301.972 189.792C301.972 188.96 302.148 188.224 302.5 187.584C302.863 186.944 303.353 186.443 303.972 186.08C304.601 185.707 305.305 185.52 306.084 185.52C306.873 185.52 307.572 185.701 308.18 186.064C308.799 186.416 309.284 186.917 309.636 187.568C309.988 188.208 310.164 188.949 310.164 189.792C310.164 189.845 310.159 189.904 310.148 189.968C310.148 190.021 310.148 190.08 310.148 190.144H302.836V189.296H309.54L309.092 189.632C309.092 189.024 308.959 188.485 308.692 188.016C308.436 187.536 308.084 187.163 307.636 186.896C307.188 186.629 306.671 186.496 306.084 186.496C305.508 186.496 304.991 186.629 304.532 186.896C304.073 187.163 303.716 187.536 303.46 188.016C303.204 188.496 303.076 189.045 303.076 189.664V189.84C303.076 190.48 303.215 191.045 303.492 191.536C303.78 192.016 304.175 192.395 304.676 192.672C305.188 192.939 305.769 193.072 306.42 193.072C306.932 193.072 307.407 192.981 307.844 192.8C308.292 192.619 308.676 192.341 308.996 191.968L309.636 192.704C309.263 193.152 308.793 193.493 308.228 193.728C307.673 193.963 307.06 194.08 306.388 194.08ZM310.971 193.984L311.051 193.008C311.125 193.019 311.195 193.035 311.259 193.056C311.333 193.067 311.397 193.072 311.451 193.072C311.792 193.072 312.064 192.944 312.267 192.688C312.48 192.432 312.64 192.091 312.747 191.664C312.853 191.237 312.928 190.757 312.971 190.224C313.013 189.68 313.051 189.136 313.083 188.592L313.227 185.6H319.387V194H318.251V186.256L318.539 186.592H313.963L314.235 186.24L314.107 188.672C314.075 189.397 314.016 190.091 313.931 190.752C313.856 191.413 313.733 191.995 313.563 192.496C313.403 192.997 313.179 193.392 312.891 193.68C312.603 193.957 312.235 194.096 311.787 194.096C311.659 194.096 311.525 194.085 311.387 194.064C311.259 194.043 311.12 194.016 310.971 193.984ZM326.232 188.56C327.288 188.571 328.088 188.805 328.632 189.264C329.187 189.723 329.464 190.384 329.464 191.248C329.464 192.144 329.165 192.832 328.568 193.312C327.981 193.792 327.128 194.027 326.008 194.016L322.616 194V185.6H323.752V188.528L326.232 188.56ZM325.944 193.152C326.723 193.163 327.309 193.008 327.704 192.688C328.109 192.357 328.312 191.877 328.312 191.248C328.312 190.619 328.115 190.16 327.72 189.872C327.325 189.573 326.733 189.419 325.944 189.408L323.752 189.376V193.12L325.944 193.152ZM331.632 194V185.6H332.768V189.312H338.064V185.6H339.2V194H338.064V190.288H332.768V194H331.632ZM345.885 194.08C345.074 194.08 344.343 193.899 343.693 193.536C343.053 193.163 342.546 192.656 342.173 192.016C341.799 191.365 341.613 190.624 341.613 189.792C341.613 188.949 341.799 188.208 342.173 187.568C342.546 186.928 343.053 186.427 343.693 186.064C344.333 185.701 345.063 185.52 345.885 185.52C346.717 185.52 347.453 185.701 348.093 186.064C348.743 186.427 349.25 186.928 349.613 187.568C349.986 188.208 350.173 188.949 350.173 189.792C350.173 190.624 349.986 191.365 349.613 192.016C349.25 192.656 348.743 193.163 348.093 193.536C347.442 193.899 346.706 194.08 345.885 194.08ZM345.885 193.072C346.493 193.072 347.031 192.939 347.501 192.672C347.97 192.395 348.338 192.011 348.605 191.52C348.882 191.019 349.021 190.443 349.021 189.792C349.021 189.131 348.882 188.555 348.605 188.064C348.338 187.573 347.97 187.195 347.501 186.928C347.031 186.651 346.498 186.512 345.901 186.512C345.303 186.512 344.77 186.651 344.301 186.928C343.831 187.195 343.458 187.573 343.181 188.064C342.903 188.555 342.765 189.131 342.765 189.792C342.765 190.443 342.903 191.019 343.181 191.52C343.458 192.011 343.831 192.395 344.301 192.672C344.77 192.939 345.298 193.072 345.885 193.072ZM359.044 194.096C358.436 194.096 357.833 194.011 357.236 193.84C356.639 193.669 356.111 193.408 355.652 193.056L356.02 192.208C356.425 192.507 356.895 192.736 357.428 192.896C357.961 193.045 358.489 193.12 359.012 193.12C359.535 193.109 359.988 193.035 360.372 192.896C360.756 192.757 361.055 192.565 361.268 192.32C361.481 192.075 361.588 191.797 361.588 191.488C361.588 191.04 361.385 190.693 360.98 190.448C360.575 190.192 360.02 190.064 359.316 190.064H357.876V189.232H359.236C359.652 189.232 360.02 189.179 360.34 189.072C360.66 188.965 360.905 188.811 361.076 188.608C361.257 188.405 361.348 188.165 361.348 187.888C361.348 187.589 361.241 187.333 361.028 187.12C360.825 186.907 360.543 186.747 360.18 186.64C359.817 186.533 359.407 186.48 358.948 186.48C358.532 186.491 358.1 186.555 357.652 186.672C357.204 186.779 356.761 186.944 356.324 187.168L356.004 186.288C356.495 186.032 356.98 185.84 357.46 185.712C357.951 185.573 358.441 185.504 358.932 185.504C359.604 185.483 360.207 185.563 360.74 185.744C361.284 185.925 361.716 186.187 362.036 186.528C362.356 186.859 362.516 187.259 362.516 187.728C362.516 188.144 362.388 188.507 362.132 188.816C361.876 189.125 361.535 189.365 361.108 189.536C360.681 189.707 360.196 189.792 359.652 189.792L359.7 189.488C360.66 189.488 361.407 189.675 361.94 190.048C362.484 190.421 362.756 190.928 362.756 191.568C362.756 192.069 362.591 192.512 362.26 192.896C361.929 193.269 361.481 193.563 360.916 193.776C360.361 193.989 359.737 194.096 359.044 194.096ZM370.551 194V192.144L370.503 191.84V188.736C370.503 188.021 370.3 187.472 369.895 187.088C369.5 186.704 368.908 186.512 368.119 186.512C367.575 186.512 367.057 186.603 366.567 186.784C366.076 186.965 365.66 187.205 365.319 187.504L364.807 186.656C365.233 186.293 365.745 186.016 366.343 185.824C366.94 185.621 367.569 185.52 368.231 185.52C369.319 185.52 370.156 185.792 370.743 186.336C371.34 186.869 371.639 187.685 371.639 188.784V194H370.551ZM367.655 194.08C367.025 194.08 366.476 193.979 366.007 193.776C365.548 193.563 365.196 193.275 364.951 192.912C364.705 192.539 364.583 192.112 364.583 191.632C364.583 191.195 364.684 190.8 364.887 190.448C365.1 190.085 365.441 189.797 365.911 189.584C366.391 189.36 367.031 189.248 367.831 189.248H370.727V190.096H367.863C367.052 190.096 366.487 190.24 366.167 190.528C365.857 190.816 365.703 191.173 365.703 191.6C365.703 192.08 365.889 192.464 366.263 192.752C366.636 193.04 367.159 193.184 367.831 193.184C368.471 193.184 369.02 193.04 369.479 192.752C369.948 192.453 370.289 192.027 370.503 191.472L370.759 192.256C370.545 192.811 370.172 193.253 369.639 193.584C369.116 193.915 368.455 194.08 367.655 194.08ZM378.85 194V185.6H386.402V194H385.266V186.288L385.554 186.592H379.698L379.986 186.288V194H378.85ZM394.848 194V192.144L394.8 191.84V188.736C394.8 188.021 394.597 187.472 394.192 187.088C393.797 186.704 393.205 186.512 392.416 186.512C391.872 186.512 391.354 186.603 390.864 186.784C390.373 186.965 389.957 187.205 389.616 187.504L389.104 186.656C389.53 186.293 390.042 186.016 390.64 185.824C391.237 185.621 391.866 185.52 392.528 185.52C393.616 185.52 394.453 185.792 395.04 186.336C395.637 186.869 395.936 187.685 395.936 188.784V194H394.848ZM391.952 194.08C391.322 194.08 390.773 193.979 390.304 193.776C389.845 193.563 389.493 193.275 389.248 192.912C389.002 192.539 388.88 192.112 388.88 191.632C388.88 191.195 388.981 190.8 389.184 190.448C389.397 190.085 389.738 189.797 390.208 189.584C390.688 189.36 391.328 189.248 392.128 189.248H395.024V190.096H392.16C391.349 190.096 390.784 190.24 390.464 190.528C390.154 190.816 390 191.173 390 191.6C390 192.08 390.186 192.464 390.56 192.752C390.933 193.04 391.456 193.184 392.128 193.184C392.768 193.184 393.317 193.04 393.776 192.752C394.245 192.453 394.586 192.027 394.8 191.472L395.056 192.256C394.842 192.811 394.469 193.253 393.936 193.584C393.413 193.915 392.752 194.08 391.952 194.08ZM403.296 194.08C402.57 194.08 401.914 193.915 401.328 193.584C400.741 193.243 400.272 192.757 399.92 192.128C399.578 191.488 399.408 190.709 399.408 189.792C399.408 188.875 399.578 188.101 399.92 187.472C400.261 186.832 400.725 186.347 401.312 186.016C401.898 185.685 402.56 185.52 403.296 185.52C404.096 185.52 404.81 185.701 405.44 186.064C406.08 186.416 406.581 186.917 406.944 187.568C407.306 188.208 407.488 188.949 407.488 189.792C407.488 190.645 407.306 191.392 406.944 192.032C406.581 192.672 406.08 193.173 405.44 193.536C404.81 193.899 404.096 194.08 403.296 194.08ZM398.96 197.104V185.6H400.048V188.128L399.936 189.808L400.096 191.504V197.104H398.96ZM403.216 193.072C403.813 193.072 404.346 192.939 404.816 192.672C405.285 192.395 405.658 192.011 405.936 191.52C406.213 191.019 406.352 190.443 406.352 189.792C406.352 189.141 406.213 188.571 405.936 188.08C405.658 187.589 405.285 187.205 404.816 186.928C404.346 186.651 403.813 186.512 403.216 186.512C402.618 186.512 402.08 186.651 401.6 186.928C401.13 187.205 400.757 187.589 400.48 188.08C400.213 188.571 400.08 189.141 400.08 189.792C400.08 190.443 400.213 191.019 400.48 191.52C400.757 192.011 401.13 192.395 401.6 192.672C402.08 192.939 402.618 193.072 403.216 193.072ZM409.838 197.184C409.443 197.184 409.065 197.12 408.702 196.992C408.35 196.864 408.046 196.672 407.79 196.416L408.318 195.568C408.531 195.771 408.761 195.925 409.006 196.032C409.262 196.149 409.545 196.208 409.854 196.208C410.227 196.208 410.547 196.101 410.814 195.888C411.091 195.685 411.353 195.323 411.598 194.8L412.142 193.568L412.27 193.392L415.726 185.6H416.846L412.638 195.008C412.403 195.552 412.142 195.984 411.854 196.304C411.577 196.624 411.273 196.848 410.942 196.976C410.611 197.115 410.243 197.184 409.838 197.184ZM412.078 194.24L408.206 185.6H409.39L412.814 193.312L412.078 194.24ZM428.116 190.448C427.625 190.661 427.129 190.832 426.628 190.96C426.137 191.077 425.646 191.136 425.156 191.136C424.164 191.136 423.38 190.912 422.804 190.464C422.228 190.005 421.94 189.301 421.94 188.352V185.6H423.06V188.288C423.06 188.928 423.268 189.408 423.684 189.728C424.1 190.048 424.66 190.208 425.364 190.208C425.79 190.208 426.238 190.155 426.708 190.048C427.177 189.931 427.652 189.765 428.132 189.552L428.116 190.448ZM428.02 194V185.6H429.156V194H428.02ZM437.598 194V192.144L437.55 191.84V188.736C437.55 188.021 437.347 187.472 436.942 187.088C436.547 186.704 435.955 186.512 435.166 186.512C434.622 186.512 434.104 186.603 433.614 186.784C433.123 186.965 432.707 187.205 432.366 187.504L431.854 186.656C432.28 186.293 432.792 186.016 433.39 185.824C433.987 185.621 434.616 185.52 435.278 185.52C436.366 185.52 437.203 185.792 437.79 186.336C438.387 186.869 438.686 187.685 438.686 188.784V194H437.598ZM434.702 194.08C434.072 194.08 433.523 193.979 433.054 193.776C432.595 193.563 432.243 193.275 431.998 192.912C431.752 192.539 431.63 192.112 431.63 191.632C431.63 191.195 431.731 190.8 431.934 190.448C432.147 190.085 432.488 189.797 432.958 189.584C433.438 189.36 434.078 189.248 434.878 189.248H437.774V190.096H434.91C434.099 190.096 433.534 190.24 433.214 190.528C432.904 190.816 432.75 191.173 432.75 191.6C432.75 192.08 432.936 192.464 433.31 192.752C433.683 193.04 434.206 193.184 434.878 193.184C435.518 193.184 436.067 193.04 436.526 192.752C436.995 192.453 437.336 192.027 437.55 191.472L437.806 192.256C437.592 192.811 437.219 193.253 436.686 193.584C436.163 193.915 435.502 194.08 434.702 194.08ZM445.23 194.08C444.398 194.08 443.651 193.899 442.99 193.536C442.339 193.163 441.827 192.656 441.454 192.016C441.08 191.365 440.894 190.624 440.894 189.792C440.894 188.949 441.08 188.208 441.454 187.568C441.827 186.928 442.339 186.427 442.99 186.064C443.651 185.701 444.398 185.52 445.23 185.52C445.944 185.52 446.59 185.659 447.166 185.936C447.742 186.213 448.195 186.629 448.526 187.184L447.678 187.76C447.39 187.333 447.032 187.019 446.606 186.816C446.179 186.613 445.715 186.512 445.214 186.512C444.616 186.512 444.078 186.651 443.598 186.928C443.118 187.195 442.739 187.573 442.462 188.064C442.184 188.555 442.046 189.131 442.046 189.792C442.046 190.453 442.184 191.029 442.462 191.52C442.739 192.011 443.118 192.395 443.598 192.672C444.078 192.939 444.616 193.072 445.214 193.072C445.715 193.072 446.179 192.971 446.606 192.768C447.032 192.565 447.39 192.256 447.678 191.84L448.526 192.416C448.195 192.96 447.742 193.376 447.166 193.664C446.59 193.941 445.944 194.08 445.23 194.08ZM454.041 194.08C453.23 194.08 452.499 193.899 451.849 193.536C451.209 193.163 450.702 192.656 450.329 192.016C449.955 191.365 449.769 190.624 449.769 189.792C449.769 188.949 449.955 188.208 450.329 187.568C450.702 186.928 451.209 186.427 451.849 186.064C452.489 185.701 453.219 185.52 454.041 185.52C454.873 185.52 455.609 185.701 456.249 186.064C456.899 186.427 457.406 186.928 457.769 187.568C458.142 188.208 458.329 188.949 458.329 189.792C458.329 190.624 458.142 191.365 457.769 192.016C457.406 192.656 456.899 193.163 456.249 193.536C455.598 193.899 454.862 194.08 454.041 194.08ZM454.041 193.072C454.649 193.072 455.187 192.939 455.657 192.672C456.126 192.395 456.494 192.011 456.761 191.52C457.038 191.019 457.177 190.443 457.177 189.792C457.177 189.131 457.038 188.555 456.761 188.064C456.494 187.573 456.126 187.195 455.657 186.928C455.187 186.651 454.654 186.512 454.057 186.512C453.459 186.512 452.926 186.651 452.457 186.928C451.987 187.195 451.614 187.573 451.337 188.064C451.059 188.555 450.921 189.131 450.921 189.792C450.921 190.443 451.059 191.019 451.337 191.52C451.614 192.011 451.987 192.395 452.457 192.672C452.926 192.939 453.454 193.072 454.041 193.072ZM460.757 194V185.6H464.469C465.418 185.6 466.165 185.781 466.709 186.144C467.263 186.507 467.541 187.04 467.541 187.744C467.541 188.427 467.279 188.955 466.757 189.328C466.234 189.691 465.546 189.872 464.693 189.872L464.917 189.536C465.919 189.536 466.655 189.723 467.125 190.096C467.594 190.469 467.829 191.008 467.829 191.712C467.829 192.437 467.562 193.003 467.029 193.408C466.506 193.803 465.69 194 464.581 194H460.757ZM461.861 193.104H464.533C465.247 193.104 465.786 192.992 466.149 192.768C466.522 192.533 466.709 192.16 466.709 191.648C466.709 191.136 466.543 190.763 466.213 190.528C465.882 190.293 465.359 190.176 464.645 190.176H461.861V193.104ZM461.861 189.328H464.389C465.039 189.328 465.535 189.205 465.877 188.96C466.229 188.715 466.405 188.357 466.405 187.888C466.405 187.419 466.229 187.067 465.877 186.832C465.535 186.597 465.039 186.48 464.389 186.48H461.861V189.328Z" fill="white"/>
<rect width="165" height="56" transform="translate(64 248)" fill="white"/>
<path d="M117 279V280.2C117 281.88 117 282.72 116.673 283.362C116.385 283.926 115.926 284.385 115.362 284.673C114.72 285 113.88 285 112.2 285H103.8C102.12 285 101.28 285 100.638 284.673C100.074 284.385 99.6146 283.926 99.327 283.362C99 282.72 99 281.88 99 280.2V279M113 274L108 279M108 279L103 274M108 279V267" stroke="#29A1F8" stroke-width="2" stroke-linecap="round" stroke-linejoin="round"/>
<path d="M136.752 282.128C135.899 282.128 135.109 281.989 134.384 281.712C133.669 281.424 133.045 281.024 132.512 280.512C131.989 279.989 131.579 279.381 131.28 278.688C130.981 277.995 130.832 277.232 130.832 276.4C130.832 275.568 130.981 274.805 131.28 274.112C131.579 273.419 131.995 272.816 132.528 272.304C133.061 271.781 133.685 271.381 134.4 271.104C135.125 270.816 135.915 270.672 136.768 270.672C137.632 270.672 138.427 270.821 139.152 271.12C139.888 271.408 140.512 271.84 141.024 272.416L139.984 273.424C139.557 272.976 139.077 272.645 138.544 272.432C138.011 272.208 137.44 272.096 136.832 272.096C136.203 272.096 135.616 272.203 135.072 272.416C134.539 272.629 134.075 272.928 133.68 273.312C133.285 273.696 132.976 274.155 132.752 274.688C132.539 275.211 132.432 275.781 132.432 276.4C132.432 277.019 132.539 277.595 132.752 278.128C132.976 278.651 133.285 279.104 133.68 279.488C134.075 279.872 134.539 280.171 135.072 280.384C135.616 280.597 136.203 280.704 136.832 280.704C137.44 280.704 138.011 280.597 138.544 280.384C139.077 280.16 139.557 279.819 139.984 279.36L141.024 280.368C140.512 280.944 139.888 281.381 139.152 281.68C138.427 281.979 137.627 282.128 136.752 282.128ZM149.116 282L145.836 277.872L147.1 277.104L150.924 282H149.116ZM142.972 282V273.52H144.508V282H142.972ZM144.044 278.416V277.104H146.844V278.416H144.044ZM147.228 277.936L145.804 277.744L149.052 273.52H150.7L147.228 277.936ZM157.579 282V280.208L157.499 279.872V276.816C157.499 276.165 157.307 275.664 156.923 275.312C156.549 274.949 155.984 274.768 155.227 274.768C154.725 274.768 154.235 274.853 153.755 275.024C153.275 275.184 152.869 275.403 152.539 275.68L151.899 274.528C152.336 274.176 152.859 273.909 153.467 273.728C154.085 273.536 154.731 273.44 155.403 273.44C156.565 273.44 157.461 273.723 158.091 274.288C158.72 274.853 159.035 275.717 159.035 276.88V282H157.579ZM154.795 282.096C154.165 282.096 153.611 281.989 153.131 281.776C152.661 281.563 152.299 281.269 152.043 280.896C151.787 280.512 151.659 280.08 151.659 279.6C151.659 279.141 151.765 278.725 151.979 278.352C152.203 277.979 152.56 277.68 153.051 277.456C153.552 277.232 154.224 277.12 155.067 277.12H157.755V278.224H155.131C154.363 278.224 153.845 278.352 153.579 278.608C153.312 278.864 153.179 279.173 153.179 279.536C153.179 279.952 153.344 280.288 153.675 280.544C154.005 280.789 154.464 280.912 155.051 280.912C155.627 280.912 156.128 280.784 156.555 280.528C156.992 280.272 157.307 279.899 157.499 279.408L157.803 280.464C157.6 280.965 157.243 281.365 156.731 281.664C156.219 281.952 155.573 282.096 154.795 282.096ZM167.145 278.528C166.697 278.741 166.233 278.912 165.753 279.04C165.283 279.157 164.798 279.216 164.297 279.216C163.273 279.216 162.462 278.976 161.865 278.496C161.278 278.016 160.985 277.275 160.985 276.272V273.52H162.521V276.176C162.521 276.784 162.707 277.232 163.081 277.52C163.465 277.808 163.977 277.952 164.617 277.952C165.022 277.952 165.438 277.899 165.865 277.792C166.302 277.685 166.729 277.536 167.145 277.344V278.528ZM167.033 282V273.52H168.569V282H167.033ZM176.751 282V280.208L176.671 279.872V276.816C176.671 276.165 176.479 275.664 176.095 275.312C175.721 274.949 175.156 274.768 174.399 274.768C173.897 274.768 173.407 274.853 172.927 275.024C172.447 275.184 172.041 275.403 171.711 275.68L171.071 274.528C171.508 274.176 172.031 273.909 172.639 273.728C173.257 273.536 173.903 273.44 174.575 273.44C175.737 273.44 176.633 273.723 177.263 274.288C177.892 274.853 178.207 275.717 178.207 276.88V282H176.751ZM173.967 282.096C173.337 282.096 172.783 281.989 172.303 281.776C171.833 281.563 171.471 281.269 171.215 280.896C170.959 280.512 170.831 280.08 170.831 279.6C170.831 279.141 170.937 278.725 171.151 278.352C171.375 277.979 171.732 277.68 172.223 277.456C172.724 277.232 173.396 277.12 174.239 277.12H176.927V278.224H174.303C173.535 278.224 173.017 278.352 172.751 278.608C172.484 278.864 172.351 279.173 172.351 279.536C172.351 279.952 172.516 280.288 172.847 280.544C173.177 280.789 173.636 280.912 174.223 280.912C174.799 280.912 175.3 280.784 175.727 280.528C176.164 280.272 176.479 279.899 176.671 279.408L176.975 280.464C176.772 280.965 176.415 281.365 175.903 281.664C175.391 281.952 174.745 282.096 173.967 282.096ZM182.652 282V274.464L183.036 274.864H179.548V273.52H187.292V274.864H183.82L184.188 274.464V282H182.652ZM192.783 276.4C193.86 276.411 194.682 276.656 195.247 277.136C195.812 277.616 196.095 278.293 196.095 279.168C196.095 280.085 195.786 280.795 195.167 281.296C194.548 281.787 193.674 282.027 192.543 282.016L188.863 282V273.52H190.399V276.384L192.783 276.4ZM192.415 280.848C193.108 280.859 193.631 280.72 193.983 280.432C194.346 280.144 194.527 279.717 194.527 279.152C194.527 278.597 194.351 278.192 193.999 277.936C193.647 277.68 193.119 277.547 192.415 277.536L190.399 277.504V280.832L192.415 280.848Z" fill="#141414"/>
</svg>
