<svg width="328" height="362" viewBox="0 0 328 362" fill="none" xmlns="http://www.w3.org/2000/svg">
<rect width="328" height="362" fill="#29A1F8"/>
<path d="M25.914 159V143.6H39.95V159H36.408V145.69L37.222 146.504H28.642L29.456 145.69V159H25.914ZM49.0475 159.176C47.7862 159.176 46.6642 158.912 45.6815 158.384C44.7135 157.856 43.9435 157.137 43.3715 156.228C42.8142 155.304 42.5355 154.255 42.5355 153.082C42.5355 151.894 42.8142 150.845 43.3715 149.936C43.9435 149.012 44.7135 148.293 45.6815 147.78C46.6642 147.252 47.7862 146.988 49.0475 146.988C50.2942 146.988 51.4088 147.252 52.3915 147.78C53.3742 148.293 54.1442 149.005 54.7015 149.914C55.2588 150.823 55.5375 151.879 55.5375 153.082C55.5375 154.255 55.2588 155.304 54.7015 156.228C54.1442 157.137 53.3742 157.856 52.3915 158.384C51.4088 158.912 50.2942 159.176 49.0475 159.176ZM49.0475 156.36C49.6195 156.36 50.1328 156.228 50.5875 155.964C51.0422 155.7 51.4015 155.326 51.6655 154.842C51.9295 154.343 52.0615 153.757 52.0615 153.082C52.0615 152.393 51.9295 151.806 51.6655 151.322C51.4015 150.838 51.0422 150.464 50.5875 150.2C50.1328 149.936 49.6195 149.804 49.0475 149.804C48.4755 149.804 47.9622 149.936 47.5075 150.2C47.0528 150.464 46.6862 150.838 46.4075 151.322C46.1435 151.806 46.0115 152.393 46.0115 153.082C46.0115 153.757 46.1435 154.343 46.4075 154.842C46.6862 155.326 47.0528 155.7 47.5075 155.964C47.9622 156.228 48.4755 156.36 49.0475 156.36ZM65.8662 157.46V149.98H61.9942L61.9282 151.498C61.8988 152.129 61.8622 152.73 61.8182 153.302C61.7742 153.874 61.6862 154.395 61.5542 154.864C61.4368 155.319 61.2608 155.707 61.0262 156.03C60.7915 156.338 60.4762 156.551 60.0802 156.668L56.6922 156.184C57.1175 156.184 57.4622 156.059 57.7262 155.81C57.9902 155.546 58.1955 155.187 58.3422 154.732C58.4888 154.263 58.5988 153.735 58.6722 153.148C58.7455 152.547 58.7968 151.916 58.8262 151.256L58.9802 147.164H69.2982V157.46H65.8662ZM56.2962 161.552V156.184H70.9922V161.552H67.8022V159H59.4862V161.552H56.2962ZM80.126 159.176C79.1286 159.176 78.256 158.956 77.508 158.516C76.76 158.076 76.1733 157.409 75.748 156.514C75.3373 155.605 75.132 154.461 75.132 153.082C75.132 151.689 75.33 150.545 75.726 149.65C76.122 148.755 76.694 148.088 77.442 147.648C78.19 147.208 79.0846 146.988 80.126 146.988C81.2406 146.988 82.238 147.245 83.118 147.758C84.0126 148.257 84.7166 148.961 85.23 149.87C85.758 150.779 86.022 151.85 86.022 153.082C86.022 154.329 85.758 155.407 85.23 156.316C84.7166 157.225 84.0126 157.929 83.118 158.428C82.238 158.927 81.2406 159.176 80.126 159.176ZM73.13 163.268V147.164H76.408V149.584L76.342 153.104L76.562 156.602V163.268H73.13ZM79.532 156.36C80.104 156.36 80.61 156.228 81.05 155.964C81.5046 155.7 81.864 155.326 82.128 154.842C82.4066 154.343 82.546 153.757 82.546 153.082C82.546 152.393 82.4066 151.806 82.128 151.322C81.864 150.838 81.5046 150.464 81.05 150.2C80.61 149.936 80.104 149.804 79.532 149.804C78.96 149.804 78.4466 149.936 77.992 150.2C77.5373 150.464 77.178 150.838 76.914 151.322C76.65 151.806 76.518 152.393 76.518 153.082C76.518 153.757 76.65 154.343 76.914 154.842C77.178 155.326 77.5373 155.7 77.992 155.964C78.4466 156.228 78.96 156.36 79.532 156.36ZM93.9713 159.176C92.71 159.176 91.588 158.912 90.6053 158.384C89.6373 157.856 88.8673 157.137 88.2953 156.228C87.738 155.304 87.4593 154.255 87.4593 153.082C87.4593 151.894 87.738 150.845 88.2953 149.936C88.8673 149.012 89.6373 148.293 90.6053 147.78C91.588 147.252 92.71 146.988 93.9713 146.988C95.218 146.988 96.3327 147.252 97.3153 147.78C98.298 148.293 99.068 149.005 99.6253 149.914C100.183 150.823 100.461 151.879 100.461 153.082C100.461 154.255 100.183 155.304 99.6253 156.228C99.068 157.137 98.298 157.856 97.3153 158.384C96.3327 158.912 95.218 159.176 93.9713 159.176ZM93.9713 156.36C94.5433 156.36 95.0567 156.228 95.5113 155.964C95.966 155.7 96.3253 155.326 96.5893 154.842C96.8533 154.343 96.9853 153.757 96.9853 153.082C96.9853 152.393 96.8533 151.806 96.5893 151.322C96.3253 150.838 95.966 150.464 95.5113 150.2C95.0567 149.936 94.5433 149.804 93.9713 149.804C93.3993 149.804 92.886 149.936 92.4313 150.2C91.9767 150.464 91.61 150.838 91.3313 151.322C91.0673 151.806 90.9353 152.393 90.9353 153.082C90.9353 153.757 91.0673 154.343 91.3313 154.842C91.61 155.326 91.9767 155.7 92.4313 155.964C92.886 156.228 93.3993 156.36 93.9713 156.36ZM108.696 159.264C107.728 159.264 106.848 159.125 106.056 158.846C105.264 158.553 104.575 158.105 103.988 157.504C103.416 156.888 102.969 156.103 102.646 155.15C102.338 154.197 102.184 153.06 102.184 151.74C102.184 150.801 102.265 149.943 102.426 149.166C102.587 148.389 102.829 147.685 103.152 147.054C103.475 146.409 103.885 145.844 104.384 145.36C104.897 144.861 105.491 144.451 106.166 144.128C106.855 143.791 107.633 143.534 108.498 143.358L114.13 142.236L114.592 145.184L109.62 146.174C109.327 146.233 108.989 146.313 108.608 146.416C108.241 146.504 107.867 146.643 107.486 146.834C107.119 147.025 106.775 147.296 106.452 147.648C106.144 147.985 105.895 148.433 105.704 148.99C105.513 149.533 105.418 150.207 105.418 151.014C105.418 151.263 105.425 151.454 105.44 151.586C105.469 151.718 105.491 151.857 105.506 152.004C105.535 152.151 105.55 152.378 105.55 152.686L104.45 151.608C104.773 150.919 105.183 150.332 105.682 149.848C106.195 149.364 106.782 148.997 107.442 148.748C108.117 148.484 108.865 148.352 109.686 148.352C110.801 148.352 111.776 148.579 112.612 149.034C113.463 149.474 114.123 150.097 114.592 150.904C115.061 151.711 115.296 152.627 115.296 153.654C115.296 154.769 115.017 155.751 114.46 156.602C113.903 157.438 113.125 158.091 112.128 158.56C111.145 159.029 110.001 159.264 108.696 159.264ZM108.872 156.602C109.444 156.602 109.95 156.477 110.39 156.228C110.83 155.964 111.167 155.619 111.402 155.194C111.651 154.754 111.776 154.263 111.776 153.72C111.776 153.192 111.651 152.723 111.402 152.312C111.167 151.901 110.83 151.579 110.39 151.344C109.95 151.109 109.437 150.992 108.85 150.992C108.278 150.992 107.765 151.109 107.31 151.344C106.855 151.564 106.503 151.872 106.254 152.268C106.005 152.664 105.88 153.126 105.88 153.654C105.88 154.197 106.005 154.695 106.254 155.15C106.518 155.59 106.87 155.942 107.31 156.206C107.765 156.47 108.285 156.602 108.872 156.602ZM117.625 159V147.164H121.035V151.784H126.183V147.164H129.615V159H126.183V154.578H121.035V159H117.625ZM139.984 159V156.69L139.764 156.184V152.048C139.764 151.315 139.537 150.743 139.082 150.332C138.642 149.921 137.96 149.716 137.036 149.716C136.405 149.716 135.782 149.819 135.166 150.024C134.565 150.215 134.051 150.479 133.626 150.816L132.394 148.418C133.039 147.963 133.817 147.611 134.726 147.362C135.635 147.113 136.559 146.988 137.498 146.988C139.302 146.988 140.703 147.413 141.7 148.264C142.697 149.115 143.196 150.442 143.196 152.246V159H139.984ZM136.376 159.176C135.452 159.176 134.66 159.022 134 158.714C133.34 158.391 132.834 157.959 132.482 157.416C132.13 156.873 131.954 156.265 131.954 155.59C131.954 154.886 132.123 154.27 132.46 153.742C132.812 153.214 133.362 152.803 134.11 152.51C134.858 152.202 135.833 152.048 137.036 152.048H140.182V154.05H137.41C136.603 154.05 136.046 154.182 135.738 154.446C135.445 154.71 135.298 155.04 135.298 155.436C135.298 155.876 135.467 156.228 135.804 156.492C136.156 156.741 136.633 156.866 137.234 156.866C137.806 156.866 138.319 156.734 138.774 156.47C139.229 156.191 139.559 155.788 139.764 155.26L140.292 156.844C140.043 157.607 139.588 158.186 138.928 158.582C138.268 158.978 137.417 159.176 136.376 159.176ZM153.635 159V155.062L154.119 155.612H150.841C149.14 155.612 147.805 155.26 146.837 154.556C145.869 153.852 145.385 152.84 145.385 151.52C145.385 150.112 145.891 149.034 146.903 148.286C147.93 147.538 149.309 147.164 151.039 147.164H156.693V159H153.635ZM145.209 159L148.355 154.49H151.853L148.861 159H145.209ZM153.635 154.006V149.078L154.119 149.958H151.105C150.401 149.958 149.851 150.09 149.455 150.354C149.074 150.618 148.883 151.043 148.883 151.63C148.883 152.759 149.609 153.324 151.061 153.324H154.119L153.635 154.006ZM25.65 185V173.164H29.06V180.204L34.824 173.164H37.97V185H34.56V177.96L28.818 185H25.65ZM41.2691 185V173.164H44.6791V177.784H49.8271V173.164H53.2591V185H49.8271V180.578H44.6791V185H41.2691ZM62.1765 185.176C60.9005 185.176 59.7639 184.919 58.7665 184.406C57.7692 183.878 56.9845 183.152 56.4125 182.228C55.8552 181.304 55.5765 180.255 55.5765 179.082C55.5765 177.894 55.8552 176.845 56.4125 175.936C56.9845 175.012 57.7692 174.293 58.7665 173.78C59.7639 173.252 60.9005 172.988 62.1765 172.988C63.4232 172.988 64.5085 173.252 65.4325 173.78C66.3565 174.293 67.0385 175.034 67.4785 176.002L64.8165 177.432C64.5085 176.875 64.1199 176.464 63.6505 176.2C63.1959 175.936 62.6972 175.804 62.1545 175.804C61.5679 175.804 61.0399 175.936 60.5705 176.2C60.1012 176.464 59.7272 176.838 59.4485 177.322C59.1845 177.806 59.0525 178.393 59.0525 179.082C59.0525 179.771 59.1845 180.358 59.4485 180.842C59.7272 181.326 60.1012 181.7 60.5705 181.964C61.0399 182.228 61.5679 182.36 62.1545 182.36C62.6972 182.36 63.1959 182.235 63.6505 181.986C64.1199 181.722 64.5085 181.304 64.8165 180.732L67.4785 182.184C67.0385 183.137 66.3565 183.878 65.4325 184.406C64.5085 184.919 63.4232 185.176 62.1765 185.176ZM72.0726 185V175.188L72.8426 175.98H68.0686V173.164H79.4866V175.98H74.7126L75.4826 175.188V185H72.0726ZM88.29 185.176C87.2927 185.176 86.42 184.956 85.672 184.516C84.924 184.076 84.3373 183.409 83.912 182.514C83.5013 181.605 83.296 180.461 83.296 179.082C83.296 177.689 83.494 176.545 83.89 175.65C84.286 174.755 84.858 174.088 85.606 173.648C86.354 173.208 87.2487 172.988 88.29 172.988C89.4047 172.988 90.402 173.245 91.282 173.758C92.1767 174.257 92.8807 174.961 93.394 175.87C93.922 176.779 94.186 177.85 94.186 179.082C94.186 180.329 93.922 181.407 93.394 182.316C92.8807 183.225 92.1767 183.929 91.282 184.428C90.402 184.927 89.4047 185.176 88.29 185.176ZM81.294 189.268V173.164H84.572V175.584L84.506 179.104L84.726 182.602V189.268H81.294ZM87.696 182.36C88.268 182.36 88.774 182.228 89.214 181.964C89.6687 181.7 90.028 181.326 90.292 180.842C90.5707 180.343 90.71 179.757 90.71 179.082C90.71 178.393 90.5707 177.806 90.292 177.322C90.028 176.838 89.6687 176.464 89.214 176.2C88.774 175.936 88.268 175.804 87.696 175.804C87.124 175.804 86.6107 175.936 86.156 176.2C85.7013 176.464 85.342 176.838 85.078 177.322C84.814 177.806 84.682 178.393 84.682 179.082C84.682 179.757 84.814 180.343 85.078 180.842C85.342 181.326 85.7013 181.7 86.156 181.964C86.6107 182.228 87.124 182.36 87.696 182.36ZM97.8751 189.444C97.2591 189.444 96.6505 189.349 96.0491 189.158C95.4478 188.967 94.9565 188.703 94.5751 188.366L95.8291 185.924C96.0931 186.159 96.3938 186.342 96.7311 186.474C97.0831 186.606 97.4278 186.672 97.7651 186.672C98.2491 186.672 98.6305 186.555 98.9091 186.32C99.2025 186.1 99.4665 185.726 99.7011 185.198L100.317 183.746L100.581 183.372L104.827 173.164H108.127L102.781 185.726C102.4 186.679 101.96 187.427 101.461 187.97C100.977 188.513 100.434 188.894 99.8331 189.114C99.2465 189.334 98.5938 189.444 97.8751 189.444ZM99.8991 185.462L94.6191 173.164H98.1611L102.253 183.064L99.8991 185.462ZM118.165 185L114.205 179.39L116.999 177.74L122.213 185H118.165ZM109.783 185V173.164H113.215V185H109.783ZM112.203 180.512V177.762H116.339V180.512H112.203ZM117.329 179.478L114.117 179.126L118.275 173.164H121.927L117.329 179.478ZM123.898 185V173.164H127.308V182.184H132.082V173.164H135.514V185H123.898ZM134.04 187.552V184.956L134.832 185H132.082V182.184H137.23V187.552H134.04ZM139.388 185V173.164H142.798V180.204L148.562 173.164H151.708V185H148.298V177.96L142.556 185H139.388ZM162.465 185V181.062L162.949 181.612H159.671C157.97 181.612 156.635 181.26 155.667 180.556C154.699 179.852 154.215 178.84 154.215 177.52C154.215 176.112 154.721 175.034 155.733 174.286C156.76 173.538 158.139 173.164 159.869 173.164H165.523V185H162.465ZM154.039 185L157.185 180.49H160.683L157.691 185H154.039ZM162.465 180.006V175.078L162.949 175.958H159.935C159.231 175.958 158.681 176.09 158.285 176.354C157.904 176.618 157.713 177.043 157.713 177.63C157.713 178.759 158.439 179.324 159.891 179.324H162.949L162.465 180.006ZM176.658 189.444C176.042 189.444 175.434 189.349 174.832 189.158C174.231 188.967 173.74 188.703 173.358 188.366L174.612 185.924C174.876 186.159 175.177 186.342 175.514 186.474C175.866 186.606 176.211 186.672 176.548 186.672C177.032 186.672 177.414 186.555 177.692 186.32C177.986 186.1 178.25 185.726 178.484 185.198L179.1 183.746L179.364 183.372L183.61 173.164H186.91L181.564 185.726C181.183 186.679 180.743 187.427 180.244 187.97C179.76 188.513 179.218 188.894 178.616 189.114C178.03 189.334 177.377 189.444 176.658 189.444ZM178.682 185.462L173.402 173.164H176.944L181.036 183.064L178.682 185.462ZM193.876 185.176C192.6 185.176 191.463 184.919 190.466 184.406C189.468 183.878 188.684 183.152 188.112 182.228C187.554 181.304 187.276 180.255 187.276 179.082C187.276 177.894 187.554 176.845 188.112 175.936C188.684 175.012 189.468 174.293 190.466 173.78C191.463 173.252 192.6 172.988 193.876 172.988C195.122 172.988 196.208 173.252 197.132 173.78C198.056 174.293 198.738 175.034 199.178 176.002L196.516 177.432C196.208 176.875 195.819 176.464 195.35 176.2C194.895 175.936 194.396 175.804 193.854 175.804C193.267 175.804 192.739 175.936 192.27 176.2C191.8 176.464 191.426 176.838 191.148 177.322C190.884 177.806 190.752 178.393 190.752 179.082C190.752 179.771 190.884 180.358 191.148 180.842C191.426 181.326 191.8 181.7 192.27 181.964C192.739 182.228 193.267 182.36 193.854 182.36C194.396 182.36 194.895 182.235 195.35 181.986C195.819 181.722 196.208 181.304 196.516 180.732L199.178 182.184C198.738 183.137 198.056 183.878 197.132 184.406C196.208 184.919 195.122 185.176 193.876 185.176ZM203.772 185V175.188L204.542 175.98H199.768V173.164H211.186V175.98H206.412L207.182 175.188V185H203.772ZM220.099 185V182.69L219.879 182.184V178.048C219.879 177.315 219.652 176.743 219.197 176.332C218.757 175.921 218.075 175.716 217.151 175.716C216.521 175.716 215.897 175.819 215.281 176.024C214.68 176.215 214.167 176.479 213.741 176.816L212.509 174.418C213.155 173.963 213.932 173.611 214.841 173.362C215.751 173.113 216.675 172.988 217.613 172.988C219.417 172.988 220.818 173.413 221.815 174.264C222.813 175.115 223.311 176.442 223.311 178.246V185H220.099ZM216.491 185.176C215.567 185.176 214.775 185.022 214.115 184.714C213.455 184.391 212.949 183.959 212.597 183.416C212.245 182.873 212.069 182.265 212.069 181.59C212.069 180.886 212.238 180.27 212.575 179.742C212.927 179.214 213.477 178.803 214.225 178.51C214.973 178.202 215.949 178.048 217.151 178.048H220.297V180.05H217.525C216.719 180.05 216.161 180.182 215.853 180.446C215.56 180.71 215.413 181.04 215.413 181.436C215.413 181.876 215.582 182.228 215.919 182.492C216.271 182.741 216.748 182.866 217.349 182.866C217.921 182.866 218.435 182.734 218.889 182.47C219.344 182.191 219.674 181.788 219.879 181.26L220.407 182.844C220.158 183.607 219.703 184.186 219.043 184.582C218.383 184.978 217.533 185.176 216.491 185.176ZM226.293 185V173.164H229.703V177.784H234.851V173.164H238.283V185H234.851V180.578H229.703V185H226.293ZM247.112 185.176C245.851 185.176 244.729 184.912 243.746 184.384C242.778 183.856 242.008 183.137 241.436 182.228C240.879 181.304 240.6 180.255 240.6 179.082C240.6 177.894 240.879 176.845 241.436 175.936C242.008 175.012 242.778 174.293 243.746 173.78C244.729 173.252 245.851 172.988 247.112 172.988C248.359 172.988 249.473 173.252 250.456 173.78C251.439 174.293 252.209 175.005 252.766 175.914C253.323 176.823 253.602 177.879 253.602 179.082C253.602 180.255 253.323 181.304 252.766 182.228C252.209 183.137 251.439 183.856 250.456 184.384C249.473 184.912 248.359 185.176 247.112 185.176ZM247.112 182.36C247.684 182.36 248.197 182.228 248.652 181.964C249.107 181.7 249.466 181.326 249.73 180.842C249.994 180.343 250.126 179.757 250.126 179.082C250.126 178.393 249.994 177.806 249.73 177.322C249.466 176.838 249.107 176.464 248.652 176.2C248.197 175.936 247.684 175.804 247.112 175.804C246.54 175.804 246.027 175.936 245.572 176.2C245.117 176.464 244.751 176.838 244.472 177.322C244.208 177.806 244.076 178.393 244.076 179.082C244.076 179.757 244.208 180.343 244.472 180.842C244.751 181.326 245.117 181.7 245.572 181.964C246.027 182.228 246.54 182.36 247.112 182.36ZM255.963 185V173.164H262.013C263.494 173.164 264.653 173.435 265.489 173.978C266.325 174.506 266.742 175.254 266.742 176.222C266.742 177.19 266.347 177.953 265.555 178.51C264.777 179.053 263.743 179.324 262.453 179.324L262.805 178.532C264.242 178.532 265.313 178.796 266.017 179.324C266.735 179.852 267.095 180.622 267.095 181.634C267.095 182.675 266.699 183.497 265.907 184.098C265.115 184.699 263.905 185 262.277 185H255.963ZM259.109 182.668H261.991C262.621 182.668 263.091 182.565 263.399 182.36C263.721 182.14 263.883 181.81 263.883 181.37C263.883 180.915 263.736 180.585 263.443 180.38C263.149 180.16 262.687 180.05 262.057 180.05H259.109V182.668ZM259.109 178.026H261.705C262.306 178.026 262.753 177.916 263.047 177.696C263.355 177.476 263.509 177.161 263.509 176.75C263.509 176.325 263.355 176.009 263.047 175.804C262.753 175.599 262.306 175.496 261.705 175.496H259.109V178.026ZM278.03 185L274.07 179.39L276.864 177.74L282.078 185H278.03ZM269.648 185V173.164H273.08V185H269.648ZM272.068 180.512V177.762H276.204V180.512H272.068ZM277.194 179.478L273.982 179.126L278.14 173.164H281.792L277.194 179.478ZM283.763 185V173.164H287.173V180.204L292.937 173.164H296.083V185H292.673V177.96L286.931 185H283.763Z" fill="white"/>
<path d="M25.484 221.034C25.96 221.221 26.408 221.267 26.828 221.174C27.248 221.071 27.6353 220.74 27.99 220.18L28.466 219.424L28.564 219.298L32.316 212.2H33.352L28.9 220.404C28.6013 220.973 28.2467 221.398 27.836 221.678C27.4347 221.958 27.0053 222.107 26.548 222.126C26.1 222.145 25.6473 222.061 25.19 221.874L25.484 221.034ZM28.536 220.236L24.294 212.2H25.4L29.096 219.382L28.536 220.236ZM37.244 222.07C36.516 222.07 35.8627 221.911 35.284 221.594C34.7147 221.267 34.2667 220.824 33.94 220.264C33.6133 219.695 33.45 219.046 33.45 218.318C33.45 217.581 33.6133 216.932 33.94 216.372C34.2667 215.812 34.7147 215.373 35.284 215.056C35.8627 214.739 36.516 214.58 37.244 214.58C37.8693 214.58 38.434 214.701 38.938 214.944C39.442 215.187 39.8387 215.551 40.128 216.036L39.386 216.54C39.134 216.167 38.8213 215.891 38.448 215.714C38.0747 215.537 37.6687 215.448 37.23 215.448C36.7073 215.448 36.236 215.569 35.816 215.812C35.396 216.045 35.0647 216.377 34.822 216.806C34.5793 217.235 34.458 217.739 34.458 218.318C34.458 218.897 34.5793 219.401 34.822 219.83C35.0647 220.259 35.396 220.595 35.816 220.838C36.236 221.071 36.7073 221.188 37.23 221.188C37.6687 221.188 38.0747 221.099 38.448 220.922C38.8213 220.745 39.134 220.474 39.386 220.11L40.128 220.614C39.8387 221.09 39.442 221.454 38.938 221.706C38.434 221.949 37.8693 222.07 37.244 222.07ZM43.316 222V215.252L43.568 215.518H40.53V214.65H47.096V215.518H44.058L44.31 215.252V222H43.316ZM53.0971 222V220.376L53.0551 220.11V217.394C53.0551 216.769 52.8778 216.288 52.5231 215.952C52.1778 215.616 51.6598 215.448 50.9691 215.448C50.4931 215.448 50.0405 215.527 49.6111 215.686C49.1818 215.845 48.8178 216.055 48.5191 216.316L48.0711 215.574C48.4445 215.257 48.8925 215.014 49.4151 214.846C49.9378 214.669 50.4885 214.58 51.0671 214.58C52.0191 214.58 52.7518 214.818 53.2651 215.294C53.7878 215.761 54.0491 216.475 54.0491 217.436V222H53.0971ZM50.5631 222.07C50.0125 222.07 49.5318 221.981 49.1211 221.804C48.7198 221.617 48.4118 221.365 48.1971 221.048C47.9825 220.721 47.8751 220.348 47.8751 219.928C47.8751 219.545 47.9638 219.2 48.1411 218.892C48.3278 218.575 48.6265 218.323 49.0371 218.136C49.4571 217.94 50.0171 217.842 50.7171 217.842H53.2511V218.584H50.7451C50.0358 218.584 49.5411 218.71 49.2611 218.962C48.9905 219.214 48.8551 219.527 48.8551 219.9C48.8551 220.32 49.0185 220.656 49.3451 220.908C49.6718 221.16 50.1291 221.286 50.7171 221.286C51.2771 221.286 51.7578 221.16 52.1591 220.908C52.5698 220.647 52.8685 220.273 53.0551 219.788L53.2791 220.474C53.0925 220.959 52.7658 221.347 52.2991 221.636C51.8418 221.925 51.2631 222.07 50.5631 222.07ZM56.6953 222V214.65H57.6893V217.898H62.3233V214.65H63.3173V222H62.3233V218.752H57.6893V222H56.6953ZM69.1665 222.07C68.4572 222.07 67.8178 221.911 67.2485 221.594C66.6885 221.267 66.2452 220.824 65.9185 220.264C65.5918 219.695 65.4285 219.046 65.4285 218.318C65.4285 217.581 65.5918 216.932 65.9185 216.372C66.2452 215.812 66.6885 215.373 67.2485 215.056C67.8085 214.739 68.4478 214.58 69.1665 214.58C69.8945 214.58 70.5385 214.739 71.0985 215.056C71.6678 215.373 72.1112 215.812 72.4285 216.372C72.7552 216.932 72.9185 217.581 72.9185 218.318C72.9185 219.046 72.7552 219.695 72.4285 220.264C72.1112 220.824 71.6678 221.267 71.0985 221.594C70.5292 221.911 69.8852 222.07 69.1665 222.07ZM69.1665 221.188C69.6985 221.188 70.1698 221.071 70.5805 220.838C70.9912 220.595 71.3132 220.259 71.5465 219.83C71.7892 219.391 71.9105 218.887 71.9105 218.318C71.9105 217.739 71.7892 217.235 71.5465 216.806C71.3132 216.377 70.9912 216.045 70.5805 215.812C70.1698 215.569 69.7032 215.448 69.1805 215.448C68.6578 215.448 68.1912 215.569 67.7805 215.812C67.3698 216.045 67.0432 216.377 66.8005 216.806C66.5578 217.235 66.4365 217.739 66.4365 218.318C66.4365 218.887 66.5578 219.391 66.8005 219.83C67.0432 220.259 67.3698 220.595 67.7805 220.838C68.1912 221.071 68.6532 221.188 69.1665 221.188ZM75.0429 222V214.65H78.2909C79.1216 214.65 79.7749 214.809 80.2509 215.126C80.7362 215.443 80.9789 215.91 80.9789 216.526C80.9789 217.123 80.7502 217.585 80.2929 217.912C79.8356 218.229 79.2336 218.388 78.4869 218.388L78.6829 218.094C79.5602 218.094 80.2042 218.257 80.6149 218.584C81.0256 218.911 81.2309 219.382 81.2309 219.998C81.2309 220.633 80.9976 221.127 80.5309 221.482C80.0736 221.827 79.3596 222 78.3889 222H75.0429ZM76.0089 221.216H78.3469C78.9722 221.216 79.4436 221.118 79.7609 220.922C80.0876 220.717 80.2509 220.39 80.2509 219.942C80.2509 219.494 80.1062 219.167 79.8169 218.962C79.5276 218.757 79.0702 218.654 78.4449 218.654H76.0089V221.216ZM76.0089 217.912H78.2209C78.7902 217.912 79.2242 217.805 79.5229 217.59C79.8309 217.375 79.9849 217.063 79.9849 216.652C79.9849 216.241 79.8309 215.933 79.5229 215.728C79.2242 215.523 78.7902 215.42 78.2209 215.42H76.0089V217.912ZM83.5605 222V214.65H84.5545V220.488L89.4685 214.65H90.3505V222H89.3565V216.148L84.4565 222H83.5605ZM94.5992 222V215.252L94.8512 215.518H91.8132V214.65H98.3792V215.518H95.3412L95.5932 215.252V222H94.5992ZM102.625 222.07C101.859 222.07 101.187 221.911 100.609 221.594C100.03 221.267 99.5772 220.824 99.2505 220.264C98.9239 219.695 98.7605 219.046 98.7605 218.318C98.7605 217.59 98.9145 216.946 99.2225 216.386C99.5399 215.826 99.9692 215.387 100.511 215.07C101.061 214.743 101.677 214.58 102.359 214.58C103.049 214.58 103.661 214.739 104.193 215.056C104.734 215.364 105.159 215.803 105.467 216.372C105.775 216.932 105.929 217.581 105.929 218.318C105.929 218.365 105.924 218.416 105.915 218.472C105.915 218.519 105.915 218.57 105.915 218.626H99.5165V217.884H105.383L104.991 218.178C104.991 217.646 104.874 217.175 104.641 216.764C104.417 216.344 104.109 216.017 103.717 215.784C103.325 215.551 102.872 215.434 102.359 215.434C101.855 215.434 101.402 215.551 101.001 215.784C100.599 216.017 100.287 216.344 100.063 216.764C99.8385 217.184 99.7265 217.665 99.7265 218.206V218.36C99.7265 218.92 99.8479 219.415 100.091 219.844C100.343 220.264 100.688 220.595 101.127 220.838C101.575 221.071 102.083 221.188 102.653 221.188C103.101 221.188 103.516 221.109 103.899 220.95C104.291 220.791 104.627 220.549 104.907 220.222L105.467 220.866C105.14 221.258 104.729 221.557 104.235 221.762C103.749 221.967 103.213 222.07 102.625 222.07ZM116.441 218.892C116.012 219.079 115.578 219.228 115.139 219.34C114.71 219.443 114.28 219.494 113.851 219.494C112.983 219.494 112.297 219.298 111.793 218.906C111.289 218.505 111.037 217.889 111.037 217.058V214.65H112.017V217.002C112.017 217.562 112.199 217.982 112.563 218.262C112.927 218.542 113.417 218.682 114.033 218.682C114.406 218.682 114.798 218.635 115.209 218.542C115.62 218.439 116.035 218.295 116.455 218.108L116.441 218.892ZM116.357 222V214.65H117.351V222H116.357ZM123.324 222.07C122.558 222.07 121.886 221.911 121.308 221.594C120.729 221.267 120.276 220.824 119.95 220.264C119.623 219.695 119.46 219.046 119.46 218.318C119.46 217.59 119.614 216.946 119.922 216.386C120.239 215.826 120.668 215.387 121.21 215.07C121.76 214.743 122.376 214.58 123.058 214.58C123.748 214.58 124.36 214.739 124.892 215.056C125.433 215.364 125.858 215.803 126.166 216.372C126.474 216.932 126.628 217.581 126.628 218.318C126.628 218.365 126.623 218.416 126.614 218.472C126.614 218.519 126.614 218.57 126.614 218.626H120.216V217.884H126.082L125.69 218.178C125.69 217.646 125.573 217.175 125.34 216.764C125.116 216.344 124.808 216.017 124.416 215.784C124.024 215.551 123.571 215.434 123.058 215.434C122.554 215.434 122.101 215.551 121.7 215.784C121.298 216.017 120.986 216.344 120.762 216.764C120.538 217.184 120.426 217.665 120.426 218.206V218.36C120.426 218.92 120.547 219.415 120.79 219.844C121.042 220.264 121.387 220.595 121.826 220.838C122.274 221.071 122.782 221.188 123.352 221.188C123.8 221.188 124.215 221.109 124.598 220.95C124.99 220.791 125.326 220.549 125.606 220.222L126.166 220.866C125.839 221.258 125.428 221.557 124.934 221.762C124.448 221.967 123.912 222.07 123.324 222.07ZM127.419 222L130.527 217.968L130.513 218.458L127.559 214.65H128.679L131.101 217.8L130.681 217.786L133.103 214.65H134.195L131.213 218.5L131.227 217.968L134.363 222H133.229L130.667 218.64L131.059 218.696L128.539 222H127.419ZM134.648 221.986L134.718 221.132C134.783 221.141 134.844 221.155 134.9 221.174C134.965 221.183 135.021 221.188 135.068 221.188C135.367 221.188 135.605 221.076 135.782 220.852C135.969 220.628 136.109 220.329 136.202 219.956C136.295 219.583 136.361 219.163 136.398 218.696C136.435 218.22 136.468 217.744 136.496 217.268L136.622 214.65H142.012V222H141.018V215.224L141.27 215.518H137.266L137.504 215.21L137.392 217.338C137.364 217.973 137.313 218.579 137.238 219.158C137.173 219.737 137.065 220.245 136.916 220.684C136.776 221.123 136.58 221.468 136.328 221.72C136.076 221.963 135.754 222.084 135.362 222.084C135.25 222.084 135.133 222.075 135.012 222.056C134.9 222.037 134.779 222.014 134.648 221.986ZM152.006 222V214.65H153V222H152.006ZM147.932 217.24C148.856 217.249 149.56 217.455 150.046 217.856C150.531 218.257 150.774 218.836 150.774 219.592C150.774 220.376 150.512 220.978 149.99 221.398C149.467 221.818 148.72 222.023 147.75 222.014L144.838 222V214.65H145.832V217.212L147.932 217.24ZM147.68 221.258C148.37 221.267 148.888 221.132 149.234 220.852C149.588 220.563 149.766 220.143 149.766 219.592C149.766 219.041 149.593 218.64 149.248 218.388C148.902 218.127 148.38 217.991 147.68 217.982L145.832 217.954V221.23L147.68 221.258ZM162.574 222.07C161.846 222.07 161.193 221.911 160.614 221.594C160.045 221.267 159.597 220.824 159.27 220.264C158.943 219.695 158.78 219.046 158.78 218.318C158.78 217.581 158.943 216.932 159.27 216.372C159.597 215.812 160.045 215.373 160.614 215.056C161.193 214.739 161.846 214.58 162.574 214.58C163.199 214.58 163.764 214.701 164.268 214.944C164.772 215.187 165.169 215.551 165.458 216.036L164.716 216.54C164.464 216.167 164.151 215.891 163.778 215.714C163.405 215.537 162.999 215.448 162.56 215.448C162.037 215.448 161.566 215.569 161.146 215.812C160.726 216.045 160.395 216.377 160.152 216.806C159.909 217.235 159.788 217.739 159.788 218.318C159.788 218.897 159.909 219.401 160.152 219.83C160.395 220.259 160.726 220.595 161.146 220.838C161.566 221.071 162.037 221.188 162.56 221.188C162.999 221.188 163.405 221.099 163.778 220.922C164.151 220.745 164.464 220.474 164.716 220.11L165.458 220.614C165.169 221.09 164.772 221.454 164.268 221.706C163.764 221.949 163.199 222.07 162.574 222.07ZM171.947 222V220.376L171.905 220.11V217.394C171.905 216.769 171.727 216.288 171.373 215.952C171.027 215.616 170.509 215.448 169.819 215.448C169.343 215.448 168.89 215.527 168.461 215.686C168.031 215.845 167.667 216.055 167.369 216.316L166.921 215.574C167.294 215.257 167.742 215.014 168.265 214.846C168.787 214.669 169.338 214.58 169.917 214.58C170.869 214.58 171.601 214.818 172.115 215.294C172.637 215.761 172.899 216.475 172.899 217.436V222H171.947ZM169.413 222.07C168.862 222.07 168.381 221.981 167.971 221.804C167.569 221.617 167.261 221.365 167.047 221.048C166.832 220.721 166.725 220.348 166.725 219.928C166.725 219.545 166.813 219.2 166.991 218.892C167.177 218.575 167.476 218.323 167.887 218.136C168.307 217.94 168.867 217.842 169.567 217.842H172.101V218.584H169.595C168.885 218.584 168.391 218.71 168.111 218.962C167.84 219.214 167.705 219.527 167.705 219.9C167.705 220.32 167.868 220.656 168.195 220.908C168.521 221.16 168.979 221.286 169.567 221.286C170.127 221.286 170.607 221.16 171.009 220.908C171.419 220.647 171.718 220.273 171.905 219.788L172.129 220.474C171.942 220.959 171.615 221.347 171.149 221.636C170.691 221.925 170.113 222.07 169.413 222.07ZM175.545 222V214.65H176.553L179.885 220.292H179.465L182.853 214.65H183.777V222H182.867V215.784L183.049 215.868L179.885 221.104H179.437L176.245 215.812L176.455 215.77V222H175.545ZM189.629 222.07C188.92 222.07 188.281 221.911 187.711 221.594C187.151 221.267 186.708 220.824 186.381 220.264C186.055 219.695 185.891 219.046 185.891 218.318C185.891 217.581 186.055 216.932 186.381 216.372C186.708 215.812 187.151 215.373 187.711 215.056C188.271 214.739 188.911 214.58 189.629 214.58C190.357 214.58 191.001 214.739 191.561 215.056C192.131 215.373 192.574 215.812 192.891 216.372C193.218 216.932 193.381 217.581 193.381 218.318C193.381 219.046 193.218 219.695 192.891 220.264C192.574 220.824 192.131 221.267 191.561 221.594C190.992 221.911 190.348 222.07 189.629 222.07ZM189.629 221.188C190.161 221.188 190.633 221.071 191.043 220.838C191.454 220.595 191.776 220.259 192.009 219.83C192.252 219.391 192.373 218.887 192.373 218.318C192.373 217.739 192.252 217.235 192.009 216.806C191.776 216.377 191.454 216.045 191.043 215.812C190.633 215.569 190.166 215.448 189.643 215.448C189.121 215.448 188.654 215.569 188.243 215.812C187.833 216.045 187.506 216.377 187.263 216.806C187.021 217.235 186.899 217.739 186.899 218.318C186.899 218.887 187.021 219.391 187.263 219.83C187.506 220.259 187.833 220.595 188.243 220.838C188.654 221.071 189.116 221.188 189.629 221.188ZM198.586 222.07C197.858 222.07 197.204 221.911 196.626 221.594C196.056 221.267 195.608 220.824 195.282 220.264C194.955 219.695 194.792 219.046 194.792 218.318C194.792 217.581 194.955 216.932 195.282 216.372C195.608 215.812 196.056 215.373 196.626 215.056C197.204 214.739 197.858 214.58 198.586 214.58C199.211 214.58 199.776 214.701 200.28 214.944C200.784 215.187 201.18 215.551 201.47 216.036L200.728 216.54C200.476 216.167 200.163 215.891 199.79 215.714C199.416 215.537 199.01 215.448 198.572 215.448C198.049 215.448 197.578 215.569 197.158 215.812C196.738 216.045 196.406 216.377 196.164 216.806C195.921 217.235 195.8 217.739 195.8 218.318C195.8 218.897 195.921 219.401 196.164 219.83C196.406 220.259 196.738 220.595 197.158 220.838C197.578 221.071 198.049 221.188 198.572 221.188C199.01 221.188 199.416 221.099 199.79 220.922C200.163 220.745 200.476 220.474 200.728 220.11L201.47 220.614C201.18 221.09 200.784 221.454 200.28 221.706C199.776 221.949 199.211 222.07 198.586 222.07ZM204.658 222V215.252L204.91 215.518H201.872V214.65H208.438V215.518H205.4L205.652 215.252V222H204.658ZM212.557 222.07C211.848 222.07 211.208 221.911 210.639 221.594C210.079 221.267 209.636 220.824 209.309 220.264C208.982 219.695 208.819 219.046 208.819 218.318C208.819 217.581 208.982 216.932 209.309 216.372C209.636 215.812 210.079 215.373 210.639 215.056C211.199 214.739 211.838 214.58 212.557 214.58C213.285 214.58 213.929 214.739 214.489 215.056C215.058 215.373 215.502 215.812 215.819 216.372C216.146 216.932 216.309 217.581 216.309 218.318C216.309 219.046 216.146 219.695 215.819 220.264C215.502 220.824 215.058 221.267 214.489 221.594C213.92 221.911 213.276 222.07 212.557 222.07ZM212.557 221.188C213.089 221.188 213.56 221.071 213.971 220.838C214.382 220.595 214.704 220.259 214.937 219.83C215.18 219.391 215.301 218.887 215.301 218.318C215.301 217.739 215.18 217.235 214.937 216.806C214.704 216.377 214.382 216.045 213.971 215.812C213.56 215.569 213.094 215.448 212.571 215.448C212.048 215.448 211.582 215.569 211.171 215.812C210.76 216.045 210.434 216.377 210.191 216.806C209.948 217.235 209.827 217.739 209.827 218.318C209.827 218.887 209.948 219.391 210.191 219.83C210.434 220.259 210.76 220.595 211.171 220.838C211.582 221.071 212.044 221.188 212.557 221.188ZM222.92 222V219.354L223.102 219.564H220.61C219.667 219.564 218.93 219.359 218.398 218.948C217.866 218.537 217.6 217.94 217.6 217.156C217.6 216.316 217.884 215.691 218.454 215.28C219.023 214.86 219.784 214.65 220.736 214.65H223.83V222H222.92ZM217.544 222L219.56 219.172H220.596L218.622 222H217.544ZM222.92 219.06V215.224L223.102 215.518H220.764C220.082 215.518 219.55 215.649 219.168 215.91C218.794 216.171 218.608 216.596 218.608 217.184C218.608 218.276 219.303 218.822 220.694 218.822H223.102L222.92 219.06ZM228.064 222V215.252L228.316 215.518H225.278V214.65H231.844V215.518H228.806L229.058 215.252V222H228.064ZM236.089 222.07C235.324 222.07 234.652 221.911 234.073 221.594C233.495 221.267 233.042 220.824 232.715 220.264C232.389 219.695 232.225 219.046 232.225 218.318C232.225 217.59 232.379 216.946 232.687 216.386C233.005 215.826 233.434 215.387 233.975 215.07C234.526 214.743 235.142 214.58 235.823 214.58C236.514 214.58 237.125 214.739 237.657 215.056C238.199 215.364 238.623 215.803 238.931 216.372C239.239 216.932 239.393 217.581 239.393 218.318C239.393 218.365 239.389 218.416 239.379 218.472C239.379 218.519 239.379 218.57 239.379 218.626H232.981V217.884H238.847L238.455 218.178C238.455 217.646 238.339 217.175 238.105 216.764C237.881 216.344 237.573 216.017 237.181 215.784C236.789 215.551 236.337 215.434 235.823 215.434C235.319 215.434 234.867 215.551 234.465 215.784C234.064 216.017 233.751 216.344 233.527 216.764C233.303 217.184 233.191 217.665 233.191 218.206V218.36C233.191 218.92 233.313 219.415 233.555 219.844C233.807 220.264 234.153 220.595 234.591 220.838C235.039 221.071 235.548 221.188 236.117 221.188C236.565 221.188 236.981 221.109 237.363 220.95C237.755 220.791 238.091 220.549 238.371 220.222L238.931 220.866C238.605 221.258 238.194 221.557 237.699 221.762C237.214 221.967 236.677 222.07 236.089 222.07ZM240.099 221.986L240.169 221.132C240.235 221.141 240.295 221.155 240.351 221.174C240.417 221.183 240.473 221.188 240.519 221.188C240.818 221.188 241.056 221.076 241.233 220.852C241.42 220.628 241.56 220.329 241.653 219.956C241.747 219.583 241.812 219.163 241.849 218.696C241.887 218.22 241.919 217.744 241.947 217.268L242.073 214.65H247.463V222H246.469V215.224L246.721 215.518H242.717L242.955 215.21L242.843 217.338C242.815 217.973 242.764 218.579 242.689 219.158C242.624 219.737 242.517 220.245 242.367 220.684C242.227 221.123 242.031 221.468 241.779 221.72C241.527 221.963 241.205 222.084 240.813 222.084C240.701 222.084 240.585 222.075 240.463 222.056C240.351 222.037 240.23 222.014 240.099 221.986ZM253.453 217.24C254.377 217.249 255.077 217.455 255.553 217.856C256.038 218.257 256.281 218.836 256.281 219.592C256.281 220.376 256.02 220.978 255.497 221.398C254.984 221.818 254.237 222.023 253.257 222.014L250.289 222V214.65H251.283V217.212L253.453 217.24ZM253.201 221.258C253.882 221.267 254.396 221.132 254.741 220.852C255.096 220.563 255.273 220.143 255.273 219.592C255.273 219.041 255.1 218.64 254.755 218.388C254.41 218.127 253.892 217.991 253.201 217.982L251.283 217.954V221.23L253.201 221.258ZM258.178 222V214.65H259.172V217.898H263.806V214.65H264.8V222H263.806V218.752H259.172V222H258.178ZM270.649 222.07C269.94 222.07 269.3 221.911 268.731 221.594C268.171 221.267 267.728 220.824 267.401 220.264C267.074 219.695 266.911 219.046 266.911 218.318C266.911 217.581 267.074 216.932 267.401 216.372C267.728 215.812 268.171 215.373 268.731 215.056C269.291 214.739 269.93 214.58 270.649 214.58C271.377 214.58 272.021 214.739 272.581 215.056C273.15 215.373 273.594 215.812 273.911 216.372C274.238 216.932 274.401 217.581 274.401 218.318C274.401 219.046 274.238 219.695 273.911 220.264C273.594 220.824 273.15 221.267 272.581 221.594C272.012 221.911 271.368 222.07 270.649 222.07ZM270.649 221.188C271.181 221.188 271.652 221.071 272.063 220.838C272.474 220.595 272.796 220.259 273.029 219.83C273.272 219.391 273.393 218.887 273.393 218.318C273.393 217.739 273.272 217.235 273.029 216.806C272.796 216.377 272.474 216.045 272.063 215.812C271.652 215.569 271.186 215.448 270.663 215.448C270.14 215.448 269.674 215.569 269.263 215.812C268.852 216.045 268.526 216.377 268.283 216.806C268.04 217.235 267.919 217.739 267.919 218.318C267.919 218.887 268.04 219.391 268.283 219.83C268.526 220.259 268.852 220.595 269.263 220.838C269.674 221.071 270.136 221.188 270.649 221.188ZM282.163 222.084C281.631 222.084 281.104 222.009 280.581 221.86C280.059 221.711 279.597 221.482 279.195 221.174L279.517 220.432C279.872 220.693 280.283 220.894 280.749 221.034C281.216 221.165 281.678 221.23 282.135 221.23C282.593 221.221 282.989 221.155 283.325 221.034C283.661 220.913 283.923 220.745 284.109 220.53C284.296 220.315 284.389 220.073 284.389 219.802C284.389 219.41 284.212 219.107 283.857 218.892C283.503 218.668 283.017 218.556 282.401 218.556H281.141V217.828H282.331C282.695 217.828 283.017 217.781 283.297 217.688C283.577 217.595 283.792 217.459 283.941 217.282C284.1 217.105 284.179 216.895 284.179 216.652C284.179 216.391 284.086 216.167 283.899 215.98C283.722 215.793 283.475 215.653 283.157 215.56C282.84 215.467 282.481 215.42 282.079 215.42C281.715 215.429 281.337 215.485 280.945 215.588C280.553 215.681 280.166 215.826 279.783 216.022L279.503 215.252C279.933 215.028 280.357 214.86 280.777 214.748C281.207 214.627 281.636 214.566 282.065 214.566C282.653 214.547 283.181 214.617 283.647 214.776C284.123 214.935 284.501 215.163 284.781 215.462C285.061 215.751 285.201 216.101 285.201 216.512C285.201 216.876 285.089 217.193 284.865 217.464C284.641 217.735 284.343 217.945 283.969 218.094C283.596 218.243 283.171 218.318 282.695 218.318L282.737 218.052C283.577 218.052 284.231 218.215 284.697 218.542C285.173 218.869 285.411 219.312 285.411 219.872C285.411 220.311 285.267 220.698 284.977 221.034C284.688 221.361 284.296 221.617 283.801 221.804C283.316 221.991 282.77 222.084 282.163 222.084ZM292.232 222V220.376L292.19 220.11V217.394C292.19 216.769 292.013 216.288 291.658 215.952C291.313 215.616 290.795 215.448 290.104 215.448C289.628 215.448 289.175 215.527 288.746 215.686C288.317 215.845 287.953 216.055 287.654 216.316L287.206 215.574C287.579 215.257 288.027 215.014 288.55 214.846C289.073 214.669 289.623 214.58 290.202 214.58C291.154 214.58 291.887 214.818 292.4 215.294C292.923 215.761 293.184 216.475 293.184 217.436V222H292.232ZM289.698 222.07C289.147 222.07 288.667 221.981 288.256 221.804C287.855 221.617 287.547 221.365 287.332 221.048C287.117 220.721 287.01 220.348 287.01 219.928C287.01 219.545 287.099 219.2 287.276 218.892C287.463 218.575 287.761 218.323 288.172 218.136C288.592 217.94 289.152 217.842 289.852 217.842H292.386V218.584H289.88C289.171 218.584 288.676 218.71 288.396 218.962C288.125 219.214 287.99 219.527 287.99 219.9C287.99 220.32 288.153 220.656 288.48 220.908C288.807 221.16 289.264 221.286 289.852 221.286C290.412 221.286 290.893 221.16 291.294 220.908C291.705 220.647 292.003 220.273 292.19 219.788L292.414 220.474C292.227 220.959 291.901 221.347 291.434 221.636C290.977 221.925 290.398 222.07 289.698 222.07ZM25.414 244V236.65H32.022V244H31.028V237.252L31.28 237.518H26.156L26.408 237.252V244H25.414ZM39.4116 244V242.376L39.3696 242.11V239.394C39.3696 238.769 39.1923 238.288 38.8376 237.952C38.4923 237.616 37.9743 237.448 37.2836 237.448C36.8076 237.448 36.3549 237.527 35.9256 237.686C35.4963 237.845 35.1323 238.055 34.8336 238.316L34.3856 237.574C34.7589 237.257 35.2069 237.014 35.7296 236.846C36.2523 236.669 36.8029 236.58 37.3816 236.58C38.3336 236.58 39.0663 236.818 39.5796 237.294C40.1023 237.761 40.3636 238.475 40.3636 239.436V244H39.4116ZM36.8776 244.07C36.3269 244.07 35.8463 243.981 35.4356 243.804C35.0343 243.617 34.7263 243.365 34.5116 243.048C34.2969 242.721 34.1896 242.348 34.1896 241.928C34.1896 241.545 34.2783 241.2 34.4556 240.892C34.6423 240.575 34.9409 240.323 35.3516 240.136C35.7716 239.94 36.3316 239.842 37.0316 239.842H39.5656V240.584H37.0596C36.3503 240.584 35.8556 240.71 35.5756 240.962C35.3049 241.214 35.1696 241.527 35.1696 241.9C35.1696 242.32 35.3329 242.656 35.6596 242.908C35.9863 243.16 36.4436 243.286 37.0316 243.286C37.5916 243.286 38.0723 243.16 38.4736 242.908C38.8843 242.647 39.1829 242.273 39.3696 241.788L39.5936 242.474C39.4069 242.959 39.0803 243.347 38.6136 243.636C38.1563 243.925 37.5776 244.07 36.8776 244.07ZM46.8037 244.07C46.169 244.07 45.595 243.925 45.0817 243.636C44.5684 243.337 44.1577 242.913 43.8497 242.362C43.551 241.802 43.4017 241.121 43.4017 240.318C43.4017 239.515 43.551 238.839 43.8497 238.288C44.1484 237.728 44.5544 237.303 45.0677 237.014C45.581 236.725 46.1597 236.58 46.8037 236.58C47.5037 236.58 48.129 236.739 48.6797 237.056C49.2397 237.364 49.6784 237.803 49.9957 238.372C50.313 238.932 50.4717 239.581 50.4717 240.318C50.4717 241.065 50.313 241.718 49.9957 242.278C49.6784 242.838 49.2397 243.277 48.6797 243.594C48.129 243.911 47.5037 244.07 46.8037 244.07ZM43.0097 246.716V236.65H43.9617V238.862L43.8637 240.332L44.0037 241.816V246.716H43.0097ZM46.7337 243.188C47.2564 243.188 47.723 243.071 48.1337 242.838C48.5444 242.595 48.871 242.259 49.1137 241.83C49.3564 241.391 49.4777 240.887 49.4777 240.318C49.4777 239.749 49.3564 239.249 49.1137 238.82C48.871 238.391 48.5444 238.055 48.1337 237.812C47.723 237.569 47.2564 237.448 46.7337 237.448C46.211 237.448 45.7397 237.569 45.3197 237.812C44.909 238.055 44.5824 238.391 44.3397 238.82C44.1064 239.249 43.9897 239.749 43.9897 240.318C43.9897 240.887 44.1064 241.391 44.3397 241.83C44.5824 242.259 44.909 242.595 45.3197 242.838C45.7397 243.071 46.211 243.188 46.7337 243.188ZM52.5283 246.786C52.1829 246.786 51.8516 246.73 51.5343 246.618C51.2263 246.506 50.9603 246.338 50.7363 246.114L51.1983 245.372C51.3849 245.549 51.5856 245.685 51.8003 245.778C52.0243 245.881 52.2716 245.932 52.5423 245.932C52.8689 245.932 53.1489 245.839 53.3823 245.652C53.6249 245.475 53.8536 245.157 54.0683 244.7L54.5443 243.622L54.6563 243.468L57.6803 236.65H58.6603L54.9783 244.882C54.7729 245.358 54.5443 245.736 54.2923 246.016C54.0496 246.296 53.7836 246.492 53.4943 246.604C53.2049 246.725 52.8829 246.786 52.5283 246.786ZM54.4883 244.21L51.1003 236.65H52.1363L55.1323 243.398L54.4883 244.21ZM68.521 240.892C68.0917 241.079 67.6577 241.228 67.219 241.34C66.7897 241.443 66.3603 241.494 65.931 241.494C65.063 241.494 64.377 241.298 63.873 240.906C63.369 240.505 63.117 239.889 63.117 239.058V236.65H64.097V239.002C64.097 239.562 64.279 239.982 64.643 240.262C65.007 240.542 65.497 240.682 66.113 240.682C66.4863 240.682 66.8783 240.635 67.289 240.542C67.6997 240.439 68.115 240.295 68.535 240.108L68.521 240.892ZM68.437 244V236.65H69.431V244H68.437ZM76.8178 244V242.376L76.7758 242.11V239.394C76.7758 238.769 76.5985 238.288 76.2438 237.952C75.8985 237.616 75.3805 237.448 74.6898 237.448C74.2138 237.448 73.7612 237.527 73.3318 237.686C72.9025 237.845 72.5385 238.055 72.2398 238.316L71.7918 237.574C72.1652 237.257 72.6132 237.014 73.1358 236.846C73.6585 236.669 74.2092 236.58 74.7878 236.58C75.7398 236.58 76.4725 236.818 76.9858 237.294C77.5085 237.761 77.7698 238.475 77.7698 239.436V244H76.8178ZM74.2838 244.07C73.7332 244.07 73.2525 243.981 72.8418 243.804C72.4405 243.617 72.1325 243.365 71.9178 243.048C71.7032 242.721 71.5958 242.348 71.5958 241.928C71.5958 241.545 71.6845 241.2 71.8618 240.892C72.0485 240.575 72.3472 240.323 72.7578 240.136C73.1778 239.94 73.7378 239.842 74.4378 239.842H76.9718V240.584H74.4658C73.7565 240.584 73.2618 240.71 72.9818 240.962C72.7112 241.214 72.5758 241.527 72.5758 241.9C72.5758 242.32 72.7392 242.656 73.0658 242.908C73.3925 243.16 73.8498 243.286 74.4378 243.286C74.9978 243.286 75.4785 243.16 75.8798 242.908C76.2905 242.647 76.5892 242.273 76.7758 241.788L76.9998 242.474C76.8132 242.959 76.4865 243.347 76.0198 243.636C75.5625 243.925 74.9838 244.07 74.2838 244.07ZM83.496 244.07C82.768 244.07 82.1146 243.911 81.536 243.594C80.9666 243.267 80.5186 242.824 80.192 242.264C79.8653 241.695 79.702 241.046 79.702 240.318C79.702 239.581 79.8653 238.932 80.192 238.372C80.5186 237.812 80.9666 237.373 81.536 237.056C82.1146 236.739 82.768 236.58 83.496 236.58C84.1213 236.58 84.686 236.701 85.19 236.944C85.694 237.187 86.0906 237.551 86.38 238.036L85.638 238.54C85.386 238.167 85.0733 237.891 84.7 237.714C84.3266 237.537 83.9206 237.448 83.482 237.448C82.9593 237.448 82.488 237.569 82.068 237.812C81.648 238.045 81.3166 238.377 81.074 238.806C80.8313 239.235 80.71 239.739 80.71 240.318C80.71 240.897 80.8313 241.401 81.074 241.83C81.3166 242.259 81.648 242.595 82.068 242.838C82.488 243.071 82.9593 243.188 83.482 243.188C83.9206 243.188 84.3266 243.099 84.7 242.922C85.0733 242.745 85.386 242.474 85.638 242.11L86.38 242.614C86.0906 243.09 85.694 243.454 85.19 243.706C84.686 243.949 84.1213 244.07 83.496 244.07ZM91.2056 244.07C90.4962 244.07 89.8569 243.911 89.2876 243.594C88.7276 243.267 88.2842 242.824 87.9576 242.264C87.6309 241.695 87.4676 241.046 87.4676 240.318C87.4676 239.581 87.6309 238.932 87.9576 238.372C88.2842 237.812 88.7276 237.373 89.2876 237.056C89.8476 236.739 90.4869 236.58 91.2056 236.58C91.9336 236.58 92.5776 236.739 93.1376 237.056C93.7069 237.373 94.1502 237.812 94.4676 238.372C94.7942 238.932 94.9576 239.581 94.9576 240.318C94.9576 241.046 94.7942 241.695 94.4676 242.264C94.1502 242.824 93.7069 243.267 93.1376 243.594C92.5682 243.911 91.9242 244.07 91.2056 244.07ZM91.2056 243.188C91.7376 243.188 92.2089 243.071 92.6196 242.838C93.0302 242.595 93.3522 242.259 93.5856 241.83C93.8282 241.391 93.9496 240.887 93.9496 240.318C93.9496 239.739 93.8282 239.235 93.5856 238.806C93.3522 238.377 93.0302 238.045 92.6196 237.812C92.2089 237.569 91.7422 237.448 91.2196 237.448C90.6969 237.448 90.2302 237.569 89.8196 237.812C89.4089 238.045 89.0822 238.377 88.8396 238.806C88.5969 239.235 88.4756 239.739 88.4756 240.318C88.4756 240.887 88.5969 241.391 88.8396 241.83C89.0822 242.259 89.4089 242.595 89.8196 242.838C90.2302 243.071 90.6922 243.188 91.2056 243.188ZM97.082 244V236.65H100.33C101.161 236.65 101.814 236.809 102.29 237.126C102.775 237.443 103.018 237.91 103.018 238.526C103.018 239.123 102.789 239.585 102.332 239.912C101.875 240.229 101.273 240.388 100.526 240.388L100.722 240.094C101.599 240.094 102.243 240.257 102.654 240.584C103.065 240.911 103.27 241.382 103.27 241.998C103.27 242.633 103.037 243.127 102.57 243.482C102.113 243.827 101.399 244 100.428 244H97.082ZM98.048 243.216H100.386C101.011 243.216 101.483 243.118 101.8 242.922C102.127 242.717 102.29 242.39 102.29 241.942C102.29 241.494 102.145 241.167 101.856 240.962C101.567 240.757 101.109 240.654 100.484 240.654H98.048V243.216ZM98.048 239.912H100.26C100.829 239.912 101.263 239.805 101.562 239.59C101.87 239.375 102.024 239.063 102.024 238.652C102.024 238.241 101.87 237.933 101.562 237.728C101.263 237.523 100.829 237.42 100.26 237.42H98.048V239.912Z" fill="white"/>
<rect width="280" height="56" transform="translate(24 282)" fill="white"/>
<path d="M138.5 313V314.2C138.5 315.88 138.5 316.72 138.173 317.362C137.885 317.926 137.426 318.385 136.862 318.673C136.22 319 135.38 319 133.7 319H125.3C123.62 319 122.78 319 122.138 318.673C121.574 318.385 121.115 317.926 120.827 317.362C120.5 316.72 120.5 315.88 120.5 314.2V313M134.5 308L129.5 313M129.5 313L124.5 308M129.5 313V301" stroke="#29A1F8" stroke-width="2" stroke-linecap="round" stroke-linejoin="round"/>
<path d="M157.408 315.112C156.661 315.112 155.971 314.991 155.336 314.748C154.711 314.496 154.165 314.146 153.698 313.698C153.241 313.241 152.881 312.709 152.62 312.102C152.359 311.495 152.228 310.828 152.228 310.1C152.228 309.372 152.359 308.705 152.62 308.098C152.881 307.491 153.245 306.964 153.712 306.516C154.179 306.059 154.725 305.709 155.35 305.466C155.985 305.214 156.675 305.088 157.422 305.088C158.178 305.088 158.873 305.219 159.508 305.48C160.152 305.732 160.698 306.11 161.146 306.614L160.236 307.496C159.863 307.104 159.443 306.815 158.976 306.628C158.509 306.432 158.01 306.334 157.478 306.334C156.927 306.334 156.414 306.427 155.938 306.614C155.471 306.801 155.065 307.062 154.72 307.398C154.375 307.734 154.104 308.135 153.908 308.602C153.721 309.059 153.628 309.559 153.628 310.1C153.628 310.641 153.721 311.145 153.908 311.612C154.104 312.069 154.375 312.466 154.72 312.802C155.065 313.138 155.471 313.399 155.938 313.586C156.414 313.773 156.927 313.866 157.478 313.866C158.01 313.866 158.509 313.773 158.976 313.586C159.443 313.39 159.863 313.091 160.236 312.69L161.146 313.572C160.698 314.076 160.152 314.459 159.508 314.72C158.873 314.981 158.173 315.112 157.408 315.112ZM168.227 315L165.357 311.388L166.463 310.716L169.809 315H168.227ZM162.851 315V307.58H164.195V315H162.851ZM163.789 311.864V310.716H166.239V311.864H163.789ZM166.575 311.444L165.329 311.276L168.171 307.58H169.613L166.575 311.444ZM175.631 315V313.432L175.561 313.138V310.464C175.561 309.895 175.393 309.456 175.057 309.148C174.731 308.831 174.236 308.672 173.573 308.672C173.135 308.672 172.705 308.747 172.285 308.896C171.865 309.036 171.511 309.227 171.221 309.47L170.661 308.462C171.044 308.154 171.501 307.921 172.033 307.762C172.575 307.594 173.139 307.51 173.727 307.51C174.745 307.51 175.529 307.757 176.079 308.252C176.63 308.747 176.905 309.503 176.905 310.52V315H175.631ZM173.195 315.084C172.645 315.084 172.159 314.991 171.739 314.804C171.329 314.617 171.011 314.361 170.787 314.034C170.563 313.698 170.451 313.32 170.451 312.9C170.451 312.499 170.545 312.135 170.731 311.808C170.927 311.481 171.24 311.22 171.669 311.024C172.108 310.828 172.696 310.73 173.433 310.73H175.785V311.696H173.489C172.817 311.696 172.365 311.808 172.131 312.032C171.898 312.256 171.781 312.527 171.781 312.844C171.781 313.208 171.926 313.502 172.215 313.726C172.505 313.941 172.906 314.048 173.419 314.048C173.923 314.048 174.362 313.936 174.735 313.712C175.118 313.488 175.393 313.161 175.561 312.732L175.827 313.656C175.65 314.095 175.337 314.445 174.889 314.706C174.441 314.958 173.877 315.084 173.195 315.084ZM184.001 311.962C183.609 312.149 183.203 312.298 182.783 312.41C182.373 312.513 181.948 312.564 181.509 312.564C180.613 312.564 179.904 312.354 179.381 311.934C178.868 311.514 178.611 310.865 178.611 309.988V307.58H179.955V309.904C179.955 310.436 180.119 310.828 180.445 311.08C180.781 311.332 181.229 311.458 181.789 311.458C182.144 311.458 182.508 311.411 182.881 311.318C183.264 311.225 183.637 311.094 184.001 310.926V311.962ZM183.903 315V307.58H185.247V315H183.903ZM192.407 315V313.432L192.337 313.138V310.464C192.337 309.895 192.169 309.456 191.833 309.148C191.506 308.831 191.011 308.672 190.349 308.672C189.91 308.672 189.481 308.747 189.061 308.896C188.641 309.036 188.286 309.227 187.997 309.47L187.437 308.462C187.819 308.154 188.277 307.921 188.809 307.762C189.35 307.594 189.915 307.51 190.503 307.51C191.52 307.51 192.304 307.757 192.855 308.252C193.405 308.747 193.681 309.503 193.681 310.52V315H192.407ZM189.971 315.084C189.42 315.084 188.935 314.991 188.515 314.804C188.104 314.617 187.787 314.361 187.563 314.034C187.339 313.698 187.227 313.32 187.227 312.9C187.227 312.499 187.32 312.135 187.507 311.808C187.703 311.481 188.015 311.22 188.445 311.024C188.883 310.828 189.471 310.73 190.209 310.73H192.561V311.696H190.265C189.593 311.696 189.14 311.808 188.907 312.032C188.673 312.256 188.557 312.527 188.557 312.844C188.557 313.208 188.701 313.502 188.991 313.726C189.28 313.941 189.681 314.048 190.195 314.048C190.699 314.048 191.137 313.936 191.511 313.712C191.893 313.488 192.169 313.161 192.337 312.732L192.603 313.656C192.425 314.095 192.113 314.445 191.665 314.706C191.217 314.958 190.652 315.084 189.971 315.084ZM197.571 315V308.406L197.907 308.756H194.855V307.58H201.631V308.756H198.593L198.915 308.406V315H197.571ZM206.435 310.1C207.378 310.109 208.096 310.324 208.591 310.744C209.086 311.164 209.333 311.757 209.333 312.522C209.333 313.325 209.062 313.945 208.521 314.384C207.98 314.813 207.214 315.023 206.225 315.014L203.005 315V307.58H204.349V310.086L206.435 310.1ZM206.113 313.992C206.72 314.001 207.177 313.88 207.485 313.628C207.802 313.376 207.961 313.003 207.961 312.508C207.961 312.023 207.807 311.668 207.499 311.444C207.191 311.22 206.729 311.103 206.113 311.094L204.349 311.066V313.978L206.113 313.992Z" fill="#141414"/>
</svg>
