<svg width="708" height="308" viewBox="0 0 708 308" fill="none" xmlns="http://www.w3.org/2000/svg">
<rect width="708" height="308" fill="#29A1F8"/>
<path d="M42.262 65V46.8H58.85V65H54.664V49.27L55.626 50.232H45.486L46.448 49.27V65H42.262ZM69.6016 65.208C68.1109 65.208 66.7849 64.896 65.6236 64.272C64.4796 63.648 63.5696 62.7987 62.8936 61.724C62.2349 60.632 61.9056 59.3927 61.9056 58.006C61.9056 56.602 62.2349 55.3627 62.8936 54.288C63.5696 53.196 64.4796 52.3467 65.6236 51.74C66.7849 51.116 68.1109 50.804 69.6016 50.804C71.0749 50.804 72.3923 51.116 73.5536 51.74C74.7149 52.3467 75.6249 53.1873 76.2836 54.262C76.9423 55.3367 77.2716 56.5847 77.2716 58.006C77.2716 59.3927 76.9423 60.632 76.2836 61.724C75.6249 62.7987 74.7149 63.648 73.5536 64.272C72.3923 64.896 71.0749 65.208 69.6016 65.208ZM69.6016 61.88C70.2776 61.88 70.8843 61.724 71.4216 61.412C71.9589 61.1 72.3836 60.658 72.6956 60.086C73.0076 59.4967 73.1636 58.8033 73.1636 58.006C73.1636 57.1913 73.0076 56.498 72.6956 55.926C72.3836 55.354 71.9589 54.912 71.4216 54.6C70.8843 54.288 70.2776 54.132 69.6016 54.132C68.9256 54.132 68.3189 54.288 67.7816 54.6C67.2443 54.912 66.8109 55.354 66.4816 55.926C66.1696 56.498 66.0136 57.1913 66.0136 58.006C66.0136 58.8033 66.1696 59.4967 66.4816 60.086C66.8109 60.658 67.2443 61.1 67.7816 61.412C68.3189 61.724 68.9256 61.88 69.6016 61.88ZM89.4782 63.18V54.34H84.9022L84.8242 56.134C84.7895 56.8793 84.7462 57.59 84.6942 58.266C84.6422 58.942 84.5382 59.5573 84.3822 60.112C84.2435 60.6493 84.0355 61.1087 83.7582 61.49C83.4809 61.854 83.1082 62.1053 82.6402 62.244L78.6362 61.672C79.1389 61.672 79.5462 61.5247 79.8582 61.23C80.1702 60.918 80.4129 60.4933 80.5862 59.956C80.7595 59.4013 80.8895 58.7773 80.9762 58.084C81.0629 57.3733 81.1235 56.628 81.1582 55.848L81.3402 51.012H93.5342V63.18H89.4782ZM78.1682 68.016V61.672H95.5362V68.016H91.7662V65H81.9382V68.016H78.1682ZM106.331 65.208C105.152 65.208 104.121 64.948 103.237 64.428C102.353 63.908 101.659 63.1193 101.157 62.062C100.671 60.9873 100.429 59.6353 100.429 58.006C100.429 56.3593 100.663 55.0073 101.131 53.95C101.599 52.8927 102.275 52.104 103.159 51.584C104.043 51.064 105.1 50.804 106.331 50.804C107.648 50.804 108.827 51.1073 109.867 51.714C110.924 52.3033 111.756 53.1353 112.363 54.21C112.987 55.2847 113.299 56.55 113.299 58.006C113.299 59.4793 112.987 60.7533 112.363 61.828C111.756 62.9027 110.924 63.7347 109.867 64.324C108.827 64.9133 107.648 65.208 106.331 65.208ZM98.0627 70.044V51.012H101.937V53.872L101.859 58.032L102.119 62.166V70.044H98.0627ZM105.629 61.88C106.305 61.88 106.903 61.724 107.423 61.412C107.96 61.1 108.385 60.658 108.697 60.086C109.026 59.4967 109.191 58.8033 109.191 58.006C109.191 57.1913 109.026 56.498 108.697 55.926C108.385 55.354 107.96 54.912 107.423 54.6C106.903 54.288 106.305 54.132 105.629 54.132C104.953 54.132 104.346 54.288 103.809 54.6C103.271 54.912 102.847 55.354 102.535 55.926C102.223 56.498 102.067 57.1913 102.067 58.006C102.067 58.8033 102.223 59.4967 102.535 60.086C102.847 60.658 103.271 61.1 103.809 61.412C104.346 61.724 104.953 61.88 105.629 61.88ZM122.693 65.208C121.203 65.208 119.877 64.896 118.715 64.272C117.571 63.648 116.661 62.7987 115.985 61.724C115.327 60.632 114.997 59.3927 114.997 58.006C114.997 56.602 115.327 55.3627 115.985 54.288C116.661 53.196 117.571 52.3467 118.715 51.74C119.877 51.116 121.203 50.804 122.693 50.804C124.167 50.804 125.484 51.116 126.645 51.74C127.807 52.3467 128.717 53.1873 129.375 54.262C130.034 55.3367 130.363 56.5847 130.363 58.006C130.363 59.3927 130.034 60.632 129.375 61.724C128.717 62.7987 127.807 63.648 126.645 64.272C125.484 64.896 124.167 65.208 122.693 65.208ZM122.693 61.88C123.369 61.88 123.976 61.724 124.513 61.412C125.051 61.1 125.475 60.658 125.787 60.086C126.099 59.4967 126.255 58.8033 126.255 58.006C126.255 57.1913 126.099 56.498 125.787 55.926C125.475 55.354 125.051 54.912 124.513 54.6C123.976 54.288 123.369 54.132 122.693 54.132C122.017 54.132 121.411 54.288 120.873 54.6C120.336 54.912 119.903 55.354 119.573 55.926C119.261 56.498 119.105 57.1913 119.105 58.006C119.105 58.8033 119.261 59.4967 119.573 60.086C119.903 60.658 120.336 61.1 120.873 61.412C121.411 61.724 122.017 61.88 122.693 61.88ZM140.095 65.312C138.951 65.312 137.911 65.1473 136.975 64.818C136.039 64.4713 135.224 63.9427 134.531 63.232C133.855 62.504 133.326 61.5767 132.945 60.45C132.581 59.3233 132.399 57.98 132.399 56.42C132.399 55.3107 132.494 54.2967 132.685 53.378C132.876 52.4593 133.162 51.6273 133.543 50.882C133.924 50.1193 134.41 49.452 134.999 48.88C135.606 48.2907 136.308 47.8053 137.105 47.424C137.92 47.0253 138.838 46.722 139.861 46.514L146.517 45.188L147.063 48.672L141.187 49.842C140.84 49.9113 140.442 50.0067 139.991 50.128C139.558 50.232 139.116 50.3967 138.665 50.622C138.232 50.8473 137.824 51.168 137.443 51.584C137.079 51.9827 136.784 52.5113 136.559 53.17C136.334 53.8113 136.221 54.6087 136.221 55.562C136.221 55.8567 136.23 56.082 136.247 56.238C136.282 56.394 136.308 56.5587 136.325 56.732C136.36 56.9053 136.377 57.174 136.377 57.538L135.077 56.264C135.458 55.4493 135.944 54.756 136.533 54.184C137.14 53.612 137.833 53.1787 138.613 52.884C139.41 52.572 140.294 52.416 141.265 52.416C142.582 52.416 143.735 52.6847 144.723 53.222C145.728 53.742 146.508 54.4787 147.063 55.432C147.618 56.3853 147.895 57.4687 147.895 58.682C147.895 59.9993 147.566 61.1607 146.907 62.166C146.248 63.154 145.33 63.9253 144.151 64.48C142.99 65.0347 141.638 65.312 140.095 65.312ZM140.303 62.166C140.979 62.166 141.577 62.0187 142.097 61.724C142.617 61.412 143.016 61.0047 143.293 60.502C143.588 59.982 143.735 59.4013 143.735 58.76C143.735 58.136 143.588 57.5813 143.293 57.096C143.016 56.6107 142.617 56.2293 142.097 55.952C141.577 55.6747 140.97 55.536 140.277 55.536C139.601 55.536 138.994 55.6747 138.457 55.952C137.92 56.212 137.504 56.576 137.209 57.044C136.914 57.512 136.767 58.058 136.767 58.682C136.767 59.3233 136.914 59.9127 137.209 60.45C137.521 60.97 137.937 61.386 138.457 61.698C138.994 62.01 139.61 62.166 140.303 62.166ZM150.647 65V51.012H154.677V56.472H160.761V51.012H164.817V65H160.761V59.774H154.677V65H150.647ZM177.072 65V62.27L176.812 61.672V56.784C176.812 55.9173 176.543 55.2413 176.006 54.756C175.486 54.2707 174.68 54.028 173.588 54.028C172.843 54.028 172.106 54.1493 171.378 54.392C170.667 54.6173 170.061 54.9293 169.558 55.328L168.102 52.494C168.865 51.9567 169.783 51.5407 170.858 51.246C171.933 50.9513 173.025 50.804 174.134 50.804C176.266 50.804 177.921 51.3067 179.1 52.312C180.279 53.3173 180.868 54.886 180.868 57.018V65H177.072ZM172.808 65.208C171.716 65.208 170.78 65.026 170 64.662C169.22 64.2807 168.622 63.7693 168.206 63.128C167.79 62.4867 167.582 61.7673 167.582 60.97C167.582 60.138 167.781 59.41 168.18 58.786C168.596 58.162 169.246 57.6767 170.13 57.33C171.014 56.966 172.167 56.784 173.588 56.784H177.306V59.15H174.03C173.077 59.15 172.418 59.306 172.054 59.618C171.707 59.93 171.534 60.32 171.534 60.788C171.534 61.308 171.733 61.724 172.132 62.036C172.548 62.3307 173.111 62.478 173.822 62.478C174.498 62.478 175.105 62.322 175.642 62.01C176.179 61.6807 176.569 61.204 176.812 60.58L177.436 62.452C177.141 63.3533 176.604 64.038 175.824 64.506C175.044 64.974 174.039 65.208 172.808 65.208ZM193.205 65V60.346L193.777 60.996H189.903C187.893 60.996 186.315 60.58 185.171 59.748C184.027 58.916 183.455 57.72 183.455 56.16C183.455 54.496 184.053 53.222 185.249 52.338C186.463 51.454 188.092 51.012 190.137 51.012H196.819V65H193.205ZM183.247 65L186.965 59.67H191.099L187.563 65H183.247ZM193.205 59.098V53.274L193.777 54.314H190.215C189.383 54.314 188.733 54.47 188.265 54.782C187.815 55.094 187.589 55.5967 187.589 56.29C187.589 57.6247 188.447 58.292 190.163 58.292H193.777L193.205 59.098ZM208.081 65V51.012H212.111V59.332L218.923 51.012H222.641V65H218.611V56.68L211.825 65H208.081ZM226.54 65V51.012H230.57V56.472H236.654V51.012H240.71V65H236.654V59.774H230.57V65H226.54ZM251.249 65.208C249.741 65.208 248.397 64.9047 247.219 64.298C246.04 63.674 245.113 62.816 244.437 61.724C243.778 60.632 243.449 59.3927 243.449 58.006C243.449 56.602 243.778 55.3627 244.437 54.288C245.113 53.196 246.04 52.3467 247.219 51.74C248.397 51.116 249.741 50.804 251.249 50.804C252.722 50.804 254.005 51.116 255.097 51.74C256.189 52.3467 256.995 53.222 257.515 54.366L254.369 56.056C254.005 55.3973 253.545 54.912 252.991 54.6C252.453 54.288 251.864 54.132 251.223 54.132C250.529 54.132 249.905 54.288 249.351 54.6C248.796 54.912 248.354 55.354 248.025 55.926C247.713 56.498 247.557 57.1913 247.557 58.006C247.557 58.8207 247.713 59.514 248.025 60.086C248.354 60.658 248.796 61.1 249.351 61.412C249.905 61.724 250.529 61.88 251.223 61.88C251.864 61.88 252.453 61.7327 252.991 61.438C253.545 61.126 254.005 60.632 254.369 59.956L257.515 61.672C256.995 62.7987 256.189 63.674 255.097 64.298C254.005 64.9047 252.722 65.208 251.249 65.208ZM262.944 65V53.404L263.854 54.34H258.212V51.012H271.706V54.34H266.064L266.974 53.404V65H262.944ZM282.11 65.208C280.931 65.208 279.9 64.948 279.016 64.428C278.132 63.908 277.439 63.1193 276.936 62.062C276.451 60.9873 276.208 59.6353 276.208 58.006C276.208 56.3593 276.442 55.0073 276.91 53.95C277.378 52.8927 278.054 52.104 278.938 51.584C279.822 51.064 280.879 50.804 282.11 50.804C283.427 50.804 284.606 51.1073 285.646 51.714C286.703 52.3033 287.535 53.1353 288.142 54.21C288.766 55.2847 289.078 56.55 289.078 58.006C289.078 59.4793 288.766 60.7533 288.142 61.828C287.535 62.9027 286.703 63.7347 285.646 64.324C284.606 64.9133 283.427 65.208 282.11 65.208ZM273.842 70.044V51.012H277.716V53.872L277.638 58.032L277.898 62.166V70.044H273.842ZM281.408 61.88C282.084 61.88 282.682 61.724 283.202 61.412C283.739 61.1 284.164 60.658 284.476 60.086C284.805 59.4967 284.97 58.8033 284.97 58.006C284.97 57.1913 284.805 56.498 284.476 55.926C284.164 55.354 283.739 54.912 283.202 54.6C282.682 54.288 282.084 54.132 281.408 54.132C280.732 54.132 280.125 54.288 279.588 54.6C279.051 54.912 278.626 55.354 278.314 55.926C278.002 56.498 277.846 57.1913 277.846 58.006C277.846 58.8033 278.002 59.4967 278.314 60.086C278.626 60.658 279.051 61.1 279.588 61.412C280.125 61.724 280.732 61.88 281.408 61.88ZM293.438 70.252C292.71 70.252 291.991 70.1393 291.28 69.914C290.569 69.6887 289.989 69.3767 289.538 68.978L291.02 66.092C291.332 66.3693 291.687 66.586 292.086 66.742C292.502 66.898 292.909 66.976 293.308 66.976C293.88 66.976 294.331 66.8373 294.66 66.56C295.007 66.3 295.319 65.858 295.596 65.234L296.324 63.518L296.636 63.076L301.654 51.012H305.554L299.236 65.858C298.785 66.9847 298.265 67.8687 297.676 68.51C297.104 69.1513 296.463 69.602 295.752 69.862C295.059 70.122 294.287 70.252 293.438 70.252ZM295.83 65.546L289.59 51.012H293.776L298.612 62.712L295.83 65.546ZM317.417 65L312.737 58.37L316.039 56.42L322.201 65H317.417ZM307.511 65V51.012H311.567V65H307.511ZM310.371 59.696V56.446H315.259V59.696H310.371ZM316.429 58.474L312.633 58.058L317.547 51.012H321.863L316.429 58.474ZM324.192 65V51.012H328.222V61.672H333.864V51.012H337.92V65H324.192ZM336.178 68.016V64.948L337.114 65H333.864V61.672H339.948V68.016H336.178ZM342.499 65V51.012H346.529V59.332L353.341 51.012H357.059V65H353.029V56.68L346.243 65H342.499ZM369.772 65V60.346L370.344 60.996H366.47C364.459 60.996 362.882 60.58 361.738 59.748C360.594 58.916 360.022 57.72 360.022 56.16C360.022 54.496 360.62 53.222 361.816 52.338C363.029 51.454 364.658 51.012 366.704 51.012H373.386V65H369.772ZM359.814 65L363.532 59.67H367.666L364.13 65H359.814ZM369.772 59.098V53.274L370.344 54.314H366.782C365.95 54.314 365.3 54.47 364.832 54.782C364.381 55.094 364.156 55.5967 364.156 56.29C364.156 57.6247 365.014 58.292 366.73 58.292H370.344L369.772 59.098ZM43.848 102.252C43.12 102.252 42.4007 102.139 41.69 101.914C40.9793 101.689 40.3987 101.377 39.948 100.978L41.43 98.092C41.742 98.3693 42.0973 98.586 42.496 98.742C42.912 98.898 43.3193 98.976 43.718 98.976C44.29 98.976 44.7407 98.8373 45.07 98.56C45.4167 98.3 45.7287 97.858 46.006 97.234L46.734 95.518L47.046 95.076L52.064 83.012H55.964L49.646 97.858C49.1953 98.9847 48.6753 99.8687 48.086 100.51C47.514 101.151 46.8727 101.602 46.162 101.862C45.4687 102.122 44.6973 102.252 43.848 102.252ZM46.24 97.546L40 83.012H44.186L49.022 94.712L46.24 97.546ZM64.1958 97.208C62.6878 97.208 61.3445 96.9047 60.1658 96.298C58.9872 95.674 58.0598 94.816 57.3838 93.724C56.7252 92.632 56.3958 91.3927 56.3958 90.006C56.3958 88.602 56.7252 87.3627 57.3838 86.288C58.0598 85.196 58.9872 84.3467 60.1658 83.74C61.3445 83.116 62.6878 82.804 64.1958 82.804C65.6692 82.804 66.9518 83.116 68.0438 83.74C69.1358 84.3467 69.9418 85.222 70.4618 86.366L67.3158 88.056C66.9518 87.3973 66.4925 86.912 65.9378 86.6C65.4005 86.288 64.8112 86.132 64.1698 86.132C63.4765 86.132 62.8525 86.288 62.2978 86.6C61.7432 86.912 61.3012 87.354 60.9718 87.926C60.6598 88.498 60.5038 89.1913 60.5038 90.006C60.5038 90.8207 60.6598 91.514 60.9718 92.086C61.3012 92.658 61.7432 93.1 62.2978 93.412C62.8525 93.724 63.4765 93.88 64.1698 93.88C64.8112 93.88 65.4005 93.7327 65.9378 93.438C66.4925 93.126 66.9518 92.632 67.3158 91.956L70.4618 93.672C69.9418 94.7987 69.1358 95.674 68.0438 96.298C66.9518 96.9047 65.6692 97.208 64.1958 97.208ZM75.8912 97V85.404L76.8012 86.34H71.1592V83.012H84.6532V86.34H79.0112L79.9212 85.404V97H75.8912ZM95.1872 97V94.27L94.9272 93.672V88.784C94.9272 87.9173 94.6586 87.2413 94.1212 86.756C93.6012 86.2707 92.7952 86.028 91.7032 86.028C90.9579 86.028 90.2212 86.1493 89.4932 86.392C88.7826 86.6173 88.1759 86.9293 87.6732 87.328L86.2172 84.494C86.9799 83.9567 87.8986 83.5407 88.9732 83.246C90.0479 82.9513 91.1399 82.804 92.2492 82.804C94.3812 82.804 96.0366 83.3067 97.2152 84.312C98.3939 85.3173 98.9832 86.886 98.9832 89.018V97H95.1872ZM90.9232 97.208C89.8312 97.208 88.8952 97.026 88.1152 96.662C87.3352 96.2807 86.7372 95.7693 86.3212 95.128C85.9052 94.4867 85.6972 93.7673 85.6972 92.97C85.6972 92.138 85.8966 91.41 86.2952 90.786C86.7112 90.162 87.3612 89.6767 88.2452 89.33C89.1292 88.966 90.2819 88.784 91.7032 88.784H95.4212V91.15H92.1452C91.1919 91.15 90.5332 91.306 90.1692 91.618C89.8226 91.93 89.6492 92.32 89.6492 92.788C89.6492 93.308 89.8486 93.724 90.2472 94.036C90.6632 94.3307 91.2266 94.478 91.9372 94.478C92.6132 94.478 93.2199 94.322 93.7572 94.01C94.2946 93.6807 94.6846 93.204 94.9272 92.58L95.5512 94.452C95.2566 95.3533 94.7192 96.038 93.9392 96.506C93.1592 96.974 92.1539 97.208 90.9232 97.208ZM102.507 97V83.012H106.537V88.472H112.621V83.012H116.677V97H112.621V91.774H106.537V97H102.507ZM127.111 97.208C125.621 97.208 124.295 96.896 123.133 96.272C121.989 95.648 121.079 94.7987 120.403 93.724C119.745 92.632 119.415 91.3927 119.415 90.006C119.415 88.602 119.745 87.3627 120.403 86.288C121.079 85.196 121.989 84.3467 123.133 83.74C124.295 83.116 125.621 82.804 127.111 82.804C128.585 82.804 129.902 83.116 131.063 83.74C132.225 84.3467 133.135 85.1873 133.793 86.262C134.452 87.3367 134.781 88.5847 134.781 90.006C134.781 91.3927 134.452 92.632 133.793 93.724C133.135 94.7987 132.225 95.648 131.063 96.272C129.902 96.896 128.585 97.208 127.111 97.208ZM127.111 93.88C127.787 93.88 128.394 93.724 128.931 93.412C129.469 93.1 129.893 92.658 130.205 92.086C130.517 91.4967 130.673 90.8033 130.673 90.006C130.673 89.1913 130.517 88.498 130.205 87.926C129.893 87.354 129.469 86.912 128.931 86.6C128.394 86.288 127.787 86.132 127.111 86.132C126.435 86.132 125.829 86.288 125.291 86.6C124.754 86.912 124.321 87.354 123.991 87.926C123.679 88.498 123.523 89.1913 123.523 90.006C123.523 90.8033 123.679 91.4967 123.991 92.086C124.321 92.658 124.754 93.1 125.291 93.412C125.829 93.724 126.435 93.88 127.111 93.88ZM137.571 97V83.012H144.721C146.472 83.012 147.841 83.3327 148.829 83.974C149.817 84.598 150.311 85.482 150.311 86.626C150.311 87.77 149.843 88.6713 148.907 89.33C147.988 89.9713 146.766 90.292 145.241 90.292L145.657 89.356C147.356 89.356 148.621 89.668 149.453 90.292C150.302 90.916 150.727 91.826 150.727 93.022C150.727 94.2527 150.259 95.2233 149.323 95.934C148.387 96.6447 146.957 97 145.033 97H137.571ZM141.289 94.244H144.695C145.44 94.244 145.995 94.1227 146.359 93.88C146.74 93.62 146.931 93.23 146.931 92.71C146.931 92.1727 146.758 91.7827 146.411 91.54C146.064 91.28 145.518 91.15 144.773 91.15H141.289V94.244ZM141.289 88.758H144.357C145.068 88.758 145.596 88.628 145.943 88.368C146.307 88.108 146.489 87.7353 146.489 87.25C146.489 86.7473 146.307 86.3747 145.943 86.132C145.596 85.8893 145.068 85.768 144.357 85.768H141.289V88.758ZM163.651 97L158.971 90.37L162.273 88.42L168.435 97H163.651ZM153.745 97V83.012H157.801V97H153.745ZM156.605 91.696V88.446H161.493V91.696H156.605ZM162.663 90.474L158.867 90.058L163.781 83.012H168.097L162.663 90.474ZM170.427 97V83.012H174.457V91.332L181.269 83.012H184.987V97H180.957V88.68L174.171 97H170.427Z" fill="white"/>
<path d="M41.484 135.034C41.96 135.221 42.408 135.267 42.828 135.174C43.248 135.071 43.6353 134.74 43.99 134.18L44.466 133.424L44.564 133.298L48.316 126.2H49.352L44.9 134.404C44.6013 134.973 44.2467 135.398 43.836 135.678C43.4347 135.958 43.0053 136.107 42.548 136.126C42.1 136.145 41.6473 136.061 41.19 135.874L41.484 135.034ZM44.536 134.236L40.294 126.2H41.4L45.096 133.382L44.536 134.236ZM53.244 136.07C52.516 136.07 51.8627 135.911 51.284 135.594C50.7147 135.267 50.2667 134.824 49.94 134.264C49.6133 133.695 49.45 133.046 49.45 132.318C49.45 131.581 49.6133 130.932 49.94 130.372C50.2667 129.812 50.7147 129.373 51.284 129.056C51.8627 128.739 52.516 128.58 53.244 128.58C53.8693 128.58 54.434 128.701 54.938 128.944C55.442 129.187 55.8387 129.551 56.128 130.036L55.386 130.54C55.134 130.167 54.8213 129.891 54.448 129.714C54.0747 129.537 53.6687 129.448 53.23 129.448C52.7073 129.448 52.236 129.569 51.816 129.812C51.396 130.045 51.0647 130.377 50.822 130.806C50.5793 131.235 50.458 131.739 50.458 132.318C50.458 132.897 50.5793 133.401 50.822 133.83C51.0647 134.259 51.396 134.595 51.816 134.838C52.236 135.071 52.7073 135.188 53.23 135.188C53.6687 135.188 54.0747 135.099 54.448 134.922C54.8213 134.745 55.134 134.474 55.386 134.11L56.128 134.614C55.8387 135.09 55.442 135.454 54.938 135.706C54.434 135.949 53.8693 136.07 53.244 136.07ZM59.316 136V129.252L59.568 129.518H56.53V128.65H63.096V129.518H60.058L60.31 129.252V136H59.316ZM69.0971 136V134.376L69.0551 134.11V131.394C69.0551 130.769 68.8778 130.288 68.5231 129.952C68.1778 129.616 67.6598 129.448 66.9691 129.448C66.4931 129.448 66.0405 129.527 65.6111 129.686C65.1818 129.845 64.8178 130.055 64.5191 130.316L64.0711 129.574C64.4445 129.257 64.8925 129.014 65.4151 128.846C65.9378 128.669 66.4885 128.58 67.0671 128.58C68.0191 128.58 68.7518 128.818 69.2651 129.294C69.7878 129.761 70.0491 130.475 70.0491 131.436V136H69.0971ZM66.5631 136.07C66.0125 136.07 65.5318 135.981 65.1211 135.804C64.7198 135.617 64.4118 135.365 64.1971 135.048C63.9825 134.721 63.8751 134.348 63.8751 133.928C63.8751 133.545 63.9638 133.2 64.1411 132.892C64.3278 132.575 64.6265 132.323 65.0371 132.136C65.4571 131.94 66.0171 131.842 66.7171 131.842H69.2511V132.584H66.7451C66.0358 132.584 65.5411 132.71 65.2611 132.962C64.9905 133.214 64.8551 133.527 64.8551 133.9C64.8551 134.32 65.0185 134.656 65.3451 134.908C65.6718 135.16 66.1291 135.286 66.7171 135.286C67.2771 135.286 67.7578 135.16 68.1591 134.908C68.5698 134.647 68.8685 134.273 69.0551 133.788L69.2791 134.474C69.0925 134.959 68.7658 135.347 68.2991 135.636C67.8418 135.925 67.2631 136.07 66.5631 136.07ZM72.6953 136V128.65H73.6893V131.898H78.3233V128.65H79.3173V136H78.3233V132.752H73.6893V136H72.6953ZM85.1665 136.07C84.4572 136.07 83.8178 135.911 83.2485 135.594C82.6885 135.267 82.2452 134.824 81.9185 134.264C81.5918 133.695 81.4285 133.046 81.4285 132.318C81.4285 131.581 81.5918 130.932 81.9185 130.372C82.2452 129.812 82.6885 129.373 83.2485 129.056C83.8085 128.739 84.4478 128.58 85.1665 128.58C85.8945 128.58 86.5385 128.739 87.0985 129.056C87.6678 129.373 88.1112 129.812 88.4285 130.372C88.7552 130.932 88.9185 131.581 88.9185 132.318C88.9185 133.046 88.7552 133.695 88.4285 134.264C88.1112 134.824 87.6678 135.267 87.0985 135.594C86.5292 135.911 85.8852 136.07 85.1665 136.07ZM85.1665 135.188C85.6985 135.188 86.1698 135.071 86.5805 134.838C86.9912 134.595 87.3132 134.259 87.5465 133.83C87.7892 133.391 87.9105 132.887 87.9105 132.318C87.9105 131.739 87.7892 131.235 87.5465 130.806C87.3132 130.377 86.9912 130.045 86.5805 129.812C86.1698 129.569 85.7032 129.448 85.1805 129.448C84.6578 129.448 84.1912 129.569 83.7805 129.812C83.3698 130.045 83.0432 130.377 82.8005 130.806C82.5578 131.235 82.4365 131.739 82.4365 132.318C82.4365 132.887 82.5578 133.391 82.8005 133.83C83.0432 134.259 83.3698 134.595 83.7805 134.838C84.1912 135.071 84.6532 135.188 85.1665 135.188ZM91.0429 136V128.65H94.2909C95.1216 128.65 95.7749 128.809 96.2509 129.126C96.7362 129.443 96.9789 129.91 96.9789 130.526C96.9789 131.123 96.7502 131.585 96.2929 131.912C95.8356 132.229 95.2336 132.388 94.4869 132.388L94.6829 132.094C95.5602 132.094 96.2042 132.257 96.6149 132.584C97.0256 132.911 97.2309 133.382 97.2309 133.998C97.2309 134.633 96.9976 135.127 96.5309 135.482C96.0736 135.827 95.3596 136 94.3889 136H91.0429ZM92.0089 135.216H94.3469C94.9722 135.216 95.4436 135.118 95.7609 134.922C96.0876 134.717 96.2509 134.39 96.2509 133.942C96.2509 133.494 96.1062 133.167 95.8169 132.962C95.5276 132.757 95.0702 132.654 94.4449 132.654H92.0089V135.216ZM92.0089 131.912H94.2209C94.7902 131.912 95.2242 131.805 95.5229 131.59C95.8309 131.375 95.9849 131.063 95.9849 130.652C95.9849 130.241 95.8309 129.933 95.5229 129.728C95.2242 129.523 94.7902 129.42 94.2209 129.42H92.0089V131.912ZM99.5605 136V128.65H100.554V134.488L105.468 128.65H106.35V136H105.356V130.148L100.456 136H99.5605ZM110.599 136V129.252L110.851 129.518H107.813V128.65H114.379V129.518H111.341L111.593 129.252V136H110.599ZM118.625 136.07C117.859 136.07 117.187 135.911 116.609 135.594C116.03 135.267 115.577 134.824 115.251 134.264C114.924 133.695 114.761 133.046 114.761 132.318C114.761 131.59 114.915 130.946 115.223 130.386C115.54 129.826 115.969 129.387 116.511 129.07C117.061 128.743 117.677 128.58 118.359 128.58C119.049 128.58 119.661 128.739 120.193 129.056C120.734 129.364 121.159 129.803 121.467 130.372C121.775 130.932 121.929 131.581 121.929 132.318C121.929 132.365 121.924 132.416 121.915 132.472C121.915 132.519 121.915 132.57 121.915 132.626H115.517V131.884H121.383L120.991 132.178C120.991 131.646 120.874 131.175 120.641 130.764C120.417 130.344 120.109 130.017 119.717 129.784C119.325 129.551 118.872 129.434 118.359 129.434C117.855 129.434 117.402 129.551 117.001 129.784C116.599 130.017 116.287 130.344 116.063 130.764C115.839 131.184 115.727 131.665 115.727 132.206V132.36C115.727 132.92 115.848 133.415 116.091 133.844C116.343 134.264 116.688 134.595 117.127 134.838C117.575 135.071 118.083 135.188 118.653 135.188C119.101 135.188 119.516 135.109 119.899 134.95C120.291 134.791 120.627 134.549 120.907 134.222L121.467 134.866C121.14 135.258 120.729 135.557 120.235 135.762C119.749 135.967 119.213 136.07 118.625 136.07ZM132.441 132.892C132.012 133.079 131.578 133.228 131.139 133.34C130.71 133.443 130.28 133.494 129.851 133.494C128.983 133.494 128.297 133.298 127.793 132.906C127.289 132.505 127.037 131.889 127.037 131.058V128.65H128.017V131.002C128.017 131.562 128.199 131.982 128.563 132.262C128.927 132.542 129.417 132.682 130.033 132.682C130.406 132.682 130.798 132.635 131.209 132.542C131.62 132.439 132.035 132.295 132.455 132.108L132.441 132.892ZM132.357 136V128.65H133.351V136H132.357ZM139.324 136.07C138.558 136.07 137.886 135.911 137.308 135.594C136.729 135.267 136.276 134.824 135.95 134.264C135.623 133.695 135.46 133.046 135.46 132.318C135.46 131.59 135.614 130.946 135.922 130.386C136.239 129.826 136.668 129.387 137.21 129.07C137.76 128.743 138.376 128.58 139.058 128.58C139.748 128.58 140.36 128.739 140.892 129.056C141.433 129.364 141.858 129.803 142.166 130.372C142.474 130.932 142.628 131.581 142.628 132.318C142.628 132.365 142.623 132.416 142.614 132.472C142.614 132.519 142.614 132.57 142.614 132.626H136.216V131.884H142.082L141.69 132.178C141.69 131.646 141.573 131.175 141.34 130.764C141.116 130.344 140.808 130.017 140.416 129.784C140.024 129.551 139.571 129.434 139.058 129.434C138.554 129.434 138.101 129.551 137.7 129.784C137.298 130.017 136.986 130.344 136.762 130.764C136.538 131.184 136.426 131.665 136.426 132.206V132.36C136.426 132.92 136.547 133.415 136.79 133.844C137.042 134.264 137.387 134.595 137.826 134.838C138.274 135.071 138.782 135.188 139.352 135.188C139.8 135.188 140.215 135.109 140.598 134.95C140.99 134.791 141.326 134.549 141.606 134.222L142.166 134.866C141.839 135.258 141.428 135.557 140.934 135.762C140.448 135.967 139.912 136.07 139.324 136.07ZM143.419 136L146.527 131.968L146.513 132.458L143.559 128.65H144.679L147.101 131.8L146.681 131.786L149.103 128.65H150.195L147.213 132.5L147.227 131.968L150.363 136H149.229L146.667 132.64L147.059 132.696L144.539 136H143.419ZM150.648 135.986L150.718 135.132C150.783 135.141 150.844 135.155 150.9 135.174C150.965 135.183 151.021 135.188 151.068 135.188C151.367 135.188 151.605 135.076 151.782 134.852C151.969 134.628 152.109 134.329 152.202 133.956C152.295 133.583 152.361 133.163 152.398 132.696C152.435 132.22 152.468 131.744 152.496 131.268L152.622 128.65H158.012V136H157.018V129.224L157.27 129.518H153.266L153.504 129.21L153.392 131.338C153.364 131.973 153.313 132.579 153.238 133.158C153.173 133.737 153.065 134.245 152.916 134.684C152.776 135.123 152.58 135.468 152.328 135.72C152.076 135.963 151.754 136.084 151.362 136.084C151.25 136.084 151.133 136.075 151.012 136.056C150.9 136.037 150.779 136.014 150.648 135.986ZM168.006 136V128.65H169V136H168.006ZM163.932 131.24C164.856 131.249 165.56 131.455 166.046 131.856C166.531 132.257 166.774 132.836 166.774 133.592C166.774 134.376 166.512 134.978 165.99 135.398C165.467 135.818 164.72 136.023 163.75 136.014L160.838 136V128.65H161.832V131.212L163.932 131.24ZM163.68 135.258C164.37 135.267 164.888 135.132 165.234 134.852C165.588 134.563 165.766 134.143 165.766 133.592C165.766 133.041 165.593 132.64 165.248 132.388C164.902 132.127 164.38 131.991 163.68 131.982L161.832 131.954V135.23L163.68 135.258ZM178.574 136.07C177.846 136.07 177.193 135.911 176.614 135.594C176.045 135.267 175.597 134.824 175.27 134.264C174.943 133.695 174.78 133.046 174.78 132.318C174.78 131.581 174.943 130.932 175.27 130.372C175.597 129.812 176.045 129.373 176.614 129.056C177.193 128.739 177.846 128.58 178.574 128.58C179.199 128.58 179.764 128.701 180.268 128.944C180.772 129.187 181.169 129.551 181.458 130.036L180.716 130.54C180.464 130.167 180.151 129.891 179.778 129.714C179.405 129.537 178.999 129.448 178.56 129.448C178.037 129.448 177.566 129.569 177.146 129.812C176.726 130.045 176.395 130.377 176.152 130.806C175.909 131.235 175.788 131.739 175.788 132.318C175.788 132.897 175.909 133.401 176.152 133.83C176.395 134.259 176.726 134.595 177.146 134.838C177.566 135.071 178.037 135.188 178.56 135.188C178.999 135.188 179.405 135.099 179.778 134.922C180.151 134.745 180.464 134.474 180.716 134.11L181.458 134.614C181.169 135.09 180.772 135.454 180.268 135.706C179.764 135.949 179.199 136.07 178.574 136.07ZM187.947 136V134.376L187.905 134.11V131.394C187.905 130.769 187.727 130.288 187.373 129.952C187.027 129.616 186.509 129.448 185.819 129.448C185.343 129.448 184.89 129.527 184.461 129.686C184.031 129.845 183.667 130.055 183.369 130.316L182.921 129.574C183.294 129.257 183.742 129.014 184.265 128.846C184.787 128.669 185.338 128.58 185.917 128.58C186.869 128.58 187.601 128.818 188.115 129.294C188.637 129.761 188.899 130.475 188.899 131.436V136H187.947ZM185.413 136.07C184.862 136.07 184.381 135.981 183.971 135.804C183.569 135.617 183.261 135.365 183.047 135.048C182.832 134.721 182.725 134.348 182.725 133.928C182.725 133.545 182.813 133.2 182.991 132.892C183.177 132.575 183.476 132.323 183.887 132.136C184.307 131.94 184.867 131.842 185.567 131.842H188.101V132.584H185.595C184.885 132.584 184.391 132.71 184.111 132.962C183.84 133.214 183.705 133.527 183.705 133.9C183.705 134.32 183.868 134.656 184.195 134.908C184.521 135.16 184.979 135.286 185.567 135.286C186.127 135.286 186.607 135.16 187.009 134.908C187.419 134.647 187.718 134.273 187.905 133.788L188.129 134.474C187.942 134.959 187.615 135.347 187.149 135.636C186.691 135.925 186.113 136.07 185.413 136.07ZM191.545 136V128.65H192.553L195.885 134.292H195.465L198.853 128.65H199.777V136H198.867V129.784L199.049 129.868L195.885 135.104H195.437L192.245 129.812L192.455 129.77V136H191.545ZM205.629 136.07C204.92 136.07 204.281 135.911 203.711 135.594C203.151 135.267 202.708 134.824 202.381 134.264C202.055 133.695 201.891 133.046 201.891 132.318C201.891 131.581 202.055 130.932 202.381 130.372C202.708 129.812 203.151 129.373 203.711 129.056C204.271 128.739 204.911 128.58 205.629 128.58C206.357 128.58 207.001 128.739 207.561 129.056C208.131 129.373 208.574 129.812 208.891 130.372C209.218 130.932 209.381 131.581 209.381 132.318C209.381 133.046 209.218 133.695 208.891 134.264C208.574 134.824 208.131 135.267 207.561 135.594C206.992 135.911 206.348 136.07 205.629 136.07ZM205.629 135.188C206.161 135.188 206.633 135.071 207.043 134.838C207.454 134.595 207.776 134.259 208.009 133.83C208.252 133.391 208.373 132.887 208.373 132.318C208.373 131.739 208.252 131.235 208.009 130.806C207.776 130.377 207.454 130.045 207.043 129.812C206.633 129.569 206.166 129.448 205.643 129.448C205.121 129.448 204.654 129.569 204.243 129.812C203.833 130.045 203.506 130.377 203.263 130.806C203.021 131.235 202.899 131.739 202.899 132.318C202.899 132.887 203.021 133.391 203.263 133.83C203.506 134.259 203.833 134.595 204.243 134.838C204.654 135.071 205.116 135.188 205.629 135.188ZM214.586 136.07C213.858 136.07 213.204 135.911 212.626 135.594C212.056 135.267 211.608 134.824 211.282 134.264C210.955 133.695 210.792 133.046 210.792 132.318C210.792 131.581 210.955 130.932 211.282 130.372C211.608 129.812 212.056 129.373 212.626 129.056C213.204 128.739 213.858 128.58 214.586 128.58C215.211 128.58 215.776 128.701 216.28 128.944C216.784 129.187 217.18 129.551 217.47 130.036L216.728 130.54C216.476 130.167 216.163 129.891 215.79 129.714C215.416 129.537 215.01 129.448 214.572 129.448C214.049 129.448 213.578 129.569 213.158 129.812C212.738 130.045 212.406 130.377 212.164 130.806C211.921 131.235 211.8 131.739 211.8 132.318C211.8 132.897 211.921 133.401 212.164 133.83C212.406 134.259 212.738 134.595 213.158 134.838C213.578 135.071 214.049 135.188 214.572 135.188C215.01 135.188 215.416 135.099 215.79 134.922C216.163 134.745 216.476 134.474 216.728 134.11L217.47 134.614C217.18 135.09 216.784 135.454 216.28 135.706C215.776 135.949 215.211 136.07 214.586 136.07ZM220.658 136V129.252L220.91 129.518H217.872V128.65H224.438V129.518H221.4L221.652 129.252V136H220.658ZM228.557 136.07C227.848 136.07 227.208 135.911 226.639 135.594C226.079 135.267 225.636 134.824 225.309 134.264C224.982 133.695 224.819 133.046 224.819 132.318C224.819 131.581 224.982 130.932 225.309 130.372C225.636 129.812 226.079 129.373 226.639 129.056C227.199 128.739 227.838 128.58 228.557 128.58C229.285 128.58 229.929 128.739 230.489 129.056C231.058 129.373 231.502 129.812 231.819 130.372C232.146 130.932 232.309 131.581 232.309 132.318C232.309 133.046 232.146 133.695 231.819 134.264C231.502 134.824 231.058 135.267 230.489 135.594C229.92 135.911 229.276 136.07 228.557 136.07ZM228.557 135.188C229.089 135.188 229.56 135.071 229.971 134.838C230.382 134.595 230.704 134.259 230.937 133.83C231.18 133.391 231.301 132.887 231.301 132.318C231.301 131.739 231.18 131.235 230.937 130.806C230.704 130.377 230.382 130.045 229.971 129.812C229.56 129.569 229.094 129.448 228.571 129.448C228.048 129.448 227.582 129.569 227.171 129.812C226.76 130.045 226.434 130.377 226.191 130.806C225.948 131.235 225.827 131.739 225.827 132.318C225.827 132.887 225.948 133.391 226.191 133.83C226.434 134.259 226.76 134.595 227.171 134.838C227.582 135.071 228.044 135.188 228.557 135.188ZM238.92 136V133.354L239.102 133.564H236.61C235.667 133.564 234.93 133.359 234.398 132.948C233.866 132.537 233.6 131.94 233.6 131.156C233.6 130.316 233.884 129.691 234.454 129.28C235.023 128.86 235.784 128.65 236.736 128.65H239.83V136H238.92ZM233.544 136L235.56 133.172H236.596L234.622 136H233.544ZM238.92 133.06V129.224L239.102 129.518H236.764C236.082 129.518 235.55 129.649 235.168 129.91C234.794 130.171 234.608 130.596 234.608 131.184C234.608 132.276 235.303 132.822 236.694 132.822H239.102L238.92 133.06ZM244.064 136V129.252L244.316 129.518H241.278V128.65H247.844V129.518H244.806L245.058 129.252V136H244.064ZM252.089 136.07C251.324 136.07 250.652 135.911 250.073 135.594C249.495 135.267 249.042 134.824 248.715 134.264C248.389 133.695 248.225 133.046 248.225 132.318C248.225 131.59 248.379 130.946 248.687 130.386C249.005 129.826 249.434 129.387 249.975 129.07C250.526 128.743 251.142 128.58 251.823 128.58C252.514 128.58 253.125 128.739 253.657 129.056C254.199 129.364 254.623 129.803 254.931 130.372C255.239 130.932 255.393 131.581 255.393 132.318C255.393 132.365 255.389 132.416 255.379 132.472C255.379 132.519 255.379 132.57 255.379 132.626H248.981V131.884H254.847L254.455 132.178C254.455 131.646 254.339 131.175 254.105 130.764C253.881 130.344 253.573 130.017 253.181 129.784C252.789 129.551 252.337 129.434 251.823 129.434C251.319 129.434 250.867 129.551 250.465 129.784C250.064 130.017 249.751 130.344 249.527 130.764C249.303 131.184 249.191 131.665 249.191 132.206V132.36C249.191 132.92 249.313 133.415 249.555 133.844C249.807 134.264 250.153 134.595 250.591 134.838C251.039 135.071 251.548 135.188 252.117 135.188C252.565 135.188 252.981 135.109 253.363 134.95C253.755 134.791 254.091 134.549 254.371 134.222L254.931 134.866C254.605 135.258 254.194 135.557 253.699 135.762C253.214 135.967 252.677 136.07 252.089 136.07ZM256.099 135.986L256.169 135.132C256.235 135.141 256.295 135.155 256.351 135.174C256.417 135.183 256.473 135.188 256.519 135.188C256.818 135.188 257.056 135.076 257.233 134.852C257.42 134.628 257.56 134.329 257.653 133.956C257.747 133.583 257.812 133.163 257.849 132.696C257.887 132.22 257.919 131.744 257.947 131.268L258.073 128.65H263.463V136H262.469V129.224L262.721 129.518H258.717L258.955 129.21L258.843 131.338C258.815 131.973 258.764 132.579 258.689 133.158C258.624 133.737 258.517 134.245 258.367 134.684C258.227 135.123 258.031 135.468 257.779 135.72C257.527 135.963 257.205 136.084 256.813 136.084C256.701 136.084 256.585 136.075 256.463 136.056C256.351 136.037 256.23 136.014 256.099 135.986ZM269.453 131.24C270.377 131.249 271.077 131.455 271.553 131.856C272.038 132.257 272.281 132.836 272.281 133.592C272.281 134.376 272.02 134.978 271.497 135.398C270.984 135.818 270.237 136.023 269.257 136.014L266.289 136V128.65H267.283V131.212L269.453 131.24ZM269.201 135.258C269.882 135.267 270.396 135.132 270.741 134.852C271.096 134.563 271.273 134.143 271.273 133.592C271.273 133.041 271.1 132.64 270.755 132.388C270.41 132.127 269.892 131.991 269.201 131.982L267.283 131.954V135.23L269.201 135.258ZM274.178 136V128.65H275.172V131.898H279.806V128.65H280.8V136H279.806V132.752H275.172V136H274.178ZM286.649 136.07C285.94 136.07 285.3 135.911 284.731 135.594C284.171 135.267 283.728 134.824 283.401 134.264C283.074 133.695 282.911 133.046 282.911 132.318C282.911 131.581 283.074 130.932 283.401 130.372C283.728 129.812 284.171 129.373 284.731 129.056C285.291 128.739 285.93 128.58 286.649 128.58C287.377 128.58 288.021 128.739 288.581 129.056C289.15 129.373 289.594 129.812 289.911 130.372C290.238 130.932 290.401 131.581 290.401 132.318C290.401 133.046 290.238 133.695 289.911 134.264C289.594 134.824 289.15 135.267 288.581 135.594C288.012 135.911 287.368 136.07 286.649 136.07ZM286.649 135.188C287.181 135.188 287.652 135.071 288.063 134.838C288.474 134.595 288.796 134.259 289.029 133.83C289.272 133.391 289.393 132.887 289.393 132.318C289.393 131.739 289.272 131.235 289.029 130.806C288.796 130.377 288.474 130.045 288.063 129.812C287.652 129.569 287.186 129.448 286.663 129.448C286.14 129.448 285.674 129.569 285.263 129.812C284.852 130.045 284.526 130.377 284.283 130.806C284.04 131.235 283.919 131.739 283.919 132.318C283.919 132.887 284.04 133.391 284.283 133.83C284.526 134.259 284.852 134.595 285.263 134.838C285.674 135.071 286.136 135.188 286.649 135.188ZM298.163 136.084C297.631 136.084 297.104 136.009 296.581 135.86C296.059 135.711 295.597 135.482 295.195 135.174L295.517 134.432C295.872 134.693 296.283 134.894 296.749 135.034C297.216 135.165 297.678 135.23 298.135 135.23C298.593 135.221 298.989 135.155 299.325 135.034C299.661 134.913 299.923 134.745 300.109 134.53C300.296 134.315 300.389 134.073 300.389 133.802C300.389 133.41 300.212 133.107 299.857 132.892C299.503 132.668 299.017 132.556 298.401 132.556H297.141V131.828H298.331C298.695 131.828 299.017 131.781 299.297 131.688C299.577 131.595 299.792 131.459 299.941 131.282C300.1 131.105 300.179 130.895 300.179 130.652C300.179 130.391 300.086 130.167 299.899 129.98C299.722 129.793 299.475 129.653 299.157 129.56C298.84 129.467 298.481 129.42 298.079 129.42C297.715 129.429 297.337 129.485 296.945 129.588C296.553 129.681 296.166 129.826 295.783 130.022L295.503 129.252C295.933 129.028 296.357 128.86 296.777 128.748C297.207 128.627 297.636 128.566 298.065 128.566C298.653 128.547 299.181 128.617 299.647 128.776C300.123 128.935 300.501 129.163 300.781 129.462C301.061 129.751 301.201 130.101 301.201 130.512C301.201 130.876 301.089 131.193 300.865 131.464C300.641 131.735 300.343 131.945 299.969 132.094C299.596 132.243 299.171 132.318 298.695 132.318L298.737 132.052C299.577 132.052 300.231 132.215 300.697 132.542C301.173 132.869 301.411 133.312 301.411 133.872C301.411 134.311 301.267 134.698 300.977 135.034C300.688 135.361 300.296 135.617 299.801 135.804C299.316 135.991 298.77 136.084 298.163 136.084ZM308.232 136V134.376L308.19 134.11V131.394C308.19 130.769 308.013 130.288 307.658 129.952C307.313 129.616 306.795 129.448 306.104 129.448C305.628 129.448 305.175 129.527 304.746 129.686C304.317 129.845 303.953 130.055 303.654 130.316L303.206 129.574C303.579 129.257 304.027 129.014 304.55 128.846C305.073 128.669 305.623 128.58 306.202 128.58C307.154 128.58 307.887 128.818 308.4 129.294C308.923 129.761 309.184 130.475 309.184 131.436V136H308.232ZM305.698 136.07C305.147 136.07 304.667 135.981 304.256 135.804C303.855 135.617 303.547 135.365 303.332 135.048C303.117 134.721 303.01 134.348 303.01 133.928C303.01 133.545 303.099 133.2 303.276 132.892C303.463 132.575 303.761 132.323 304.172 132.136C304.592 131.94 305.152 131.842 305.852 131.842H308.386V132.584H305.88C305.171 132.584 304.676 132.71 304.396 132.962C304.125 133.214 303.99 133.527 303.99 133.9C303.99 134.32 304.153 134.656 304.48 134.908C304.807 135.16 305.264 135.286 305.852 135.286C306.412 135.286 306.893 135.16 307.294 134.908C307.705 134.647 308.003 134.273 308.19 133.788L308.414 134.474C308.227 134.959 307.901 135.347 307.434 135.636C306.977 135.925 306.398 136.07 305.698 136.07ZM315.494 136V128.65H322.102V136H321.108V129.252L321.36 129.518H316.236L316.488 129.252V136H315.494ZM329.492 136V134.376L329.45 134.11V131.394C329.45 130.769 329.272 130.288 328.918 129.952C328.572 129.616 328.054 129.448 327.364 129.448C326.888 129.448 326.435 129.527 326.006 129.686C325.576 129.845 325.212 130.055 324.914 130.316L324.466 129.574C324.839 129.257 325.287 129.014 325.81 128.846C326.332 128.669 326.883 128.58 327.462 128.58C328.414 128.58 329.146 128.818 329.66 129.294C330.182 129.761 330.444 130.475 330.444 131.436V136H329.492ZM326.958 136.07C326.407 136.07 325.926 135.981 325.516 135.804C325.114 135.617 324.806 135.365 324.592 135.048C324.377 134.721 324.27 134.348 324.27 133.928C324.27 133.545 324.358 133.2 324.536 132.892C324.722 132.575 325.021 132.323 325.432 132.136C325.852 131.94 326.412 131.842 327.112 131.842H329.646V132.584H327.14C326.43 132.584 325.936 132.71 325.656 132.962C325.385 133.214 325.25 133.527 325.25 133.9C325.25 134.32 325.413 134.656 325.74 134.908C326.066 135.16 326.524 135.286 327.112 135.286C327.672 135.286 328.152 135.16 328.554 134.908C328.964 134.647 329.263 134.273 329.45 133.788L329.674 134.474C329.487 134.959 329.16 135.347 328.694 135.636C328.236 135.925 327.658 136.07 326.958 136.07ZM336.884 136.07C336.249 136.07 335.675 135.925 335.162 135.636C334.648 135.337 334.238 134.913 333.93 134.362C333.631 133.802 333.482 133.121 333.482 132.318C333.482 131.515 333.631 130.839 333.93 130.288C334.228 129.728 334.634 129.303 335.148 129.014C335.661 128.725 336.24 128.58 336.884 128.58C337.584 128.58 338.209 128.739 338.76 129.056C339.32 129.364 339.758 129.803 340.076 130.372C340.393 130.932 340.552 131.581 340.552 132.318C340.552 133.065 340.393 133.718 340.076 134.278C339.758 134.838 339.32 135.277 338.76 135.594C338.209 135.911 337.584 136.07 336.884 136.07ZM333.09 138.716V128.65H334.042V130.862L333.944 132.332L334.084 133.816V138.716H333.09ZM336.814 135.188C337.336 135.188 337.803 135.071 338.214 134.838C338.624 134.595 338.951 134.259 339.194 133.83C339.436 133.391 339.558 132.887 339.558 132.318C339.558 131.749 339.436 131.249 339.194 130.82C338.951 130.391 338.624 130.055 338.214 129.812C337.803 129.569 337.336 129.448 336.814 129.448C336.291 129.448 335.82 129.569 335.4 129.812C334.989 130.055 334.662 130.391 334.42 130.82C334.186 131.249 334.07 131.749 334.07 132.318C334.07 132.887 334.186 133.391 334.42 133.83C334.662 134.259 334.989 134.595 335.4 134.838C335.82 135.071 336.291 135.188 336.814 135.188ZM342.608 138.786C342.263 138.786 341.932 138.73 341.614 138.618C341.306 138.506 341.04 138.338 340.816 138.114L341.278 137.372C341.465 137.549 341.666 137.685 341.88 137.778C342.104 137.881 342.352 137.932 342.622 137.932C342.949 137.932 343.229 137.839 343.462 137.652C343.705 137.475 343.934 137.157 344.148 136.7L344.624 135.622L344.736 135.468L347.76 128.65H348.74L345.058 136.882C344.853 137.358 344.624 137.736 344.372 138.016C344.13 138.296 343.864 138.492 343.574 138.604C343.285 138.725 342.963 138.786 342.608 138.786ZM344.568 136.21L341.18 128.65H342.216L345.212 135.398L344.568 136.21ZM46.062 154.892C45.6327 155.079 45.1987 155.228 44.76 155.34C44.3307 155.443 43.9013 155.494 43.472 155.494C42.604 155.494 41.918 155.298 41.414 154.906C40.91 154.505 40.658 153.889 40.658 153.058V150.65H41.638V153.002C41.638 153.562 41.82 153.982 42.184 154.262C42.548 154.542 43.038 154.682 43.654 154.682C44.0273 154.682 44.4193 154.635 44.83 154.542C45.2407 154.439 45.656 154.295 46.076 154.108L46.062 154.892ZM45.978 158V150.65H46.972V158H45.978ZM54.3589 158V156.376L54.3169 156.11V153.394C54.3169 152.769 54.1395 152.288 53.7849 151.952C53.4395 151.616 52.9215 151.448 52.2309 151.448C51.7549 151.448 51.3022 151.527 50.8729 151.686C50.4435 151.845 50.0795 152.055 49.7809 152.316L49.3329 151.574C49.7062 151.257 50.1542 151.014 50.6769 150.846C51.1995 150.669 51.7502 150.58 52.3289 150.58C53.2809 150.58 54.0135 150.818 54.5269 151.294C55.0495 151.761 55.3109 152.475 55.3109 153.436V158H54.3589ZM51.8249 158.07C51.2742 158.07 50.7935 157.981 50.3829 157.804C49.9815 157.617 49.6735 157.365 49.4589 157.048C49.2442 156.721 49.1369 156.348 49.1369 155.928C49.1369 155.545 49.2255 155.2 49.4029 154.892C49.5895 154.575 49.8882 154.323 50.2989 154.136C50.7189 153.94 51.2789 153.842 51.9789 153.842H54.5129V154.584H52.0069C51.2975 154.584 50.8029 154.71 50.5229 154.962C50.2522 155.214 50.1169 155.527 50.1169 155.9C50.1169 156.32 50.2802 156.656 50.6069 156.908C50.9335 157.16 51.3909 157.286 51.9789 157.286C52.5389 157.286 53.0195 157.16 53.4209 156.908C53.8315 156.647 54.1302 156.273 54.3169 155.788L54.5409 156.474C54.3542 156.959 54.0275 157.347 53.5609 157.636C53.1035 157.925 52.5249 158.07 51.8249 158.07ZM61.037 158.07C60.309 158.07 59.6556 157.911 59.077 157.594C58.5076 157.267 58.0596 156.824 57.733 156.264C57.4063 155.695 57.243 155.046 57.243 154.318C57.243 153.581 57.4063 152.932 57.733 152.372C58.0596 151.812 58.5076 151.373 59.077 151.056C59.6556 150.739 60.309 150.58 61.037 150.58C61.6623 150.58 62.227 150.701 62.731 150.944C63.235 151.187 63.6316 151.551 63.921 152.036L63.179 152.54C62.927 152.167 62.6143 151.891 62.241 151.714C61.8676 151.537 61.4616 151.448 61.023 151.448C60.5003 151.448 60.029 151.569 59.609 151.812C59.189 152.045 58.8576 152.377 58.615 152.806C58.3723 153.235 58.251 153.739 58.251 154.318C58.251 154.897 58.3723 155.401 58.615 155.83C58.8576 156.259 59.189 156.595 59.609 156.838C60.029 157.071 60.5003 157.188 61.023 157.188C61.4616 157.188 61.8676 157.099 62.241 156.922C62.6143 156.745 62.927 156.474 63.179 156.11L63.921 156.614C63.6316 157.09 63.235 157.454 62.731 157.706C62.227 157.949 61.6623 158.07 61.037 158.07ZM68.7466 158.07C68.0373 158.07 67.3979 157.911 66.8286 157.594C66.2686 157.267 65.8253 156.824 65.4986 156.264C65.1719 155.695 65.0086 155.046 65.0086 154.318C65.0086 153.581 65.1719 152.932 65.4986 152.372C65.8253 151.812 66.2686 151.373 66.8286 151.056C67.3886 150.739 68.0279 150.58 68.7466 150.58C69.4746 150.58 70.1186 150.739 70.6786 151.056C71.2479 151.373 71.6913 151.812 72.0086 152.372C72.3353 152.932 72.4986 153.581 72.4986 154.318C72.4986 155.046 72.3353 155.695 72.0086 156.264C71.6913 156.824 71.2479 157.267 70.6786 157.594C70.1093 157.911 69.4653 158.07 68.7466 158.07ZM68.7466 157.188C69.2786 157.188 69.7499 157.071 70.1606 156.838C70.5713 156.595 70.8933 156.259 71.1266 155.83C71.3693 155.391 71.4906 154.887 71.4906 154.318C71.4906 153.739 71.3693 153.235 71.1266 152.806C70.8933 152.377 70.5713 152.045 70.1606 151.812C69.7499 151.569 69.2833 151.448 68.7606 151.448C68.2379 151.448 67.7713 151.569 67.3606 151.812C66.9499 152.045 66.6233 152.377 66.3806 152.806C66.1379 153.235 66.0166 153.739 66.0166 154.318C66.0166 154.887 66.1379 155.391 66.3806 155.83C66.6233 156.259 66.9499 156.595 67.3606 156.838C67.7713 157.071 68.2333 157.188 68.7466 157.188ZM74.623 158V150.65H77.871C78.7017 150.65 79.355 150.809 79.831 151.126C80.3163 151.443 80.559 151.91 80.559 152.526C80.559 153.123 80.3303 153.585 79.873 153.912C79.4157 154.229 78.8137 154.388 78.067 154.388L78.263 154.094C79.1403 154.094 79.7843 154.257 80.195 154.584C80.6057 154.911 80.811 155.382 80.811 155.998C80.811 156.633 80.5777 157.127 80.111 157.482C79.6537 157.827 78.9397 158 77.969 158H74.623ZM75.589 157.216H77.927C78.5523 157.216 79.0237 157.118 79.341 156.922C79.6677 156.717 79.831 156.39 79.831 155.942C79.831 155.494 79.6863 155.167 79.397 154.962C79.1077 154.757 78.6503 154.654 78.025 154.654H75.589V157.216ZM75.589 153.912H77.801C78.3703 153.912 78.8043 153.805 79.103 153.59C79.411 153.375 79.565 153.063 79.565 152.652C79.565 152.241 79.411 151.933 79.103 151.728C78.8043 151.523 78.3703 151.42 77.801 151.42H75.589V153.912Z" fill="white"/>
<rect width="157" height="56" transform="translate(40 212)" fill="white"/>
<path d="M93 243V244.2C93 245.88 93 246.72 92.673 247.362C92.3854 247.926 91.9265 248.385 91.362 248.673C90.7202 249 89.8802 249 88.2 249H79.8C78.1198 249 77.2798 249 76.638 248.673C76.0735 248.385 75.6146 247.926 75.327 247.362C75 246.72 75 245.88 75 244.2V243M89 238L84 243M84 243L79 238M84 243V231" stroke="#29A1F8" stroke-width="2" stroke-linecap="round" stroke-linejoin="round"/>
<path d="M111.908 245.112C111.161 245.112 110.471 244.991 109.836 244.748C109.211 244.496 108.665 244.146 108.198 243.698C107.741 243.241 107.381 242.709 107.12 242.102C106.859 241.495 106.728 240.828 106.728 240.1C106.728 239.372 106.859 238.705 107.12 238.098C107.381 237.491 107.745 236.964 108.212 236.516C108.679 236.059 109.225 235.709 109.85 235.466C110.485 235.214 111.175 235.088 111.922 235.088C112.678 235.088 113.373 235.219 114.008 235.48C114.652 235.732 115.198 236.11 115.646 236.614L114.736 237.496C114.363 237.104 113.943 236.815 113.476 236.628C113.009 236.432 112.51 236.334 111.978 236.334C111.427 236.334 110.914 236.427 110.438 236.614C109.971 236.801 109.565 237.062 109.22 237.398C108.875 237.734 108.604 238.135 108.408 238.602C108.221 239.059 108.128 239.559 108.128 240.1C108.128 240.641 108.221 241.145 108.408 241.612C108.604 242.069 108.875 242.466 109.22 242.802C109.565 243.138 109.971 243.399 110.438 243.586C110.914 243.773 111.427 243.866 111.978 243.866C112.51 243.866 113.009 243.773 113.476 243.586C113.943 243.39 114.363 243.091 114.736 242.69L115.646 243.572C115.198 244.076 114.652 244.459 114.008 244.72C113.373 244.981 112.673 245.112 111.908 245.112ZM122.727 245L119.857 241.388L120.963 240.716L124.309 245H122.727ZM117.351 245V237.58H118.695V245H117.351ZM118.289 241.864V240.716H120.739V241.864H118.289ZM121.075 241.444L119.829 241.276L122.671 237.58H124.113L121.075 241.444ZM130.131 245V243.432L130.061 243.138V240.464C130.061 239.895 129.893 239.456 129.557 239.148C129.231 238.831 128.736 238.672 128.073 238.672C127.635 238.672 127.205 238.747 126.785 238.896C126.365 239.036 126.011 239.227 125.721 239.47L125.161 238.462C125.544 238.154 126.001 237.921 126.533 237.762C127.075 237.594 127.639 237.51 128.227 237.51C129.245 237.51 130.029 237.757 130.579 238.252C131.13 238.747 131.405 239.503 131.405 240.52V245H130.131ZM127.695 245.084C127.145 245.084 126.659 244.991 126.239 244.804C125.829 244.617 125.511 244.361 125.287 244.034C125.063 243.698 124.951 243.32 124.951 242.9C124.951 242.499 125.045 242.135 125.231 241.808C125.427 241.481 125.74 241.22 126.169 241.024C126.608 240.828 127.196 240.73 127.933 240.73H130.285V241.696H127.989C127.317 241.696 126.865 241.808 126.631 242.032C126.398 242.256 126.281 242.527 126.281 242.844C126.281 243.208 126.426 243.502 126.715 243.726C127.005 243.941 127.406 244.048 127.919 244.048C128.423 244.048 128.862 243.936 129.235 243.712C129.618 243.488 129.893 243.161 130.061 242.732L130.327 243.656C130.15 244.095 129.837 244.445 129.389 244.706C128.941 244.958 128.377 245.084 127.695 245.084ZM138.501 241.962C138.109 242.149 137.703 242.298 137.283 242.41C136.873 242.513 136.448 242.564 136.009 242.564C135.113 242.564 134.404 242.354 133.881 241.934C133.368 241.514 133.111 240.865 133.111 239.988V237.58H134.455V239.904C134.455 240.436 134.619 240.828 134.945 241.08C135.281 241.332 135.729 241.458 136.289 241.458C136.644 241.458 137.008 241.411 137.381 241.318C137.764 241.225 138.137 241.094 138.501 240.926V241.962ZM138.403 245V237.58H139.747V245H138.403ZM146.907 245V243.432L146.837 243.138V240.464C146.837 239.895 146.669 239.456 146.333 239.148C146.006 238.831 145.511 238.672 144.849 238.672C144.41 238.672 143.981 238.747 143.561 238.896C143.141 239.036 142.786 239.227 142.497 239.47L141.937 238.462C142.319 238.154 142.777 237.921 143.309 237.762C143.85 237.594 144.415 237.51 145.003 237.51C146.02 237.51 146.804 237.757 147.355 238.252C147.905 238.747 148.181 239.503 148.181 240.52V245H146.907ZM144.471 245.084C143.92 245.084 143.435 244.991 143.015 244.804C142.604 244.617 142.287 244.361 142.063 244.034C141.839 243.698 141.727 243.32 141.727 242.9C141.727 242.499 141.82 242.135 142.007 241.808C142.203 241.481 142.515 241.22 142.945 241.024C143.383 240.828 143.971 240.73 144.709 240.73H147.061V241.696H144.765C144.093 241.696 143.64 241.808 143.407 242.032C143.173 242.256 143.057 242.527 143.057 242.844C143.057 243.208 143.201 243.502 143.491 243.726C143.78 243.941 144.181 244.048 144.695 244.048C145.199 244.048 145.637 243.936 146.011 243.712C146.393 243.488 146.669 243.161 146.837 242.732L147.103 243.656C146.925 244.095 146.613 244.445 146.165 244.706C145.717 244.958 145.152 245.084 144.471 245.084ZM152.071 245V238.406L152.407 238.756H149.355V237.58H156.131V238.756H153.093L153.415 238.406V245H152.071ZM160.935 240.1C161.878 240.109 162.596 240.324 163.091 240.744C163.586 241.164 163.833 241.757 163.833 242.522C163.833 243.325 163.562 243.945 163.021 244.384C162.48 244.813 161.714 245.023 160.725 245.014L157.505 245V237.58H158.849V240.086L160.935 240.1ZM160.613 243.992C161.22 244.001 161.677 243.88 161.985 243.628C162.302 243.376 162.461 243.003 162.461 242.508C162.461 242.023 162.307 241.668 161.999 241.444C161.691 241.22 161.229 241.103 160.613 241.094L158.849 241.066V243.978L160.613 243.992Z" fill="#141414"/>
</svg>
