<svg width="280" height="86" viewBox="0 0 280 86" fill="none" xmlns="http://www.w3.org/2000/svg">
<path d="M9.284 21.264C8.06667 21.264 6.93733 21.066 5.896 20.67C4.86933 20.274 3.97467 19.7167 3.212 18.998C2.464 18.2793 1.87733 17.436 1.452 16.468C1.04133 15.5 0.836 14.444 0.836 13.3C0.836 12.156 1.04133 11.1 1.452 10.132C1.87733 9.164 2.47133 8.32067 3.234 7.602C3.99667 6.88333 4.89133 6.326 5.918 5.93C6.94467 5.534 8.05933 5.336 9.262 5.336C10.4793 5.336 11.594 5.534 12.606 5.93C13.6327 6.326 14.52 6.88333 15.268 7.602C16.0307 8.32067 16.6247 9.164 17.05 10.132C17.4753 11.0853 17.688 12.1413 17.688 13.3C17.688 14.444 17.4753 15.5073 17.05 16.49C16.6247 17.458 16.0307 18.3013 15.268 19.02C14.52 19.724 13.6327 20.274 12.606 20.67C11.594 21.066 10.4867 21.264 9.284 21.264ZM9.262 18.228C9.95133 18.228 10.582 18.1107 11.154 17.876C11.7407 17.6413 12.254 17.304 12.694 16.864C13.134 16.424 13.4713 15.9033 13.706 15.302C13.9553 14.7007 14.08 14.0333 14.08 13.3C14.08 12.5667 13.9553 11.8993 13.706 11.298C13.4713 10.6967 13.134 10.176 12.694 9.736C12.2687 9.296 11.7627 8.95867 11.176 8.724C10.5893 8.48933 9.95133 8.372 9.262 8.372C8.57267 8.372 7.93467 8.48933 7.348 8.724C6.776 8.95867 6.27 9.296 5.83 9.736C5.39 10.176 5.04533 10.6967 4.796 11.298C4.56133 11.8993 4.444 12.5667 4.444 13.3C4.444 14.0187 4.56133 14.686 4.796 15.302C5.04533 15.9033 5.38267 16.424 5.808 16.864C6.248 17.304 6.76133 17.6413 7.348 17.876C7.93467 18.1107 8.57267 18.228 9.262 18.228ZM25.8015 21.176C24.5255 21.176 23.3889 20.9193 22.3915 20.406C21.3942 19.878 20.6095 19.152 20.0375 18.228C19.4802 17.304 19.2015 16.2553 19.2015 15.082C19.2015 13.894 19.4802 12.8453 20.0375 11.936C20.6095 11.012 21.3942 10.2933 22.3915 9.78C23.3889 9.252 24.5255 8.988 25.8015 8.988C27.0482 8.988 28.1335 9.252 29.0575 9.78C29.9815 10.2933 30.6635 11.034 31.1035 12.002L28.4415 13.432C28.1335 12.8747 27.7449 12.464 27.2755 12.2C26.8209 11.936 26.3222 11.804 25.7795 11.804C25.1929 11.804 24.6649 11.936 24.1955 12.2C23.7262 12.464 23.3522 12.838 23.0735 13.322C22.8095 13.806 22.6775 14.3927 22.6775 15.082C22.6775 15.7713 22.8095 16.358 23.0735 16.842C23.3522 17.326 23.7262 17.7 24.1955 17.964C24.6649 18.228 25.1929 18.36 25.7795 18.36C26.3222 18.36 26.8209 18.2353 27.2755 17.986C27.7449 17.722 28.1335 17.304 28.4415 16.732L31.1035 18.184C30.6635 19.1373 29.9815 19.878 29.0575 20.406C28.1335 20.9193 27.0482 21.176 25.8015 21.176ZM35.6976 21V11.188L36.4676 11.98H31.6936V9.164H43.1116V11.98H38.3376L39.1076 11.188V21H35.6976ZM52.025 21V18.69L51.805 18.184V14.048C51.805 13.3147 51.5777 12.7427 51.123 12.332C50.683 11.9213 50.001 11.716 49.077 11.716C48.4463 11.716 47.823 11.8187 47.207 12.024C46.6057 12.2147 46.0923 12.4787 45.667 12.816L44.435 10.418C45.0803 9.96333 45.8577 9.61133 46.767 9.362C47.6763 9.11267 48.6003 8.988 49.539 8.988C51.343 8.988 52.7437 9.41333 53.741 10.264C54.7383 11.1147 55.237 12.442 55.237 14.246V21H52.025ZM48.417 21.176C47.493 21.176 46.701 21.022 46.041 20.714C45.381 20.3913 44.875 19.9587 44.523 19.416C44.171 18.8733 43.995 18.2647 43.995 17.59C43.995 16.886 44.1637 16.27 44.501 15.742C44.853 15.214 45.403 14.8033 46.151 14.51C46.899 14.202 47.8743 14.048 49.077 14.048H52.223V16.05H49.451C48.6443 16.05 48.087 16.182 47.779 16.446C47.4857 16.71 47.339 17.04 47.339 17.436C47.339 17.876 47.5077 18.228 47.845 18.492C48.197 18.7413 48.6737 18.866 49.275 18.866C49.847 18.866 50.3603 18.734 50.815 18.47C51.2697 18.1913 51.5997 17.788 51.805 17.26L52.333 18.844C52.0837 19.6067 51.629 20.186 50.969 20.582C50.309 20.978 49.4583 21.176 48.417 21.176ZM56.7224 20.978L56.8984 18.162C56.9864 18.1767 57.0744 18.1913 57.1624 18.206C57.2504 18.206 57.331 18.206 57.4044 18.206C57.815 18.206 58.1377 18.0887 58.3724 17.854C58.607 17.6193 58.783 17.304 58.9004 16.908C59.0177 16.4973 59.0984 16.0353 59.1424 15.522C59.201 15.0087 59.245 14.4733 59.2744 13.916L59.4504 9.164H69.5704V21H66.1384V11.144L66.9084 11.98H61.7164L62.4424 11.1L62.2884 14.07C62.2444 15.126 62.1564 16.094 62.0244 16.974C61.907 17.854 61.709 18.6167 61.4304 19.262C61.1517 19.8927 60.7777 20.384 60.3084 20.736C59.839 21.0733 59.2377 21.242 58.5044 21.242C58.2404 21.242 57.9617 21.22 57.6684 21.176C57.375 21.132 57.0597 21.066 56.7224 20.978ZM72.8707 21V9.164H76.2807V16.204L82.0447 9.164H85.1907V21H81.7807V13.96L76.0387 21H72.8707ZM94.1218 21.176C92.8458 21.176 91.7092 20.9193 90.7118 20.406C89.7145 19.878 88.9298 19.152 88.3578 18.228C87.8005 17.304 87.5218 16.2553 87.5218 15.082C87.5218 13.894 87.8005 12.8453 88.3578 11.936C88.9298 11.012 89.7145 10.2933 90.7118 9.78C91.7092 9.252 92.8458 8.988 94.1218 8.988C95.3685 8.988 96.4538 9.252 97.3778 9.78C98.3018 10.2933 98.9838 11.034 99.4238 12.002L96.7618 13.432C96.4538 12.8747 96.0652 12.464 95.5958 12.2C95.1412 11.936 94.6425 11.804 94.0998 11.804C93.5132 11.804 92.9852 11.936 92.5158 12.2C92.0465 12.464 91.6725 12.838 91.3938 13.322C91.1298 13.806 90.9978 14.3927 90.9978 15.082C90.9978 15.7713 91.1298 16.358 91.3938 16.842C91.6725 17.326 92.0465 17.7 92.5158 17.964C92.9852 18.228 93.5132 18.36 94.0998 18.36C94.6425 18.36 95.1412 18.2353 95.5958 17.986C96.0652 17.722 96.4538 17.304 96.7618 16.732L99.4238 18.184C98.9838 19.1373 98.3018 19.878 97.3778 20.406C96.4538 20.9193 95.3685 21.176 94.1218 21.176ZM107.911 12.948C109.466 12.9627 110.647 13.3147 111.453 14.004C112.275 14.6787 112.685 15.6393 112.685 16.886C112.685 18.1913 112.223 19.2107 111.299 19.944C110.375 20.6627 109.092 21.022 107.449 21.022L101.509 21V9.164H104.919V12.948H107.911ZM107.141 18.58C107.801 18.5947 108.307 18.4553 108.659 18.162C109.011 17.8687 109.187 17.4287 109.187 16.842C109.187 16.2553 109.011 15.8373 108.659 15.588C108.307 15.324 107.801 15.1847 107.141 15.17L104.919 15.148V18.58H107.141ZM121.06 21V9.164H127.11C128.591 9.164 129.75 9.43533 130.586 9.978C131.422 10.506 131.84 11.254 131.84 12.222C131.84 13.19 131.444 13.9527 130.652 14.51C129.875 15.0527 128.841 15.324 127.55 15.324L127.902 14.532C129.339 14.532 130.41 14.796 131.114 15.324C131.833 15.852 132.192 16.622 132.192 17.634C132.192 18.6753 131.796 19.4967 131.004 20.098C130.212 20.6993 129.002 21 127.374 21H121.06ZM124.206 18.668H127.088C127.719 18.668 128.188 18.5653 128.496 18.36C128.819 18.14 128.98 17.81 128.98 17.37C128.98 16.9153 128.833 16.5853 128.54 16.38C128.247 16.16 127.785 16.05 127.154 16.05H124.206V18.668ZM124.206 14.026H126.802C127.403 14.026 127.851 13.916 128.144 13.696C128.452 13.476 128.606 13.1607 128.606 12.75C128.606 12.3247 128.452 12.0093 128.144 11.804C127.851 11.5987 127.403 11.496 126.802 11.496H124.206V14.026ZM140.29 21.176C139.028 21.176 137.906 20.912 136.924 20.384C135.956 19.856 135.186 19.1373 134.614 18.228C134.056 17.304 133.778 16.2553 133.778 15.082C133.778 13.894 134.056 12.8453 134.614 11.936C135.186 11.012 135.956 10.2933 136.924 9.78C137.906 9.252 139.028 8.988 140.29 8.988C141.536 8.988 142.651 9.252 143.634 9.78C144.616 10.2933 145.386 11.0047 145.944 11.914C146.501 12.8233 146.78 13.8793 146.78 15.082C146.78 16.2553 146.501 17.304 145.944 18.228C145.386 19.1373 144.616 19.856 143.634 20.384C142.651 20.912 141.536 21.176 140.29 21.176ZM140.29 18.36C140.862 18.36 141.375 18.228 141.83 17.964C142.284 17.7 142.644 17.326 142.908 16.842C143.172 16.3433 143.304 15.7567 143.304 15.082C143.304 14.3927 143.172 13.806 142.908 13.322C142.644 12.838 142.284 12.464 141.83 12.2C141.375 11.936 140.862 11.804 140.29 11.804C139.718 11.804 139.204 11.936 138.75 12.2C138.295 12.464 137.928 12.838 137.65 13.322C137.386 13.806 137.254 14.3927 137.254 15.082C137.254 15.7567 137.386 16.3433 137.65 16.842C137.928 17.326 138.295 17.7 138.75 17.964C139.204 18.228 139.718 18.36 140.29 18.36ZM149.14 21V9.164H160.91V21H157.478V11.21L158.248 11.98H151.78L152.55 11.21V21H149.14ZM171.175 21.176C170.177 21.176 169.305 20.956 168.557 20.516C167.809 20.076 167.222 19.4087 166.797 18.514C166.386 17.6047 166.181 16.4607 166.181 15.082C166.181 13.6887 166.379 12.5447 166.775 11.65C167.171 10.7553 167.743 10.088 168.491 9.648C169.239 9.208 170.133 8.988 171.175 8.988C172.289 8.988 173.287 9.24467 174.167 9.758C175.061 10.2567 175.765 10.9607 176.279 11.87C176.807 12.7793 177.071 13.85 177.071 15.082C177.071 16.3287 176.807 17.4067 176.279 18.316C175.765 19.2253 175.061 19.9293 174.167 20.428C173.287 20.9267 172.289 21.176 171.175 21.176ZM164.179 25.268V9.164H167.457V11.584L167.391 15.104L167.611 18.602V25.268H164.179ZM170.581 18.36C171.153 18.36 171.659 18.228 172.099 17.964C172.553 17.7 172.913 17.326 173.177 16.842C173.455 16.3433 173.595 15.7567 173.595 15.082C173.595 14.3927 173.455 13.806 173.177 13.322C172.913 12.838 172.553 12.464 172.099 12.2C171.659 11.936 171.153 11.804 170.581 11.804C170.009 11.804 169.495 11.936 169.041 12.2C168.586 12.464 168.227 12.838 167.963 13.322C167.699 13.806 167.567 14.3927 167.567 15.082C167.567 15.7567 167.699 16.3433 167.963 16.842C168.227 17.326 168.586 17.7 169.041 17.964C169.495 18.228 170.009 18.36 170.581 18.36ZM185.02 21.176C183.759 21.176 182.637 20.912 181.654 20.384C180.686 19.856 179.916 19.1373 179.344 18.228C178.787 17.304 178.508 16.2553 178.508 15.082C178.508 13.894 178.787 12.8453 179.344 11.936C179.916 11.012 180.686 10.2933 181.654 9.78C182.637 9.252 183.759 8.988 185.02 8.988C186.267 8.988 187.382 9.252 188.364 9.78C189.347 10.2933 190.117 11.0047 190.674 11.914C191.232 12.8233 191.51 13.8793 191.51 15.082C191.51 16.2553 191.232 17.304 190.674 18.228C190.117 19.1373 189.347 19.856 188.364 20.384C187.382 20.912 186.267 21.176 185.02 21.176ZM185.02 18.36C185.592 18.36 186.106 18.228 186.56 17.964C187.015 17.7 187.374 17.326 187.638 16.842C187.902 16.3433 188.034 15.7567 188.034 15.082C188.034 14.3927 187.902 13.806 187.638 13.322C187.374 12.838 187.015 12.464 186.56 12.2C186.106 11.936 185.592 11.804 185.02 11.804C184.448 11.804 183.935 11.936 183.48 12.2C183.026 12.464 182.659 12.838 182.38 13.322C182.116 13.806 181.984 14.3927 181.984 15.082C181.984 15.7567 182.116 16.3433 182.38 16.842C182.659 17.326 183.026 17.7 183.48 17.964C183.935 18.228 184.448 18.36 185.02 18.36ZM199.503 21.176C198.227 21.176 197.09 20.9193 196.093 20.406C195.095 19.878 194.311 19.152 193.739 18.228C193.181 17.304 192.903 16.2553 192.903 15.082C192.903 13.894 193.181 12.8453 193.739 11.936C194.311 11.012 195.095 10.2933 196.093 9.78C197.09 9.252 198.227 8.988 199.503 8.988C200.749 8.988 201.835 9.252 202.759 9.78C203.683 10.2933 204.365 11.034 204.805 12.002L202.143 13.432C201.835 12.8747 201.446 12.464 200.977 12.2C200.522 11.936 200.023 11.804 199.481 11.804C198.894 11.804 198.366 11.936 197.897 12.2C197.427 12.464 197.053 12.838 196.775 13.322C196.511 13.806 196.379 14.3927 196.379 15.082C196.379 15.7713 196.511 16.358 196.775 16.842C197.053 17.326 197.427 17.7 197.897 17.964C198.366 18.228 198.894 18.36 199.481 18.36C200.023 18.36 200.522 18.2353 200.977 17.986C201.446 17.722 201.835 17.304 202.143 16.732L204.805 18.184C204.365 19.1373 203.683 19.878 202.759 20.406C201.835 20.9193 200.749 21.176 199.503 21.176ZM219.078 21V9.164H222.488V21H219.078ZM213.116 12.948C214.671 12.9627 215.837 13.3147 216.614 14.004C217.406 14.6787 217.802 15.6393 217.802 16.886C217.802 18.1913 217.355 19.2107 216.46 19.944C215.566 20.6627 214.297 21.022 212.654 21.022L206.89 21V9.164H210.3V12.948H213.116ZM212.346 18.58C213.006 18.5947 213.512 18.4553 213.864 18.162C214.216 17.8687 214.392 17.4287 214.392 16.842C214.392 16.2553 214.216 15.8373 213.864 15.588C213.512 15.324 213.006 15.1847 212.346 15.17L210.3 15.148V18.58H212.346ZM229.501 15.654C229.501 15.1407 229.581 14.686 229.743 14.29C229.919 13.894 230.131 13.542 230.381 13.234C230.645 12.926 230.923 12.64 231.217 12.376C231.51 12.112 231.781 11.8627 232.031 11.628C232.295 11.3787 232.507 11.122 232.669 10.858C232.845 10.594 232.933 10.3007 232.933 9.978C232.933 9.45 232.713 9.02467 232.273 8.702C231.847 8.37933 231.275 8.218 230.557 8.218C229.867 8.218 229.251 8.36467 228.709 8.658C228.166 8.93667 227.719 9.33267 227.367 9.846L224.705 8.284C225.291 7.38933 226.105 6.678 227.147 6.15C228.188 5.60733 229.449 5.336 230.931 5.336C232.031 5.336 232.999 5.49733 233.835 5.82C234.671 6.128 235.323 6.58267 235.793 7.184C236.277 7.78533 236.519 8.526 236.519 9.406C236.519 9.978 236.431 10.484 236.255 10.924C236.079 11.364 235.851 11.7453 235.573 12.068C235.294 12.3907 234.993 12.6913 234.671 12.97C234.363 13.2487 234.069 13.52 233.791 13.784C233.512 14.048 233.277 14.3267 233.087 14.62C232.911 14.9133 232.823 15.258 232.823 15.654H229.501ZM231.173 21.176C230.557 21.176 230.051 20.978 229.655 20.582C229.259 20.186 229.061 19.7167 229.061 19.174C229.061 18.6167 229.259 18.1547 229.655 17.788C230.051 17.4067 230.557 17.216 231.173 17.216C231.803 17.216 232.309 17.4067 232.691 17.788C233.087 18.1547 233.285 18.6167 233.285 19.174C233.285 19.7167 233.087 20.186 232.691 20.582C232.309 20.978 231.803 21.176 231.173 21.176Z" fill="white"/>
<path d="M1.652 58V48.2H9.898V58H8.876V48.816L9.142 49.096H2.408L2.674 48.816V58H1.652ZM15.9907 58.07C15.2814 58.07 14.6421 57.9113 14.0727 57.594C13.5127 57.2673 13.0694 56.824 12.7427 56.264C12.4161 55.6947 12.2527 55.046 12.2527 54.318C12.2527 53.5807 12.4161 52.932 12.7427 52.372C13.0694 51.812 13.5127 51.3733 14.0727 51.056C14.6327 50.7387 15.2721 50.58 15.9907 50.58C16.7187 50.58 17.3627 50.7387 17.9227 51.056C18.4921 51.3733 18.9354 51.812 19.2527 52.372C19.5794 52.932 19.7427 53.5807 19.7427 54.318C19.7427 55.046 19.5794 55.6947 19.2527 56.264C18.9354 56.824 18.4921 57.2673 17.9227 57.594C17.3534 57.9113 16.7094 58.07 15.9907 58.07ZM15.9907 57.188C16.5227 57.188 16.9941 57.0713 17.4047 56.838C17.8154 56.5953 18.1374 56.2593 18.3707 55.83C18.6134 55.3913 18.7347 54.8873 18.7347 54.318C18.7347 53.7393 18.6134 53.2353 18.3707 52.806C18.1374 52.3767 17.8154 52.0453 17.4047 51.812C16.9941 51.5693 16.5274 51.448 16.0047 51.448C15.4821 51.448 15.0154 51.5693 14.6047 51.812C14.1941 52.0453 13.8674 52.3767 13.6247 52.806C13.3821 53.2353 13.2607 53.7393 13.2607 54.318C13.2607 54.8873 13.3821 55.3913 13.6247 55.83C13.8674 56.2593 14.1941 56.5953 14.6047 56.838C15.0154 57.0713 15.4774 57.188 15.9907 57.188ZM20.4821 57.986L20.5521 57.132C20.6174 57.1413 20.6781 57.1553 20.7341 57.174C20.7994 57.1833 20.8554 57.188 20.9021 57.188C21.2008 57.188 21.4388 57.076 21.6161 56.852C21.8028 56.628 21.9428 56.3293 22.0361 55.956C22.1294 55.5827 22.1948 55.1627 22.2321 54.696C22.2694 54.22 22.3021 53.744 22.3301 53.268L22.4561 50.65H27.8461V58H26.8521V51.224L27.1041 51.518H23.1001L23.3381 51.21L23.2261 53.338C23.1981 53.9727 23.1468 54.5793 23.0721 55.158C23.0068 55.7367 22.8994 56.2453 22.7501 56.684C22.6101 57.1227 22.4141 57.468 22.1621 57.72C21.9101 57.9627 21.5881 58.084 21.1961 58.084C21.0841 58.084 20.9674 58.0747 20.8461 58.056C20.7341 58.0373 20.6128 58.014 20.4821 57.986ZM30.7978 60.786C30.4525 60.786 30.1211 60.73 29.8038 60.618C29.4958 60.506 29.2298 60.338 29.0058 60.114L29.4678 59.372C29.6545 59.5493 29.8551 59.6847 30.0698 59.778C30.2938 59.8807 30.5411 59.932 30.8118 59.932C31.1385 59.932 31.4185 59.8387 31.6518 59.652C31.8945 59.4747 32.1231 59.1573 32.3378 58.7L32.8138 57.622L32.9258 57.468L35.9498 50.65H36.9298L33.2478 58.882C33.0425 59.358 32.8138 59.736 32.5618 60.016C32.3191 60.296 32.0531 60.492 31.7638 60.604C31.4745 60.7253 31.1525 60.786 30.7978 60.786ZM32.7578 58.21L29.3698 50.65H30.4058L33.4018 57.398L32.7578 58.21ZM43.1265 54.892C42.6971 55.0787 42.2631 55.228 41.8245 55.34C41.3951 55.4427 40.9658 55.494 40.5365 55.494C39.6685 55.494 38.9825 55.298 38.4785 54.906C37.9745 54.5047 37.7225 53.8887 37.7225 53.058V50.65H38.7025V53.002C38.7025 53.562 38.8845 53.982 39.2485 54.262C39.6125 54.542 40.1025 54.682 40.7185 54.682C41.0918 54.682 41.4838 54.6353 41.8945 54.542C42.3051 54.4393 42.7205 54.2947 43.1405 54.108L43.1265 54.892ZM43.0425 58V50.65H44.0365V58H43.0425ZM46.8593 58V50.65H47.8533V56.488L52.7673 50.65H53.6493V58H52.6553V52.148L47.7553 58H46.8593ZM57.898 58V51.252L58.15 51.518H55.112V50.65H61.678V51.518H58.64L58.892 51.252V58H57.898ZM65.9234 58.07C65.158 58.07 64.486 57.9113 63.9074 57.594C63.3287 57.2673 62.876 56.824 62.5494 56.264C62.2227 55.6947 62.0594 55.046 62.0594 54.318C62.0594 53.59 62.2134 52.946 62.5214 52.386C62.8387 51.826 63.268 51.3873 63.8094 51.07C64.36 50.7433 64.976 50.58 65.6574 50.58C66.348 50.58 66.9594 50.7387 67.4914 51.056C68.0327 51.364 68.4574 51.8027 68.7654 52.372C69.0734 52.932 69.2274 53.5807 69.2274 54.318C69.2274 54.3647 69.2227 54.416 69.2134 54.472C69.2134 54.5187 69.2134 54.57 69.2134 54.626H62.8154V53.884H68.6814L68.2894 54.178C68.2894 53.646 68.1727 53.1747 67.9394 52.764C67.7154 52.344 67.4074 52.0173 67.0154 51.784C66.6234 51.5507 66.1707 51.434 65.6574 51.434C65.1534 51.434 64.7007 51.5507 64.2994 51.784C63.898 52.0173 63.5854 52.344 63.3614 52.764C63.1374 53.184 63.0254 53.6647 63.0254 54.206V54.36C63.0254 54.92 63.1467 55.4147 63.3894 55.844C63.6414 56.264 63.9867 56.5953 64.4254 56.838C64.8734 57.0713 65.382 57.188 65.9514 57.188C66.3994 57.188 66.8147 57.1087 67.1974 56.95C67.5894 56.7913 67.9254 56.5487 68.2054 56.222L68.7654 56.866C68.4387 57.258 68.028 57.5567 67.5334 57.762C67.048 57.9673 66.5114 58.07 65.9234 58.07ZM78.3957 58.084C77.7984 58.084 77.2664 57.986 76.7997 57.79C76.3424 57.594 75.9504 57.2953 75.6237 56.894C75.2971 56.4927 75.0497 55.998 74.8817 55.41C74.7137 54.8127 74.6297 54.122 74.6297 53.338C74.6297 52.638 74.6951 52.0267 74.8257 51.504C74.9564 50.972 75.1384 50.5147 75.3717 50.132C75.6051 49.7493 75.8757 49.4273 76.1837 49.166C76.5011 48.8953 76.8417 48.6807 77.2057 48.522C77.5791 48.354 77.9617 48.228 78.3537 48.144L81.6577 47.374L81.8257 48.298L78.7177 48.998C78.5217 49.0447 78.2837 49.11 78.0037 49.194C77.7331 49.278 77.4531 49.404 77.1637 49.572C76.8837 49.74 76.6224 49.9733 76.3797 50.272C76.1371 50.5707 75.9411 50.958 75.7917 51.434C75.6517 51.9007 75.5817 52.484 75.5817 53.184C75.5817 53.3333 75.5864 53.4547 75.5957 53.548C75.6051 53.632 75.6144 53.7253 75.6237 53.828C75.6424 53.9213 75.6564 54.0613 75.6657 54.248L75.2317 53.884C75.3344 53.3147 75.5444 52.82 75.8617 52.4C76.1791 51.9707 76.5757 51.6393 77.0517 51.406C77.5371 51.1633 78.0737 51.042 78.6617 51.042C79.3431 51.042 79.9497 51.1913 80.4817 51.49C81.0137 51.7793 81.4291 52.1853 81.7277 52.708C82.0357 53.2307 82.1897 53.8373 82.1897 54.528C82.1897 55.2093 82.0311 55.8207 81.7137 56.362C81.4057 56.9033 80.9671 57.328 80.3977 57.636C79.8284 57.9347 79.1611 58.084 78.3957 58.084ZM78.5077 57.258C79.0304 57.258 79.4924 57.1413 79.8937 56.908C80.2951 56.6653 80.6077 56.3387 80.8317 55.928C81.0651 55.5173 81.1817 55.0553 81.1817 54.542C81.1817 54.038 81.0651 53.59 80.8317 53.198C80.6077 52.806 80.2951 52.498 79.8937 52.274C79.4924 52.0407 79.0257 51.924 78.4937 51.924C77.9711 51.924 77.5091 52.036 77.1077 52.26C76.7064 52.4747 76.3891 52.778 76.1557 53.17C75.9317 53.562 75.8197 54.0147 75.8197 54.528C75.8197 55.0413 75.9317 55.5033 76.1557 55.914C76.3891 56.3247 76.7064 56.6513 77.1077 56.894C77.5184 57.1367 77.9851 57.258 78.5077 57.258ZM87.4703 58.07C86.7049 58.07 86.0329 57.9113 85.4543 57.594C84.8756 57.2673 84.4229 56.824 84.0963 56.264C83.7696 55.6947 83.6063 55.046 83.6063 54.318C83.6063 53.59 83.7603 52.946 84.0683 52.386C84.3856 51.826 84.8149 51.3873 85.3563 51.07C85.9069 50.7433 86.5229 50.58 87.2043 50.58C87.8949 50.58 88.5063 50.7387 89.0383 51.056C89.5796 51.364 90.0043 51.8027 90.3123 52.372C90.6203 52.932 90.7743 53.5807 90.7743 54.318C90.7743 54.3647 90.7696 54.416 90.7603 54.472C90.7603 54.5187 90.7603 54.57 90.7603 54.626H84.3623V53.884H90.2283L89.8363 54.178C89.8363 53.646 89.7196 53.1747 89.4863 52.764C89.2623 52.344 88.9543 52.0173 88.5623 51.784C88.1703 51.5507 87.7176 51.434 87.2043 51.434C86.7003 51.434 86.2476 51.5507 85.8463 51.784C85.4449 52.0173 85.1323 52.344 84.9083 52.764C84.6843 53.184 84.5723 53.6647 84.5723 54.206V54.36C84.5723 54.92 84.6936 55.4147 84.9363 55.844C85.1883 56.264 85.5336 56.5953 85.9723 56.838C86.4203 57.0713 86.9289 57.188 87.4983 57.188C87.9463 57.188 88.3616 57.1087 88.7443 56.95C89.1363 56.7913 89.4723 56.5487 89.7523 56.222L90.3123 56.866C89.9856 57.258 89.5749 57.5567 89.0803 57.762C88.5949 57.9673 88.0583 58.07 87.4703 58.07ZM96.0545 58.07C95.3265 58.07 94.6732 57.9113 94.0945 57.594C93.5252 57.2673 93.0772 56.824 92.7505 56.264C92.4239 55.6947 92.2605 55.046 92.2605 54.318C92.2605 53.5807 92.4239 52.932 92.7505 52.372C93.0772 51.812 93.5252 51.3733 94.0945 51.056C94.6732 50.7387 95.3265 50.58 96.0545 50.58C96.6799 50.58 97.2445 50.7013 97.7485 50.944C98.2525 51.1867 98.6492 51.5507 98.9385 52.036L98.1965 52.54C97.9445 52.1667 97.6319 51.8913 97.2585 51.714C96.8852 51.5367 96.4792 51.448 96.0405 51.448C95.5179 51.448 95.0465 51.5693 94.6265 51.812C94.2065 52.0453 93.8752 52.3767 93.6325 52.806C93.3899 53.2353 93.2685 53.7393 93.2685 54.318C93.2685 54.8967 93.3899 55.4007 93.6325 55.83C93.8752 56.2593 94.2065 56.5953 94.6265 56.838C95.0465 57.0713 95.5179 57.188 96.0405 57.188C96.4792 57.188 96.8852 57.0993 97.2585 56.922C97.6319 56.7447 97.9445 56.474 98.1965 56.11L98.9385 56.614C98.6492 57.09 98.2525 57.454 97.7485 57.706C97.2445 57.9487 96.6799 58.07 96.0545 58.07ZM100.863 58V50.65H107.471V58H106.477V51.252L106.729 51.518H101.605L101.857 51.252V58H100.863ZM108.953 57.986L109.023 57.132C109.088 57.1413 109.149 57.1553 109.205 57.174C109.27 57.1833 109.326 57.188 109.373 57.188C109.671 57.188 109.909 57.076 110.087 56.852C110.273 56.628 110.413 56.3293 110.507 55.956C110.6 55.5827 110.665 55.1627 110.703 54.696C110.74 54.22 110.773 53.744 110.801 53.268L110.927 50.65H116.317V58H115.323V51.224L115.575 51.518H111.571L111.809 51.21L111.697 53.338C111.669 53.9727 111.617 54.5793 111.543 55.158C111.477 55.7367 111.37 56.2453 111.221 56.684C111.081 57.1227 110.885 57.468 110.633 57.72C110.381 57.9627 110.059 58.084 109.667 58.084C109.555 58.084 109.438 58.0747 109.317 58.056C109.205 58.0373 109.083 58.014 108.953 57.986ZM123.707 58V56.376L123.665 56.11V53.394C123.665 52.7687 123.487 52.288 123.133 51.952C122.787 51.616 122.269 51.448 121.579 51.448C121.103 51.448 120.65 51.5273 120.221 51.686C119.791 51.8447 119.427 52.0547 119.129 52.316L118.681 51.574C119.054 51.2567 119.502 51.014 120.025 50.846C120.547 50.6687 121.098 50.58 121.677 50.58C122.629 50.58 123.361 50.818 123.875 51.294C124.397 51.7607 124.659 52.4747 124.659 53.436V58H123.707ZM121.173 58.07C120.622 58.07 120.141 57.9813 119.731 57.804C119.329 57.6173 119.021 57.3653 118.807 57.048C118.592 56.7213 118.485 56.348 118.485 55.928C118.485 55.5453 118.573 55.2 118.751 54.892C118.937 54.5747 119.236 54.3227 119.647 54.136C120.067 53.94 120.627 53.842 121.327 53.842H123.861V54.584H121.355C120.645 54.584 120.151 54.71 119.871 54.962C119.6 55.214 119.465 55.5267 119.465 55.9C119.465 56.32 119.628 56.656 119.955 56.908C120.281 57.16 120.739 57.286 121.327 57.286C121.887 57.286 122.367 57.16 122.769 56.908C123.179 56.6467 123.478 56.2733 123.665 55.788L123.889 56.474C123.702 56.9593 123.375 57.3467 122.909 57.636C122.451 57.9253 121.873 58.07 121.173 58.07ZM128.705 58V51.252L128.957 51.518H125.919V50.65H132.485V51.518H129.447L129.699 51.252V58H128.705ZM133.922 58V50.65H134.916V53.898H139.55V50.65H140.544V58H139.55V54.752H134.916V58H133.922ZM143.495 60.786C143.15 60.786 142.818 60.73 142.501 60.618C142.193 60.506 141.927 60.338 141.703 60.114L142.165 59.372C142.352 59.5493 142.552 59.6847 142.767 59.778C142.991 59.8807 143.238 59.932 143.509 59.932C143.836 59.932 144.116 59.8387 144.349 59.652C144.592 59.4747 144.82 59.1573 145.035 58.7L145.511 57.622L145.623 57.468L148.647 50.65H149.627L145.945 58.882C145.74 59.358 145.511 59.736 145.259 60.016C145.016 60.296 144.75 60.492 144.461 60.604C144.172 60.7253 143.85 60.786 143.495 60.786ZM145.455 58.21L142.067 50.65H143.103L146.099 57.398L145.455 58.21ZM151.176 58V50.65H152.17V53.814H154.41V54.724H152.17V58H151.176ZM157.504 58.07C156.804 58.07 156.174 57.9113 155.614 57.594C155.063 57.2673 154.629 56.824 154.312 56.264C153.994 55.6947 153.836 55.046 153.836 54.318C153.836 53.5807 153.994 52.932 154.312 52.372C154.629 51.812 155.063 51.3733 155.614 51.056C156.174 50.7387 156.804 50.58 157.504 50.58C158.204 50.58 158.829 50.7387 159.38 51.056C159.93 51.3733 160.364 51.812 160.682 52.372C160.999 52.932 161.158 53.5807 161.158 54.318C161.158 55.046 160.999 55.6947 160.682 56.264C160.364 56.824 159.93 57.2673 159.38 57.594C158.829 57.9113 158.204 58.07 157.504 58.07ZM157.504 57.202C158.017 57.202 158.474 57.0807 158.876 56.838C159.277 56.5953 159.594 56.2593 159.828 55.83C160.061 55.3913 160.178 54.8873 160.178 54.318C160.178 53.7393 160.061 53.2353 159.828 52.806C159.594 52.3767 159.277 52.0453 158.876 51.812C158.474 51.5693 158.017 51.448 157.504 51.448C157 51.448 156.542 51.5693 156.132 51.812C155.73 52.0453 155.413 52.3767 155.18 52.806C154.946 53.2353 154.83 53.7393 154.83 54.318C154.83 54.8873 154.946 55.3913 155.18 55.83C155.413 56.2593 155.73 56.5953 156.132 56.838C156.542 57.0807 157 57.202 157.504 57.202ZM172.343 58L169.319 54.36L170.145 53.87L173.519 58H172.343ZM166.953 58V50.65H167.947V58H166.953ZM167.639 54.724V53.87H170.005V54.724H167.639ZM170.229 54.43L169.305 54.29L172.231 50.65H173.309L170.229 54.43ZM177.852 58.07C177.143 58.07 176.503 57.9113 175.934 57.594C175.374 57.2673 174.931 56.824 174.604 56.264C174.277 55.6947 174.114 55.046 174.114 54.318C174.114 53.5807 174.277 52.932 174.604 52.372C174.931 51.812 175.374 51.3733 175.934 51.056C176.494 50.7387 177.133 50.58 177.852 50.58C178.58 50.58 179.224 50.7387 179.784 51.056C180.353 51.3733 180.797 51.812 181.114 52.372C181.441 52.932 181.604 53.5807 181.604 54.318C181.604 55.046 181.441 55.6947 181.114 56.264C180.797 56.824 180.353 57.2673 179.784 57.594C179.215 57.9113 178.571 58.07 177.852 58.07ZM177.852 57.188C178.384 57.188 178.855 57.0713 179.266 56.838C179.677 56.5953 179.999 56.2593 180.232 55.83C180.475 55.3913 180.596 54.8873 180.596 54.318C180.596 53.7393 180.475 53.2353 180.232 52.806C179.999 52.3767 179.677 52.0453 179.266 51.812C178.855 51.5693 178.389 51.448 177.866 51.448C177.343 51.448 176.877 51.5693 176.466 51.812C176.055 52.0453 175.729 52.3767 175.486 52.806C175.243 53.2353 175.122 53.7393 175.122 54.318C175.122 54.8873 175.243 55.3913 175.486 55.83C175.729 56.2593 176.055 56.5953 176.466 56.838C176.877 57.0713 177.339 57.188 177.852 57.188ZM183.728 58V50.65H184.722V53.898H189.356V50.65H190.35V58H189.356V54.752H184.722V58H183.728ZM196.256 58.07C195.528 58.07 194.874 57.9113 194.296 57.594C193.726 57.2673 193.278 56.824 192.952 56.264C192.625 55.6947 192.462 55.046 192.462 54.318C192.462 53.5807 192.625 52.932 192.952 52.372C193.278 51.812 193.726 51.3733 194.296 51.056C194.874 50.7387 195.528 50.58 196.256 50.58C196.881 50.58 197.446 50.7013 197.95 50.944C198.454 51.1867 198.85 51.5507 199.14 52.036L198.398 52.54C198.146 52.1667 197.833 51.8913 197.46 51.714C197.086 51.5367 196.68 51.448 196.242 51.448C195.719 51.448 195.248 51.5693 194.828 51.812C194.408 52.0453 194.076 52.3767 193.834 52.806C193.591 53.2353 193.47 53.7393 193.47 54.318C193.47 54.8967 193.591 55.4007 193.834 55.83C194.076 56.2593 194.408 56.5953 194.828 56.838C195.248 57.0713 195.719 57.188 196.242 57.188C196.68 57.188 197.086 57.0993 197.46 56.922C197.833 56.7447 198.146 56.474 198.398 56.11L199.14 56.614C198.85 57.09 198.454 57.454 197.95 57.706C197.446 57.9487 196.881 58.07 196.256 58.07ZM201.081 60.786C200.736 60.786 200.404 60.73 200.087 60.618C199.779 60.506 199.513 60.338 199.289 60.114L199.751 59.372C199.938 59.5493 200.138 59.6847 200.353 59.778C200.577 59.8807 200.824 59.932 201.095 59.932C201.422 59.932 201.702 59.8387 201.935 59.652C202.178 59.4747 202.406 59.1573 202.621 58.7L203.097 57.622L203.209 57.468L206.233 50.65H207.213L203.531 58.882C203.326 59.358 203.097 59.736 202.845 60.016C202.602 60.296 202.336 60.492 202.047 60.604C201.758 60.7253 201.436 60.786 201.081 60.786ZM203.041 58.21L199.653 50.65H200.689L203.685 57.398L203.041 58.21ZM207.103 57.986L207.173 57.132C207.239 57.1413 207.299 57.1553 207.355 57.174C207.421 57.1833 207.477 57.188 207.523 57.188C207.822 57.188 208.06 57.076 208.237 56.852C208.424 56.628 208.564 56.3293 208.657 55.956C208.751 55.5827 208.816 55.1627 208.853 54.696C208.891 54.22 208.923 53.744 208.951 53.268L209.077 50.65H214.467V58H213.473V51.224L213.725 51.518H209.721L209.959 51.21L209.847 53.338C209.819 53.9727 209.768 54.5793 209.693 55.158C209.628 55.7367 209.521 56.2453 209.371 56.684C209.231 57.1227 209.035 57.468 208.783 57.72C208.531 57.9627 208.209 58.084 207.817 58.084C207.705 58.084 207.589 58.0747 207.467 58.056C207.355 58.0373 207.234 58.014 207.103 57.986ZM220.457 53.24C221.381 53.2493 222.081 53.4547 222.557 53.856C223.042 54.2573 223.285 54.836 223.285 55.592C223.285 56.376 223.024 56.978 222.501 57.398C221.988 57.818 221.241 58.0233 220.261 58.014L217.293 58V50.65H218.287V53.212L220.457 53.24ZM220.205 57.258C220.886 57.2673 221.4 57.132 221.745 56.852C222.1 56.5627 222.277 56.1427 222.277 55.592C222.277 55.0413 222.104 54.64 221.759 54.388C221.414 54.1267 220.896 53.9913 220.205 53.982L218.287 53.954V57.23L220.205 57.258ZM225.843 58V51.252L226.095 51.518H223.057V50.65H229.623V51.518H226.585L226.837 51.252V58H225.843ZM235.624 58V56.376L235.582 56.11V53.394C235.582 52.7687 235.405 52.288 235.05 51.952C234.705 51.616 234.187 51.448 233.496 51.448C233.02 51.448 232.568 51.5273 232.138 51.686C231.709 51.8447 231.345 52.0547 231.046 52.316L230.598 51.574C230.972 51.2567 231.42 51.014 231.942 50.846C232.465 50.6687 233.016 50.58 233.594 50.58C234.546 50.58 235.279 50.818 235.792 51.294C236.315 51.7607 236.576 52.4747 236.576 53.436V58H235.624ZM233.09 58.07C232.54 58.07 232.059 57.9813 231.648 57.804C231.247 57.6173 230.939 57.3653 230.724 57.048C230.51 56.7213 230.402 56.348 230.402 55.928C230.402 55.5453 230.491 55.2 230.668 54.892C230.855 54.5747 231.154 54.3227 231.564 54.136C231.984 53.94 232.544 53.842 233.244 53.842H235.778V54.584H233.272C232.563 54.584 232.068 54.71 231.788 54.962C231.518 55.214 231.382 55.5267 231.382 55.9C231.382 56.32 231.546 56.656 231.872 56.908C232.199 57.16 232.656 57.286 233.244 57.286C233.804 57.286 234.285 57.16 234.686 56.908C235.097 56.6467 235.396 56.2733 235.582 55.788L235.806 56.474C235.62 56.9593 235.293 57.3467 234.826 57.636C234.369 57.9253 233.79 58.07 233.09 58.07ZM239.223 58V50.65H240.217V57.132H244.711V50.65H245.705V58H239.223ZM245.957 59.778V57.916L246.209 58H244.711V57.132H246.895V59.778H245.957ZM248.793 58V50.65H249.787V56.488L254.701 50.65H255.583V58H254.589V52.148L249.689 58H248.793ZM258.432 58V50.65H259.426V53.814H261.666V54.724H259.426V58H258.432ZM264.76 58.07C264.06 58.07 263.43 57.9113 262.87 57.594C262.319 57.2673 261.885 56.824 261.568 56.264C261.25 55.6947 261.092 55.046 261.092 54.318C261.092 53.5807 261.25 52.932 261.568 52.372C261.885 51.812 262.319 51.3733 262.87 51.056C263.43 50.7387 264.06 50.58 264.76 50.58C265.46 50.58 266.085 50.7387 266.636 51.056C267.186 51.3733 267.62 51.812 267.938 52.372C268.255 52.932 268.414 53.5807 268.414 54.318C268.414 55.046 268.255 55.6947 267.938 56.264C267.62 56.824 267.186 57.2673 266.636 57.594C266.085 57.9113 265.46 58.07 264.76 58.07ZM264.76 57.202C265.273 57.202 265.73 57.0807 266.132 56.838C266.533 56.5953 266.85 56.2593 267.084 55.83C267.317 55.3913 267.434 54.8873 267.434 54.318C267.434 53.7393 267.317 53.2353 267.084 52.806C266.85 52.3767 266.533 52.0453 266.132 51.812C265.73 51.5693 265.273 51.448 264.76 51.448C264.256 51.448 263.798 51.5693 263.388 51.812C262.986 52.0453 262.669 52.3767 262.436 52.806C262.202 53.2353 262.086 53.7393 262.086 54.318C262.086 54.8873 262.202 55.3913 262.436 55.83C262.669 56.2593 262.986 56.5953 263.388 56.838C263.798 57.0807 264.256 57.202 264.76 57.202ZM4.494 80.07C3.766 80.07 3.11267 79.9113 2.534 79.594C1.96467 79.2673 1.51667 78.824 1.19 78.264C0.863333 77.6947 0.7 77.046 0.7 76.318C0.7 75.5807 0.863333 74.932 1.19 74.372C1.51667 73.812 1.96467 73.3733 2.534 73.056C3.11267 72.7387 3.766 72.58 4.494 72.58C5.11933 72.58 5.684 72.7013 6.188 72.944C6.692 73.1867 7.08867 73.5507 7.378 74.036L6.636 74.54C6.384 74.1667 6.07133 73.8913 5.698 73.714C5.32467 73.5367 4.91867 73.448 4.48 73.448C3.95733 73.448 3.486 73.5693 3.066 73.812C2.646 74.0453 2.31467 74.3767 2.072 74.806C1.82933 75.2353 1.708 75.7393 1.708 76.318C1.708 76.8967 1.82933 77.4007 2.072 77.83C2.31467 78.2593 2.646 78.5953 3.066 78.838C3.486 79.0713 3.95733 79.188 4.48 79.188C4.91867 79.188 5.32467 79.0993 5.698 78.922C6.07133 78.7447 6.384 78.474 6.636 78.11L7.378 78.614C7.08867 79.09 6.692 79.454 6.188 79.706C5.684 79.9487 5.11933 80.07 4.494 80.07ZM9.30267 80V72.65H15.9107V80H14.9167V73.252L15.1687 73.518H10.0447L10.2967 73.252V80H9.30267ZM21.8863 80.07C21.1209 80.07 20.4489 79.9113 19.8703 79.594C19.2916 79.2673 18.8389 78.824 18.5123 78.264C18.1856 77.6947 18.0223 77.046 18.0223 76.318C18.0223 75.59 18.1763 74.946 18.4843 74.386C18.8016 73.826 19.2309 73.3873 19.7723 73.07C20.3229 72.7433 20.9389 72.58 21.6203 72.58C22.3109 72.58 22.9223 72.7387 23.4543 73.056C23.9956 73.364 24.4203 73.8027 24.7283 74.372C25.0363 74.932 25.1903 75.5807 25.1903 76.318C25.1903 76.3647 25.1856 76.416 25.1763 76.472C25.1763 76.5187 25.1763 76.57 25.1763 76.626H18.7783V75.884H24.6443L24.2523 76.178C24.2523 75.646 24.1356 75.1747 23.9023 74.764C23.6783 74.344 23.3703 74.0173 22.9783 73.784C22.5863 73.5507 22.1336 73.434 21.6203 73.434C21.1163 73.434 20.6636 73.5507 20.2623 73.784C19.8609 74.0173 19.5483 74.344 19.3243 74.764C19.1003 75.184 18.9883 75.6647 18.9883 76.206V76.36C18.9883 76.92 19.1096 77.4147 19.3523 77.844C19.6043 78.264 19.9496 78.5953 20.3883 78.838C20.8363 79.0713 21.3449 79.188 21.9143 79.188C22.3623 79.188 22.7776 79.1087 23.1603 78.95C23.5523 78.7913 23.8883 78.5487 24.1683 78.222L24.7283 78.866C24.4016 79.258 23.9909 79.5567 23.4963 79.762C23.0109 79.9673 22.4743 80.07 21.8863 80.07ZM27.3906 80V72.65H28.3846V79.132H32.8786V72.65H33.8726V80H27.3906ZM34.1246 81.778V79.916L34.3766 80H32.8786V79.132H35.0626V81.778H34.1246ZM36.9609 80V72.65H37.9549V78.488L42.8689 72.65H43.7509V80H42.7569V74.148L37.8569 80H36.9609ZM51.1635 80V78.376L51.1215 78.11V75.394C51.1215 74.7687 50.9442 74.288 50.5895 73.952C50.2442 73.616 49.7262 73.448 49.0355 73.448C48.5595 73.448 48.1069 73.5273 47.6775 73.686C47.2482 73.8447 46.8842 74.0547 46.5855 74.316L46.1375 73.574C46.5109 73.2567 46.9589 73.014 47.4815 72.846C48.0042 72.6687 48.5549 72.58 49.1335 72.58C50.0855 72.58 50.8182 72.818 51.3315 73.294C51.8542 73.7607 52.1155 74.4747 52.1155 75.436V80H51.1635ZM48.6295 80.07C48.0789 80.07 47.5982 79.9813 47.1875 79.804C46.7862 79.6173 46.4782 79.3653 46.2635 79.048C46.0489 78.7213 45.9415 78.348 45.9415 77.928C45.9415 77.5453 46.0302 77.2 46.2075 76.892C46.3942 76.5747 46.6929 76.3227 47.1035 76.136C47.5235 75.94 48.0835 75.842 48.7835 75.842H51.3175V76.584H48.8115C48.1022 76.584 47.6075 76.71 47.3275 76.962C47.0569 77.214 46.9215 77.5267 46.9215 77.9C46.9215 78.32 47.0849 78.656 47.4115 78.908C47.7382 79.16 48.1955 79.286 48.7835 79.286C49.3435 79.286 49.8242 79.16 50.2255 78.908C50.6362 78.6467 50.9349 78.2733 51.1215 77.788L51.3455 78.474C51.1589 78.9593 50.8322 79.3467 50.3655 79.636C49.9082 79.9253 49.3295 80.07 48.6295 80.07ZM53.4177 79.986L53.4877 79.132C53.553 79.1413 53.6137 79.1553 53.6697 79.174C53.735 79.1833 53.791 79.188 53.8377 79.188C54.1363 79.188 54.3743 79.076 54.5517 78.852C54.7383 78.628 54.8783 78.3293 54.9717 77.956C55.065 77.5827 55.1303 77.1627 55.1677 76.696C55.205 76.22 55.2377 75.744 55.2657 75.268L55.3917 72.65H60.7817V80H59.7877V73.224L60.0397 73.518H56.0357L56.2737 73.21L56.1617 75.338C56.1337 75.9727 56.0823 76.5793 56.0077 77.158C55.9423 77.7367 55.835 78.2453 55.6857 78.684C55.5457 79.1227 55.3497 79.468 55.0977 79.72C54.8457 79.9627 54.5237 80.084 54.1317 80.084C54.0197 80.084 53.903 80.0747 53.7817 80.056C53.6697 80.0373 53.5483 80.014 53.4177 79.986ZM63.6074 80V72.65H64.6014V78.488L69.5154 72.65H70.3974V80H69.4034V74.148L64.5034 80H63.6074ZM76.326 80.07C75.598 80.07 74.9447 79.9113 74.366 79.594C73.7967 79.2673 73.3487 78.824 73.022 78.264C72.6954 77.6947 72.532 77.046 72.532 76.318C72.532 75.5807 72.6954 74.932 73.022 74.372C73.3487 73.812 73.7967 73.3733 74.366 73.056C74.9447 72.7387 75.598 72.58 76.326 72.58C76.9514 72.58 77.516 72.7013 78.02 72.944C78.524 73.1867 78.9207 73.5507 79.21 74.036L78.468 74.54C78.216 74.1667 77.9034 73.8913 77.53 73.714C77.1567 73.5367 76.7507 73.448 76.312 73.448C75.7894 73.448 75.318 73.5693 74.898 73.812C74.478 74.0453 74.1467 74.3767 73.904 74.806C73.6614 75.2353 73.54 75.7393 73.54 76.318C73.54 76.8967 73.6614 77.4007 73.904 77.83C74.1467 78.2593 74.478 78.5953 74.898 78.838C75.318 79.0713 75.7894 79.188 76.312 79.188C76.7507 79.188 77.1567 79.0993 77.53 78.922C77.9034 78.7447 78.216 78.474 78.468 78.11L79.21 78.614C78.9207 79.09 78.524 79.454 78.02 79.706C77.516 79.9487 76.9514 80.07 76.326 80.07ZM82.398 80V73.252L82.65 73.518H79.612V72.65H86.178V73.518H83.14L83.392 73.252V80H82.398ZM92.1792 80V78.376L92.1372 78.11V75.394C92.1372 74.7687 91.9598 74.288 91.6052 73.952C91.2598 73.616 90.7418 73.448 90.0512 73.448C89.5752 73.448 89.1225 73.5273 88.6932 73.686C88.2638 73.8447 87.8998 74.0547 87.6012 74.316L87.1532 73.574C87.5265 73.2567 87.9745 73.014 88.4972 72.846C89.0198 72.6687 89.5705 72.58 90.1492 72.58C91.1012 72.58 91.8338 72.818 92.3472 73.294C92.8698 73.7607 93.1312 74.4747 93.1312 75.436V80H92.1792ZM89.6452 80.07C89.0945 80.07 88.6138 79.9813 88.2032 79.804C87.8018 79.6173 87.4938 79.3653 87.2792 79.048C87.0645 78.7213 86.9572 78.348 86.9572 77.928C86.9572 77.5453 87.0458 77.2 87.2232 76.892C87.4098 76.5747 87.7085 76.3227 88.1192 76.136C88.5392 75.94 89.0992 75.842 89.7992 75.842H92.3332V76.584H89.8272C89.1178 76.584 88.6232 76.71 88.3432 76.962C88.0725 77.214 87.9372 77.5267 87.9372 77.9C87.9372 78.32 88.1005 78.656 88.4272 78.908C88.7538 79.16 89.2112 79.286 89.7992 79.286C90.3592 79.286 90.8398 79.16 91.2412 78.908C91.6518 78.6467 91.9505 78.2733 92.1372 77.788L92.3612 78.474C92.1745 78.9593 91.8478 79.3467 91.3812 79.636C90.9238 79.9253 90.3452 80.07 89.6452 80.07ZM99.4413 80V72.65H106.049V80H105.055V73.252L105.307 73.518H100.183L100.435 73.252V80H99.4413ZM111.899 80.07C111.19 80.07 110.55 79.9113 109.981 79.594C109.421 79.2673 108.978 78.824 108.651 78.264C108.324 77.6947 108.161 77.046 108.161 76.318C108.161 75.5807 108.324 74.932 108.651 74.372C108.978 73.812 109.421 73.3733 109.981 73.056C110.541 72.7387 111.18 72.58 111.899 72.58C112.627 72.58 113.271 72.7387 113.831 73.056C114.4 73.3733 114.844 73.812 115.161 74.372C115.488 74.932 115.651 75.5807 115.651 76.318C115.651 77.046 115.488 77.6947 115.161 78.264C114.844 78.824 114.4 79.2673 113.831 79.594C113.262 79.9113 112.618 80.07 111.899 80.07ZM111.899 79.188C112.431 79.188 112.902 79.0713 113.313 78.838C113.724 78.5953 114.046 78.2593 114.279 77.83C114.522 77.3913 114.643 76.8873 114.643 76.318C114.643 75.7393 114.522 75.2353 114.279 74.806C114.046 74.3767 113.724 74.0453 113.313 73.812C112.902 73.5693 112.436 73.448 111.913 73.448C111.39 73.448 110.924 73.5693 110.513 73.812C110.102 74.0453 109.776 74.3767 109.533 74.806C109.29 75.2353 109.169 75.7393 109.169 76.318C109.169 76.8873 109.29 77.3913 109.533 77.83C109.776 78.2593 110.102 78.5953 110.513 78.838C110.924 79.0713 111.386 79.188 111.899 79.188ZM121.439 80V72.65H128.047V80H127.053V73.252L127.305 73.518H122.181L122.433 73.252V80H121.439ZM133.897 80.07C133.188 80.07 132.548 79.9113 131.979 79.594C131.419 79.2673 130.976 78.824 130.649 78.264C130.322 77.6947 130.159 77.046 130.159 76.318C130.159 75.5807 130.322 74.932 130.649 74.372C130.976 73.812 131.419 73.3733 131.979 73.056C132.539 72.7387 133.178 72.58 133.897 72.58C134.625 72.58 135.269 72.7387 135.829 73.056C136.398 73.3733 136.842 73.812 137.159 74.372C137.486 74.932 137.649 75.5807 137.649 76.318C137.649 77.046 137.486 77.6947 137.159 78.264C136.842 78.824 136.398 79.2673 135.829 79.594C135.26 79.9113 134.616 80.07 133.897 80.07ZM133.897 79.188C134.429 79.188 134.9 79.0713 135.311 78.838C135.722 78.5953 136.044 78.2593 136.277 77.83C136.52 77.3913 136.641 76.8873 136.641 76.318C136.641 75.7393 136.52 75.2353 136.277 74.806C136.044 74.3767 135.722 74.0453 135.311 73.812C134.9 73.5693 134.434 73.448 133.911 73.448C133.388 73.448 132.922 73.5693 132.511 73.812C132.1 74.0453 131.774 74.3767 131.531 74.806C131.288 75.2353 131.167 75.7393 131.167 76.318C131.167 76.8873 131.288 77.3913 131.531 77.83C131.774 78.2593 132.1 78.5953 132.511 78.838C132.922 79.0713 133.384 79.188 133.897 79.188ZM144.772 79.524V73.518H141.23L141.146 75.156C141.128 75.6507 141.095 76.136 141.048 76.612C141.011 77.088 140.941 77.5267 140.838 77.928C140.745 78.32 140.61 78.642 140.432 78.894C140.255 79.1367 140.026 79.2767 139.746 79.314L138.752 79.132C139.042 79.1413 139.28 79.0387 139.466 78.824C139.653 78.6 139.798 78.2967 139.9 77.914C140.003 77.5313 140.078 77.0973 140.124 76.612C140.171 76.1173 140.208 75.6133 140.236 75.1L140.334 72.65H145.766V79.524H144.772ZM138.444 81.778V79.132H146.914V81.778H145.976V80H139.382V81.778H138.444ZM152.156 80.084C151.558 80.084 151.026 79.986 150.56 79.79C150.102 79.594 149.71 79.2953 149.384 78.894C149.057 78.4927 148.81 77.998 148.642 77.41C148.474 76.8127 148.39 76.122 148.39 75.338C148.39 74.638 148.455 74.0267 148.586 73.504C148.716 72.972 148.898 72.5147 149.132 72.132C149.365 71.7493 149.636 71.4273 149.944 71.166C150.261 70.8953 150.602 70.6807 150.966 70.522C151.339 70.354 151.722 70.228 152.114 70.144L155.418 69.374L155.586 70.298L152.478 70.998C152.282 71.0447 152.044 71.11 151.764 71.194C151.493 71.278 151.213 71.404 150.924 71.572C150.644 71.74 150.382 71.9733 150.14 72.272C149.897 72.5707 149.701 72.958 149.552 73.434C149.412 73.9007 149.342 74.484 149.342 75.184C149.342 75.3333 149.346 75.4547 149.356 75.548C149.365 75.632 149.374 75.7253 149.384 75.828C149.402 75.9213 149.416 76.0613 149.426 76.248L148.992 75.884C149.094 75.3147 149.304 74.82 149.622 74.4C149.939 73.9707 150.336 73.6393 150.812 73.406C151.297 73.1633 151.834 73.042 152.422 73.042C153.103 73.042 153.71 73.1913 154.242 73.49C154.774 73.7793 155.189 74.1853 155.488 74.708C155.796 75.2307 155.95 75.8373 155.95 76.528C155.95 77.2093 155.791 77.8207 155.474 78.362C155.166 78.9033 154.727 79.328 154.158 79.636C153.588 79.9347 152.921 80.084 152.156 80.084ZM152.268 79.258C152.79 79.258 153.252 79.1413 153.654 78.908C154.055 78.6653 154.368 78.3387 154.592 77.928C154.825 77.5173 154.942 77.0553 154.942 76.542C154.942 76.038 154.825 75.59 154.592 75.198C154.368 74.806 154.055 74.498 153.654 74.274C153.252 74.0407 152.786 73.924 152.254 73.924C151.731 73.924 151.269 74.036 150.868 74.26C150.466 74.4747 150.149 74.778 149.916 75.17C149.692 75.562 149.58 76.0147 149.58 76.528C149.58 77.0413 149.692 77.5033 149.916 77.914C150.149 78.3247 150.466 78.6513 150.868 78.894C151.278 79.1367 151.745 79.258 152.268 79.258ZM161.104 80.07C160.395 80.07 159.755 79.9113 159.186 79.594C158.626 79.2673 158.183 78.824 157.856 78.264C157.529 77.6947 157.366 77.046 157.366 76.318C157.366 75.5807 157.529 74.932 157.856 74.372C158.183 73.812 158.626 73.3733 159.186 73.056C159.746 72.7387 160.385 72.58 161.104 72.58C161.832 72.58 162.476 72.7387 163.036 73.056C163.605 73.3733 164.049 73.812 164.366 74.372C164.693 74.932 164.856 75.5807 164.856 76.318C164.856 77.046 164.693 77.6947 164.366 78.264C164.049 78.824 163.605 79.2673 163.036 79.594C162.467 79.9113 161.823 80.07 161.104 80.07ZM161.104 79.188C161.636 79.188 162.107 79.0713 162.518 78.838C162.929 78.5953 163.251 78.2593 163.484 77.83C163.727 77.3913 163.848 76.8873 163.848 76.318C163.848 75.7393 163.727 75.2353 163.484 74.806C163.251 74.3767 162.929 74.0453 162.518 73.812C162.107 73.5693 161.641 73.448 161.118 73.448C160.595 73.448 160.129 73.5693 159.718 73.812C159.307 74.0453 158.981 74.3767 158.738 74.806C158.495 75.2353 158.374 75.7393 158.374 76.318C158.374 76.8873 158.495 77.3913 158.738 77.83C158.981 78.2593 159.307 78.5953 159.718 78.838C160.129 79.0713 160.591 79.188 161.104 79.188ZM170.774 80.07C170.14 80.07 169.566 79.9253 169.052 79.636C168.539 79.3373 168.128 78.9127 167.82 78.362C167.522 77.802 167.372 77.1207 167.372 76.318C167.372 75.5153 167.522 74.8387 167.82 74.288C168.119 73.728 168.525 73.3033 169.038 73.014C169.552 72.7247 170.13 72.58 170.774 72.58C171.474 72.58 172.1 72.7387 172.65 73.056C173.21 73.364 173.649 73.8027 173.966 74.372C174.284 74.932 174.442 75.5807 174.442 76.318C174.442 77.0647 174.284 77.718 173.966 78.278C173.649 78.838 173.21 79.2767 172.65 79.594C172.1 79.9113 171.474 80.07 170.774 80.07ZM166.98 82.716V72.65H167.932V74.862L167.834 76.332L167.974 77.816V82.716H166.98ZM170.704 79.188C171.227 79.188 171.694 79.0713 172.104 78.838C172.515 78.5953 172.842 78.2593 173.084 77.83C173.327 77.3913 173.448 76.8873 173.448 76.318C173.448 75.7487 173.327 75.2493 173.084 74.82C172.842 74.3907 172.515 74.0547 172.104 73.812C171.694 73.5693 171.227 73.448 170.704 73.448C170.182 73.448 169.71 73.5693 169.29 73.812C168.88 74.0547 168.553 74.3907 168.31 74.82C168.077 75.2493 167.96 75.7487 167.96 76.318C167.96 76.8873 168.077 77.3913 168.31 77.83C168.553 78.2593 168.88 78.5953 169.29 78.838C169.71 79.0713 170.182 79.188 170.704 79.188ZM176.499 82.786C176.154 82.786 175.822 82.73 175.505 82.618C175.197 82.506 174.931 82.338 174.707 82.114L175.169 81.372C175.356 81.5493 175.556 81.6847 175.771 81.778C175.995 81.8807 176.242 81.932 176.513 81.932C176.84 81.932 177.12 81.8387 177.353 81.652C177.596 81.4747 177.824 81.1573 178.039 80.7L178.515 79.622L178.627 79.468L181.651 72.65H182.631L178.949 80.882C178.744 81.358 178.515 81.736 178.263 82.016C178.02 82.296 177.754 82.492 177.465 82.604C177.176 82.7253 176.854 82.786 176.499 82.786ZM178.459 80.21L175.071 72.65H176.107L179.103 79.398L178.459 80.21Z" fill="white"/>
</svg>
