<svg width="334" height="92" viewBox="0 0 334 92" fill="none" xmlns="http://www.w3.org/2000/svg">
<path d="M10.972 25.312C9.53333 25.312 8.19867 25.078 6.968 24.61C5.75467 24.142 4.69733 23.4833 3.796 22.634C2.912 21.7847 2.21867 20.788 1.716 19.644C1.23067 18.5 0.988 17.252 0.988 15.9C0.988 14.548 1.23067 13.3 1.716 12.156C2.21867 11.012 2.92067 10.0153 3.822 9.166C4.72333 8.31667 5.78067 7.658 6.994 7.19C8.20733 6.722 9.52467 6.488 10.946 6.488C12.3847 6.488 13.702 6.722 14.898 7.19C16.1113 7.658 17.16 8.31667 18.044 9.166C18.9453 10.0153 19.6473 11.012 20.15 12.156C20.6527 13.2827 20.904 14.5307 20.904 15.9C20.904 17.252 20.6527 18.5087 20.15 19.67C19.6473 20.814 18.9453 21.8107 18.044 22.66C17.16 23.492 16.1113 24.142 14.898 24.61C13.702 25.078 12.3933 25.312 10.972 25.312ZM10.946 21.724C11.7607 21.724 12.506 21.5853 13.182 21.308C13.8753 21.0307 14.482 20.632 15.002 20.112C15.522 19.592 15.9207 18.9767 16.198 18.266C16.4927 17.5553 16.64 16.7667 16.64 15.9C16.64 15.0333 16.4927 14.2447 16.198 13.534C15.9207 12.8233 15.522 12.208 15.002 11.688C14.4993 11.168 13.9013 10.7693 13.208 10.492C12.5147 10.2147 11.7607 10.076 10.946 10.076C10.1313 10.076 9.37733 10.2147 8.684 10.492C8.008 10.7693 7.41 11.168 6.89 11.688C6.37 12.208 5.96267 12.8233 5.668 13.534C5.39067 14.2447 5.252 15.0333 5.252 15.9C5.252 16.7493 5.39067 17.538 5.668 18.266C5.96267 18.9767 6.36133 19.592 6.864 20.112C7.384 20.632 7.99067 21.0307 8.684 21.308C9.37733 21.5853 10.1313 21.724 10.946 21.724ZM30.4927 25.208C28.9847 25.208 27.6414 24.9047 26.4627 24.298C25.2841 23.674 24.3567 22.816 23.6807 21.724C23.0221 20.632 22.6927 19.3927 22.6927 18.006C22.6927 16.602 23.0221 15.3627 23.6807 14.288C24.3567 13.196 25.2841 12.3467 26.4627 11.74C27.6414 11.116 28.9847 10.804 30.4927 10.804C31.9661 10.804 33.2487 11.116 34.3407 11.74C35.4327 12.3467 36.2387 13.222 36.7587 14.366L33.6127 16.056C33.2487 15.3973 32.7894 14.912 32.2347 14.6C31.6974 14.288 31.1081 14.132 30.4667 14.132C29.7734 14.132 29.1494 14.288 28.5947 14.6C28.0401 14.912 27.5981 15.354 27.2687 15.926C26.9567 16.498 26.8007 17.1913 26.8007 18.006C26.8007 18.8207 26.9567 19.514 27.2687 20.086C27.5981 20.658 28.0401 21.1 28.5947 21.412C29.1494 21.724 29.7734 21.88 30.4667 21.88C31.1081 21.88 31.6974 21.7327 32.2347 21.438C32.7894 21.126 33.2487 20.632 33.6127 19.956L36.7587 21.672C36.2387 22.7987 35.4327 23.674 34.3407 24.298C33.2487 24.9047 31.9661 25.208 30.4927 25.208ZM42.188 25V13.404L43.098 14.34H37.456V11.012H50.95V14.34H45.308L46.218 13.404V25H42.188ZM61.4841 25V22.27L61.2241 21.672V16.784C61.2241 15.9173 60.9554 15.2413 60.4181 14.756C59.8981 14.2707 59.0921 14.028 58.0001 14.028C57.2548 14.028 56.5181 14.1493 55.7901 14.392C55.0794 14.6173 54.4728 14.9293 53.9701 15.328L52.5141 12.494C53.2768 11.9567 54.1954 11.5407 55.2701 11.246C56.3448 10.9513 57.4368 10.804 58.5461 10.804C60.6781 10.804 62.3334 11.3067 63.5121 12.312C64.6908 13.3173 65.2801 14.886 65.2801 17.018V25H61.4841ZM57.2201 25.208C56.1281 25.208 55.1921 25.026 54.4121 24.662C53.6321 24.2807 53.0341 23.7693 52.6181 23.128C52.2021 22.4867 51.9941 21.7673 51.9941 20.97C51.9941 20.138 52.1934 19.41 52.5921 18.786C53.0081 18.162 53.6581 17.6767 54.5421 17.33C55.4261 16.966 56.5788 16.784 58.0001 16.784H61.7181V19.15H58.4421C57.4888 19.15 56.8301 19.306 56.4661 19.618C56.1194 19.93 55.9461 20.32 55.9461 20.788C55.9461 21.308 56.1454 21.724 56.5441 22.036C56.9601 22.3307 57.5234 22.478 58.2341 22.478C58.9101 22.478 59.5168 22.322 60.0541 22.01C60.5914 21.6807 60.9814 21.204 61.2241 20.58L61.8481 22.452C61.5534 23.3533 61.0161 24.038 60.2361 24.506C59.4561 24.974 58.4508 25.208 57.2201 25.208ZM67.0355 24.974L67.2435 21.646C67.3475 21.6633 67.4515 21.6807 67.5555 21.698C67.6595 21.698 67.7548 21.698 67.8415 21.698C68.3268 21.698 68.7082 21.5593 68.9855 21.282C69.2628 21.0047 69.4708 20.632 69.6095 20.164C69.7482 19.6787 69.8435 19.1327 69.8955 18.526C69.9648 17.9193 70.0168 17.2867 70.0515 16.628L70.2595 11.012H82.2195V25H78.1635V13.352L79.0735 14.34H72.9375L73.7955 13.3L73.6135 16.81C73.5615 18.058 73.4575 19.202 73.3015 20.242C73.1628 21.282 72.9288 22.1833 72.5995 22.946C72.2702 23.6913 71.8282 24.272 71.2735 24.688C70.7188 25.0867 70.0082 25.286 69.1415 25.286C68.8295 25.286 68.5002 25.26 68.1535 25.208C67.8068 25.156 67.4342 25.078 67.0355 24.974ZM86.1199 25V11.012H90.1499V19.332L96.9619 11.012H100.68V25H96.6499V16.68L89.8639 25H86.1199ZM111.235 25.208C109.727 25.208 108.384 24.9047 107.205 24.298C106.026 23.674 105.099 22.816 104.423 21.724C103.764 20.632 103.435 19.3927 103.435 18.006C103.435 16.602 103.764 15.3627 104.423 14.288C105.099 13.196 106.026 12.3467 107.205 11.74C108.384 11.116 109.727 10.804 111.235 10.804C112.708 10.804 113.991 11.116 115.083 11.74C116.175 12.3467 116.981 13.222 117.501 14.366L114.355 16.056C113.991 15.3973 113.532 14.912 112.977 14.6C112.44 14.288 111.85 14.132 111.209 14.132C110.516 14.132 109.892 14.288 109.337 14.6C108.782 14.912 108.34 15.354 108.011 15.926C107.699 16.498 107.543 17.1913 107.543 18.006C107.543 18.8207 107.699 19.514 108.011 20.086C108.34 20.658 108.782 21.1 109.337 21.412C109.892 21.724 110.516 21.88 111.209 21.88C111.85 21.88 112.44 21.7327 112.977 21.438C113.532 21.126 113.991 20.632 114.355 19.956L117.501 21.672C116.981 22.7987 116.175 23.674 115.083 24.298C113.991 24.9047 112.708 25.208 111.235 25.208ZM127.532 15.484C129.369 15.5013 130.764 15.9173 131.718 16.732C132.688 17.5293 133.174 18.6647 133.174 20.138C133.174 21.6807 132.628 22.8853 131.536 23.752C130.444 24.6013 128.927 25.026 126.986 25.026L119.966 25V11.012H123.996V15.484H127.532ZM126.622 22.14C127.402 22.1573 128 21.9927 128.416 21.646C128.832 21.2993 129.04 20.7793 129.04 20.086C129.04 19.3927 128.832 18.8987 128.416 18.604C128 18.292 127.402 18.1273 126.622 18.11L123.996 18.084V22.14H126.622ZM143.071 25V11.012H150.221C151.972 11.012 153.341 11.3327 154.329 11.974C155.317 12.598 155.811 13.482 155.811 14.626C155.811 15.77 155.343 16.6713 154.407 17.33C153.488 17.9713 152.266 18.292 150.741 18.292L151.157 17.356C152.856 17.356 154.121 17.668 154.953 18.292C155.802 18.916 156.227 19.826 156.227 21.022C156.227 22.2527 155.759 23.2233 154.823 23.934C153.887 24.6447 152.457 25 150.533 25H143.071ZM146.789 22.244H150.195C150.94 22.244 151.495 22.1227 151.859 21.88C152.24 21.62 152.431 21.23 152.431 20.71C152.431 20.1727 152.258 19.7827 151.911 19.54C151.564 19.28 151.018 19.15 150.273 19.15H146.789V22.244ZM146.789 16.758H149.857C150.568 16.758 151.096 16.628 151.443 16.368C151.807 16.108 151.989 15.7353 151.989 15.25C151.989 14.7473 151.807 14.3747 151.443 14.132C151.096 13.8893 150.568 13.768 149.857 13.768H146.789V16.758ZM165.797 25.208C164.306 25.208 162.98 24.896 161.819 24.272C160.675 23.648 159.765 22.7987 159.089 21.724C158.43 20.632 158.101 19.3927 158.101 18.006C158.101 16.602 158.43 15.3627 159.089 14.288C159.765 13.196 160.675 12.3467 161.819 11.74C162.98 11.116 164.306 10.804 165.797 10.804C167.27 10.804 168.588 11.116 169.749 11.74C170.91 12.3467 171.82 13.1873 172.479 14.262C173.138 15.3367 173.467 16.5847 173.467 18.006C173.467 19.3927 173.138 20.632 172.479 21.724C171.82 22.7987 170.91 23.648 169.749 24.272C168.588 24.896 167.27 25.208 165.797 25.208ZM165.797 21.88C166.473 21.88 167.08 21.724 167.617 21.412C168.154 21.1 168.579 20.658 168.891 20.086C169.203 19.4967 169.359 18.8033 169.359 18.006C169.359 17.1913 169.203 16.498 168.891 15.926C168.579 15.354 168.154 14.912 167.617 14.6C167.08 14.288 166.473 14.132 165.797 14.132C165.121 14.132 164.514 14.288 163.977 14.6C163.44 14.912 163.006 15.354 162.677 15.926C162.365 16.498 162.209 17.1913 162.209 18.006C162.209 18.8033 162.365 19.4967 162.677 20.086C163.006 20.658 163.44 21.1 163.977 21.412C164.514 21.724 165.121 21.88 165.797 21.88ZM176.257 25V11.012H190.167V25H186.111V13.43L187.021 14.34H179.377L180.287 13.43V25H176.257ZM202.297 25.208C201.119 25.208 200.087 24.948 199.203 24.428C198.319 23.908 197.626 23.1193 197.123 22.062C196.638 20.9873 196.395 19.6353 196.395 18.006C196.395 16.3593 196.629 15.0073 197.097 13.95C197.565 12.8927 198.241 12.104 199.125 11.584C200.009 11.064 201.067 10.804 202.297 10.804C203.615 10.804 204.793 11.1073 205.833 11.714C206.891 12.3033 207.723 13.1353 208.329 14.21C208.953 15.2847 209.265 16.55 209.265 18.006C209.265 19.4793 208.953 20.7533 208.329 21.828C207.723 22.9027 206.891 23.7347 205.833 24.324C204.793 24.9133 203.615 25.208 202.297 25.208ZM194.029 30.044V11.012H197.903V13.872L197.825 18.032L198.085 22.166V30.044H194.029ZM201.595 21.88C202.271 21.88 202.869 21.724 203.389 21.412C203.927 21.1 204.351 20.658 204.663 20.086C204.993 19.4967 205.157 18.8033 205.157 18.006C205.157 17.1913 204.993 16.498 204.663 15.926C204.351 15.354 203.927 14.912 203.389 14.6C202.869 14.288 202.271 14.132 201.595 14.132C200.919 14.132 200.313 14.288 199.775 14.6C199.238 14.912 198.813 15.354 198.501 15.926C198.189 16.498 198.033 17.1913 198.033 18.006C198.033 18.8033 198.189 19.4967 198.501 20.086C198.813 20.658 199.238 21.1 199.775 21.412C200.313 21.724 200.919 21.88 201.595 21.88ZM218.66 25.208C217.17 25.208 215.844 24.896 214.682 24.272C213.538 23.648 212.628 22.7987 211.952 21.724C211.294 20.632 210.964 19.3927 210.964 18.006C210.964 16.602 211.294 15.3627 211.952 14.288C212.628 13.196 213.538 12.3467 214.682 11.74C215.844 11.116 217.17 10.804 218.66 10.804C220.134 10.804 221.451 11.116 222.612 11.74C223.774 12.3467 224.684 13.1873 225.342 14.262C226.001 15.3367 226.33 16.5847 226.33 18.006C226.33 19.3927 226.001 20.632 225.342 21.724C224.684 22.7987 223.774 23.648 222.612 24.272C221.451 24.896 220.134 25.208 218.66 25.208ZM218.66 21.88C219.336 21.88 219.943 21.724 220.48 21.412C221.018 21.1 221.442 20.658 221.754 20.086C222.066 19.4967 222.222 18.8033 222.222 18.006C222.222 17.1913 222.066 16.498 221.754 15.926C221.442 15.354 221.018 14.912 220.48 14.6C219.943 14.288 219.336 14.132 218.66 14.132C217.984 14.132 217.378 14.288 216.84 14.6C216.303 14.912 215.87 15.354 215.54 15.926C215.228 16.498 215.072 17.1913 215.072 18.006C215.072 18.8033 215.228 19.4967 215.54 20.086C215.87 20.658 216.303 21.1 216.84 21.412C217.378 21.724 217.984 21.88 218.66 21.88ZM235.776 25.208C234.268 25.208 232.925 24.9047 231.746 24.298C230.567 23.674 229.64 22.816 228.964 21.724C228.305 20.632 227.976 19.3927 227.976 18.006C227.976 16.602 228.305 15.3627 228.964 14.288C229.64 13.196 230.567 12.3467 231.746 11.74C232.925 11.116 234.268 10.804 235.776 10.804C237.249 10.804 238.532 11.116 239.624 11.74C240.716 12.3467 241.522 13.222 242.042 14.366L238.896 16.056C238.532 15.3973 238.073 14.912 237.518 14.6C236.981 14.288 236.391 14.132 235.75 14.132C235.057 14.132 234.433 14.288 233.878 14.6C233.323 14.912 232.881 15.354 232.552 15.926C232.24 16.498 232.084 17.1913 232.084 18.006C232.084 18.8207 232.24 19.514 232.552 20.086C232.881 20.658 233.323 21.1 233.878 21.412C234.433 21.724 235.057 21.88 235.75 21.88C236.391 21.88 236.981 21.7327 237.518 21.438C238.073 21.126 238.532 20.632 238.896 19.956L242.042 21.672C241.522 22.7987 240.716 23.674 239.624 24.298C238.532 24.9047 237.249 25.208 235.776 25.208ZM258.911 25V11.012H262.941V25H258.911ZM251.865 15.484C253.702 15.5013 255.08 15.9173 255.999 16.732C256.935 17.5293 257.403 18.6647 257.403 20.138C257.403 21.6807 256.874 22.8853 255.817 23.752C254.759 24.6013 253.26 25.026 251.319 25.026L244.507 25V11.012H248.537V15.484H251.865ZM250.955 22.14C251.735 22.1573 252.333 21.9927 252.749 21.646C253.165 21.2993 253.373 20.7793 253.373 20.086C253.373 19.3927 253.165 18.8987 252.749 18.604C252.333 18.292 251.735 18.1273 250.955 18.11L248.537 18.084V22.14H250.955ZM271.228 18.682C271.228 18.0753 271.323 17.538 271.514 17.07C271.722 16.602 271.973 16.186 272.268 15.822C272.58 15.458 272.909 15.12 273.256 14.808C273.603 14.496 273.923 14.2013 274.218 13.924C274.53 13.6293 274.781 13.326 274.972 13.014C275.18 12.702 275.284 12.3553 275.284 11.974C275.284 11.35 275.024 10.8473 274.504 10.466C274.001 10.0847 273.325 9.894 272.476 9.894C271.661 9.894 270.933 10.0673 270.292 10.414C269.651 10.7433 269.122 11.2113 268.706 11.818L265.56 9.972C266.253 8.91467 267.215 8.074 268.446 7.45C269.677 6.80867 271.167 6.488 272.918 6.488C274.218 6.488 275.362 6.67867 276.35 7.06C277.338 7.424 278.109 7.96133 278.664 8.672C279.236 9.38267 279.522 10.258 279.522 11.298C279.522 11.974 279.418 12.572 279.21 13.092C279.002 13.612 278.733 14.0627 278.404 14.444C278.075 14.8253 277.719 15.1807 277.338 15.51C276.974 15.8393 276.627 16.16 276.298 16.472C275.969 16.784 275.691 17.1133 275.466 17.46C275.258 17.8067 275.154 18.214 275.154 18.682H271.228ZM273.204 25.208C272.476 25.208 271.878 24.974 271.41 24.506C270.942 24.038 270.708 23.4833 270.708 22.842C270.708 22.1833 270.942 21.6373 271.41 21.204C271.878 20.7533 272.476 20.528 273.204 20.528C273.949 20.528 274.547 20.7533 274.998 21.204C275.466 21.6373 275.7 22.1833 275.7 22.842C275.7 23.4833 275.466 24.038 274.998 24.506C274.547 24.974 273.949 25.208 273.204 25.208Z" fill="white"/>
<path d="M1.652 64V54.2H9.898V64H8.876V54.816L9.142 55.096H2.408L2.674 54.816V64H1.652ZM15.9907 64.07C15.2814 64.07 14.6421 63.9113 14.0727 63.594C13.5127 63.2673 13.0694 62.824 12.7427 62.264C12.4161 61.6947 12.2527 61.046 12.2527 60.318C12.2527 59.5807 12.4161 58.932 12.7427 58.372C13.0694 57.812 13.5127 57.3733 14.0727 57.056C14.6327 56.7387 15.2721 56.58 15.9907 56.58C16.7187 56.58 17.3627 56.7387 17.9227 57.056C18.4921 57.3733 18.9354 57.812 19.2527 58.372C19.5794 58.932 19.7427 59.5807 19.7427 60.318C19.7427 61.046 19.5794 61.6947 19.2527 62.264C18.9354 62.824 18.4921 63.2673 17.9227 63.594C17.3534 63.9113 16.7094 64.07 15.9907 64.07ZM15.9907 63.188C16.5227 63.188 16.9941 63.0713 17.4047 62.838C17.8154 62.5953 18.1374 62.2593 18.3707 61.83C18.6134 61.3913 18.7347 60.8873 18.7347 60.318C18.7347 59.7393 18.6134 59.2353 18.3707 58.806C18.1374 58.3767 17.8154 58.0453 17.4047 57.812C16.9941 57.5693 16.5274 57.448 16.0047 57.448C15.4821 57.448 15.0154 57.5693 14.6047 57.812C14.1941 58.0453 13.8674 58.3767 13.6247 58.806C13.3821 59.2353 13.2607 59.7393 13.2607 60.318C13.2607 60.8873 13.3821 61.3913 13.6247 61.83C13.8674 62.2593 14.1941 62.5953 14.6047 62.838C15.0154 63.0713 15.4774 63.188 15.9907 63.188ZM20.4821 63.986L20.5521 63.132C20.6174 63.1413 20.6781 63.1553 20.7341 63.174C20.7994 63.1833 20.8554 63.188 20.9021 63.188C21.2008 63.188 21.4388 63.076 21.6161 62.852C21.8028 62.628 21.9428 62.3293 22.0361 61.956C22.1294 61.5827 22.1948 61.1627 22.2321 60.696C22.2694 60.22 22.3021 59.744 22.3301 59.268L22.4561 56.65H27.8461V64H26.8521V57.224L27.1041 57.518H23.1001L23.3381 57.21L23.2261 59.338C23.1981 59.9727 23.1468 60.5793 23.0721 61.158C23.0068 61.7367 22.8994 62.2453 22.7501 62.684C22.6101 63.1227 22.4141 63.468 22.1621 63.72C21.9101 63.9627 21.5881 64.084 21.1961 64.084C21.0841 64.084 20.9674 64.0747 20.8461 64.056C20.7341 64.0373 20.6128 64.014 20.4821 63.986ZM30.7978 66.786C30.4525 66.786 30.1211 66.73 29.8038 66.618C29.4958 66.506 29.2298 66.338 29.0058 66.114L29.4678 65.372C29.6545 65.5493 29.8551 65.6847 30.0698 65.778C30.2938 65.8807 30.5411 65.932 30.8118 65.932C31.1385 65.932 31.4185 65.8387 31.6518 65.652C31.8945 65.4747 32.1231 65.1573 32.3378 64.7L32.8138 63.622L32.9258 63.468L35.9498 56.65H36.9298L33.2478 64.882C33.0425 65.358 32.8138 65.736 32.5618 66.016C32.3191 66.296 32.0531 66.492 31.7638 66.604C31.4745 66.7253 31.1525 66.786 30.7978 66.786ZM32.7578 64.21L29.3698 56.65H30.4058L33.4018 63.398L32.7578 64.21ZM43.1265 60.892C42.6971 61.0787 42.2631 61.228 41.8245 61.34C41.3951 61.4427 40.9658 61.494 40.5365 61.494C39.6685 61.494 38.9825 61.298 38.4785 60.906C37.9745 60.5047 37.7225 59.8887 37.7225 59.058V56.65H38.7025V59.002C38.7025 59.562 38.8845 59.982 39.2485 60.262C39.6125 60.542 40.1025 60.682 40.7185 60.682C41.0918 60.682 41.4838 60.6353 41.8945 60.542C42.3051 60.4393 42.7205 60.2947 43.1405 60.108L43.1265 60.892ZM43.0425 64V56.65H44.0365V64H43.0425ZM46.8593 64V56.65H47.8533V62.488L52.7673 56.65H53.6493V64H52.6553V58.148L47.7553 64H46.8593ZM57.898 64V57.252L58.15 57.518H55.112V56.65H61.678V57.518H58.64L58.892 57.252V64H57.898ZM65.9234 64.07C65.158 64.07 64.486 63.9113 63.9074 63.594C63.3287 63.2673 62.876 62.824 62.5494 62.264C62.2227 61.6947 62.0594 61.046 62.0594 60.318C62.0594 59.59 62.2134 58.946 62.5214 58.386C62.8387 57.826 63.268 57.3873 63.8094 57.07C64.36 56.7433 64.976 56.58 65.6574 56.58C66.348 56.58 66.9594 56.7387 67.4914 57.056C68.0327 57.364 68.4574 57.8027 68.7654 58.372C69.0734 58.932 69.2274 59.5807 69.2274 60.318C69.2274 60.3647 69.2227 60.416 69.2134 60.472C69.2134 60.5187 69.2134 60.57 69.2134 60.626H62.8154V59.884H68.6814L68.2894 60.178C68.2894 59.646 68.1727 59.1747 67.9394 58.764C67.7154 58.344 67.4074 58.0173 67.0154 57.784C66.6234 57.5507 66.1707 57.434 65.6574 57.434C65.1534 57.434 64.7007 57.5507 64.2994 57.784C63.898 58.0173 63.5854 58.344 63.3614 58.764C63.1374 59.184 63.0254 59.6647 63.0254 60.206V60.36C63.0254 60.92 63.1467 61.4147 63.3894 61.844C63.6414 62.264 63.9867 62.5953 64.4254 62.838C64.8734 63.0713 65.382 63.188 65.9514 63.188C66.3994 63.188 66.8147 63.1087 67.1974 62.95C67.5894 62.7913 67.9254 62.5487 68.2054 62.222L68.7654 62.866C68.4387 63.258 68.028 63.5567 67.5334 63.762C67.048 63.9673 66.5114 64.07 65.9234 64.07ZM78.3957 64.084C77.7984 64.084 77.2664 63.986 76.7997 63.79C76.3424 63.594 75.9504 63.2953 75.6237 62.894C75.2971 62.4927 75.0497 61.998 74.8817 61.41C74.7137 60.8127 74.6297 60.122 74.6297 59.338C74.6297 58.638 74.6951 58.0267 74.8257 57.504C74.9564 56.972 75.1384 56.5147 75.3717 56.132C75.6051 55.7493 75.8757 55.4273 76.1837 55.166C76.5011 54.8953 76.8417 54.6807 77.2057 54.522C77.5791 54.354 77.9617 54.228 78.3537 54.144L81.6577 53.374L81.8257 54.298L78.7177 54.998C78.5217 55.0447 78.2837 55.11 78.0037 55.194C77.7331 55.278 77.4531 55.404 77.1637 55.572C76.8837 55.74 76.6224 55.9733 76.3797 56.272C76.1371 56.5707 75.9411 56.958 75.7917 57.434C75.6517 57.9007 75.5817 58.484 75.5817 59.184C75.5817 59.3333 75.5864 59.4547 75.5957 59.548C75.6051 59.632 75.6144 59.7253 75.6237 59.828C75.6424 59.9213 75.6564 60.0613 75.6657 60.248L75.2317 59.884C75.3344 59.3147 75.5444 58.82 75.8617 58.4C76.1791 57.9707 76.5757 57.6393 77.0517 57.406C77.5371 57.1633 78.0737 57.042 78.6617 57.042C79.3431 57.042 79.9497 57.1913 80.4817 57.49C81.0137 57.7793 81.4291 58.1853 81.7277 58.708C82.0357 59.2307 82.1897 59.8373 82.1897 60.528C82.1897 61.2093 82.0311 61.8207 81.7137 62.362C81.4057 62.9033 80.9671 63.328 80.3977 63.636C79.8284 63.9347 79.1611 64.084 78.3957 64.084ZM78.5077 63.258C79.0304 63.258 79.4924 63.1413 79.8937 62.908C80.2951 62.6653 80.6077 62.3387 80.8317 61.928C81.0651 61.5173 81.1817 61.0553 81.1817 60.542C81.1817 60.038 81.0651 59.59 80.8317 59.198C80.6077 58.806 80.2951 58.498 79.8937 58.274C79.4924 58.0407 79.0257 57.924 78.4937 57.924C77.9711 57.924 77.5091 58.036 77.1077 58.26C76.7064 58.4747 76.3891 58.778 76.1557 59.17C75.9317 59.562 75.8197 60.0147 75.8197 60.528C75.8197 61.0413 75.9317 61.5033 76.1557 61.914C76.3891 62.3247 76.7064 62.6513 77.1077 62.894C77.5184 63.1367 77.9851 63.258 78.5077 63.258ZM87.4703 64.07C86.7049 64.07 86.0329 63.9113 85.4543 63.594C84.8756 63.2673 84.4229 62.824 84.0963 62.264C83.7696 61.6947 83.6063 61.046 83.6063 60.318C83.6063 59.59 83.7603 58.946 84.0683 58.386C84.3856 57.826 84.8149 57.3873 85.3563 57.07C85.9069 56.7433 86.5229 56.58 87.2043 56.58C87.8949 56.58 88.5063 56.7387 89.0383 57.056C89.5796 57.364 90.0043 57.8027 90.3123 58.372C90.6203 58.932 90.7743 59.5807 90.7743 60.318C90.7743 60.3647 90.7696 60.416 90.7603 60.472C90.7603 60.5187 90.7603 60.57 90.7603 60.626H84.3623V59.884H90.2283L89.8363 60.178C89.8363 59.646 89.7196 59.1747 89.4863 58.764C89.2623 58.344 88.9543 58.0173 88.5623 57.784C88.1703 57.5507 87.7176 57.434 87.2043 57.434C86.7003 57.434 86.2476 57.5507 85.8463 57.784C85.4449 58.0173 85.1323 58.344 84.9083 58.764C84.6843 59.184 84.5723 59.6647 84.5723 60.206V60.36C84.5723 60.92 84.6936 61.4147 84.9363 61.844C85.1883 62.264 85.5336 62.5953 85.9723 62.838C86.4203 63.0713 86.9289 63.188 87.4983 63.188C87.9463 63.188 88.3616 63.1087 88.7443 62.95C89.1363 62.7913 89.4723 62.5487 89.7523 62.222L90.3123 62.866C89.9856 63.258 89.5749 63.5567 89.0803 63.762C88.5949 63.9673 88.0583 64.07 87.4703 64.07ZM96.0545 64.07C95.3265 64.07 94.6732 63.9113 94.0945 63.594C93.5252 63.2673 93.0772 62.824 92.7505 62.264C92.4239 61.6947 92.2605 61.046 92.2605 60.318C92.2605 59.5807 92.4239 58.932 92.7505 58.372C93.0772 57.812 93.5252 57.3733 94.0945 57.056C94.6732 56.7387 95.3265 56.58 96.0545 56.58C96.6799 56.58 97.2445 56.7013 97.7485 56.944C98.2525 57.1867 98.6492 57.5507 98.9385 58.036L98.1965 58.54C97.9445 58.1667 97.6319 57.8913 97.2585 57.714C96.8852 57.5367 96.4792 57.448 96.0405 57.448C95.5179 57.448 95.0465 57.5693 94.6265 57.812C94.2065 58.0453 93.8752 58.3767 93.6325 58.806C93.3899 59.2353 93.2685 59.7393 93.2685 60.318C93.2685 60.8967 93.3899 61.4007 93.6325 61.83C93.8752 62.2593 94.2065 62.5953 94.6265 62.838C95.0465 63.0713 95.5179 63.188 96.0405 63.188C96.4792 63.188 96.8852 63.0993 97.2585 62.922C97.6319 62.7447 97.9445 62.474 98.1965 62.11L98.9385 62.614C98.6492 63.09 98.2525 63.454 97.7485 63.706C97.2445 63.9487 96.6799 64.07 96.0545 64.07ZM100.863 64V56.65H107.471V64H106.477V57.252L106.729 57.518H101.605L101.857 57.252V64H100.863ZM108.953 63.986L109.023 63.132C109.088 63.1413 109.149 63.1553 109.205 63.174C109.27 63.1833 109.326 63.188 109.373 63.188C109.671 63.188 109.909 63.076 110.087 62.852C110.273 62.628 110.413 62.3293 110.507 61.956C110.6 61.5827 110.665 61.1627 110.703 60.696C110.74 60.22 110.773 59.744 110.801 59.268L110.927 56.65H116.317V64H115.323V57.224L115.575 57.518H111.571L111.809 57.21L111.697 59.338C111.669 59.9727 111.617 60.5793 111.543 61.158C111.477 61.7367 111.37 62.2453 111.221 62.684C111.081 63.1227 110.885 63.468 110.633 63.72C110.381 63.9627 110.059 64.084 109.667 64.084C109.555 64.084 109.438 64.0747 109.317 64.056C109.205 64.0373 109.083 64.014 108.953 63.986ZM123.707 64V62.376L123.665 62.11V59.394C123.665 58.7687 123.487 58.288 123.133 57.952C122.787 57.616 122.269 57.448 121.579 57.448C121.103 57.448 120.65 57.5273 120.221 57.686C119.791 57.8447 119.427 58.0547 119.129 58.316L118.681 57.574C119.054 57.2567 119.502 57.014 120.025 56.846C120.547 56.6687 121.098 56.58 121.677 56.58C122.629 56.58 123.361 56.818 123.875 57.294C124.397 57.7607 124.659 58.4747 124.659 59.436V64H123.707ZM121.173 64.07C120.622 64.07 120.141 63.9813 119.731 63.804C119.329 63.6173 119.021 63.3653 118.807 63.048C118.592 62.7213 118.485 62.348 118.485 61.928C118.485 61.5453 118.573 61.2 118.751 60.892C118.937 60.5747 119.236 60.3227 119.647 60.136C120.067 59.94 120.627 59.842 121.327 59.842H123.861V60.584H121.355C120.645 60.584 120.151 60.71 119.871 60.962C119.6 61.214 119.465 61.5267 119.465 61.9C119.465 62.32 119.628 62.656 119.955 62.908C120.281 63.16 120.739 63.286 121.327 63.286C121.887 63.286 122.367 63.16 122.769 62.908C123.179 62.6467 123.478 62.2733 123.665 61.788L123.889 62.474C123.702 62.9593 123.375 63.3467 122.909 63.636C122.451 63.9253 121.873 64.07 121.173 64.07ZM128.705 64V57.252L128.957 57.518H125.919V56.65H132.485V57.518H129.447L129.699 57.252V64H128.705ZM133.922 64V56.65H134.916V59.898H139.55V56.65H140.544V64H139.55V60.752H134.916V64H133.922ZM143.495 66.786C143.15 66.786 142.818 66.73 142.501 66.618C142.193 66.506 141.927 66.338 141.703 66.114L142.165 65.372C142.352 65.5493 142.552 65.6847 142.767 65.778C142.991 65.8807 143.238 65.932 143.509 65.932C143.836 65.932 144.116 65.8387 144.349 65.652C144.592 65.4747 144.82 65.1573 145.035 64.7L145.511 63.622L145.623 63.468L148.647 56.65H149.627L145.945 64.882C145.74 65.358 145.511 65.736 145.259 66.016C145.016 66.296 144.75 66.492 144.461 66.604C144.172 66.7253 143.85 66.786 143.495 66.786ZM145.455 64.21L142.067 56.65H143.103L146.099 63.398L145.455 64.21ZM151.176 64V56.65H152.17V59.814H154.41V60.724H152.17V64H151.176ZM157.504 64.07C156.804 64.07 156.174 63.9113 155.614 63.594C155.063 63.2673 154.629 62.824 154.312 62.264C153.994 61.6947 153.836 61.046 153.836 60.318C153.836 59.5807 153.994 58.932 154.312 58.372C154.629 57.812 155.063 57.3733 155.614 57.056C156.174 56.7387 156.804 56.58 157.504 56.58C158.204 56.58 158.829 56.7387 159.38 57.056C159.93 57.3733 160.364 57.812 160.682 58.372C160.999 58.932 161.158 59.5807 161.158 60.318C161.158 61.046 160.999 61.6947 160.682 62.264C160.364 62.824 159.93 63.2673 159.38 63.594C158.829 63.9113 158.204 64.07 157.504 64.07ZM157.504 63.202C158.017 63.202 158.474 63.0807 158.876 62.838C159.277 62.5953 159.594 62.2593 159.828 61.83C160.061 61.3913 160.178 60.8873 160.178 60.318C160.178 59.7393 160.061 59.2353 159.828 58.806C159.594 58.3767 159.277 58.0453 158.876 57.812C158.474 57.5693 158.017 57.448 157.504 57.448C157 57.448 156.542 57.5693 156.132 57.812C155.73 58.0453 155.413 58.3767 155.18 58.806C154.946 59.2353 154.83 59.7393 154.83 60.318C154.83 60.8873 154.946 61.3913 155.18 61.83C155.413 62.2593 155.73 62.5953 156.132 62.838C156.542 63.0807 157 63.202 157.504 63.202ZM172.343 64L169.319 60.36L170.145 59.87L173.519 64H172.343ZM166.953 64V56.65H167.947V64H166.953ZM167.639 60.724V59.87H170.005V60.724H167.639ZM170.229 60.43L169.305 60.29L172.231 56.65H173.309L170.229 60.43ZM177.852 64.07C177.143 64.07 176.503 63.9113 175.934 63.594C175.374 63.2673 174.931 62.824 174.604 62.264C174.277 61.6947 174.114 61.046 174.114 60.318C174.114 59.5807 174.277 58.932 174.604 58.372C174.931 57.812 175.374 57.3733 175.934 57.056C176.494 56.7387 177.133 56.58 177.852 56.58C178.58 56.58 179.224 56.7387 179.784 57.056C180.353 57.3733 180.797 57.812 181.114 58.372C181.441 58.932 181.604 59.5807 181.604 60.318C181.604 61.046 181.441 61.6947 181.114 62.264C180.797 62.824 180.353 63.2673 179.784 63.594C179.215 63.9113 178.571 64.07 177.852 64.07ZM177.852 63.188C178.384 63.188 178.855 63.0713 179.266 62.838C179.677 62.5953 179.999 62.2593 180.232 61.83C180.475 61.3913 180.596 60.8873 180.596 60.318C180.596 59.7393 180.475 59.2353 180.232 58.806C179.999 58.3767 179.677 58.0453 179.266 57.812C178.855 57.5693 178.389 57.448 177.866 57.448C177.343 57.448 176.877 57.5693 176.466 57.812C176.055 58.0453 175.729 58.3767 175.486 58.806C175.243 59.2353 175.122 59.7393 175.122 60.318C175.122 60.8873 175.243 61.3913 175.486 61.83C175.729 62.2593 176.055 62.5953 176.466 62.838C176.877 63.0713 177.339 63.188 177.852 63.188ZM183.728 64V56.65H184.722V59.898H189.356V56.65H190.35V64H189.356V60.752H184.722V64H183.728ZM196.256 64.07C195.528 64.07 194.874 63.9113 194.296 63.594C193.726 63.2673 193.278 62.824 192.952 62.264C192.625 61.6947 192.462 61.046 192.462 60.318C192.462 59.5807 192.625 58.932 192.952 58.372C193.278 57.812 193.726 57.3733 194.296 57.056C194.874 56.7387 195.528 56.58 196.256 56.58C196.881 56.58 197.446 56.7013 197.95 56.944C198.454 57.1867 198.85 57.5507 199.14 58.036L198.398 58.54C198.146 58.1667 197.833 57.8913 197.46 57.714C197.086 57.5367 196.68 57.448 196.242 57.448C195.719 57.448 195.248 57.5693 194.828 57.812C194.408 58.0453 194.076 58.3767 193.834 58.806C193.591 59.2353 193.47 59.7393 193.47 60.318C193.47 60.8967 193.591 61.4007 193.834 61.83C194.076 62.2593 194.408 62.5953 194.828 62.838C195.248 63.0713 195.719 63.188 196.242 63.188C196.68 63.188 197.086 63.0993 197.46 62.922C197.833 62.7447 198.146 62.474 198.398 62.11L199.14 62.614C198.85 63.09 198.454 63.454 197.95 63.706C197.446 63.9487 196.881 64.07 196.256 64.07ZM201.081 66.786C200.736 66.786 200.404 66.73 200.087 66.618C199.779 66.506 199.513 66.338 199.289 66.114L199.751 65.372C199.938 65.5493 200.138 65.6847 200.353 65.778C200.577 65.8807 200.824 65.932 201.095 65.932C201.422 65.932 201.702 65.8387 201.935 65.652C202.178 65.4747 202.406 65.1573 202.621 64.7L203.097 63.622L203.209 63.468L206.233 56.65H207.213L203.531 64.882C203.326 65.358 203.097 65.736 202.845 66.016C202.602 66.296 202.336 66.492 202.047 66.604C201.758 66.7253 201.436 66.786 201.081 66.786ZM203.041 64.21L199.653 56.65H200.689L203.685 63.398L203.041 64.21ZM207.103 63.986L207.173 63.132C207.239 63.1413 207.299 63.1553 207.355 63.174C207.421 63.1833 207.477 63.188 207.523 63.188C207.822 63.188 208.06 63.076 208.237 62.852C208.424 62.628 208.564 62.3293 208.657 61.956C208.751 61.5827 208.816 61.1627 208.853 60.696C208.891 60.22 208.923 59.744 208.951 59.268L209.077 56.65H214.467V64H213.473V57.224L213.725 57.518H209.721L209.959 57.21L209.847 59.338C209.819 59.9727 209.768 60.5793 209.693 61.158C209.628 61.7367 209.521 62.2453 209.371 62.684C209.231 63.1227 209.035 63.468 208.783 63.72C208.531 63.9627 208.209 64.084 207.817 64.084C207.705 64.084 207.589 64.0747 207.467 64.056C207.355 64.0373 207.234 64.014 207.103 63.986ZM220.457 59.24C221.381 59.2493 222.081 59.4547 222.557 59.856C223.042 60.2573 223.285 60.836 223.285 61.592C223.285 62.376 223.024 62.978 222.501 63.398C221.988 63.818 221.241 64.0233 220.261 64.014L217.293 64V56.65H218.287V59.212L220.457 59.24ZM220.205 63.258C220.886 63.2673 221.4 63.132 221.745 62.852C222.1 62.5627 222.277 62.1427 222.277 61.592C222.277 61.0413 222.104 60.64 221.759 60.388C221.414 60.1267 220.896 59.9913 220.205 59.982L218.287 59.954V63.23L220.205 63.258ZM225.843 64V57.252L226.095 57.518H223.057V56.65H229.623V57.518H226.585L226.837 57.252V64H225.843ZM235.624 64V62.376L235.582 62.11V59.394C235.582 58.7687 235.405 58.288 235.05 57.952C234.705 57.616 234.187 57.448 233.496 57.448C233.02 57.448 232.568 57.5273 232.138 57.686C231.709 57.8447 231.345 58.0547 231.046 58.316L230.598 57.574C230.972 57.2567 231.42 57.014 231.942 56.846C232.465 56.6687 233.016 56.58 233.594 56.58C234.546 56.58 235.279 56.818 235.792 57.294C236.315 57.7607 236.576 58.4747 236.576 59.436V64H235.624ZM233.09 64.07C232.54 64.07 232.059 63.9813 231.648 63.804C231.247 63.6173 230.939 63.3653 230.724 63.048C230.51 62.7213 230.402 62.348 230.402 61.928C230.402 61.5453 230.491 61.2 230.668 60.892C230.855 60.5747 231.154 60.3227 231.564 60.136C231.984 59.94 232.544 59.842 233.244 59.842H235.778V60.584H233.272C232.563 60.584 232.068 60.71 231.788 60.962C231.518 61.214 231.382 61.5267 231.382 61.9C231.382 62.32 231.546 62.656 231.872 62.908C232.199 63.16 232.656 63.286 233.244 63.286C233.804 63.286 234.285 63.16 234.686 62.908C235.097 62.6467 235.396 62.2733 235.582 61.788L235.806 62.474C235.62 62.9593 235.293 63.3467 234.826 63.636C234.369 63.9253 233.79 64.07 233.09 64.07ZM239.223 64V56.65H240.217V63.132H244.711V56.65H245.705V64H239.223ZM245.957 65.778V63.916L246.209 64H244.711V63.132H246.895V65.778H245.957ZM248.793 64V56.65H249.787V62.488L254.701 56.65H255.583V64H254.589V58.148L249.689 64H248.793ZM258.432 64V56.65H259.426V59.814H261.666V60.724H259.426V64H258.432ZM264.76 64.07C264.06 64.07 263.43 63.9113 262.87 63.594C262.319 63.2673 261.885 62.824 261.568 62.264C261.25 61.6947 261.092 61.046 261.092 60.318C261.092 59.5807 261.25 58.932 261.568 58.372C261.885 57.812 262.319 57.3733 262.87 57.056C263.43 56.7387 264.06 56.58 264.76 56.58C265.46 56.58 266.085 56.7387 266.636 57.056C267.186 57.3733 267.62 57.812 267.938 58.372C268.255 58.932 268.414 59.5807 268.414 60.318C268.414 61.046 268.255 61.6947 267.938 62.264C267.62 62.824 267.186 63.2673 266.636 63.594C266.085 63.9113 265.46 64.07 264.76 64.07ZM264.76 63.202C265.273 63.202 265.73 63.0807 266.132 62.838C266.533 62.5953 266.85 62.2593 267.084 61.83C267.317 61.3913 267.434 60.8873 267.434 60.318C267.434 59.7393 267.317 59.2353 267.084 58.806C266.85 58.3767 266.533 58.0453 266.132 57.812C265.73 57.5693 265.273 57.448 264.76 57.448C264.256 57.448 263.798 57.5693 263.388 57.812C262.986 58.0453 262.669 58.3767 262.436 58.806C262.202 59.2353 262.086 59.7393 262.086 60.318C262.086 60.8873 262.202 61.3913 262.436 61.83C262.669 62.2593 262.986 62.5953 263.388 62.838C263.798 63.0807 264.256 63.202 264.76 63.202ZM4.494 86.07C3.766 86.07 3.11267 85.9113 2.534 85.594C1.96467 85.2673 1.51667 84.824 1.19 84.264C0.863333 83.6947 0.7 83.046 0.7 82.318C0.7 81.5807 0.863333 80.932 1.19 80.372C1.51667 79.812 1.96467 79.3733 2.534 79.056C3.11267 78.7387 3.766 78.58 4.494 78.58C5.11933 78.58 5.684 78.7013 6.188 78.944C6.692 79.1867 7.08867 79.5507 7.378 80.036L6.636 80.54C6.384 80.1667 6.07133 79.8913 5.698 79.714C5.32467 79.5367 4.91867 79.448 4.48 79.448C3.95733 79.448 3.486 79.5693 3.066 79.812C2.646 80.0453 2.31467 80.3767 2.072 80.806C1.82933 81.2353 1.708 81.7393 1.708 82.318C1.708 82.8967 1.82933 83.4007 2.072 83.83C2.31467 84.2593 2.646 84.5953 3.066 84.838C3.486 85.0713 3.95733 85.188 4.48 85.188C4.91867 85.188 5.32467 85.0993 5.698 84.922C6.07133 84.7447 6.384 84.474 6.636 84.11L7.378 84.614C7.08867 85.09 6.692 85.454 6.188 85.706C5.684 85.9487 5.11933 86.07 4.494 86.07ZM9.30267 86V78.65H15.9107V86H14.9167V79.252L15.1687 79.518H10.0447L10.2967 79.252V86H9.30267ZM21.8863 86.07C21.1209 86.07 20.4489 85.9113 19.8703 85.594C19.2916 85.2673 18.8389 84.824 18.5123 84.264C18.1856 83.6947 18.0223 83.046 18.0223 82.318C18.0223 81.59 18.1763 80.946 18.4843 80.386C18.8016 79.826 19.2309 79.3873 19.7723 79.07C20.3229 78.7433 20.9389 78.58 21.6203 78.58C22.3109 78.58 22.9223 78.7387 23.4543 79.056C23.9956 79.364 24.4203 79.8027 24.7283 80.372C25.0363 80.932 25.1903 81.5807 25.1903 82.318C25.1903 82.3647 25.1856 82.416 25.1763 82.472C25.1763 82.5187 25.1763 82.57 25.1763 82.626H18.7783V81.884H24.6443L24.2523 82.178C24.2523 81.646 24.1356 81.1747 23.9023 80.764C23.6783 80.344 23.3703 80.0173 22.9783 79.784C22.5863 79.5507 22.1336 79.434 21.6203 79.434C21.1163 79.434 20.6636 79.5507 20.2623 79.784C19.8609 80.0173 19.5483 80.344 19.3243 80.764C19.1003 81.184 18.9883 81.6647 18.9883 82.206V82.36C18.9883 82.92 19.1096 83.4147 19.3523 83.844C19.6043 84.264 19.9496 84.5953 20.3883 84.838C20.8363 85.0713 21.3449 85.188 21.9143 85.188C22.3623 85.188 22.7776 85.1087 23.1603 84.95C23.5523 84.7913 23.8883 84.5487 24.1683 84.222L24.7283 84.866C24.4016 85.258 23.9909 85.5567 23.4963 85.762C23.0109 85.9673 22.4743 86.07 21.8863 86.07ZM27.3906 86V78.65H28.3846V85.132H32.8786V78.65H33.8726V86H27.3906ZM34.1246 87.778V85.916L34.3766 86H32.8786V85.132H35.0626V87.778H34.1246ZM36.9609 86V78.65H37.9549V84.488L42.8689 78.65H43.7509V86H42.7569V80.148L37.8569 86H36.9609ZM51.1635 86V84.376L51.1215 84.11V81.394C51.1215 80.7687 50.9442 80.288 50.5895 79.952C50.2442 79.616 49.7262 79.448 49.0355 79.448C48.5595 79.448 48.1069 79.5273 47.6775 79.686C47.2482 79.8447 46.8842 80.0547 46.5855 80.316L46.1375 79.574C46.5109 79.2567 46.9589 79.014 47.4815 78.846C48.0042 78.6687 48.5549 78.58 49.1335 78.58C50.0855 78.58 50.8182 78.818 51.3315 79.294C51.8542 79.7607 52.1155 80.4747 52.1155 81.436V86H51.1635ZM48.6295 86.07C48.0789 86.07 47.5982 85.9813 47.1875 85.804C46.7862 85.6173 46.4782 85.3653 46.2635 85.048C46.0489 84.7213 45.9415 84.348 45.9415 83.928C45.9415 83.5453 46.0302 83.2 46.2075 82.892C46.3942 82.5747 46.6929 82.3227 47.1035 82.136C47.5235 81.94 48.0835 81.842 48.7835 81.842H51.3175V82.584H48.8115C48.1022 82.584 47.6075 82.71 47.3275 82.962C47.0569 83.214 46.9215 83.5267 46.9215 83.9C46.9215 84.32 47.0849 84.656 47.4115 84.908C47.7382 85.16 48.1955 85.286 48.7835 85.286C49.3435 85.286 49.8242 85.16 50.2255 84.908C50.6362 84.6467 50.9349 84.2733 51.1215 83.788L51.3455 84.474C51.1589 84.9593 50.8322 85.3467 50.3655 85.636C49.9082 85.9253 49.3295 86.07 48.6295 86.07ZM53.4177 85.986L53.4877 85.132C53.553 85.1413 53.6137 85.1553 53.6697 85.174C53.735 85.1833 53.791 85.188 53.8377 85.188C54.1363 85.188 54.3743 85.076 54.5517 84.852C54.7383 84.628 54.8783 84.3293 54.9717 83.956C55.065 83.5827 55.1303 83.1627 55.1677 82.696C55.205 82.22 55.2377 81.744 55.2657 81.268L55.3917 78.65H60.7817V86H59.7877V79.224L60.0397 79.518H56.0357L56.2737 79.21L56.1617 81.338C56.1337 81.9727 56.0823 82.5793 56.0077 83.158C55.9423 83.7367 55.835 84.2453 55.6857 84.684C55.5457 85.1227 55.3497 85.468 55.0977 85.72C54.8457 85.9627 54.5237 86.084 54.1317 86.084C54.0197 86.084 53.903 86.0747 53.7817 86.056C53.6697 86.0373 53.5483 86.014 53.4177 85.986ZM63.6074 86V78.65H64.6014V84.488L69.5154 78.65H70.3974V86H69.4034V80.148L64.5034 86H63.6074ZM76.326 86.07C75.598 86.07 74.9447 85.9113 74.366 85.594C73.7967 85.2673 73.3487 84.824 73.022 84.264C72.6954 83.6947 72.532 83.046 72.532 82.318C72.532 81.5807 72.6954 80.932 73.022 80.372C73.3487 79.812 73.7967 79.3733 74.366 79.056C74.9447 78.7387 75.598 78.58 76.326 78.58C76.9514 78.58 77.516 78.7013 78.02 78.944C78.524 79.1867 78.9207 79.5507 79.21 80.036L78.468 80.54C78.216 80.1667 77.9034 79.8913 77.53 79.714C77.1567 79.5367 76.7507 79.448 76.312 79.448C75.7894 79.448 75.318 79.5693 74.898 79.812C74.478 80.0453 74.1467 80.3767 73.904 80.806C73.6614 81.2353 73.54 81.7393 73.54 82.318C73.54 82.8967 73.6614 83.4007 73.904 83.83C74.1467 84.2593 74.478 84.5953 74.898 84.838C75.318 85.0713 75.7894 85.188 76.312 85.188C76.7507 85.188 77.1567 85.0993 77.53 84.922C77.9034 84.7447 78.216 84.474 78.468 84.11L79.21 84.614C78.9207 85.09 78.524 85.454 78.02 85.706C77.516 85.9487 76.9514 86.07 76.326 86.07ZM82.398 86V79.252L82.65 79.518H79.612V78.65H86.178V79.518H83.14L83.392 79.252V86H82.398ZM92.1792 86V84.376L92.1372 84.11V81.394C92.1372 80.7687 91.9598 80.288 91.6052 79.952C91.2598 79.616 90.7418 79.448 90.0512 79.448C89.5752 79.448 89.1225 79.5273 88.6932 79.686C88.2638 79.8447 87.8998 80.0547 87.6012 80.316L87.1532 79.574C87.5265 79.2567 87.9745 79.014 88.4972 78.846C89.0198 78.6687 89.5705 78.58 90.1492 78.58C91.1012 78.58 91.8338 78.818 92.3472 79.294C92.8698 79.7607 93.1312 80.4747 93.1312 81.436V86H92.1792ZM89.6452 86.07C89.0945 86.07 88.6138 85.9813 88.2032 85.804C87.8018 85.6173 87.4938 85.3653 87.2792 85.048C87.0645 84.7213 86.9572 84.348 86.9572 83.928C86.9572 83.5453 87.0458 83.2 87.2232 82.892C87.4098 82.5747 87.7085 82.3227 88.1192 82.136C88.5392 81.94 89.0992 81.842 89.7992 81.842H92.3332V82.584H89.8272C89.1178 82.584 88.6232 82.71 88.3432 82.962C88.0725 83.214 87.9372 83.5267 87.9372 83.9C87.9372 84.32 88.1005 84.656 88.4272 84.908C88.7538 85.16 89.2112 85.286 89.7992 85.286C90.3592 85.286 90.8398 85.16 91.2412 84.908C91.6518 84.6467 91.9505 84.2733 92.1372 83.788L92.3612 84.474C92.1745 84.9593 91.8478 85.3467 91.3812 85.636C90.9238 85.9253 90.3452 86.07 89.6452 86.07ZM99.4413 86V78.65H106.049V86H105.055V79.252L105.307 79.518H100.183L100.435 79.252V86H99.4413ZM111.899 86.07C111.19 86.07 110.55 85.9113 109.981 85.594C109.421 85.2673 108.978 84.824 108.651 84.264C108.324 83.6947 108.161 83.046 108.161 82.318C108.161 81.5807 108.324 80.932 108.651 80.372C108.978 79.812 109.421 79.3733 109.981 79.056C110.541 78.7387 111.18 78.58 111.899 78.58C112.627 78.58 113.271 78.7387 113.831 79.056C114.4 79.3733 114.844 79.812 115.161 80.372C115.488 80.932 115.651 81.5807 115.651 82.318C115.651 83.046 115.488 83.6947 115.161 84.264C114.844 84.824 114.4 85.2673 113.831 85.594C113.262 85.9113 112.618 86.07 111.899 86.07ZM111.899 85.188C112.431 85.188 112.902 85.0713 113.313 84.838C113.724 84.5953 114.046 84.2593 114.279 83.83C114.522 83.3913 114.643 82.8873 114.643 82.318C114.643 81.7393 114.522 81.2353 114.279 80.806C114.046 80.3767 113.724 80.0453 113.313 79.812C112.902 79.5693 112.436 79.448 111.913 79.448C111.39 79.448 110.924 79.5693 110.513 79.812C110.102 80.0453 109.776 80.3767 109.533 80.806C109.29 81.2353 109.169 81.7393 109.169 82.318C109.169 82.8873 109.29 83.3913 109.533 83.83C109.776 84.2593 110.102 84.5953 110.513 84.838C110.924 85.0713 111.386 85.188 111.899 85.188ZM121.439 86V78.65H128.047V86H127.053V79.252L127.305 79.518H122.181L122.433 79.252V86H121.439ZM133.897 86.07C133.188 86.07 132.548 85.9113 131.979 85.594C131.419 85.2673 130.976 84.824 130.649 84.264C130.322 83.6947 130.159 83.046 130.159 82.318C130.159 81.5807 130.322 80.932 130.649 80.372C130.976 79.812 131.419 79.3733 131.979 79.056C132.539 78.7387 133.178 78.58 133.897 78.58C134.625 78.58 135.269 78.7387 135.829 79.056C136.398 79.3733 136.842 79.812 137.159 80.372C137.486 80.932 137.649 81.5807 137.649 82.318C137.649 83.046 137.486 83.6947 137.159 84.264C136.842 84.824 136.398 85.2673 135.829 85.594C135.26 85.9113 134.616 86.07 133.897 86.07ZM133.897 85.188C134.429 85.188 134.9 85.0713 135.311 84.838C135.722 84.5953 136.044 84.2593 136.277 83.83C136.52 83.3913 136.641 82.8873 136.641 82.318C136.641 81.7393 136.52 81.2353 136.277 80.806C136.044 80.3767 135.722 80.0453 135.311 79.812C134.9 79.5693 134.434 79.448 133.911 79.448C133.388 79.448 132.922 79.5693 132.511 79.812C132.1 80.0453 131.774 80.3767 131.531 80.806C131.288 81.2353 131.167 81.7393 131.167 82.318C131.167 82.8873 131.288 83.3913 131.531 83.83C131.774 84.2593 132.1 84.5953 132.511 84.838C132.922 85.0713 133.384 85.188 133.897 85.188ZM144.772 85.524V79.518H141.23L141.146 81.156C141.128 81.6507 141.095 82.136 141.048 82.612C141.011 83.088 140.941 83.5267 140.838 83.928C140.745 84.32 140.61 84.642 140.432 84.894C140.255 85.1367 140.026 85.2767 139.746 85.314L138.752 85.132C139.042 85.1413 139.28 85.0387 139.466 84.824C139.653 84.6 139.798 84.2967 139.9 83.914C140.003 83.5313 140.078 83.0973 140.124 82.612C140.171 82.1173 140.208 81.6133 140.236 81.1L140.334 78.65H145.766V85.524H144.772ZM138.444 87.778V85.132H146.914V87.778H145.976V86H139.382V87.778H138.444ZM152.156 86.084C151.558 86.084 151.026 85.986 150.56 85.79C150.102 85.594 149.71 85.2953 149.384 84.894C149.057 84.4927 148.81 83.998 148.642 83.41C148.474 82.8127 148.39 82.122 148.39 81.338C148.39 80.638 148.455 80.0267 148.586 79.504C148.716 78.972 148.898 78.5147 149.132 78.132C149.365 77.7493 149.636 77.4273 149.944 77.166C150.261 76.8953 150.602 76.6807 150.966 76.522C151.339 76.354 151.722 76.228 152.114 76.144L155.418 75.374L155.586 76.298L152.478 76.998C152.282 77.0447 152.044 77.11 151.764 77.194C151.493 77.278 151.213 77.404 150.924 77.572C150.644 77.74 150.382 77.9733 150.14 78.272C149.897 78.5707 149.701 78.958 149.552 79.434C149.412 79.9007 149.342 80.484 149.342 81.184C149.342 81.3333 149.346 81.4547 149.356 81.548C149.365 81.632 149.374 81.7253 149.384 81.828C149.402 81.9213 149.416 82.0613 149.426 82.248L148.992 81.884C149.094 81.3147 149.304 80.82 149.622 80.4C149.939 79.9707 150.336 79.6393 150.812 79.406C151.297 79.1633 151.834 79.042 152.422 79.042C153.103 79.042 153.71 79.1913 154.242 79.49C154.774 79.7793 155.189 80.1853 155.488 80.708C155.796 81.2307 155.95 81.8373 155.95 82.528C155.95 83.2093 155.791 83.8207 155.474 84.362C155.166 84.9033 154.727 85.328 154.158 85.636C153.588 85.9347 152.921 86.084 152.156 86.084ZM152.268 85.258C152.79 85.258 153.252 85.1413 153.654 84.908C154.055 84.6653 154.368 84.3387 154.592 83.928C154.825 83.5173 154.942 83.0553 154.942 82.542C154.942 82.038 154.825 81.59 154.592 81.198C154.368 80.806 154.055 80.498 153.654 80.274C153.252 80.0407 152.786 79.924 152.254 79.924C151.731 79.924 151.269 80.036 150.868 80.26C150.466 80.4747 150.149 80.778 149.916 81.17C149.692 81.562 149.58 82.0147 149.58 82.528C149.58 83.0413 149.692 83.5033 149.916 83.914C150.149 84.3247 150.466 84.6513 150.868 84.894C151.278 85.1367 151.745 85.258 152.268 85.258ZM161.104 86.07C160.395 86.07 159.755 85.9113 159.186 85.594C158.626 85.2673 158.183 84.824 157.856 84.264C157.529 83.6947 157.366 83.046 157.366 82.318C157.366 81.5807 157.529 80.932 157.856 80.372C158.183 79.812 158.626 79.3733 159.186 79.056C159.746 78.7387 160.385 78.58 161.104 78.58C161.832 78.58 162.476 78.7387 163.036 79.056C163.605 79.3733 164.049 79.812 164.366 80.372C164.693 80.932 164.856 81.5807 164.856 82.318C164.856 83.046 164.693 83.6947 164.366 84.264C164.049 84.824 163.605 85.2673 163.036 85.594C162.467 85.9113 161.823 86.07 161.104 86.07ZM161.104 85.188C161.636 85.188 162.107 85.0713 162.518 84.838C162.929 84.5953 163.251 84.2593 163.484 83.83C163.727 83.3913 163.848 82.8873 163.848 82.318C163.848 81.7393 163.727 81.2353 163.484 80.806C163.251 80.3767 162.929 80.0453 162.518 79.812C162.107 79.5693 161.641 79.448 161.118 79.448C160.595 79.448 160.129 79.5693 159.718 79.812C159.307 80.0453 158.981 80.3767 158.738 80.806C158.495 81.2353 158.374 81.7393 158.374 82.318C158.374 82.8873 158.495 83.3913 158.738 83.83C158.981 84.2593 159.307 84.5953 159.718 84.838C160.129 85.0713 160.591 85.188 161.104 85.188ZM170.774 86.07C170.14 86.07 169.566 85.9253 169.052 85.636C168.539 85.3373 168.128 84.9127 167.82 84.362C167.522 83.802 167.372 83.1207 167.372 82.318C167.372 81.5153 167.522 80.8387 167.82 80.288C168.119 79.728 168.525 79.3033 169.038 79.014C169.552 78.7247 170.13 78.58 170.774 78.58C171.474 78.58 172.1 78.7387 172.65 79.056C173.21 79.364 173.649 79.8027 173.966 80.372C174.284 80.932 174.442 81.5807 174.442 82.318C174.442 83.0647 174.284 83.718 173.966 84.278C173.649 84.838 173.21 85.2767 172.65 85.594C172.1 85.9113 171.474 86.07 170.774 86.07ZM166.98 88.716V78.65H167.932V80.862L167.834 82.332L167.974 83.816V88.716H166.98ZM170.704 85.188C171.227 85.188 171.694 85.0713 172.104 84.838C172.515 84.5953 172.842 84.2593 173.084 83.83C173.327 83.3913 173.448 82.8873 173.448 82.318C173.448 81.7487 173.327 81.2493 173.084 80.82C172.842 80.3907 172.515 80.0547 172.104 79.812C171.694 79.5693 171.227 79.448 170.704 79.448C170.182 79.448 169.71 79.5693 169.29 79.812C168.88 80.0547 168.553 80.3907 168.31 80.82C168.077 81.2493 167.96 81.7487 167.96 82.318C167.96 82.8873 168.077 83.3913 168.31 83.83C168.553 84.2593 168.88 84.5953 169.29 84.838C169.71 85.0713 170.182 85.188 170.704 85.188ZM176.499 88.786C176.154 88.786 175.822 88.73 175.505 88.618C175.197 88.506 174.931 88.338 174.707 88.114L175.169 87.372C175.356 87.5493 175.556 87.6847 175.771 87.778C175.995 87.8807 176.242 87.932 176.513 87.932C176.84 87.932 177.12 87.8387 177.353 87.652C177.596 87.4747 177.824 87.1573 178.039 86.7L178.515 85.622L178.627 85.468L181.651 78.65H182.631L178.949 86.882C178.744 87.358 178.515 87.736 178.263 88.016C178.02 88.296 177.754 88.492 177.465 88.604C177.176 88.7253 176.854 88.786 176.499 88.786ZM178.459 86.21L175.071 78.65H176.107L179.103 85.398L178.459 86.21Z" fill="white"/>
</svg>
