<svg width="442" height="112" viewBox="0 0 442 112" fill="none" xmlns="http://www.w3.org/2000/svg">
<path d="M16.88 38.48C14.6667 38.48 12.6133 38.12 10.72 37.4C8.85333 36.68 7.22667 35.6667 5.84 34.36C4.48 33.0533 3.41333 31.52 2.64 29.76C1.89333 28 1.52 26.08 1.52 24C1.52 21.92 1.89333 20 2.64 18.24C3.41333 16.48 4.49333 14.9467 5.88 13.64C7.26667 12.3333 8.89333 11.32 10.76 10.6C12.6267 9.88 14.6533 9.52 16.84 9.52C19.0533 9.52 21.08 9.88 22.92 10.6C24.7867 11.32 26.4 12.3333 27.76 13.64C29.1467 14.9467 30.2267 16.48 31 18.24C31.7733 19.9733 32.16 21.8933 32.16 24C32.16 26.08 31.7733 28.0133 31 29.8C30.2267 31.56 29.1467 33.0933 27.76 34.4C26.4 35.68 24.7867 36.68 22.92 37.4C21.08 38.12 19.0667 38.48 16.88 38.48ZM16.84 32.96C18.0933 32.96 19.24 32.7467 20.28 32.32C21.3467 31.8933 22.28 31.28 23.08 30.48C23.88 29.68 24.4933 28.7333 24.92 27.64C25.3733 26.5467 25.6 25.3333 25.6 24C25.6 22.6667 25.3733 21.4533 24.92 20.36C24.4933 19.2667 23.88 18.32 23.08 17.52C22.3067 16.72 21.3867 16.1067 20.32 15.68C19.2533 15.2533 18.0933 15.04 16.84 15.04C15.5867 15.04 14.4267 15.2533 13.36 15.68C12.32 16.1067 11.4 16.72 10.6 17.52C9.8 18.32 9.17333 19.2667 8.72 20.36C8.29333 21.4533 8.08 22.6667 8.08 24C8.08 25.3067 8.29333 26.52 8.72 27.64C9.17333 28.7333 9.78667 29.68 10.56 30.48C11.36 31.28 12.2933 31.8933 13.36 32.32C14.4267 32.7467 15.5867 32.96 16.84 32.96ZM46.9119 38.32C44.5919 38.32 42.5252 37.8533 40.7119 36.92C38.8985 35.96 37.4719 34.64 36.4319 32.96C35.4185 31.28 34.9119 29.3733 34.9119 27.24C34.9119 25.08 35.4185 23.1733 36.4319 21.52C37.4719 19.84 38.8985 18.5333 40.7119 17.6C42.5252 16.64 44.5919 16.16 46.9119 16.16C49.1785 16.16 51.1519 16.64 52.8319 17.6C54.5119 18.5333 55.7519 19.88 56.5519 21.64L51.7119 24.24C51.1519 23.2267 50.4452 22.48 49.5919 22C48.7652 21.52 47.8585 21.28 46.8719 21.28C45.8052 21.28 44.8452 21.52 43.9919 22C43.1385 22.48 42.4585 23.16 41.9519 24.04C41.4719 24.92 41.2319 25.9867 41.2319 27.24C41.2319 28.4933 41.4719 29.56 41.9519 30.44C42.4585 31.32 43.1385 32 43.9919 32.48C44.8452 32.96 45.8052 33.2 46.8719 33.2C47.8585 33.2 48.7652 32.9733 49.5919 32.52C50.4452 32.04 51.1519 31.28 51.7119 30.24L56.5519 32.88C55.7519 34.6133 54.5119 35.96 52.8319 36.92C51.1519 37.8533 49.1785 38.32 46.9119 38.32ZM64.9047 38V20.16L66.3047 21.6H57.6247V16.48H78.3847V21.6H69.7047L71.1047 20.16V38H64.9047ZM94.5909 38V33.8L94.1909 32.88V25.36C94.1909 24.0267 93.7776 22.9867 92.9509 22.24C92.1509 21.4933 90.9109 21.12 89.2309 21.12C88.0843 21.12 86.9509 21.3067 85.8309 21.68C84.7376 22.0267 83.8043 22.5067 83.0309 23.12L80.7909 18.76C81.9643 17.9333 83.3776 17.2933 85.0309 16.84C86.6843 16.3867 88.3643 16.16 90.0709 16.16C93.3509 16.16 95.8976 16.9333 97.7109 18.48C99.5243 20.0267 100.431 22.44 100.431 25.72V38H94.5909ZM88.0309 38.32C86.3509 38.32 84.9109 38.04 83.7109 37.48C82.5109 36.8933 81.5909 36.1067 80.9509 35.12C80.3109 34.1333 79.9909 33.0267 79.9909 31.8C79.9909 30.52 80.2976 29.4 80.9109 28.44C81.5509 27.48 82.5509 26.7333 83.9109 26.2C85.2709 25.64 87.0443 25.36 89.2309 25.36H94.9509V29H89.9109C88.4443 29 87.4309 29.24 86.8709 29.72C86.3376 30.2 86.0709 30.8 86.0709 31.52C86.0709 32.32 86.3776 32.96 86.9909 33.44C87.6309 33.8933 88.4976 34.12 89.5909 34.12C90.6309 34.12 91.5643 33.88 92.3909 33.4C93.2176 32.8933 93.8176 32.16 94.1909 31.2L95.1509 34.08C94.6976 35.4667 93.8709 36.52 92.6709 37.24C91.4709 37.96 89.9243 38.32 88.0309 38.32ZM103.132 37.96L103.452 32.84C103.612 32.8667 103.772 32.8933 103.932 32.92C104.092 32.92 104.238 32.92 104.372 32.92C105.118 32.92 105.705 32.7067 106.132 32.28C106.558 31.8533 106.878 31.28 107.092 30.56C107.305 29.8133 107.452 28.9733 107.532 28.04C107.638 27.1067 107.718 26.1333 107.772 25.12L108.092 16.48H126.492V38H120.252V20.08L121.652 21.6H112.212L113.532 20L113.252 25.4C113.172 27.32 113.012 29.08 112.772 30.68C112.558 32.28 112.198 33.6667 111.692 34.84C111.185 35.9867 110.505 36.88 109.652 37.52C108.798 38.1333 107.705 38.44 106.372 38.44C105.892 38.44 105.385 38.4 104.852 38.32C104.318 38.24 103.745 38.12 103.132 37.96ZM132.492 38V16.48H138.692V29.28L149.172 16.48H154.892V38H148.692V25.2L138.252 38H132.492ZM171.131 38.32C168.811 38.32 166.744 37.8533 164.931 36.92C163.117 35.96 161.691 34.64 160.651 32.96C159.637 31.28 159.131 29.3733 159.131 27.24C159.131 25.08 159.637 23.1733 160.651 21.52C161.691 19.84 163.117 18.5333 164.931 17.6C166.744 16.64 168.811 16.16 171.131 16.16C173.397 16.16 175.371 16.64 177.051 17.6C178.731 18.5333 179.971 19.88 180.771 21.64L175.931 24.24C175.371 23.2267 174.664 22.48 173.811 22C172.984 21.52 172.077 21.28 171.091 21.28C170.024 21.28 169.064 21.52 168.211 22C167.357 22.48 166.677 23.16 166.171 24.04C165.691 24.92 165.451 25.9867 165.451 27.24C165.451 28.4933 165.691 29.56 166.171 30.44C166.677 31.32 167.357 32 168.211 32.48C169.064 32.96 170.024 33.2 171.091 33.2C172.077 33.2 172.984 32.9733 173.811 32.52C174.664 32.04 175.371 31.28 175.931 30.24L180.771 32.88C179.971 34.6133 178.731 35.96 177.051 36.92C175.371 37.8533 173.397 38.32 171.131 38.32ZM196.203 23.36C199.029 23.3867 201.176 24.0267 202.643 25.28C204.136 26.5067 204.883 28.2533 204.883 30.52C204.883 32.8933 204.043 34.7467 202.363 36.08C200.683 37.3867 198.349 38.04 195.363 38.04L184.563 38V16.48H190.763V23.36H196.203ZM194.803 33.6C196.003 33.6267 196.923 33.3733 197.563 32.84C198.203 32.3067 198.523 31.5067 198.523 30.44C198.523 29.3733 198.203 28.6133 197.563 28.16C196.923 27.68 196.003 27.4267 194.803 27.4L190.763 27.36V33.6H194.803ZM220.109 38V16.48H231.109C233.803 16.48 235.909 16.9733 237.429 17.96C238.949 18.92 239.709 20.28 239.709 22.04C239.709 23.8 238.989 25.1867 237.549 26.2C236.136 27.1867 234.256 27.68 231.909 27.68L232.549 26.24C235.163 26.24 237.109 26.72 238.389 27.68C239.696 28.64 240.349 30.04 240.349 31.88C240.349 33.7733 239.629 35.2667 238.189 36.36C236.749 37.4533 234.549 38 231.589 38H220.109ZM225.829 33.76H231.069C232.216 33.76 233.069 33.5733 233.629 33.2C234.216 32.8 234.509 32.2 234.509 31.4C234.509 30.5733 234.243 29.9733 233.709 29.6C233.176 29.2 232.336 29 231.189 29H225.829V33.76ZM225.829 25.32H230.549C231.643 25.32 232.456 25.12 232.989 24.72C233.549 24.32 233.829 23.7467 233.829 23C233.829 22.2267 233.549 21.6533 232.989 21.28C232.456 20.9067 231.643 20.72 230.549 20.72H225.829V25.32ZM255.072 38.32C252.779 38.32 250.739 37.84 248.952 36.88C247.192 35.92 245.792 34.6133 244.752 32.96C243.739 31.28 243.232 29.3733 243.232 27.24C243.232 25.08 243.739 23.1733 244.752 21.52C245.792 19.84 247.192 18.5333 248.952 17.6C250.739 16.64 252.779 16.16 255.072 16.16C257.339 16.16 259.366 16.64 261.152 17.6C262.939 18.5333 264.339 19.8267 265.352 21.48C266.366 23.1333 266.872 25.0533 266.872 27.24C266.872 29.3733 266.366 31.28 265.352 32.96C264.339 34.6133 262.939 35.92 261.152 36.88C259.366 37.84 257.339 38.32 255.072 38.32ZM255.072 33.2C256.112 33.2 257.046 32.96 257.872 32.48C258.699 32 259.352 31.32 259.832 30.44C260.312 29.5333 260.552 28.4667 260.552 27.24C260.552 25.9867 260.312 24.92 259.832 24.04C259.352 23.16 258.699 22.48 257.872 22C257.046 21.52 256.112 21.28 255.072 21.28C254.032 21.28 253.099 21.52 252.272 22C251.446 22.48 250.779 23.16 250.272 24.04C249.792 24.92 249.552 25.9867 249.552 27.24C249.552 28.4667 249.792 29.5333 250.272 30.44C250.779 31.32 251.446 32 252.272 32.48C253.099 32.96 254.032 33.2 255.072 33.2ZM271.164 38V16.48H292.564V38H286.324V20.2L287.724 21.6H275.964L277.364 20.2V38H271.164ZM311.227 38.32C309.414 38.32 307.827 37.92 306.467 37.12C305.107 36.32 304.04 35.1067 303.267 33.48C302.52 31.8267 302.147 29.7467 302.147 27.24C302.147 24.7067 302.507 22.6267 303.227 21C303.947 19.3733 304.987 18.16 306.347 17.36C307.707 16.56 309.334 16.16 311.227 16.16C313.254 16.16 315.067 16.6267 316.667 17.56C318.294 18.4667 319.574 19.7467 320.507 21.4C321.467 23.0533 321.947 25 321.947 27.24C321.947 29.5067 321.467 31.4667 320.507 33.12C319.574 34.7733 318.294 36.0533 316.667 36.96C315.067 37.8667 313.254 38.32 311.227 38.32ZM298.507 45.76V16.48H304.467V20.88L304.347 27.28L304.747 33.64V45.76H298.507ZM310.147 33.2C311.187 33.2 312.107 32.96 312.907 32.48C313.734 32 314.387 31.32 314.867 30.44C315.374 29.5333 315.627 28.4667 315.627 27.24C315.627 25.9867 315.374 24.92 314.867 24.04C314.387 23.16 313.734 22.48 312.907 22C312.107 21.52 311.187 21.28 310.147 21.28C309.107 21.28 308.174 21.52 307.347 22C306.52 22.48 305.867 23.16 305.387 24.04C304.907 24.92 304.667 25.9867 304.667 27.24C304.667 28.4667 304.907 29.5333 305.387 30.44C305.867 31.32 306.52 32 307.347 32.48C308.174 32.96 309.107 33.2 310.147 33.2ZM336.4 38.32C334.107 38.32 332.067 37.84 330.28 36.88C328.52 35.92 327.12 34.6133 326.08 32.96C325.067 31.28 324.56 29.3733 324.56 27.24C324.56 25.08 325.067 23.1733 326.08 21.52C327.12 19.84 328.52 18.5333 330.28 17.6C332.067 16.64 334.107 16.16 336.4 16.16C338.667 16.16 340.694 16.64 342.48 17.6C344.267 18.5333 345.667 19.8267 346.68 21.48C347.694 23.1333 348.2 25.0533 348.2 27.24C348.2 29.3733 347.694 31.28 346.68 32.96C345.667 34.6133 344.267 35.92 342.48 36.88C340.694 37.84 338.667 38.32 336.4 38.32ZM336.4 33.2C337.44 33.2 338.374 32.96 339.2 32.48C340.027 32 340.68 31.32 341.16 30.44C341.64 29.5333 341.88 28.4667 341.88 27.24C341.88 25.9867 341.64 24.92 341.16 24.04C340.68 23.16 340.027 22.48 339.2 22C338.374 21.52 337.44 21.28 336.4 21.28C335.36 21.28 334.427 21.52 333.6 22C332.774 22.48 332.107 23.16 331.6 24.04C331.12 24.92 330.88 25.9867 330.88 27.24C330.88 28.4667 331.12 29.5333 331.6 30.44C332.107 31.32 332.774 32 333.6 32.48C334.427 32.96 335.36 33.2 336.4 33.2ZM362.732 38.32C360.412 38.32 358.346 37.8533 356.532 36.92C354.719 35.96 353.292 34.64 352.252 32.96C351.239 31.28 350.732 29.3733 350.732 27.24C350.732 25.08 351.239 23.1733 352.252 21.52C353.292 19.84 354.719 18.5333 356.532 17.6C358.346 16.64 360.412 16.16 362.732 16.16C364.999 16.16 366.972 16.64 368.652 17.6C370.332 18.5333 371.572 19.88 372.372 21.64L367.532 24.24C366.972 23.2267 366.266 22.48 365.412 22C364.586 21.52 363.679 21.28 362.692 21.28C361.626 21.28 360.666 21.52 359.812 22C358.959 22.48 358.279 23.16 357.772 24.04C357.292 24.92 357.052 25.9867 357.052 27.24C357.052 28.4933 357.292 29.56 357.772 30.44C358.279 31.32 358.959 32 359.812 32.48C360.666 32.96 361.626 33.2 362.692 33.2C363.679 33.2 364.586 32.9733 365.412 32.52C366.266 32.04 366.972 31.28 367.532 30.24L372.372 32.88C371.572 34.6133 370.332 35.96 368.652 36.92C366.972 37.8533 364.999 38.32 362.732 38.32ZM398.324 38V16.48H404.524V38H398.324ZM387.484 23.36C390.311 23.3867 392.431 24.0267 393.844 25.28C395.284 26.5067 396.004 28.2533 396.004 30.52C396.004 32.8933 395.191 34.7467 393.564 36.08C391.937 37.3867 389.631 38.04 386.644 38.04L376.164 38V16.48H382.364V23.36H387.484ZM386.084 33.6C387.284 33.6267 388.204 33.3733 388.844 32.84C389.484 32.3067 389.804 31.5067 389.804 30.44C389.804 29.3733 389.484 28.6133 388.844 28.16C388.204 27.68 387.284 27.4267 386.084 27.4L382.364 27.36V33.6H386.084ZM417.274 28.28C417.274 27.3467 417.42 26.52 417.714 25.8C418.034 25.08 418.42 24.44 418.874 23.88C419.354 23.32 419.86 22.8 420.394 22.32C420.927 21.84 421.42 21.3867 421.874 20.96C422.354 20.5067 422.74 20.04 423.034 19.56C423.354 19.08 423.514 18.5467 423.514 17.96C423.514 17 423.114 16.2267 422.314 15.64C421.54 15.0533 420.5 14.76 419.194 14.76C417.94 14.76 416.82 15.0267 415.834 15.56C414.847 16.0667 414.034 16.7867 413.394 17.72L408.554 14.88C409.62 13.2533 411.1 11.96 412.994 11C414.887 10.0133 417.18 9.52 419.874 9.52C421.874 9.52 423.634 9.81333 425.154 10.4C426.674 10.96 427.86 11.7867 428.714 12.88C429.594 13.9733 430.034 15.32 430.034 16.92C430.034 17.96 429.874 18.88 429.554 19.68C429.234 20.48 428.82 21.1733 428.314 21.76C427.807 22.3467 427.26 22.8933 426.674 23.4C426.114 23.9067 425.58 24.4 425.074 24.88C424.567 25.36 424.14 25.8667 423.794 26.4C423.474 26.9333 423.314 27.56 423.314 28.28H417.274ZM420.314 38.32C419.194 38.32 418.274 37.96 417.554 37.24C416.834 36.52 416.474 35.6667 416.474 34.68C416.474 33.6667 416.834 32.8267 417.554 32.16C418.274 31.4667 419.194 31.12 420.314 31.12C421.46 31.12 422.38 31.4667 423.074 32.16C423.794 32.8267 424.154 33.6667 424.154 34.68C424.154 35.6667 423.794 36.52 423.074 37.24C422.38 37.96 421.46 38.32 420.314 38.32Z" fill="white"/>
<path d="M1.888 82V70.8H11.312V82H10.144V71.504L10.448 71.824H2.752L3.056 71.504V82H1.888ZM18.2751 82.08C17.4645 82.08 16.7338 81.8987 16.0831 81.536C15.4431 81.1627 14.9365 80.656 14.5631 80.016C14.1898 79.3653 14.0031 78.624 14.0031 77.792C14.0031 76.9493 14.1898 76.208 14.5631 75.568C14.9365 74.928 15.4431 74.4267 16.0831 74.064C16.7231 73.7013 17.4538 73.52 18.2751 73.52C19.1071 73.52 19.8431 73.7013 20.4831 74.064C21.1338 74.4267 21.6405 74.928 22.0031 75.568C22.3765 76.208 22.5631 76.9493 22.5631 77.792C22.5631 78.624 22.3765 79.3653 22.0031 80.016C21.6405 80.656 21.1338 81.1627 20.4831 81.536C19.8325 81.8987 19.0965 82.08 18.2751 82.08ZM18.2751 81.072C18.8831 81.072 19.4218 80.9387 19.8911 80.672C20.3605 80.3947 20.7285 80.0107 20.9951 79.52C21.2725 79.0187 21.4111 78.4427 21.4111 77.792C21.4111 77.1307 21.2725 76.5547 20.9951 76.064C20.7285 75.5733 20.3605 75.1947 19.8911 74.928C19.4218 74.6507 18.8885 74.512 18.2911 74.512C17.6938 74.512 17.1605 74.6507 16.6911 74.928C16.2218 75.1947 15.8485 75.5733 15.5711 76.064C15.2938 76.5547 15.1551 77.1307 15.1551 77.792C15.1551 78.4427 15.2938 79.0187 15.5711 79.52C15.8485 80.0107 16.2218 80.3947 16.6911 80.672C17.1605 80.9387 17.6885 81.072 18.2751 81.072ZM23.4081 81.984L23.4881 81.008C23.5628 81.0187 23.6321 81.0347 23.6961 81.056C23.7708 81.0667 23.8348 81.072 23.8881 81.072C24.2295 81.072 24.5015 80.944 24.7041 80.688C24.9175 80.432 25.0775 80.0907 25.1841 79.664C25.2908 79.2373 25.3655 78.7573 25.4081 78.224C25.4508 77.68 25.4881 77.136 25.5201 76.592L25.6641 73.6H31.8241V82H30.6881V74.256L30.9761 74.592H26.4001L26.6721 74.24L26.5441 76.672C26.5121 77.3973 26.4535 78.0907 26.3681 78.752C26.2935 79.4133 26.1708 79.9947 26.0001 80.496C25.8401 80.9973 25.6161 81.392 25.3281 81.68C25.0401 81.9573 24.6721 82.096 24.2241 82.096C24.0961 82.096 23.9628 82.0853 23.8241 82.064C23.6961 82.0427 23.5575 82.016 23.4081 81.984ZM35.1975 85.184C34.8028 85.184 34.4242 85.12 34.0615 84.992C33.7095 84.864 33.4055 84.672 33.1495 84.416L33.6775 83.568C33.8908 83.7707 34.1202 83.9253 34.3655 84.032C34.6215 84.1493 34.9042 84.208 35.2135 84.208C35.5868 84.208 35.9068 84.1013 36.1735 83.888C36.4508 83.6853 36.7122 83.3227 36.9575 82.8L37.5015 81.568L37.6295 81.392L41.0855 73.6H42.2055L37.9975 83.008C37.7628 83.552 37.5015 83.984 37.2135 84.304C36.9362 84.624 36.6322 84.848 36.3015 84.976C35.9708 85.1147 35.6028 85.184 35.1975 85.184ZM37.4375 82.24L33.5655 73.6H34.7495L38.1735 81.312L37.4375 82.24ZM49.2874 78.448C48.7967 78.6613 48.3007 78.832 47.7994 78.96C47.3087 79.0773 46.818 79.136 46.3274 79.136C45.3354 79.136 44.5514 78.912 43.9754 78.464C43.3994 78.0053 43.1114 77.3013 43.1114 76.352V73.6H44.2314V76.288C44.2314 76.928 44.4394 77.408 44.8554 77.728C45.2714 78.048 45.8314 78.208 46.5354 78.208C46.962 78.208 47.41 78.1547 47.8794 78.048C48.3487 77.9307 48.8234 77.7653 49.3034 77.552L49.2874 78.448ZM49.1914 82V73.6H50.3274V82H49.1914ZM53.5535 82V73.6H54.6895V80.272L60.3055 73.6H61.3135V82H60.1775V75.312L54.5775 82H53.5535ZM66.1691 82V74.288L66.4571 74.592H62.9851V73.6H70.4891V74.592H67.0171L67.3051 74.288V82H66.1691ZM75.341 82.08C74.4663 82.08 73.6983 81.8987 73.037 81.536C72.3757 81.1627 71.8583 80.656 71.485 80.016C71.1117 79.3653 70.925 78.624 70.925 77.792C70.925 76.96 71.101 76.224 71.453 75.584C71.8157 74.944 72.3063 74.4427 72.925 74.08C73.5543 73.7067 74.2583 73.52 75.037 73.52C75.8263 73.52 76.525 73.7013 77.133 74.064C77.7517 74.416 78.237 74.9173 78.589 75.568C78.941 76.208 79.117 76.9493 79.117 77.792C79.117 77.8453 79.1117 77.904 79.101 77.968C79.101 78.0213 79.101 78.08 79.101 78.144H71.789V77.296H78.493L78.045 77.632C78.045 77.024 77.9117 76.4853 77.645 76.016C77.389 75.536 77.037 75.1627 76.589 74.896C76.141 74.6293 75.6237 74.496 75.037 74.496C74.461 74.496 73.9437 74.6293 73.485 74.896C73.0263 75.1627 72.669 75.536 72.413 76.016C72.157 76.496 72.029 77.0453 72.029 77.664V77.84C72.029 78.48 72.1677 79.0453 72.445 79.536C72.733 80.016 73.1277 80.3947 73.629 80.672C74.141 80.9387 74.7223 81.072 75.373 81.072C75.885 81.072 76.3597 80.9813 76.797 80.8C77.245 80.6187 77.629 80.3413 77.949 79.968L78.589 80.704C78.2157 81.152 77.7463 81.4933 77.181 81.728C76.6263 81.9627 76.013 82.08 75.341 82.08ZM89.5951 82.096C88.9125 82.096 88.3045 81.984 87.7711 81.76C87.2485 81.536 86.8005 81.1947 86.4271 80.736C86.0538 80.2773 85.7711 79.712 85.5791 79.04C85.3871 78.3573 85.2911 77.568 85.2911 76.672C85.2911 75.872 85.3658 75.1733 85.5151 74.576C85.6645 73.968 85.8725 73.4453 86.1391 73.008C86.4058 72.5707 86.7151 72.2027 87.0671 71.904C87.4298 71.5947 87.8191 71.3493 88.2351 71.168C88.6618 70.976 89.0991 70.832 89.5471 70.736L93.3231 69.856L93.5151 70.912L89.9631 71.712C89.7391 71.7653 89.4671 71.84 89.1471 71.936C88.8378 72.032 88.5178 72.176 88.1871 72.368C87.8671 72.56 87.5685 72.8267 87.2911 73.168C87.0138 73.5093 86.7898 73.952 86.6191 74.496C86.4591 75.0293 86.3791 75.696 86.3791 76.496C86.3791 76.6667 86.3845 76.8053 86.3951 76.912C86.4058 77.008 86.4165 77.1147 86.4271 77.232C86.4485 77.3387 86.4645 77.4987 86.4751 77.712L85.9791 77.296C86.0965 76.6453 86.3365 76.08 86.6991 75.6C87.0618 75.1093 87.5151 74.7307 88.0591 74.464C88.6138 74.1867 89.2271 74.048 89.8991 74.048C90.6778 74.048 91.3711 74.2187 91.9791 74.56C92.5871 74.8907 93.0618 75.3547 93.4031 75.952C93.7551 76.5493 93.9311 77.2427 93.9311 78.032C93.9311 78.8107 93.7498 79.5093 93.3871 80.128C93.0351 80.7467 92.5338 81.232 91.8831 81.584C91.2325 81.9253 90.4698 82.096 89.5951 82.096ZM89.7231 81.152C90.3205 81.152 90.8485 81.0187 91.3071 80.752C91.7658 80.4747 92.1231 80.1013 92.3791 79.632C92.6458 79.1627 92.7791 78.6347 92.7791 78.048C92.7791 77.472 92.6458 76.96 92.3791 76.512C92.1231 76.064 91.7658 75.712 91.3071 75.456C90.8485 75.1893 90.3151 75.056 89.7071 75.056C89.1098 75.056 88.5818 75.184 88.1231 75.44C87.6645 75.6853 87.3018 76.032 87.0351 76.48C86.7791 76.928 86.6511 77.4453 86.6511 78.032C86.6511 78.6187 86.7791 79.1467 87.0351 79.616C87.3018 80.0853 87.6645 80.4587 88.1231 80.736C88.5925 81.0133 89.1258 81.152 89.7231 81.152ZM99.966 82.08C99.0913 82.08 98.3233 81.8987 97.662 81.536C97.0007 81.1627 96.4833 80.656 96.11 80.016C95.7367 79.3653 95.55 78.624 95.55 77.792C95.55 76.96 95.726 76.224 96.078 75.584C96.4407 74.944 96.9313 74.4427 97.55 74.08C98.1793 73.7067 98.8833 73.52 99.662 73.52C100.451 73.52 101.15 73.7013 101.758 74.064C102.377 74.416 102.862 74.9173 103.214 75.568C103.566 76.208 103.742 76.9493 103.742 77.792C103.742 77.8453 103.737 77.904 103.726 77.968C103.726 78.0213 103.726 78.08 103.726 78.144H96.414V77.296H103.118L102.67 77.632C102.67 77.024 102.537 76.4853 102.27 76.016C102.014 75.536 101.662 75.1627 101.214 74.896C100.766 74.6293 100.249 74.496 99.662 74.496C99.086 74.496 98.5687 74.6293 98.11 74.896C97.6513 75.1627 97.294 75.536 97.038 76.016C96.782 76.496 96.654 77.0453 96.654 77.664V77.84C96.654 78.48 96.7927 79.0453 97.07 79.536C97.358 80.016 97.7527 80.3947 98.254 80.672C98.766 80.9387 99.3473 81.072 99.998 81.072C100.51 81.072 100.985 80.9813 101.422 80.8C101.87 80.6187 102.254 80.3413 102.574 79.968L103.214 80.704C102.841 81.152 102.371 81.4933 101.806 81.728C101.251 81.9627 100.638 82.08 99.966 82.08ZM109.777 82.08C108.945 82.08 108.198 81.8987 107.537 81.536C106.886 81.1627 106.374 80.656 106.001 80.016C105.627 79.3653 105.441 78.624 105.441 77.792C105.441 76.9493 105.627 76.208 106.001 75.568C106.374 74.928 106.886 74.4267 107.537 74.064C108.198 73.7013 108.945 73.52 109.777 73.52C110.491 73.52 111.137 73.6587 111.713 73.936C112.289 74.2133 112.742 74.6293 113.073 75.184L112.225 75.76C111.937 75.3333 111.579 75.0187 111.153 74.816C110.726 74.6133 110.262 74.512 109.761 74.512C109.163 74.512 108.625 74.6507 108.145 74.928C107.665 75.1947 107.286 75.5733 107.009 76.064C106.731 76.5547 106.593 77.1307 106.593 77.792C106.593 78.4533 106.731 79.0293 107.009 79.52C107.286 80.0107 107.665 80.3947 108.145 80.672C108.625 80.9387 109.163 81.072 109.761 81.072C110.262 81.072 110.726 80.9707 111.153 80.768C111.579 80.5653 111.937 80.256 112.225 79.84L113.073 80.416C112.742 80.96 112.289 81.376 111.713 81.664C111.137 81.9413 110.491 82.08 109.777 82.08ZM115.272 82V73.6H122.824V82H121.688V74.288L121.976 74.592H116.12L116.408 74.288V82H115.272ZM124.518 81.984L124.598 81.008C124.672 81.0187 124.742 81.0347 124.806 81.056C124.88 81.0667 124.944 81.072 124.998 81.072C125.339 81.072 125.611 80.944 125.814 80.688C126.027 80.432 126.187 80.0907 126.294 79.664C126.4 79.2373 126.475 78.7573 126.518 78.224C126.56 77.68 126.598 77.136 126.63 76.592L126.774 73.6H132.934V82H131.798V74.256L132.086 74.592H127.51L127.782 74.24L127.654 76.672C127.622 77.3973 127.563 78.0907 127.478 78.752C127.403 79.4133 127.28 79.9947 127.11 80.496C126.95 80.9973 126.726 81.392 126.438 81.68C126.15 81.9573 125.782 82.096 125.334 82.096C125.206 82.096 125.072 82.0853 124.934 82.064C124.806 82.0427 124.667 82.016 124.518 81.984ZM141.379 82V80.144L141.331 79.84V76.736C141.331 76.0213 141.128 75.472 140.723 75.088C140.328 74.704 139.736 74.512 138.947 74.512C138.403 74.512 137.886 74.6027 137.395 74.784C136.904 74.9653 136.488 75.2053 136.147 75.504L135.635 74.656C136.062 74.2933 136.574 74.016 137.171 73.824C137.768 73.6213 138.398 73.52 139.059 73.52C140.147 73.52 140.984 73.792 141.571 74.336C142.168 74.8693 142.467 75.6853 142.467 76.784V82H141.379ZM138.483 82.08C137.854 82.08 137.304 81.9787 136.835 81.776C136.376 81.5627 136.024 81.2747 135.779 80.912C135.534 80.5387 135.411 80.112 135.411 79.632C135.411 79.1947 135.512 78.8 135.715 78.448C135.928 78.0853 136.27 77.7973 136.739 77.584C137.219 77.36 137.859 77.248 138.659 77.248H141.555V78.096H138.691C137.88 78.096 137.315 78.24 136.995 78.528C136.686 78.816 136.531 79.1733 136.531 79.6C136.531 80.08 136.718 80.464 137.091 80.752C137.464 81.04 137.987 81.184 138.659 81.184C139.299 81.184 139.848 81.04 140.307 80.752C140.776 80.4533 141.118 80.0267 141.331 79.472L141.587 80.256C141.374 80.8107 141 81.2533 140.467 81.584C139.944 81.9147 139.283 82.08 138.483 82.08ZM147.091 82V74.288L147.379 74.592H143.907V73.6H151.411V74.592H147.939L148.227 74.288V82H147.091ZM153.054 82V73.6H154.19V77.312H159.486V73.6H160.622V82H159.486V78.288H154.19V82H153.054ZM163.994 85.184C163.6 85.184 163.221 85.12 162.858 84.992C162.506 84.864 162.202 84.672 161.946 84.416L162.474 83.568C162.688 83.7707 162.917 83.9253 163.162 84.032C163.418 84.1493 163.701 84.208 164.01 84.208C164.384 84.208 164.704 84.1013 164.97 83.888C165.248 83.6853 165.509 83.3227 165.754 82.8L166.298 81.568L166.426 81.392L169.882 73.6H171.002L166.794 83.008C166.56 83.552 166.298 83.984 166.01 84.304C165.733 84.624 165.429 84.848 165.098 84.976C164.768 85.1147 164.4 85.184 163.994 85.184ZM166.234 82.24L162.362 73.6H163.546L166.97 81.312L166.234 82.24ZM172.772 82V73.6H173.908V77.216H176.468V78.256H173.908V82H172.772ZM180.004 82.08C179.204 82.08 178.484 81.8987 177.844 81.536C177.215 81.1627 176.719 80.656 176.356 80.016C175.994 79.3653 175.812 78.624 175.812 77.792C175.812 76.9493 175.994 76.208 176.356 75.568C176.719 74.928 177.215 74.4267 177.844 74.064C178.484 73.7013 179.204 73.52 180.004 73.52C180.804 73.52 181.519 73.7013 182.148 74.064C182.778 74.4267 183.274 74.928 183.636 75.568C183.999 76.208 184.18 76.9493 184.18 77.792C184.18 78.624 183.999 79.3653 183.636 80.016C183.274 80.656 182.778 81.1627 182.148 81.536C181.519 81.8987 180.804 82.08 180.004 82.08ZM180.004 81.088C180.591 81.088 181.114 80.9493 181.572 80.672C182.031 80.3947 182.394 80.0107 182.66 79.52C182.927 79.0187 183.06 78.4427 183.06 77.792C183.06 77.1307 182.927 76.5547 182.66 76.064C182.394 75.5733 182.031 75.1947 181.572 74.928C181.114 74.6507 180.591 74.512 180.004 74.512C179.428 74.512 178.906 74.6507 178.436 74.928C177.978 75.1947 177.615 75.5733 177.348 76.064C177.082 76.5547 176.948 77.1307 176.948 77.792C176.948 78.4427 177.082 79.0187 177.348 79.52C177.615 80.0107 177.978 80.3947 178.436 80.672C178.906 80.9493 179.428 81.088 180.004 81.088ZM196.964 82L193.508 77.84L194.452 77.28L198.308 82H196.964ZM190.804 82V73.6H191.94V82H190.804ZM191.588 78.256V77.28H194.292V78.256H191.588ZM194.548 77.92L193.492 77.76L196.836 73.6H198.068L194.548 77.92ZM203.26 82.08C202.449 82.08 201.718 81.8987 201.068 81.536C200.428 81.1627 199.921 80.656 199.548 80.016C199.174 79.3653 198.988 78.624 198.988 77.792C198.988 76.9493 199.174 76.208 199.548 75.568C199.921 74.928 200.428 74.4267 201.068 74.064C201.708 73.7013 202.438 73.52 203.26 73.52C204.092 73.52 204.828 73.7013 205.468 74.064C206.118 74.4267 206.625 74.928 206.988 75.568C207.361 76.208 207.548 76.9493 207.548 77.792C207.548 78.624 207.361 79.3653 206.988 80.016C206.625 80.656 206.118 81.1627 205.468 81.536C204.817 81.8987 204.081 82.08 203.26 82.08ZM203.26 81.072C203.868 81.072 204.406 80.9387 204.876 80.672C205.345 80.3947 205.713 80.0107 205.98 79.52C206.257 79.0187 206.396 78.4427 206.396 77.792C206.396 77.1307 206.257 76.5547 205.98 76.064C205.713 75.5733 205.345 75.1947 204.876 74.928C204.406 74.6507 203.873 74.512 203.276 74.512C202.678 74.512 202.145 74.6507 201.676 74.928C201.206 75.1947 200.833 75.5733 200.556 76.064C200.278 76.5547 200.14 77.1307 200.14 77.792C200.14 78.4427 200.278 79.0187 200.556 79.52C200.833 80.0107 201.206 80.3947 201.676 80.672C202.145 80.9387 202.673 81.072 203.26 81.072ZM209.975 82V73.6H211.111V77.312H216.407V73.6H217.543V82H216.407V78.288H211.111V82H209.975ZM224.292 82.08C223.46 82.08 222.714 81.8987 222.052 81.536C221.402 81.1627 220.89 80.656 220.516 80.016C220.143 79.3653 219.956 78.624 219.956 77.792C219.956 76.9493 220.143 76.208 220.516 75.568C220.89 74.928 221.402 74.4267 222.052 74.064C222.714 73.7013 223.46 73.52 224.292 73.52C225.007 73.52 225.652 73.6587 226.228 73.936C226.804 74.2133 227.258 74.6293 227.588 75.184L226.74 75.76C226.452 75.3333 226.095 75.0187 225.668 74.816C225.242 74.6133 224.778 74.512 224.276 74.512C223.679 74.512 223.14 74.6507 222.66 74.928C222.18 75.1947 221.802 75.5733 221.524 76.064C221.247 76.5547 221.108 77.1307 221.108 77.792C221.108 78.4533 221.247 79.0293 221.524 79.52C221.802 80.0107 222.18 80.3947 222.66 80.672C223.14 80.9387 223.679 81.072 224.276 81.072C224.778 81.072 225.242 80.9707 225.668 80.768C226.095 80.5653 226.452 80.256 226.74 79.84L227.588 80.416C227.258 80.96 226.804 81.376 226.228 81.664C225.652 81.9413 225.007 82.08 224.292 82.08ZM229.807 85.184C229.412 85.184 229.034 85.12 228.671 84.992C228.319 84.864 228.015 84.672 227.759 84.416L228.287 83.568C228.5 83.7707 228.73 83.9253 228.975 84.032C229.231 84.1493 229.514 84.208 229.823 84.208C230.196 84.208 230.516 84.1013 230.783 83.888C231.06 83.6853 231.322 83.3227 231.567 82.8L232.111 81.568L232.239 81.392L235.695 73.6H236.815L232.607 83.008C232.372 83.552 232.111 83.984 231.823 84.304C231.546 84.624 231.242 84.848 230.911 84.976C230.58 85.1147 230.212 85.184 229.807 85.184ZM232.047 82.24L228.175 73.6H229.359L232.783 81.312L232.047 82.24ZM236.689 81.984L236.769 81.008C236.844 81.0187 236.913 81.0347 236.977 81.056C237.052 81.0667 237.116 81.072 237.169 81.072C237.511 81.072 237.783 80.944 237.985 80.688C238.199 80.432 238.359 80.0907 238.465 79.664C238.572 79.2373 238.647 78.7573 238.689 78.224C238.732 77.68 238.769 77.136 238.801 76.592L238.945 73.6H245.105V82H243.969V74.256L244.257 74.592H239.681L239.953 74.24L239.825 76.672C239.793 77.3973 239.735 78.0907 239.649 78.752C239.575 79.4133 239.452 79.9947 239.281 80.496C239.121 80.9973 238.897 81.392 238.609 81.68C238.321 81.9573 237.953 82.096 237.505 82.096C237.377 82.096 237.244 82.0853 237.105 82.064C236.977 82.0427 236.839 82.016 236.689 81.984ZM251.951 76.56C253.007 76.5707 253.807 76.8053 254.351 77.264C254.905 77.7227 255.183 78.384 255.183 79.248C255.183 80.144 254.884 80.832 254.287 81.312C253.7 81.792 252.847 82.0267 251.727 82.016L248.335 82V73.6H249.471V76.528L251.951 76.56ZM251.663 81.152C252.441 81.1627 253.028 81.008 253.423 80.688C253.828 80.3573 254.031 79.8773 254.031 79.248C254.031 78.6187 253.833 78.16 253.439 77.872C253.044 77.5733 252.452 77.4187 251.663 77.408L249.471 77.376V81.12L251.663 81.152ZM258.107 82V74.288L258.395 74.592H254.923V73.6H262.427V74.592H258.955L259.243 74.288V82H258.107ZM269.285 82V80.144L269.237 79.84V76.736C269.237 76.0213 269.034 75.472 268.629 75.088C268.234 74.704 267.642 74.512 266.853 74.512C266.309 74.512 265.792 74.6027 265.301 74.784C264.81 74.9653 264.394 75.2053 264.053 75.504L263.541 74.656C263.968 74.2933 264.48 74.016 265.077 73.824C265.674 73.6213 266.304 73.52 266.965 73.52C268.053 73.52 268.89 73.792 269.477 74.336C270.074 74.8693 270.373 75.6853 270.373 76.784V82H269.285ZM266.389 82.08C265.76 82.08 265.21 81.9787 264.741 81.776C264.282 81.5627 263.93 81.2747 263.685 80.912C263.44 80.5387 263.317 80.112 263.317 79.632C263.317 79.1947 263.418 78.8 263.621 78.448C263.834 78.0853 264.176 77.7973 264.645 77.584C265.125 77.36 265.765 77.248 266.565 77.248H269.461V78.096H266.597C265.786 78.096 265.221 78.24 264.901 78.528C264.592 78.816 264.437 79.1733 264.437 79.6C264.437 80.08 264.624 80.464 264.997 80.752C265.37 81.04 265.893 81.184 266.565 81.184C267.205 81.184 267.754 81.04 268.213 80.752C268.682 80.4533 269.024 80.0267 269.237 79.472L269.493 80.256C269.28 80.8107 268.906 81.2533 268.373 81.584C267.85 81.9147 267.189 82.08 266.389 82.08ZM273.397 82V73.6H274.533V81.008H279.669V73.6H280.805V82H273.397ZM281.093 84.032V81.904L281.381 82H279.669V81.008H282.165V84.032H281.093ZM284.335 82V73.6H285.471V80.272L291.087 73.6H292.095V82H290.959V75.312L285.359 82H284.335ZM295.35 82V73.6H296.486V77.216H299.046V78.256H296.486V82H295.35ZM302.582 82.08C301.782 82.08 301.062 81.8987 300.422 81.536C299.793 81.1627 299.297 80.656 298.934 80.016C298.572 79.3653 298.39 78.624 298.39 77.792C298.39 76.9493 298.572 76.208 298.934 75.568C299.297 74.928 299.793 74.4267 300.422 74.064C301.062 73.7013 301.782 73.52 302.582 73.52C303.382 73.52 304.097 73.7013 304.726 74.064C305.356 74.4267 305.852 74.928 306.214 75.568C306.577 76.208 306.758 76.9493 306.758 77.792C306.758 78.624 306.577 79.3653 306.214 80.016C305.852 80.656 305.356 81.1627 304.726 81.536C304.097 81.8987 303.382 82.08 302.582 82.08ZM302.582 81.088C303.169 81.088 303.692 80.9493 304.15 80.672C304.609 80.3947 304.972 80.0107 305.238 79.52C305.505 79.0187 305.638 78.4427 305.638 77.792C305.638 77.1307 305.505 76.5547 305.238 76.064C304.972 75.5733 304.609 75.1947 304.15 74.928C303.692 74.6507 303.169 74.512 302.582 74.512C302.006 74.512 301.484 74.6507 301.014 74.928C300.556 75.1947 300.193 75.5733 299.926 76.064C299.66 76.5547 299.526 77.1307 299.526 77.792C299.526 78.4427 299.66 79.0187 299.926 79.52C300.193 80.0107 300.556 80.3947 301.014 80.672C301.484 80.9493 302.006 81.088 302.582 81.088ZM5.136 106.08C4.304 106.08 3.55733 105.899 2.896 105.536C2.24533 105.163 1.73333 104.656 1.36 104.016C0.986667 103.365 0.8 102.624 0.8 101.792C0.8 100.949 0.986667 100.208 1.36 99.568C1.73333 98.928 2.24533 98.4267 2.896 98.064C3.55733 97.7013 4.304 97.52 5.136 97.52C5.85067 97.52 6.496 97.6587 7.072 97.936C7.648 98.2133 8.10133 98.6293 8.432 99.184L7.584 99.76C7.296 99.3333 6.93867 99.0187 6.512 98.816C6.08533 98.6133 5.62133 98.512 5.12 98.512C4.52267 98.512 3.984 98.6507 3.504 98.928C3.024 99.1947 2.64533 99.5733 2.368 100.064C2.09067 100.555 1.952 101.131 1.952 101.792C1.952 102.453 2.09067 103.029 2.368 103.52C2.64533 104.011 3.024 104.395 3.504 104.672C3.984 104.939 4.52267 105.072 5.12 105.072C5.62133 105.072 6.08533 104.971 6.512 104.768C6.93867 104.565 7.296 104.256 7.584 103.84L8.432 104.416C8.10133 104.96 7.648 105.376 7.072 105.664C6.496 105.941 5.85067 106.08 5.136 106.08ZM10.6316 106V97.6H18.1836V106H17.0476V98.288L17.3356 98.592H11.4796L11.7676 98.288V106H10.6316ZM25.0129 106.08C24.1382 106.08 23.3702 105.899 22.7089 105.536C22.0475 105.163 21.5302 104.656 21.1569 104.016C20.7835 103.365 20.5969 102.624 20.5969 101.792C20.5969 100.96 20.7729 100.224 21.1249 99.584C21.4875 98.944 21.9782 98.4427 22.5969 98.08C23.2262 97.7067 23.9302 97.52 24.7089 97.52C25.4982 97.52 26.1969 97.7013 26.8049 98.064C27.4235 98.416 27.9089 98.9173 28.2609 99.568C28.6129 100.208 28.7889 100.949 28.7889 101.792C28.7889 101.845 28.7835 101.904 28.7729 101.968C28.7729 102.021 28.7729 102.08 28.7729 102.144H21.4609V101.296H28.1649L27.7169 101.632C27.7169 101.024 27.5835 100.485 27.3169 100.016C27.0609 99.536 26.7089 99.1627 26.2609 98.896C25.8129 98.6293 25.2955 98.496 24.7089 98.496C24.1329 98.496 23.6155 98.6293 23.1569 98.896C22.6982 99.1627 22.3409 99.536 22.0849 100.016C21.8289 100.496 21.7009 101.045 21.7009 101.664V101.84C21.7009 102.48 21.8395 103.045 22.1169 103.536C22.4049 104.016 22.7995 104.395 23.3009 104.672C23.8129 104.939 24.3942 105.072 25.0449 105.072C25.5569 105.072 26.0315 104.981 26.4689 104.8C26.9169 104.619 27.3009 104.341 27.6209 103.968L28.2609 104.704C27.8875 105.152 27.4182 105.493 26.8529 105.728C26.2982 105.963 25.6849 106.08 25.0129 106.08ZM31.3035 106V97.6H32.4395V105.008H37.5755V97.6H38.7115V106H31.3035ZM38.9995 108.032V105.904L39.2875 106H37.5755V105.008H40.0715V108.032H38.9995ZM42.241 106V97.6H43.377V104.272L48.993 97.6H50.001V106H48.865V99.312L43.265 106H42.241ZM58.4726 106V104.144L58.4246 103.84V100.736C58.4246 100.021 58.222 99.472 57.8166 99.088C57.422 98.704 56.83 98.512 56.0406 98.512C55.4966 98.512 54.9793 98.6027 54.4886 98.784C53.998 98.9653 53.582 99.2053 53.2406 99.504L52.7286 98.656C53.1553 98.2933 53.6673 98.016 54.2646 97.824C54.862 97.6213 55.4913 97.52 56.1526 97.52C57.2406 97.52 58.078 97.792 58.6646 98.336C59.262 98.8693 59.5606 99.6853 59.5606 100.784V106H58.4726ZM55.5766 106.08C54.9473 106.08 54.398 105.979 53.9286 105.776C53.47 105.563 53.118 105.275 52.8726 104.912C52.6273 104.539 52.5046 104.112 52.5046 103.632C52.5046 103.195 52.606 102.8 52.8086 102.448C53.022 102.085 53.3633 101.797 53.8326 101.584C54.3126 101.36 54.9526 101.248 55.7526 101.248H58.6486V102.096H55.7846C54.974 102.096 54.4086 102.24 54.0886 102.528C53.7793 102.816 53.6246 103.173 53.6246 103.6C53.6246 104.08 53.8113 104.464 54.1846 104.752C54.558 105.04 55.0806 105.184 55.7526 105.184C56.3926 105.184 56.942 105.04 57.4006 104.752C57.87 104.453 58.2113 104.027 58.4246 103.472L58.6806 104.256C58.4673 104.811 58.094 105.253 57.5606 105.584C57.038 105.915 56.3766 106.08 55.5766 106.08ZM61.0488 105.984L61.1288 105.008C61.2034 105.019 61.2728 105.035 61.3368 105.056C61.4114 105.067 61.4754 105.072 61.5288 105.072C61.8701 105.072 62.1421 104.944 62.3448 104.688C62.5581 104.432 62.7181 104.091 62.8248 103.664C62.9314 103.237 63.0061 102.757 63.0488 102.224C63.0914 101.68 63.1288 101.136 63.1608 100.592L63.3048 97.6H69.4648V106H68.3288V98.256L68.6168 98.592H64.0408L64.3128 98.24L64.1848 100.672C64.1528 101.397 64.0941 102.091 64.0088 102.752C63.9341 103.413 63.8114 103.995 63.6408 104.496C63.4808 104.997 63.2568 105.392 62.9688 105.68C62.6808 105.957 62.3128 106.096 61.8648 106.096C61.7368 106.096 61.6034 106.085 61.4648 106.064C61.3368 106.043 61.1981 106.016 61.0488 105.984ZM72.6941 106V97.6H73.8301V104.272L79.4461 97.6H80.4541V106H79.3181V99.312L73.7181 106H72.6941ZM87.2298 106.08C86.3978 106.08 85.6511 105.899 84.9898 105.536C84.3391 105.163 83.8271 104.656 83.4538 104.016C83.0804 103.365 82.8938 102.624 82.8938 101.792C82.8938 100.949 83.0804 100.208 83.4538 99.568C83.8271 98.928 84.3391 98.4267 84.9898 98.064C85.6511 97.7013 86.3978 97.52 87.2298 97.52C87.9444 97.52 88.5898 97.6587 89.1658 97.936C89.7418 98.2133 90.1951 98.6293 90.5258 99.184L89.6778 99.76C89.3898 99.3333 89.0324 99.0187 88.6058 98.816C88.1791 98.6133 87.7151 98.512 87.2138 98.512C86.6164 98.512 86.0778 98.6507 85.5978 98.928C85.1178 99.1947 84.7391 99.5733 84.4618 100.064C84.1844 100.555 84.0458 101.131 84.0458 101.792C84.0458 102.453 84.1844 103.029 84.4618 103.52C84.7391 104.011 85.1178 104.395 85.5978 104.672C86.0778 104.939 86.6164 105.072 87.2138 105.072C87.7151 105.072 88.1791 104.971 88.6058 104.768C89.0324 104.565 89.3898 104.256 89.6778 103.84L90.5258 104.416C90.1951 104.96 89.7418 105.376 89.1658 105.664C88.5898 105.941 87.9444 106.08 87.2298 106.08ZM94.1691 106V98.288L94.4571 98.592H90.9851V97.6H98.4891V98.592H95.0171L95.3051 98.288V106H94.1691ZM105.348 106V104.144L105.3 103.84V100.736C105.3 100.021 105.097 99.472 104.692 99.088C104.297 98.704 103.705 98.512 102.916 98.512C102.372 98.512 101.854 98.6027 101.364 98.784C100.873 98.9653 100.457 99.2053 100.116 99.504L99.6036 98.656C100.03 98.2933 100.542 98.016 101.14 97.824C101.737 97.6213 102.366 97.52 103.028 97.52C104.116 97.52 104.953 97.792 105.54 98.336C106.137 98.8693 106.436 99.6853 106.436 100.784V106H105.348ZM102.452 106.08C101.822 106.08 101.273 105.979 100.804 105.776C100.345 105.563 99.993 105.275 99.7476 104.912C99.5023 104.539 99.3796 104.112 99.3796 103.632C99.3796 103.195 99.481 102.8 99.6836 102.448C99.897 102.085 100.238 101.797 100.708 101.584C101.188 101.36 101.828 101.248 102.628 101.248H105.524V102.096H102.66C101.849 102.096 101.284 102.24 100.964 102.528C100.654 102.816 100.5 103.173 100.5 103.6C100.5 104.08 100.686 104.464 101.06 104.752C101.433 105.04 101.956 105.184 102.628 105.184C103.268 105.184 103.817 105.04 104.276 104.752C104.745 104.453 105.086 104.027 105.3 103.472L105.556 104.256C105.342 104.811 104.969 105.253 104.436 105.584C103.913 105.915 103.252 106.08 102.452 106.08ZM113.647 106V97.6H121.199V106H120.063V98.288L120.351 98.592H114.495L114.783 98.288V106H113.647ZM127.885 106.08C127.074 106.08 126.343 105.899 125.693 105.536C125.053 105.163 124.546 104.656 124.173 104.016C123.799 103.365 123.613 102.624 123.613 101.792C123.613 100.949 123.799 100.208 124.173 99.568C124.546 98.928 125.053 98.4267 125.693 98.064C126.333 97.7013 127.063 97.52 127.885 97.52C128.717 97.52 129.453 97.7013 130.093 98.064C130.743 98.4267 131.25 98.928 131.613 99.568C131.986 100.208 132.173 100.949 132.173 101.792C132.173 102.624 131.986 103.365 131.613 104.016C131.25 104.656 130.743 105.163 130.093 105.536C129.442 105.899 128.706 106.08 127.885 106.08ZM127.885 105.072C128.493 105.072 129.031 104.939 129.501 104.672C129.97 104.395 130.338 104.011 130.605 103.52C130.882 103.019 131.021 102.443 131.021 101.792C131.021 101.131 130.882 100.555 130.605 100.064C130.338 99.5733 129.97 99.1947 129.501 98.928C129.031 98.6507 128.498 98.512 127.901 98.512C127.303 98.512 126.77 98.6507 126.301 98.928C125.831 99.1947 125.458 99.5733 125.181 100.064C124.903 100.555 124.765 101.131 124.765 101.792C124.765 102.443 124.903 103.019 125.181 103.52C125.458 104.011 125.831 104.395 126.301 104.672C126.77 104.939 127.298 105.072 127.885 105.072ZM138.788 106V97.6H146.34V106H145.204V98.288L145.492 98.592H139.636L139.924 98.288V106H138.788ZM153.025 106.08C152.214 106.08 151.484 105.899 150.833 105.536C150.193 105.163 149.686 104.656 149.313 104.016C148.94 103.365 148.753 102.624 148.753 101.792C148.753 100.949 148.94 100.208 149.313 99.568C149.686 98.928 150.193 98.4267 150.833 98.064C151.473 97.7013 152.204 97.52 153.025 97.52C153.857 97.52 154.593 97.7013 155.233 98.064C155.884 98.4267 156.39 98.928 156.753 99.568C157.126 100.208 157.313 100.949 157.313 101.792C157.313 102.624 157.126 103.365 156.753 104.016C156.39 104.656 155.884 105.163 155.233 105.536C154.582 105.899 153.846 106.08 153.025 106.08ZM153.025 105.072C153.633 105.072 154.172 104.939 154.641 104.672C155.11 104.395 155.478 104.011 155.745 103.52C156.022 103.019 156.161 102.443 156.161 101.792C156.161 101.131 156.022 100.555 155.745 100.064C155.478 99.5733 155.11 99.1947 154.641 98.928C154.172 98.6507 153.638 98.512 153.041 98.512C152.444 98.512 151.91 98.6507 151.441 98.928C150.972 99.1947 150.598 99.5733 150.321 100.064C150.044 100.555 149.905 101.131 149.905 101.792C149.905 102.443 150.044 103.019 150.321 103.52C150.598 104.011 150.972 104.395 151.441 104.672C151.91 104.939 152.438 105.072 153.025 105.072ZM165.454 105.456V98.592H161.406L161.31 100.464C161.289 101.029 161.251 101.584 161.198 102.128C161.155 102.672 161.075 103.173 160.958 103.632C160.851 104.08 160.697 104.448 160.494 104.736C160.291 105.013 160.03 105.173 159.71 105.216L158.574 105.008C158.905 105.019 159.177 104.901 159.39 104.656C159.603 104.4 159.769 104.053 159.886 103.616C160.003 103.179 160.089 102.683 160.142 102.128C160.195 101.563 160.238 100.987 160.27 100.4L160.382 97.6H166.59V105.456H165.454ZM158.222 108.032V105.008H167.902V108.032H166.83V106H159.294V108.032H158.222ZM173.892 106.096C173.209 106.096 172.601 105.984 172.068 105.76C171.545 105.536 171.097 105.195 170.724 104.736C170.351 104.277 170.068 103.712 169.876 103.04C169.684 102.357 169.588 101.568 169.588 100.672C169.588 99.872 169.663 99.1733 169.812 98.576C169.961 97.968 170.169 97.4453 170.436 97.008C170.703 96.5707 171.012 96.2027 171.364 95.904C171.727 95.5947 172.116 95.3493 172.532 95.168C172.959 94.976 173.396 94.832 173.844 94.736L177.62 93.856L177.812 94.912L174.26 95.712C174.036 95.7653 173.764 95.84 173.444 95.936C173.135 96.032 172.815 96.176 172.484 96.368C172.164 96.56 171.865 96.8267 171.588 97.168C171.311 97.5093 171.087 97.952 170.916 98.496C170.756 99.0293 170.676 99.696 170.676 100.496C170.676 100.667 170.681 100.805 170.692 100.912C170.703 101.008 170.713 101.115 170.724 101.232C170.745 101.339 170.761 101.499 170.772 101.712L170.276 101.296C170.393 100.645 170.633 100.08 170.996 99.6C171.359 99.1093 171.812 98.7307 172.356 98.464C172.911 98.1867 173.524 98.048 174.196 98.048C174.975 98.048 175.668 98.2187 176.276 98.56C176.884 98.8907 177.359 99.3547 177.7 99.952C178.052 100.549 178.228 101.243 178.228 102.032C178.228 102.811 178.047 103.509 177.684 104.128C177.332 104.747 176.831 105.232 176.18 105.584C175.529 105.925 174.767 106.096 173.892 106.096ZM174.02 105.152C174.617 105.152 175.145 105.019 175.604 104.752C176.063 104.475 176.42 104.101 176.676 103.632C176.943 103.163 177.076 102.635 177.076 102.048C177.076 101.472 176.943 100.96 176.676 100.512C176.42 100.064 176.063 99.712 175.604 99.456C175.145 99.1893 174.612 99.056 174.004 99.056C173.407 99.056 172.879 99.184 172.42 99.44C171.961 99.6853 171.599 100.032 171.332 100.48C171.076 100.928 170.948 101.445 170.948 102.032C170.948 102.619 171.076 103.147 171.332 103.616C171.599 104.085 171.961 104.459 172.42 104.736C172.889 105.013 173.423 105.152 174.02 105.152ZM184.119 106.08C183.308 106.08 182.578 105.899 181.927 105.536C181.287 105.163 180.78 104.656 180.407 104.016C180.034 103.365 179.847 102.624 179.847 101.792C179.847 100.949 180.034 100.208 180.407 99.568C180.78 98.928 181.287 98.4267 181.927 98.064C182.567 97.7013 183.298 97.52 184.119 97.52C184.951 97.52 185.687 97.7013 186.327 98.064C186.978 98.4267 187.484 98.928 187.847 99.568C188.22 100.208 188.407 100.949 188.407 101.792C188.407 102.624 188.22 103.365 187.847 104.016C187.484 104.656 186.978 105.163 186.327 105.536C185.676 105.899 184.94 106.08 184.119 106.08ZM184.119 105.072C184.727 105.072 185.266 104.939 185.735 104.672C186.204 104.395 186.572 104.011 186.839 103.52C187.116 103.019 187.255 102.443 187.255 101.792C187.255 101.131 187.116 100.555 186.839 100.064C186.572 99.5733 186.204 99.1947 185.735 98.928C185.266 98.6507 184.732 98.512 184.135 98.512C183.538 98.512 183.004 98.6507 182.535 98.928C182.066 99.1947 181.692 99.5733 181.415 100.064C181.138 100.555 180.999 101.131 180.999 101.792C180.999 102.443 181.138 103.019 181.415 103.52C181.692 104.011 182.066 104.395 182.535 104.672C183.004 104.939 183.532 105.072 184.119 105.072ZM195.171 106.08C194.445 106.08 193.789 105.915 193.203 105.584C192.616 105.243 192.147 104.757 191.795 104.128C191.453 103.488 191.283 102.709 191.283 101.792C191.283 100.875 191.453 100.101 191.795 99.472C192.136 98.832 192.6 98.3467 193.187 98.016C193.773 97.6853 194.435 97.52 195.171 97.52C195.971 97.52 196.685 97.7013 197.315 98.064C197.955 98.416 198.456 98.9173 198.819 99.568C199.181 100.208 199.363 100.949 199.363 101.792C199.363 102.645 199.181 103.392 198.819 104.032C198.456 104.672 197.955 105.173 197.315 105.536C196.685 105.899 195.971 106.08 195.171 106.08ZM190.835 109.104V97.6H191.923V100.128L191.811 101.808L191.971 103.504V109.104H190.835ZM195.091 105.072C195.688 105.072 196.221 104.939 196.691 104.672C197.16 104.395 197.533 104.011 197.811 103.52C198.088 103.019 198.227 102.443 198.227 101.792C198.227 101.141 198.088 100.571 197.811 100.08C197.533 99.5893 197.16 99.2053 196.691 98.928C196.221 98.6507 195.688 98.512 195.091 98.512C194.493 98.512 193.955 98.6507 193.475 98.928C193.005 99.2053 192.632 99.5893 192.355 100.08C192.088 100.571 191.955 101.141 191.955 101.792C191.955 102.443 192.088 103.019 192.355 103.52C192.632 104.011 193.005 104.395 193.475 104.672C193.955 104.939 194.493 105.072 195.091 105.072ZM201.713 109.184C201.318 109.184 200.94 109.12 200.577 108.992C200.225 108.864 199.921 108.672 199.665 108.416L200.193 107.568C200.406 107.771 200.636 107.925 200.881 108.032C201.137 108.149 201.42 108.208 201.729 108.208C202.102 108.208 202.422 108.101 202.689 107.888C202.966 107.685 203.228 107.323 203.473 106.8L204.017 105.568L204.145 105.392L207.601 97.6H208.721L204.513 107.008C204.278 107.552 204.017 107.984 203.729 108.304C203.452 108.624 203.148 108.848 202.817 108.976C202.486 109.115 202.118 109.184 201.713 109.184ZM203.953 106.24L200.081 97.6H201.265L204.689 105.312L203.953 106.24Z" fill="white"/>
</svg>
