<svg width="708" height="216" viewBox="0 0 708 216" fill="none" xmlns="http://www.w3.org/2000/svg">
<path d="M0.32 38L12.8 10H19.2L31.72 38H24.92L14.68 13.28H17.24L6.96 38H0.32ZM6.56 32L8.28 27.08H22.68L24.44 32H6.56ZM34.9531 38V16.48H45.9531C48.6465 16.48 50.7531 16.9733 52.2731 17.96C53.7931 18.92 54.5531 20.28 54.5531 22.04C54.5531 23.8 53.8331 25.1867 52.3931 26.2C50.9798 27.1867 49.0998 27.68 46.7531 27.68L47.3931 26.24C50.0065 26.24 51.9531 26.72 53.2331 27.68C54.5398 28.64 55.1931 30.04 55.1931 31.88C55.1931 33.7733 54.4731 35.2667 53.0331 36.36C51.5931 37.4533 49.3931 38 46.4331 38H34.9531ZM40.6731 33.76H45.9131C47.0598 33.76 47.9131 33.5733 48.4731 33.2C49.0598 32.8 49.3531 32.2 49.3531 31.4C49.3531 30.5733 49.0865 29.9733 48.5531 29.6C48.0198 29.2 47.1798 29 46.0331 29H40.6731V33.76ZM40.6731 25.32H45.3931C46.4865 25.32 47.2998 25.12 47.8331 24.72C48.3931 24.32 48.6731 23.7467 48.6731 23C48.6731 22.2267 48.3931 21.6533 47.8331 21.28C47.2998 20.9067 46.4865 20.72 45.3931 20.72H40.6731V25.32ZM64.4359 38V20.16L65.8359 21.6H57.1559V16.48H77.9159V21.6H69.2359L70.6359 20.16V38H64.4359ZM90.4238 38.32C88.1304 38.32 86.0904 37.84 84.3038 36.88C82.5438 35.92 81.1438 34.6133 80.1038 32.96C79.0904 31.28 78.5838 29.3733 78.5838 27.24C78.5838 25.08 79.0904 23.1733 80.1038 21.52C81.1438 19.84 82.5438 18.5333 84.3038 17.6C86.0904 16.64 88.1304 16.16 90.4238 16.16C92.6904 16.16 94.7171 16.64 96.5038 17.6C98.2904 18.5333 99.6904 19.8267 100.704 21.48C101.717 23.1333 102.224 25.0533 102.224 27.24C102.224 29.3733 101.717 31.28 100.704 32.96C99.6904 34.6133 98.2904 35.92 96.5038 36.88C94.7171 37.84 92.6904 38.32 90.4238 38.32ZM90.4238 33.2C91.4638 33.2 92.3971 32.96 93.2238 32.48C94.0504 32 94.7038 31.32 95.1838 30.44C95.6638 29.5333 95.9038 28.4667 95.9038 27.24C95.9038 25.9867 95.6638 24.92 95.1838 24.04C94.7038 23.16 94.0504 22.48 93.2238 22C92.3971 21.52 91.4638 21.28 90.4238 21.28C89.3838 21.28 88.4504 21.52 87.6237 22C86.7971 22.48 86.1304 23.16 85.6238 24.04C85.1438 24.92 84.9038 25.9867 84.9038 27.24C84.9038 28.4667 85.1438 29.5333 85.6238 30.44C86.1304 31.32 86.7971 32 87.6237 32.48C88.4504 32.96 89.3838 33.2 90.4238 33.2ZM120.076 29.76C119.196 30.24 118.222 30.6267 117.156 30.92C116.089 31.2133 114.916 31.36 113.636 31.36C110.809 31.36 108.636 30.72 107.116 29.44C105.596 28.1333 104.836 26.0667 104.836 23.24V16.48H111.076V22.84C111.076 24.1733 111.422 25.1333 112.116 25.72C112.809 26.28 113.782 26.56 115.036 26.56C115.942 26.56 116.809 26.4533 117.636 26.24C118.489 26.0267 119.302 25.72 120.076 25.32V29.76ZM119.636 38V16.48H125.876V38H119.636ZM142.387 38.32C139.934 38.32 137.774 37.84 135.907 36.88C134.067 35.92 132.641 34.6133 131.627 32.96C130.614 31.28 130.107 29.3733 130.107 27.24C130.107 25.08 130.601 23.1733 131.587 21.52C132.601 19.84 133.974 18.5333 135.707 17.6C137.441 16.64 139.401 16.16 141.587 16.16C143.694 16.16 145.587 16.6133 147.267 17.52C148.974 18.4 150.321 19.68 151.307 21.36C152.294 23.0133 152.787 25 152.787 27.32C152.787 27.56 152.774 27.84 152.747 28.16C152.721 28.4533 152.694 28.7333 152.667 29H135.187V25.36H149.387L146.987 26.44C146.987 25.32 146.761 24.3467 146.307 23.52C145.854 22.6933 145.227 22.0533 144.427 21.6C143.627 21.12 142.694 20.88 141.627 20.88C140.561 20.88 139.614 21.12 138.787 21.6C137.987 22.0533 137.361 22.7067 136.907 23.56C136.454 24.3867 136.227 25.3733 136.227 26.52V27.48C136.227 28.6533 136.481 29.6933 136.987 30.6C137.521 31.48 138.254 32.16 139.187 32.64C140.147 33.0933 141.267 33.32 142.547 33.32C143.694 33.32 144.694 33.1467 145.547 32.8C146.427 32.4533 147.227 31.9333 147.947 31.24L151.267 34.84C150.281 35.96 149.041 36.8267 147.547 37.44C146.054 38.0267 144.334 38.32 142.387 38.32ZM154.104 38L163.744 25.36L163.624 28.8L154.384 16.48H161.384L167.224 24.52L164.584 24.6L170.624 16.48H177.264L167.984 28.68V25.32L177.584 38H170.504L164.384 29.44L166.984 29.8L160.904 38H154.104ZM177.936 37.96L178.256 32.84C178.416 32.8667 178.576 32.8933 178.736 32.92C178.896 32.92 179.043 32.92 179.176 32.92C179.923 32.92 180.51 32.7067 180.936 32.28C181.363 31.8533 181.683 31.28 181.896 30.56C182.11 29.8133 182.256 28.9733 182.336 28.04C182.443 27.1067 182.523 26.1333 182.576 25.12L182.896 16.48H201.296V38H195.056V20.08L196.456 21.6H187.016L188.336 20L188.056 25.4C187.976 27.32 187.816 29.08 187.576 30.68C187.363 32.28 187.003 33.6667 186.496 34.84C185.99 35.9867 185.31 36.88 184.456 37.52C183.603 38.1333 182.51 38.44 181.176 38.44C180.696 38.44 180.19 38.4 179.656 38.32C179.123 38.24 178.55 38.12 177.936 37.96ZM229.457 38V16.48H235.657V38H229.457ZM218.617 23.36C221.444 23.3867 223.564 24.0267 224.977 25.28C226.417 26.5067 227.137 28.2533 227.137 30.52C227.137 32.8933 226.324 34.7467 224.697 36.08C223.07 37.3867 220.764 38.04 217.777 38.04L207.297 38V16.48H213.497V23.36H218.617ZM217.217 33.6C218.417 33.6267 219.337 33.3733 219.977 32.84C220.617 32.3067 220.937 31.5067 220.937 30.44C220.937 29.3733 220.617 28.6133 219.977 28.16C219.337 27.68 218.417 27.4267 217.217 27.4L213.497 27.36V33.6H217.217ZM240.472 44.16L243.112 34.56L243.992 38.16C242.845 38.16 241.899 37.8267 241.152 37.16C240.432 36.4933 240.072 35.5733 240.072 34.4C240.072 33.2267 240.445 32.2933 241.192 31.6C241.939 30.9067 242.859 30.56 243.952 30.56C245.072 30.56 245.992 30.92 246.712 31.64C247.432 32.3333 247.792 33.2533 247.792 34.4C247.792 34.7467 247.765 35.0933 247.712 35.44C247.659 35.76 247.552 36.16 247.392 36.64C247.259 37.0933 247.032 37.68 246.712 38.4L244.432 44.16H240.472ZM18.24 86L11.04 75.8L16.12 72.8L25.6 86H18.24ZM3 86V64.48H9.24V86H3ZM7.4 77.84V72.84H14.92V77.84H7.4ZM16.72 75.96L10.88 75.32L18.44 64.48H25.08L16.72 75.96ZM38.08 86.32C35.7867 86.32 33.7467 85.84 31.96 84.88C30.2 83.92 28.8 82.6133 27.76 80.96C26.7467 79.28 26.24 77.3733 26.24 75.24C26.24 73.08 26.7467 71.1733 27.76 69.52C28.8 67.84 30.2 66.5333 31.96 65.6C33.7467 64.64 35.7867 64.16 38.08 64.16C40.3467 64.16 42.3733 64.64 44.16 65.6C45.9467 66.5333 47.3467 67.8267 48.36 69.48C49.3733 71.1333 49.88 73.0533 49.88 75.24C49.88 77.3733 49.3733 79.28 48.36 80.96C47.3467 82.6133 45.9467 83.92 44.16 84.88C42.3733 85.84 40.3467 86.32 38.08 86.32ZM38.08 81.2C39.12 81.2 40.0533 80.96 40.88 80.48C41.7067 80 42.36 79.32 42.84 78.44C43.32 77.5333 43.56 76.4667 43.56 75.24C43.56 73.9867 43.32 72.92 42.84 72.04C42.36 71.16 41.7067 70.48 40.88 70C40.0533 69.52 39.12 69.28 38.08 69.28C37.04 69.28 36.1067 69.52 35.28 70C34.4533 70.48 33.7867 71.16 33.28 72.04C32.8 72.92 32.56 73.9867 32.56 75.24C32.56 76.4667 32.8 77.5333 33.28 78.44C33.7867 79.32 34.4533 80 35.28 80.48C36.1067 80.96 37.04 81.2 38.08 81.2ZM57.9906 86V68.16L59.3906 69.6H50.7106V64.48H71.4706V69.6H62.7906L64.1906 68.16V86H57.9906ZM83.9784 86.32C81.6851 86.32 79.6451 85.84 77.8584 84.88C76.0984 83.92 74.6984 82.6133 73.6584 80.96C72.6451 79.28 72.1384 77.3733 72.1384 75.24C72.1384 73.08 72.6451 71.1733 73.6584 69.52C74.6984 67.84 76.0984 66.5333 77.8584 65.6C79.6451 64.64 81.6851 64.16 83.9784 64.16C86.2451 64.16 88.2718 64.64 90.0584 65.6C91.8451 66.5333 93.2451 67.8267 94.2584 69.48C95.2718 71.1333 95.7784 73.0533 95.7784 75.24C95.7784 77.3733 95.2718 79.28 94.2584 80.96C93.2451 82.6133 91.8451 83.92 90.0584 84.88C88.2718 85.84 86.2451 86.32 83.9784 86.32ZM83.9784 81.2C85.0184 81.2 85.9518 80.96 86.7784 80.48C87.6051 80 88.2584 79.32 88.7384 78.44C89.2184 77.5333 89.4584 76.4667 89.4584 75.24C89.4584 73.9867 89.2184 72.92 88.7384 72.04C88.2584 71.16 87.6051 70.48 86.7784 70C85.9518 69.52 85.0184 69.28 83.9784 69.28C82.9384 69.28 82.0051 69.52 81.1784 70C80.3518 70.48 79.6851 71.16 79.1784 72.04C78.6984 72.92 78.4584 73.9867 78.4584 75.24C78.4584 76.4667 78.6984 77.5333 79.1784 78.44C79.6851 79.32 80.3518 80 81.1784 80.48C82.0051 80.96 82.9384 81.2 83.9784 81.2ZM112.75 86.32C110.937 86.32 109.35 85.92 107.99 85.12C106.63 84.32 105.564 83.1067 104.79 81.48C104.044 79.8267 103.67 77.7467 103.67 75.24C103.67 72.7067 104.03 70.6267 104.75 69C105.47 67.3733 106.51 66.16 107.87 65.36C109.23 64.56 110.857 64.16 112.75 64.16C114.777 64.16 116.59 64.6267 118.19 65.56C119.817 66.4667 121.097 67.7467 122.03 69.4C122.99 71.0533 123.47 73 123.47 75.24C123.47 77.5067 122.99 79.4667 122.03 81.12C121.097 82.7733 119.817 84.0533 118.19 84.96C116.59 85.8667 114.777 86.32 112.75 86.32ZM100.03 93.76V64.48H105.99V68.88L105.87 75.28L106.27 81.64V93.76H100.03ZM111.67 81.2C112.71 81.2 113.63 80.96 114.43 80.48C115.257 80 115.91 79.32 116.39 78.44C116.897 77.5333 117.15 76.4667 117.15 75.24C117.15 73.9867 116.897 72.92 116.39 72.04C115.91 71.16 115.257 70.48 114.43 70C113.63 69.52 112.71 69.28 111.67 69.28C110.63 69.28 109.697 69.52 108.87 70C108.044 70.48 107.39 71.16 106.91 72.04C106.43 72.92 106.19 73.9867 106.19 75.24C106.19 76.4667 106.43 77.5333 106.91 78.44C107.39 79.32 108.044 80 108.87 80.48C109.697 80.96 110.63 81.2 111.67 81.2ZM150.004 86V64.48H156.204V86H150.004ZM139.164 71.36C141.99 71.3867 144.11 72.0267 145.524 73.28C146.964 74.5067 147.684 76.2533 147.684 78.52C147.684 80.8933 146.87 82.7467 145.244 84.08C143.617 85.3867 141.31 86.04 138.324 86.04L127.844 86V64.48H134.044V71.36H139.164ZM137.764 81.6C138.964 81.6267 139.884 81.3733 140.524 80.84C141.164 80.3067 141.484 79.5067 141.484 78.44C141.484 77.3733 141.164 76.6133 140.524 76.16C139.884 75.68 138.964 75.4267 137.764 75.4L134.044 75.36V81.6H137.764ZM172.739 86.32C170.285 86.32 168.125 85.84 166.259 84.88C164.419 83.92 162.992 82.6133 161.979 80.96C160.965 79.28 160.459 77.3733 160.459 75.24C160.459 73.08 160.952 71.1733 161.939 69.52C162.952 67.84 164.325 66.5333 166.059 65.6C167.792 64.64 169.752 64.16 171.939 64.16C174.045 64.16 175.939 64.6133 177.619 65.52C179.325 66.4 180.672 67.68 181.659 69.36C182.645 71.0133 183.139 73 183.139 75.32C183.139 75.56 183.125 75.84 183.099 76.16C183.072 76.4533 183.045 76.7333 183.019 77H165.539V73.36H179.739L177.339 74.44C177.339 73.32 177.112 72.3467 176.659 71.52C176.205 70.6933 175.579 70.0533 174.779 69.6C173.979 69.12 173.045 68.88 171.979 68.88C170.912 68.88 169.965 69.12 169.139 69.6C168.339 70.0533 167.712 70.7067 167.259 71.56C166.805 72.3867 166.579 73.3733 166.579 74.52V75.48C166.579 76.6533 166.832 77.6933 167.339 78.6C167.872 79.48 168.605 80.16 169.539 80.64C170.499 81.0933 171.619 81.32 172.899 81.32C174.045 81.32 175.045 81.1467 175.899 80.8C176.779 80.4533 177.579 79.9333 178.299 79.24L181.619 82.84C180.632 83.96 179.392 84.8267 177.899 85.44C176.405 86.0267 174.685 86.32 172.739 86.32ZM199.25 86V64.48H205.45V77.28L215.93 64.48H221.65V86H215.45V73.2L205.01 86H199.25ZM242.448 83.2V69.6H235.408L235.288 72.36C235.235 73.5067 235.168 74.6 235.088 75.64C235.008 76.68 234.848 77.6267 234.608 78.48C234.395 79.3067 234.075 80.0133 233.648 80.6C233.222 81.16 232.648 81.5467 231.928 81.76L225.768 80.88C226.542 80.88 227.168 80.6533 227.648 80.2C228.128 79.72 228.502 79.0667 228.768 78.24C229.035 77.3867 229.235 76.4267 229.368 75.36C229.502 74.2667 229.595 73.12 229.648 71.92L229.928 64.48H248.688V83.2H242.448ZM225.048 90.64V80.88H251.768V90.64H245.968V86H230.848V90.64H225.048ZM266.215 86.32C263.762 86.32 261.602 85.84 259.735 84.88C257.895 83.92 256.469 82.6133 255.455 80.96C254.442 79.28 253.935 77.3733 253.935 75.24C253.935 73.08 254.429 71.1733 255.415 69.52C256.429 67.84 257.802 66.5333 259.535 65.6C261.269 64.64 263.229 64.16 265.415 64.16C267.522 64.16 269.415 64.6133 271.095 65.52C272.802 66.4 274.149 67.68 275.135 69.36C276.122 71.0133 276.615 73 276.615 75.32C276.615 75.56 276.602 75.84 276.575 76.16C276.549 76.4533 276.522 76.7333 276.495 77H259.015V73.36H273.215L270.815 74.44C270.815 73.32 270.589 72.3467 270.135 71.52C269.682 70.6933 269.055 70.0533 268.255 69.6C267.455 69.12 266.522 68.88 265.455 68.88C264.389 68.88 263.442 69.12 262.615 69.6C261.815 70.0533 261.189 70.7067 260.735 71.56C260.282 72.3867 260.055 73.3733 260.055 74.52V75.48C260.055 76.6533 260.309 77.6933 260.815 78.6C261.349 79.48 262.082 80.16 263.015 80.64C263.975 81.0933 265.095 81.32 266.375 81.32C267.522 81.32 268.522 81.1467 269.375 80.8C270.255 80.4533 271.055 79.9333 271.775 79.24L275.095 82.84C274.109 83.96 272.869 84.8267 271.375 85.44C269.882 86.0267 268.162 86.32 266.215 86.32ZM293.693 86V81.8L293.293 80.88V73.36C293.293 72.0267 292.879 70.9867 292.053 70.24C291.253 69.4933 290.013 69.12 288.333 69.12C287.186 69.12 286.053 69.3067 284.933 69.68C283.839 70.0267 282.906 70.5067 282.133 71.12L279.893 66.76C281.066 65.9333 282.479 65.2933 284.133 64.84C285.786 64.3867 287.466 64.16 289.173 64.16C292.453 64.16 294.999 64.9333 296.813 66.48C298.626 68.0267 299.533 70.44 299.533 73.72V86H293.693ZM287.133 86.32C285.453 86.32 284.013 86.04 282.812 85.48C281.613 84.8933 280.693 84.1067 280.053 83.12C279.413 82.1333 279.093 81.0267 279.093 79.8C279.093 78.52 279.399 77.4 280.013 76.44C280.653 75.48 281.653 74.7333 283.013 74.2C284.373 73.64 286.146 73.36 288.333 73.36H294.053V77H289.013C287.546 77 286.533 77.24 285.973 77.72C285.439 78.2 285.173 78.8 285.173 79.52C285.173 80.32 285.479 80.96 286.093 81.44C286.733 81.8933 287.599 82.12 288.693 82.12C289.733 82.12 290.666 81.88 291.493 81.4C292.319 80.8933 292.919 80.16 293.293 79.2L294.253 82.08C293.799 83.4667 292.973 84.52 291.773 85.24C290.573 85.96 289.026 86.32 287.133 86.32ZM302.233 85.96L302.553 80.84C302.713 80.8667 302.873 80.8933 303.033 80.92C303.193 80.92 303.34 80.92 303.473 80.92C304.22 80.92 304.806 80.7067 305.233 80.28C305.66 79.8533 305.98 79.28 306.193 78.56C306.406 77.8133 306.553 76.9733 306.633 76.04C306.74 75.1067 306.82 74.1333 306.873 73.12L307.193 64.48H325.593V86H319.353V68.08L320.753 69.6H311.313L312.633 68L312.353 73.4C312.273 75.32 312.113 77.08 311.873 78.68C311.66 80.28 311.3 81.6667 310.793 82.84C310.286 83.9867 309.606 84.88 308.753 85.52C307.9 86.1333 306.806 86.44 305.473 86.44C304.993 86.44 304.486 86.4 303.953 86.32C303.42 86.24 302.846 86.12 302.233 85.96ZM343.234 71.36C346.06 71.3867 348.207 72.0267 349.674 73.28C351.167 74.5067 351.914 76.2533 351.914 78.52C351.914 80.8933 351.074 82.7467 349.394 84.08C347.714 85.3867 345.38 86.04 342.394 86.04L331.594 86V64.48H337.794V71.36H343.234ZM341.834 81.6C343.034 81.6267 343.954 81.3733 344.594 80.84C345.234 80.3067 345.554 79.5067 345.554 78.44C345.554 77.3733 345.234 76.6133 344.594 76.16C343.954 75.68 343.034 75.4267 341.834 75.4L337.794 75.36V81.6H341.834ZM355.813 86V64.48H362.013V72.88H371.373V64.48H377.613V86H371.373V77.96H362.013V86H355.813ZM393.666 86.32C391.373 86.32 389.333 85.84 387.546 84.88C385.786 83.92 384.386 82.6133 383.346 80.96C382.333 79.28 381.826 77.3733 381.826 75.24C381.826 73.08 382.333 71.1733 383.346 69.52C384.386 67.84 385.786 66.5333 387.546 65.6C389.333 64.64 391.373 64.16 393.666 64.16C395.933 64.16 397.959 64.64 399.746 65.6C401.533 66.5333 402.933 67.8267 403.946 69.48C404.959 71.1333 405.466 73.0533 405.466 75.24C405.466 77.3733 404.959 79.28 403.946 80.96C402.933 82.6133 401.533 83.92 399.746 84.88C397.959 85.84 395.933 86.32 393.666 86.32ZM393.666 81.2C394.706 81.2 395.639 80.96 396.466 80.48C397.293 80 397.946 79.32 398.426 78.44C398.906 77.5333 399.146 76.4667 399.146 75.24C399.146 73.9867 398.906 72.92 398.426 72.04C397.946 71.16 397.293 70.48 396.466 70C395.639 69.52 394.706 69.28 393.666 69.28C392.626 69.28 391.693 69.52 390.866 70C390.039 70.48 389.373 71.16 388.866 72.04C388.386 72.92 388.146 73.9867 388.146 75.24C388.146 76.4667 388.386 77.5333 388.866 78.44C389.373 79.32 390.039 80 390.866 80.48C391.693 80.96 392.626 81.2 393.666 81.2ZM431.326 86.32C429.006 86.32 426.939 85.8533 425.126 84.92C423.313 83.96 421.886 82.64 420.846 80.96C419.833 79.28 419.326 77.3733 419.326 75.24C419.326 73.08 419.833 71.1733 420.846 69.52C421.886 67.84 423.313 66.5333 425.126 65.6C426.939 64.64 429.006 64.16 431.326 64.16C433.593 64.16 435.566 64.64 437.246 65.6C438.926 66.5333 440.166 67.88 440.966 69.64L436.126 72.24C435.566 71.2267 434.859 70.48 434.006 70C433.179 69.52 432.273 69.28 431.286 69.28C430.219 69.28 429.259 69.52 428.406 70C427.553 70.48 426.873 71.16 426.366 72.04C425.886 72.92 425.646 73.9867 425.646 75.24C425.646 76.4933 425.886 77.56 426.366 78.44C426.873 79.32 427.553 80 428.406 80.48C429.259 80.96 430.219 81.2 431.286 81.2C432.273 81.2 433.179 80.9733 434.006 80.52C434.859 80.04 435.566 79.28 436.126 78.24L440.966 80.88C440.166 82.6133 438.926 83.96 437.246 84.92C435.566 85.8533 433.593 86.32 431.326 86.32ZM457.638 86V81.8L457.238 80.88V73.36C457.238 72.0267 456.824 70.9867 455.998 70.24C455.198 69.4933 453.958 69.12 452.278 69.12C451.131 69.12 449.998 69.3067 448.878 69.68C447.784 70.0267 446.851 70.5067 446.078 71.12L443.838 66.76C445.011 65.9333 446.424 65.2933 448.078 64.84C449.731 64.3867 451.411 64.16 453.118 64.16C456.398 64.16 458.944 64.9333 460.758 66.48C462.571 68.0267 463.478 70.44 463.478 73.72V86H457.638ZM451.078 86.32C449.398 86.32 447.958 86.04 446.758 85.48C445.558 84.8933 444.638 84.1067 443.998 83.12C443.358 82.1333 443.038 81.0267 443.038 79.8C443.038 78.52 443.344 77.4 443.958 76.44C444.598 75.48 445.598 74.7333 446.958 74.2C448.318 73.64 450.091 73.36 452.278 73.36H457.998V77H452.958C451.491 77 450.478 77.24 449.918 77.72C449.384 78.2 449.118 78.8 449.118 79.52C449.118 80.32 449.424 80.96 450.038 81.44C450.678 81.8933 451.544 82.12 452.638 82.12C453.678 82.12 454.611 81.88 455.438 81.4C456.264 80.8933 456.864 80.16 457.238 79.2L458.198 82.08C457.744 83.4667 456.918 84.52 455.718 85.24C454.518 85.96 452.971 86.32 451.078 86.32ZM483.698 83.2V69.6H476.658L476.538 72.36C476.485 73.5067 476.418 74.6 476.338 75.64C476.258 76.68 476.098 77.6267 475.858 78.48C475.645 79.3067 475.325 80.0133 474.898 80.6C474.472 81.16 473.898 81.5467 473.178 81.76L467.018 80.88C467.792 80.88 468.418 80.6533 468.898 80.2C469.378 79.72 469.752 79.0667 470.018 78.24C470.285 77.3867 470.485 76.4267 470.618 75.36C470.752 74.2667 470.845 73.12 470.898 71.92L471.178 64.48H489.938V83.2H483.698ZM466.298 90.64V80.88H493.018V90.64H487.218V86H472.098V90.64H466.298ZM510.505 86V78.84L511.385 79.84H505.425C502.332 79.84 499.905 79.2 498.145 77.92C496.385 76.64 495.505 74.8 495.505 72.4C495.505 69.84 496.425 67.88 498.265 66.52C500.132 65.16 502.639 64.48 505.785 64.48H516.065V86H510.505ZM495.185 86L500.905 77.8H507.265L501.825 86H495.185ZM510.505 76.92V67.96L511.385 69.56H505.905C504.625 69.56 503.625 69.8 502.905 70.28C502.212 70.76 501.865 71.5333 501.865 72.6C501.865 74.6533 503.185 75.68 505.825 75.68H511.385L510.505 76.92ZM526.663 86V68.16L528.063 69.6H519.383V64.48H540.143V69.6H531.463L532.863 68.16V86H526.663ZM552.81 86.32C550.49 86.32 548.424 85.8533 546.61 84.92C544.797 83.96 543.37 82.64 542.33 80.96C541.317 79.28 540.81 77.3733 540.81 75.24C540.81 73.08 541.317 71.1733 542.33 69.52C543.37 67.84 544.797 66.5333 546.61 65.6C548.424 64.64 550.49 64.16 552.81 64.16C555.077 64.16 557.05 64.64 558.73 65.6C560.41 66.5333 561.65 67.88 562.45 69.64L557.61 72.24C557.05 71.2267 556.344 70.48 555.49 70C554.664 69.52 553.757 69.28 552.77 69.28C551.704 69.28 550.744 69.52 549.89 70C549.037 70.48 548.357 71.16 547.85 72.04C547.37 72.92 547.13 73.9867 547.13 75.24C547.13 76.4933 547.37 77.56 547.85 78.44C548.357 79.32 549.037 80 549.89 80.48C550.744 80.96 551.704 81.2 552.77 81.2C553.757 81.2 554.664 80.9733 555.49 80.52C556.344 80.04 557.05 79.28 557.61 78.24L562.45 80.88C561.65 82.6133 560.41 83.96 558.73 84.92C557.05 85.8533 555.077 86.32 552.81 86.32ZM579.294 86V78.84L580.174 79.84H574.214C571.121 79.84 568.694 79.2 566.934 77.92C565.174 76.64 564.294 74.8 564.294 72.4C564.294 69.84 565.214 67.88 567.054 66.52C568.921 65.16 571.428 64.48 574.574 64.48H584.854V86H579.294ZM563.974 86L569.694 77.8H576.054L570.614 86H563.974ZM579.294 76.92V67.96L580.174 69.56H574.694C573.414 69.56 572.414 69.8 571.694 70.28C571.001 70.76 570.654 71.5333 570.654 72.6C570.654 74.6533 571.974 75.68 574.614 75.68H580.174L579.294 76.92ZM3 134V112.48H9.2V125.28L19.68 112.48H25.4V134H19.2V121.2L8.76 134H3ZM52.9666 134.32C50.6466 134.32 48.5799 133.853 46.7666 132.92C44.9532 131.96 43.5266 130.64 42.4866 128.96C41.4732 127.28 40.9666 125.373 40.9666 123.24C40.9666 121.08 41.4732 119.173 42.4866 117.52C43.5266 115.84 44.9532 114.533 46.7666 113.6C48.5799 112.64 50.6466 112.16 52.9666 112.16C55.2332 112.16 57.2066 112.64 58.8866 113.6C60.5666 114.533 61.8066 115.88 62.6066 117.64L57.7666 120.24C57.2066 119.227 56.4999 118.48 55.6466 118C54.8199 117.52 53.9132 117.28 52.9266 117.28C51.8599 117.28 50.8999 117.52 50.0466 118C49.1932 118.48 48.5132 119.16 48.0066 120.04C47.5266 120.92 47.2866 121.987 47.2866 123.24C47.2866 124.493 47.5266 125.56 48.0066 126.44C48.5132 127.32 49.1932 128 50.0466 128.48C50.8999 128.96 51.8599 129.2 52.9266 129.2C53.9132 129.2 54.8199 128.973 55.6466 128.52C56.4999 128.04 57.2066 127.28 57.7666 126.24L62.6066 128.88C61.8066 130.613 60.5666 131.96 58.8866 132.92C57.2066 133.853 55.2332 134.32 52.9666 134.32ZM63.3269 133.96L63.6469 128.84C63.8069 128.867 63.9669 128.893 64.1269 128.92C64.2869 128.92 64.4335 128.92 64.5669 128.92C65.3135 128.92 65.9002 128.707 66.3269 128.28C66.7535 127.853 67.0735 127.28 67.2869 126.56C67.5002 125.813 67.6469 124.973 67.7269 124.04C67.8335 123.107 67.9135 122.133 67.9669 121.12L68.2869 112.48H86.6869V134H80.4469V116.08L81.8469 117.6H72.4069L73.7269 116L73.4469 121.4C73.3669 123.32 73.2069 125.08 72.9669 126.68C72.7535 128.28 72.3935 129.667 71.8869 130.84C71.3802 131.987 70.7002 132.88 69.8469 133.52C68.9935 134.133 67.9002 134.44 66.5669 134.44C66.0869 134.44 65.5802 134.4 65.0469 134.32C64.5135 134.24 63.9402 134.12 63.3269 133.96ZM95.6075 142.08C94.4875 142.08 93.3808 141.907 92.2875 141.56C91.1942 141.213 90.3008 140.733 89.6075 140.12L91.8875 135.68C92.3675 136.107 92.9142 136.44 93.5275 136.68C94.1675 136.92 94.7942 137.04 95.4075 137.04C96.2875 137.04 96.9808 136.827 97.4875 136.4C98.0208 136 98.5008 135.32 98.9275 134.36L100.048 131.72L100.528 131.04L108.248 112.48H114.248L104.528 135.32C103.834 137.053 103.034 138.413 102.128 139.4C101.248 140.387 100.261 141.08 99.1675 141.48C98.1008 141.88 96.9142 142.08 95.6075 142.08ZM99.2875 134.84L89.6875 112.48H96.1275L103.568 130.48L99.2875 134.84ZM141.927 134L136.207 123.8L141.247 120.8L149.327 134H141.927ZM132.527 125.84V120.84H140.007V125.84H132.527ZM141.887 123.96L136.007 123.32L142.207 112.48H148.807L141.887 123.96ZM120.647 134H113.287L121.327 120.8L126.367 123.8L120.647 134ZM134.367 134H128.207V112.48H134.367V134ZM130.047 125.84H122.607V120.84H130.047V125.84ZM120.687 123.96L113.767 112.48H120.367L126.527 123.32L120.687 123.96ZM165.06 134V129.8L164.66 128.88V121.36C164.66 120.027 164.246 118.987 163.42 118.24C162.62 117.493 161.38 117.12 159.7 117.12C158.553 117.12 157.42 117.307 156.3 117.68C155.206 118.027 154.273 118.507 153.5 119.12L151.26 114.76C152.433 113.933 153.846 113.293 155.5 112.84C157.153 112.387 158.833 112.16 160.54 112.16C163.82 112.16 166.366 112.933 168.18 114.48C169.993 116.027 170.9 118.44 170.9 121.72V134H165.06ZM158.5 134.32C156.82 134.32 155.38 134.04 154.18 133.48C152.98 132.893 152.06 132.107 151.42 131.12C150.78 130.133 150.46 129.027 150.46 127.8C150.46 126.52 150.766 125.4 151.38 124.44C152.02 123.48 153.02 122.733 154.38 122.2C155.74 121.64 157.513 121.36 159.7 121.36H165.42V125H160.38C158.913 125 157.9 125.24 157.34 125.72C156.806 126.2 156.54 126.8 156.54 127.52C156.54 128.32 156.846 128.96 157.46 129.44C158.1 129.893 158.966 130.12 160.06 130.12C161.1 130.12 162.033 129.88 162.86 129.4C163.686 128.893 164.286 128.16 164.66 127.2L165.62 130.08C165.166 131.467 164.34 132.52 163.14 133.24C161.94 133.96 160.393 134.32 158.5 134.32ZM180.92 134V116.16L182.32 117.6H173.64V112.48H194.4V117.6H185.72L187.12 116.16V134H180.92ZM209.055 134V112.48H226.295V117.6H213.855L215.255 116.24V134H209.055ZM238.783 134.32C236.49 134.32 234.45 133.84 232.663 132.88C230.903 131.92 229.503 130.613 228.463 128.96C227.45 127.28 226.943 125.373 226.943 123.24C226.943 121.08 227.45 119.173 228.463 117.52C229.503 115.84 230.903 114.533 232.663 113.6C234.45 112.64 236.49 112.16 238.783 112.16C241.05 112.16 243.076 112.64 244.863 113.6C246.65 114.533 248.05 115.827 249.063 117.48C250.076 119.133 250.583 121.053 250.583 123.24C250.583 125.373 250.076 127.28 249.063 128.96C248.05 130.613 246.65 131.92 244.863 132.88C243.076 133.84 241.05 134.32 238.783 134.32ZM238.783 129.2C239.823 129.2 240.756 128.96 241.583 128.48C242.41 128 243.063 127.32 243.543 126.44C244.023 125.533 244.263 124.467 244.263 123.24C244.263 121.987 244.023 120.92 243.543 120.04C243.063 119.16 242.41 118.48 241.583 118C240.756 117.52 239.823 117.28 238.783 117.28C237.743 117.28 236.81 117.52 235.983 118C235.156 118.48 234.49 119.16 233.983 120.04C233.503 120.92 233.263 121.987 233.263 123.24C233.263 124.467 233.503 125.533 233.983 126.44C234.49 127.32 235.156 128 235.983 128.48C236.81 128.96 237.743 129.2 238.783 129.2ZM269.363 131.2V117.6H262.323L262.203 120.36C262.149 121.507 262.083 122.6 262.003 123.64C261.923 124.68 261.763 125.627 261.523 126.48C261.309 127.307 260.989 128.013 260.563 128.6C260.136 129.16 259.563 129.547 258.843 129.76L252.683 128.88C253.456 128.88 254.083 128.653 254.563 128.2C255.043 127.72 255.416 127.067 255.683 126.24C255.949 125.387 256.149 124.427 256.283 123.36C256.416 122.267 256.509 121.12 256.562 119.92L256.842 112.48H275.603V131.2H269.363ZM251.963 138.64V128.88H278.683V138.64H272.883V134H257.763V138.64H251.963ZM295.489 134V129.8L295.089 128.88V121.36C295.089 120.027 294.676 118.987 293.849 118.24C293.049 117.493 291.809 117.12 290.129 117.12C288.983 117.12 287.849 117.307 286.729 117.68C285.636 118.027 284.703 118.507 283.929 119.12L281.689 114.76C282.863 113.933 284.276 113.293 285.929 112.84C287.583 112.387 289.263 112.16 290.969 112.16C294.249 112.16 296.796 112.933 298.609 114.48C300.423 116.027 301.329 118.44 301.329 121.72V134H295.489ZM288.929 134.32C287.249 134.32 285.809 134.04 284.609 133.48C283.409 132.893 282.489 132.107 281.849 131.12C281.209 130.133 280.889 129.027 280.889 127.8C280.889 126.52 281.196 125.4 281.809 124.44C282.449 123.48 283.449 122.733 284.809 122.2C286.169 121.64 287.943 121.36 290.129 121.36H295.849V125H290.809C289.343 125 288.329 125.24 287.769 125.72C287.236 126.2 286.969 126.8 286.969 127.52C286.969 128.32 287.276 128.96 287.889 129.44C288.529 129.893 289.396 130.12 290.489 130.12C291.529 130.12 292.463 129.88 293.289 129.4C294.116 128.893 294.716 128.16 295.089 127.2L296.049 130.08C295.596 131.467 294.769 132.52 293.569 133.24C292.369 133.96 290.823 134.32 288.929 134.32ZM306.75 134V112.48H313.27L321.39 127.2H318.79L327.47 112.48H333.31L333.39 134H327.75V118.88L328.71 119.52L321.31 131.92H318.67L311.23 119.08L312.39 118.8V134H306.75ZM339.367 134V112.48H345.567V125.28L356.047 112.48H361.767V134H355.567V121.2L345.127 134H339.367Z" fill="white"/>
<path d="M1.888 186V174.8H10.08V175.808H3.056V179.472H6.72C8.04267 179.472 9.04533 179.744 9.728 180.288C10.4213 180.821 10.768 181.611 10.768 182.656C10.768 183.733 10.3947 184.56 9.648 185.136C8.912 185.712 7.85067 186 6.464 186H1.888ZM3.056 185.056H6.448C7.48267 185.056 8.26133 184.859 8.784 184.464C9.31733 184.059 9.584 183.472 9.584 182.704C9.584 181.179 8.53867 180.416 6.448 180.416H3.056V185.056ZM16.6814 186.08C15.8707 186.08 15.14 185.899 14.4894 185.536C13.8494 185.163 13.3427 184.656 12.9694 184.016C12.596 183.365 12.4094 182.624 12.4094 181.792C12.4094 180.949 12.596 180.208 12.9694 179.568C13.3427 178.928 13.8494 178.427 14.4894 178.064C15.1294 177.701 15.86 177.52 16.6814 177.52C17.5134 177.52 18.2494 177.701 18.8894 178.064C19.54 178.427 20.0467 178.928 20.4094 179.568C20.7827 180.208 20.9694 180.949 20.9694 181.792C20.9694 182.624 20.7827 183.365 20.4094 184.016C20.0467 184.656 19.54 185.163 18.8894 185.536C18.2387 185.899 17.5027 186.08 16.6814 186.08ZM16.6814 185.072C17.2894 185.072 17.828 184.939 18.2974 184.672C18.7667 184.395 19.1347 184.011 19.4014 183.52C19.6787 183.019 19.8174 182.443 19.8174 181.792C19.8174 181.131 19.6787 180.555 19.4014 180.064C19.1347 179.573 18.7667 179.195 18.2974 178.928C17.828 178.651 17.2947 178.512 16.6974 178.512C16.1 178.512 15.5667 178.651 15.0974 178.928C14.628 179.195 14.2547 179.573 13.9774 180.064C13.7 180.555 13.5614 181.131 13.5614 181.792C13.5614 182.443 13.7 183.019 13.9774 183.52C14.2547 184.011 14.628 184.395 15.0974 184.672C15.5667 184.939 16.0947 185.072 16.6814 185.072ZM21.8144 185.984L21.8944 185.008C21.969 185.019 22.0384 185.035 22.1024 185.056C22.177 185.067 22.241 185.072 22.2944 185.072C22.6357 185.072 22.9077 184.944 23.1104 184.688C23.3237 184.432 23.4837 184.091 23.5904 183.664C23.697 183.237 23.7717 182.757 23.8144 182.224C23.857 181.68 23.8944 181.136 23.9264 180.592L24.0704 177.6H30.2304V186H29.0944V178.256L29.3824 178.592H24.8064L25.0784 178.24L24.9504 180.672C24.9184 181.397 24.8597 182.091 24.7744 182.752C24.6997 183.413 24.577 183.995 24.4064 184.496C24.2464 184.997 24.0224 185.392 23.7344 185.68C23.4464 185.957 23.0784 186.096 22.6304 186.096C22.5024 186.096 22.369 186.085 22.2304 186.064C22.1024 186.043 21.9637 186.016 21.8144 185.984ZM37.0598 186.08C36.1851 186.08 35.4171 185.899 34.7558 185.536C34.0944 185.163 33.5771 184.656 33.2038 184.016C32.8304 183.365 32.6438 182.624 32.6438 181.792C32.6438 180.96 32.8198 180.224 33.1718 179.584C33.5344 178.944 34.0251 178.443 34.6438 178.08C35.2731 177.707 35.9771 177.52 36.7558 177.52C37.5451 177.52 38.2438 177.701 38.8518 178.064C39.4704 178.416 39.9558 178.917 40.3078 179.568C40.6598 180.208 40.8358 180.949 40.8358 181.792C40.8358 181.845 40.8304 181.904 40.8198 181.968C40.8198 182.021 40.8198 182.08 40.8198 182.144H33.5078V181.296H40.2118L39.7638 181.632C39.7638 181.024 39.6304 180.485 39.3638 180.016C39.1078 179.536 38.7558 179.163 38.3078 178.896C37.8598 178.629 37.3424 178.496 36.7558 178.496C36.1798 178.496 35.6624 178.629 35.2038 178.896C34.7451 179.163 34.3878 179.536 34.1318 180.016C33.8758 180.496 33.7478 181.045 33.7478 181.664V181.84C33.7478 182.48 33.8864 183.045 34.1638 183.536C34.4518 184.016 34.8464 184.395 35.3478 184.672C35.8598 184.939 36.4411 185.072 37.0918 185.072C37.6038 185.072 38.0784 184.981 38.5158 184.8C38.9638 184.619 39.3478 184.341 39.6678 183.968L40.3078 184.704C39.9344 185.152 39.4651 185.493 38.8998 185.728C38.3451 185.963 37.7318 186.08 37.0598 186.08ZM46.9504 186.08C46.0757 186.08 45.3077 185.899 44.6464 185.536C43.985 185.163 43.4677 184.656 43.0944 184.016C42.721 183.365 42.5344 182.624 42.5344 181.792C42.5344 180.96 42.7104 180.224 43.0624 179.584C43.425 178.944 43.9157 178.443 44.5344 178.08C45.1637 177.707 45.8677 177.52 46.6464 177.52C47.4357 177.52 48.1344 177.701 48.7424 178.064C49.361 178.416 49.8464 178.917 50.1984 179.568C50.5504 180.208 50.7264 180.949 50.7264 181.792C50.7264 181.845 50.721 181.904 50.7104 181.968C50.7104 182.021 50.7104 182.08 50.7104 182.144H43.3984V181.296H50.1024L49.6544 181.632C49.6544 181.024 49.521 180.485 49.2544 180.016C48.9984 179.536 48.6464 179.163 48.1984 178.896C47.7504 178.629 47.233 178.496 46.6464 178.496C46.0704 178.496 45.553 178.629 45.0944 178.896C44.6357 179.163 44.2784 179.536 44.0224 180.016C43.7664 180.496 43.6384 181.045 43.6384 181.664V181.84C43.6384 182.48 43.777 183.045 44.0544 183.536C44.3424 184.016 44.737 184.395 45.2384 184.672C45.7504 184.939 46.3317 185.072 46.9824 185.072C47.4944 185.072 47.969 184.981 48.4064 184.8C48.8544 184.619 49.2384 184.341 49.5584 183.968L50.1984 184.704C49.825 185.152 49.3557 185.493 48.7904 185.728C48.2357 185.963 47.6224 186.08 46.9504 186.08ZM60.1805 186.096C59.3805 186.096 58.6178 185.968 57.8925 185.712C57.1672 185.445 56.5912 185.093 56.1645 184.656L56.7245 183.744C57.0765 184.117 57.5565 184.427 58.1645 184.672C58.7832 184.917 59.4498 185.04 60.1645 185.04C61.1138 185.04 61.8338 184.832 62.3245 184.416C62.8258 183.989 63.0765 183.435 63.0765 182.752C63.0765 182.272 62.9592 181.861 62.7245 181.52C62.5005 181.168 62.1165 180.896 61.5725 180.704C61.0285 180.512 60.2818 180.416 59.3325 180.416H56.9485L57.5245 174.8H63.6525V175.824H57.9885L58.5805 175.264L58.0845 179.968L57.4925 179.392H59.5885C60.7192 179.392 61.6258 179.531 62.3085 179.808C62.9912 180.085 63.4818 180.475 63.7805 180.976C64.0898 181.467 64.2445 182.043 64.2445 182.704C64.2445 183.333 64.0952 183.909 63.7965 184.432C63.4978 184.944 63.0498 185.349 62.4525 185.648C61.8552 185.947 61.0978 186.096 60.1805 186.096ZM70.171 186.096C69.307 186.096 68.539 185.872 67.867 185.424C67.195 184.965 66.667 184.315 66.283 183.472C65.899 182.619 65.707 181.595 65.707 180.4C65.707 179.205 65.899 178.187 66.283 177.344C66.667 176.491 67.195 175.84 67.867 175.392C68.539 174.933 69.307 174.704 70.171 174.704C71.035 174.704 71.803 174.933 72.475 175.392C73.147 175.84 73.675 176.491 74.059 177.344C74.4537 178.187 74.651 179.205 74.651 180.4C74.651 181.595 74.4537 182.619 74.059 183.472C73.675 184.315 73.147 184.965 72.475 185.424C71.803 185.872 71.035 186.096 70.171 186.096ZM70.171 185.04C70.8323 185.04 71.4083 184.864 71.899 184.512C72.3897 184.149 72.7737 183.627 73.051 182.944C73.3283 182.251 73.467 181.403 73.467 180.4C73.467 179.397 73.3283 178.555 73.051 177.872C72.7737 177.179 72.3897 176.656 71.899 176.304C71.4083 175.941 70.8323 175.76 70.171 175.76C69.531 175.76 68.9603 175.941 68.459 176.304C67.9577 176.656 67.5683 177.179 67.291 177.872C67.0137 178.555 66.875 179.397 66.875 180.4C66.875 181.403 67.0137 182.251 67.291 182.944C67.5683 183.627 67.9577 184.149 68.459 184.512C68.9603 184.864 69.531 185.04 70.171 185.04ZM80.7648 186.096C79.9008 186.096 79.1328 185.872 78.4608 185.424C77.7888 184.965 77.2608 184.315 76.8768 183.472C76.4928 182.619 76.3008 181.595 76.3008 180.4C76.3008 179.205 76.4928 178.187 76.8768 177.344C77.2608 176.491 77.7888 175.84 78.4608 175.392C79.1328 174.933 79.9008 174.704 80.7648 174.704C81.6288 174.704 82.3968 174.933 83.0688 175.392C83.7408 175.84 84.2688 176.491 84.6528 177.344C85.0474 178.187 85.2448 179.205 85.2448 180.4C85.2448 181.595 85.0474 182.619 84.6528 183.472C84.2688 184.315 83.7408 184.965 83.0688 185.424C82.3968 185.872 81.6288 186.096 80.7648 186.096ZM80.7648 185.04C81.4261 185.04 82.0021 184.864 82.4928 184.512C82.9834 184.149 83.3674 183.627 83.6448 182.944C83.9221 182.251 84.0608 181.403 84.0608 180.4C84.0608 179.397 83.9221 178.555 83.6448 177.872C83.3674 177.179 82.9834 176.656 82.4928 176.304C82.0021 175.941 81.4261 175.76 80.7648 175.76C80.1248 175.76 79.5541 175.941 79.0528 176.304C78.5514 176.656 78.1621 177.179 77.8848 177.872C77.6074 178.555 77.4688 179.397 77.4688 180.4C77.4688 181.403 77.6074 182.251 77.8848 182.944C78.1621 183.627 78.5514 184.149 79.0528 184.512C79.5541 184.864 80.1248 185.04 80.7648 185.04ZM91.866 186V177.6H93.018L96.826 184.048H96.346L100.218 177.6H101.274V186H100.234V178.896L100.442 178.992L96.826 184.976H96.314L92.666 178.928L92.906 178.88V186H91.866ZM107.963 186.08C107.152 186.08 106.421 185.899 105.771 185.536C105.131 185.163 104.624 184.656 104.251 184.016C103.877 183.365 103.691 182.624 103.691 181.792C103.691 180.949 103.877 180.208 104.251 179.568C104.624 178.928 105.131 178.427 105.771 178.064C106.411 177.701 107.141 177.52 107.963 177.52C108.795 177.52 109.531 177.701 110.171 178.064C110.821 178.427 111.328 178.928 111.691 179.568C112.064 180.208 112.251 180.949 112.251 181.792C112.251 182.624 112.064 183.365 111.691 184.016C111.328 184.656 110.821 185.163 110.171 185.536C109.52 185.899 108.784 186.08 107.963 186.08ZM107.963 185.072C108.571 185.072 109.109 184.939 109.579 184.672C110.048 184.395 110.416 184.011 110.683 183.52C110.96 183.019 111.099 182.443 111.099 181.792C111.099 181.131 110.96 180.555 110.683 180.064C110.416 179.573 110.048 179.195 109.579 178.928C109.109 178.651 108.576 178.512 107.979 178.512C107.381 178.512 106.848 178.651 106.379 178.928C105.909 179.195 105.536 179.573 105.259 180.064C104.981 180.555 104.843 181.131 104.843 181.792C104.843 182.443 104.981 183.019 105.259 183.52C105.536 184.011 105.909 184.395 106.379 184.672C106.848 184.939 107.376 185.072 107.963 185.072ZM120.392 185.456V178.592H116.344L116.248 180.464C116.226 181.029 116.189 181.584 116.136 182.128C116.093 182.672 116.013 183.173 115.896 183.632C115.789 184.08 115.634 184.448 115.432 184.736C115.229 185.013 114.968 185.173 114.648 185.216L113.512 185.008C113.842 185.019 114.114 184.901 114.328 184.656C114.541 184.4 114.706 184.053 114.824 183.616C114.941 183.179 115.026 182.683 115.08 182.128C115.133 181.563 115.176 180.987 115.208 180.4L115.32 177.6H121.528V185.456H120.392ZM113.16 188.032V185.008H122.84V188.032H121.768V186H114.232V188.032H113.16ZM128.654 186.08C127.779 186.08 127.011 185.899 126.35 185.536C125.688 185.163 125.171 184.656 124.798 184.016C124.424 183.365 124.238 182.624 124.238 181.792C124.238 180.96 124.414 180.224 124.766 179.584C125.128 178.944 125.619 178.443 126.238 178.08C126.867 177.707 127.571 177.52 128.35 177.52C129.139 177.52 129.838 177.701 130.446 178.064C131.064 178.416 131.55 178.917 131.902 179.568C132.254 180.208 132.43 180.949 132.43 181.792C132.43 181.845 132.424 181.904 132.414 181.968C132.414 182.021 132.414 182.08 132.414 182.144H125.102V181.296H131.806L131.358 181.632C131.358 181.024 131.224 180.485 130.958 180.016C130.702 179.536 130.35 179.163 129.902 178.896C129.454 178.629 128.936 178.496 128.35 178.496C127.774 178.496 127.256 178.629 126.798 178.896C126.339 179.163 125.982 179.536 125.726 180.016C125.47 180.496 125.342 181.045 125.342 181.664V181.84C125.342 182.48 125.48 183.045 125.758 183.536C126.046 184.016 126.44 184.395 126.942 184.672C127.454 184.939 128.035 185.072 128.686 185.072C129.198 185.072 129.672 184.981 130.11 184.8C130.558 184.619 130.942 184.341 131.262 183.968L131.902 184.704C131.528 185.152 131.059 185.493 130.494 185.728C129.939 185.963 129.326 186.08 128.654 186.08ZM133.236 185.984L133.316 185.008C133.391 185.019 133.46 185.035 133.524 185.056C133.599 185.067 133.663 185.072 133.716 185.072C134.058 185.072 134.33 184.944 134.532 184.688C134.746 184.432 134.906 184.091 135.012 183.664C135.119 183.237 135.194 182.757 135.236 182.224C135.279 181.68 135.316 181.136 135.348 180.592L135.492 177.6H141.652V186H140.516V178.256L140.804 178.592H136.228L136.5 178.24L136.372 180.672C136.34 181.397 136.282 182.091 136.196 182.752C136.122 183.413 135.999 183.995 135.828 184.496C135.668 184.997 135.444 185.392 135.156 185.68C134.868 185.957 134.5 186.096 134.052 186.096C133.924 186.096 133.791 186.085 133.652 186.064C133.524 186.043 133.386 186.016 133.236 185.984ZM148.482 186.08C147.607 186.08 146.839 185.899 146.178 185.536C145.516 185.163 144.999 184.656 144.626 184.016C144.252 183.365 144.066 182.624 144.066 181.792C144.066 180.96 144.242 180.224 144.594 179.584C144.956 178.944 145.447 178.443 146.066 178.08C146.695 177.707 147.399 177.52 148.178 177.52C148.967 177.52 149.666 177.701 150.274 178.064C150.892 178.416 151.378 178.917 151.73 179.568C152.082 180.208 152.258 180.949 152.258 181.792C152.258 181.845 152.252 181.904 152.242 181.968C152.242 182.021 152.242 182.08 152.242 182.144H144.93V181.296H151.634L151.186 181.632C151.186 181.024 151.052 180.485 150.786 180.016C150.53 179.536 150.178 179.163 149.73 178.896C149.282 178.629 148.764 178.496 148.178 178.496C147.602 178.496 147.084 178.629 146.626 178.896C146.167 179.163 145.81 179.536 145.554 180.016C145.298 180.496 145.17 181.045 145.17 181.664V181.84C145.17 182.48 145.308 183.045 145.586 183.536C145.874 184.016 146.268 184.395 146.77 184.672C147.282 184.939 147.863 185.072 148.514 185.072C149.026 185.072 149.5 184.981 149.938 184.8C150.386 184.619 150.77 184.341 151.09 183.968L151.73 184.704C151.356 185.152 150.887 185.493 150.322 185.728C149.767 185.963 149.154 186.08 148.482 186.08ZM154.772 186V177.6H155.908V184.272L161.524 177.6H162.532V186H161.396V179.312L155.796 186H154.772ZM158.58 176.384C157.876 176.384 157.306 176.208 156.868 175.856C156.442 175.493 156.218 174.976 156.196 174.304H157.012C157.023 174.731 157.172 175.067 157.46 175.312C157.748 175.557 158.122 175.68 158.58 175.68C159.039 175.68 159.412 175.557 159.7 175.312C159.999 175.067 160.154 174.731 160.164 174.304H160.98C160.97 174.976 160.746 175.493 160.308 175.856C159.871 176.208 159.295 176.384 158.58 176.384ZM169.975 186V177.6H173.687C174.637 177.6 175.383 177.781 175.927 178.144C176.482 178.507 176.759 179.04 176.759 179.744C176.759 180.427 176.498 180.955 175.975 181.328C175.453 181.691 174.765 181.872 173.911 181.872L174.135 181.536C175.138 181.536 175.874 181.723 176.343 182.096C176.813 182.469 177.047 183.008 177.047 183.712C177.047 184.437 176.781 185.003 176.247 185.408C175.725 185.803 174.909 186 173.799 186H169.975ZM171.079 185.104H173.751C174.466 185.104 175.005 184.992 175.367 184.768C175.741 184.533 175.927 184.16 175.927 183.648C175.927 183.136 175.762 182.763 175.431 182.528C175.101 182.293 174.578 182.176 173.863 182.176H171.079V185.104ZM171.079 181.328H173.607C174.258 181.328 174.754 181.205 175.095 180.96C175.447 180.715 175.623 180.357 175.623 179.888C175.623 179.419 175.447 179.067 175.095 178.832C174.754 178.597 174.258 178.48 173.607 178.48H171.079V181.328ZM183.897 186V177.6H185.033V181.312H190.329V177.6H191.465V186H190.329V182.288H185.033V186H183.897ZM199.91 186V184.144L199.862 183.84V180.736C199.862 180.021 199.659 179.472 199.254 179.088C198.859 178.704 198.267 178.512 197.478 178.512C196.934 178.512 196.417 178.603 195.926 178.784C195.435 178.965 195.019 179.205 194.678 179.504L194.166 178.656C194.593 178.293 195.105 178.016 195.702 177.824C196.299 177.621 196.929 177.52 197.59 177.52C198.678 177.52 199.515 177.792 200.102 178.336C200.699 178.869 200.998 179.685 200.998 180.784V186H199.91ZM197.014 186.08C196.385 186.08 195.835 185.979 195.366 185.776C194.907 185.563 194.555 185.275 194.31 184.912C194.065 184.539 193.942 184.112 193.942 183.632C193.942 183.195 194.043 182.8 194.246 182.448C194.459 182.085 194.801 181.797 195.27 181.584C195.75 181.36 196.39 181.248 197.19 181.248H200.086V182.096H197.222C196.411 182.096 195.846 182.24 195.526 182.528C195.217 182.816 195.062 183.173 195.062 183.6C195.062 184.08 195.249 184.464 195.622 184.752C195.995 185.04 196.518 185.184 197.19 185.184C197.83 185.184 198.379 185.04 198.838 184.752C199.307 184.453 199.649 184.027 199.862 183.472L200.118 184.256C199.905 184.811 199.531 185.253 198.998 185.584C198.475 185.915 197.814 186.08 197.014 186.08ZM202.486 185.984L202.566 185.008C202.641 185.019 202.71 185.035 202.774 185.056C202.849 185.067 202.913 185.072 202.966 185.072C203.308 185.072 203.58 184.944 203.782 184.688C203.996 184.432 204.156 184.091 204.262 183.664C204.369 183.237 204.444 182.757 204.486 182.224C204.529 181.68 204.566 181.136 204.598 180.592L204.742 177.6H210.902V186H209.766V178.256L210.054 178.592H205.478L205.75 178.24L205.622 180.672C205.59 181.397 205.532 182.091 205.446 182.752C205.372 183.413 205.249 183.995 205.078 184.496C204.918 184.997 204.694 185.392 204.406 185.68C204.118 185.957 203.75 186.096 203.302 186.096C203.174 186.096 203.041 186.085 202.902 186.064C202.774 186.043 202.636 186.016 202.486 185.984ZM214.132 186V177.6H215.268V184.272L220.884 177.6H221.892V186H220.756V179.312L215.156 186H214.132ZM230.459 182.448C229.969 182.661 229.473 182.832 228.971 182.96C228.481 183.077 227.99 183.136 227.499 183.136C226.507 183.136 225.723 182.912 225.147 182.464C224.571 182.005 224.283 181.301 224.283 180.352V177.6H225.403V180.288C225.403 180.928 225.611 181.408 226.027 181.728C226.443 182.048 227.003 182.208 227.707 182.208C228.134 182.208 228.582 182.155 229.051 182.048C229.521 181.931 229.995 181.765 230.475 181.552L230.459 182.448ZM230.363 186V177.6H231.499V186H230.363ZM234.725 186V177.6H235.861V184.272L241.477 177.6H242.485V186H241.349V179.312L235.749 186H234.725ZM245.741 186V177.6H246.877V184.272L252.493 177.6H253.501V186H252.365V179.312L246.765 186H245.741ZM260.944 186V177.6H262.08V184.272L267.696 177.6H268.704V186H267.568V179.312L261.968 186H260.944ZM276.147 186V177.6H283.699V186H282.563V178.288L282.851 178.592H276.995L277.283 178.288V186H276.147ZM290.385 186.08C289.574 186.08 288.843 185.899 288.193 185.536C287.553 185.163 287.046 184.656 286.673 184.016C286.299 183.365 286.113 182.624 286.113 181.792C286.113 180.949 286.299 180.208 286.673 179.568C287.046 178.928 287.553 178.427 288.193 178.064C288.833 177.701 289.563 177.52 290.385 177.52C291.217 177.52 291.953 177.701 292.593 178.064C293.243 178.427 293.75 178.928 294.113 179.568C294.486 180.208 294.673 180.949 294.673 181.792C294.673 182.624 294.486 183.365 294.113 184.016C293.75 184.656 293.243 185.163 292.593 185.536C291.942 185.899 291.206 186.08 290.385 186.08ZM290.385 185.072C290.993 185.072 291.531 184.939 292.001 184.672C292.47 184.395 292.838 184.011 293.105 183.52C293.382 183.019 293.521 182.443 293.521 181.792C293.521 181.131 293.382 180.555 293.105 180.064C292.838 179.573 292.47 179.195 292.001 178.928C291.531 178.651 290.998 178.512 290.401 178.512C289.803 178.512 289.27 178.651 288.801 178.928C288.331 179.195 287.958 179.573 287.681 180.064C287.403 180.555 287.265 181.131 287.265 181.792C287.265 182.443 287.403 183.019 287.681 183.52C287.958 184.011 288.331 184.395 288.801 184.672C289.27 184.939 289.798 185.072 290.385 185.072ZM302.814 185.456V178.592H298.766L298.67 180.464C298.648 181.029 298.611 181.584 298.558 182.128C298.515 182.672 298.435 183.173 298.318 183.632C298.211 184.08 298.056 184.448 297.854 184.736C297.651 185.013 297.39 185.173 297.07 185.216L295.934 185.008C296.264 185.019 296.536 184.901 296.75 184.656C296.963 184.4 297.128 184.053 297.246 183.616C297.363 183.179 297.448 182.683 297.502 182.128C297.555 181.563 297.598 180.987 297.63 180.4L297.742 177.6H303.95V185.456H302.814ZM295.582 188.032V185.008H305.262V188.032H304.19V186H296.654V188.032H295.582ZM313.919 186.096C313.311 186.096 312.708 186.011 312.111 185.84C311.514 185.669 310.986 185.408 310.527 185.056L310.895 184.208C311.3 184.507 311.77 184.736 312.303 184.896C312.836 185.045 313.364 185.12 313.887 185.12C314.41 185.109 314.863 185.035 315.247 184.896C315.631 184.757 315.93 184.565 316.143 184.32C316.356 184.075 316.463 183.797 316.463 183.488C316.463 183.04 316.26 182.693 315.855 182.448C315.45 182.192 314.895 182.064 314.191 182.064H312.751V181.232H314.111C314.527 181.232 314.895 181.179 315.215 181.072C315.535 180.965 315.78 180.811 315.951 180.608C316.132 180.405 316.223 180.165 316.223 179.888C316.223 179.589 316.116 179.333 315.903 179.12C315.7 178.907 315.418 178.747 315.055 178.64C314.692 178.533 314.282 178.48 313.823 178.48C313.407 178.491 312.975 178.555 312.527 178.672C312.079 178.779 311.636 178.944 311.199 179.168L310.879 178.288C311.37 178.032 311.855 177.84 312.335 177.712C312.826 177.573 313.316 177.504 313.807 177.504C314.479 177.483 315.082 177.563 315.615 177.744C316.159 177.925 316.591 178.187 316.911 178.528C317.231 178.859 317.391 179.259 317.391 179.728C317.391 180.144 317.263 180.507 317.007 180.816C316.751 181.125 316.41 181.365 315.983 181.536C315.556 181.707 315.071 181.792 314.527 181.792L314.575 181.488C315.535 181.488 316.282 181.675 316.815 182.048C317.359 182.421 317.631 182.928 317.631 183.568C317.631 184.069 317.466 184.512 317.135 184.896C316.804 185.269 316.356 185.563 315.791 185.776C315.236 185.989 314.612 186.096 313.919 186.096ZM325.426 186V184.144L325.378 183.84V180.736C325.378 180.021 325.175 179.472 324.77 179.088C324.375 178.704 323.783 178.512 322.994 178.512C322.45 178.512 321.932 178.603 321.442 178.784C320.951 178.965 320.535 179.205 320.194 179.504L319.682 178.656C320.108 178.293 320.62 178.016 321.218 177.824C321.815 177.621 322.444 177.52 323.106 177.52C324.194 177.52 325.031 177.792 325.618 178.336C326.215 178.869 326.514 179.685 326.514 180.784V186H325.426ZM322.53 186.08C321.9 186.08 321.351 185.979 320.882 185.776C320.423 185.563 320.071 185.275 319.826 184.912C319.58 184.539 319.458 184.112 319.458 183.632C319.458 183.195 319.559 182.8 319.762 182.448C319.975 182.085 320.316 181.797 320.786 181.584C321.266 181.36 321.906 181.248 322.706 181.248H325.602V182.096H322.738C321.927 182.096 321.362 182.24 321.042 182.528C320.732 182.816 320.578 183.173 320.578 183.6C320.578 184.08 320.764 184.464 321.138 184.752C321.511 185.04 322.034 185.184 322.706 185.184C323.346 185.184 323.895 185.04 324.354 184.752C324.823 184.453 325.164 184.027 325.378 183.472L325.634 184.256C325.42 184.811 325.047 185.253 324.514 185.584C323.991 185.915 323.33 186.08 322.53 186.08ZM335.698 186L332.242 181.84L333.186 181.28L337.042 186H335.698ZM329.538 186V177.6H330.674V186H329.538ZM330.322 182.256V181.28H333.026V182.256H330.322ZM333.282 181.92L332.226 181.76L335.57 177.6H336.802L333.282 181.92ZM343.895 186V184.144L343.847 183.84V180.736C343.847 180.021 343.644 179.472 343.239 179.088C342.844 178.704 342.252 178.512 341.463 178.512C340.919 178.512 340.401 178.603 339.911 178.784C339.42 178.965 339.004 179.205 338.663 179.504L338.151 178.656C338.577 178.293 339.089 178.016 339.687 177.824C340.284 177.621 340.913 177.52 341.575 177.52C342.663 177.52 343.5 177.792 344.087 178.336C344.684 178.869 344.983 179.685 344.983 180.784V186H343.895ZM340.999 186.08C340.369 186.08 339.82 185.979 339.351 185.776C338.892 185.563 338.54 185.275 338.295 184.912C338.049 184.539 337.927 184.112 337.927 183.632C337.927 183.195 338.028 182.8 338.231 182.448C338.444 182.085 338.785 181.797 339.255 181.584C339.735 181.36 340.375 181.248 341.174 181.248H344.071V182.096H341.207C340.396 182.096 339.831 182.24 339.511 182.528C339.201 182.816 339.047 183.173 339.047 183.6C339.047 184.08 339.233 184.464 339.607 184.752C339.98 185.04 340.503 185.184 341.174 185.184C341.815 185.184 342.364 185.04 342.823 184.752C343.292 184.453 343.633 184.027 343.847 183.472L344.103 184.256C343.889 184.811 343.516 185.253 342.983 185.584C342.46 185.915 341.799 186.08 340.999 186.08ZM350.091 186.096C349.483 186.096 348.88 186.011 348.283 185.84C347.685 185.669 347.157 185.408 346.699 185.056L347.067 184.208C347.472 184.507 347.941 184.736 348.475 184.896C349.008 185.045 349.536 185.12 350.059 185.12C350.581 185.109 351.035 185.035 351.419 184.896C351.803 184.757 352.101 184.565 352.315 184.32C352.528 184.075 352.635 183.797 352.635 183.488C352.635 183.04 352.432 182.693 352.027 182.448C351.621 182.192 351.067 182.064 350.363 182.064H348.923V181.232H350.283C350.699 181.232 351.067 181.179 351.387 181.072C351.707 180.965 351.952 180.811 352.123 180.608C352.304 180.405 352.395 180.165 352.395 179.888C352.395 179.589 352.288 179.333 352.075 179.12C351.872 178.907 351.589 178.747 351.227 178.64C350.864 178.533 350.453 178.48 349.995 178.48C349.579 178.491 349.147 178.555 348.699 178.672C348.251 178.779 347.808 178.944 347.371 179.168L347.051 178.288C347.541 178.032 348.027 177.84 348.507 177.712C348.997 177.573 349.488 177.504 349.979 177.504C350.651 177.483 351.253 177.563 351.787 177.744C352.331 177.925 352.763 178.187 353.083 178.528C353.403 178.859 353.563 179.259 353.563 179.728C353.563 180.144 353.435 180.507 353.179 180.816C352.923 181.125 352.581 181.365 352.155 181.536C351.728 181.707 351.243 181.792 350.699 181.792L350.747 181.488C351.707 181.488 352.453 181.675 352.987 182.048C353.531 182.421 353.803 182.928 353.803 183.568C353.803 184.069 353.637 184.512 353.307 184.896C352.976 185.269 352.528 185.563 351.963 185.776C351.408 185.989 350.784 186.096 350.091 186.096ZM355.662 188.336L356.366 185.376L356.494 186.064C356.248 186.064 356.04 185.984 355.87 185.824C355.71 185.664 355.63 185.456 355.63 185.2C355.63 184.944 355.71 184.736 355.87 184.576C356.04 184.416 356.243 184.336 356.478 184.336C356.723 184.336 356.92 184.421 357.07 184.592C357.23 184.763 357.31 184.965 357.31 185.2C357.31 185.285 357.304 185.371 357.294 185.456C357.283 185.541 357.262 185.637 357.23 185.744C357.198 185.851 357.155 185.979 357.102 186.128L356.43 188.336H355.662ZM363.96 186V177.6H371.512V186H370.376V178.288L370.664 178.592H364.808L365.096 178.288V186H363.96ZM378.197 186.08C377.386 186.08 376.656 185.899 376.005 185.536C375.365 185.163 374.858 184.656 374.485 184.016C374.112 183.365 373.925 182.624 373.925 181.792C373.925 180.949 374.112 180.208 374.485 179.568C374.858 178.928 375.365 178.427 376.005 178.064C376.645 177.701 377.376 177.52 378.197 177.52C379.029 177.52 379.765 177.701 380.405 178.064C381.056 178.427 381.562 178.928 381.925 179.568C382.298 180.208 382.485 180.949 382.485 181.792C382.485 182.624 382.298 183.365 381.925 184.016C381.562 184.656 381.056 185.163 380.405 185.536C379.754 185.899 379.018 186.08 378.197 186.08ZM378.197 185.072C378.805 185.072 379.344 184.939 379.813 184.672C380.282 184.395 380.65 184.011 380.917 183.52C381.194 183.019 381.333 182.443 381.333 181.792C381.333 181.131 381.194 180.555 380.917 180.064C380.65 179.573 380.282 179.195 379.813 178.928C379.344 178.651 378.81 178.512 378.213 178.512C377.616 178.512 377.082 178.651 376.613 178.928C376.144 179.195 375.77 179.573 375.493 180.064C375.216 180.555 375.077 181.131 375.077 181.792C375.077 182.443 375.216 183.019 375.493 183.52C375.77 184.011 376.144 184.395 376.613 184.672C377.082 184.939 377.61 185.072 378.197 185.072ZM390.433 185.008L390.177 185.312V177.6H391.313V185.312L391.009 185.008H395.697L395.393 185.312V177.6H396.529V186H384.913V177.6H386.049V185.312L385.761 185.008H390.433ZM399.757 186V177.6H400.893V184.272L406.509 177.6H407.517V186H406.381V179.312L400.781 186H399.757ZM412.372 186V178.288L412.66 178.592H409.188V177.6H416.692V178.592H413.22L413.508 178.288V186H412.372ZM426.527 186V177.6H427.663V186H426.527ZM421.871 180.56C422.927 180.571 423.732 180.805 424.287 181.264C424.841 181.723 425.119 182.384 425.119 183.248C425.119 184.144 424.82 184.832 424.223 185.312C423.625 185.792 422.772 186.027 421.663 186.016L418.335 186V177.6H419.471V180.528L421.871 180.56ZM421.583 185.152C422.372 185.163 422.964 185.008 423.359 184.688C423.764 184.357 423.967 183.877 423.967 183.248C423.967 182.619 423.769 182.16 423.375 181.872C422.98 181.573 422.383 181.419 421.583 181.408L419.471 181.376V185.12L421.583 185.152ZM435.085 186V177.6H442.637V186H441.501V178.288L441.789 178.592H435.933L436.221 178.288V186H435.085ZM449.322 186.08C448.511 186.08 447.781 185.899 447.13 185.536C446.49 185.163 445.983 184.656 445.61 184.016C445.237 183.365 445.05 182.624 445.05 181.792C445.05 180.949 445.237 180.208 445.61 179.568C445.983 178.928 446.49 178.427 447.13 178.064C447.77 177.701 448.501 177.52 449.322 177.52C450.154 177.52 450.89 177.701 451.53 178.064C452.181 178.427 452.687 178.928 453.05 179.568C453.423 180.208 453.61 180.949 453.61 181.792C453.61 182.624 453.423 183.365 453.05 184.016C452.687 184.656 452.181 185.163 451.53 185.536C450.879 185.899 450.143 186.08 449.322 186.08ZM449.322 185.072C449.93 185.072 450.469 184.939 450.938 184.672C451.407 184.395 451.775 184.011 452.042 183.52C452.319 183.019 452.458 182.443 452.458 181.792C452.458 181.131 452.319 180.555 452.042 180.064C451.775 179.573 451.407 179.195 450.938 178.928C450.469 178.651 449.935 178.512 449.338 178.512C448.741 178.512 448.207 178.651 447.738 178.928C447.269 179.195 446.895 179.573 446.618 180.064C446.341 180.555 446.202 181.131 446.202 181.792C446.202 182.443 446.341 183.019 446.618 183.52C446.895 184.011 447.269 184.395 447.738 184.672C448.207 184.939 448.735 185.072 449.322 185.072ZM463.681 186.08C462.871 186.08 462.14 185.899 461.489 185.536C460.849 185.163 460.343 184.656 459.969 184.016C459.596 183.365 459.409 182.624 459.409 181.792C459.409 180.949 459.596 180.208 459.969 179.568C460.343 178.928 460.849 178.427 461.489 178.064C462.129 177.701 462.86 177.52 463.681 177.52C464.513 177.52 465.249 177.701 465.889 178.064C466.54 178.427 467.047 178.928 467.409 179.568C467.783 180.208 467.969 180.949 467.969 181.792C467.969 182.624 467.783 183.365 467.409 184.016C467.047 184.656 466.54 185.163 465.889 185.536C465.239 185.899 464.503 186.08 463.681 186.08ZM463.681 185.072C464.289 185.072 464.828 184.939 465.297 184.672C465.767 184.395 466.135 184.011 466.401 183.52C466.679 183.019 466.817 182.443 466.817 181.792C466.817 181.131 466.679 180.555 466.401 180.064C466.135 179.573 465.767 179.195 465.297 178.928C464.828 178.651 464.295 178.512 463.697 178.512C463.1 178.512 462.567 178.651 462.097 178.928C461.628 179.195 461.255 179.573 460.977 180.064C460.7 180.555 460.561 181.131 460.561 181.792C460.561 182.443 460.7 183.019 460.977 183.52C461.255 184.011 461.628 184.395 462.097 184.672C462.567 184.939 463.095 185.072 463.681 185.072ZM474.733 186.08C474.008 186.08 473.352 185.915 472.765 185.584C472.179 185.243 471.709 184.757 471.357 184.128C471.016 183.488 470.845 182.709 470.845 181.792C470.845 180.875 471.016 180.101 471.357 179.472C471.699 178.832 472.163 178.347 472.749 178.016C473.336 177.685 473.997 177.52 474.733 177.52C475.533 177.52 476.248 177.701 476.877 178.064C477.517 178.416 478.019 178.917 478.381 179.568C478.744 180.208 478.925 180.949 478.925 181.792C478.925 182.645 478.744 183.392 478.381 184.032C478.019 184.672 477.517 185.173 476.877 185.536C476.248 185.899 475.533 186.08 474.733 186.08ZM470.397 189.104V177.6H471.485V180.128L471.373 181.808L471.533 183.504V189.104H470.397ZM474.653 185.072C475.251 185.072 475.784 184.939 476.253 184.672C476.723 184.395 477.096 184.011 477.373 183.52C477.651 183.019 477.789 182.443 477.789 181.792C477.789 181.141 477.651 180.571 477.373 180.08C477.096 179.589 476.723 179.205 476.253 178.928C475.784 178.651 475.251 178.512 474.653 178.512C474.056 178.512 473.517 178.651 473.037 178.928C472.568 179.205 472.195 179.589 471.917 180.08C471.651 180.571 471.517 181.141 471.517 181.792C471.517 182.443 471.651 183.019 471.917 183.52C472.195 184.011 472.568 184.395 473.037 184.672C473.517 184.939 474.056 185.072 474.653 185.072ZM481.366 186V177.6H482.502V184.272L488.118 177.6H489.126V186H487.99V179.312L482.39 186H481.366ZM492.382 186V177.6H498.334V178.592H493.23L493.518 178.304V186H492.382ZM499.975 186V177.6H501.111V184.272L506.727 177.6H507.735V186H506.599V179.312L500.999 186H499.975ZM510.991 186V177.6H512.127V181.312H517.423V177.6H518.559V186H517.423V182.288H512.127V186H510.991ZM527.004 186V184.144L526.956 183.84V180.736C526.956 180.021 526.753 179.472 526.348 179.088C525.953 178.704 525.361 178.512 524.572 178.512C524.028 178.512 523.511 178.603 523.02 178.784C522.529 178.965 522.113 179.205 521.772 179.504L521.26 178.656C521.687 178.293 522.199 178.016 522.796 177.824C523.393 177.621 524.023 177.52 524.684 177.52C525.772 177.52 526.609 177.792 527.196 178.336C527.793 178.869 528.092 179.685 528.092 180.784V186H527.004ZM524.108 186.08C523.479 186.08 522.929 185.979 522.46 185.776C522.001 185.563 521.649 185.275 521.404 184.912C521.159 184.539 521.036 184.112 521.036 183.632C521.036 183.195 521.137 182.8 521.34 182.448C521.553 182.085 521.895 181.797 522.364 181.584C522.844 181.36 523.484 181.248 524.284 181.248H527.18V182.096H524.316C523.505 182.096 522.94 182.24 522.62 182.528C522.311 182.816 522.156 183.173 522.156 183.6C522.156 184.08 522.343 184.464 522.716 184.752C523.089 185.04 523.612 185.184 524.284 185.184C524.924 185.184 525.473 185.04 525.932 184.752C526.401 184.453 526.743 184.027 526.956 183.472L527.212 184.256C526.999 184.811 526.625 185.253 526.092 185.584C525.569 185.915 524.908 186.08 524.108 186.08ZM529.58 185.984L529.66 185.008C529.735 185.019 529.804 185.035 529.868 185.056C529.943 185.067 530.007 185.072 530.06 185.072C530.401 185.072 530.673 184.944 530.876 184.688C531.089 184.432 531.249 184.091 531.356 183.664C531.463 183.237 531.537 182.757 531.58 182.224C531.623 181.68 531.66 181.136 531.692 180.592L531.836 177.6H537.996V186H536.86V178.256L537.148 178.592H532.572L532.844 178.24L532.716 180.672C532.684 181.397 532.625 182.091 532.54 182.752C532.465 183.413 532.343 183.995 532.172 184.496C532.012 184.997 531.788 185.392 531.5 185.68C531.212 185.957 530.844 186.096 530.396 186.096C530.268 186.096 530.135 186.085 529.996 186.064C529.868 186.043 529.729 186.016 529.58 185.984ZM544.841 180.56C545.897 180.571 546.697 180.805 547.241 181.264C547.796 181.723 548.073 182.384 548.073 183.248C548.073 184.144 547.775 184.832 547.177 185.312C546.591 185.792 545.737 186.027 544.617 186.016L541.225 186V177.6H542.361V180.528L544.841 180.56ZM544.553 185.152C545.332 185.163 545.919 185.008 546.313 184.688C546.719 184.357 546.921 183.877 546.921 183.248C546.921 182.619 546.724 182.16 546.329 181.872C545.935 181.573 545.343 181.419 544.553 181.408L542.361 181.376V185.12L544.553 185.152ZM550.241 186V177.6H551.377V181.312H556.673V177.6H557.809V186H556.673V182.288H551.377V186H550.241ZM569.23 186V177.6H570.366V186H569.23ZM564.574 180.56C565.63 180.571 566.435 180.805 566.99 181.264C567.545 181.723 567.822 182.384 567.822 183.248C567.822 184.144 567.523 184.832 566.926 185.312C566.329 185.792 565.475 186.027 564.366 186.016L561.038 186V177.6H562.174V180.528L564.574 180.56ZM564.286 185.152C565.075 185.163 565.667 185.008 566.062 184.688C566.467 184.357 566.67 183.877 566.67 183.248C566.67 182.619 566.473 182.16 566.078 181.872C565.683 181.573 565.086 181.419 564.286 181.408L562.174 181.376V185.12L564.286 185.152ZM573.6 186V177.6H574.752L578.56 184.048H578.08L581.952 177.6H583.008V186H581.968V178.896L582.176 178.992L578.56 184.976H578.048L574.4 178.928L574.64 178.88V186H573.6ZM588.893 185.984L588.973 185.008C589.047 185.019 589.117 185.035 589.181 185.056C589.255 185.067 589.319 185.072 589.373 185.072C589.714 185.072 589.986 184.944 590.189 184.688C590.402 184.432 590.562 184.091 590.669 183.664C590.775 183.237 590.85 182.757 590.893 182.224C590.935 181.68 590.973 181.136 591.005 180.592L591.149 177.6H597.309V186H596.173V178.256L596.461 178.592H591.885L592.157 178.24L592.029 180.672C591.997 181.397 591.938 182.091 591.853 182.752C591.778 183.413 591.655 183.995 591.485 184.496C591.325 184.997 591.101 185.392 590.812 185.68C590.525 185.957 590.157 186.096 589.709 186.096C589.581 186.096 589.447 186.085 589.309 186.064C589.181 186.043 589.042 186.016 588.893 185.984ZM604.138 186.08C603.263 186.08 602.495 185.899 601.834 185.536C601.173 185.163 600.655 184.656 600.282 184.016C599.909 183.365 599.722 182.624 599.722 181.792C599.722 180.96 599.898 180.224 600.25 179.584C600.613 178.944 601.103 178.443 601.722 178.08C602.351 177.707 603.055 177.52 603.834 177.52C604.623 177.52 605.322 177.701 605.93 178.064C606.549 178.416 607.034 178.917 607.386 179.568C607.738 180.208 607.914 180.949 607.914 181.792C607.914 181.845 607.909 181.904 607.898 181.968C607.898 182.021 607.898 182.08 607.898 182.144H600.586V181.296H607.29L606.842 181.632C606.842 181.024 606.709 180.485 606.442 180.016C606.186 179.536 605.834 179.163 605.386 178.896C604.938 178.629 604.421 178.496 603.834 178.496C603.258 178.496 602.741 178.629 602.282 178.896C601.823 179.163 601.466 179.536 601.21 180.016C600.954 180.496 600.826 181.045 600.826 181.664V181.84C600.826 182.48 600.965 183.045 601.242 183.536C601.53 184.016 601.925 184.395 602.426 184.672C602.938 184.939 603.519 185.072 604.17 185.072C604.682 185.072 605.157 184.981 605.594 184.8C606.042 184.619 606.426 184.341 606.746 183.968L607.386 184.704C607.013 185.152 606.543 185.493 605.978 185.728C605.423 185.963 604.81 186.08 604.138 186.08ZM616.589 186L613.133 181.84L614.077 181.28L617.933 186H616.589ZM610.429 186V177.6H611.565V186H610.429ZM611.213 182.256V181.28H613.917V182.256H611.213ZM614.173 181.92L613.117 181.76L616.461 177.6H617.693L614.173 181.92ZM624.785 186V184.144L624.737 183.84V180.736C624.737 180.021 624.534 179.472 624.129 179.088C623.734 178.704 623.142 178.512 622.353 178.512C621.809 178.512 621.292 178.603 620.801 178.784C620.31 178.965 619.894 179.205 619.553 179.504L619.041 178.656C619.468 178.293 619.98 178.016 620.577 177.824C621.174 177.621 621.804 177.52 622.465 177.52C623.553 177.52 624.39 177.792 624.977 178.336C625.574 178.869 625.873 179.685 625.873 180.784V186H624.785ZM621.889 186.08C621.26 186.08 620.71 185.979 620.241 185.776C619.782 185.563 619.43 185.275 619.185 184.912C618.94 184.539 618.817 184.112 618.817 183.632C618.817 183.195 618.918 182.8 619.121 182.448C619.334 182.085 619.676 181.797 620.145 181.584C620.625 181.36 621.265 181.248 622.065 181.248H624.961V182.096H622.097C621.286 182.096 620.721 182.24 620.401 182.528C620.092 182.816 619.937 183.173 619.937 183.6C619.937 184.08 620.124 184.464 620.497 184.752C620.87 185.04 621.393 185.184 622.065 185.184C622.705 185.184 623.254 185.04 623.713 184.752C624.182 184.453 624.524 184.027 624.737 183.472L624.993 184.256C624.78 184.811 624.406 185.253 623.873 185.584C623.35 185.915 622.689 186.08 621.889 186.08ZM627.361 185.984L627.441 185.008C627.516 185.019 627.585 185.035 627.649 185.056C627.724 185.067 627.788 185.072 627.841 185.072C628.183 185.072 628.455 184.944 628.657 184.688C628.871 184.432 629.031 184.091 629.137 183.664C629.244 183.237 629.319 182.757 629.361 182.224C629.404 181.68 629.441 181.136 629.473 180.592L629.617 177.6H635.777V186H634.641V178.256L634.929 178.592H630.353L630.625 178.24L630.497 180.672C630.465 181.397 630.407 182.091 630.321 182.752C630.247 183.413 630.124 183.995 629.953 184.496C629.793 184.997 629.569 185.392 629.281 185.68C628.993 185.957 628.625 186.096 628.177 186.096C628.049 186.096 627.916 186.085 627.777 186.064C627.649 186.043 627.511 186.016 627.361 185.984ZM644.223 186V184.144L644.175 183.84V180.736C644.175 180.021 643.972 179.472 643.567 179.088C643.172 178.704 642.58 178.512 641.791 178.512C641.247 178.512 640.729 178.603 640.239 178.784C639.748 178.965 639.332 179.205 638.991 179.504L638.479 178.656C638.905 178.293 639.417 178.016 640.015 177.824C640.612 177.621 641.241 177.52 641.903 177.52C642.991 177.52 643.828 177.792 644.415 178.336C645.012 178.869 645.311 179.685 645.311 180.784V186H644.223ZM641.327 186.08C640.697 186.08 640.148 185.979 639.679 185.776C639.22 185.563 638.868 185.275 638.623 184.912C638.377 184.539 638.255 184.112 638.255 183.632C638.255 183.195 638.356 182.8 638.559 182.448C638.772 182.085 639.113 181.797 639.583 181.584C640.063 181.36 640.703 181.248 641.503 181.248H644.399V182.096H641.535C640.724 182.096 640.159 182.24 639.839 182.528C639.529 182.816 639.375 183.173 639.375 183.6C639.375 184.08 639.561 184.464 639.935 184.752C640.308 185.04 640.831 185.184 641.503 185.184C642.143 185.184 642.692 185.04 643.151 184.752C643.62 184.453 643.961 184.027 644.175 183.472L644.431 184.256C644.217 184.811 643.844 185.253 643.311 185.584C642.788 185.915 642.127 186.08 641.327 186.08ZM648.335 186V177.6H649.487L653.295 184.048H652.815L656.687 177.6H657.743V186H656.703V178.896L656.911 178.992L653.295 184.976H652.783L649.135 178.928L649.375 178.88V186H648.335ZM660.255 188.336L660.959 185.376L661.087 186.064C660.842 186.064 660.634 185.984 660.463 185.824C660.303 185.664 660.223 185.456 660.223 185.2C660.223 184.944 660.303 184.736 660.463 184.576C660.634 184.416 660.837 184.336 661.071 184.336C661.317 184.336 661.514 184.421 661.663 184.592C661.823 184.763 661.903 184.965 661.903 185.2C661.903 185.285 661.898 185.371 661.887 185.456C661.877 185.541 661.855 185.637 661.823 185.744C661.791 185.851 661.749 185.979 661.695 186.128L661.023 188.336H660.255ZM5.136 210.08C4.304 210.08 3.55733 209.899 2.896 209.536C2.24533 209.163 1.73333 208.656 1.36 208.016C0.986667 207.365 0.8 206.624 0.8 205.792C0.8 204.949 0.986667 204.208 1.36 203.568C1.73333 202.928 2.24533 202.427 2.896 202.064C3.55733 201.701 4.304 201.52 5.136 201.52C5.85067 201.52 6.496 201.659 7.072 201.936C7.648 202.213 8.10133 202.629 8.432 203.184L7.584 203.76C7.296 203.333 6.93867 203.019 6.512 202.816C6.08533 202.613 5.62133 202.512 5.12 202.512C4.52267 202.512 3.984 202.651 3.504 202.928C3.024 203.195 2.64533 203.573 2.368 204.064C2.09067 204.555 1.952 205.131 1.952 205.792C1.952 206.453 2.09067 207.029 2.368 207.52C2.64533 208.011 3.024 208.395 3.504 208.672C3.984 208.939 4.52267 209.072 5.12 209.072C5.62133 209.072 6.08533 208.971 6.512 208.768C6.93867 208.565 7.296 208.256 7.584 207.84L8.432 208.416C8.10133 208.96 7.648 209.376 7.072 209.664C6.496 209.941 5.85067 210.08 5.136 210.08ZM15.8476 210V208.144L15.7996 207.84V204.736C15.7996 204.021 15.597 203.472 15.1916 203.088C14.797 202.704 14.205 202.512 13.4156 202.512C12.8716 202.512 12.3543 202.603 11.8636 202.784C11.373 202.965 10.957 203.205 10.6156 203.504L10.1036 202.656C10.5303 202.293 11.0423 202.016 11.6396 201.824C12.237 201.621 12.8663 201.52 13.5276 201.52C14.6156 201.52 15.453 201.792 16.0396 202.336C16.637 202.869 16.9356 203.685 16.9356 204.784V210H15.8476ZM12.9516 210.08C12.3223 210.08 11.773 209.979 11.3036 209.776C10.845 209.563 10.493 209.275 10.2476 208.912C10.0023 208.539 9.87963 208.112 9.87963 207.632C9.87963 207.195 9.98096 206.8 10.1836 206.448C10.397 206.085 10.7383 205.797 11.2076 205.584C11.6876 205.36 12.3276 205.248 13.1276 205.248H16.0236V206.096H13.1596C12.349 206.096 11.7836 206.24 11.4636 206.528C11.1543 206.816 10.9996 207.173 10.9996 207.6C10.9996 208.08 11.1863 208.464 11.5596 208.752C11.933 209.04 12.4556 209.184 13.1276 209.184C13.7676 209.184 14.317 209.04 14.7756 208.752C15.245 208.453 15.5863 208.027 15.7996 207.472L16.0556 208.256C15.8423 208.811 15.469 209.253 14.9356 209.584C14.413 209.915 13.7516 210.08 12.9516 210.08ZM25.7198 209.456V202.592H21.6718L21.5758 204.464C21.5544 205.029 21.5171 205.584 21.4638 206.128C21.4211 206.672 21.3411 207.173 21.2238 207.632C21.1171 208.08 20.9624 208.448 20.7598 208.736C20.5571 209.013 20.2958 209.173 19.9758 209.216L18.8398 209.008C19.1704 209.019 19.4424 208.901 19.6558 208.656C19.8691 208.4 20.0344 208.053 20.1518 207.616C20.2691 207.179 20.3544 206.683 20.4078 206.128C20.4611 205.563 20.5038 204.987 20.5358 204.4L20.6478 201.6H26.8558V209.456H25.7198ZM18.4878 212.032V209.008H28.1678V212.032H27.0958V210H19.5598V212.032H18.4878ZM35.8056 210V206.976L36.0136 207.216H33.1656C32.0883 207.216 31.2456 206.981 30.6376 206.512C30.0296 206.043 29.7256 205.36 29.7256 204.464C29.7256 203.504 30.051 202.789 30.7016 202.32C31.3523 201.84 32.2216 201.6 33.3096 201.6H36.8456V210H35.8056ZM29.6616 210L31.9656 206.768H33.1496L30.8936 210H29.6616ZM35.8056 206.64V202.256L36.0136 202.592H33.3416C32.563 202.592 31.955 202.741 31.5176 203.04C31.091 203.339 30.8776 203.824 30.8776 204.496C30.8776 205.744 31.6723 206.368 33.2616 206.368H36.0136L35.8056 206.64ZM41.6848 210V202.288L41.9728 202.592H38.5008V201.6H46.0048V202.592H42.5328L42.8208 202.288V210H41.6848ZM50.7766 210.08C49.9446 210.08 49.198 209.899 48.5366 209.536C47.886 209.163 47.374 208.656 47.0006 208.016C46.6273 207.365 46.4406 206.624 46.4406 205.792C46.4406 204.949 46.6273 204.208 47.0006 203.568C47.374 202.928 47.886 202.427 48.5366 202.064C49.198 201.701 49.9446 201.52 50.7766 201.52C51.4913 201.52 52.1366 201.659 52.7126 201.936C53.2886 202.213 53.742 202.629 54.0726 203.184L53.2246 203.76C52.9366 203.333 52.5793 203.019 52.1526 202.816C51.726 202.613 51.262 202.512 50.7606 202.512C50.1633 202.512 49.6246 202.651 49.1446 202.928C48.6646 203.195 48.286 203.573 48.0086 204.064C47.7313 204.555 47.5926 205.131 47.5926 205.792C47.5926 206.453 47.7313 207.029 48.0086 207.52C48.286 208.011 48.6646 208.395 49.1446 208.672C49.6246 208.939 50.1633 209.072 50.7606 209.072C51.262 209.072 51.726 208.971 52.1526 208.768C52.5793 208.565 52.9366 208.256 53.2246 207.84L54.0726 208.416C53.742 208.96 53.2886 209.376 52.7126 209.664C52.1366 209.941 51.4913 210.08 50.7766 210.08ZM61.415 210V206.976L61.623 207.216H58.775C57.6977 207.216 56.855 206.981 56.247 206.512C55.639 206.043 55.335 205.36 55.335 204.464C55.335 203.504 55.6603 202.789 56.311 202.32C56.9617 201.84 57.831 201.6 58.919 201.6H62.455V210H61.415ZM55.271 210L57.575 206.768H58.759L56.503 210H55.271ZM61.415 206.64V202.256L61.623 202.592H58.951C58.1723 202.592 57.5643 202.741 57.127 203.04C56.7003 203.339 56.487 203.824 56.487 204.496C56.487 205.744 57.2817 206.368 58.871 206.368H61.623L61.415 206.64ZM73.6576 210.096C72.975 210.096 72.367 209.984 71.8336 209.76C71.311 209.536 70.863 209.195 70.4896 208.736C70.1163 208.277 69.8336 207.712 69.6416 207.04C69.4496 206.357 69.3536 205.568 69.3536 204.672C69.3536 203.872 69.4283 203.173 69.5776 202.576C69.727 201.968 69.935 201.445 70.2016 201.008C70.4683 200.571 70.7776 200.203 71.1296 199.904C71.4923 199.595 71.8816 199.349 72.2976 199.168C72.7243 198.976 73.1616 198.832 73.6096 198.736L77.3856 197.856L77.5776 198.912L74.0256 199.712C73.8016 199.765 73.5296 199.84 73.2096 199.936C72.9003 200.032 72.5803 200.176 72.2496 200.368C71.9296 200.56 71.631 200.827 71.3536 201.168C71.0763 201.509 70.8523 201.952 70.6816 202.496C70.5216 203.029 70.4416 203.696 70.4416 204.496C70.4416 204.667 70.447 204.805 70.4576 204.912C70.4683 205.008 70.479 205.115 70.4896 205.232C70.511 205.339 70.527 205.499 70.5376 205.712L70.0416 205.296C70.159 204.645 70.399 204.08 70.7616 203.6C71.1243 203.109 71.5776 202.731 72.1216 202.464C72.6763 202.187 73.2896 202.048 73.9616 202.048C74.7403 202.048 75.4336 202.219 76.0416 202.56C76.6496 202.891 77.1243 203.355 77.4656 203.952C77.8176 204.549 77.9936 205.243 77.9936 206.032C77.9936 206.811 77.8123 207.509 77.4496 208.128C77.0976 208.747 76.5963 209.232 75.9456 209.584C75.295 209.925 74.5323 210.096 73.6576 210.096ZM73.7856 209.152C74.383 209.152 74.911 209.019 75.3696 208.752C75.8283 208.475 76.1856 208.101 76.4416 207.632C76.7083 207.163 76.8416 206.635 76.8416 206.048C76.8416 205.472 76.7083 204.96 76.4416 204.512C76.1856 204.064 75.8283 203.712 75.3696 203.456C74.911 203.189 74.3776 203.056 73.7696 203.056C73.1723 203.056 72.6443 203.184 72.1856 203.44C71.727 203.685 71.3643 204.032 71.0976 204.48C70.8416 204.928 70.7136 205.445 70.7136 206.032C70.7136 206.619 70.8416 207.147 71.0976 207.616C71.3643 208.085 71.727 208.459 72.1856 208.736C72.655 209.013 73.1883 209.152 73.7856 209.152ZM84.0285 210.08C83.1538 210.08 82.3858 209.899 81.7245 209.536C81.0632 209.163 80.5458 208.656 80.1725 208.016C79.7992 207.365 79.6125 206.624 79.6125 205.792C79.6125 204.96 79.7885 204.224 80.1405 203.584C80.5032 202.944 80.9938 202.443 81.6125 202.08C82.2418 201.707 82.9458 201.52 83.7245 201.52C84.5138 201.52 85.2125 201.701 85.8205 202.064C86.4392 202.416 86.9245 202.917 87.2765 203.568C87.6285 204.208 87.8045 204.949 87.8045 205.792C87.8045 205.845 87.7992 205.904 87.7885 205.968C87.7885 206.021 87.7885 206.08 87.7885 206.144H80.4765V205.296H87.1805L86.7325 205.632C86.7325 205.024 86.5992 204.485 86.3325 204.016C86.0765 203.536 85.7245 203.163 85.2765 202.896C84.8285 202.629 84.3112 202.496 83.7245 202.496C83.1485 202.496 82.6312 202.629 82.1725 202.896C81.7138 203.163 81.3565 203.536 81.1005 204.016C80.8445 204.496 80.7165 205.045 80.7165 205.664V205.84C80.7165 206.48 80.8552 207.045 81.1325 207.536C81.4205 208.016 81.8152 208.395 82.3165 208.672C82.8285 208.939 83.4098 209.072 84.0605 209.072C84.5725 209.072 85.0472 208.981 85.4845 208.8C85.9325 208.619 86.3165 208.341 86.6365 207.968L87.2765 208.704C86.9032 209.152 86.4338 209.493 85.8685 209.728C85.3138 209.963 84.7005 210.08 84.0285 210.08ZM92.3408 210.096C91.7328 210.096 91.1301 210.011 90.5328 209.84C89.9354 209.669 89.4074 209.408 88.9488 209.056L89.3168 208.208C89.7221 208.507 90.1914 208.736 90.7248 208.896C91.2581 209.045 91.7861 209.12 92.3088 209.12C92.8314 209.109 93.2848 209.035 93.6688 208.896C94.0528 208.757 94.3514 208.565 94.5648 208.32C94.7781 208.075 94.8848 207.797 94.8848 207.488C94.8848 207.04 94.6821 206.693 94.2768 206.448C93.8714 206.192 93.3168 206.064 92.6128 206.064H91.1728V205.232H92.5328C92.9488 205.232 93.3168 205.179 93.6368 205.072C93.9568 204.965 94.2021 204.811 94.3728 204.608C94.5541 204.405 94.6448 204.165 94.6448 203.888C94.6448 203.589 94.5381 203.333 94.3248 203.12C94.1221 202.907 93.8394 202.747 93.4768 202.64C93.1141 202.533 92.7034 202.48 92.2448 202.48C91.8288 202.491 91.3968 202.555 90.9488 202.672C90.5008 202.779 90.0581 202.944 89.6208 203.168L89.3008 202.288C89.7914 202.032 90.2768 201.84 90.7568 201.712C91.2474 201.573 91.7381 201.504 92.2288 201.504C92.9008 201.483 93.5034 201.563 94.0368 201.744C94.5808 201.925 95.0128 202.187 95.3328 202.528C95.6528 202.859 95.8128 203.259 95.8128 203.728C95.8128 204.144 95.6848 204.507 95.4288 204.816C95.1728 205.125 94.8314 205.365 94.4048 205.536C93.9781 205.707 93.4928 205.792 92.9488 205.792L92.9968 205.488C93.9568 205.488 94.7034 205.675 95.2368 206.048C95.7808 206.421 96.0528 206.928 96.0528 207.568C96.0528 208.069 95.8874 208.512 95.5568 208.896C95.2261 209.269 94.7781 209.563 94.2128 209.776C93.6581 209.989 93.0341 210.096 92.3408 210.096ZM106.339 210.08C105.507 210.08 104.76 209.899 104.099 209.536C103.448 209.163 102.936 208.656 102.563 208.016C102.19 207.365 102.003 206.624 102.003 205.792C102.003 204.949 102.19 204.208 102.563 203.568C102.936 202.928 103.448 202.427 104.099 202.064C104.76 201.701 105.507 201.52 106.339 201.52C107.054 201.52 107.699 201.659 108.275 201.936C108.851 202.213 109.304 202.629 109.635 203.184L108.787 203.76C108.499 203.333 108.142 203.019 107.715 202.816C107.288 202.613 106.824 202.512 106.323 202.512C105.726 202.512 105.187 202.651 104.707 202.928C104.227 203.195 103.848 203.573 103.571 204.064C103.294 204.555 103.155 205.131 103.155 205.792C103.155 206.453 103.294 207.029 103.571 207.52C103.848 208.011 104.227 208.395 104.707 208.672C105.187 208.939 105.726 209.072 106.323 209.072C106.824 209.072 107.288 208.971 107.715 208.768C108.142 208.565 108.499 208.256 108.787 207.84L109.635 208.416C109.304 208.96 108.851 209.376 108.275 209.664C107.699 209.941 107.054 210.08 106.339 210.08ZM117.995 210L114.539 205.84L115.483 205.28L119.339 210H117.995ZM111.835 210V201.6H112.971V210H111.835ZM112.619 206.256V205.28H115.323V206.256H112.619ZM115.579 205.92L114.523 205.76L117.867 201.6H119.099L115.579 205.92ZM119.596 209.984L119.676 209.008C119.75 209.019 119.82 209.035 119.884 209.056C119.958 209.067 120.022 209.072 120.076 209.072C120.417 209.072 120.689 208.944 120.892 208.688C121.105 208.432 121.265 208.091 121.372 207.664C121.478 207.237 121.553 206.757 121.596 206.224C121.638 205.68 121.676 205.136 121.708 204.592L121.852 201.6H128.012V210H126.876V202.256L127.164 202.592H122.588L122.86 202.24L122.732 204.672C122.7 205.397 122.641 206.091 122.556 206.752C122.481 207.413 122.358 207.995 122.188 208.496C122.028 208.997 121.804 209.392 121.516 209.68C121.228 209.957 120.86 210.096 120.412 210.096C120.284 210.096 120.15 210.085 120.012 210.064C119.884 210.043 119.745 210.016 119.596 209.984ZM136.457 210V208.144L136.409 207.84V204.736C136.409 204.021 136.206 203.472 135.801 203.088C135.406 202.704 134.814 202.512 134.025 202.512C133.481 202.512 132.964 202.603 132.473 202.784C131.982 202.965 131.566 203.205 131.225 203.504L130.713 202.656C131.14 202.293 131.652 202.016 132.249 201.824C132.846 201.621 133.476 201.52 134.137 201.52C135.225 201.52 136.062 201.792 136.649 202.336C137.246 202.869 137.545 203.685 137.545 204.784V210H136.457ZM133.561 210.08C132.932 210.08 132.382 209.979 131.913 209.776C131.454 209.563 131.102 209.275 130.857 208.912C130.612 208.539 130.489 208.112 130.489 207.632C130.489 207.195 130.59 206.8 130.793 206.448C131.006 206.085 131.348 205.797 131.817 205.584C132.297 205.36 132.937 205.248 133.737 205.248H136.633V206.096H133.769C132.958 206.096 132.393 206.24 132.073 206.528C131.764 206.816 131.609 207.173 131.609 207.6C131.609 208.08 131.796 208.464 132.169 208.752C132.542 209.04 133.065 209.184 133.737 209.184C134.377 209.184 134.926 209.04 135.385 208.752C135.854 208.453 136.196 208.027 136.409 207.472L136.665 208.256C136.452 208.811 136.078 209.253 135.545 209.584C135.022 209.915 134.361 210.08 133.561 210.08ZM146.329 209.456V202.592H142.281L142.185 204.464C142.164 205.029 142.126 205.584 142.073 206.128C142.03 206.672 141.95 207.173 141.833 207.632C141.726 208.08 141.572 208.448 141.369 208.736C141.166 209.013 140.905 209.173 140.585 209.216L139.449 209.008C139.78 209.019 140.052 208.901 140.265 208.656C140.478 208.4 140.644 208.053 140.761 207.616C140.878 207.179 140.964 206.683 141.017 206.128C141.07 205.563 141.113 204.987 141.145 204.4L141.257 201.6H147.465V209.456H146.329ZM139.097 212.032V209.008H148.777V212.032H147.705V210H140.169V212.032H139.097ZM154.447 210.08C153.636 210.08 152.906 209.899 152.255 209.536C151.615 209.163 151.108 208.656 150.735 208.016C150.362 207.365 150.175 206.624 150.175 205.792C150.175 204.949 150.362 204.208 150.735 203.568C151.108 202.928 151.615 202.427 152.255 202.064C152.895 201.701 153.626 201.52 154.447 201.52C155.279 201.52 156.015 201.701 156.655 202.064C157.306 202.427 157.812 202.928 158.175 203.568C158.548 204.208 158.735 204.949 158.735 205.792C158.735 206.624 158.548 207.365 158.175 208.016C157.812 208.656 157.306 209.163 156.655 209.536C156.004 209.899 155.268 210.08 154.447 210.08ZM154.447 209.072C155.055 209.072 155.594 208.939 156.063 208.672C156.532 208.395 156.9 208.011 157.167 207.52C157.444 207.019 157.583 206.443 157.583 205.792C157.583 205.131 157.444 204.555 157.167 204.064C156.9 203.573 156.532 203.195 156.063 202.928C155.594 202.651 155.06 202.512 154.463 202.512C153.866 202.512 153.332 202.651 152.863 202.928C152.394 203.195 152.02 203.573 151.743 204.064C151.466 204.555 151.327 205.131 151.327 205.792C151.327 206.443 151.466 207.019 151.743 207.52C152.02 208.011 152.394 208.395 152.863 208.672C153.332 208.939 153.86 209.072 154.447 209.072ZM167.323 210L163.867 205.84L164.811 205.28L168.667 210H167.323ZM161.163 210V201.6H162.299V210H161.163ZM161.947 206.256V205.28H164.651V206.256H161.947ZM164.907 205.92L163.851 205.76L167.195 201.6H168.427L164.907 205.92ZM174.647 210V201.6H175.783V208.272L181.399 201.6H182.407V210H181.271V203.312L175.671 210H174.647ZM189.85 210V201.6H195.802V202.592H190.698L190.986 202.304V210H189.85ZM200.51 210.08C199.699 210.08 198.968 209.899 198.318 209.536C197.678 209.163 197.171 208.656 196.798 208.016C196.424 207.365 196.238 206.624 196.238 205.792C196.238 204.949 196.424 204.208 196.798 203.568C197.171 202.928 197.678 202.427 198.318 202.064C198.958 201.701 199.688 201.52 200.51 201.52C201.342 201.52 202.078 201.701 202.718 202.064C203.368 202.427 203.875 202.928 204.238 203.568C204.611 204.208 204.798 204.949 204.798 205.792C204.798 206.624 204.611 207.365 204.238 208.016C203.875 208.656 203.368 209.163 202.718 209.536C202.067 209.899 201.331 210.08 200.51 210.08ZM200.51 209.072C201.118 209.072 201.656 208.939 202.126 208.672C202.595 208.395 202.963 208.011 203.23 207.52C203.507 207.019 203.646 206.443 203.646 205.792C203.646 205.131 203.507 204.555 203.23 204.064C202.963 203.573 202.595 203.195 202.126 202.928C201.656 202.651 201.123 202.512 200.526 202.512C199.928 202.512 199.395 202.651 198.926 202.928C198.456 203.195 198.083 203.573 197.806 204.064C197.528 204.555 197.39 205.131 197.39 205.792C197.39 206.443 197.528 207.019 197.806 207.52C198.083 208.011 198.456 208.395 198.926 208.672C199.395 208.939 199.923 209.072 200.51 209.072ZM208.513 210V202.288L208.801 202.592H205.329V201.6H212.833V202.592H209.361L209.649 202.288V210H208.513ZM217.541 210.08C216.73 210.08 215.999 209.899 215.349 209.536C214.709 209.163 214.202 208.656 213.829 208.016C213.455 207.365 213.269 206.624 213.269 205.792C213.269 204.949 213.455 204.208 213.829 203.568C214.202 202.928 214.709 202.427 215.349 202.064C215.989 201.701 216.719 201.52 217.541 201.52C218.373 201.52 219.109 201.701 219.749 202.064C220.399 202.427 220.906 202.928 221.269 203.568C221.642 204.208 221.829 204.949 221.829 205.792C221.829 206.624 221.642 207.365 221.269 208.016C220.906 208.656 220.399 209.163 219.749 209.536C219.098 209.899 218.362 210.08 217.541 210.08ZM217.541 209.072C218.149 209.072 218.687 208.939 219.157 208.672C219.626 208.395 219.994 208.011 220.261 207.52C220.538 207.019 220.677 206.443 220.677 205.792C220.677 205.131 220.538 204.555 220.261 204.064C219.994 203.573 219.626 203.195 219.157 202.928C218.687 202.651 218.154 202.512 217.557 202.512C216.959 202.512 216.426 202.651 215.957 202.928C215.487 203.195 215.114 203.573 214.837 204.064C214.559 204.555 214.421 205.131 214.421 205.792C214.421 206.443 214.559 207.019 214.837 207.52C215.114 208.011 215.487 208.395 215.957 208.672C216.426 208.939 216.954 209.072 217.541 209.072ZM224.257 210V201.6H227.969C228.918 201.6 229.665 201.781 230.209 202.144C230.763 202.507 231.041 203.04 231.041 203.744C231.041 204.427 230.779 204.955 230.257 205.328C229.734 205.691 229.046 205.872 228.193 205.872L228.417 205.536C229.419 205.536 230.155 205.723 230.625 206.096C231.094 206.469 231.329 207.008 231.329 207.712C231.329 208.437 231.062 209.003 230.529 209.408C230.006 209.803 229.19 210 228.081 210H224.257ZM225.361 209.104H228.033C228.747 209.104 229.286 208.992 229.649 208.768C230.022 208.533 230.209 208.16 230.209 207.648C230.209 207.136 230.043 206.763 229.713 206.528C229.382 206.293 228.859 206.176 228.145 206.176H225.361V209.104ZM225.361 205.328H227.889C228.539 205.328 229.035 205.205 229.377 204.96C229.729 204.715 229.905 204.357 229.905 203.888C229.905 203.419 229.729 203.067 229.377 202.832C229.035 202.597 228.539 202.48 227.889 202.48H225.361V205.328ZM242.183 210V201.6H243.319V210H242.183ZM237.527 204.56C238.583 204.571 239.388 204.805 239.943 205.264C240.498 205.723 240.775 206.384 240.775 207.248C240.775 208.144 240.476 208.832 239.879 209.312C239.282 209.792 238.428 210.027 237.319 210.016L233.991 210V201.6H235.127V204.528L237.527 204.56ZM237.239 209.152C238.028 209.163 238.62 209.008 239.015 208.688C239.42 208.357 239.623 207.877 239.623 207.248C239.623 206.619 239.426 206.16 239.031 205.872C238.636 205.573 238.039 205.419 237.239 205.408L235.127 205.376V209.12L237.239 209.152ZM256.901 210L253.445 205.84L254.389 205.28L258.245 210H256.901ZM250.741 210V201.6H251.877V210H250.741ZM251.525 206.256V205.28H254.229V206.256H251.525ZM254.485 205.92L253.429 205.76L256.773 201.6H258.005L254.485 205.92ZM267.681 210.08C266.871 210.08 266.14 209.899 265.489 209.536C264.849 209.163 264.343 208.656 263.969 208.016C263.596 207.365 263.409 206.624 263.409 205.792C263.409 204.949 263.596 204.208 263.969 203.568C264.343 202.928 264.849 202.427 265.489 202.064C266.129 201.701 266.86 201.52 267.681 201.52C268.513 201.52 269.249 201.701 269.889 202.064C270.54 202.427 271.047 202.928 271.409 203.568C271.783 204.208 271.969 204.949 271.969 205.792C271.969 206.624 271.783 207.365 271.409 208.016C271.047 208.656 270.54 209.163 269.889 209.536C269.239 209.899 268.503 210.08 267.681 210.08ZM267.681 209.072C268.289 209.072 268.828 208.939 269.297 208.672C269.767 208.395 270.135 208.011 270.401 207.52C270.679 207.019 270.817 206.443 270.817 205.792C270.817 205.131 270.679 204.555 270.401 204.064C270.135 203.573 269.767 203.195 269.297 202.928C268.828 202.651 268.295 202.512 267.697 202.512C267.1 202.512 266.567 202.651 266.097 202.928C265.628 203.195 265.255 203.573 264.977 204.064C264.7 204.555 264.561 205.131 264.561 205.792C264.561 206.443 264.7 207.019 264.977 207.52C265.255 208.011 265.628 208.395 266.097 208.672C266.567 208.939 267.095 209.072 267.681 209.072ZM275.685 210V202.288L275.973 202.592H272.501V201.6H280.005V202.592H276.533L276.821 202.288V210H275.685ZM281.647 210V201.6H289.199V210H288.063V202.288L288.351 202.592H282.495L282.783 202.288V210H281.647ZM296.765 210.08C296.039 210.08 295.383 209.915 294.797 209.584C294.21 209.243 293.741 208.757 293.389 208.128C293.047 207.488 292.877 206.709 292.877 205.792C292.877 204.875 293.047 204.101 293.389 203.472C293.73 202.832 294.194 202.347 294.781 202.016C295.367 201.685 296.029 201.52 296.765 201.52C297.565 201.52 298.279 201.701 298.909 202.064C299.549 202.416 300.05 202.917 300.413 203.568C300.775 204.208 300.957 204.949 300.957 205.792C300.957 206.645 300.775 207.392 300.413 208.032C300.05 208.672 299.549 209.173 298.909 209.536C298.279 209.899 297.565 210.08 296.765 210.08ZM292.429 213.104V201.6H293.517V204.128L293.405 205.808L293.565 207.504V213.104H292.429ZM296.685 209.072C297.282 209.072 297.815 208.939 298.285 208.672C298.754 208.395 299.127 208.011 299.405 207.52C299.682 207.019 299.821 206.443 299.821 205.792C299.821 205.141 299.682 204.571 299.405 204.08C299.127 203.589 298.754 203.205 298.285 202.928C297.815 202.651 297.282 202.512 296.685 202.512C296.087 202.512 295.549 202.651 295.069 202.928C294.599 203.205 294.226 203.589 293.949 204.08C293.682 204.571 293.549 205.141 293.549 205.792C293.549 206.443 293.682 207.019 293.949 207.52C294.226 208.011 294.599 208.395 295.069 208.672C295.549 208.939 296.087 209.072 296.685 209.072ZM308.566 210V208.144L308.518 207.84V204.736C308.518 204.021 308.316 203.472 307.91 203.088C307.516 202.704 306.924 202.512 306.134 202.512C305.59 202.512 305.073 202.603 304.582 202.784C304.092 202.965 303.676 203.205 303.334 203.504L302.822 202.656C303.249 202.293 303.761 202.016 304.358 201.824C304.956 201.621 305.585 201.52 306.246 201.52C307.334 201.52 308.172 201.792 308.758 202.336C309.356 202.869 309.654 203.685 309.654 204.784V210H308.566ZM305.67 210.08C305.041 210.08 304.492 209.979 304.022 209.776C303.564 209.563 303.212 209.275 302.966 208.912C302.721 208.539 302.598 208.112 302.598 207.632C302.598 207.195 302.7 206.8 302.902 206.448C303.116 206.085 303.457 205.797 303.926 205.584C304.406 205.36 305.046 205.248 305.846 205.248H308.742V206.096H305.878C305.068 206.096 304.502 206.24 304.182 206.528C303.873 206.816 303.718 207.173 303.718 207.6C303.718 208.08 303.905 208.464 304.278 208.752C304.652 209.04 305.174 209.184 305.846 209.184C306.486 209.184 307.036 209.04 307.494 208.752C307.964 208.453 308.305 208.027 308.518 207.472L308.774 208.256C308.561 208.811 308.188 209.253 307.654 209.584C307.132 209.915 306.47 210.08 305.67 210.08ZM312.679 210V201.6H316.391C317.34 201.6 318.087 201.781 318.631 202.144C319.185 202.507 319.463 203.04 319.463 203.744C319.463 204.427 319.201 204.955 318.679 205.328C318.156 205.691 317.468 205.872 316.615 205.872L316.839 205.536C317.841 205.536 318.577 205.723 319.047 206.096C319.516 206.469 319.751 207.008 319.751 207.712C319.751 208.437 319.484 209.003 318.951 209.408C318.428 209.803 317.612 210 316.503 210H312.679ZM313.783 209.104H316.455C317.169 209.104 317.708 208.992 318.071 208.768C318.444 208.533 318.631 208.16 318.631 207.648C318.631 207.136 318.465 206.763 318.135 206.528C317.804 206.293 317.281 206.176 316.567 206.176H313.783V209.104ZM313.783 205.328H316.311C316.961 205.328 317.457 205.205 317.799 204.96C318.151 204.715 318.327 204.357 318.327 203.888C318.327 203.419 318.151 203.067 317.799 202.832C317.457 202.597 316.961 202.48 316.311 202.48H313.783V205.328ZM328.573 210L325.117 205.84L326.061 205.28L329.917 210H328.573ZM322.413 210V201.6H323.549V210H322.413ZM323.197 206.256V205.28H325.901V206.256H323.197ZM326.157 205.92L325.101 205.76L328.445 201.6H329.677L326.157 205.92ZM335.013 210.08C334.138 210.08 333.37 209.899 332.709 209.536C332.048 209.163 331.53 208.656 331.157 208.016C330.784 207.365 330.597 206.624 330.597 205.792C330.597 204.96 330.773 204.224 331.125 203.584C331.488 202.944 331.978 202.443 332.597 202.08C333.226 201.707 333.93 201.52 334.709 201.52C335.498 201.52 336.197 201.701 336.805 202.064C337.424 202.416 337.909 202.917 338.261 203.568C338.613 204.208 338.789 204.949 338.789 205.792C338.789 205.845 338.784 205.904 338.773 205.968C338.773 206.021 338.773 206.08 338.773 206.144H331.461V205.296H338.165L337.717 205.632C337.717 205.024 337.584 204.485 337.317 204.016C337.061 203.536 336.709 203.163 336.261 202.896C335.813 202.629 335.296 202.496 334.709 202.496C334.133 202.496 333.616 202.629 333.157 202.896C332.698 203.163 332.341 203.536 332.085 204.016C331.829 204.496 331.701 205.045 331.701 205.664V205.84C331.701 206.48 331.84 207.045 332.117 207.536C332.405 208.016 332.8 208.395 333.301 208.672C333.813 208.939 334.394 209.072 335.045 209.072C335.557 209.072 336.032 208.981 336.469 208.8C336.917 208.619 337.301 208.341 337.621 207.968L338.261 208.704C337.888 209.152 337.418 209.493 336.853 209.728C336.298 209.963 335.685 210.08 335.013 210.08ZM345.635 213.184C345.24 213.184 344.862 213.12 344.499 212.992C344.147 212.864 343.843 212.672 343.587 212.416L344.115 211.568C344.328 211.771 344.558 211.925 344.803 212.032C345.059 212.149 345.342 212.208 345.651 212.208C346.024 212.208 346.344 212.101 346.611 211.888C346.888 211.685 347.15 211.323 347.395 210.8L347.939 209.568L348.067 209.392L351.523 201.6H352.643L348.435 211.008C348.2 211.552 347.939 211.984 347.651 212.304C347.374 212.624 347.07 212.848 346.739 212.976C346.408 213.115 346.04 213.184 345.635 213.184ZM347.875 210.24L344.003 201.6H345.187L348.611 209.312L347.875 210.24ZM363.897 210L361.017 205.84L361.961 205.28L365.257 210H363.897ZM359.129 206.256V205.28H361.785V206.256H359.129ZM362.073 205.92L360.985 205.76L363.785 201.6H365.017L362.073 205.92ZM353.945 210H352.585L355.881 205.28L356.809 205.84L353.945 210ZM359.481 210H358.345V201.6H359.481V210ZM358.697 206.256H356.057V205.28H358.697V206.256ZM355.785 205.92L352.825 201.6H354.057L356.841 205.76L355.785 205.92ZM370.45 210.08C369.576 210.08 368.808 209.899 368.146 209.536C367.485 209.163 366.968 208.656 366.594 208.016C366.221 207.365 366.034 206.624 366.034 205.792C366.034 204.96 366.21 204.224 366.562 203.584C366.925 202.944 367.416 202.443 368.034 202.08C368.664 201.707 369.368 201.52 370.146 201.52C370.936 201.52 371.634 201.701 372.242 202.064C372.861 202.416 373.346 202.917 373.698 203.568C374.05 204.208 374.226 204.949 374.226 205.792C374.226 205.845 374.221 205.904 374.21 205.968C374.21 206.021 374.21 206.08 374.21 206.144H366.898V205.296H373.602L373.154 205.632C373.154 205.024 373.021 204.485 372.754 204.016C372.498 203.536 372.146 203.163 371.698 202.896C371.25 202.629 370.733 202.496 370.146 202.496C369.57 202.496 369.053 202.629 368.594 202.896C368.136 203.163 367.778 203.536 367.522 204.016C367.266 204.496 367.138 205.045 367.138 205.664V205.84C367.138 206.48 367.277 207.045 367.554 207.536C367.842 208.016 368.237 208.395 368.738 208.672C369.25 208.939 369.832 209.072 370.482 209.072C370.994 209.072 371.469 208.981 371.906 208.8C372.354 208.619 372.738 208.341 373.058 207.968L373.698 208.704C373.325 209.152 372.856 209.493 372.29 209.728C371.736 209.963 371.122 210.08 370.45 210.08ZM384.449 210.08C383.617 210.08 382.87 209.899 382.209 209.536C381.558 209.163 381.046 208.656 380.673 208.016C380.299 207.365 380.113 206.624 380.113 205.792C380.113 204.949 380.299 204.208 380.673 203.568C381.046 202.928 381.558 202.427 382.209 202.064C382.87 201.701 383.617 201.52 384.449 201.52C385.163 201.52 385.809 201.659 386.385 201.936C386.961 202.213 387.414 202.629 387.745 203.184L386.897 203.76C386.609 203.333 386.251 203.019 385.825 202.816C385.398 202.613 384.934 202.512 384.433 202.512C383.835 202.512 383.297 202.651 382.817 202.928C382.337 203.195 381.958 203.573 381.681 204.064C381.403 204.555 381.265 205.131 381.265 205.792C381.265 206.453 381.403 207.029 381.681 207.52C381.958 208.011 382.337 208.395 382.817 208.672C383.297 208.939 383.835 209.072 384.433 209.072C384.934 209.072 385.398 208.971 385.825 208.768C386.251 208.565 386.609 208.256 386.897 207.84L387.745 208.416C387.414 208.96 386.961 209.376 386.385 209.664C385.809 209.941 385.163 210.08 384.449 210.08ZM393.404 210.08C392.529 210.08 391.761 209.899 391.1 209.536C390.438 209.163 389.921 208.656 389.548 208.016C389.174 207.365 388.988 206.624 388.988 205.792C388.988 204.96 389.164 204.224 389.516 203.584C389.878 202.944 390.369 202.443 390.988 202.08C391.617 201.707 392.321 201.52 393.1 201.52C393.889 201.52 394.588 201.701 395.196 202.064C395.814 202.416 396.3 202.917 396.652 203.568C397.004 204.208 397.18 204.949 397.18 205.792C397.18 205.845 397.174 205.904 397.164 205.968C397.164 206.021 397.164 206.08 397.164 206.144H389.852V205.296H396.556L396.108 205.632C396.108 205.024 395.974 204.485 395.708 204.016C395.452 203.536 395.1 203.163 394.652 202.896C394.204 202.629 393.686 202.496 393.1 202.496C392.524 202.496 392.006 202.629 391.548 202.896C391.089 203.163 390.732 203.536 390.476 204.016C390.22 204.496 390.092 205.045 390.092 205.664V205.84C390.092 206.48 390.23 207.045 390.508 207.536C390.796 208.016 391.19 208.395 391.692 208.672C392.204 208.939 392.785 209.072 393.436 209.072C393.948 209.072 394.422 208.981 394.86 208.8C395.308 208.619 395.692 208.341 396.012 207.968L396.652 208.704C396.278 209.152 395.809 209.493 395.244 209.728C394.689 209.963 394.076 210.08 393.404 210.08ZM399.694 210V201.6H405.646V202.592H400.542L400.83 202.304V210H399.694ZM410.353 210.08C409.543 210.08 408.812 209.899 408.161 209.536C407.521 209.163 407.015 208.656 406.641 208.016C406.268 207.365 406.081 206.624 406.081 205.792C406.081 204.949 406.268 204.208 406.641 203.568C407.015 202.928 407.521 202.427 408.161 202.064C408.801 201.701 409.532 201.52 410.353 201.52C411.185 201.52 411.921 201.701 412.561 202.064C413.212 202.427 413.719 202.928 414.081 203.568C414.455 204.208 414.641 204.949 414.641 205.792C414.641 206.624 414.455 207.365 414.081 208.016C413.719 208.656 413.212 209.163 412.561 209.536C411.911 209.899 411.175 210.08 410.353 210.08ZM410.353 209.072C410.961 209.072 411.5 208.939 411.969 208.672C412.439 208.395 412.807 208.011 413.073 207.52C413.351 207.019 413.489 206.443 413.489 205.792C413.489 205.131 413.351 204.555 413.073 204.064C412.807 203.573 412.439 203.195 411.969 202.928C411.5 202.651 410.967 202.512 410.369 202.512C409.772 202.512 409.239 202.651 408.769 202.928C408.3 203.195 407.927 203.573 407.649 204.064C407.372 204.555 407.233 205.131 407.233 205.792C407.233 206.443 407.372 207.019 407.649 207.52C407.927 208.011 408.3 208.395 408.769 208.672C409.239 208.939 409.767 209.072 410.353 209.072ZM422.782 209.456V202.592H418.734L418.638 204.464C418.617 205.029 418.58 205.584 418.526 206.128C418.484 206.672 418.404 207.173 418.286 207.632C418.18 208.08 418.025 208.448 417.822 208.736C417.62 209.013 417.358 209.173 417.038 209.216L415.902 209.008C416.233 209.019 416.505 208.901 416.718 208.656C416.932 208.4 417.097 208.053 417.214 207.616C417.332 207.179 417.417 206.683 417.47 206.128C417.524 205.563 417.566 204.987 417.598 204.4L417.71 201.6H423.918V209.456H422.782ZM415.55 212.032V209.008H425.23V212.032H424.158V210H416.622V212.032H415.55ZM427.444 210V201.6H428.58V205.312H433.876V201.6H435.012V210H433.876V206.288H428.58V210H427.444ZM443.665 210V206.976L443.873 207.216H441.025C439.948 207.216 439.105 206.981 438.497 206.512C437.889 206.043 437.585 205.36 437.585 204.464C437.585 203.504 437.91 202.789 438.561 202.32C439.212 201.84 440.081 201.6 441.169 201.6H444.705V210H443.665ZM437.521 210L439.825 206.768H441.009L438.753 210H437.521ZM443.665 206.64V202.256L443.873 202.592H441.201C440.422 202.592 439.814 202.741 439.377 203.04C438.95 203.339 438.737 203.824 438.737 204.496C438.737 205.744 439.532 206.368 441.121 206.368H443.873L443.665 206.64Z" fill="white"/>
</svg>
