<svg width="328" height="240" viewBox="0 0 328 240" fill="none" xmlns="http://www.w3.org/2000/svg">
<path d="M0.208 25L8.32 6.8H12.48L20.618 25H16.198L9.542 8.932H11.206L4.524 25H0.208ZM4.264 21.1L5.382 17.902H14.742L15.886 21.1H4.264ZM22.7195 25V11.012H29.8695C31.6202 11.012 32.9895 11.3327 33.9775 11.974C34.9655 12.598 35.4595 13.482 35.4595 14.626C35.4595 15.77 34.9915 16.6713 34.0555 17.33C33.1369 17.9713 31.9149 18.292 30.3895 18.292L30.8055 17.356C32.5042 17.356 33.7695 17.668 34.6015 18.292C35.4509 18.916 35.8755 19.826 35.8755 21.022C35.8755 22.2527 35.4075 23.2233 34.4715 23.934C33.5355 24.6447 32.1055 25 30.1815 25H22.7195ZM26.4375 22.244H29.8435C30.5889 22.244 31.1435 22.1227 31.5075 21.88C31.8889 21.62 32.0795 21.23 32.0795 20.71C32.0795 20.1727 31.9062 19.7827 31.5595 19.54C31.2129 19.28 30.6669 19.15 29.9215 19.15H26.4375V22.244ZM26.4375 16.758H29.5055C30.2162 16.758 30.7449 16.628 31.0915 16.368C31.4555 16.108 31.6375 15.7353 31.6375 15.25C31.6375 14.7473 31.4555 14.3747 31.0915 14.132C30.7449 13.8893 30.2162 13.768 29.5055 13.768H26.4375V16.758ZM41.8834 25V13.404L42.7934 14.34H37.1514V11.012H50.6454V14.34H45.0034L45.9134 13.404V25H41.8834ZM58.7754 25.208C57.2848 25.208 55.9588 24.896 54.7974 24.272C53.6534 23.648 52.7434 22.7987 52.0674 21.724C51.4088 20.632 51.0794 19.3927 51.0794 18.006C51.0794 16.602 51.4088 15.3627 52.0674 14.288C52.7434 13.196 53.6534 12.3467 54.7974 11.74C55.9588 11.116 57.2848 10.804 58.7754 10.804C60.2488 10.804 61.5661 11.116 62.7274 11.74C63.8888 12.3467 64.7988 13.1873 65.4574 14.262C66.1161 15.3367 66.4454 16.5847 66.4454 18.006C66.4454 19.3927 66.1161 20.632 65.4574 21.724C64.7988 22.7987 63.8888 23.648 62.7274 24.272C61.5661 24.896 60.2488 25.208 58.7754 25.208ZM58.7754 21.88C59.4514 21.88 60.0581 21.724 60.5954 21.412C61.1328 21.1 61.5574 20.658 61.8694 20.086C62.1814 19.4967 62.3374 18.8033 62.3374 18.006C62.3374 17.1913 62.1814 16.498 61.8694 15.926C61.5574 15.354 61.1328 14.912 60.5954 14.6C60.0581 14.288 59.4514 14.132 58.7754 14.132C58.0994 14.132 57.4928 14.288 56.9554 14.6C56.4181 14.912 55.9848 15.354 55.6554 15.926C55.3434 16.498 55.1874 17.1913 55.1874 18.006C55.1874 18.8033 55.3434 19.4967 55.6554 20.086C55.9848 20.658 56.4181 21.1 56.9554 21.412C57.4928 21.724 58.0994 21.88 58.7754 21.88ZM78.0492 19.644C77.4772 19.956 76.8445 20.2073 76.1512 20.398C75.4578 20.5887 74.6952 20.684 73.8632 20.684C72.0258 20.684 70.6132 20.268 69.6252 19.436C68.6372 18.5867 68.1432 17.2433 68.1432 15.406V11.012H72.1992V15.146C72.1992 16.0127 72.4245 16.6367 72.8752 17.018C73.3258 17.382 73.9585 17.564 74.7732 17.564C75.3625 17.564 75.9258 17.4947 76.4632 17.356C77.0178 17.2173 77.5465 17.018 78.0492 16.758V19.644ZM77.7632 25V11.012H81.8192V25H77.7632ZM92.5517 25.208C90.957 25.208 89.553 24.896 88.3397 24.272C87.1437 23.648 86.2163 22.7987 85.5577 21.724C84.899 20.632 84.5697 19.3927 84.5697 18.006C84.5697 16.602 84.8903 15.3627 85.5317 14.288C86.1903 13.196 87.083 12.3467 88.2097 11.74C89.3363 11.116 90.6103 10.804 92.0317 10.804C93.401 10.804 94.6317 11.0987 95.7237 11.688C96.833 12.26 97.7083 13.092 98.3497 14.184C98.991 15.2587 99.3117 16.55 99.3117 18.058C99.3117 18.214 99.303 18.396 99.2857 18.604C99.2683 18.7947 99.251 18.9767 99.2337 19.15H87.8717V16.784H97.1017L95.5417 17.486C95.5417 16.758 95.3943 16.1253 95.0997 15.588C94.805 15.0507 94.3977 14.6347 93.8777 14.34C93.3577 14.028 92.751 13.872 92.0577 13.872C91.3643 13.872 90.749 14.028 90.2117 14.34C89.6917 14.6347 89.2843 15.0593 88.9897 15.614C88.695 16.1513 88.5477 16.7927 88.5477 17.538V18.162C88.5477 18.9247 88.7123 19.6007 89.0417 20.19C89.3883 20.762 89.865 21.204 90.4717 21.516C91.0957 21.8107 91.8237 21.958 92.6557 21.958C93.401 21.958 94.051 21.8453 94.6057 21.62C95.1777 21.3947 95.6977 21.0567 96.1657 20.606L98.3237 22.946C97.6823 23.674 96.8763 24.2373 95.9057 24.636C94.935 25.0173 93.817 25.208 92.5517 25.208ZM100.168 25L106.434 16.784L106.356 19.02L100.35 11.012H104.9L108.696 16.238L106.98 16.29L110.906 11.012H115.222L109.19 18.942V16.758L115.43 25H110.828L106.85 19.436L108.54 19.67L104.588 25H100.168ZM115.659 24.974L115.867 21.646C115.971 21.6633 116.075 21.6807 116.179 21.698C116.283 21.698 116.378 21.698 116.465 21.698C116.95 21.698 117.331 21.5593 117.609 21.282C117.886 21.0047 118.094 20.632 118.233 20.164C118.371 19.6787 118.467 19.1327 118.519 18.526C118.588 17.9193 118.64 17.2867 118.675 16.628L118.883 11.012H130.843V25H126.787V13.352L127.697 14.34H121.561L122.419 13.3L122.237 16.81C122.185 18.058 122.081 19.202 121.925 20.242C121.786 21.282 121.552 22.1833 121.223 22.946C120.893 23.6913 120.451 24.272 119.897 24.688C119.342 25.0867 118.631 25.286 117.765 25.286C117.453 25.286 117.123 25.26 116.777 25.208C116.43 25.156 116.057 25.078 115.659 24.974ZM149.147 25V11.012H153.177V25H149.147ZM142.101 15.484C143.938 15.5013 145.316 15.9173 146.235 16.732C147.171 17.5293 147.639 18.6647 147.639 20.138C147.639 21.6807 147.11 22.8853 146.053 23.752C144.996 24.6013 143.496 25.026 141.555 25.026L134.743 25V11.012H138.773V15.484H142.101ZM141.191 22.14C141.971 22.1573 142.569 21.9927 142.985 21.646C143.401 21.2993 143.609 20.7793 143.609 20.086C143.609 19.3927 143.401 18.8987 142.985 18.604C142.569 18.292 141.971 18.1273 141.191 18.11L138.773 18.084V22.14H141.191ZM156.307 29.004L158.023 22.764L158.595 25.104C157.849 25.104 157.234 24.8873 156.749 24.454C156.281 24.0207 156.047 23.4227 156.047 22.66C156.047 21.8973 156.289 21.2907 156.775 20.84C157.26 20.3893 157.858 20.164 158.569 20.164C159.297 20.164 159.895 20.398 160.363 20.866C160.831 21.3167 161.065 21.9147 161.065 22.66C161.065 22.8853 161.047 23.1107 161.013 23.336C160.978 23.544 160.909 23.804 160.805 24.116C160.718 24.4107 160.571 24.792 160.363 25.26L158.881 29.004H156.307ZM11.856 57L7.176 50.37L10.478 48.42L16.64 57H11.856ZM1.95 57V43.012H6.006V57H1.95ZM4.81 51.696V48.446H9.698V51.696H4.81ZM10.868 50.474L7.072 50.058L11.986 43.012H16.302L10.868 50.474ZM24.752 57.208C23.2613 57.208 21.9353 56.896 20.774 56.272C19.63 55.648 18.72 54.7987 18.044 53.724C17.3853 52.632 17.056 51.3927 17.056 50.006C17.056 48.602 17.3853 47.3627 18.044 46.288C18.72 45.196 19.63 44.3467 20.774 43.74C21.9353 43.116 23.2613 42.804 24.752 42.804C26.2253 42.804 27.5427 43.116 28.704 43.74C29.8653 44.3467 30.7753 45.1873 31.434 46.262C32.0927 47.3367 32.422 48.5847 32.422 50.006C32.422 51.3927 32.0927 52.632 31.434 53.724C30.7753 54.7987 29.8653 55.648 28.704 56.272C27.5427 56.896 26.2253 57.208 24.752 57.208ZM24.752 53.88C25.428 53.88 26.0347 53.724 26.572 53.412C27.1093 53.1 27.534 52.658 27.846 52.086C28.158 51.4967 28.314 50.8033 28.314 50.006C28.314 49.1913 28.158 48.498 27.846 47.926C27.534 47.354 27.1093 46.912 26.572 46.6C26.0347 46.288 25.428 46.132 24.752 46.132C24.076 46.132 23.4693 46.288 22.932 46.6C22.3947 46.912 21.9613 47.354 21.632 47.926C21.32 48.498 21.164 49.1913 21.164 50.006C21.164 50.8033 21.32 51.4967 21.632 52.086C21.9613 52.658 22.3947 53.1 22.932 53.412C23.4693 53.724 24.076 53.88 24.752 53.88ZM37.6939 57V45.404L38.6039 46.34H32.9619V43.012H46.4559V46.34H40.8139L41.7239 45.404V57H37.6939ZM54.586 57.208C53.0953 57.208 51.7693 56.896 50.608 56.272C49.464 55.648 48.554 54.7987 47.878 53.724C47.2193 52.632 46.89 51.3927 46.89 50.006C46.89 48.602 47.2193 47.3627 47.878 46.288C48.554 45.196 49.464 44.3467 50.608 43.74C51.7693 43.116 53.0953 42.804 54.586 42.804C56.0593 42.804 57.3767 43.116 58.538 43.74C59.6993 44.3467 60.6093 45.1873 61.268 46.262C61.9267 47.3367 62.256 48.5847 62.256 50.006C62.256 51.3927 61.9267 52.632 61.268 53.724C60.6093 54.7987 59.6993 55.648 58.538 56.272C57.3767 56.896 56.0593 57.208 54.586 57.208ZM54.586 53.88C55.262 53.88 55.8687 53.724 56.406 53.412C56.9433 53.1 57.368 52.658 57.68 52.086C57.992 51.4967 58.148 50.8033 58.148 50.006C58.148 49.1913 57.992 48.498 57.68 47.926C57.368 47.354 56.9433 46.912 56.406 46.6C55.8687 46.288 55.262 46.132 54.586 46.132C53.91 46.132 53.3033 46.288 52.766 46.6C52.2287 46.912 51.7953 47.354 51.466 47.926C51.154 48.498 50.998 49.1913 50.998 50.006C50.998 50.8033 51.154 51.4967 51.466 52.086C51.7953 52.658 52.2287 53.1 52.766 53.412C53.3033 53.724 53.91 53.88 54.586 53.88ZM73.2877 57.208C72.109 57.208 71.0777 56.948 70.1937 56.428C69.3097 55.908 68.6164 55.1193 68.1137 54.062C67.6284 52.9873 67.3857 51.6353 67.3857 50.006C67.3857 48.3593 67.6197 47.0073 68.0877 45.95C68.5557 44.8927 69.2317 44.104 70.1157 43.584C70.9997 43.064 72.057 42.804 73.2877 42.804C74.605 42.804 75.7837 43.1073 76.8237 43.714C77.881 44.3033 78.713 45.1353 79.3197 46.21C79.9437 47.2847 80.2557 48.55 80.2557 50.006C80.2557 51.4793 79.9437 52.7533 79.3197 53.828C78.713 54.9027 77.881 55.7347 76.8237 56.324C75.7837 56.9133 74.605 57.208 73.2877 57.208ZM65.0197 62.044V43.012H68.8937V45.872L68.8157 50.032L69.0757 54.166V62.044H65.0197ZM72.5857 53.88C73.2617 53.88 73.8597 53.724 74.3797 53.412C74.917 53.1 75.3417 52.658 75.6537 52.086C75.983 51.4967 76.1477 50.8033 76.1477 50.006C76.1477 49.1913 75.983 48.498 75.6537 47.926C75.3417 47.354 74.917 46.912 74.3797 46.6C73.8597 46.288 73.2617 46.132 72.5857 46.132C71.9097 46.132 71.303 46.288 70.7657 46.6C70.2284 46.912 69.8037 47.354 69.4917 47.926C69.1797 48.498 69.0237 49.1913 69.0237 50.006C69.0237 50.8033 69.1797 51.4967 69.4917 52.086C69.8037 52.658 70.2284 53.1 70.7657 53.412C71.303 53.724 71.9097 53.88 72.5857 53.88ZM97.5024 57V43.012H101.532V57H97.5024ZM90.4564 47.484C92.2938 47.5013 93.6718 47.9173 94.5904 48.732C95.5264 49.5293 95.9944 50.6647 95.9944 52.138C95.9944 53.6807 95.4658 54.8853 94.4084 55.752C93.3511 56.6013 91.8518 57.026 89.9104 57.026L83.0984 57V43.012H87.1284V47.484H90.4564ZM89.5464 54.14C90.3264 54.1573 90.9244 53.9927 91.3404 53.646C91.7564 53.2993 91.9644 52.7793 91.9644 52.086C91.9644 51.3927 91.7564 50.8987 91.3404 50.604C90.9244 50.292 90.3264 50.1273 89.5464 50.11L87.1284 50.084V54.14H89.5464ZM112.28 57.208C110.686 57.208 109.282 56.896 108.068 56.272C106.872 55.648 105.945 54.7987 105.286 53.724C104.628 52.632 104.298 51.3927 104.298 50.006C104.298 48.602 104.619 47.3627 105.26 46.288C105.919 45.196 106.812 44.3467 107.938 43.74C109.065 43.116 110.339 42.804 111.76 42.804C113.13 42.804 114.36 43.0987 115.452 43.688C116.562 44.26 117.437 45.092 118.078 46.184C118.72 47.2587 119.04 48.55 119.04 50.058C119.04 50.214 119.032 50.396 119.014 50.604C118.997 50.7947 118.98 50.9767 118.962 51.15H107.6V48.784H116.83L115.27 49.486C115.27 48.758 115.123 48.1253 114.828 47.588C114.534 47.0507 114.126 46.6347 113.606 46.34C113.086 46.028 112.48 45.872 111.786 45.872C111.093 45.872 110.478 46.028 109.94 46.34C109.42 46.6347 109.013 47.0593 108.718 47.614C108.424 48.1513 108.276 48.7927 108.276 49.538V50.162C108.276 50.9247 108.441 51.6007 108.77 52.19C109.117 52.762 109.594 53.204 110.2 53.516C110.824 53.8107 111.552 53.958 112.384 53.958C113.13 53.958 113.78 53.8453 114.334 53.62C114.906 53.3947 115.426 53.0567 115.894 52.606L118.052 54.946C117.411 55.674 116.605 56.2373 115.634 56.636C114.664 57.0173 113.546 57.208 112.28 57.208ZM129.513 57V43.012H133.543V51.332L140.355 43.012H144.073V57H140.043V48.68L133.257 57H129.513ZM157.591 55.18V46.34H153.015L152.937 48.134C152.903 48.8793 152.859 49.59 152.807 50.266C152.755 50.942 152.651 51.5573 152.495 52.112C152.357 52.6493 152.149 53.1087 151.871 53.49C151.594 53.854 151.221 54.1053 150.753 54.244L146.749 53.672C147.252 53.672 147.659 53.5247 147.971 53.23C148.283 52.918 148.526 52.4933 148.699 51.956C148.873 51.4013 149.003 50.7773 149.089 50.084C149.176 49.3733 149.237 48.628 149.271 47.848L149.453 43.012H161.647V55.18H157.591ZM146.281 60.016V53.672H163.649V60.016H159.879V57H150.051V60.016H146.281ZM173.04 57.208C171.445 57.208 170.041 56.896 168.828 56.272C167.632 55.648 166.705 54.7987 166.046 53.724C165.387 52.632 165.058 51.3927 165.058 50.006C165.058 48.602 165.379 47.3627 166.02 46.288C166.679 45.196 167.571 44.3467 168.698 43.74C169.825 43.116 171.099 42.804 172.52 42.804C173.889 42.804 175.12 43.0987 176.212 43.688C177.321 44.26 178.197 45.092 178.838 46.184C179.479 47.2587 179.8 48.55 179.8 50.058C179.8 50.214 179.791 50.396 179.774 50.604C179.757 50.7947 179.739 50.9767 179.722 51.15H168.36V48.784H177.59L176.03 49.486C176.03 48.758 175.883 48.1253 175.588 47.588C175.293 47.0507 174.886 46.6347 174.366 46.34C173.846 46.028 173.239 45.872 172.546 45.872C171.853 45.872 171.237 46.028 170.7 46.34C170.18 46.6347 169.773 47.0593 169.478 47.614C169.183 48.1513 169.036 48.7927 169.036 49.538V50.162C169.036 50.9247 169.201 51.6007 169.53 52.19C169.877 52.762 170.353 53.204 170.96 53.516C171.584 53.8107 172.312 53.958 173.144 53.958C173.889 53.958 174.539 53.8453 175.094 53.62C175.666 53.3947 176.186 53.0567 176.654 52.606L178.812 54.946C178.171 55.674 177.365 56.2373 176.394 56.636C175.423 57.0173 174.305 57.208 173.04 57.208ZM190.9 57V54.27L190.64 53.672V48.784C190.64 47.9173 190.371 47.2413 189.834 46.756C189.314 46.2707 188.508 46.028 187.416 46.028C186.671 46.028 185.934 46.1493 185.206 46.392C184.495 46.6173 183.889 46.9293 183.386 47.328L181.93 44.494C182.693 43.9567 183.611 43.5407 184.686 43.246C185.761 42.9513 186.853 42.804 187.962 42.804C190.094 42.804 191.749 43.3067 192.928 44.312C194.107 45.3173 194.696 46.886 194.696 49.018V57H190.9ZM186.636 57.208C185.544 57.208 184.608 57.026 183.828 56.662C183.048 56.2807 182.45 55.7693 182.034 55.128C181.618 54.4867 181.41 53.7673 181.41 52.97C181.41 52.138 181.609 51.41 182.008 50.786C182.424 50.162 183.074 49.6767 183.958 49.33C184.842 48.966 185.995 48.784 187.416 48.784H191.134V51.15H187.858C186.905 51.15 186.246 51.306 185.882 51.618C185.535 51.93 185.362 52.32 185.362 52.788C185.362 53.308 185.561 53.724 185.96 54.036C186.376 54.3307 186.939 54.478 187.65 54.478C188.326 54.478 188.933 54.322 189.47 54.01C190.007 53.6807 190.397 53.204 190.64 52.58L191.264 54.452C190.969 55.3533 190.432 56.038 189.652 56.506C188.872 56.974 187.867 57.208 186.636 57.208ZM196.452 56.974L196.66 53.646C196.764 53.6633 196.868 53.6807 196.972 53.698C197.076 53.698 197.171 53.698 197.258 53.698C197.743 53.698 198.124 53.5593 198.402 53.282C198.679 53.0047 198.887 52.632 199.026 52.164C199.164 51.6787 199.26 51.1327 199.312 50.526C199.381 49.9193 199.433 49.2867 199.468 48.628L199.676 43.012H211.636V57H207.58V45.352L208.49 46.34H202.354L203.212 45.3L203.03 48.81C202.978 50.058 202.874 51.202 202.718 52.242C202.579 53.282 202.345 54.1833 202.016 54.946C201.686 55.6913 201.244 56.272 200.69 56.688C200.135 57.0867 199.424 57.286 198.558 57.286C198.246 57.286 197.916 57.26 197.57 57.208C197.223 57.156 196.85 57.078 196.452 56.974ZM223.102 47.484C224.939 47.5013 226.335 47.9173 227.288 48.732C228.259 49.5293 228.744 50.6647 228.744 52.138C228.744 53.6807 228.198 54.8853 227.106 55.752C226.014 56.6013 224.497 57.026 222.556 57.026L215.536 57V43.012H219.566V47.484H223.102ZM222.192 54.14C222.972 54.1573 223.57 53.9927 223.986 53.646C224.402 53.2993 224.61 52.7793 224.61 52.086C224.61 51.3927 224.402 50.8987 223.986 50.604C223.57 50.292 222.972 50.1273 222.192 50.11L219.566 50.084V54.14H222.192ZM231.278 57V43.012H235.308V48.472H241.392V43.012H245.448V57H241.392V51.774H235.308V57H231.278ZM255.883 57.208C254.392 57.208 253.066 56.896 251.905 56.272C250.761 55.648 249.851 54.7987 249.175 53.724C248.516 52.632 248.187 51.3927 248.187 50.006C248.187 48.602 248.516 47.3627 249.175 46.288C249.851 45.196 250.761 44.3467 251.905 43.74C253.066 43.116 254.392 42.804 255.883 42.804C257.356 42.804 258.674 43.116 259.835 43.74C260.996 44.3467 261.906 45.1873 262.565 46.262C263.224 47.3367 263.553 48.5847 263.553 50.006C263.553 51.3927 263.224 52.632 262.565 53.724C261.906 54.7987 260.996 55.648 259.835 56.272C258.674 56.896 257.356 57.208 255.883 57.208ZM255.883 53.88C256.559 53.88 257.166 53.724 257.703 53.412C258.24 53.1 258.665 52.658 258.977 52.086C259.289 51.4967 259.445 50.8033 259.445 50.006C259.445 49.1913 259.289 48.498 258.977 47.926C258.665 47.354 258.24 46.912 257.703 46.6C257.166 46.288 256.559 46.132 255.883 46.132C255.207 46.132 254.6 46.288 254.063 46.6C253.526 46.912 253.092 47.354 252.763 47.926C252.451 48.498 252.295 49.1913 252.295 50.006C252.295 50.8033 252.451 51.4967 252.763 52.086C253.092 52.658 253.526 53.1 254.063 53.412C254.6 53.724 255.207 53.88 255.883 53.88ZM8.606 89.208C7.098 89.208 5.75467 88.9047 4.576 88.298C3.39733 87.674 2.47 86.816 1.794 85.724C1.13533 84.632 0.806 83.3927 0.806 82.006C0.806 80.602 1.13533 79.3627 1.794 78.288C2.47 77.196 3.39733 76.3467 4.576 75.74C5.75467 75.116 7.098 74.804 8.606 74.804C10.0793 74.804 11.362 75.116 12.454 75.74C13.546 76.3467 14.352 77.222 14.872 78.366L11.726 80.056C11.362 79.3973 10.9027 78.912 10.348 78.6C9.81067 78.288 9.22133 78.132 8.58 78.132C7.88667 78.132 7.26267 78.288 6.708 78.6C6.15333 78.912 5.71133 79.354 5.382 79.926C5.07 80.498 4.914 81.1913 4.914 82.006C4.914 82.8207 5.07 83.514 5.382 84.086C5.71133 84.658 6.15333 85.1 6.708 85.412C7.26267 85.724 7.88667 85.88 8.58 85.88C9.22133 85.88 9.81067 85.7327 10.348 85.438C10.9027 85.126 11.362 84.632 11.726 83.956L14.872 85.672C14.352 86.7987 13.546 87.674 12.454 88.298C11.362 88.9047 10.0793 89.208 8.606 89.208ZM25.7087 89V86.27L25.4487 85.672V80.784C25.4487 79.9173 25.1801 79.2413 24.6427 78.756C24.1227 78.2707 23.3167 78.028 22.2247 78.028C21.4794 78.028 20.7427 78.1493 20.0147 78.392C19.3041 78.6173 18.6974 78.9293 18.1947 79.328L16.7387 76.494C17.5014 75.9567 18.4201 75.5407 19.4947 75.246C20.5694 74.9513 21.6614 74.804 22.7707 74.804C24.9027 74.804 26.5581 75.3067 27.7367 76.312C28.9154 77.3173 29.5047 78.886 29.5047 81.018V89H25.7087ZM21.4447 89.208C20.3527 89.208 19.4167 89.026 18.6367 88.662C17.8567 88.2807 17.2587 87.7693 16.8427 87.128C16.4267 86.4867 16.2187 85.7673 16.2187 84.97C16.2187 84.138 16.4181 83.41 16.8167 82.786C17.2327 82.162 17.8827 81.6767 18.7667 81.33C19.6507 80.966 20.8034 80.784 22.2247 80.784H25.9427V83.15H22.6667C21.7134 83.15 21.0547 83.306 20.6907 83.618C20.3441 83.93 20.1707 84.32 20.1707 84.788C20.1707 85.308 20.3701 85.724 20.7687 86.036C21.1847 86.3307 21.7481 86.478 22.4587 86.478C23.1347 86.478 23.7414 86.322 24.2787 86.01C24.8161 85.6807 25.2061 85.204 25.4487 84.58L26.0727 86.452C25.7781 87.3533 25.2407 88.038 24.4607 88.506C23.6807 88.974 22.6754 89.208 21.4447 89.208ZM42.6481 87.18V78.34H38.0721L37.9941 80.134C37.9595 80.8793 37.9161 81.59 37.8641 82.266C37.8121 82.942 37.7081 83.5573 37.5521 84.112C37.4135 84.6493 37.2055 85.1087 36.9281 85.49C36.6508 85.854 36.2781 86.1053 35.8101 86.244L31.8061 85.672C32.3088 85.672 32.7161 85.5247 33.0281 85.23C33.3401 84.918 33.5828 84.4933 33.7561 83.956C33.9295 83.4013 34.0595 82.7773 34.1461 82.084C34.2328 81.3733 34.2935 80.628 34.3281 79.848L34.5101 75.012H46.7041V87.18H42.6481ZM31.3381 92.016V85.672H48.7061V92.016H44.9361V89H35.1081V92.016H31.3381ZM60.0726 89V84.346L60.6446 84.996H56.7706C54.7599 84.996 53.1826 84.58 52.0386 83.748C50.8946 82.916 50.3226 81.72 50.3226 80.16C50.3226 78.496 50.9206 77.222 52.1166 76.338C53.3299 75.454 54.9593 75.012 57.0046 75.012H63.6866V89H60.0726ZM50.1146 89L53.8326 83.67H57.9666L54.4306 89H50.1146ZM60.0726 83.098V77.274L60.6446 78.314H57.0826C56.2506 78.314 55.6006 78.47 55.1326 78.782C54.6819 79.094 54.4566 79.5967 54.4566 80.29C54.4566 81.6247 55.3146 82.292 57.0306 82.292H60.6446L60.0726 83.098ZM70.5748 89V77.404L71.4848 78.34H65.8428V75.012H79.3368V78.34H73.6948L74.6048 77.404V89H70.5748ZM87.5708 89.208C86.0628 89.208 84.7195 88.9047 83.5408 88.298C82.3622 87.674 81.4348 86.816 80.7588 85.724C80.1002 84.632 79.7708 83.3927 79.7708 82.006C79.7708 80.602 80.1002 79.3627 80.7588 78.288C81.4348 77.196 82.3622 76.3467 83.5408 75.74C84.7195 75.116 86.0628 74.804 87.5708 74.804C89.0442 74.804 90.3268 75.116 91.4188 75.74C92.5108 76.3467 93.3168 77.222 93.8368 78.366L90.6908 80.056C90.3268 79.3973 89.8675 78.912 89.3128 78.6C88.7755 78.288 88.1862 78.132 87.5448 78.132C86.8515 78.132 86.2275 78.288 85.6728 78.6C85.1182 78.912 84.6762 79.354 84.3468 79.926C84.0348 80.498 83.8788 81.1913 83.8788 82.006C83.8788 82.8207 84.0348 83.514 84.3468 84.086C84.6762 84.658 85.1182 85.1 85.6728 85.412C86.2275 85.724 86.8515 85.88 87.5448 85.88C88.1862 85.88 88.7755 85.7327 89.3128 85.438C89.8675 85.126 90.3268 84.632 90.6908 83.956L93.8368 85.672C93.3168 86.7987 92.5108 87.674 91.4188 88.298C90.3268 88.9047 89.0442 89.208 87.5708 89.208ZM104.785 89V84.346L105.357 84.996H101.483C99.4728 84.996 97.8955 84.58 96.7515 83.748C95.6075 82.916 95.0355 81.72 95.0355 80.16C95.0355 78.496 95.6335 77.222 96.8295 76.338C98.0428 75.454 99.6722 75.012 101.717 75.012H108.399V89H104.785ZM94.8275 89L98.5455 83.67H102.679L99.1435 89H94.8275ZM104.785 83.098V77.274L105.357 78.314H101.795C100.963 78.314 100.313 78.47 99.8455 78.782C99.3948 79.094 99.1695 79.5967 99.1695 80.29C99.1695 81.6247 100.027 82.292 101.743 82.292H105.357L104.785 83.098ZM119.661 89V75.012H123.691V83.332L130.503 75.012H134.221V89H130.191V80.68L123.405 89H119.661ZM152.139 89.208C150.631 89.208 149.288 88.9047 148.109 88.298C146.931 87.674 146.003 86.816 145.327 85.724C144.669 84.632 144.339 83.3927 144.339 82.006C144.339 80.602 144.669 79.3627 145.327 78.288C146.003 77.196 146.931 76.3467 148.109 75.74C149.288 75.116 150.631 74.804 152.139 74.804C153.613 74.804 154.895 75.116 155.987 75.74C157.079 76.3467 157.885 77.222 158.405 78.366L155.259 80.056C154.895 79.3973 154.436 78.912 153.881 78.6C153.344 78.288 152.755 78.132 152.113 78.132C151.42 78.132 150.796 78.288 150.241 78.6C149.687 78.912 149.245 79.354 148.915 79.926C148.603 80.498 148.447 81.1913 148.447 82.006C148.447 82.8207 148.603 83.514 148.915 84.086C149.245 84.658 149.687 85.1 150.241 85.412C150.796 85.724 151.42 85.88 152.113 85.88C152.755 85.88 153.344 85.7327 153.881 85.438C154.436 85.126 154.895 84.632 155.259 83.956L158.405 85.672C157.885 86.7987 157.079 87.674 155.987 88.298C154.895 88.9047 153.613 89.208 152.139 89.208ZM158.873 88.974L159.081 85.646C159.185 85.6633 159.289 85.6807 159.393 85.698C159.497 85.698 159.593 85.698 159.679 85.698C160.165 85.698 160.546 85.5593 160.823 85.282C161.101 85.0047 161.309 84.632 161.447 84.164C161.586 83.6787 161.681 83.1327 161.733 82.526C161.803 81.9193 161.855 81.2867 161.889 80.628L162.097 75.012H174.057V89H170.001V77.352L170.911 78.34H164.775L165.633 77.3L165.451 80.81C165.399 82.058 165.295 83.202 165.139 84.242C165.001 85.282 164.767 86.1833 164.437 86.946C164.108 87.6913 163.666 88.272 163.111 88.688C162.557 89.0867 161.846 89.286 160.979 89.286C160.667 89.286 160.338 89.26 159.991 89.208C159.645 89.156 159.272 89.078 158.873 88.974ZM179.856 94.252C179.128 94.252 178.408 94.1393 177.698 93.914C176.987 93.6887 176.406 93.3767 175.956 92.978L177.438 90.092C177.75 90.3693 178.105 90.586 178.504 90.742C178.92 90.898 179.327 90.976 179.726 90.976C180.298 90.976 180.748 90.8373 181.078 90.56C181.424 90.3 181.736 89.858 182.014 89.234L182.742 87.518L183.054 87.076L188.072 75.012H191.972L185.654 89.858C185.203 90.9847 184.683 91.8687 184.094 92.51C183.522 93.1513 182.88 93.602 182.17 93.862C181.476 94.122 180.705 94.252 179.856 94.252ZM182.248 89.546L176.008 75.012H180.194L185.03 86.712L182.248 89.546ZM209.963 89L206.245 82.37L209.521 80.42L214.773 89H209.963ZM203.853 83.696V80.446H208.715V83.696H203.853ZM209.937 82.474L206.115 82.058L210.145 75.012H214.435L209.937 82.474ZM196.131 89H191.347L196.573 80.42L199.849 82.37L196.131 89ZM205.049 89H201.045V75.012H205.049V89ZM202.241 83.696H197.405V80.446H202.241V83.696ZM196.157 82.474L191.659 75.012H195.949L199.953 82.058L196.157 82.474ZM225 89V86.27L224.74 85.672V80.784C224.74 79.9173 224.471 79.2413 223.934 78.756C223.414 78.2707 222.608 78.028 221.516 78.028C220.77 78.028 220.034 78.1493 219.306 78.392C218.595 78.6173 217.988 78.9293 217.486 79.328L216.03 76.494C216.792 75.9567 217.711 75.5407 218.786 75.246C219.86 74.9513 220.952 74.804 222.062 74.804C224.194 74.804 225.849 75.3067 227.028 76.312C228.206 77.3173 228.796 78.886 228.796 81.018V89H225ZM220.736 89.208C219.644 89.208 218.708 89.026 217.928 88.662C217.148 88.2807 216.55 87.7693 216.134 87.128C215.718 86.4867 215.51 85.7673 215.51 84.97C215.51 84.138 215.709 83.41 216.108 82.786C216.524 82.162 217.174 81.6767 218.058 81.33C218.942 80.966 220.094 80.784 221.516 80.784H225.234V83.15H221.958C221.004 83.15 220.346 83.306 219.982 83.618C219.635 83.93 219.462 84.32 219.462 84.788C219.462 85.308 219.661 85.724 220.06 86.036C220.476 86.3307 221.039 86.478 221.75 86.478C222.426 86.478 223.032 86.322 223.57 86.01C224.107 85.6807 224.497 85.204 224.74 84.58L225.364 86.452C225.069 87.3533 224.532 88.038 223.752 88.506C222.972 88.974 221.966 89.208 220.736 89.208ZM235.309 89V77.404L236.219 78.34H230.577V75.012H244.071V78.34H238.429L239.339 77.404V89H235.309ZM1.95 121V107.012H13.156V110.34H5.07L5.98 109.456V121H1.95ZM21.2735 121.208C19.7828 121.208 18.4568 120.896 17.2955 120.272C16.1515 119.648 15.2415 118.799 14.5655 117.724C13.9068 116.632 13.5775 115.393 13.5775 114.006C13.5775 112.602 13.9068 111.363 14.5655 110.288C15.2415 109.196 16.1515 108.347 17.2955 107.74C18.4568 107.116 19.7828 106.804 21.2735 106.804C22.7468 106.804 24.0642 107.116 25.2255 107.74C26.3868 108.347 27.2968 109.187 27.9555 110.262C28.6142 111.337 28.9435 112.585 28.9435 114.006C28.9435 115.393 28.6142 116.632 27.9555 117.724C27.2968 118.799 26.3868 119.648 25.2255 120.272C24.0642 120.896 22.7468 121.208 21.2735 121.208ZM21.2735 117.88C21.9495 117.88 22.5562 117.724 23.0935 117.412C23.6308 117.1 24.0555 116.658 24.3675 116.086C24.6795 115.497 24.8355 114.803 24.8355 114.006C24.8355 113.191 24.6795 112.498 24.3675 111.926C24.0555 111.354 23.6308 110.912 23.0935 110.6C22.5562 110.288 21.9495 110.132 21.2735 110.132C20.5975 110.132 19.9908 110.288 19.4535 110.6C18.9162 110.912 18.4828 111.354 18.1535 111.926C17.8415 112.498 17.6855 113.191 17.6855 114.006C17.6855 114.803 17.8415 115.497 18.1535 116.086C18.4828 116.658 18.9162 117.1 19.4535 117.412C19.9908 117.724 20.5975 117.88 21.2735 117.88ZM41.1501 119.18V110.34H36.5741L36.4961 112.134C36.4614 112.879 36.4181 113.59 36.3661 114.266C36.3141 114.942 36.2101 115.557 36.0541 116.112C35.9154 116.649 35.7074 117.109 35.4301 117.49C35.1527 117.854 34.7801 118.105 34.3121 118.244L30.3081 117.672C30.8107 117.672 31.2181 117.525 31.5301 117.23C31.8421 116.918 32.0847 116.493 32.2581 115.956C32.4314 115.401 32.5614 114.777 32.6481 114.084C32.7347 113.373 32.7954 112.628 32.8301 111.848L33.0121 107.012H45.2061V119.18H41.1501ZM29.8401 124.016V117.672H47.2081V124.016H43.4381V121H33.6101V124.016H29.8401ZM58.1325 121V118.27L57.8725 117.672V112.784C57.8725 111.917 57.6039 111.241 57.0665 110.756C56.5465 110.271 55.7405 110.028 54.6485 110.028C53.9032 110.028 53.1665 110.149 52.4385 110.392C51.7279 110.617 51.1212 110.929 50.6185 111.328L49.1625 108.494C49.9252 107.957 50.8439 107.541 51.9185 107.246C52.9932 106.951 54.0852 106.804 55.1945 106.804C57.3265 106.804 58.9819 107.307 60.1605 108.312C61.3392 109.317 61.9285 110.886 61.9285 113.018V121H58.1325ZM53.8685 121.208C52.7765 121.208 51.8405 121.026 51.0605 120.662C50.2805 120.281 49.6825 119.769 49.2665 119.128C48.8505 118.487 48.6425 117.767 48.6425 116.97C48.6425 116.138 48.8419 115.41 49.2405 114.786C49.6565 114.162 50.3065 113.677 51.1905 113.33C52.0745 112.966 53.2272 112.784 54.6485 112.784H58.3665V115.15H55.0905C54.1372 115.15 53.4785 115.306 53.1145 115.618C52.7679 115.93 52.5945 116.32 52.5945 116.788C52.5945 117.308 52.7939 117.724 53.1925 118.036C53.6085 118.331 54.1719 118.478 54.8825 118.478C55.5585 118.478 56.1652 118.322 56.7025 118.01C57.2399 117.681 57.6299 117.204 57.8725 116.58L58.4965 118.452C58.2019 119.353 57.6645 120.038 56.8845 120.506C56.1045 120.974 55.0992 121.208 53.8685 121.208ZM65.452 121V107.012H69.69L74.968 116.58H73.278L78.92 107.012H82.716L82.768 121H79.102V111.172L79.726 111.588L74.916 119.648H73.2L68.364 111.302L69.118 111.12V121H65.452ZM86.6531 121V107.012H90.6831V115.332L97.4951 107.012H101.213V121H97.1831V112.68L90.3971 121H86.6531Z" fill="white"/>
<path d="M1.888 162V150.8H10.08V151.808H3.056V155.472H6.72C8.04267 155.472 9.04533 155.744 9.728 156.288C10.4213 156.821 10.768 157.611 10.768 158.656C10.768 159.733 10.3947 160.56 9.648 161.136C8.912 161.712 7.85067 162 6.464 162H1.888ZM3.056 161.056H6.448C7.48267 161.056 8.26133 160.859 8.784 160.464C9.31733 160.059 9.584 159.472 9.584 158.704C9.584 157.179 8.53867 156.416 6.448 156.416H3.056V161.056ZM16.6814 162.08C15.8707 162.08 15.14 161.899 14.4894 161.536C13.8494 161.163 13.3427 160.656 12.9694 160.016C12.596 159.365 12.4094 158.624 12.4094 157.792C12.4094 156.949 12.596 156.208 12.9694 155.568C13.3427 154.928 13.8494 154.427 14.4894 154.064C15.1294 153.701 15.86 153.52 16.6814 153.52C17.5134 153.52 18.2494 153.701 18.8894 154.064C19.54 154.427 20.0467 154.928 20.4094 155.568C20.7827 156.208 20.9694 156.949 20.9694 157.792C20.9694 158.624 20.7827 159.365 20.4094 160.016C20.0467 160.656 19.54 161.163 18.8894 161.536C18.2387 161.899 17.5027 162.08 16.6814 162.08ZM16.6814 161.072C17.2894 161.072 17.828 160.939 18.2974 160.672C18.7667 160.395 19.1347 160.011 19.4014 159.52C19.6787 159.019 19.8174 158.443 19.8174 157.792C19.8174 157.131 19.6787 156.555 19.4014 156.064C19.1347 155.573 18.7667 155.195 18.2974 154.928C17.828 154.651 17.2947 154.512 16.6974 154.512C16.1 154.512 15.5667 154.651 15.0974 154.928C14.628 155.195 14.2547 155.573 13.9774 156.064C13.7 156.555 13.5614 157.131 13.5614 157.792C13.5614 158.443 13.7 159.019 13.9774 159.52C14.2547 160.011 14.628 160.395 15.0974 160.672C15.5667 160.939 16.0947 161.072 16.6814 161.072ZM21.8144 161.984L21.8944 161.008C21.969 161.019 22.0384 161.035 22.1024 161.056C22.177 161.067 22.241 161.072 22.2944 161.072C22.6357 161.072 22.9077 160.944 23.1104 160.688C23.3237 160.432 23.4837 160.091 23.5904 159.664C23.697 159.237 23.7717 158.757 23.8144 158.224C23.857 157.68 23.8944 157.136 23.9264 156.592L24.0704 153.6H30.2304V162H29.0944V154.256L29.3824 154.592H24.8064L25.0784 154.24L24.9504 156.672C24.9184 157.397 24.8597 158.091 24.7744 158.752C24.6997 159.413 24.577 159.995 24.4064 160.496C24.2464 160.997 24.0224 161.392 23.7344 161.68C23.4464 161.957 23.0784 162.096 22.6304 162.096C22.5024 162.096 22.369 162.085 22.2304 162.064C22.1024 162.043 21.9637 162.016 21.8144 161.984ZM37.0598 162.08C36.1851 162.08 35.4171 161.899 34.7558 161.536C34.0944 161.163 33.5771 160.656 33.2038 160.016C32.8304 159.365 32.6438 158.624 32.6438 157.792C32.6438 156.96 32.8198 156.224 33.1718 155.584C33.5344 154.944 34.0251 154.443 34.6438 154.08C35.2731 153.707 35.9771 153.52 36.7558 153.52C37.5451 153.52 38.2438 153.701 38.8518 154.064C39.4704 154.416 39.9558 154.917 40.3078 155.568C40.6598 156.208 40.8358 156.949 40.8358 157.792C40.8358 157.845 40.8304 157.904 40.8198 157.968C40.8198 158.021 40.8198 158.08 40.8198 158.144H33.5078V157.296H40.2118L39.7638 157.632C39.7638 157.024 39.6304 156.485 39.3638 156.016C39.1078 155.536 38.7558 155.163 38.3078 154.896C37.8598 154.629 37.3424 154.496 36.7558 154.496C36.1798 154.496 35.6624 154.629 35.2038 154.896C34.7451 155.163 34.3878 155.536 34.1318 156.016C33.8758 156.496 33.7478 157.045 33.7478 157.664V157.84C33.7478 158.48 33.8864 159.045 34.1638 159.536C34.4518 160.016 34.8464 160.395 35.3478 160.672C35.8598 160.939 36.4411 161.072 37.0918 161.072C37.6038 161.072 38.0784 160.981 38.5158 160.8C38.9638 160.619 39.3478 160.341 39.6678 159.968L40.3078 160.704C39.9344 161.152 39.4651 161.493 38.8998 161.728C38.3451 161.963 37.7318 162.08 37.0598 162.08ZM46.9504 162.08C46.0757 162.08 45.3077 161.899 44.6464 161.536C43.985 161.163 43.4677 160.656 43.0944 160.016C42.721 159.365 42.5344 158.624 42.5344 157.792C42.5344 156.96 42.7104 156.224 43.0624 155.584C43.425 154.944 43.9157 154.443 44.5344 154.08C45.1637 153.707 45.8677 153.52 46.6464 153.52C47.4357 153.52 48.1344 153.701 48.7424 154.064C49.361 154.416 49.8464 154.917 50.1984 155.568C50.5504 156.208 50.7264 156.949 50.7264 157.792C50.7264 157.845 50.721 157.904 50.7104 157.968C50.7104 158.021 50.7104 158.08 50.7104 158.144H43.3984V157.296H50.1024L49.6544 157.632C49.6544 157.024 49.521 156.485 49.2544 156.016C48.9984 155.536 48.6464 155.163 48.1984 154.896C47.7504 154.629 47.233 154.496 46.6464 154.496C46.0704 154.496 45.553 154.629 45.0944 154.896C44.6357 155.163 44.2784 155.536 44.0224 156.016C43.7664 156.496 43.6384 157.045 43.6384 157.664V157.84C43.6384 158.48 43.777 159.045 44.0544 159.536C44.3424 160.016 44.737 160.395 45.2384 160.672C45.7504 160.939 46.3317 161.072 46.9824 161.072C47.4944 161.072 47.969 160.981 48.4064 160.8C48.8544 160.619 49.2384 160.341 49.5584 159.968L50.1984 160.704C49.825 161.152 49.3557 161.493 48.7904 161.728C48.2357 161.963 47.6224 162.08 46.9504 162.08ZM60.1805 162.096C59.3805 162.096 58.6178 161.968 57.8925 161.712C57.1672 161.445 56.5912 161.093 56.1645 160.656L56.7245 159.744C57.0765 160.117 57.5565 160.427 58.1645 160.672C58.7832 160.917 59.4498 161.04 60.1645 161.04C61.1138 161.04 61.8338 160.832 62.3245 160.416C62.8258 159.989 63.0765 159.435 63.0765 158.752C63.0765 158.272 62.9592 157.861 62.7245 157.52C62.5005 157.168 62.1165 156.896 61.5725 156.704C61.0285 156.512 60.2818 156.416 59.3325 156.416H56.9485L57.5245 150.8H63.6525V151.824H57.9885L58.5805 151.264L58.0845 155.968L57.4925 155.392H59.5885C60.7192 155.392 61.6258 155.531 62.3085 155.808C62.9912 156.085 63.4818 156.475 63.7805 156.976C64.0898 157.467 64.2445 158.043 64.2445 158.704C64.2445 159.333 64.0952 159.909 63.7965 160.432C63.4978 160.944 63.0498 161.349 62.4525 161.648C61.8552 161.947 61.0978 162.096 60.1805 162.096ZM70.171 162.096C69.307 162.096 68.539 161.872 67.867 161.424C67.195 160.965 66.667 160.315 66.283 159.472C65.899 158.619 65.707 157.595 65.707 156.4C65.707 155.205 65.899 154.187 66.283 153.344C66.667 152.491 67.195 151.84 67.867 151.392C68.539 150.933 69.307 150.704 70.171 150.704C71.035 150.704 71.803 150.933 72.475 151.392C73.147 151.84 73.675 152.491 74.059 153.344C74.4537 154.187 74.651 155.205 74.651 156.4C74.651 157.595 74.4537 158.619 74.059 159.472C73.675 160.315 73.147 160.965 72.475 161.424C71.803 161.872 71.035 162.096 70.171 162.096ZM70.171 161.04C70.8323 161.04 71.4083 160.864 71.899 160.512C72.3897 160.149 72.7737 159.627 73.051 158.944C73.3283 158.251 73.467 157.403 73.467 156.4C73.467 155.397 73.3283 154.555 73.051 153.872C72.7737 153.179 72.3897 152.656 71.899 152.304C71.4083 151.941 70.8323 151.76 70.171 151.76C69.531 151.76 68.9603 151.941 68.459 152.304C67.9577 152.656 67.5683 153.179 67.291 153.872C67.0137 154.555 66.875 155.397 66.875 156.4C66.875 157.403 67.0137 158.251 67.291 158.944C67.5683 159.627 67.9577 160.149 68.459 160.512C68.9603 160.864 69.531 161.04 70.171 161.04ZM80.7648 162.096C79.9008 162.096 79.1328 161.872 78.4608 161.424C77.7888 160.965 77.2608 160.315 76.8768 159.472C76.4928 158.619 76.3008 157.595 76.3008 156.4C76.3008 155.205 76.4928 154.187 76.8768 153.344C77.2608 152.491 77.7888 151.84 78.4608 151.392C79.1328 150.933 79.9008 150.704 80.7648 150.704C81.6288 150.704 82.3968 150.933 83.0688 151.392C83.7408 151.84 84.2688 152.491 84.6528 153.344C85.0474 154.187 85.2448 155.205 85.2448 156.4C85.2448 157.595 85.0474 158.619 84.6528 159.472C84.2688 160.315 83.7408 160.965 83.0688 161.424C82.3968 161.872 81.6288 162.096 80.7648 162.096ZM80.7648 161.04C81.4261 161.04 82.0021 160.864 82.4928 160.512C82.9834 160.149 83.3674 159.627 83.6448 158.944C83.9221 158.251 84.0608 157.403 84.0608 156.4C84.0608 155.397 83.9221 154.555 83.6448 153.872C83.3674 153.179 82.9834 152.656 82.4928 152.304C82.0021 151.941 81.4261 151.76 80.7648 151.76C80.1248 151.76 79.5541 151.941 79.0528 152.304C78.5514 152.656 78.1621 153.179 77.8848 153.872C77.6074 154.555 77.4688 155.397 77.4688 156.4C77.4688 157.403 77.6074 158.251 77.8848 158.944C78.1621 159.627 78.5514 160.149 79.0528 160.512C79.5541 160.864 80.1248 161.04 80.7648 161.04ZM91.866 162V153.6H93.018L96.826 160.048H96.346L100.218 153.6H101.274V162H100.234V154.896L100.442 154.992L96.826 160.976H96.314L92.666 154.928L92.906 154.88V162H91.866ZM107.963 162.08C107.152 162.08 106.421 161.899 105.771 161.536C105.131 161.163 104.624 160.656 104.251 160.016C103.877 159.365 103.691 158.624 103.691 157.792C103.691 156.949 103.877 156.208 104.251 155.568C104.624 154.928 105.131 154.427 105.771 154.064C106.411 153.701 107.141 153.52 107.963 153.52C108.795 153.52 109.531 153.701 110.171 154.064C110.821 154.427 111.328 154.928 111.691 155.568C112.064 156.208 112.251 156.949 112.251 157.792C112.251 158.624 112.064 159.365 111.691 160.016C111.328 160.656 110.821 161.163 110.171 161.536C109.52 161.899 108.784 162.08 107.963 162.08ZM107.963 161.072C108.571 161.072 109.109 160.939 109.579 160.672C110.048 160.395 110.416 160.011 110.683 159.52C110.96 159.019 111.099 158.443 111.099 157.792C111.099 157.131 110.96 156.555 110.683 156.064C110.416 155.573 110.048 155.195 109.579 154.928C109.109 154.651 108.576 154.512 107.979 154.512C107.381 154.512 106.848 154.651 106.379 154.928C105.909 155.195 105.536 155.573 105.259 156.064C104.981 156.555 104.843 157.131 104.843 157.792C104.843 158.443 104.981 159.019 105.259 159.52C105.536 160.011 105.909 160.395 106.379 160.672C106.848 160.939 107.376 161.072 107.963 161.072ZM120.392 161.456V154.592H116.344L116.248 156.464C116.226 157.029 116.189 157.584 116.136 158.128C116.093 158.672 116.013 159.173 115.896 159.632C115.789 160.08 115.634 160.448 115.432 160.736C115.229 161.013 114.968 161.173 114.648 161.216L113.512 161.008C113.842 161.019 114.114 160.901 114.328 160.656C114.541 160.4 114.706 160.053 114.824 159.616C114.941 159.179 115.026 158.683 115.08 158.128C115.133 157.563 115.176 156.987 115.208 156.4L115.32 153.6H121.528V161.456H120.392ZM113.16 164.032V161.008H122.84V164.032H121.768V162H114.232V164.032H113.16ZM128.654 162.08C127.779 162.08 127.011 161.899 126.35 161.536C125.688 161.163 125.171 160.656 124.798 160.016C124.424 159.365 124.238 158.624 124.238 157.792C124.238 156.96 124.414 156.224 124.766 155.584C125.128 154.944 125.619 154.443 126.238 154.08C126.867 153.707 127.571 153.52 128.35 153.52C129.139 153.52 129.838 153.701 130.446 154.064C131.064 154.416 131.55 154.917 131.902 155.568C132.254 156.208 132.43 156.949 132.43 157.792C132.43 157.845 132.424 157.904 132.414 157.968C132.414 158.021 132.414 158.08 132.414 158.144H125.102V157.296H131.806L131.358 157.632C131.358 157.024 131.224 156.485 130.958 156.016C130.702 155.536 130.35 155.163 129.902 154.896C129.454 154.629 128.936 154.496 128.35 154.496C127.774 154.496 127.256 154.629 126.798 154.896C126.339 155.163 125.982 155.536 125.726 156.016C125.47 156.496 125.342 157.045 125.342 157.664V157.84C125.342 158.48 125.48 159.045 125.758 159.536C126.046 160.016 126.44 160.395 126.942 160.672C127.454 160.939 128.035 161.072 128.686 161.072C129.198 161.072 129.672 160.981 130.11 160.8C130.558 160.619 130.942 160.341 131.262 159.968L131.902 160.704C131.528 161.152 131.059 161.493 130.494 161.728C129.939 161.963 129.326 162.08 128.654 162.08ZM133.236 161.984L133.316 161.008C133.391 161.019 133.46 161.035 133.524 161.056C133.599 161.067 133.663 161.072 133.716 161.072C134.058 161.072 134.33 160.944 134.532 160.688C134.746 160.432 134.906 160.091 135.012 159.664C135.119 159.237 135.194 158.757 135.236 158.224C135.279 157.68 135.316 157.136 135.348 156.592L135.492 153.6H141.652V162H140.516V154.256L140.804 154.592H136.228L136.5 154.24L136.372 156.672C136.34 157.397 136.282 158.091 136.196 158.752C136.122 159.413 135.999 159.995 135.828 160.496C135.668 160.997 135.444 161.392 135.156 161.68C134.868 161.957 134.5 162.096 134.052 162.096C133.924 162.096 133.791 162.085 133.652 162.064C133.524 162.043 133.386 162.016 133.236 161.984ZM148.482 162.08C147.607 162.08 146.839 161.899 146.178 161.536C145.516 161.163 144.999 160.656 144.626 160.016C144.252 159.365 144.066 158.624 144.066 157.792C144.066 156.96 144.242 156.224 144.594 155.584C144.956 154.944 145.447 154.443 146.066 154.08C146.695 153.707 147.399 153.52 148.178 153.52C148.967 153.52 149.666 153.701 150.274 154.064C150.892 154.416 151.378 154.917 151.73 155.568C152.082 156.208 152.258 156.949 152.258 157.792C152.258 157.845 152.252 157.904 152.242 157.968C152.242 158.021 152.242 158.08 152.242 158.144H144.93V157.296H151.634L151.186 157.632C151.186 157.024 151.052 156.485 150.786 156.016C150.53 155.536 150.178 155.163 149.73 154.896C149.282 154.629 148.764 154.496 148.178 154.496C147.602 154.496 147.084 154.629 146.626 154.896C146.167 155.163 145.81 155.536 145.554 156.016C145.298 156.496 145.17 157.045 145.17 157.664V157.84C145.17 158.48 145.308 159.045 145.586 159.536C145.874 160.016 146.268 160.395 146.77 160.672C147.282 160.939 147.863 161.072 148.514 161.072C149.026 161.072 149.5 160.981 149.938 160.8C150.386 160.619 150.77 160.341 151.09 159.968L151.73 160.704C151.356 161.152 150.887 161.493 150.322 161.728C149.767 161.963 149.154 162.08 148.482 162.08ZM154.772 162V153.6H155.908V160.272L161.524 153.6H162.532V162H161.396V155.312L155.796 162H154.772ZM158.58 152.384C157.876 152.384 157.306 152.208 156.868 151.856C156.442 151.493 156.218 150.976 156.196 150.304H157.012C157.023 150.731 157.172 151.067 157.46 151.312C157.748 151.557 158.122 151.68 158.58 151.68C159.039 151.68 159.412 151.557 159.7 151.312C159.999 151.067 160.154 150.731 160.164 150.304H160.98C160.97 150.976 160.746 151.493 160.308 151.856C159.871 152.208 159.295 152.384 158.58 152.384ZM169.975 162V153.6H173.687C174.637 153.6 175.383 153.781 175.927 154.144C176.482 154.507 176.759 155.04 176.759 155.744C176.759 156.427 176.498 156.955 175.975 157.328C175.453 157.691 174.765 157.872 173.911 157.872L174.135 157.536C175.138 157.536 175.874 157.723 176.343 158.096C176.813 158.469 177.047 159.008 177.047 159.712C177.047 160.437 176.781 161.003 176.247 161.408C175.725 161.803 174.909 162 173.799 162H169.975ZM171.079 161.104H173.751C174.466 161.104 175.005 160.992 175.367 160.768C175.741 160.533 175.927 160.16 175.927 159.648C175.927 159.136 175.762 158.763 175.431 158.528C175.101 158.293 174.578 158.176 173.863 158.176H171.079V161.104ZM171.079 157.328H173.607C174.258 157.328 174.754 157.205 175.095 156.96C175.447 156.715 175.623 156.357 175.623 155.888C175.623 155.419 175.447 155.067 175.095 154.832C174.754 154.597 174.258 154.48 173.607 154.48H171.079V157.328ZM183.897 162V153.6H185.033V157.312H190.329V153.6H191.465V162H190.329V158.288H185.033V162H183.897ZM199.91 162V160.144L199.862 159.84V156.736C199.862 156.021 199.659 155.472 199.254 155.088C198.859 154.704 198.267 154.512 197.478 154.512C196.934 154.512 196.417 154.603 195.926 154.784C195.435 154.965 195.019 155.205 194.678 155.504L194.166 154.656C194.593 154.293 195.105 154.016 195.702 153.824C196.299 153.621 196.929 153.52 197.59 153.52C198.678 153.52 199.515 153.792 200.102 154.336C200.699 154.869 200.998 155.685 200.998 156.784V162H199.91ZM197.014 162.08C196.385 162.08 195.835 161.979 195.366 161.776C194.907 161.563 194.555 161.275 194.31 160.912C194.065 160.539 193.942 160.112 193.942 159.632C193.942 159.195 194.043 158.8 194.246 158.448C194.459 158.085 194.801 157.797 195.27 157.584C195.75 157.36 196.39 157.248 197.19 157.248H200.086V158.096H197.222C196.411 158.096 195.846 158.24 195.526 158.528C195.217 158.816 195.062 159.173 195.062 159.6C195.062 160.08 195.249 160.464 195.622 160.752C195.995 161.04 196.518 161.184 197.19 161.184C197.83 161.184 198.379 161.04 198.838 160.752C199.307 160.453 199.649 160.027 199.862 159.472L200.118 160.256C199.905 160.811 199.531 161.253 198.998 161.584C198.475 161.915 197.814 162.08 197.014 162.08ZM202.486 161.984L202.566 161.008C202.641 161.019 202.71 161.035 202.774 161.056C202.849 161.067 202.913 161.072 202.966 161.072C203.308 161.072 203.58 160.944 203.782 160.688C203.996 160.432 204.156 160.091 204.262 159.664C204.369 159.237 204.444 158.757 204.486 158.224C204.529 157.68 204.566 157.136 204.598 156.592L204.742 153.6H210.902V162H209.766V154.256L210.054 154.592H205.478L205.75 154.24L205.622 156.672C205.59 157.397 205.532 158.091 205.446 158.752C205.372 159.413 205.249 159.995 205.078 160.496C204.918 160.997 204.694 161.392 204.406 161.68C204.118 161.957 203.75 162.096 203.302 162.096C203.174 162.096 203.041 162.085 202.902 162.064C202.774 162.043 202.636 162.016 202.486 161.984ZM214.132 162V153.6H215.268V160.272L220.884 153.6H221.892V162H220.756V155.312L215.156 162H214.132ZM230.459 158.448C229.969 158.661 229.473 158.832 228.971 158.96C228.481 159.077 227.99 159.136 227.499 159.136C226.507 159.136 225.723 158.912 225.147 158.464C224.571 158.005 224.283 157.301 224.283 156.352V153.6H225.403V156.288C225.403 156.928 225.611 157.408 226.027 157.728C226.443 158.048 227.003 158.208 227.707 158.208C228.134 158.208 228.582 158.155 229.051 158.048C229.521 157.931 229.995 157.765 230.475 157.552L230.459 158.448ZM230.363 162V153.6H231.499V162H230.363ZM234.725 162V153.6H235.861V160.272L241.477 153.6H242.485V162H241.349V155.312L235.749 162H234.725ZM245.741 162V153.6H246.877V160.272L252.493 153.6H253.501V162H252.365V155.312L246.765 162H245.741ZM260.944 162V153.6H262.08V160.272L267.696 153.6H268.704V162H267.568V155.312L261.968 162H260.944ZM276.147 162V153.6H283.699V162H282.563V154.288L282.851 154.592H276.995L277.283 154.288V162H276.147ZM290.385 162.08C289.574 162.08 288.843 161.899 288.193 161.536C287.553 161.163 287.046 160.656 286.673 160.016C286.299 159.365 286.113 158.624 286.113 157.792C286.113 156.949 286.299 156.208 286.673 155.568C287.046 154.928 287.553 154.427 288.193 154.064C288.833 153.701 289.563 153.52 290.385 153.52C291.217 153.52 291.953 153.701 292.593 154.064C293.243 154.427 293.75 154.928 294.113 155.568C294.486 156.208 294.673 156.949 294.673 157.792C294.673 158.624 294.486 159.365 294.113 160.016C293.75 160.656 293.243 161.163 292.593 161.536C291.942 161.899 291.206 162.08 290.385 162.08ZM290.385 161.072C290.993 161.072 291.531 160.939 292.001 160.672C292.47 160.395 292.838 160.011 293.105 159.52C293.382 159.019 293.521 158.443 293.521 157.792C293.521 157.131 293.382 156.555 293.105 156.064C292.838 155.573 292.47 155.195 292.001 154.928C291.531 154.651 290.998 154.512 290.401 154.512C289.803 154.512 289.27 154.651 288.801 154.928C288.331 155.195 287.958 155.573 287.681 156.064C287.403 156.555 287.265 157.131 287.265 157.792C287.265 158.443 287.403 159.019 287.681 159.52C287.958 160.011 288.331 160.395 288.801 160.672C289.27 160.939 289.798 161.072 290.385 161.072ZM302.814 161.456V154.592H298.766L298.67 156.464C298.648 157.029 298.611 157.584 298.558 158.128C298.515 158.672 298.435 159.173 298.318 159.632C298.211 160.08 298.056 160.448 297.854 160.736C297.651 161.013 297.39 161.173 297.07 161.216L295.934 161.008C296.264 161.019 296.536 160.901 296.75 160.656C296.963 160.4 297.128 160.053 297.246 159.616C297.363 159.179 297.448 158.683 297.502 158.128C297.555 157.563 297.598 156.987 297.63 156.4L297.742 153.6H303.95V161.456H302.814ZM295.582 164.032V161.008H305.262V164.032H304.19V162H296.654V164.032H295.582ZM3.872 186.096C3.264 186.096 2.66133 186.011 2.064 185.84C1.46667 185.669 0.938667 185.408 0.48 185.056L0.848 184.208C1.25333 184.507 1.72267 184.736 2.256 184.896C2.78933 185.045 3.31733 185.12 3.84 185.12C4.36267 185.109 4.816 185.035 5.2 184.896C5.584 184.757 5.88267 184.565 6.096 184.32C6.30933 184.075 6.416 183.797 6.416 183.488C6.416 183.04 6.21333 182.693 5.808 182.448C5.40267 182.192 4.848 182.064 4.144 182.064H2.704V181.232H4.064C4.48 181.232 4.848 181.179 5.168 181.072C5.488 180.965 5.73333 180.811 5.904 180.608C6.08533 180.405 6.176 180.165 6.176 179.888C6.176 179.589 6.06933 179.333 5.856 179.12C5.65333 178.907 5.37067 178.747 5.008 178.64C4.64533 178.533 4.23467 178.48 3.776 178.48C3.36 178.491 2.928 178.555 2.48 178.672C2.032 178.779 1.58933 178.944 1.152 179.168L0.832 178.288C1.32267 178.032 1.808 177.84 2.288 177.712C2.77867 177.573 3.26933 177.504 3.76 177.504C4.432 177.483 5.03467 177.563 5.568 177.744C6.112 177.925 6.544 178.187 6.864 178.528C7.184 178.859 7.344 179.259 7.344 179.728C7.344 180.144 7.216 180.507 6.96 180.816C6.704 181.125 6.36267 181.365 5.936 181.536C5.50933 181.707 5.024 181.792 4.48 181.792L4.528 181.488C5.488 181.488 6.23467 181.675 6.768 182.048C7.312 182.421 7.584 182.928 7.584 183.568C7.584 184.069 7.41867 184.512 7.088 184.896C6.75733 185.269 6.30933 185.563 5.744 185.776C5.18933 185.989 4.56533 186.096 3.872 186.096ZM15.3789 186V184.144L15.3309 183.84V180.736C15.3309 180.021 15.1282 179.472 14.7229 179.088C14.3282 178.704 13.7362 178.512 12.9469 178.512C12.4029 178.512 11.8855 178.603 11.3949 178.784C10.9042 178.965 10.4882 179.205 10.1469 179.504L9.63488 178.656C10.0615 178.293 10.5735 178.016 11.1709 177.824C11.7682 177.621 12.3975 177.52 13.0589 177.52C14.1469 177.52 14.9842 177.792 15.5709 178.336C16.1682 178.869 16.4669 179.685 16.4669 180.784V186H15.3789ZM12.4829 186.08C11.8535 186.08 11.3042 185.979 10.8349 185.776C10.3762 185.563 10.0242 185.275 9.77888 184.912C9.53354 184.539 9.41088 184.112 9.41088 183.632C9.41088 183.195 9.51221 182.8 9.71488 182.448C9.92821 182.085 10.2695 181.797 10.7389 181.584C11.2189 181.36 11.8589 181.248 12.6589 181.248H15.5549V182.096H12.6909C11.8802 182.096 11.3149 182.24 10.9949 182.528C10.6855 182.816 10.5309 183.173 10.5309 183.6C10.5309 184.08 10.7175 184.464 11.0909 184.752C11.4642 185.04 11.9869 185.184 12.6589 185.184C13.2989 185.184 13.8482 185.04 14.3069 184.752C14.7762 184.453 15.1175 184.027 15.3309 183.472L15.5869 184.256C15.3735 184.811 15.0002 185.253 14.4669 185.584C13.9442 185.915 13.2829 186.08 12.4829 186.08ZM25.651 186L22.195 181.84L23.139 181.28L26.995 186H25.651ZM19.491 186V177.6H20.627V186H19.491ZM20.275 182.256V181.28H22.979V182.256H20.275ZM23.235 181.92L22.179 181.76L25.523 177.6H26.755L23.235 181.92ZM33.8476 186V184.144L33.7996 183.84V180.736C33.7996 180.021 33.597 179.472 33.1916 179.088C32.797 178.704 32.205 178.512 31.4156 178.512C30.8716 178.512 30.3543 178.603 29.8636 178.784C29.373 178.965 28.957 179.205 28.6156 179.504L28.1036 178.656C28.5303 178.293 29.0423 178.016 29.6396 177.824C30.237 177.621 30.8663 177.52 31.5276 177.52C32.6156 177.52 33.453 177.792 34.0396 178.336C34.637 178.869 34.9356 179.685 34.9356 180.784V186H33.8476ZM30.9516 186.08C30.3223 186.08 29.773 185.979 29.3036 185.776C28.845 185.563 28.493 185.275 28.2476 184.912C28.0023 184.539 27.8796 184.112 27.8796 183.632C27.8796 183.195 27.981 182.8 28.1836 182.448C28.397 182.085 28.7383 181.797 29.2076 181.584C29.6876 181.36 30.3276 181.248 31.1276 181.248H34.0236V182.096H31.1596C30.349 182.096 29.7836 182.24 29.4636 182.528C29.1543 182.816 28.9996 183.173 28.9996 183.6C28.9996 184.08 29.1863 184.464 29.5596 184.752C29.933 185.04 30.4556 185.184 31.1276 185.184C31.7676 185.184 32.317 185.04 32.7756 184.752C33.245 184.453 33.5863 184.027 33.7996 183.472L34.0556 184.256C33.8423 184.811 33.469 185.253 32.9356 185.584C32.413 185.915 31.7516 186.08 30.9516 186.08ZM40.0439 186.096C39.4359 186.096 38.8332 186.011 38.2359 185.84C37.6385 185.669 37.1105 185.408 36.6519 185.056L37.0199 184.208C37.4252 184.507 37.8945 184.736 38.4279 184.896C38.9612 185.045 39.4892 185.12 40.0119 185.12C40.5345 185.109 40.9879 185.035 41.3719 184.896C41.7559 184.757 42.0545 184.565 42.2679 184.32C42.4812 184.075 42.5879 183.797 42.5879 183.488C42.5879 183.04 42.3852 182.693 41.9799 182.448C41.5745 182.192 41.0199 182.064 40.3159 182.064H38.8759V181.232H40.2359C40.6519 181.232 41.0199 181.179 41.3399 181.072C41.6599 180.965 41.9052 180.811 42.0759 180.608C42.2572 180.405 42.3479 180.165 42.3479 179.888C42.3479 179.589 42.2412 179.333 42.0279 179.12C41.8252 178.907 41.5425 178.747 41.1799 178.64C40.8172 178.533 40.4065 178.48 39.9479 178.48C39.5319 178.491 39.0999 178.555 38.6519 178.672C38.2039 178.779 37.7612 178.944 37.3239 179.168L37.0039 178.288C37.4945 178.032 37.9799 177.84 38.4599 177.712C38.9505 177.573 39.4412 177.504 39.9319 177.504C40.6039 177.483 41.2065 177.563 41.7399 177.744C42.2839 177.925 42.7159 178.187 43.0359 178.528C43.3559 178.859 43.5159 179.259 43.5159 179.728C43.5159 180.144 43.3879 180.507 43.1319 180.816C42.8759 181.125 42.5345 181.365 42.1079 181.536C41.6812 181.707 41.1959 181.792 40.6519 181.792L40.6999 181.488C41.6599 181.488 42.4065 181.675 42.9399 182.048C43.4839 182.421 43.7559 182.928 43.7559 183.568C43.7559 184.069 43.5905 184.512 43.2599 184.896C42.9292 185.269 42.4812 185.563 41.9159 185.776C41.3612 185.989 40.7372 186.096 40.0439 186.096ZM45.6148 188.336L46.3188 185.376L46.4468 186.064C46.2014 186.064 45.9934 185.984 45.8228 185.824C45.6628 185.664 45.5828 185.456 45.5828 185.2C45.5828 184.944 45.6628 184.736 45.8228 184.576C45.9934 184.416 46.1961 184.336 46.4308 184.336C46.6761 184.336 46.8734 184.421 47.0228 184.592C47.1828 184.763 47.2628 184.965 47.2628 185.2C47.2628 185.285 47.2574 185.371 47.2468 185.456C47.2361 185.541 47.2148 185.637 47.1828 185.744C47.1508 185.851 47.1081 185.979 47.0548 186.128L46.3828 188.336H45.6148ZM53.9129 186V177.6H61.4649V186H60.3289V178.288L60.6169 178.592H54.7609L55.0489 178.288V186H53.9129ZM68.1501 186.08C67.3395 186.08 66.6088 185.899 65.9581 185.536C65.3181 185.163 64.8115 184.656 64.4381 184.016C64.0648 183.365 63.8781 182.624 63.8781 181.792C63.8781 180.949 64.0648 180.208 64.4381 179.568C64.8115 178.928 65.3181 178.427 65.9581 178.064C66.5981 177.701 67.3288 177.52 68.1501 177.52C68.9821 177.52 69.7181 177.701 70.3581 178.064C71.0088 178.427 71.5155 178.928 71.8781 179.568C72.2515 180.208 72.4381 180.949 72.4381 181.792C72.4381 182.624 72.2515 183.365 71.8781 184.016C71.5155 184.656 71.0088 185.163 70.3581 185.536C69.7075 185.899 68.9715 186.08 68.1501 186.08ZM68.1501 185.072C68.7581 185.072 69.2968 184.939 69.7661 184.672C70.2355 184.395 70.6035 184.011 70.8701 183.52C71.1475 183.019 71.2861 182.443 71.2861 181.792C71.2861 181.131 71.1475 180.555 70.8701 180.064C70.6035 179.573 70.2355 179.195 69.7661 178.928C69.2968 178.651 68.7635 178.512 68.1661 178.512C67.5688 178.512 67.0355 178.651 66.5661 178.928C66.0968 179.195 65.7235 179.573 65.4461 180.064C65.1688 180.555 65.0301 181.131 65.0301 181.792C65.0301 182.443 65.1688 183.019 65.4461 183.52C65.7235 184.011 66.0968 184.395 66.5661 184.672C67.0355 184.939 67.5635 185.072 68.1501 185.072ZM80.386 185.008L80.13 185.312V177.6H81.266V185.312L80.962 185.008H85.65L85.346 185.312V177.6H86.482V186H74.866V177.6H76.002V185.312L75.714 185.008H80.386ZM89.7098 186V177.6H90.8458V184.272L96.4618 177.6H97.4698V186H96.3338V179.312L90.7338 186H89.7098ZM102.325 186V178.288L102.613 178.592H99.1414V177.6H106.645V178.592H103.173L103.461 178.288V186H102.325ZM116.48 186V177.6H117.616V186H116.48ZM111.824 180.56C112.88 180.571 113.685 180.805 114.24 181.264C114.795 181.723 115.072 182.384 115.072 183.248C115.072 184.144 114.773 184.832 114.176 185.312C113.579 185.792 112.725 186.027 111.616 186.016L108.288 186V177.6H109.424V180.528L111.824 180.56ZM111.536 185.152C112.325 185.163 112.917 185.008 113.312 184.688C113.717 184.357 113.92 183.877 113.92 183.248C113.92 182.619 113.723 182.16 113.328 181.872C112.933 181.573 112.336 181.419 111.536 181.408L109.424 181.376V185.12L111.536 185.152ZM125.038 186V177.6H132.59V186H131.454V178.288L131.742 178.592H125.886L126.174 178.288V186H125.038ZM139.275 186.08C138.464 186.08 137.734 185.899 137.083 185.536C136.443 185.163 135.936 184.656 135.563 184.016C135.19 183.365 135.003 182.624 135.003 181.792C135.003 180.949 135.19 180.208 135.563 179.568C135.936 178.928 136.443 178.427 137.083 178.064C137.723 177.701 138.454 177.52 139.275 177.52C140.107 177.52 140.843 177.701 141.483 178.064C142.134 178.427 142.64 178.928 143.003 179.568C143.376 180.208 143.563 180.949 143.563 181.792C143.563 182.624 143.376 183.365 143.003 184.016C142.64 184.656 142.134 185.163 141.483 185.536C140.832 185.899 140.096 186.08 139.275 186.08ZM139.275 185.072C139.883 185.072 140.422 184.939 140.891 184.672C141.36 184.395 141.728 184.011 141.995 183.52C142.272 183.019 142.411 182.443 142.411 181.792C142.411 181.131 142.272 180.555 141.995 180.064C141.728 179.573 141.36 179.195 140.891 178.928C140.422 178.651 139.888 178.512 139.291 178.512C138.694 178.512 138.16 178.651 137.691 178.928C137.222 179.195 136.848 179.573 136.571 180.064C136.294 180.555 136.155 181.131 136.155 181.792C136.155 182.443 136.294 183.019 136.571 183.52C136.848 184.011 137.222 184.395 137.691 184.672C138.16 184.939 138.688 185.072 139.275 185.072ZM153.635 186.08C152.824 186.08 152.093 185.899 151.443 185.536C150.803 185.163 150.296 184.656 149.923 184.016C149.549 183.365 149.363 182.624 149.363 181.792C149.363 180.949 149.549 180.208 149.923 179.568C150.296 178.928 150.803 178.427 151.443 178.064C152.083 177.701 152.813 177.52 153.635 177.52C154.467 177.52 155.203 177.701 155.843 178.064C156.493 178.427 157 178.928 157.363 179.568C157.736 180.208 157.923 180.949 157.923 181.792C157.923 182.624 157.736 183.365 157.363 184.016C157 184.656 156.493 185.163 155.843 185.536C155.192 185.899 154.456 186.08 153.635 186.08ZM153.635 185.072C154.243 185.072 154.781 184.939 155.251 184.672C155.72 184.395 156.088 184.011 156.355 183.52C156.632 183.019 156.771 182.443 156.771 181.792C156.771 181.131 156.632 180.555 156.355 180.064C156.088 179.573 155.72 179.195 155.251 178.928C154.781 178.651 154.248 178.512 153.651 178.512C153.053 178.512 152.52 178.651 152.051 178.928C151.581 179.195 151.208 179.573 150.931 180.064C150.653 180.555 150.515 181.131 150.515 181.792C150.515 182.443 150.653 183.019 150.931 183.52C151.208 184.011 151.581 184.395 152.051 184.672C152.52 184.939 153.048 185.072 153.635 185.072ZM164.686 186.08C163.961 186.08 163.305 185.915 162.718 185.584C162.132 185.243 161.662 184.757 161.31 184.128C160.969 183.488 160.798 182.709 160.798 181.792C160.798 180.875 160.969 180.101 161.31 179.472C161.652 178.832 162.116 178.347 162.702 178.016C163.289 177.685 163.95 177.52 164.686 177.52C165.486 177.52 166.201 177.701 166.83 178.064C167.47 178.416 167.972 178.917 168.334 179.568C168.697 180.208 168.878 180.949 168.878 181.792C168.878 182.645 168.697 183.392 168.334 184.032C167.972 184.672 167.47 185.173 166.83 185.536C166.201 185.899 165.486 186.08 164.686 186.08ZM160.35 189.104V177.6H161.438V180.128L161.326 181.808L161.486 183.504V189.104H160.35ZM164.606 185.072C165.204 185.072 165.737 184.939 166.206 184.672C166.676 184.395 167.049 184.011 167.326 183.52C167.604 183.019 167.742 182.443 167.742 181.792C167.742 181.141 167.604 180.571 167.326 180.08C167.049 179.589 166.676 179.205 166.206 178.928C165.737 178.651 165.204 178.512 164.606 178.512C164.009 178.512 163.47 178.651 162.99 178.928C162.521 179.205 162.148 179.589 161.87 180.08C161.604 180.571 161.47 181.141 161.47 181.792C161.47 182.443 161.604 183.019 161.87 183.52C162.148 184.011 162.521 184.395 162.99 184.672C163.47 184.939 164.009 185.072 164.606 185.072ZM171.319 186V177.6H172.455V184.272L178.071 177.6H179.079V186H177.943V179.312L172.343 186H171.319ZM182.335 186V177.6H188.287V178.592H183.183L183.471 178.304V186H182.335ZM189.929 186V177.6H191.065V184.272L196.681 177.6H197.689V186H196.553V179.312L190.953 186H189.929ZM200.944 186V177.6H202.08V181.312H207.376V177.6H208.512V186H207.376V182.288H202.08V186H200.944ZM216.957 186V184.144L216.909 183.84V180.736C216.909 180.021 216.706 179.472 216.301 179.088C215.906 178.704 215.314 178.512 214.525 178.512C213.981 178.512 213.464 178.603 212.973 178.784C212.482 178.965 212.066 179.205 211.725 179.504L211.213 178.656C211.64 178.293 212.152 178.016 212.749 177.824C213.346 177.621 213.976 177.52 214.637 177.52C215.725 177.52 216.562 177.792 217.149 178.336C217.746 178.869 218.045 179.685 218.045 180.784V186H216.957ZM214.061 186.08C213.432 186.08 212.882 185.979 212.413 185.776C211.954 185.563 211.602 185.275 211.357 184.912C211.112 184.539 210.989 184.112 210.989 183.632C210.989 183.195 211.09 182.8 211.293 182.448C211.506 182.085 211.848 181.797 212.317 181.584C212.797 181.36 213.437 181.248 214.237 181.248H217.133V182.096H214.269C213.458 182.096 212.893 182.24 212.573 182.528C212.264 182.816 212.109 183.173 212.109 183.6C212.109 184.08 212.296 184.464 212.669 184.752C213.042 185.04 213.565 185.184 214.237 185.184C214.877 185.184 215.426 185.04 215.885 184.752C216.354 184.453 216.696 184.027 216.909 183.472L217.165 184.256C216.952 184.811 216.578 185.253 216.045 185.584C215.522 185.915 214.861 186.08 214.061 186.08ZM219.533 185.984L219.613 185.008C219.688 185.019 219.757 185.035 219.821 185.056C219.896 185.067 219.96 185.072 220.013 185.072C220.354 185.072 220.626 184.944 220.829 184.688C221.042 184.432 221.202 184.091 221.309 183.664C221.416 183.237 221.49 182.757 221.533 182.224C221.576 181.68 221.613 181.136 221.645 180.592L221.789 177.6H227.949V186H226.813V178.256L227.101 178.592H222.525L222.797 178.24L222.669 180.672C222.637 181.397 222.578 182.091 222.493 182.752C222.418 183.413 222.296 183.995 222.125 184.496C221.965 184.997 221.741 185.392 221.453 185.68C221.165 185.957 220.797 186.096 220.349 186.096C220.221 186.096 220.088 186.085 219.949 186.064C219.821 186.043 219.682 186.016 219.533 185.984ZM234.795 180.56C235.851 180.571 236.651 180.805 237.195 181.264C237.749 181.723 238.027 182.384 238.027 183.248C238.027 184.144 237.728 184.832 237.131 185.312C236.544 185.792 235.691 186.027 234.571 186.016L231.179 186V177.6H232.315V180.528L234.795 180.56ZM234.507 185.152C235.285 185.163 235.872 185.008 236.267 184.688C236.672 184.357 236.875 183.877 236.875 183.248C236.875 182.619 236.677 182.16 236.283 181.872C235.888 181.573 235.296 181.419 234.507 181.408L232.315 181.376V185.12L234.507 185.152ZM240.194 186V177.6H241.33V181.312H246.626V177.6H247.762V186H246.626V182.288H241.33V186H240.194ZM259.183 186V177.6H260.319V186H259.183ZM254.527 180.56C255.583 180.571 256.388 180.805 256.943 181.264C257.498 181.723 257.775 182.384 257.775 183.248C257.775 184.144 257.476 184.832 256.879 185.312C256.282 185.792 255.428 186.027 254.319 186.016L250.991 186V177.6H252.127V180.528L254.527 180.56ZM254.239 185.152C255.028 185.163 255.62 185.008 256.015 184.688C256.42 184.357 256.623 183.877 256.623 183.248C256.623 182.619 256.426 182.16 256.031 181.872C255.636 181.573 255.039 181.419 254.239 181.408L252.127 181.376V185.12L254.239 185.152ZM263.554 186V177.6H264.706L268.514 184.048H268.034L271.906 177.6H272.962V186H271.922V178.896L272.13 178.992L268.514 184.976H268.002L264.354 178.928L264.594 178.88V186H263.554ZM0.08 209.984L0.16 209.008C0.234667 209.019 0.304 209.035 0.368 209.056C0.442667 209.067 0.506667 209.072 0.56 209.072C0.901333 209.072 1.17333 208.944 1.376 208.688C1.58933 208.432 1.74933 208.091 1.856 207.664C1.96267 207.237 2.03733 206.757 2.08 206.224C2.12267 205.68 2.16 205.136 2.192 204.592L2.336 201.6H8.496V210H7.36V202.256L7.648 202.592H3.072L3.344 202.24L3.216 204.672C3.184 205.397 3.12533 206.091 3.04 206.752C2.96533 207.413 2.84267 207.995 2.672 208.496C2.512 208.997 2.288 209.392 2 209.68C1.712 209.957 1.344 210.096 0.896 210.096C0.768 210.096 0.634667 210.085 0.496 210.064C0.368 210.043 0.229333 210.016 0.08 209.984ZM15.3254 210.08C14.4507 210.08 13.6827 209.899 13.0214 209.536C12.36 209.163 11.8427 208.656 11.4694 208.016C11.096 207.365 10.9094 206.624 10.9094 205.792C10.9094 204.96 11.0854 204.224 11.4374 203.584C11.8 202.944 12.2907 202.443 12.9094 202.08C13.5387 201.707 14.2427 201.52 15.0214 201.52C15.8107 201.52 16.5094 201.701 17.1174 202.064C17.736 202.416 18.2214 202.917 18.5734 203.568C18.9254 204.208 19.1014 204.949 19.1014 205.792C19.1014 205.845 19.096 205.904 19.0854 205.968C19.0854 206.021 19.0854 206.08 19.0854 206.144H11.7734V205.296H18.4774L18.0294 205.632C18.0294 205.024 17.896 204.485 17.6294 204.016C17.3734 203.536 17.0214 203.163 16.5734 202.896C16.1254 202.629 15.608 202.496 15.0214 202.496C14.4454 202.496 13.928 202.629 13.4694 202.896C13.0107 203.163 12.6534 203.536 12.3974 204.016C12.1414 204.496 12.0134 205.045 12.0134 205.664V205.84C12.0134 206.48 12.152 207.045 12.4294 207.536C12.7174 208.016 13.112 208.395 13.6134 208.672C14.1254 208.939 14.7067 209.072 15.3574 209.072C15.8694 209.072 16.344 208.981 16.7814 208.8C17.2294 208.619 17.6134 208.341 17.9334 207.968L18.5734 208.704C18.2 209.152 17.7307 209.493 17.1654 209.728C16.6107 209.963 15.9974 210.08 15.3254 210.08ZM27.776 210L24.32 205.84L25.264 205.28L29.12 210H27.776ZM21.616 210V201.6H22.752V210H21.616ZM22.4 206.256V205.28H25.104V206.256H22.4ZM25.36 205.92L24.304 205.76L27.648 201.6H28.88L25.36 205.92ZM35.9726 210V208.144L35.9246 207.84V204.736C35.9246 204.021 35.722 203.472 35.3166 203.088C34.922 202.704 34.33 202.512 33.5406 202.512C32.9966 202.512 32.4793 202.603 31.9886 202.784C31.498 202.965 31.082 203.205 30.7406 203.504L30.2286 202.656C30.6553 202.293 31.1673 202.016 31.7646 201.824C32.362 201.621 32.9913 201.52 33.6526 201.52C34.7406 201.52 35.578 201.792 36.1646 202.336C36.762 202.869 37.0606 203.685 37.0606 204.784V210H35.9726ZM33.0766 210.08C32.4473 210.08 31.898 209.979 31.4286 209.776C30.97 209.563 30.618 209.275 30.3726 208.912C30.1273 208.539 30.0046 208.112 30.0046 207.632C30.0046 207.195 30.106 206.8 30.3086 206.448C30.522 206.085 30.8633 205.797 31.3326 205.584C31.8126 205.36 32.4526 205.248 33.2526 205.248H36.1486V206.096H33.2846C32.474 206.096 31.9086 206.24 31.5886 206.528C31.2793 206.816 31.1246 207.173 31.1246 207.6C31.1246 208.08 31.3113 208.464 31.6846 208.752C32.058 209.04 32.5806 209.184 33.2526 209.184C33.8926 209.184 34.442 209.04 34.9006 208.752C35.37 208.453 35.7113 208.027 35.9246 207.472L36.1806 208.256C35.9673 208.811 35.594 209.253 35.0606 209.584C34.538 209.915 33.8766 210.08 33.0766 210.08ZM38.5488 209.984L38.6288 209.008C38.7034 209.019 38.7728 209.035 38.8368 209.056C38.9114 209.067 38.9754 209.072 39.0288 209.072C39.3701 209.072 39.6421 208.944 39.8448 208.688C40.0581 208.432 40.2181 208.091 40.3248 207.664C40.4314 207.237 40.5061 206.757 40.5488 206.224C40.5914 205.68 40.6288 205.136 40.6608 204.592L40.8048 201.6H46.9648V210H45.8288V202.256L46.1168 202.592H41.5408L41.8128 202.24L41.6848 204.672C41.6528 205.397 41.5941 206.091 41.5088 206.752C41.4341 207.413 41.3114 207.995 41.1408 208.496C40.9808 208.997 40.7568 209.392 40.4688 209.68C40.1808 209.957 39.8128 210.096 39.3648 210.096C39.2368 210.096 39.1034 210.085 38.9648 210.064C38.8368 210.043 38.6981 210.016 38.5488 209.984ZM55.4101 210V208.144L55.3621 207.84V204.736C55.3621 204.021 55.1595 203.472 54.7541 203.088C54.3595 202.704 53.7675 202.512 52.9781 202.512C52.4341 202.512 51.9168 202.603 51.4261 202.784C50.9355 202.965 50.5195 203.205 50.1781 203.504L49.6661 202.656C50.0928 202.293 50.6048 202.016 51.2021 201.824C51.7995 201.621 52.4288 201.52 53.0901 201.52C54.1781 201.52 55.0155 201.792 55.6021 202.336C56.1995 202.869 56.4981 203.685 56.4981 204.784V210H55.4101ZM52.5141 210.08C51.8848 210.08 51.3355 209.979 50.8661 209.776C50.4075 209.563 50.0555 209.275 49.8101 208.912C49.5648 208.539 49.4421 208.112 49.4421 207.632C49.4421 207.195 49.5435 206.8 49.7461 206.448C49.9595 206.085 50.3008 205.797 50.7701 205.584C51.2501 205.36 51.8901 205.248 52.6901 205.248H55.5861V206.096H52.7221C51.9115 206.096 51.3461 206.24 51.0261 206.528C50.7168 206.816 50.5621 207.173 50.5621 207.6C50.5621 208.08 50.7488 208.464 51.1221 208.752C51.4955 209.04 52.0181 209.184 52.6901 209.184C53.3301 209.184 53.8795 209.04 54.3381 208.752C54.8075 208.453 55.1488 208.027 55.3621 207.472L55.6181 208.256C55.4048 208.811 55.0315 209.253 54.4981 209.584C53.9755 209.915 53.3141 210.08 52.5141 210.08ZM59.5223 210V201.6H60.6743L64.4823 208.048H64.0023L67.8743 201.6H68.9303V210H67.8903V202.896L68.0983 202.992L64.4823 208.976H63.9703L60.3223 202.928L60.5623 202.88V210H59.5223ZM71.4429 212.336L72.1469 209.376L72.2749 210.064C72.0295 210.064 71.8215 209.984 71.6509 209.824C71.4909 209.664 71.4109 209.456 71.4109 209.2C71.4109 208.944 71.4909 208.736 71.6509 208.576C71.8215 208.416 72.0242 208.336 72.2589 208.336C72.5042 208.336 72.7015 208.421 72.8509 208.592C73.0109 208.763 73.0909 208.965 73.0909 209.2C73.0909 209.285 73.0855 209.371 73.0749 209.456C73.0642 209.541 73.0429 209.637 73.0109 209.744C72.9789 209.851 72.9362 209.979 72.8829 210.128L72.2109 212.336H71.4429ZM83.261 210.08C82.429 210.08 81.6823 209.899 81.021 209.536C80.3703 209.163 79.8583 208.656 79.485 208.016C79.1117 207.365 78.925 206.624 78.925 205.792C78.925 204.949 79.1117 204.208 79.485 203.568C79.8583 202.928 80.3703 202.427 81.021 202.064C81.6823 201.701 82.429 201.52 83.261 201.52C83.9757 201.52 84.621 201.659 85.197 201.936C85.773 202.213 86.2263 202.629 86.557 203.184L85.709 203.76C85.421 203.333 85.0637 203.019 84.637 202.816C84.2103 202.613 83.7463 202.512 83.245 202.512C82.6477 202.512 82.109 202.651 81.629 202.928C81.149 203.195 80.7703 203.573 80.493 204.064C80.2157 204.555 80.077 205.131 80.077 205.792C80.077 206.453 80.2157 207.029 80.493 207.52C80.7703 208.011 81.149 208.395 81.629 208.672C82.109 208.939 82.6477 209.072 83.245 209.072C83.7463 209.072 84.2103 208.971 84.637 208.768C85.0637 208.565 85.421 208.256 85.709 207.84L86.557 208.416C86.2263 208.96 85.773 209.376 85.197 209.664C84.621 209.941 83.9757 210.08 83.261 210.08ZM93.9726 210V208.144L93.9246 207.84V204.736C93.9246 204.021 93.722 203.472 93.3166 203.088C92.922 202.704 92.33 202.512 91.5406 202.512C90.9966 202.512 90.4793 202.603 89.9886 202.784C89.498 202.965 89.082 203.205 88.7406 203.504L88.2286 202.656C88.6553 202.293 89.1673 202.016 89.7646 201.824C90.362 201.621 90.9913 201.52 91.6526 201.52C92.7406 201.52 93.578 201.792 94.1646 202.336C94.762 202.869 95.0606 203.685 95.0606 204.784V210H93.9726ZM91.0766 210.08C90.4473 210.08 89.898 209.979 89.4286 209.776C88.97 209.563 88.618 209.275 88.3726 208.912C88.1273 208.539 88.0046 208.112 88.0046 207.632C88.0046 207.195 88.106 206.8 88.3086 206.448C88.522 206.085 88.8633 205.797 89.3326 205.584C89.8126 205.36 90.4526 205.248 91.2526 205.248H94.1486V206.096H91.2846C90.474 206.096 89.9086 206.24 89.5886 206.528C89.2793 206.816 89.1246 207.173 89.1246 207.6C89.1246 208.08 89.3113 208.464 89.6846 208.752C90.058 209.04 90.5806 209.184 91.2526 209.184C91.8926 209.184 92.442 209.04 92.9006 208.752C93.37 208.453 93.7113 208.027 93.9246 207.472L94.1806 208.256C93.9673 208.811 93.594 209.253 93.0606 209.584C92.538 209.915 91.8766 210.08 91.0766 210.08ZM103.845 209.456V202.592H99.7968L99.7008 204.464C99.6794 205.029 99.6421 205.584 99.5888 206.128C99.5461 206.672 99.4661 207.173 99.3488 207.632C99.2421 208.08 99.0874 208.448 98.8848 208.736C98.6821 209.013 98.4208 209.173 98.1008 209.216L96.9648 209.008C97.2954 209.019 97.5674 208.901 97.7808 208.656C97.9941 208.4 98.1594 208.053 98.2768 207.616C98.3941 207.179 98.4794 206.683 98.5328 206.128C98.5861 205.563 98.6288 204.987 98.6608 204.4L98.7728 201.6H104.981V209.456H103.845ZM96.6128 212.032V209.008H106.293V212.032H105.221V210H97.6848V212.032H96.6128ZM113.931 210V206.976L114.139 207.216H111.291C110.213 207.216 109.371 206.981 108.763 206.512C108.155 206.043 107.851 205.36 107.851 204.464C107.851 203.504 108.176 202.789 108.827 202.32C109.477 201.84 110.347 201.6 111.435 201.6H114.971V210H113.931ZM107.787 210L110.091 206.768H111.275L109.019 210H107.787ZM113.931 206.64V202.256L114.139 202.592H111.467C110.688 202.592 110.08 202.741 109.643 203.04C109.216 203.339 109.003 203.824 109.003 204.496C109.003 205.744 109.797 206.368 111.387 206.368H114.139L113.931 206.64ZM119.81 210V202.288L120.098 202.592H116.626V201.6H124.13V202.592H120.658L120.946 202.288V210H119.81ZM128.902 210.08C128.07 210.08 127.323 209.899 126.662 209.536C126.011 209.163 125.499 208.656 125.126 208.016C124.752 207.365 124.566 206.624 124.566 205.792C124.566 204.949 124.752 204.208 125.126 203.568C125.499 202.928 126.011 202.427 126.662 202.064C127.323 201.701 128.07 201.52 128.902 201.52C129.616 201.52 130.262 201.659 130.838 201.936C131.414 202.213 131.867 202.629 132.198 203.184L131.35 203.76C131.062 203.333 130.704 203.019 130.278 202.816C129.851 202.613 129.387 202.512 128.886 202.512C128.288 202.512 127.75 202.651 127.27 202.928C126.79 203.195 126.411 203.573 126.134 204.064C125.856 204.555 125.718 205.131 125.718 205.792C125.718 206.453 125.856 207.029 126.134 207.52C126.411 208.011 126.79 208.395 127.27 208.672C127.75 208.939 128.288 209.072 128.886 209.072C129.387 209.072 129.851 208.971 130.278 208.768C130.704 208.565 131.062 208.256 131.35 207.84L132.198 208.416C131.867 208.96 131.414 209.376 130.838 209.664C130.262 209.941 129.616 210.08 128.902 210.08ZM139.54 210V206.976L139.748 207.216H136.9C135.823 207.216 134.98 206.981 134.372 206.512C133.764 206.043 133.46 205.36 133.46 204.464C133.46 203.504 133.785 202.789 134.436 202.32C135.087 201.84 135.956 201.6 137.044 201.6H140.58V210H139.54ZM133.396 210L135.7 206.768H136.884L134.628 210H133.396ZM139.54 206.64V202.256L139.748 202.592H137.076C136.297 202.592 135.689 202.741 135.252 203.04C134.825 203.339 134.612 203.824 134.612 204.496C134.612 205.744 135.407 206.368 136.996 206.368H139.748L139.54 206.64ZM151.783 210.096C151.1 210.096 150.492 209.984 149.959 209.76C149.436 209.536 148.988 209.195 148.615 208.736C148.241 208.277 147.959 207.712 147.767 207.04C147.575 206.357 147.479 205.568 147.479 204.672C147.479 203.872 147.553 203.173 147.703 202.576C147.852 201.968 148.06 201.445 148.327 201.008C148.593 200.571 148.903 200.203 149.255 199.904C149.617 199.595 150.007 199.349 150.423 199.168C150.849 198.976 151.287 198.832 151.735 198.736L155.511 197.856L155.703 198.912L152.151 199.712C151.927 199.765 151.655 199.84 151.335 199.936C151.025 200.032 150.705 200.176 150.375 200.368C150.055 200.56 149.756 200.827 149.479 201.168C149.201 201.509 148.977 201.952 148.807 202.496C148.647 203.029 148.567 203.696 148.567 204.496C148.567 204.667 148.572 204.805 148.583 204.912C148.593 205.008 148.604 205.115 148.615 205.232C148.636 205.339 148.652 205.499 148.663 205.712L148.167 205.296C148.284 204.645 148.524 204.08 148.887 203.6C149.249 203.109 149.703 202.731 150.247 202.464C150.801 202.187 151.415 202.048 152.087 202.048C152.865 202.048 153.559 202.219 154.167 202.56C154.775 202.891 155.249 203.355 155.591 203.952C155.943 204.549 156.119 205.243 156.119 206.032C156.119 206.811 155.937 207.509 155.575 208.128C155.223 208.747 154.721 209.232 154.071 209.584C153.42 209.925 152.657 210.096 151.783 210.096ZM151.911 209.152C152.508 209.152 153.036 209.019 153.495 208.752C153.953 208.475 154.311 208.101 154.567 207.632C154.833 207.163 154.967 206.635 154.967 206.048C154.967 205.472 154.833 204.96 154.567 204.512C154.311 204.064 153.953 203.712 153.495 203.456C153.036 203.189 152.503 203.056 151.895 203.056C151.297 203.056 150.769 203.184 150.311 203.44C149.852 203.685 149.489 204.032 149.223 204.48C148.967 204.928 148.839 205.445 148.839 206.032C148.839 206.619 148.967 207.147 149.223 207.616C149.489 208.085 149.852 208.459 150.311 208.736C150.78 209.013 151.313 209.152 151.911 209.152ZM162.154 210.08C161.279 210.08 160.511 209.899 159.85 209.536C159.188 209.163 158.671 208.656 158.298 208.016C157.924 207.365 157.738 206.624 157.738 205.792C157.738 204.96 157.914 204.224 158.266 203.584C158.628 202.944 159.119 202.443 159.738 202.08C160.367 201.707 161.071 201.52 161.85 201.52C162.639 201.52 163.338 201.701 163.946 202.064C164.564 202.416 165.05 202.917 165.402 203.568C165.754 204.208 165.93 204.949 165.93 205.792C165.93 205.845 165.924 205.904 165.914 205.968C165.914 206.021 165.914 206.08 165.914 206.144H158.602V205.296H165.306L164.858 205.632C164.858 205.024 164.724 204.485 164.458 204.016C164.202 203.536 163.85 203.163 163.402 202.896C162.954 202.629 162.436 202.496 161.85 202.496C161.274 202.496 160.756 202.629 160.298 202.896C159.839 203.163 159.482 203.536 159.226 204.016C158.97 204.496 158.842 205.045 158.842 205.664V205.84C158.842 206.48 158.98 207.045 159.258 207.536C159.546 208.016 159.94 208.395 160.442 208.672C160.954 208.939 161.535 209.072 162.186 209.072C162.698 209.072 163.172 208.981 163.61 208.8C164.058 208.619 164.442 208.341 164.762 207.968L165.402 208.704C165.028 209.152 164.559 209.493 163.994 209.728C163.439 209.963 162.826 210.08 162.154 210.08ZM170.466 210.096C169.858 210.096 169.255 210.011 168.658 209.84C168.06 209.669 167.532 209.408 167.074 209.056L167.442 208.208C167.847 208.507 168.316 208.736 168.85 208.896C169.383 209.045 169.911 209.12 170.434 209.12C170.956 209.109 171.41 209.035 171.794 208.896C172.178 208.757 172.476 208.565 172.69 208.32C172.903 208.075 173.01 207.797 173.01 207.488C173.01 207.04 172.807 206.693 172.402 206.448C171.996 206.192 171.442 206.064 170.738 206.064H169.298V205.232H170.658C171.074 205.232 171.442 205.179 171.762 205.072C172.082 204.965 172.327 204.811 172.498 204.608C172.679 204.405 172.77 204.165 172.77 203.888C172.77 203.589 172.663 203.333 172.45 203.12C172.247 202.907 171.964 202.747 171.602 202.64C171.239 202.533 170.828 202.48 170.37 202.48C169.954 202.491 169.522 202.555 169.074 202.672C168.626 202.779 168.183 202.944 167.746 203.168L167.426 202.288C167.916 202.032 168.402 201.84 168.882 201.712C169.372 201.573 169.863 201.504 170.354 201.504C171.026 201.483 171.628 201.563 172.162 201.744C172.706 201.925 173.138 202.187 173.458 202.528C173.778 202.859 173.938 203.259 173.938 203.728C173.938 204.144 173.81 204.507 173.554 204.816C173.298 205.125 172.956 205.365 172.53 205.536C172.103 205.707 171.618 205.792 171.074 205.792L171.122 205.488C172.082 205.488 172.828 205.675 173.362 206.048C173.906 206.421 174.178 206.928 174.178 207.568C174.178 208.069 174.012 208.512 173.682 208.896C173.351 209.269 172.903 209.563 172.338 209.776C171.783 209.989 171.159 210.096 170.466 210.096ZM184.464 210.08C183.632 210.08 182.885 209.899 182.224 209.536C181.573 209.163 181.061 208.656 180.688 208.016C180.315 207.365 180.128 206.624 180.128 205.792C180.128 204.949 180.315 204.208 180.688 203.568C181.061 202.928 181.573 202.427 182.224 202.064C182.885 201.701 183.632 201.52 184.464 201.52C185.179 201.52 185.824 201.659 186.4 201.936C186.976 202.213 187.429 202.629 187.76 203.184L186.912 203.76C186.624 203.333 186.267 203.019 185.84 202.816C185.413 202.613 184.949 202.512 184.448 202.512C183.851 202.512 183.312 202.651 182.832 202.928C182.352 203.195 181.973 203.573 181.696 204.064C181.419 204.555 181.28 205.131 181.28 205.792C181.28 206.453 181.419 207.029 181.696 207.52C181.973 208.011 182.352 208.395 182.832 208.672C183.312 208.939 183.851 209.072 184.448 209.072C184.949 209.072 185.413 208.971 185.84 208.768C186.267 208.565 186.624 208.256 186.912 207.84L187.76 208.416C187.429 208.96 186.976 209.376 186.4 209.664C185.824 209.941 185.179 210.08 184.464 210.08ZM196.12 210L192.664 205.84L193.608 205.28L197.464 210H196.12ZM189.96 210V201.6H191.096V210H189.96ZM190.744 206.256V205.28H193.448V206.256H190.744ZM193.704 205.92L192.648 205.76L195.992 201.6H197.224L193.704 205.92ZM197.721 209.984L197.801 209.008C197.875 209.019 197.945 209.035 198.009 209.056C198.083 209.067 198.147 209.072 198.201 209.072C198.542 209.072 198.814 208.944 199.017 208.688C199.23 208.432 199.39 208.091 199.497 207.664C199.603 207.237 199.678 206.757 199.721 206.224C199.763 205.68 199.801 205.136 199.833 204.592L199.977 201.6H206.137V210H205.001V202.256L205.289 202.592H200.713L200.985 202.24L200.857 204.672C200.825 205.397 200.766 206.091 200.681 206.752C200.606 207.413 200.483 207.995 200.313 208.496C200.153 208.997 199.929 209.392 199.641 209.68C199.353 209.957 198.985 210.096 198.537 210.096C198.409 210.096 198.275 210.085 198.137 210.064C198.009 210.043 197.87 210.016 197.721 209.984ZM214.582 210V208.144L214.534 207.84V204.736C214.534 204.021 214.331 203.472 213.926 203.088C213.531 202.704 212.939 202.512 212.15 202.512C211.606 202.512 211.089 202.603 210.598 202.784C210.107 202.965 209.691 203.205 209.35 203.504L208.838 202.656C209.265 202.293 209.777 202.016 210.374 201.824C210.971 201.621 211.601 201.52 212.262 201.52C213.35 201.52 214.187 201.792 214.774 202.336C215.371 202.869 215.67 203.685 215.67 204.784V210H214.582ZM211.686 210.08C211.057 210.08 210.507 209.979 210.038 209.776C209.579 209.563 209.227 209.275 208.982 208.912C208.737 208.539 208.614 208.112 208.614 207.632C208.614 207.195 208.715 206.8 208.918 206.448C209.131 206.085 209.473 205.797 209.942 205.584C210.422 205.36 211.062 205.248 211.862 205.248H214.758V206.096H211.894C211.083 206.096 210.518 206.24 210.198 206.528C209.889 206.816 209.734 207.173 209.734 207.6C209.734 208.08 209.921 208.464 210.294 208.752C210.667 209.04 211.19 209.184 211.862 209.184C212.502 209.184 213.051 209.04 213.51 208.752C213.979 208.453 214.321 208.027 214.534 207.472L214.79 208.256C214.577 208.811 214.203 209.253 213.67 209.584C213.147 209.915 212.486 210.08 211.686 210.08ZM224.454 209.456V202.592H220.406L220.31 204.464C220.289 205.029 220.251 205.584 220.198 206.128C220.155 206.672 220.075 207.173 219.958 207.632C219.851 208.08 219.697 208.448 219.494 208.736C219.291 209.013 219.03 209.173 218.71 209.216L217.574 209.008C217.905 209.019 218.177 208.901 218.39 208.656C218.603 208.4 218.769 208.053 218.886 207.616C219.003 207.179 219.089 206.683 219.142 206.128C219.195 205.563 219.238 204.987 219.27 204.4L219.382 201.6H225.59V209.456H224.454ZM217.222 212.032V209.008H226.902V212.032H225.83V210H218.294V212.032H217.222ZM232.572 210.08C231.761 210.08 231.031 209.899 230.38 209.536C229.74 209.163 229.233 208.656 228.86 208.016C228.487 207.365 228.3 206.624 228.3 205.792C228.3 204.949 228.487 204.208 228.86 203.568C229.233 202.928 229.74 202.427 230.38 202.064C231.02 201.701 231.751 201.52 232.572 201.52C233.404 201.52 234.14 201.701 234.78 202.064C235.431 202.427 235.937 202.928 236.3 203.568C236.673 204.208 236.86 204.949 236.86 205.792C236.86 206.624 236.673 207.365 236.3 208.016C235.937 208.656 235.431 209.163 234.78 209.536C234.129 209.899 233.393 210.08 232.572 210.08ZM232.572 209.072C233.18 209.072 233.719 208.939 234.188 208.672C234.657 208.395 235.025 208.011 235.292 207.52C235.569 207.019 235.708 206.443 235.708 205.792C235.708 205.131 235.569 204.555 235.292 204.064C235.025 203.573 234.657 203.195 234.188 202.928C233.719 202.651 233.185 202.512 232.588 202.512C231.991 202.512 231.457 202.651 230.988 202.928C230.519 203.195 230.145 203.573 229.868 204.064C229.591 204.555 229.452 205.131 229.452 205.792C229.452 206.443 229.591 207.019 229.868 207.52C230.145 208.011 230.519 208.395 230.988 208.672C231.457 208.939 231.985 209.072 232.572 209.072ZM245.448 210L241.992 205.84L242.936 205.28L246.792 210H245.448ZM239.288 210V201.6H240.424V210H239.288ZM240.072 206.256V205.28H242.776V206.256H240.072ZM243.032 205.92L241.976 205.76L245.32 201.6H246.552L243.032 205.92ZM252.772 210V201.6H253.908V208.272L259.524 201.6H260.532V210H259.396V203.312L253.796 210H252.772ZM267.975 210V201.6H273.927V202.592H268.823L269.111 202.304V210H267.975ZM278.635 210.08C277.824 210.08 277.093 209.899 276.443 209.536C275.803 209.163 275.296 208.656 274.923 208.016C274.549 207.365 274.363 206.624 274.363 205.792C274.363 204.949 274.549 204.208 274.923 203.568C275.296 202.928 275.803 202.427 276.443 202.064C277.083 201.701 277.813 201.52 278.635 201.52C279.467 201.52 280.203 201.701 280.843 202.064C281.493 202.427 282 202.928 282.363 203.568C282.736 204.208 282.923 204.949 282.923 205.792C282.923 206.624 282.736 207.365 282.363 208.016C282 208.656 281.493 209.163 280.843 209.536C280.192 209.899 279.456 210.08 278.635 210.08ZM278.635 209.072C279.243 209.072 279.781 208.939 280.251 208.672C280.72 208.395 281.088 208.011 281.355 207.52C281.632 207.019 281.771 206.443 281.771 205.792C281.771 205.131 281.632 204.555 281.355 204.064C281.088 203.573 280.72 203.195 280.251 202.928C279.781 202.651 279.248 202.512 278.651 202.512C278.053 202.512 277.52 202.651 277.051 202.928C276.581 203.195 276.208 203.573 275.931 204.064C275.653 204.555 275.515 205.131 275.515 205.792C275.515 206.443 275.653 207.019 275.931 207.52C276.208 208.011 276.581 208.395 277.051 208.672C277.52 208.939 278.048 209.072 278.635 209.072ZM286.638 210V202.288L286.926 202.592H283.454V201.6H290.958V202.592H287.486L287.774 202.288V210H286.638ZM295.666 210.08C294.855 210.08 294.124 209.899 293.474 209.536C292.834 209.163 292.327 208.656 291.954 208.016C291.58 207.365 291.394 206.624 291.394 205.792C291.394 204.949 291.58 204.208 291.954 203.568C292.327 202.928 292.834 202.427 293.474 202.064C294.114 201.701 294.844 201.52 295.666 201.52C296.498 201.52 297.234 201.701 297.874 202.064C298.524 202.427 299.031 202.928 299.394 203.568C299.767 204.208 299.954 204.949 299.954 205.792C299.954 206.624 299.767 207.365 299.394 208.016C299.031 208.656 298.524 209.163 297.874 209.536C297.223 209.899 296.487 210.08 295.666 210.08ZM295.666 209.072C296.274 209.072 296.812 208.939 297.282 208.672C297.751 208.395 298.119 208.011 298.386 207.52C298.663 207.019 298.802 206.443 298.802 205.792C298.802 205.131 298.663 204.555 298.386 204.064C298.119 203.573 297.751 203.195 297.282 202.928C296.812 202.651 296.279 202.512 295.682 202.512C295.084 202.512 294.551 202.651 294.082 202.928C293.612 203.195 293.239 203.573 292.962 204.064C292.684 204.555 292.546 205.131 292.546 205.792C292.546 206.443 292.684 207.019 292.962 207.52C293.239 208.011 293.612 208.395 294.082 208.672C294.551 208.939 295.079 209.072 295.666 209.072ZM302.382 210V201.6H306.094C307.043 201.6 307.79 201.781 308.334 202.144C308.888 202.507 309.166 203.04 309.166 203.744C309.166 204.427 308.904 204.955 308.382 205.328C307.859 205.691 307.171 205.872 306.318 205.872L306.542 205.536C307.544 205.536 308.28 205.723 308.75 206.096C309.219 206.469 309.454 207.008 309.454 207.712C309.454 208.437 309.187 209.003 308.654 209.408C308.131 209.803 307.315 210 306.206 210H302.382ZM303.486 209.104H306.158C306.872 209.104 307.411 208.992 307.774 208.768C308.147 208.533 308.334 208.16 308.334 207.648C308.334 207.136 308.168 206.763 307.838 206.528C307.507 206.293 306.984 206.176 306.27 206.176H303.486V209.104ZM303.486 205.328H306.014C306.664 205.328 307.16 205.205 307.502 204.96C307.854 204.715 308.03 204.357 308.03 203.888C308.03 203.419 307.854 203.067 307.502 202.832C307.16 202.597 306.664 202.48 306.014 202.48H303.486V205.328ZM320.308 210V201.6H321.444V210H320.308ZM315.652 204.56C316.708 204.571 317.513 204.805 318.068 205.264C318.623 205.723 318.9 206.384 318.9 207.248C318.9 208.144 318.601 208.832 318.004 209.312C317.407 209.792 316.553 210.027 315.444 210.016L312.116 210V201.6H313.252V204.528L315.652 204.56ZM315.364 209.152C316.153 209.163 316.745 209.008 317.14 208.688C317.545 208.357 317.748 207.877 317.748 207.248C317.748 206.619 317.551 206.16 317.156 205.872C316.761 205.573 316.164 205.419 315.364 205.408L313.252 205.376V209.12L315.364 209.152ZM7.776 234L4.32 229.84L5.264 229.28L9.12 234H7.776ZM1.616 234V225.6H2.752V234H1.616ZM2.4 230.256V229.28H5.104V230.256H2.4ZM5.36 229.92L4.304 229.76L7.648 225.6H8.88L5.36 229.92ZM18.5564 234.08C17.7457 234.08 17.015 233.899 16.3644 233.536C15.7244 233.163 15.2177 232.656 14.8444 232.016C14.471 231.365 14.2844 230.624 14.2844 229.792C14.2844 228.949 14.471 228.208 14.8444 227.568C15.2177 226.928 15.7244 226.427 16.3644 226.064C17.0044 225.701 17.735 225.52 18.5564 225.52C19.3884 225.52 20.1244 225.701 20.7644 226.064C21.415 226.427 21.9217 226.928 22.2844 227.568C22.6577 228.208 22.8444 228.949 22.8444 229.792C22.8444 230.624 22.6577 231.365 22.2844 232.016C21.9217 232.656 21.415 233.163 20.7644 233.536C20.1137 233.899 19.3777 234.08 18.5564 234.08ZM18.5564 233.072C19.1644 233.072 19.703 232.939 20.1724 232.672C20.6417 232.395 21.0097 232.011 21.2764 231.52C21.5537 231.019 21.6924 230.443 21.6924 229.792C21.6924 229.131 21.5537 228.555 21.2764 228.064C21.0097 227.573 20.6417 227.195 20.1724 226.928C19.703 226.651 19.1697 226.512 18.5724 226.512C17.975 226.512 17.4417 226.651 16.9724 226.928C16.503 227.195 16.1297 227.573 15.8524 228.064C15.575 228.555 15.4364 229.131 15.4364 229.792C15.4364 230.443 15.575 231.019 15.8524 231.52C16.1297 232.011 16.503 232.395 16.9724 232.672C17.4417 232.939 17.9697 233.072 18.5564 233.072ZM26.5598 234V226.288L26.8478 226.592H23.3758V225.6H30.8798V226.592H27.4078L27.6958 226.288V234H26.5598ZM32.5223 234V225.6H40.0743V234H38.9383V226.288L39.2263 226.592H33.3703L33.6583 226.288V234H32.5223ZM47.6395 234.08C46.9142 234.08 46.2582 233.915 45.6715 233.584C45.0848 233.243 44.6155 232.757 44.2635 232.128C43.9222 231.488 43.7515 230.709 43.7515 229.792C43.7515 228.875 43.9222 228.101 44.2635 227.472C44.6048 226.832 45.0688 226.347 45.6555 226.016C46.2422 225.685 46.9035 225.52 47.6395 225.52C48.4395 225.52 49.1542 225.701 49.7835 226.064C50.4235 226.416 50.9248 226.917 51.2875 227.568C51.6502 228.208 51.8315 228.949 51.8315 229.792C51.8315 230.645 51.6502 231.392 51.2875 232.032C50.9248 232.672 50.4235 233.173 49.7835 233.536C49.1542 233.899 48.4395 234.08 47.6395 234.08ZM43.3035 237.104V225.6H44.3915V228.128L44.2795 229.808L44.4395 231.504V237.104H43.3035ZM47.5595 233.072C48.1568 233.072 48.6902 232.939 49.1595 232.672C49.6288 232.395 50.0022 232.011 50.2795 231.52C50.5568 231.019 50.6955 230.443 50.6955 229.792C50.6955 229.141 50.5568 228.571 50.2795 228.08C50.0022 227.589 49.6288 227.205 49.1595 226.928C48.6902 226.651 48.1568 226.512 47.5595 226.512C46.9622 226.512 46.4235 226.651 45.9435 226.928C45.4742 227.205 45.1008 227.589 44.8235 228.08C44.5568 228.571 44.4235 229.141 44.4235 229.792C44.4235 230.443 44.5568 231.019 44.8235 231.52C45.1008 232.011 45.4742 232.395 45.9435 232.672C46.4235 232.939 46.9622 233.072 47.5595 233.072ZM59.4414 234V232.144L59.3934 231.84V228.736C59.3934 228.021 59.1907 227.472 58.7854 227.088C58.3907 226.704 57.7987 226.512 57.0094 226.512C56.4654 226.512 55.948 226.603 55.4574 226.784C54.9667 226.965 54.5507 227.205 54.2094 227.504L53.6974 226.656C54.124 226.293 54.636 226.016 55.2334 225.824C55.8307 225.621 56.46 225.52 57.1214 225.52C58.2094 225.52 59.0467 225.792 59.6334 226.336C60.2307 226.869 60.5294 227.685 60.5294 228.784V234H59.4414ZM56.5454 234.08C55.916 234.08 55.3667 233.979 54.8974 233.776C54.4387 233.563 54.0867 233.275 53.8414 232.912C53.596 232.539 53.4734 232.112 53.4734 231.632C53.4734 231.195 53.5747 230.8 53.7774 230.448C53.9907 230.085 54.332 229.797 54.8014 229.584C55.2814 229.36 55.9214 229.248 56.7214 229.248H59.6174V230.096H56.7534C55.9427 230.096 55.3774 230.24 55.0574 230.528C54.748 230.816 54.5934 231.173 54.5934 231.6C54.5934 232.08 54.78 232.464 55.1534 232.752C55.5267 233.04 56.0494 233.184 56.7214 233.184C57.3614 233.184 57.9107 233.04 58.3694 232.752C58.8387 232.453 59.18 232.027 59.3934 231.472L59.6494 232.256C59.436 232.811 59.0627 233.253 58.5294 233.584C58.0067 233.915 57.3454 234.08 56.5454 234.08ZM63.5535 234V225.6H67.2655C68.2148 225.6 68.9615 225.781 69.5055 226.144C70.0602 226.507 70.3375 227.04 70.3375 227.744C70.3375 228.427 70.0762 228.955 69.5535 229.328C69.0308 229.691 68.3428 229.872 67.4895 229.872L67.7135 229.536C68.7162 229.536 69.4522 229.723 69.9215 230.096C70.3908 230.469 70.6255 231.008 70.6255 231.712C70.6255 232.437 70.3588 233.003 69.8255 233.408C69.3028 233.803 68.4868 234 67.3775 234H63.5535ZM64.6575 233.104H67.3295C68.0442 233.104 68.5828 232.992 68.9455 232.768C69.3188 232.533 69.5055 232.16 69.5055 231.648C69.5055 231.136 69.3402 230.763 69.0095 230.528C68.6788 230.293 68.1562 230.176 67.4415 230.176H64.6575V233.104ZM64.6575 229.328H67.1855C67.8362 229.328 68.3322 229.205 68.6735 228.96C69.0255 228.715 69.2015 228.357 69.2015 227.888C69.2015 227.419 69.0255 227.067 68.6735 226.832C68.3322 226.597 67.8362 226.48 67.1855 226.48H64.6575V229.328ZM79.4479 234L75.9919 229.84L76.9359 229.28L80.7919 234H79.4479ZM73.2879 234V225.6H74.4239V234H73.2879ZM74.0719 230.256V229.28H76.7759V230.256H74.0719ZM77.0319 229.92L75.9759 229.76L79.3199 225.6H80.5519L77.0319 229.92ZM85.8879 234.08C85.0132 234.08 84.2452 233.899 83.5839 233.536C82.9225 233.163 82.4052 232.656 82.0319 232.016C81.6585 231.365 81.4719 230.624 81.4719 229.792C81.4719 228.96 81.6479 228.224 81.9999 227.584C82.3625 226.944 82.8532 226.443 83.4719 226.08C84.1012 225.707 84.8052 225.52 85.5839 225.52C86.3732 225.52 87.0719 225.701 87.6799 226.064C88.2985 226.416 88.7839 226.917 89.1359 227.568C89.4879 228.208 89.6639 228.949 89.6639 229.792C89.6639 229.845 89.6585 229.904 89.6479 229.968C89.6479 230.021 89.6479 230.08 89.6479 230.144H82.3359V229.296H89.0399L88.5919 229.632C88.5919 229.024 88.4585 228.485 88.1919 228.016C87.9359 227.536 87.5839 227.163 87.1359 226.896C86.6879 226.629 86.1705 226.496 85.5839 226.496C85.0079 226.496 84.4905 226.629 84.0319 226.896C83.5732 227.163 83.2159 227.536 82.9599 228.016C82.7039 228.496 82.5759 229.045 82.5759 229.664V229.84C82.5759 230.48 82.7145 231.045 82.9919 231.536C83.2799 232.016 83.6745 232.395 84.1759 232.672C84.6879 232.939 85.2692 233.072 85.9199 233.072C86.4319 233.072 86.9065 232.981 87.3439 232.8C87.7919 232.619 88.1759 232.341 88.4959 231.968L89.1359 232.704C88.7625 233.152 88.2932 233.493 87.7279 233.728C87.1732 233.963 86.5599 234.08 85.8879 234.08ZM96.51 237.184C96.1153 237.184 95.7367 237.12 95.374 236.992C95.022 236.864 94.718 236.672 94.462 236.416L94.99 235.568C95.2033 235.771 95.4327 235.925 95.678 236.032C95.934 236.149 96.2167 236.208 96.526 236.208C96.8993 236.208 97.2193 236.101 97.486 235.888C97.7633 235.685 98.0247 235.323 98.27 234.8L98.814 233.568L98.942 233.392L102.398 225.6H103.518L99.31 235.008C99.0753 235.552 98.814 235.984 98.526 236.304C98.2487 236.624 97.9447 236.848 97.614 236.976C97.2833 237.115 96.9153 237.184 96.51 237.184ZM98.75 234.24L94.878 225.6H96.062L99.486 233.312L98.75 234.24ZM114.772 234L111.892 229.84L112.836 229.28L116.132 234H114.772ZM110.004 230.256V229.28H112.66V230.256H110.004ZM112.948 229.92L111.86 229.76L114.66 225.6H115.892L112.948 229.92ZM104.82 234H103.46L106.756 229.28L107.684 229.84L104.82 234ZM110.356 234H109.22V225.6H110.356V234ZM109.572 230.256H106.932V229.28H109.572V230.256ZM106.66 229.92L103.7 225.6H104.932L107.716 229.76L106.66 229.92ZM121.325 234.08C120.451 234.08 119.683 233.899 119.021 233.536C118.36 233.163 117.843 232.656 117.469 232.016C117.096 231.365 116.909 230.624 116.909 229.792C116.909 228.96 117.085 228.224 117.437 227.584C117.8 226.944 118.291 226.443 118.909 226.08C119.539 225.707 120.243 225.52 121.021 225.52C121.811 225.52 122.509 225.701 123.117 226.064C123.736 226.416 124.221 226.917 124.573 227.568C124.925 228.208 125.101 228.949 125.101 229.792C125.101 229.845 125.096 229.904 125.085 229.968C125.085 230.021 125.085 230.08 125.085 230.144H117.773V229.296H124.477L124.029 229.632C124.029 229.024 123.896 228.485 123.629 228.016C123.373 227.536 123.021 227.163 122.573 226.896C122.125 226.629 121.608 226.496 121.021 226.496C120.445 226.496 119.928 226.629 119.469 226.896C119.011 227.163 118.653 227.536 118.397 228.016C118.141 228.496 118.013 229.045 118.013 229.664V229.84C118.013 230.48 118.152 231.045 118.429 231.536C118.717 232.016 119.112 232.395 119.613 232.672C120.125 232.939 120.707 233.072 121.357 233.072C121.869 233.072 122.344 232.981 122.781 232.8C123.229 232.619 123.613 232.341 123.933 231.968L124.573 232.704C124.2 233.152 123.731 233.493 123.165 233.728C122.611 233.963 121.997 234.08 121.325 234.08ZM135.324 234.08C134.492 234.08 133.745 233.899 133.084 233.536C132.433 233.163 131.921 232.656 131.548 232.016C131.174 231.365 130.988 230.624 130.988 229.792C130.988 228.949 131.174 228.208 131.548 227.568C131.921 226.928 132.433 226.427 133.084 226.064C133.745 225.701 134.492 225.52 135.324 225.52C136.038 225.52 136.684 225.659 137.26 225.936C137.836 226.213 138.289 226.629 138.62 227.184L137.772 227.76C137.484 227.333 137.126 227.019 136.7 226.816C136.273 226.613 135.809 226.512 135.308 226.512C134.71 226.512 134.172 226.651 133.692 226.928C133.212 227.195 132.833 227.573 132.556 228.064C132.278 228.555 132.14 229.131 132.14 229.792C132.14 230.453 132.278 231.029 132.556 231.52C132.833 232.011 133.212 232.395 133.692 232.672C134.172 232.939 134.71 233.072 135.308 233.072C135.809 233.072 136.273 232.971 136.7 232.768C137.126 232.565 137.484 232.256 137.772 231.84L138.62 232.416C138.289 232.96 137.836 233.376 137.26 233.664C136.684 233.941 136.038 234.08 135.324 234.08ZM144.279 234.08C143.404 234.08 142.636 233.899 141.975 233.536C141.313 233.163 140.796 232.656 140.423 232.016C140.049 231.365 139.863 230.624 139.863 229.792C139.863 228.96 140.039 228.224 140.391 227.584C140.753 226.944 141.244 226.443 141.863 226.08C142.492 225.707 143.196 225.52 143.975 225.52C144.764 225.52 145.463 225.701 146.071 226.064C146.689 226.416 147.175 226.917 147.527 227.568C147.879 228.208 148.055 228.949 148.055 229.792C148.055 229.845 148.049 229.904 148.039 229.968C148.039 230.021 148.039 230.08 148.039 230.144H140.727V229.296H147.431L146.983 229.632C146.983 229.024 146.849 228.485 146.583 228.016C146.327 227.536 145.975 227.163 145.527 226.896C145.079 226.629 144.561 226.496 143.975 226.496C143.399 226.496 142.881 226.629 142.423 226.896C141.964 227.163 141.607 227.536 141.351 228.016C141.095 228.496 140.967 229.045 140.967 229.664V229.84C140.967 230.48 141.105 231.045 141.383 231.536C141.671 232.016 142.065 232.395 142.567 232.672C143.079 232.939 143.66 233.072 144.311 233.072C144.823 233.072 145.297 232.981 145.735 232.8C146.183 232.619 146.567 232.341 146.887 231.968L147.527 232.704C147.153 233.152 146.684 233.493 146.119 233.728C145.564 233.963 144.951 234.08 144.279 234.08ZM150.569 234V225.6H156.521V226.592H151.417L151.705 226.304V234H150.569ZM161.228 234.08C160.418 234.08 159.687 233.899 159.036 233.536C158.396 233.163 157.89 232.656 157.516 232.016C157.143 231.365 156.956 230.624 156.956 229.792C156.956 228.949 157.143 228.208 157.516 227.568C157.89 226.928 158.396 226.427 159.036 226.064C159.676 225.701 160.407 225.52 161.228 225.52C162.06 225.52 162.796 225.701 163.436 226.064C164.087 226.427 164.594 226.928 164.956 227.568C165.33 228.208 165.516 228.949 165.516 229.792C165.516 230.624 165.33 231.365 164.956 232.016C164.594 232.656 164.087 233.163 163.436 233.536C162.786 233.899 162.05 234.08 161.228 234.08ZM161.228 233.072C161.836 233.072 162.375 232.939 162.844 232.672C163.314 232.395 163.682 232.011 163.948 231.52C164.226 231.019 164.364 230.443 164.364 229.792C164.364 229.131 164.226 228.555 163.948 228.064C163.682 227.573 163.314 227.195 162.844 226.928C162.375 226.651 161.842 226.512 161.244 226.512C160.647 226.512 160.114 226.651 159.644 226.928C159.175 227.195 158.802 227.573 158.524 228.064C158.247 228.555 158.108 229.131 158.108 229.792C158.108 230.443 158.247 231.019 158.524 231.52C158.802 232.011 159.175 232.395 159.644 232.672C160.114 232.939 160.642 233.072 161.228 233.072ZM173.657 233.456V226.592H169.609L169.513 228.464C169.492 229.029 169.455 229.584 169.401 230.128C169.359 230.672 169.279 231.173 169.161 231.632C169.055 232.08 168.9 232.448 168.697 232.736C168.495 233.013 168.233 233.173 167.913 233.216L166.777 233.008C167.108 233.019 167.38 232.901 167.593 232.656C167.807 232.4 167.972 232.053 168.089 231.616C168.207 231.179 168.292 230.683 168.345 230.128C168.399 229.563 168.441 228.987 168.473 228.4L168.585 225.6H174.793V233.456H173.657ZM166.425 236.032V233.008H176.105V236.032H175.033V234H167.497V236.032H166.425ZM178.319 234V225.6H179.455V229.312H184.751V225.6H185.887V234H184.751V230.288H179.455V234H178.319ZM194.54 234V230.976L194.748 231.216H191.9C190.823 231.216 189.98 230.981 189.372 230.512C188.764 230.043 188.46 229.36 188.46 228.464C188.46 227.504 188.785 226.789 189.436 226.32C190.087 225.84 190.956 225.6 192.044 225.6H195.58V234H194.54ZM188.396 234L190.7 230.768H191.884L189.628 234H188.396ZM194.54 230.64V226.256L194.748 226.592H192.076C191.297 226.592 190.689 226.741 190.252 227.04C189.825 227.339 189.612 227.824 189.612 228.496C189.612 229.744 190.407 230.368 191.996 230.368H194.748L194.54 230.64Z" fill="white"/>
</svg>
