<svg width="708" height="92" viewBox="0 0 708 92" fill="none" xmlns="http://www.w3.org/2000/svg">
<path d="M2.262 25V6.8H5.746L13.494 19.644H11.648L19.266 6.8H22.75L22.776 25H18.824L18.798 12.858H19.552L13.442 23.076H11.57L5.33 12.858H6.214V25H2.262ZM41.3892 25V11.012H45.4192V25H41.3892ZM34.3432 15.484C36.1805 15.5013 37.5585 15.9173 38.4772 16.732C39.4132 17.5293 39.8812 18.6647 39.8812 20.138C39.8812 21.6807 39.3525 22.8853 38.2952 23.752C37.2378 24.6013 35.7385 25.026 33.7972 25.026L26.9852 25V11.012H31.0152V15.484H34.3432ZM33.4332 22.14C34.2132 22.1573 34.8112 21.9927 35.2272 21.646C35.6432 21.2993 35.8512 20.7793 35.8512 20.086C35.8512 19.3927 35.6432 18.8987 35.2272 18.604C34.8112 18.292 34.2132 18.1273 33.4332 18.11L31.0152 18.084V22.14H33.4332ZM54.7422 18.942V16.42H80.7422V18.942H54.7422ZM90.0555 25V11.012H103.965V25H99.9095V13.43L100.819 14.34H93.1755L94.0855 13.43V25H90.0555ZM116.096 25.208C114.918 25.208 113.886 24.948 113.002 24.428C112.118 23.908 111.425 23.1193 110.922 22.062C110.437 20.9873 110.194 19.6353 110.194 18.006C110.194 16.3593 110.428 15.0073 110.896 13.95C111.364 12.8927 112.04 12.104 112.924 11.584C113.808 11.064 114.866 10.804 116.096 10.804C117.414 10.804 118.592 11.1073 119.632 11.714C120.69 12.3033 121.522 13.1353 122.128 14.21C122.752 15.2847 123.064 16.55 123.064 18.006C123.064 19.4793 122.752 20.7533 122.128 21.828C121.522 22.9027 120.69 23.7347 119.632 24.324C118.592 24.9133 117.414 25.208 116.096 25.208ZM107.828 30.044V11.012H111.702V13.872L111.624 18.032L111.884 22.166V30.044H107.828ZM115.394 21.88C116.07 21.88 116.668 21.724 117.188 21.412C117.726 21.1 118.15 20.658 118.462 20.086C118.792 19.4967 118.956 18.8033 118.956 18.006C118.956 17.1913 118.792 16.498 118.462 15.926C118.15 15.354 117.726 14.912 117.188 14.6C116.668 14.288 116.07 14.132 115.394 14.132C114.718 14.132 114.112 14.288 113.574 14.6C113.037 14.912 112.612 15.354 112.3 15.926C111.988 16.498 111.832 17.1913 111.832 18.006C111.832 18.8033 111.988 19.4967 112.3 20.086C112.612 20.658 113.037 21.1 113.574 21.412C114.112 21.724 114.718 21.88 115.394 21.88ZM132.459 25.208C130.968 25.208 129.642 24.896 128.481 24.272C127.337 23.648 126.427 22.7987 125.751 21.724C125.092 20.632 124.763 19.3927 124.763 18.006C124.763 16.602 125.092 15.3627 125.751 14.288C126.427 13.196 127.337 12.3467 128.481 11.74C129.642 11.116 130.968 10.804 132.459 10.804C133.932 10.804 135.25 11.116 136.411 11.74C137.572 12.3467 138.482 13.1873 139.141 14.262C139.8 15.3367 140.129 16.5847 140.129 18.006C140.129 19.3927 139.8 20.632 139.141 21.724C138.482 22.7987 137.572 23.648 136.411 24.272C135.25 24.896 133.932 25.208 132.459 25.208ZM132.459 21.88C133.135 21.88 133.742 21.724 134.279 21.412C134.816 21.1 135.241 20.658 135.553 20.086C135.865 19.4967 136.021 18.8033 136.021 18.006C136.021 17.1913 135.865 16.498 135.553 15.926C135.241 15.354 134.816 14.912 134.279 14.6C133.742 14.288 133.135 14.132 132.459 14.132C131.783 14.132 131.176 14.288 130.639 14.6C130.102 14.912 129.668 15.354 129.339 15.926C129.027 16.498 128.871 17.1913 128.871 18.006C128.871 18.8033 129.027 19.4967 129.339 20.086C129.668 20.658 130.102 21.1 130.639 21.412C131.176 21.724 131.783 21.88 132.459 21.88ZM142.919 25V11.012H146.949V19.332L153.761 11.012H157.479V25H153.449V16.68L146.663 25H142.919ZM165.983 25.26C164.908 25.26 163.833 25.1473 162.759 24.922C161.701 24.6967 160.722 24.3587 159.821 23.908L160.913 21.074C161.623 21.4207 162.395 21.6893 163.227 21.88C164.076 22.0533 164.934 22.14 165.801 22.14C166.425 22.14 166.962 22.0793 167.413 21.958C167.881 21.8193 168.236 21.6287 168.479 21.386C168.721 21.1433 168.843 20.8487 168.843 20.502C168.843 20.0513 168.652 19.7133 168.271 19.488C167.889 19.2453 167.335 19.124 166.607 19.124H163.747V16.602H166.269C166.737 16.602 167.135 16.55 167.465 16.446C167.794 16.342 168.037 16.1947 168.193 16.004C168.366 15.796 168.453 15.5533 168.453 15.276C168.453 14.9813 168.349 14.73 168.141 14.522C167.933 14.314 167.629 14.158 167.231 14.054C166.832 13.9327 166.329 13.872 165.723 13.872C165.029 13.872 164.31 13.9587 163.565 14.132C162.819 14.288 162.057 14.522 161.277 14.834L160.289 12.026C161.207 11.6447 162.117 11.3413 163.019 11.116C163.92 10.8907 164.813 10.7693 165.697 10.752C166.997 10.7173 168.167 10.856 169.207 11.168C170.247 11.48 171.061 11.9307 171.651 12.52C172.257 13.1093 172.561 13.8287 172.561 14.678C172.561 15.354 172.353 15.9607 171.937 16.498C171.538 17.0353 170.983 17.46 170.273 17.772C169.562 18.0667 168.765 18.214 167.881 18.214L167.985 17.408C169.527 17.408 170.741 17.72 171.625 18.344C172.509 18.9507 172.951 19.7827 172.951 20.84C172.951 21.7413 172.639 22.53 172.015 23.206C171.408 23.8647 170.576 24.376 169.519 24.74C168.479 25.0867 167.3 25.26 165.983 25.26ZM175.85 25V11.012H183C184.751 11.012 186.12 11.3327 187.108 11.974C188.096 12.598 188.59 13.482 188.59 14.626C188.59 15.77 188.122 16.6713 187.186 17.33C186.268 17.9713 185.046 18.292 183.52 18.292L183.936 17.356C185.635 17.356 186.9 17.668 187.732 18.292C188.582 18.916 189.006 19.826 189.006 21.022C189.006 22.2527 188.538 23.2233 187.602 23.934C186.666 24.6447 185.236 25 183.312 25H175.85ZM179.568 22.244H182.974C183.72 22.244 184.274 22.1227 184.638 21.88C185.02 21.62 185.21 21.23 185.21 20.71C185.21 20.1727 185.037 19.7827 184.69 19.54C184.344 19.28 183.798 19.15 183.052 19.15H179.568V22.244ZM179.568 16.758H182.636C183.347 16.758 183.876 16.628 184.222 16.368C184.586 16.108 184.768 15.7353 184.768 15.25C184.768 14.7473 184.586 14.3747 184.222 14.132C183.876 13.8893 183.347 13.768 182.636 13.768H179.568V16.758ZM198.576 25.208C197.086 25.208 195.76 24.896 194.598 24.272C193.454 23.648 192.544 22.7987 191.868 21.724C191.21 20.632 190.88 19.3927 190.88 18.006C190.88 16.602 191.21 15.3627 191.868 14.288C192.544 13.196 193.454 12.3467 194.598 11.74C195.76 11.116 197.086 10.804 198.576 10.804C200.05 10.804 201.367 11.116 202.528 11.74C203.69 12.3467 204.6 13.1873 205.258 14.262C205.917 15.3367 206.246 16.5847 206.246 18.006C206.246 19.3927 205.917 20.632 205.258 21.724C204.6 22.7987 203.69 23.648 202.528 24.272C201.367 24.896 200.05 25.208 198.576 25.208ZM198.576 21.88C199.252 21.88 199.859 21.724 200.396 21.412C200.934 21.1 201.358 20.658 201.67 20.086C201.982 19.4967 202.138 18.8033 202.138 18.006C202.138 17.1913 201.982 16.498 201.67 15.926C201.358 15.354 200.934 14.912 200.396 14.6C199.859 14.288 199.252 14.132 198.576 14.132C197.9 14.132 197.294 14.288 196.756 14.6C196.219 14.912 195.786 15.354 195.456 15.926C195.144 16.498 194.988 17.1913 194.988 18.006C194.988 18.8033 195.144 19.4967 195.456 20.086C195.786 20.658 196.219 21.1 196.756 21.412C197.294 21.724 197.9 21.88 198.576 21.88ZM218.453 23.18V14.34H213.877L213.799 16.134C213.764 16.8793 213.721 17.59 213.669 18.266C213.617 18.942 213.513 19.5573 213.357 20.112C213.218 20.6493 213.01 21.1087 212.733 21.49C212.455 21.854 212.083 22.1053 211.615 22.244L207.611 21.672C208.113 21.672 208.521 21.5247 208.833 21.23C209.145 20.918 209.387 20.4933 209.561 19.956C209.734 19.4013 209.864 18.7773 209.951 18.084C210.037 17.3733 210.098 16.628 210.133 15.848L210.315 11.012H222.509V23.18H218.453ZM207.143 28.016V21.672H224.511V28.016H220.741V25H210.913V28.016H207.143ZM227.063 25V11.012H231.093V19.332L237.905 11.012H241.623V25H237.593V16.68L230.807 25H227.063ZM248.512 25V13.404L249.422 14.34H243.78V11.012H257.274V14.34H251.632L252.542 13.404V25H248.512ZM265.69 25.208C264.096 25.208 262.692 24.896 261.478 24.272C260.282 23.648 259.355 22.7987 258.696 21.724C258.038 20.632 257.708 19.3927 257.708 18.006C257.708 16.602 258.029 15.3627 258.67 14.288C259.329 13.196 260.222 12.3467 261.348 11.74C262.475 11.116 263.749 10.804 265.17 10.804C266.54 10.804 267.77 11.0987 268.862 11.688C269.972 12.26 270.847 13.092 271.488 14.184C272.13 15.2587 272.45 16.55 272.45 18.058C272.45 18.214 272.442 18.396 272.424 18.604C272.407 18.7947 272.39 18.9767 272.372 19.15H261.01V16.784H270.24L268.68 17.486C268.68 16.758 268.533 16.1253 268.238 15.588C267.944 15.0507 267.536 14.6347 267.016 14.34C266.496 14.028 265.89 13.872 265.196 13.872C264.503 13.872 263.888 14.028 263.35 14.34C262.83 14.6347 262.423 15.0593 262.128 15.614C261.834 16.1513 261.686 16.7927 261.686 17.538V18.162C261.686 18.9247 261.851 19.6007 262.18 20.19C262.527 20.762 263.004 21.204 263.61 21.516C264.234 21.8107 264.962 21.958 265.794 21.958C266.54 21.958 267.19 21.8453 267.744 21.62C268.316 21.3947 268.836 21.0567 269.304 20.606L271.462 22.946C270.821 23.674 270.015 24.2373 269.044 24.636C268.074 25.0173 266.956 25.208 265.69 25.208ZM273.664 24.974L273.872 21.646C273.976 21.6633 274.08 21.6807 274.184 21.698C274.288 21.698 274.384 21.698 274.47 21.698C274.956 21.698 275.337 21.5593 275.614 21.282C275.892 21.0047 276.1 20.632 276.238 20.164C276.377 19.6787 276.472 19.1327 276.524 18.526C276.594 17.9193 276.646 17.2867 276.68 16.628L276.888 11.012H288.848V25H284.792V13.352L285.702 14.34H279.566L280.424 13.3L280.242 16.81C280.19 18.058 280.086 19.202 279.93 20.242C279.792 21.282 279.558 22.1833 279.228 22.946C278.899 23.6913 278.457 24.272 277.902 24.688C277.348 25.0867 276.637 25.286 275.77 25.286C275.458 25.286 275.129 25.26 274.782 25.208C274.436 25.156 274.063 25.078 273.664 24.974ZM300.315 15.484C302.152 15.5013 303.547 15.9173 304.501 16.732C305.471 17.5293 305.957 18.6647 305.957 20.138C305.957 21.6807 305.411 22.8853 304.319 23.752C303.227 24.6013 301.71 25.026 299.769 25.026L292.749 25V11.012H296.779V15.484H300.315ZM299.405 22.14C300.185 22.1573 300.783 21.9927 301.199 21.646C301.615 21.2993 301.823 20.7793 301.823 20.086C301.823 19.3927 301.615 18.8987 301.199 18.604C300.783 18.292 300.185 18.1273 299.405 18.11L296.779 18.084V22.14H299.405ZM307.635 29.004L309.351 22.764L309.923 25.104C309.178 25.104 308.562 24.8873 308.077 24.454C307.609 24.0207 307.375 23.4227 307.375 22.66C307.375 21.8973 307.618 21.2907 308.103 20.84C308.588 20.3893 309.186 20.164 309.897 20.164C310.625 20.164 311.223 20.398 311.691 20.866C312.159 21.3167 312.393 21.9147 312.393 22.66C312.393 22.8853 312.376 23.1107 312.341 23.336C312.306 23.544 312.237 23.804 312.133 24.116C312.046 24.4107 311.899 24.792 311.691 25.26L310.209 29.004H307.635ZM330.955 25V22.27L330.695 21.672V16.784C330.695 15.9173 330.426 15.2413 329.889 14.756C329.369 14.2707 328.563 14.028 327.471 14.028C326.725 14.028 325.989 14.1493 325.261 14.392C324.55 14.6173 323.943 14.9293 323.441 15.328L321.985 12.494C322.747 11.9567 323.666 11.5407 324.741 11.246C325.815 10.9513 326.907 10.804 328.017 10.804C330.149 10.804 331.804 11.3067 332.983 12.312C334.161 13.3173 334.751 14.886 334.751 17.018V25H330.955ZM326.691 25.208C325.599 25.208 324.663 25.026 323.883 24.662C323.103 24.2807 322.505 23.7693 322.089 23.128C321.673 22.4867 321.465 21.7673 321.465 20.97C321.465 20.138 321.664 19.41 322.063 18.786C322.479 18.162 323.129 17.6767 324.013 17.33C324.897 16.966 326.049 16.784 327.471 16.784H331.189V19.15H327.913C326.959 19.15 326.301 19.306 325.937 19.618C325.59 19.93 325.417 20.32 325.417 20.788C325.417 21.308 325.616 21.724 326.015 22.036C326.431 22.3307 326.994 22.478 327.705 22.478C328.381 22.478 328.987 22.322 329.525 22.01C330.062 21.6807 330.452 21.204 330.695 20.58L331.319 22.452C331.024 23.3533 330.487 24.038 329.707 24.506C328.927 24.974 327.921 25.208 326.691 25.208ZM345.638 25V11.012H349.668V16.472H355.752V11.012H359.808V25H355.752V19.774H349.668V25H345.638ZM370.528 25.208C368.934 25.208 367.53 24.896 366.316 24.272C365.12 23.648 364.193 22.7987 363.534 21.724C362.876 20.632 362.546 19.3927 362.546 18.006C362.546 16.602 362.867 15.3627 363.508 14.288C364.167 13.196 365.06 12.3467 366.186 11.74C367.313 11.116 368.587 10.804 370.008 10.804C371.378 10.804 372.608 11.0987 373.7 11.688C374.81 12.26 375.685 13.092 376.326 14.184C376.968 15.2587 377.288 16.55 377.288 18.058C377.288 18.214 377.28 18.396 377.262 18.604C377.245 18.7947 377.228 18.9767 377.21 19.15H365.848V16.784H375.078L373.518 17.486C373.518 16.758 373.371 16.1253 373.076 15.588C372.782 15.0507 372.374 14.6347 371.854 14.34C371.334 14.028 370.728 13.872 370.034 13.872C369.341 13.872 368.726 14.028 368.188 14.34C367.668 14.6347 367.261 15.0593 366.966 15.614C366.672 16.1513 366.524 16.7927 366.524 17.538V18.162C366.524 18.9247 366.689 19.6007 367.018 20.19C367.365 20.762 367.842 21.204 368.448 21.516C369.072 21.8107 369.8 21.958 370.632 21.958C371.378 21.958 372.028 21.8453 372.582 21.62C373.154 21.3947 373.674 21.0567 374.142 20.606L376.3 22.946C375.659 23.674 374.853 24.2373 373.882 24.636C372.912 25.0173 371.794 25.208 370.528 25.208ZM387.761 25V11.012H401.671V25H397.615V13.43L398.525 14.34H390.881L391.791 13.43V25H387.761ZM412.111 25.208C410.621 25.208 409.295 24.896 408.133 24.272C406.989 23.648 406.079 22.7987 405.403 21.724C404.745 20.632 404.415 19.3927 404.415 18.006C404.415 16.602 404.745 15.3627 405.403 14.288C406.079 13.196 406.989 12.3467 408.133 11.74C409.295 11.116 410.621 10.804 412.111 10.804C413.585 10.804 414.902 11.116 416.063 11.74C417.225 12.3467 418.135 13.1873 418.793 14.262C419.452 15.3367 419.781 16.5847 419.781 18.006C419.781 19.3927 419.452 20.632 418.793 21.724C418.135 22.7987 417.225 23.648 416.063 24.272C414.902 24.896 413.585 25.208 412.111 25.208ZM412.111 21.88C412.787 21.88 413.394 21.724 413.931 21.412C414.469 21.1 414.893 20.658 415.205 20.086C415.517 19.4967 415.673 18.8033 415.673 18.006C415.673 17.1913 415.517 16.498 415.205 15.926C414.893 15.354 414.469 14.912 413.931 14.6C413.394 14.288 412.787 14.132 412.111 14.132C411.435 14.132 410.829 14.288 410.291 14.6C409.754 14.912 409.321 15.354 408.991 15.926C408.679 16.498 408.523 17.1913 408.523 18.006C408.523 18.8033 408.679 19.4967 408.991 20.086C409.321 20.658 409.754 21.1 410.291 21.412C410.829 21.724 411.435 21.88 412.111 21.88ZM429.227 25.208C427.719 25.208 426.376 24.9047 425.197 24.298C424.018 23.674 423.091 22.816 422.415 21.724C421.756 20.632 421.427 19.3927 421.427 18.006C421.427 16.602 421.756 15.3627 422.415 14.288C423.091 13.196 424.018 12.3467 425.197 11.74C426.376 11.116 427.719 10.804 429.227 10.804C430.7 10.804 431.983 11.116 433.075 11.74C434.167 12.3467 434.973 13.222 435.493 14.366L432.347 16.056C431.983 15.3973 431.524 14.912 430.969 14.6C430.432 14.288 429.842 14.132 429.201 14.132C428.508 14.132 427.884 14.288 427.329 14.6C426.774 14.912 426.332 15.354 426.003 15.926C425.691 16.498 425.535 17.1913 425.535 18.006C425.535 18.8207 425.691 19.514 426.003 20.086C426.332 20.658 426.774 21.1 427.329 21.412C427.884 21.724 428.508 21.88 429.201 21.88C429.842 21.88 430.432 21.7327 430.969 21.438C431.524 21.126 431.983 20.632 432.347 19.956L435.493 21.672C434.973 22.7987 434.167 23.674 433.075 24.298C431.983 24.9047 430.7 25.208 429.227 25.208ZM446.2 25.208C445.021 25.208 443.99 24.948 443.106 24.428C442.222 23.908 441.528 23.1193 441.026 22.062C440.54 20.9873 440.298 19.6353 440.298 18.006C440.298 16.3593 440.532 15.0073 441 13.95C441.468 12.8927 442.144 12.104 443.028 11.584C443.912 11.064 444.969 10.804 446.2 10.804C447.517 10.804 448.696 11.1073 449.736 11.714C450.793 12.3033 451.625 13.1353 452.232 14.21C452.856 15.2847 453.168 16.55 453.168 18.006C453.168 19.4793 452.856 20.7533 452.232 21.828C451.625 22.9027 450.793 23.7347 449.736 24.324C448.696 24.9133 447.517 25.208 446.2 25.208ZM437.932 30.044V11.012H441.806V13.872L441.728 18.032L441.988 22.166V30.044H437.932ZM445.498 21.88C446.174 21.88 446.772 21.724 447.292 21.412C447.829 21.1 448.254 20.658 448.566 20.086C448.895 19.4967 449.06 18.8033 449.06 18.006C449.06 17.1913 448.895 16.498 448.566 15.926C448.254 15.354 447.829 14.912 447.292 14.6C446.772 14.288 446.174 14.132 445.498 14.132C444.822 14.132 444.215 14.288 443.678 14.6C443.14 14.912 442.716 15.354 442.404 15.926C442.092 16.498 441.936 17.1913 441.936 18.006C441.936 18.8033 442.092 19.4967 442.404 20.086C442.716 20.658 443.14 21.1 443.678 21.412C444.215 21.724 444.822 21.88 445.498 21.88ZM462.849 25.208C461.254 25.208 459.85 24.896 458.637 24.272C457.441 23.648 456.513 22.7987 455.855 21.724C455.196 20.632 454.867 19.3927 454.867 18.006C454.867 16.602 455.187 15.3627 455.829 14.288C456.487 13.196 457.38 12.3467 458.507 11.74C459.633 11.116 460.907 10.804 462.329 10.804C463.698 10.804 464.929 11.0987 466.021 11.688C467.13 12.26 468.005 13.092 468.647 14.184C469.288 15.2587 469.609 16.55 469.609 18.058C469.609 18.214 469.6 18.396 469.583 18.604C469.565 18.7947 469.548 18.9767 469.531 19.15H458.169V16.784H467.399L465.839 17.486C465.839 16.758 465.691 16.1253 465.397 15.588C465.102 15.0507 464.695 14.6347 464.175 14.34C463.655 14.028 463.048 13.872 462.355 13.872C461.661 13.872 461.046 14.028 460.509 14.34C459.989 14.6347 459.581 15.0593 459.287 15.614C458.992 16.1513 458.845 16.7927 458.845 17.538V18.162C458.845 18.9247 459.009 19.6007 459.339 20.19C459.685 20.762 460.162 21.204 460.769 21.516C461.393 21.8107 462.121 21.958 462.953 21.958C463.698 21.958 464.348 21.8453 464.903 21.62C465.475 21.3947 465.995 21.0567 466.463 20.606L468.621 22.946C467.979 23.674 467.173 24.2373 466.203 24.636C465.232 25.0173 464.114 25.208 462.849 25.208ZM482.211 23.18V14.34H477.635L477.557 16.134C477.522 16.8793 477.479 17.59 477.427 18.266C477.375 18.942 477.271 19.5573 477.115 20.112C476.976 20.6493 476.768 21.1087 476.491 21.49C476.213 21.854 475.841 22.1053 475.373 22.244L471.369 21.672C471.871 21.672 472.279 21.5247 472.591 21.23C472.903 20.918 473.145 20.4933 473.319 19.956C473.492 19.4013 473.622 18.7773 473.709 18.084C473.795 17.3733 473.856 16.628 473.891 15.848L474.073 11.012H486.267V23.18H482.211ZM470.901 28.016V21.672H488.269V28.016H484.499V25H474.671V28.016H470.901ZM490.821 25V11.012H494.851V16.472H500.935V11.012H504.991V25H500.935V19.774H494.851V25H490.821ZM508.874 25V11.012H512.904V19.332L519.716 11.012H523.434V25H519.404V16.68L512.618 25H508.874ZM537.239 25L532.559 18.37L535.861 16.42L542.023 25H537.239ZM527.333 25V11.012H531.389V25H527.333ZM530.193 19.696V16.446H535.081V19.696H530.193ZM536.251 18.474L532.455 18.058L537.369 11.012H541.685L536.251 18.474Z" fill="#141414"/>
<path d="M8.358 64L4.592 59.114L5.432 58.61L9.548 64H8.358ZM1.652 64V54.2H2.66V64H1.652ZM2.352 59.506V58.596H5.418V59.506H2.352ZM5.516 59.212L4.564 59.044L8.218 54.2H9.338L5.516 59.212ZM15.5893 64V62.376L15.5473 62.11V59.394C15.5473 58.7687 15.37 58.288 15.0153 57.952C14.67 57.616 14.152 57.448 13.4613 57.448C12.9853 57.448 12.5327 57.5273 12.1033 57.686C11.674 57.8447 11.31 58.0547 11.0113 58.316L10.5633 57.574C10.9367 57.2567 11.3847 57.014 11.9073 56.846C12.43 56.6687 12.9807 56.58 13.5593 56.58C14.5113 56.58 15.244 56.818 15.7573 57.294C16.28 57.7607 16.5413 58.4747 16.5413 59.436V64H15.5893ZM13.0553 64.07C12.5047 64.07 12.024 63.9813 11.6133 63.804C11.212 63.6173 10.904 63.3653 10.6893 63.048C10.4747 62.7213 10.3673 62.348 10.3673 61.928C10.3673 61.5453 10.456 61.2 10.6333 60.892C10.82 60.5747 11.1187 60.3227 11.5293 60.136C11.9493 59.94 12.5093 59.842 13.2093 59.842H15.7433V60.584H13.2373C12.528 60.584 12.0333 60.71 11.7533 60.962C11.4827 61.214 11.3473 61.5267 11.3473 61.9C11.3473 62.32 11.5107 62.656 11.8373 62.908C12.164 63.16 12.6213 63.286 13.2093 63.286C13.7693 63.286 14.25 63.16 14.6513 62.908C15.062 62.6467 15.3607 62.2733 15.5473 61.788L15.7713 62.474C15.5847 62.9593 15.258 63.3467 14.7913 63.636C14.334 63.9253 13.7553 64.07 13.0553 64.07ZM27.9094 64L25.3894 60.36L26.2154 59.87L29.0994 64H27.9094ZM23.7374 60.724V59.87H26.0614V60.724H23.7374ZM26.3134 60.43L25.3614 60.29L27.8114 56.65H28.8894L26.3134 60.43ZM19.2014 64H18.0114L20.8954 59.87L21.7074 60.36L19.2014 64ZM24.0454 64H23.0514V56.65H24.0454V64ZM23.3594 60.724H21.0494V59.87H23.3594V60.724ZM20.8114 60.43L18.2214 56.65H19.2994L21.7354 60.29L20.8114 60.43ZM35.7938 63.524V57.518H32.2518L32.1678 59.156C32.1492 59.6507 32.1165 60.136 32.0698 60.612C32.0325 61.088 31.9625 61.5267 31.8598 61.928C31.7665 62.32 31.6312 62.642 31.4538 62.894C31.2765 63.1367 31.0478 63.2767 30.7678 63.314L29.7738 63.132C30.0632 63.1413 30.3012 63.0387 30.4878 62.824C30.6745 62.6 30.8192 62.2967 30.9218 61.914C31.0245 61.5313 31.0992 61.0973 31.1458 60.612C31.1925 60.1173 31.2298 59.6133 31.2578 59.1L31.3558 56.65H36.7878V63.524H35.7938ZM29.4658 65.778V63.132H37.9358V65.778H36.9978V64H30.4038V65.778H29.4658ZM47.041 64V56.65H48.035V64H47.041ZM42.967 59.24C43.891 59.2493 44.5957 59.4547 45.081 59.856C45.5663 60.2573 45.809 60.836 45.809 61.592C45.809 62.376 45.5477 62.978 45.025 63.398C44.5023 63.818 43.7557 64.0233 42.785 64.014L39.873 64V56.65H40.867V59.212L42.967 59.24ZM42.715 63.258C43.4057 63.2673 43.9237 63.132 44.269 62.852C44.6237 62.5627 44.801 62.1427 44.801 61.592C44.801 61.0413 44.6283 60.64 44.283 60.388C43.9377 60.1267 43.415 59.9913 42.715 59.982L40.867 59.954V63.23L42.715 63.258ZM50.8652 64V56.65H51.8592V62.488L56.7732 56.65H57.6552V64H56.6612V58.148L51.7612 64H50.8652ZM54.1972 55.586C53.5812 55.586 53.0818 55.432 52.6992 55.124C52.3258 54.8067 52.1298 54.354 52.1112 53.766H52.8252C52.8345 54.1393 52.9652 54.4333 53.2172 54.648C53.4692 54.8627 53.7958 54.97 54.1972 54.97C54.5985 54.97 54.9252 54.8627 55.1772 54.648C55.4385 54.4333 55.5738 54.1393 55.5832 53.766H56.2972C56.2878 54.354 56.0918 54.8067 55.7092 55.124C55.3265 55.432 54.8225 55.586 54.1972 55.586ZM68.8159 60.892C68.3866 61.0787 67.9526 61.228 67.5139 61.34C67.0846 61.4427 66.6552 61.494 66.2259 61.494C65.3579 61.494 64.6719 61.298 64.1679 60.906C63.6639 60.5047 63.4119 59.8887 63.4119 59.058V56.65H64.3919V59.002C64.3919 59.562 64.5739 59.982 64.9379 60.262C65.3019 60.542 65.7919 60.682 66.4079 60.682C66.7812 60.682 67.1732 60.6353 67.5839 60.542C67.9946 60.4393 68.4099 60.2947 68.8299 60.108L68.8159 60.892ZM68.7319 64V56.65H69.7259V64H68.7319ZM75.6988 64.07C74.9334 64.07 74.2614 63.9113 73.6828 63.594C73.1041 63.2673 72.6514 62.824 72.3248 62.264C71.9981 61.6947 71.8348 61.046 71.8348 60.318C71.8348 59.59 71.9888 58.946 72.2968 58.386C72.6141 57.826 73.0434 57.3873 73.5848 57.07C74.1354 56.7433 74.7514 56.58 75.4328 56.58C76.1234 56.58 76.7348 56.7387 77.2668 57.056C77.8081 57.364 78.2328 57.8027 78.5408 58.372C78.8488 58.932 79.0028 59.5807 79.0028 60.318C79.0028 60.3647 78.9981 60.416 78.9888 60.472C78.9888 60.5187 78.9888 60.57 78.9888 60.626H72.5908V59.884H78.4568L78.0648 60.178C78.0648 59.646 77.9481 59.1747 77.7148 58.764C77.4908 58.344 77.1828 58.0173 76.7908 57.784C76.3988 57.5507 75.9461 57.434 75.4328 57.434C74.9288 57.434 74.4761 57.5507 74.0748 57.784C73.6734 58.0173 73.3608 58.344 73.1368 58.764C72.9128 59.184 72.8008 59.6647 72.8008 60.206V60.36C72.8008 60.92 72.9221 61.4147 73.1648 61.844C73.4168 62.264 73.7621 62.5953 74.2008 62.838C74.6488 63.0713 75.1574 63.188 75.7268 63.188C76.1748 63.188 76.5901 63.1087 76.9728 62.95C77.3648 62.7913 77.7008 62.5487 77.9808 62.222L78.5408 62.866C78.2141 63.258 77.8034 63.5567 77.3088 63.762C76.8234 63.9673 76.2868 64.07 75.6988 64.07ZM79.794 64L82.902 59.968L82.888 60.458L79.934 56.65H81.054L83.476 59.8L83.056 59.786L85.478 56.65H86.57L83.588 60.5L83.602 59.968L86.738 64H85.604L83.042 60.64L83.434 60.696L80.914 64H79.794ZM91.1314 64.07C90.422 64.07 89.7827 63.9113 89.2134 63.594C88.6534 63.2673 88.21 62.824 87.8834 62.264C87.5567 61.6947 87.3934 61.046 87.3934 60.318C87.3934 59.5807 87.5567 58.932 87.8834 58.372C88.21 57.812 88.6534 57.3733 89.2134 57.056C89.7734 56.7387 90.4127 56.58 91.1314 56.58C91.8594 56.58 92.5034 56.7387 93.0634 57.056C93.6327 57.3733 94.076 57.812 94.3934 58.372C94.72 58.932 94.8834 59.5807 94.8834 60.318C94.8834 61.046 94.72 61.6947 94.3934 62.264C94.076 62.824 93.6327 63.2673 93.0634 63.594C92.494 63.9113 91.85 64.07 91.1314 64.07ZM91.1314 63.188C91.6634 63.188 92.1347 63.0713 92.5454 62.838C92.956 62.5953 93.278 62.2593 93.5114 61.83C93.754 61.3913 93.8754 60.8873 93.8754 60.318C93.8754 59.7393 93.754 59.2353 93.5114 58.806C93.278 58.3767 92.956 58.0453 92.5454 57.812C92.1347 57.5693 91.668 57.448 91.1454 57.448C90.6227 57.448 90.156 57.5693 89.7454 57.812C89.3347 58.0453 89.008 58.3767 88.7654 58.806C88.5227 59.2353 88.4014 59.7393 88.4014 60.318C88.4014 60.8873 88.5227 61.3913 88.7654 61.83C89.008 62.2593 89.3347 62.5953 89.7454 62.838C90.156 63.0713 90.618 63.188 91.1314 63.188ZM95.6227 63.986L95.6927 63.132C95.7581 63.1413 95.8187 63.1553 95.8747 63.174C95.9401 63.1833 95.9961 63.188 96.0427 63.188C96.3414 63.188 96.5794 63.076 96.7567 62.852C96.9434 62.628 97.0834 62.3293 97.1767 61.956C97.2701 61.5827 97.3354 61.1627 97.3727 60.696C97.4101 60.22 97.4427 59.744 97.4707 59.268L97.5967 56.65H102.987V64H101.993V57.224L102.245 57.518H98.2407L98.4787 57.21L98.3667 59.338C98.3387 59.9727 98.2874 60.5793 98.2127 61.158C98.1474 61.7367 98.0401 62.2453 97.8907 62.684C97.7507 63.1227 97.5547 63.468 97.3027 63.72C97.0507 63.9627 96.7287 64.084 96.3367 64.084C96.2247 64.084 96.1081 64.0747 95.9867 64.056C95.8747 64.0373 95.7534 64.014 95.6227 63.986ZM109.477 64V56.65H116.085V64H115.091V57.252L115.343 57.518H110.219L110.471 57.252V64H109.477ZM122.704 64.07C122.069 64.07 121.495 63.9253 120.982 63.636C120.469 63.3373 120.058 62.9127 119.75 62.362C119.451 61.802 119.302 61.1207 119.302 60.318C119.302 59.5153 119.451 58.8387 119.75 58.288C120.049 57.728 120.455 57.3033 120.968 57.014C121.481 56.7247 122.06 56.58 122.704 56.58C123.404 56.58 124.029 56.7387 124.58 57.056C125.14 57.364 125.579 57.8027 125.896 58.372C126.213 58.932 126.372 59.5807 126.372 60.318C126.372 61.0647 126.213 61.718 125.896 62.278C125.579 62.838 125.14 63.2767 124.58 63.594C124.029 63.9113 123.404 64.07 122.704 64.07ZM118.91 66.716V56.65H119.862V58.862L119.764 60.332L119.904 61.816V66.716H118.91ZM122.634 63.188C123.157 63.188 123.623 63.0713 124.034 62.838C124.445 62.5953 124.771 62.2593 125.014 61.83C125.257 61.3913 125.378 60.8873 125.378 60.318C125.378 59.7487 125.257 59.2493 125.014 58.82C124.771 58.3907 124.445 58.0547 124.034 57.812C123.623 57.5693 123.157 57.448 122.634 57.448C122.111 57.448 121.64 57.5693 121.22 57.812C120.809 58.0547 120.483 58.3907 120.24 58.82C120.007 59.2493 119.89 59.7487 119.89 60.318C119.89 60.8873 120.007 61.3913 120.24 61.83C120.483 62.2593 120.809 62.5953 121.22 62.838C121.64 63.0713 122.111 63.188 122.634 63.188ZM131.532 64.07C130.822 64.07 130.183 63.9113 129.614 63.594C129.054 63.2673 128.61 62.824 128.284 62.264C127.957 61.6947 127.794 61.046 127.794 60.318C127.794 59.5807 127.957 58.932 128.284 58.372C128.61 57.812 129.054 57.3733 129.614 57.056C130.174 56.7387 130.813 56.58 131.532 56.58C132.26 56.58 132.904 56.7387 133.464 57.056C134.033 57.3733 134.476 57.812 134.794 58.372C135.12 58.932 135.284 59.5807 135.284 60.318C135.284 61.046 135.12 61.6947 134.794 62.264C134.476 62.824 134.033 63.2673 133.464 63.594C132.894 63.9113 132.25 64.07 131.532 64.07ZM131.532 63.188C132.064 63.188 132.535 63.0713 132.946 62.838C133.356 62.5953 133.678 62.2593 133.912 61.83C134.154 61.3913 134.276 60.8873 134.276 60.318C134.276 59.7393 134.154 59.2353 133.912 58.806C133.678 58.3767 133.356 58.0453 132.946 57.812C132.535 57.5693 132.068 57.448 131.546 57.448C131.023 57.448 130.556 57.5693 130.146 57.812C129.735 58.0453 129.408 58.3767 129.166 58.806C128.923 59.2353 128.802 59.7393 128.802 60.318C128.802 60.8873 128.923 61.3913 129.166 61.83C129.408 62.2593 129.735 62.5953 130.146 62.838C130.556 63.0713 131.018 63.188 131.532 63.188ZM135.944 64L139.052 59.968L139.038 60.458L136.084 56.65H137.204L139.626 59.8L139.206 59.786L141.628 56.65H142.72L139.738 60.5L139.752 59.968L142.888 64H141.754L139.192 60.64L139.584 60.696L137.064 64H135.944ZM147.282 64.07C146.572 64.07 145.933 63.9113 145.364 63.594C144.804 63.2673 144.36 62.824 144.034 62.264C143.707 61.6947 143.544 61.046 143.544 60.318C143.544 59.5807 143.707 58.932 144.034 58.372C144.36 57.812 144.804 57.3733 145.364 57.056C145.924 56.7387 146.563 56.58 147.282 56.58C148.01 56.58 148.654 56.7387 149.214 57.056C149.783 57.3733 150.226 57.812 150.544 58.372C150.87 58.932 151.034 59.5807 151.034 60.318C151.034 61.046 150.87 61.6947 150.544 62.264C150.226 62.824 149.783 63.2673 149.214 63.594C148.644 63.9113 148 64.07 147.282 64.07ZM147.282 63.188C147.814 63.188 148.285 63.0713 148.696 62.838C149.106 62.5953 149.428 62.2593 149.662 61.83C149.904 61.3913 150.026 60.8873 150.026 60.318C150.026 59.7393 149.904 59.2353 149.662 58.806C149.428 58.3767 149.106 58.0453 148.696 57.812C148.285 57.5693 147.818 57.448 147.296 57.448C146.773 57.448 146.306 57.5693 145.896 57.812C145.485 58.0453 145.158 58.3767 144.916 58.806C144.673 59.2353 144.552 59.7393 144.552 60.318C144.552 60.8873 144.673 61.3913 144.916 61.83C145.158 62.2593 145.485 62.5953 145.896 62.838C146.306 63.0713 146.768 63.188 147.282 63.188ZM158.157 63.524V57.518H154.615L154.531 59.156C154.512 59.6507 154.48 60.136 154.433 60.612C154.396 61.088 154.326 61.5267 154.223 61.928C154.13 62.32 153.994 62.642 153.817 62.894C153.64 63.1367 153.411 63.2767 153.131 63.314L152.137 63.132C152.426 63.1413 152.664 63.0387 152.851 62.824C153.038 62.6 153.182 62.2967 153.285 61.914C153.388 61.5313 153.462 61.0973 153.509 60.612C153.556 60.1173 153.593 59.6133 153.621 59.1L153.719 56.65H159.151V63.524H158.157ZM151.829 65.778V63.132H160.299V65.778H159.361V64H152.767V65.778H151.829ZM162.236 64V56.65H163.23V62.488L168.144 56.65H169.026V64H168.032V58.148L163.132 64H162.236ZM173.275 64V57.252L173.527 57.518H170.489V56.65H177.055V57.518H174.017L174.269 57.252V64H173.275ZM182.156 64V56.65H188.764V64H187.77V57.252L188.022 57.518H182.898L183.15 57.252V64H182.156ZM194.614 64.07C193.904 64.07 193.265 63.9113 192.696 63.594C192.136 63.2673 191.692 62.824 191.366 62.264C191.039 61.6947 190.876 61.046 190.876 60.318C190.876 59.5807 191.039 58.932 191.366 58.372C191.692 57.812 192.136 57.3733 192.696 57.056C193.256 56.7387 193.895 56.58 194.614 56.58C195.342 56.58 195.986 56.7387 196.546 57.056C197.115 57.3733 197.558 57.812 197.876 58.372C198.202 58.932 198.366 59.5807 198.366 60.318C198.366 61.046 198.202 61.6947 197.876 62.264C197.558 62.824 197.115 63.2673 196.546 63.594C195.976 63.9113 195.332 64.07 194.614 64.07ZM194.614 63.188C195.146 63.188 195.617 63.0713 196.028 62.838C196.438 62.5953 196.76 62.2593 196.994 61.83C197.236 61.3913 197.358 60.8873 197.358 60.318C197.358 59.7393 197.236 59.2353 196.994 58.806C196.76 58.3767 196.438 58.0453 196.028 57.812C195.617 57.5693 195.15 57.448 194.628 57.448C194.105 57.448 193.638 57.5693 193.228 57.812C192.817 58.0453 192.49 58.3767 192.248 58.806C192.005 59.2353 191.884 59.7393 191.884 60.318C191.884 60.8873 192.005 61.3913 192.248 61.83C192.49 62.2593 192.817 62.5953 193.228 62.838C193.638 63.0713 194.1 63.188 194.614 63.188ZM199.105 63.986L199.175 63.132C199.24 63.1413 199.301 63.1553 199.357 63.174C199.422 63.1833 199.478 63.188 199.525 63.188C199.824 63.188 200.062 63.076 200.239 62.852C200.426 62.628 200.566 62.3293 200.659 61.956C200.752 61.5827 200.818 61.1627 200.855 60.696C200.892 60.22 200.925 59.744 200.953 59.268L201.079 56.65H206.469V64H205.475V57.224L205.727 57.518H201.723L201.961 57.21L201.849 59.338C201.821 59.9727 201.77 60.5793 201.695 61.158C201.63 61.7367 201.522 62.2453 201.373 62.684C201.233 63.1227 201.037 63.468 200.785 63.72C200.533 63.9627 200.211 64.084 199.819 64.084C199.707 64.084 199.59 64.0747 199.469 64.056C199.357 64.0373 199.236 64.014 199.105 63.986ZM209.295 64V56.65H210.289V59.898H214.923V56.65H215.917V64H214.923V60.752H210.289V64H209.295ZM225.91 64V56.65H226.904V64H225.91ZM221.836 59.24C222.76 59.2493 223.465 59.4547 223.95 59.856C224.435 60.2573 224.678 60.836 224.678 61.592C224.678 62.376 224.417 62.978 223.894 63.398C223.371 63.818 222.625 64.0233 221.654 64.014L218.742 64V56.65H219.736V59.212L221.836 59.24ZM221.584 63.258C222.275 63.2673 222.793 63.132 223.138 62.852C223.493 62.5627 223.67 62.1427 223.67 61.592C223.67 61.0413 223.497 60.64 223.152 60.388C222.807 60.1267 222.284 59.9913 221.584 59.982L219.736 59.954V63.23L221.584 63.258ZM229.734 64V56.65H230.728V62.488L235.642 56.65H236.524V64H235.53V58.148L230.63 64H229.734ZM233.066 55.586C232.45 55.586 231.951 55.432 231.568 55.124C231.195 54.8067 230.999 54.354 230.98 53.766H231.694C231.704 54.1393 231.834 54.4333 232.086 54.648C232.338 54.8627 232.665 54.97 233.066 54.97C233.468 54.97 233.794 54.8627 234.046 54.648C234.308 54.4333 234.443 54.1393 234.452 53.766H235.166C235.157 54.354 234.961 54.8067 234.578 55.124C234.196 55.432 233.692 55.586 233.066 55.586ZM243.037 64V56.65H244.031V63.132H248.525V56.65H249.519V64H243.037ZM249.771 65.778V63.916L250.023 64H248.525V63.132H250.709V65.778H249.771ZM252.607 64V56.65H253.601V62.488L258.515 56.65H259.397V64H258.403V58.148L253.503 64H252.607ZM267.636 64L264.612 60.36L265.438 59.87L268.812 64H267.636ZM262.246 64V56.65H263.24V64H262.246ZM262.932 60.724V59.87H265.298V60.724H262.932ZM265.522 60.43L264.598 60.29L267.524 56.65H268.602L265.522 60.43ZM269.037 63.986L269.107 63.132C269.172 63.1413 269.233 63.1553 269.289 63.174C269.354 63.1833 269.41 63.188 269.457 63.188C269.755 63.188 269.993 63.076 270.171 62.852C270.357 62.628 270.497 62.3293 270.591 61.956C270.684 61.5827 270.749 61.1627 270.787 60.696C270.824 60.22 270.857 59.744 270.885 59.268L271.011 56.65H276.401V64H275.407V57.224L275.659 57.518H271.655L271.893 57.21L271.781 59.338C271.753 59.9727 271.701 60.5793 271.627 61.158C271.561 61.7367 271.454 62.2453 271.305 62.684C271.165 63.1227 270.969 63.468 270.717 63.72C270.465 63.9627 270.143 64.084 269.751 64.084C269.639 64.084 269.522 64.0747 269.401 64.056C269.289 64.0373 269.167 64.014 269.037 63.986ZM282.891 64V56.65H283.885V59.898H288.519V56.65H289.513V64H288.519V60.752H283.885V64H282.891ZM296.902 64V62.376L296.86 62.11V59.394C296.86 58.7687 296.682 58.288 296.328 57.952C295.982 57.616 295.464 57.448 294.774 57.448C294.298 57.448 293.845 57.5273 293.416 57.686C292.986 57.8447 292.622 58.0547 292.324 58.316L291.876 57.574C292.249 57.2567 292.697 57.014 293.22 56.846C293.742 56.6687 294.293 56.58 294.872 56.58C295.824 56.58 296.556 56.818 297.07 57.294C297.592 57.7607 297.854 58.4747 297.854 59.436V64H296.902ZM294.368 64.07C293.817 64.07 293.336 63.9813 292.926 63.804C292.524 63.6173 292.216 63.3653 292.002 63.048C291.787 62.7213 291.68 62.348 291.68 61.928C291.68 61.5453 291.768 61.2 291.946 60.892C292.132 60.5747 292.431 60.3227 292.842 60.136C293.262 59.94 293.822 59.842 294.522 59.842H297.056V60.584H294.55C293.84 60.584 293.346 60.71 293.066 60.962C292.795 61.214 292.66 61.5267 292.66 61.9C292.66 62.32 292.823 62.656 293.15 62.908C293.476 63.16 293.934 63.286 294.522 63.286C295.082 63.286 295.562 63.16 295.964 62.908C296.374 62.6467 296.673 62.2733 296.86 61.788L297.084 62.474C296.897 62.9593 296.57 63.3467 296.104 63.636C295.646 63.9253 295.068 64.07 294.368 64.07ZM304.164 64V56.65H305.158V59.898H309.792V56.65H310.786V64H309.792V60.752H305.158V64H304.164ZM318.175 64V62.376L318.133 62.11V59.394C318.133 58.7687 317.956 58.288 317.601 57.952C317.256 57.616 316.738 57.448 316.047 57.448C315.571 57.448 315.119 57.5273 314.689 57.686C314.26 57.8447 313.896 58.0547 313.597 58.316L313.149 57.574C313.523 57.2567 313.971 57.014 314.493 56.846C315.016 56.6687 315.567 56.58 316.145 56.58C317.097 56.58 317.83 56.818 318.343 57.294C318.866 57.7607 319.127 58.4747 319.127 59.436V64H318.175ZM315.641 64.07C315.091 64.07 314.61 63.9813 314.199 63.804C313.798 63.6173 313.49 63.3653 313.275 63.048C313.061 62.7213 312.953 62.348 312.953 61.928C312.953 61.5453 313.042 61.2 313.219 60.892C313.406 60.5747 313.705 60.3227 314.115 60.136C314.535 59.94 315.095 59.842 315.795 59.842H318.329V60.584H315.823C315.114 60.584 314.619 60.71 314.339 60.962C314.069 61.214 313.933 61.5267 313.933 61.9C313.933 62.32 314.097 62.656 314.423 62.908C314.75 63.16 315.207 63.286 315.795 63.286C316.355 63.286 316.836 63.16 317.237 62.908C317.648 62.6467 317.947 62.2733 318.133 61.788L318.357 62.474C318.171 62.9593 317.844 63.3467 317.377 63.636C316.92 63.9253 316.341 64.07 315.641 64.07ZM326.603 63.132L326.379 63.398V56.65H327.373V63.398L327.107 63.132H331.209L330.943 63.398V56.65H331.937V64H321.773V56.65H322.767V63.398L322.515 63.132H326.603ZM337.912 64.07C337.146 64.07 336.474 63.9113 335.896 63.594C335.317 63.2673 334.864 62.824 334.538 62.264C334.211 61.6947 334.048 61.046 334.048 60.318C334.048 59.59 334.202 58.946 334.51 58.386C334.827 57.826 335.256 57.3873 335.798 57.07C336.348 56.7433 336.964 56.58 337.646 56.58C338.336 56.58 338.948 56.7387 339.48 57.056C340.021 57.364 340.446 57.8027 340.754 58.372C341.062 58.932 341.216 59.5807 341.216 60.318C341.216 60.3647 341.211 60.416 341.202 60.472C341.202 60.5187 341.202 60.57 341.202 60.626H334.804V59.884H340.67L340.278 60.178C340.278 59.646 340.161 59.1747 339.928 58.764C339.704 58.344 339.396 58.0173 339.004 57.784C338.612 57.5507 338.159 57.434 337.646 57.434C337.142 57.434 336.689 57.5507 336.288 57.784C335.886 58.0173 335.574 58.344 335.35 58.764C335.126 59.184 335.014 59.6647 335.014 60.206V60.36C335.014 60.92 335.135 61.4147 335.378 61.844C335.63 62.264 335.975 62.5953 336.414 62.838C336.862 63.0713 337.37 63.188 337.94 63.188C338.388 63.188 338.803 63.1087 339.186 62.95C339.578 62.7913 339.914 62.5487 340.194 62.222L340.754 62.866C340.427 63.258 340.016 63.5567 339.522 63.762C339.036 63.9673 338.5 64.07 337.912 64.07ZM343.416 64V56.65H344.424L347.756 62.292H347.336L350.724 56.65H351.648V64H350.738V57.784L350.92 57.868L347.756 63.104H347.308L344.116 57.812L344.326 57.77V64H343.416ZM358.141 64V56.65H364.749V64H363.755V57.252L364.007 57.518H358.883L359.135 57.252V64H358.141ZM371.368 64.07C370.733 64.07 370.159 63.9253 369.646 63.636C369.133 63.3373 368.722 62.9127 368.414 62.362C368.115 61.802 367.966 61.1207 367.966 60.318C367.966 59.5153 368.115 58.8387 368.414 58.288C368.713 57.728 369.119 57.3033 369.632 57.014C370.145 56.7247 370.724 56.58 371.368 56.58C372.068 56.58 372.693 56.7387 373.244 57.056C373.804 57.364 374.243 57.8027 374.56 58.372C374.877 58.932 375.036 59.5807 375.036 60.318C375.036 61.0647 374.877 61.718 374.56 62.278C374.243 62.838 373.804 63.2767 373.244 63.594C372.693 63.9113 372.068 64.07 371.368 64.07ZM367.574 66.716V56.65H368.526V58.862L368.428 60.332L368.568 61.816V66.716H367.574ZM371.298 63.188C371.821 63.188 372.287 63.0713 372.698 62.838C373.109 62.5953 373.435 62.2593 373.678 61.83C373.921 61.3913 374.042 60.8873 374.042 60.318C374.042 59.7487 373.921 59.2493 373.678 58.82C373.435 58.3907 373.109 58.0547 372.698 57.812C372.287 57.5693 371.821 57.448 371.298 57.448C370.775 57.448 370.304 57.5693 369.884 57.812C369.473 58.0547 369.147 58.3907 368.904 58.82C368.671 59.2493 368.554 59.7487 368.554 60.318C368.554 60.8873 368.671 61.3913 368.904 61.83C369.147 62.2593 369.473 62.5953 369.884 62.838C370.304 63.0713 370.775 63.188 371.298 63.188ZM380.196 64.07C379.486 64.07 378.847 63.9113 378.278 63.594C377.718 63.2673 377.274 62.824 376.948 62.264C376.621 61.6947 376.458 61.046 376.458 60.318C376.458 59.5807 376.621 58.932 376.948 58.372C377.274 57.812 377.718 57.3733 378.278 57.056C378.838 56.7387 379.477 56.58 380.196 56.58C380.924 56.58 381.568 56.7387 382.128 57.056C382.697 57.3733 383.14 57.812 383.458 58.372C383.784 58.932 383.948 59.5807 383.948 60.318C383.948 61.046 383.784 61.6947 383.458 62.264C383.14 62.824 382.697 63.2673 382.128 63.594C381.558 63.9113 380.914 64.07 380.196 64.07ZM380.196 63.188C380.728 63.188 381.199 63.0713 381.61 62.838C382.02 62.5953 382.342 62.2593 382.576 61.83C382.818 61.3913 382.94 60.8873 382.94 60.318C382.94 59.7393 382.818 59.2353 382.576 58.806C382.342 58.3767 382.02 58.0453 381.61 57.812C381.199 57.5693 380.732 57.448 380.21 57.448C379.687 57.448 379.22 57.5693 378.81 57.812C378.399 58.0453 378.072 58.3767 377.83 58.806C377.587 59.2353 377.466 59.7393 377.466 60.318C377.466 60.8873 377.587 61.3913 377.83 61.83C378.072 62.2593 378.399 62.5953 378.81 62.838C379.22 63.0713 379.682 63.188 380.196 63.188ZM386.072 64V56.65H387.066V62.488L391.98 56.65H392.862V64H391.868V58.148L386.968 64H386.072ZM397.534 64.084C397.002 64.084 396.475 64.0093 395.952 63.86C395.43 63.7107 394.968 63.482 394.566 63.174L394.888 62.432C395.243 62.6933 395.654 62.894 396.12 63.034C396.587 63.1647 397.049 63.23 397.506 63.23C397.964 63.2207 398.36 63.1553 398.696 63.034C399.032 62.9127 399.294 62.7447 399.48 62.53C399.667 62.3153 399.76 62.0727 399.76 61.802C399.76 61.41 399.583 61.1067 399.228 60.892C398.874 60.668 398.388 60.556 397.772 60.556H396.512V59.828H397.702C398.066 59.828 398.388 59.7813 398.668 59.688C398.948 59.5947 399.163 59.4593 399.312 59.282C399.471 59.1047 399.55 58.8947 399.55 58.652C399.55 58.3907 399.457 58.1667 399.27 57.98C399.093 57.7933 398.846 57.6533 398.528 57.56C398.211 57.4667 397.852 57.42 397.45 57.42C397.086 57.4293 396.708 57.4853 396.316 57.588C395.924 57.6813 395.537 57.826 395.154 58.022L394.874 57.252C395.304 57.028 395.728 56.86 396.148 56.748C396.578 56.6267 397.007 56.566 397.436 56.566C398.024 56.5473 398.552 56.6173 399.018 56.776C399.494 56.9347 399.872 57.1633 400.152 57.462C400.432 57.7513 400.572 58.1013 400.572 58.512C400.572 58.876 400.46 59.1933 400.236 59.464C400.012 59.7347 399.714 59.9447 399.34 60.094C398.967 60.2433 398.542 60.318 398.066 60.318L398.108 60.052C398.948 60.052 399.602 60.2153 400.068 60.542C400.544 60.8687 400.782 61.312 400.782 61.872C400.782 62.3107 400.638 62.698 400.348 63.034C400.059 63.3607 399.667 63.6173 399.172 63.804C398.687 63.9907 398.141 64.084 397.534 64.084ZM403.039 64V56.65H406.287C407.118 56.65 407.771 56.8087 408.247 57.126C408.732 57.4433 408.975 57.91 408.975 58.526C408.975 59.1233 408.746 59.5853 408.289 59.912C407.832 60.2293 407.23 60.388 406.483 60.388L406.679 60.094C407.556 60.094 408.2 60.2573 408.611 60.584C409.022 60.9107 409.227 61.382 409.227 61.998C409.227 62.6327 408.994 63.1273 408.527 63.482C408.07 63.8273 407.356 64 406.385 64H403.039ZM404.005 63.216H406.343C406.968 63.216 407.44 63.118 407.757 62.922C408.084 62.7167 408.247 62.39 408.247 61.942C408.247 61.494 408.102 61.1673 407.813 60.962C407.524 60.7567 407.066 60.654 406.441 60.654H404.005V63.216ZM404.005 59.912H406.217C406.786 59.912 407.22 59.8047 407.519 59.59C407.827 59.3753 407.981 59.0627 407.981 58.652C407.981 58.2413 407.827 57.9333 407.519 57.728C407.22 57.5227 406.786 57.42 406.217 57.42H404.005V59.912ZM414.581 64.07C413.871 64.07 413.232 63.9113 412.663 63.594C412.103 63.2673 411.659 62.824 411.333 62.264C411.006 61.6947 410.843 61.046 410.843 60.318C410.843 59.5807 411.006 58.932 411.333 58.372C411.659 57.812 412.103 57.3733 412.663 57.056C413.223 56.7387 413.862 56.58 414.581 56.58C415.309 56.58 415.953 56.7387 416.513 57.056C417.082 57.3733 417.525 57.812 417.843 58.372C418.169 58.932 418.333 59.5807 418.333 60.318C418.333 61.046 418.169 61.6947 417.843 62.264C417.525 62.824 417.082 63.2673 416.513 63.594C415.943 63.9113 415.299 64.07 414.581 64.07ZM414.581 63.188C415.113 63.188 415.584 63.0713 415.995 62.838C416.405 62.5953 416.727 62.2593 416.961 61.83C417.203 61.3913 417.325 60.8873 417.325 60.318C417.325 59.7393 417.203 59.2353 416.961 58.806C416.727 58.3767 416.405 58.0453 415.995 57.812C415.584 57.5693 415.117 57.448 414.595 57.448C414.072 57.448 413.605 57.5693 413.195 57.812C412.784 58.0453 412.457 58.3767 412.215 58.806C411.972 59.2353 411.851 59.7393 411.851 60.318C411.851 60.8873 411.972 61.3913 412.215 61.83C412.457 62.2593 412.784 62.5953 413.195 62.838C413.605 63.0713 414.067 63.188 414.581 63.188ZM425.456 63.524V57.518H421.914L421.83 59.156C421.811 59.6507 421.779 60.136 421.732 60.612C421.695 61.088 421.625 61.5267 421.522 61.928C421.429 62.32 421.293 62.642 421.116 62.894C420.939 63.1367 420.71 63.2767 420.43 63.314L419.436 63.132C419.725 63.1413 419.963 63.0387 420.15 62.824C420.337 62.6 420.481 62.2967 420.584 61.914C420.687 61.5313 420.761 61.0973 420.808 60.612C420.855 60.1173 420.892 59.6133 420.92 59.1L421.018 56.65H426.45V63.524H425.456ZM419.128 65.778V63.132H427.598V65.778H426.66V64H420.066V65.778H419.128ZM432.615 64.07C431.887 64.07 431.234 63.9113 430.655 63.594C430.086 63.2673 429.638 62.824 429.311 62.264C428.984 61.6947 428.821 61.046 428.821 60.318C428.821 59.5807 428.984 58.932 429.311 58.372C429.638 57.812 430.086 57.3733 430.655 57.056C431.234 56.7387 431.887 56.58 432.615 56.58C433.24 56.58 433.805 56.7013 434.309 56.944C434.813 57.1867 435.21 57.5507 435.499 58.036L434.757 58.54C434.505 58.1667 434.192 57.8913 433.819 57.714C433.446 57.5367 433.04 57.448 432.601 57.448C432.078 57.448 431.607 57.5693 431.187 57.812C430.767 58.0453 430.436 58.3767 430.193 58.806C429.95 59.2353 429.829 59.7393 429.829 60.318C429.829 60.8967 429.95 61.4007 430.193 61.83C430.436 62.2593 430.767 62.5953 431.187 62.838C431.607 63.0713 432.078 63.188 432.601 63.188C433.04 63.188 433.446 63.0993 433.819 62.922C434.192 62.7447 434.505 62.474 434.757 62.11L435.499 62.614C435.21 63.09 434.813 63.454 434.309 63.706C433.805 63.9487 433.24 64.07 432.615 64.07ZM438.687 64V57.252L438.939 57.518H435.901V56.65H442.467V57.518H439.429L439.681 57.252V64H438.687ZM443.904 64V56.65H447.152C447.983 56.65 448.636 56.8087 449.112 57.126C449.598 57.4433 449.84 57.91 449.84 58.526C449.84 59.1233 449.612 59.5853 449.154 59.912C448.697 60.2293 448.095 60.388 447.348 60.388L447.544 60.094C448.422 60.094 449.066 60.2573 449.476 60.584C449.887 60.9107 450.092 61.382 450.092 61.998C450.092 62.6327 449.859 63.1273 449.392 63.482C448.935 63.8273 448.221 64 447.25 64H443.904ZM444.87 63.216H447.208C447.834 63.216 448.305 63.118 448.622 62.922C448.949 62.7167 449.112 62.39 449.112 61.942C449.112 61.494 448.968 61.1673 448.678 60.962C448.389 60.7567 447.932 60.654 447.306 60.654H444.87V63.216ZM444.87 59.912H447.082C447.652 59.912 448.086 59.8047 448.384 59.59C448.692 59.3753 448.846 59.0627 448.846 58.652C448.846 58.2413 448.692 57.9333 448.384 57.728C448.086 57.5227 447.652 57.42 447.082 57.42H444.87V59.912ZM455.572 64.07C454.806 64.07 454.134 63.9113 453.556 63.594C452.977 63.2673 452.524 62.824 452.198 62.264C451.871 61.6947 451.708 61.046 451.708 60.318C451.708 59.59 451.862 58.946 452.17 58.386C452.487 57.826 452.916 57.3873 453.458 57.07C454.008 56.7433 454.624 56.58 455.306 56.58C455.996 56.58 456.608 56.7387 457.14 57.056C457.681 57.364 458.106 57.8027 458.414 58.372C458.722 58.932 458.876 59.5807 458.876 60.318C458.876 60.3647 458.871 60.416 458.862 60.472C458.862 60.5187 458.862 60.57 458.862 60.626H452.464V59.884H458.33L457.938 60.178C457.938 59.646 457.821 59.1747 457.588 58.764C457.364 58.344 457.056 58.0173 456.664 57.784C456.272 57.5507 455.819 57.434 455.306 57.434C454.802 57.434 454.349 57.5507 453.948 57.784C453.546 58.0173 453.234 58.344 453.01 58.764C452.786 59.184 452.674 59.6647 452.674 60.206V60.36C452.674 60.92 452.795 61.4147 453.038 61.844C453.29 62.264 453.635 62.5953 454.074 62.838C454.522 63.0713 455.03 63.188 455.6 63.188C456.048 63.188 456.463 63.1087 456.846 62.95C457.238 62.7913 457.574 62.5487 457.854 62.222L458.414 62.866C458.087 63.258 457.676 63.5567 457.182 63.762C456.696 63.9673 456.16 64.07 455.572 64.07ZM467.764 64.07C467.055 64.07 466.416 63.9113 465.846 63.594C465.286 63.2673 464.843 62.824 464.516 62.264C464.19 61.6947 464.026 61.046 464.026 60.318C464.026 59.5807 464.19 58.932 464.516 58.372C464.843 57.812 465.286 57.3733 465.846 57.056C466.406 56.7387 467.046 56.58 467.764 56.58C468.492 56.58 469.136 56.7387 469.696 57.056C470.266 57.3733 470.709 57.812 471.026 58.372C471.353 58.932 471.516 59.5807 471.516 60.318C471.516 61.046 471.353 61.6947 471.026 62.264C470.709 62.824 470.266 63.2673 469.696 63.594C469.127 63.9113 468.483 64.07 467.764 64.07ZM467.764 63.188C468.296 63.188 468.768 63.0713 469.178 62.838C469.589 62.5953 469.911 62.2593 470.144 61.83C470.387 61.3913 470.508 60.8873 470.508 60.318C470.508 59.7393 470.387 59.2353 470.144 58.806C469.911 58.3767 469.589 58.0453 469.178 57.812C468.768 57.5693 468.301 57.448 467.778 57.448C467.256 57.448 466.789 57.5693 466.378 57.812C465.968 58.0453 465.641 58.3767 465.398 58.806C465.156 59.2353 465.034 59.7393 465.034 60.318C465.034 60.8873 465.156 61.3913 465.398 61.83C465.641 62.2593 465.968 62.5953 466.378 62.838C466.789 63.0713 467.251 63.188 467.764 63.188ZM474.767 64V57.252L475.019 57.518H471.981V56.65H478.547V57.518H475.509L475.761 57.252V64H474.767ZM487.442 64.07C486.808 64.07 486.234 63.9253 485.72 63.636C485.207 63.3373 484.796 62.9127 484.488 62.362C484.19 61.802 484.04 61.1207 484.04 60.318C484.04 59.5153 484.19 58.8387 484.488 58.288C484.787 57.728 485.193 57.3033 485.706 57.014C486.22 56.7247 486.798 56.58 487.442 56.58C488.142 56.58 488.768 56.7387 489.318 57.056C489.878 57.364 490.317 57.8027 490.634 58.372C490.952 58.932 491.11 59.5807 491.11 60.318C491.11 61.0647 490.952 61.718 490.634 62.278C490.317 62.838 489.878 63.2767 489.318 63.594C488.768 63.9113 488.142 64.07 487.442 64.07ZM483.648 66.716V56.65H484.6V58.862L484.502 60.332L484.642 61.816V66.716H483.648ZM487.372 63.188C487.895 63.188 488.362 63.0713 488.772 62.838C489.183 62.5953 489.51 62.2593 489.752 61.83C489.995 61.3913 490.116 60.8873 490.116 60.318C490.116 59.7487 489.995 59.2493 489.752 58.82C489.51 58.3907 489.183 58.0547 488.772 57.812C488.362 57.5693 487.895 57.448 487.372 57.448C486.85 57.448 486.378 57.5693 485.958 57.812C485.548 58.0547 485.221 58.3907 484.978 58.82C484.745 59.2493 484.628 59.7487 484.628 60.318C484.628 60.8873 484.745 61.3913 484.978 61.83C485.221 62.2593 485.548 62.5953 485.958 62.838C486.378 63.0713 486.85 63.188 487.372 63.188ZM497.769 64V62.376L497.727 62.11V59.394C497.727 58.7687 497.55 58.288 497.195 57.952C496.85 57.616 496.332 57.448 495.641 57.448C495.165 57.448 494.712 57.5273 494.283 57.686C493.854 57.8447 493.49 58.0547 493.191 58.316L492.743 57.574C493.116 57.2567 493.564 57.014 494.087 56.846C494.61 56.6687 495.16 56.58 495.739 56.58C496.691 56.58 497.424 56.818 497.937 57.294C498.46 57.7607 498.721 58.4747 498.721 59.436V64H497.769ZM495.235 64.07C494.684 64.07 494.204 63.9813 493.793 63.804C493.392 63.6173 493.084 63.3653 492.869 63.048C492.654 62.7213 492.547 62.348 492.547 61.928C492.547 61.5453 492.636 61.2 492.813 60.892C493 60.5747 493.298 60.3227 493.709 60.136C494.129 59.94 494.689 59.842 495.389 59.842H497.923V60.584H495.417C494.708 60.584 494.213 60.71 493.933 60.962C493.662 61.214 493.527 61.5267 493.527 61.9C493.527 62.32 493.69 62.656 494.017 62.908C494.344 63.16 494.801 63.286 495.389 63.286C495.949 63.286 496.43 63.16 496.831 62.908C497.242 62.6467 497.54 62.2733 497.727 61.788L497.951 62.474C497.764 62.9593 497.438 63.3467 496.971 63.636C496.514 63.9253 495.935 64.07 495.235 64.07ZM503.191 64.084C502.659 64.084 502.131 64.0093 501.609 63.86C501.086 63.7107 500.624 63.482 500.223 63.174L500.545 62.432C500.899 62.6933 501.31 62.894 501.777 63.034C502.243 63.1647 502.705 63.23 503.163 63.23C503.62 63.2207 504.017 63.1553 504.353 63.034C504.689 62.9127 504.95 62.7447 505.137 62.53C505.323 62.3153 505.417 62.0727 505.417 61.802C505.417 61.41 505.239 61.1067 504.885 60.892C504.53 60.668 504.045 60.556 503.429 60.556H502.169V59.828H503.359C503.723 59.828 504.045 59.7813 504.325 59.688C504.605 59.5947 504.819 59.4593 504.969 59.282C505.127 59.1047 505.207 58.8947 505.207 58.652C505.207 58.3907 505.113 58.1667 504.927 57.98C504.749 57.7933 504.502 57.6533 504.185 57.56C503.867 57.4667 503.508 57.42 503.107 57.42C502.743 57.4293 502.365 57.4853 501.973 57.588C501.581 57.6813 501.193 57.826 500.811 58.022L500.531 57.252C500.96 57.028 501.385 56.86 501.805 56.748C502.234 56.6267 502.663 56.566 503.093 56.566C503.681 56.5473 504.208 56.6173 504.675 56.776C505.151 56.9347 505.529 57.1633 505.809 57.462C506.089 57.7513 506.229 58.1013 506.229 58.512C506.229 58.876 506.117 59.1933 505.893 59.464C505.669 59.7347 505.37 59.9447 504.997 60.094C504.623 60.2433 504.199 60.318 503.723 60.318L503.765 60.052C504.605 60.052 505.258 60.2153 505.725 60.542C506.201 60.8687 506.439 61.312 506.439 61.872C506.439 62.3107 506.294 62.698 506.005 63.034C505.715 63.3607 505.323 63.6173 504.829 63.804C504.343 63.9907 503.797 64.084 503.191 64.084ZM512.489 64.07C511.855 64.07 511.281 63.9253 510.767 63.636C510.254 63.3373 509.843 62.9127 509.535 62.362C509.237 61.802 509.087 61.1207 509.087 60.318C509.087 59.5153 509.237 58.8387 509.535 58.288C509.834 57.728 510.24 57.3033 510.753 57.014C511.267 56.7247 511.845 56.58 512.489 56.58C513.189 56.58 513.815 56.7387 514.365 57.056C514.925 57.364 515.364 57.8027 515.681 58.372C515.999 58.932 516.157 59.5807 516.157 60.318C516.157 61.0647 515.999 61.718 515.681 62.278C515.364 62.838 514.925 63.2767 514.365 63.594C513.815 63.9113 513.189 64.07 512.489 64.07ZM508.695 66.716V56.65H509.647V58.862L509.549 60.332L509.689 61.816V66.716H508.695ZM512.419 63.188C512.942 63.188 513.409 63.0713 513.819 62.838C514.23 62.5953 514.557 62.2593 514.799 61.83C515.042 61.3913 515.163 60.8873 515.163 60.318C515.163 59.7487 515.042 59.2493 514.799 58.82C514.557 58.3907 514.23 58.0547 513.819 57.812C513.409 57.5693 512.942 57.448 512.419 57.448C511.897 57.448 511.425 57.5693 511.005 57.812C510.595 58.0547 510.268 58.3907 510.025 58.82C509.792 59.2493 509.675 59.7487 509.675 60.318C509.675 60.8873 509.792 61.3913 510.025 61.83C510.268 62.2593 510.595 62.5953 511.005 62.838C511.425 63.0713 511.897 63.188 512.419 63.188ZM522.816 64V62.376L522.774 62.11V59.394C522.774 58.7687 522.597 58.288 522.242 57.952C521.897 57.616 521.379 57.448 520.688 57.448C520.212 57.448 519.759 57.5273 519.33 57.686C518.901 57.8447 518.537 58.0547 518.238 58.316L517.79 57.574C518.163 57.2567 518.611 57.014 519.134 56.846C519.657 56.6687 520.207 56.58 520.786 56.58C521.738 56.58 522.471 56.818 522.984 57.294C523.507 57.7607 523.768 58.4747 523.768 59.436V64H522.816ZM520.282 64.07C519.731 64.07 519.251 63.9813 518.84 63.804C518.439 63.6173 518.131 63.3653 517.916 63.048C517.701 62.7213 517.594 62.348 517.594 61.928C517.594 61.5453 517.683 61.2 517.86 60.892C518.047 60.5747 518.345 60.3227 518.756 60.136C519.176 59.94 519.736 59.842 520.436 59.842H522.97V60.584H520.464C519.755 60.584 519.26 60.71 518.98 60.962C518.709 61.214 518.574 61.5267 518.574 61.9C518.574 62.32 518.737 62.656 519.064 62.908C519.391 63.16 519.848 63.286 520.436 63.286C520.996 63.286 521.477 63.16 521.878 62.908C522.289 62.6467 522.587 62.2733 522.774 61.788L522.998 62.474C522.811 62.9593 522.485 63.3467 522.018 63.636C521.561 63.9253 520.982 64.07 520.282 64.07ZM529.718 64.084C529.121 64.084 528.589 63.986 528.122 63.79C527.665 63.594 527.273 63.2953 526.946 62.894C526.619 62.4927 526.372 61.998 526.204 61.41C526.036 60.8127 525.952 60.122 525.952 59.338C525.952 58.638 526.017 58.0267 526.148 57.504C526.279 56.972 526.461 56.5147 526.694 56.132C526.927 55.7493 527.198 55.4273 527.506 55.166C527.823 54.8953 528.164 54.6807 528.528 54.522C528.901 54.354 529.284 54.228 529.676 54.144L532.98 53.374L533.148 54.298L530.04 54.998C529.844 55.0447 529.606 55.11 529.326 55.194C529.055 55.278 528.775 55.404 528.486 55.572C528.206 55.74 527.945 55.9733 527.702 56.272C527.459 56.5707 527.263 56.958 527.114 57.434C526.974 57.9007 526.904 58.484 526.904 59.184C526.904 59.3333 526.909 59.4547 526.918 59.548C526.927 59.632 526.937 59.7253 526.946 59.828C526.965 59.9213 526.979 60.0613 526.988 60.248L526.554 59.884C526.657 59.3147 526.867 58.82 527.184 58.4C527.501 57.9707 527.898 57.6393 528.374 57.406C528.859 57.1633 529.396 57.042 529.984 57.042C530.665 57.042 531.272 57.1913 531.804 57.49C532.336 57.7793 532.751 58.1853 533.05 58.708C533.358 59.2307 533.512 59.8373 533.512 60.528C533.512 61.2093 533.353 61.8207 533.036 62.362C532.728 62.9033 532.289 63.328 531.72 63.636C531.151 63.9347 530.483 64.084 529.718 64.084ZM529.83 63.258C530.353 63.258 530.815 63.1413 531.216 62.908C531.617 62.6653 531.93 62.3387 532.154 61.928C532.387 61.5173 532.504 61.0553 532.504 60.542C532.504 60.038 532.387 59.59 532.154 59.198C531.93 58.806 531.617 58.498 531.216 58.274C530.815 58.0407 530.348 57.924 529.816 57.924C529.293 57.924 528.831 58.036 528.43 58.26C528.029 58.4747 527.711 58.778 527.478 59.17C527.254 59.562 527.142 60.0147 527.142 60.528C527.142 61.0413 527.254 61.5033 527.478 61.914C527.711 62.3247 528.029 62.6513 528.43 62.894C528.841 63.1367 529.307 63.258 529.83 63.258ZM538.667 64.07C537.957 64.07 537.318 63.9113 536.749 63.594C536.189 63.2673 535.745 62.824 535.419 62.264C535.092 61.6947 534.929 61.046 534.929 60.318C534.929 59.5807 535.092 58.932 535.419 58.372C535.745 57.812 536.189 57.3733 536.749 57.056C537.309 56.7387 537.948 56.58 538.667 56.58C539.395 56.58 540.039 56.7387 540.599 57.056C541.168 57.3733 541.611 57.812 541.929 58.372C542.255 58.932 542.419 59.5807 542.419 60.318C542.419 61.046 542.255 61.6947 541.929 62.264C541.611 62.824 541.168 63.2673 540.599 63.594C540.029 63.9113 539.385 64.07 538.667 64.07ZM538.667 63.188C539.199 63.188 539.67 63.0713 540.081 62.838C540.491 62.5953 540.813 62.2593 541.047 61.83C541.289 61.3913 541.411 60.8873 541.411 60.318C541.411 59.7393 541.289 59.2353 541.047 58.806C540.813 58.3767 540.491 58.0453 540.081 57.812C539.67 57.5693 539.203 57.448 538.681 57.448C538.158 57.448 537.691 57.5693 537.281 57.812C536.87 58.0453 536.543 58.3767 536.301 58.806C536.058 59.2353 535.937 59.7393 535.937 60.318C535.937 60.8873 536.058 61.3913 536.301 61.83C536.543 62.2593 536.87 62.5953 537.281 62.838C537.691 63.0713 538.153 63.188 538.667 63.188ZM545.669 64V57.252L545.921 57.518H542.883V56.65H549.449V57.518H546.411L546.663 57.252V64H545.669ZM556.277 64L553.253 60.36L554.079 59.87L557.453 64H556.277ZM550.887 64V56.65H551.881V64H550.887ZM551.573 60.724V59.87H553.939V60.724H551.573ZM554.163 60.43L553.239 60.29L556.165 56.65H557.243L554.163 60.43ZM559.021 64V56.65H560.015V62.488L564.929 56.65H565.811V64H564.817V58.148L559.917 64H559.021ZM570.98 63.986L571.05 63.132C571.115 63.1413 571.176 63.1553 571.232 63.174C571.297 63.1833 571.353 63.188 571.4 63.188C571.699 63.188 571.937 63.076 572.114 62.852C572.301 62.628 572.441 62.3293 572.534 61.956C572.627 61.5827 572.693 61.1627 572.73 60.696C572.767 60.22 572.8 59.744 572.828 59.268L572.954 56.65H578.344V64H577.35V57.224L577.602 57.518H573.598L573.836 57.21L573.724 59.338C573.696 59.9727 573.645 60.5793 573.57 61.158C573.505 61.7367 573.397 62.2453 573.248 62.684C573.108 63.1227 572.912 63.468 572.66 63.72C572.408 63.9627 572.086 64.084 571.694 64.084C571.582 64.084 571.465 64.0747 571.344 64.056C571.232 64.0373 571.111 64.014 570.98 63.986ZM584.32 64.07C583.555 64.07 582.883 63.9113 582.304 63.594C581.725 63.2673 581.273 62.824 580.946 62.264C580.619 61.6947 580.456 61.046 580.456 60.318C580.456 59.59 580.61 58.946 580.918 58.386C581.235 57.826 581.665 57.3873 582.206 57.07C582.757 56.7433 583.373 56.58 584.054 56.58C584.745 56.58 585.356 56.7387 585.888 57.056C586.429 57.364 586.854 57.8027 587.162 58.372C587.47 58.932 587.624 59.5807 587.624 60.318C587.624 60.3647 587.619 60.416 587.61 60.472C587.61 60.5187 587.61 60.57 587.61 60.626H581.212V59.884H587.078L586.686 60.178C586.686 59.646 586.569 59.1747 586.336 58.764C586.112 58.344 585.804 58.0173 585.412 57.784C585.02 57.5507 584.567 57.434 584.054 57.434C583.55 57.434 583.097 57.5507 582.696 57.784C582.295 58.0173 581.982 58.344 581.758 58.764C581.534 59.184 581.422 59.6647 581.422 60.206V60.36C581.422 60.92 581.543 61.4147 581.786 61.844C582.038 62.264 582.383 62.5953 582.822 62.838C583.27 63.0713 583.779 63.188 584.348 63.188C584.796 63.188 585.211 63.1087 585.594 62.95C585.986 62.7913 586.322 62.5487 586.602 62.222L587.162 62.866C586.835 63.258 586.425 63.5567 585.93 63.762C585.445 63.9673 584.908 64.07 584.32 64.07ZM595.214 64L592.19 60.36L593.016 59.87L596.39 64H595.214ZM589.824 64V56.65H590.818V64H589.824ZM590.51 60.724V59.87H592.876V60.724H590.51ZM593.1 60.43L592.176 60.29L595.102 56.65H596.18L593.1 60.43ZM602.386 64V62.376L602.344 62.11V59.394C602.344 58.7687 602.167 58.288 601.812 57.952C601.467 57.616 600.949 57.448 600.258 57.448C599.782 57.448 599.33 57.5273 598.9 57.686C598.471 57.8447 598.107 58.0547 597.808 58.316L597.36 57.574C597.734 57.2567 598.182 57.014 598.704 56.846C599.227 56.6687 599.778 56.58 600.356 56.58C601.308 56.58 602.041 56.818 602.554 57.294C603.077 57.7607 603.338 58.4747 603.338 59.436V64H602.386ZM599.852 64.07C599.302 64.07 598.821 63.9813 598.41 63.804C598.009 63.6173 597.701 63.3653 597.486 63.048C597.272 62.7213 597.164 62.348 597.164 61.928C597.164 61.5453 597.253 61.2 597.43 60.892C597.617 60.5747 597.916 60.3227 598.326 60.136C598.746 59.94 599.306 59.842 600.006 59.842H602.54V60.584H600.034C599.325 60.584 598.83 60.71 598.55 60.962C598.28 61.214 598.144 61.5267 598.144 61.9C598.144 62.32 598.308 62.656 598.634 62.908C598.961 63.16 599.418 63.286 600.006 63.286C600.566 63.286 601.047 63.16 601.448 62.908C601.859 62.6467 602.158 62.2733 602.344 61.788L602.568 62.474C602.382 62.9593 602.055 63.3467 601.588 63.636C601.131 63.9253 600.552 64.07 599.852 64.07ZM604.64 63.986L604.71 63.132C604.776 63.1413 604.836 63.1553 604.892 63.174C604.958 63.1833 605.014 63.188 605.06 63.188C605.359 63.188 605.597 63.076 605.774 62.852C605.961 62.628 606.101 62.3293 606.194 61.956C606.288 61.5827 606.353 61.1627 606.39 60.696C606.428 60.22 606.46 59.744 606.488 59.268L606.614 56.65H612.004V64H611.01V57.224L611.262 57.518H607.258L607.496 57.21L607.384 59.338C607.356 59.9727 607.305 60.5793 607.23 61.158C607.165 61.7367 607.058 62.2453 606.908 62.684C606.768 63.1227 606.572 63.468 606.32 63.72C606.068 63.9627 605.746 64.084 605.354 64.084C605.242 64.084 605.126 64.0747 605.004 64.056C604.892 64.0373 604.771 64.014 604.64 63.986ZM619.394 64V62.376L619.352 62.11V59.394C619.352 58.7687 619.175 58.288 618.82 57.952C618.475 57.616 617.957 57.448 617.266 57.448C616.79 57.448 616.337 57.5273 615.908 57.686C615.479 57.8447 615.115 58.0547 614.816 58.316L614.368 57.574C614.741 57.2567 615.189 57.014 615.712 56.846C616.235 56.6687 616.785 56.58 617.364 56.58C618.316 56.58 619.049 56.818 619.562 57.294C620.085 57.7607 620.346 58.4747 620.346 59.436V64H619.394ZM616.86 64.07C616.309 64.07 615.829 63.9813 615.418 63.804C615.017 63.6173 614.709 63.3653 614.494 63.048C614.279 62.7213 614.172 62.348 614.172 61.928C614.172 61.5453 614.261 61.2 614.438 60.892C614.625 60.5747 614.923 60.3227 615.334 60.136C615.754 59.94 616.314 59.842 617.014 59.842H619.548V60.584H617.042C616.333 60.584 615.838 60.71 615.558 60.962C615.287 61.214 615.152 61.5267 615.152 61.9C615.152 62.32 615.315 62.656 615.642 62.908C615.969 63.16 616.426 63.286 617.014 63.286C617.574 63.286 618.055 63.16 618.456 62.908C618.867 62.6467 619.165 62.2733 619.352 61.788L619.576 62.474C619.389 62.9593 619.063 63.3467 618.596 63.636C618.139 63.9253 617.56 64.07 616.86 64.07ZM631.696 63.524V57.518H628.154L628.07 59.156C628.052 59.6507 628.019 60.136 627.972 60.612C627.935 61.088 627.865 61.5267 627.762 61.928C627.669 62.32 627.534 62.642 627.356 62.894C627.179 63.1367 626.95 63.2767 626.67 63.314L625.676 63.132C625.966 63.1413 626.204 63.0387 626.39 62.824C626.577 62.6 626.722 62.2967 626.824 61.914C626.927 61.5313 627.002 61.0973 627.048 60.612C627.095 60.1173 627.132 59.6133 627.16 59.1L627.258 56.65H632.69V63.524H631.696ZM625.368 65.778V63.132H633.838V65.778H632.9V64H626.306V65.778H625.368ZM638.799 64.07C638.09 64.07 637.451 63.9113 636.881 63.594C636.321 63.2673 635.878 62.824 635.551 62.264C635.225 61.6947 635.061 61.046 635.061 60.318C635.061 59.5807 635.225 58.932 635.551 58.372C635.878 57.812 636.321 57.3733 636.881 57.056C637.441 56.7387 638.081 56.58 638.799 56.58C639.527 56.58 640.171 56.7387 640.731 57.056C641.301 57.3733 641.744 57.812 642.061 58.372C642.388 58.932 642.551 59.5807 642.551 60.318C642.551 61.046 642.388 61.6947 642.061 62.264C641.744 62.824 641.301 63.2673 640.731 63.594C640.162 63.9113 639.518 64.07 638.799 64.07ZM638.799 63.188C639.331 63.188 639.803 63.0713 640.213 62.838C640.624 62.5953 640.946 62.2593 641.179 61.83C641.422 61.3913 641.543 60.8873 641.543 60.318C641.543 59.7393 641.422 59.2353 641.179 58.806C640.946 58.3767 640.624 58.0453 640.213 57.812C639.803 57.5693 639.336 57.448 638.813 57.448C638.291 57.448 637.824 57.5693 637.413 57.812C637.003 58.0453 636.676 58.3767 636.433 58.806C636.191 59.2353 636.069 59.7393 636.069 60.318C636.069 60.8873 636.191 61.3913 636.433 61.83C636.676 62.2593 637.003 62.5953 637.413 62.838C637.824 63.0713 638.286 63.188 638.799 63.188ZM5.544 86.084C5.544 86.084 5.52533 86.084 5.488 86.084C5.45067 86.084 5.41333 86.084 5.376 86.084C5.348 86.084 5.32467 86.084 5.306 86.084C3.85 86.0747 2.716 85.7433 1.904 85.09C1.092 84.4367 0.686 83.508 0.686 82.304C0.686 81.1187 1.092 80.204 1.904 79.56C2.72533 78.9067 3.878 78.5753 5.362 78.566C5.37133 78.566 5.39 78.566 5.418 78.566C5.45533 78.566 5.488 78.566 5.516 78.566C5.544 78.566 5.56267 78.566 5.572 78.566C7.06533 78.5753 8.22733 78.9067 9.058 79.56C9.88867 80.204 10.304 81.1187 10.304 82.304C10.304 83.5173 9.884 84.4507 9.044 85.104C8.21333 85.7573 7.04667 86.084 5.544 86.084ZM5.53 85.216C6.36067 85.216 7.056 85.104 7.616 84.88C8.176 84.6467 8.60067 84.3153 8.89 83.886C9.17933 83.4567 9.324 82.9293 9.324 82.304C9.324 81.6973 9.17933 81.184 8.89 80.764C8.60067 80.3347 8.176 80.008 7.616 79.784C7.056 79.56 6.36067 79.448 5.53 79.448C5.52067 79.448 5.49267 79.448 5.446 79.448C5.40867 79.448 5.38533 79.448 5.376 79.448C4.564 79.448 3.88267 79.5647 3.332 79.798C2.78133 80.022 2.366 80.344 2.086 80.764C1.806 81.184 1.666 81.6973 1.666 82.304C1.666 82.92 1.806 83.4427 2.086 83.872C2.37533 84.3013 2.79533 84.6327 3.346 84.866C3.89667 85.09 4.57333 85.2067 5.376 85.216C5.39467 85.216 5.42267 85.216 5.46 85.216C5.49733 85.216 5.52067 85.216 5.53 85.216ZM4.998 88.716V75.612H5.964V88.716H4.998ZM12.4062 86V78.65H13.4002V84.488L18.3142 78.65H19.1962V86H18.2022V80.148L13.3022 86H12.4062ZM22.0449 86V78.65H23.0389V81.898H27.6729V78.65H28.6669V86H27.6729V82.752H23.0389V86H22.0449ZM36.0561 86V84.376L36.0141 84.11V81.394C36.0141 80.7687 35.8368 80.288 35.4821 79.952C35.1368 79.616 34.6188 79.448 33.9281 79.448C33.4521 79.448 32.9995 79.5273 32.5701 79.686C32.1408 79.8447 31.7768 80.0547 31.4781 80.316L31.0301 79.574C31.4035 79.2567 31.8515 79.014 32.3741 78.846C32.8968 78.6687 33.4475 78.58 34.0261 78.58C34.9781 78.58 35.7108 78.818 36.2241 79.294C36.7468 79.7607 37.0081 80.4747 37.0081 81.436V86H36.0561ZM33.5221 86.07C32.9715 86.07 32.4908 85.9813 32.0801 85.804C31.6788 85.6173 31.3708 85.3653 31.1561 85.048C30.9415 84.7213 30.8341 84.348 30.8341 83.928C30.8341 83.5453 30.9228 83.2 31.1001 82.892C31.2868 82.5747 31.5855 82.3227 31.9961 82.136C32.4161 81.94 32.9761 81.842 33.6761 81.842H36.2101V82.584H33.7041C32.9948 82.584 32.5001 82.71 32.2201 82.962C31.9495 83.214 31.8141 83.5267 31.8141 83.9C31.8141 84.32 31.9775 84.656 32.3041 84.908C32.6308 85.16 33.0881 85.286 33.6761 85.286C34.2361 85.286 34.7168 85.16 35.1181 84.908C35.5288 84.6467 35.8275 84.2733 36.0141 83.788L36.2381 84.474C36.0515 84.9593 35.7248 85.3467 35.2581 85.636C34.8008 85.9253 34.2221 86.07 33.5221 86.07ZM38.3102 85.986L38.3802 85.132C38.4456 85.1413 38.5062 85.1553 38.5622 85.174C38.6276 85.1833 38.6836 85.188 38.7302 85.188C39.0289 85.188 39.2669 85.076 39.4442 84.852C39.6309 84.628 39.7709 84.3293 39.8642 83.956C39.9576 83.5827 40.0229 83.1627 40.0602 82.696C40.0976 82.22 40.1302 81.744 40.1582 81.268L40.2842 78.65H45.6742V86H44.6802V79.224L44.9322 79.518H40.9282L41.1662 79.21L41.0542 81.338C41.0262 81.9727 40.9749 82.5793 40.9002 83.158C40.8349 83.7367 40.7276 84.2453 40.5782 84.684C40.4382 85.1227 40.2422 85.468 39.9902 85.72C39.7382 85.9627 39.4162 86.084 39.0242 86.084C38.9122 86.084 38.7956 86.0747 38.6742 86.056C38.5622 86.0373 38.4409 86.014 38.3102 85.986ZM51.6639 81.24C52.5879 81.2493 53.2879 81.4547 53.7639 81.856C54.2493 82.2573 54.4919 82.836 54.4919 83.592C54.4919 84.376 54.2306 84.978 53.7079 85.398C53.1946 85.818 52.4479 86.0233 51.4679 86.014L48.4999 86V78.65H49.4939V81.212L51.6639 81.24ZM51.4119 85.258C52.0933 85.2673 52.6066 85.132 52.9519 84.852C53.3066 84.5627 53.4839 84.1427 53.4839 83.592C53.4839 83.0413 53.3113 82.64 52.9659 82.388C52.6206 82.1267 52.1026 81.9913 51.4119 81.982L49.4939 81.954V85.23L51.4119 85.258ZM56.3886 86V78.65H57.3826V81.898H62.0166V78.65H63.0106V86H62.0166V82.752H57.3826V86H56.3886ZM68.8599 86.07C68.1505 86.07 67.5112 85.9113 66.9419 85.594C66.3819 85.2673 65.9385 84.824 65.6119 84.264C65.2852 83.6947 65.1219 83.046 65.1219 82.318C65.1219 81.5807 65.2852 80.932 65.6119 80.372C65.9385 79.812 66.3819 79.3733 66.9419 79.056C67.5019 78.7387 68.1412 78.58 68.8599 78.58C69.5879 78.58 70.2319 78.7387 70.7919 79.056C71.3612 79.3733 71.8045 79.812 72.1219 80.372C72.4485 80.932 72.6119 81.5807 72.6119 82.318C72.6119 83.046 72.4485 83.6947 72.1219 84.264C71.8045 84.824 71.3612 85.2673 70.7919 85.594C70.2225 85.9113 69.5785 86.07 68.8599 86.07ZM68.8599 85.188C69.3919 85.188 69.8632 85.0713 70.2739 84.838C70.6845 84.5953 71.0065 84.2593 71.2399 83.83C71.4825 83.3913 71.6039 82.8873 71.6039 82.318C71.6039 81.7393 71.4825 81.2353 71.2399 80.806C71.0065 80.3767 70.6845 80.0453 70.2739 79.812C69.8632 79.5693 69.3965 79.448 68.8739 79.448C68.3512 79.448 67.8845 79.5693 67.4739 79.812C67.0632 80.0453 66.7365 80.3767 66.4939 80.806C66.2512 81.2353 66.1299 81.7393 66.1299 82.318C66.1299 82.8873 66.2512 83.3913 66.4939 83.83C66.7365 84.2593 67.0632 84.5953 67.4739 84.838C67.8845 85.0713 68.3465 85.188 68.8599 85.188ZM74.7363 86V78.65H75.7303V84.488L80.6443 78.65H81.5263V86H80.5323V80.148L75.6323 86H74.7363ZM78.0683 77.586C77.4523 77.586 76.9529 77.432 76.5703 77.124C76.1969 76.8067 76.0009 76.354 75.9823 75.766H76.6963C76.7056 76.1393 76.8363 76.4333 77.0883 76.648C77.3403 76.8627 77.6669 76.97 78.0683 76.97C78.4696 76.97 78.7963 76.8627 79.0483 76.648C79.3096 76.4333 79.4449 76.1393 79.4543 75.766H80.1683C80.1589 76.354 79.9629 76.8067 79.5803 77.124C79.1976 77.432 78.6936 77.586 78.0683 77.586ZM88.039 86V78.65H94.647V86H93.653V79.252L93.905 79.518H88.781L89.033 79.252V86H88.039ZM101.267 86.07C100.632 86.07 100.058 85.9253 99.5446 85.636C99.0313 85.3373 98.6206 84.9127 98.3126 84.362C98.0139 83.802 97.8646 83.1207 97.8646 82.318C97.8646 81.5153 98.0139 80.8387 98.3126 80.288C98.6113 79.728 99.0173 79.3033 99.5306 79.014C100.044 78.7247 100.623 78.58 101.267 78.58C101.967 78.58 102.592 78.7387 103.143 79.056C103.703 79.364 104.141 79.8027 104.459 80.372C104.776 80.932 104.935 81.5807 104.935 82.318C104.935 83.0647 104.776 83.718 104.459 84.278C104.141 84.838 103.703 85.2767 103.143 85.594C102.592 85.9113 101.967 86.07 101.267 86.07ZM97.4726 88.716V78.65H98.4246V80.862L98.3266 82.332L98.4666 83.816V88.716H97.4726ZM101.197 85.188C101.719 85.188 102.186 85.0713 102.597 84.838C103.007 84.5953 103.334 84.2593 103.577 83.83C103.819 83.3913 103.941 82.8873 103.941 82.318C103.941 81.7487 103.819 81.2493 103.577 80.82C103.334 80.3907 103.007 80.0547 102.597 79.812C102.186 79.5693 101.719 79.448 101.197 79.448C100.674 79.448 100.203 79.5693 99.7826 79.812C99.3719 80.0547 99.0453 80.3907 98.8026 80.82C98.5693 81.2493 98.4526 81.7487 98.4526 82.318C98.4526 82.8873 98.5693 83.3913 98.8026 83.83C99.0453 84.2593 99.3719 84.5953 99.7826 84.838C100.203 85.0713 100.674 85.188 101.197 85.188ZM110.094 86.07C109.385 86.07 108.746 85.9113 108.176 85.594C107.616 85.2673 107.173 84.824 106.846 84.264C106.52 83.6947 106.356 83.046 106.356 82.318C106.356 81.5807 106.52 80.932 106.846 80.372C107.173 79.812 107.616 79.3733 108.176 79.056C108.736 78.7387 109.376 78.58 110.094 78.58C110.822 78.58 111.466 78.7387 112.026 79.056C112.596 79.3733 113.039 79.812 113.356 80.372C113.683 80.932 113.846 81.5807 113.846 82.318C113.846 83.046 113.683 83.6947 113.356 84.264C113.039 84.824 112.596 85.2673 112.026 85.594C111.457 85.9113 110.813 86.07 110.094 86.07ZM110.094 85.188C110.626 85.188 111.098 85.0713 111.508 84.838C111.919 84.5953 112.241 84.2593 112.474 83.83C112.717 83.3913 112.838 82.8873 112.838 82.318C112.838 81.7393 112.717 81.2353 112.474 80.806C112.241 80.3767 111.919 80.0453 111.508 79.812C111.098 79.5693 110.631 79.448 110.108 79.448C109.586 79.448 109.119 79.5693 108.708 79.812C108.298 80.0453 107.971 80.3767 107.728 80.806C107.486 81.2353 107.364 81.7393 107.364 82.318C107.364 82.8873 107.486 83.3913 107.728 83.83C107.971 84.2593 108.298 84.5953 108.708 84.838C109.119 85.0713 109.581 85.188 110.094 85.188ZM115.971 86V78.65H119.219C120.049 78.65 120.703 78.8087 121.179 79.126C121.664 79.4433 121.907 79.91 121.907 80.526C121.907 81.1233 121.678 81.5853 121.221 81.912C120.763 82.2293 120.161 82.388 119.415 82.388L119.611 82.094C120.488 82.094 121.132 82.2573 121.543 82.584C121.953 82.9107 122.159 83.382 122.159 83.998C122.159 84.6327 121.925 85.1273 121.459 85.482C121.001 85.8273 120.287 86 119.317 86H115.971ZM116.937 85.216H119.275C119.9 85.216 120.371 85.118 120.689 84.922C121.015 84.7167 121.179 84.39 121.179 83.942C121.179 83.494 121.034 83.1673 120.745 82.962C120.455 82.7567 119.998 82.654 119.373 82.654H116.937V85.216ZM116.937 81.912H119.149C119.718 81.912 120.152 81.8047 120.451 81.59C120.759 81.3753 120.913 81.0627 120.913 80.652C120.913 80.2413 120.759 79.9333 120.451 79.728C120.152 79.5227 119.718 79.42 119.149 79.42H116.937V81.912ZM127.638 86.07C126.873 86.07 126.201 85.9113 125.622 85.594C125.044 85.2673 124.591 84.824 124.264 84.264C123.938 83.6947 123.774 83.046 123.774 82.318C123.774 81.59 123.928 80.946 124.236 80.386C124.554 79.826 124.983 79.3873 125.524 79.07C126.075 78.7433 126.691 78.58 127.372 78.58C128.063 78.58 128.674 78.7387 129.206 79.056C129.748 79.364 130.172 79.8027 130.48 80.372C130.788 80.932 130.942 81.5807 130.942 82.318C130.942 82.3647 130.938 82.416 130.928 82.472C130.928 82.5187 130.928 82.57 130.928 82.626H124.53V81.884H130.396L130.004 82.178C130.004 81.646 129.888 81.1747 129.654 80.764C129.43 80.344 129.122 80.0173 128.73 79.784C128.338 79.5507 127.886 79.434 127.372 79.434C126.868 79.434 126.416 79.5507 126.014 79.784C125.613 80.0173 125.3 80.344 125.076 80.764C124.852 81.184 124.74 81.6647 124.74 82.206V82.36C124.74 82.92 124.862 83.4147 125.104 83.844C125.356 84.264 125.702 84.5953 126.14 84.838C126.588 85.0713 127.097 85.188 127.666 85.188C128.114 85.188 128.53 85.1087 128.912 84.95C129.304 84.7913 129.64 84.5487 129.92 84.222L130.48 84.866C130.154 85.258 129.743 85.5567 129.248 85.762C128.763 85.9673 128.226 86.07 127.638 86.07ZM136.937 86.07C136.302 86.07 135.728 85.9253 135.215 85.636C134.701 85.3373 134.291 84.9127 133.983 84.362C133.684 83.802 133.535 83.1207 133.535 82.318C133.535 81.5153 133.684 80.8387 133.983 80.288C134.281 79.728 134.687 79.3033 135.201 79.014C135.714 78.7247 136.293 78.58 136.937 78.58C137.637 78.58 138.262 78.7387 138.813 79.056C139.373 79.364 139.811 79.8027 140.129 80.372C140.446 80.932 140.605 81.5807 140.605 82.318C140.605 83.0647 140.446 83.718 140.129 84.278C139.811 84.838 139.373 85.2767 138.813 85.594C138.262 85.9113 137.637 86.07 136.937 86.07ZM133.143 88.716V78.65H134.095V80.862L133.997 82.332L134.137 83.816V88.716H133.143ZM136.867 85.188C137.389 85.188 137.856 85.0713 138.267 84.838C138.677 84.5953 139.004 84.2593 139.247 83.83C139.489 83.3913 139.611 82.8873 139.611 82.318C139.611 81.7487 139.489 81.2493 139.247 80.82C139.004 80.3907 138.677 80.0547 138.267 79.812C137.856 79.5693 137.389 79.448 136.867 79.448C136.344 79.448 135.873 79.5693 135.453 79.812C135.042 80.0547 134.715 80.3907 134.473 80.82C134.239 81.2493 134.123 81.7487 134.123 82.318C134.123 82.8873 134.239 83.3913 134.473 83.83C134.715 84.2593 135.042 84.5953 135.453 84.838C135.873 85.0713 136.344 85.188 136.867 85.188ZM148.13 86L145.106 82.36L145.932 81.87L149.306 86H148.13ZM142.74 86V78.65H143.734V86H142.74ZM143.426 82.724V81.87H145.792V82.724H143.426ZM146.016 82.43L145.092 82.29L148.018 78.65H149.096L146.016 82.43ZM150.875 86V78.65H151.869V84.488L156.783 78.65H157.665V86H156.671V80.148L151.771 86H150.875Z" fill="#141414"/>
</svg>
