<svg width="328" height="134" viewBox="0 0 328 134" fill="none" xmlns="http://www.w3.org/2000/svg">
<path d="M1.914 21V5.6H4.862L11.418 16.468H9.856L16.302 5.6H19.25L19.272 21H15.928L15.906 10.726H16.544L11.374 19.372H9.79L4.51 10.726H5.258V21H1.914ZM35.0216 21V9.164H38.4316V21H35.0216ZM29.0596 12.948C30.6143 12.9627 31.7803 13.3147 32.5576 14.004C33.3496 14.6787 33.7456 15.6393 33.7456 16.886C33.7456 18.1913 33.2983 19.2107 32.4036 19.944C31.5089 20.6627 30.2403 21.022 28.5976 21.022L22.8336 21V9.164H26.2436V12.948H29.0596ZM28.2896 18.58C28.9496 18.5947 29.4556 18.4553 29.8076 18.162C30.1596 17.8687 30.3356 17.4287 30.3356 16.842C30.3356 16.2553 30.1596 15.8373 29.8076 15.588C29.4556 15.324 28.9496 15.1847 28.2896 15.17L26.2436 15.148V18.58H28.2896ZM46.3203 15.874V13.74H68.3203V15.874H46.3203ZM76.2008 21V9.164H87.9708V21H84.5388V11.21L85.3088 11.98H78.8408L79.6108 11.21V21H76.2008ZM98.2353 21.176C97.238 21.176 96.3653 20.956 95.6173 20.516C94.8693 20.076 94.2827 19.4087 93.8573 18.514C93.4467 17.6047 93.2413 16.4607 93.2413 15.082C93.2413 13.6887 93.4393 12.5447 93.8353 11.65C94.2313 10.7553 94.8033 10.088 95.5513 9.648C96.2993 9.208 97.194 8.988 98.2353 8.988C99.35 8.988 100.347 9.24467 101.227 9.758C102.122 10.2567 102.826 10.9607 103.339 11.87C103.867 12.7793 104.131 13.85 104.131 15.082C104.131 16.3287 103.867 17.4067 103.339 18.316C102.826 19.2253 102.122 19.9293 101.227 20.428C100.347 20.9267 99.35 21.176 98.2353 21.176ZM91.2393 25.268V9.164H94.5173V11.584L94.4513 15.104L94.6713 18.602V25.268H91.2393ZM97.6413 18.36C98.2133 18.36 98.7193 18.228 99.1593 17.964C99.614 17.7 99.9733 17.326 100.237 16.842C100.516 16.3433 100.655 15.7567 100.655 15.082C100.655 14.3927 100.516 13.806 100.237 13.322C99.9733 12.838 99.614 12.464 99.1593 12.2C98.7193 11.936 98.2133 11.804 97.6413 11.804C97.0693 11.804 96.556 11.936 96.1013 12.2C95.6467 12.464 95.2873 12.838 95.0233 13.322C94.7593 13.806 94.6273 14.3927 94.6273 15.082C94.6273 15.7567 94.7593 16.3433 95.0233 16.842C95.2873 17.326 95.6467 17.7 96.1013 17.964C96.556 18.228 97.0693 18.36 97.6413 18.36ZM112.081 21.176C110.819 21.176 109.697 20.912 108.715 20.384C107.747 19.856 106.977 19.1373 106.405 18.228C105.847 17.304 105.569 16.2553 105.569 15.082C105.569 13.894 105.847 12.8453 106.405 11.936C106.977 11.012 107.747 10.2933 108.715 9.78C109.697 9.252 110.819 8.988 112.081 8.988C113.327 8.988 114.442 9.252 115.425 9.78C116.407 10.2933 117.177 11.0047 117.735 11.914C118.292 12.8233 118.571 13.8793 118.571 15.082C118.571 16.2553 118.292 17.304 117.735 18.228C117.177 19.1373 116.407 19.856 115.425 20.384C114.442 20.912 113.327 21.176 112.081 21.176ZM112.081 18.36C112.653 18.36 113.166 18.228 113.621 17.964C114.075 17.7 114.435 17.326 114.699 16.842C114.963 16.3433 115.095 15.7567 115.095 15.082C115.095 14.3927 114.963 13.806 114.699 13.322C114.435 12.838 114.075 12.464 113.621 12.2C113.166 11.936 112.653 11.804 112.081 11.804C111.509 11.804 110.995 11.936 110.541 12.2C110.086 12.464 109.719 12.838 109.441 13.322C109.177 13.806 109.045 14.3927 109.045 15.082C109.045 15.7567 109.177 16.3433 109.441 16.842C109.719 17.326 110.086 17.7 110.541 17.964C110.995 18.228 111.509 18.36 112.081 18.36ZM120.931 21V9.164H124.341V16.204L130.105 9.164H133.251V21H129.841V13.96L124.099 21H120.931ZM140.447 21.22C139.538 21.22 138.628 21.1247 137.719 20.934C136.824 20.7433 135.996 20.4573 135.233 20.076L136.157 17.678C136.758 17.9713 137.411 18.1987 138.115 18.36C138.834 18.5067 139.56 18.58 140.293 18.58C140.821 18.58 141.276 18.5287 141.657 18.426C142.053 18.3087 142.354 18.1473 142.559 17.942C142.764 17.7367 142.867 17.4873 142.867 17.194C142.867 16.8127 142.706 16.5267 142.383 16.336C142.06 16.1307 141.591 16.028 140.975 16.028H138.555V13.894H140.689C141.085 13.894 141.422 13.85 141.701 13.762C141.98 13.674 142.185 13.5493 142.317 13.388C142.464 13.212 142.537 13.0067 142.537 12.772C142.537 12.5227 142.449 12.31 142.273 12.134C142.097 11.958 141.84 11.826 141.503 11.738C141.166 11.6353 140.74 11.584 140.227 11.584C139.64 11.584 139.032 11.6573 138.401 11.804C137.77 11.936 137.125 12.134 136.465 12.398L135.629 10.022C136.406 9.69933 137.176 9.44267 137.939 9.252C138.702 9.06133 139.457 8.95867 140.205 8.944C141.305 8.91467 142.295 9.032 143.175 9.296C144.055 9.56 144.744 9.94133 145.243 10.44C145.756 10.9387 146.013 11.5473 146.013 12.266C146.013 12.838 145.837 13.3513 145.485 13.806C145.148 14.2607 144.678 14.62 144.077 14.884C143.476 15.1333 142.801 15.258 142.053 15.258L142.141 14.576C143.446 14.576 144.473 14.84 145.221 15.368C145.969 15.8813 146.343 16.5853 146.343 17.48C146.343 18.2427 146.079 18.91 145.551 19.482C145.038 20.0393 144.334 20.472 143.439 20.78C142.559 21.0733 141.562 21.22 140.447 21.22ZM148.796 21V9.164H154.846C156.328 9.164 157.486 9.43533 158.322 9.978C159.158 10.506 159.576 11.254 159.576 12.222C159.576 13.19 159.18 13.9527 158.388 14.51C157.611 15.0527 156.577 15.324 155.286 15.324L155.638 14.532C157.076 14.532 158.146 14.796 158.85 15.324C159.569 15.852 159.928 16.622 159.928 17.634C159.928 18.6753 159.532 19.4967 158.74 20.098C157.948 20.6993 156.738 21 155.11 21H148.796ZM151.942 18.668H154.824C155.455 18.668 155.924 18.5653 156.232 18.36C156.555 18.14 156.716 17.81 156.716 17.37C156.716 16.9153 156.57 16.5853 156.276 16.38C155.983 16.16 155.521 16.05 154.89 16.05H151.942V18.668ZM151.942 14.026H154.538C155.14 14.026 155.587 13.916 155.88 13.696C156.188 13.476 156.342 13.1607 156.342 12.75C156.342 12.3247 156.188 12.0093 155.88 11.804C155.587 11.5987 155.14 11.496 154.538 11.496H151.942V14.026ZM168.026 21.176C166.765 21.176 165.643 20.912 164.66 20.384C163.692 19.856 162.922 19.1373 162.35 18.228C161.793 17.304 161.514 16.2553 161.514 15.082C161.514 13.894 161.793 12.8453 162.35 11.936C162.922 11.012 163.692 10.2933 164.66 9.78C165.643 9.252 166.765 8.988 168.026 8.988C169.273 8.988 170.387 9.252 171.37 9.78C172.353 10.2933 173.123 11.0047 173.68 11.914C174.237 12.8233 174.516 13.8793 174.516 15.082C174.516 16.2553 174.237 17.304 173.68 18.228C173.123 19.1373 172.353 19.856 171.37 20.384C170.387 20.912 169.273 21.176 168.026 21.176ZM168.026 18.36C168.598 18.36 169.111 18.228 169.566 17.964C170.021 17.7 170.38 17.326 170.644 16.842C170.908 16.3433 171.04 15.7567 171.04 15.082C171.04 14.3927 170.908 13.806 170.644 13.322C170.38 12.838 170.021 12.464 169.566 12.2C169.111 11.936 168.598 11.804 168.026 11.804C167.454 11.804 166.941 11.936 166.486 12.2C166.031 12.464 165.665 12.838 165.386 13.322C165.122 13.806 164.99 14.3927 164.99 15.082C164.99 15.7567 165.122 16.3433 165.386 16.842C165.665 17.326 166.031 17.7 166.486 17.964C166.941 18.228 167.454 18.36 168.026 18.36ZM184.845 19.46V11.98H180.973L180.907 13.498C180.877 14.1287 180.841 14.73 180.797 15.302C180.753 15.874 180.665 16.3947 180.533 16.864C180.415 17.3187 180.239 17.7073 180.005 18.03C179.77 18.338 179.455 18.5507 179.059 18.668L175.671 18.184C176.096 18.184 176.441 18.0593 176.705 17.81C176.969 17.546 177.174 17.1867 177.321 16.732C177.467 16.2627 177.577 15.7347 177.651 15.148C177.724 14.5467 177.775 13.916 177.805 13.256L177.959 9.164H188.277V19.46H184.845ZM175.275 23.552V18.184H189.971V23.552H186.781V21H178.465V23.552H175.275ZM192.13 21V9.164H195.54V16.204L201.304 9.164H204.45V21H201.04V13.96L195.298 21H192.13ZM210.28 21V11.188L211.05 11.98H206.276V9.164H217.694V11.98H212.92L213.69 11.188V21H210.28ZM224.815 21.176C223.466 21.176 222.278 20.912 221.251 20.384C220.239 19.856 219.454 19.1373 218.897 18.228C218.34 17.304 218.061 16.2553 218.061 15.082C218.061 13.894 218.332 12.8453 218.875 11.936C219.432 11.012 220.188 10.2933 221.141 9.78C222.094 9.252 223.172 8.988 224.375 8.988C225.534 8.988 226.575 9.23733 227.499 9.736C228.438 10.22 229.178 10.924 229.721 11.848C230.264 12.7573 230.535 13.85 230.535 15.126C230.535 15.258 230.528 15.412 230.513 15.588C230.498 15.7493 230.484 15.9033 230.469 16.05H220.855V14.048H228.665L227.345 14.642C227.345 14.026 227.22 13.4907 226.971 13.036C226.722 12.5813 226.377 12.2293 225.937 11.98C225.497 11.716 224.984 11.584 224.397 11.584C223.81 11.584 223.29 11.716 222.835 11.98C222.395 12.2293 222.05 12.5887 221.801 13.058C221.552 13.5127 221.427 14.0553 221.427 14.686V15.214C221.427 15.8593 221.566 16.4313 221.845 16.93C222.138 17.414 222.542 17.788 223.055 18.052C223.583 18.3013 224.199 18.426 224.903 18.426C225.534 18.426 226.084 18.3307 226.553 18.14C227.037 17.9493 227.477 17.6633 227.873 17.282L229.699 19.262C229.156 19.878 228.474 20.3547 227.653 20.692C226.832 21.0147 225.886 21.176 224.815 21.176ZM231.562 20.978L231.738 18.162C231.826 18.1767 231.914 18.1913 232.002 18.206C232.09 18.206 232.171 18.206 232.244 18.206C232.655 18.206 232.978 18.0887 233.212 17.854C233.447 17.6193 233.623 17.304 233.74 16.908C233.858 16.4973 233.938 16.0353 233.982 15.522C234.041 15.0087 234.085 14.4733 234.114 13.916L234.29 9.164H244.41V21H240.978V11.144L241.748 11.98H236.556L237.282 11.1L237.128 14.07C237.084 15.126 236.996 16.094 236.864 16.974C236.747 17.854 236.549 18.6167 236.27 19.262C235.992 19.8927 235.618 20.384 235.148 20.736C234.679 21.0733 234.078 21.242 233.344 21.242C233.08 21.242 232.802 21.22 232.508 21.176C232.215 21.132 231.9 21.066 231.562 20.978ZM254.113 12.948C255.667 12.9627 256.848 13.3147 257.655 14.004C258.476 14.6787 258.887 15.6393 258.887 16.886C258.887 18.1913 258.425 19.2107 257.501 19.944C256.577 20.6627 255.293 21.022 253.651 21.022L247.711 21V9.164H251.121V12.948H254.113ZM253.343 18.58C254.003 18.5947 254.509 18.4553 254.861 18.162C255.213 17.8687 255.389 17.4287 255.389 16.842C255.389 16.2553 255.213 15.8373 254.861 15.588C254.509 15.324 254.003 15.1847 253.343 15.17L251.121 15.148V18.58H253.343ZM260.306 24.388L261.758 19.108L262.242 21.088C261.612 21.088 261.091 20.9047 260.68 20.538C260.284 20.1713 260.086 19.6653 260.086 19.02C260.086 18.3747 260.292 17.8613 260.702 17.48C261.113 17.0987 261.619 16.908 262.22 16.908C262.836 16.908 263.342 17.106 263.738 17.502C264.134 17.8833 264.332 18.3893 264.332 19.02C264.332 19.2107 264.318 19.4013 264.288 19.592C264.259 19.768 264.2 19.988 264.112 20.252C264.039 20.5013 263.914 20.824 263.738 21.22L262.484 24.388H260.306ZM280.039 21V18.69L279.819 18.184V14.048C279.819 13.3147 279.591 12.7427 279.137 12.332C278.697 11.9213 278.015 11.716 277.091 11.716C276.46 11.716 275.837 11.8187 275.221 12.024C274.619 12.2147 274.106 12.4787 273.681 12.816L272.449 10.418C273.094 9.96333 273.871 9.61133 274.781 9.362C275.69 9.11267 276.614 8.988 277.553 8.988C279.357 8.988 280.757 9.41333 281.755 10.264C282.752 11.1147 283.251 12.442 283.251 14.246V21H280.039ZM276.431 21.176C275.507 21.176 274.715 21.022 274.055 20.714C273.395 20.3913 272.889 19.9587 272.537 19.416C272.185 18.8733 272.009 18.2647 272.009 17.59C272.009 16.886 272.177 16.27 272.515 15.742C272.867 15.214 273.417 14.8033 274.165 14.51C274.913 14.202 275.888 14.048 277.091 14.048H280.237V16.05H277.465C276.658 16.05 276.101 16.182 275.793 16.446C275.499 16.71 275.353 17.04 275.353 17.436C275.353 17.876 275.521 18.228 275.859 18.492C276.211 18.7413 276.687 18.866 277.289 18.866C277.861 18.866 278.374 18.734 278.829 18.47C279.283 18.1913 279.613 17.788 279.819 17.26L280.347 18.844C280.097 19.6067 279.643 20.186 278.983 20.582C278.323 20.978 277.472 21.176 276.431 21.176ZM292.463 21V9.164H295.873V13.784H301.021V9.164H304.453V21H301.021V16.578H295.873V21H292.463ZM313.524 21.176C312.175 21.176 310.987 20.912 309.96 20.384C308.948 19.856 308.163 19.1373 307.606 18.228C307.049 17.304 306.77 16.2553 306.77 15.082C306.77 13.894 307.041 12.8453 307.584 11.936C308.141 11.012 308.897 10.2933 309.85 9.78C310.803 9.252 311.881 8.988 313.084 8.988C314.243 8.988 315.284 9.23733 316.208 9.736C317.147 10.22 317.887 10.924 318.43 11.848C318.973 12.7573 319.244 13.85 319.244 15.126C319.244 15.258 319.237 15.412 319.222 15.588C319.207 15.7493 319.193 15.9033 319.178 16.05H309.564V14.048H317.374L316.054 14.642C316.054 14.026 315.929 13.4907 315.68 13.036C315.431 12.5813 315.086 12.2293 314.646 11.98C314.206 11.716 313.693 11.584 313.106 11.584C312.519 11.584 311.999 11.716 311.544 11.98C311.104 12.2293 310.759 12.5887 310.51 13.058C310.261 13.5127 310.136 14.0553 310.136 14.686V15.214C310.136 15.8593 310.275 16.4313 310.554 16.93C310.847 17.414 311.251 17.788 311.764 18.052C312.292 18.3013 312.908 18.426 313.612 18.426C314.243 18.426 314.793 18.3307 315.262 18.14C315.746 17.9493 316.186 17.6633 316.582 17.282L318.408 19.262C317.865 19.878 317.183 20.3547 316.362 20.692C315.541 21.0147 314.595 21.176 313.524 21.176ZM1.65 47V35.164H13.42V47H9.988V37.21L10.758 37.98H4.29L5.06 37.21V47H1.65ZM22.2545 47.176C20.9932 47.176 19.8712 46.912 18.8885 46.384C17.9205 45.856 17.1505 45.1373 16.5785 44.228C16.0212 43.304 15.7425 42.2553 15.7425 41.082C15.7425 39.894 16.0212 38.8453 16.5785 37.936C17.1505 37.012 17.9205 36.2933 18.8885 35.78C19.8712 35.252 20.9932 34.988 22.2545 34.988C23.5012 34.988 24.6159 35.252 25.5985 35.78C26.5812 36.2933 27.3512 37.0047 27.9085 37.914C28.4659 38.8233 28.7445 39.8793 28.7445 41.082C28.7445 42.2553 28.4659 43.304 27.9085 44.228C27.3512 45.1373 26.5812 45.856 25.5985 46.384C24.6159 46.912 23.5012 47.176 22.2545 47.176ZM22.2545 44.36C22.8265 44.36 23.3399 44.228 23.7945 43.964C24.2492 43.7 24.6085 43.326 24.8725 42.842C25.1365 42.3433 25.2685 41.7567 25.2685 41.082C25.2685 40.3927 25.1365 39.806 24.8725 39.322C24.6085 38.838 24.2492 38.464 23.7945 38.2C23.3399 37.936 22.8265 37.804 22.2545 37.804C21.6825 37.804 21.1692 37.936 20.7145 38.2C20.2599 38.464 19.8932 38.838 19.6145 39.322C19.3505 39.806 19.2185 40.3927 19.2185 41.082C19.2185 41.7567 19.3505 42.3433 19.6145 42.842C19.8932 43.326 20.2599 43.7 20.7145 43.964C21.1692 44.228 21.6825 44.36 22.2545 44.36ZM36.7371 47.176C35.4611 47.176 34.3244 46.9193 33.3271 46.406C32.3297 45.878 31.5451 45.152 30.9731 44.228C30.4157 43.304 30.1371 42.2553 30.1371 41.082C30.1371 39.894 30.4157 38.8453 30.9731 37.936C31.5451 37.012 32.3297 36.2933 33.3271 35.78C34.3244 35.252 35.4611 34.988 36.7371 34.988C37.9837 34.988 39.0691 35.252 39.9931 35.78C40.9171 36.2933 41.5991 37.034 42.0391 38.002L39.3771 39.432C39.0691 38.8747 38.6804 38.464 38.2111 38.2C37.7564 37.936 37.2577 37.804 36.7151 37.804C36.1284 37.804 35.6004 37.936 35.1311 38.2C34.6617 38.464 34.2877 38.838 34.0091 39.322C33.7451 39.806 33.6131 40.3927 33.6131 41.082C33.6131 41.7713 33.7451 42.358 34.0091 42.842C34.2877 43.326 34.6617 43.7 35.1311 43.964C35.6004 44.228 36.1284 44.36 36.7151 44.36C37.2577 44.36 37.7564 44.2353 38.2111 43.986C38.6804 43.722 39.0691 43.304 39.3771 42.732L42.0391 44.184C41.5991 45.1373 40.9171 45.878 39.9931 46.406C39.0691 46.9193 37.9837 47.176 36.7371 47.176ZM51.0986 47.176C50.1013 47.176 49.2286 46.956 48.4806 46.516C47.7326 46.076 47.1459 45.4087 46.7206 44.514C46.3099 43.6047 46.1046 42.4607 46.1046 41.082C46.1046 39.6887 46.3026 38.5447 46.6986 37.65C47.0946 36.7553 47.6666 36.088 48.4146 35.648C49.1626 35.208 50.0573 34.988 51.0986 34.988C52.2133 34.988 53.2106 35.2447 54.0906 35.758C54.9853 36.2567 55.6893 36.9607 56.2026 37.87C56.7306 38.7793 56.9946 39.85 56.9946 41.082C56.9946 42.3287 56.7306 43.4067 56.2026 44.316C55.6893 45.2253 54.9853 45.9293 54.0906 46.428C53.2106 46.9267 52.2133 47.176 51.0986 47.176ZM44.1026 51.268V35.164H47.3806V37.584L47.3146 41.104L47.5346 44.602V51.268H44.1026ZM50.5046 44.36C51.0766 44.36 51.5826 44.228 52.0226 43.964C52.4773 43.7 52.8366 43.326 53.1006 42.842C53.3793 42.3433 53.5186 41.7567 53.5186 41.082C53.5186 40.3927 53.3793 39.806 53.1006 39.322C52.8366 38.838 52.4773 38.464 52.0226 38.2C51.5826 37.936 51.0766 37.804 50.5046 37.804C49.9326 37.804 49.4193 37.936 48.9646 38.2C48.5099 38.464 48.1506 38.838 47.8866 39.322C47.6226 39.806 47.4906 40.3927 47.4906 41.082C47.4906 41.7567 47.6226 42.3433 47.8866 42.842C48.1506 43.326 48.5099 43.7 48.9646 43.964C49.4193 44.228 49.9326 44.36 50.5046 44.36ZM65.186 47.176C63.8367 47.176 62.6487 46.912 61.622 46.384C60.61 45.856 59.8253 45.1373 59.268 44.228C58.7107 43.304 58.432 42.2553 58.432 41.082C58.432 39.894 58.7033 38.8453 59.246 37.936C59.8033 37.012 60.5587 36.2933 61.512 35.78C62.4653 35.252 63.5433 34.988 64.746 34.988C65.9047 34.988 66.946 35.2373 67.87 35.736C68.8087 36.22 69.5493 36.924 70.092 37.848C70.6347 38.7573 70.906 39.85 70.906 41.126C70.906 41.258 70.8987 41.412 70.884 41.588C70.8693 41.7493 70.8547 41.9033 70.84 42.05H61.226V40.048H69.036L67.716 40.642C67.716 40.026 67.5913 39.4907 67.342 39.036C67.0927 38.5813 66.748 38.2293 66.308 37.98C65.868 37.716 65.3547 37.584 64.768 37.584C64.1813 37.584 63.6607 37.716 63.206 37.98C62.766 38.2293 62.4213 38.5887 62.172 39.058C61.9227 39.5127 61.798 40.0553 61.798 40.686V41.214C61.798 41.8593 61.9373 42.4313 62.216 42.93C62.5093 43.414 62.9127 43.788 63.426 44.052C63.954 44.3013 64.57 44.426 65.274 44.426C65.9047 44.426 66.4547 44.3307 66.924 44.14C67.408 43.9493 67.848 43.6633 68.244 43.282L70.07 45.262C69.5273 45.878 68.8453 46.3547 68.024 46.692C67.2027 47.0147 66.2567 47.176 65.186 47.176ZM81.5693 45.46V37.98H77.6973L77.6313 39.498C77.602 40.1287 77.5653 40.73 77.5213 41.302C77.4773 41.874 77.3893 42.3947 77.2573 42.864C77.14 43.3187 76.964 43.7073 76.7293 44.03C76.4946 44.338 76.1793 44.5507 75.7833 44.668L72.3953 44.184C72.8206 44.184 73.1653 44.0593 73.4293 43.81C73.6933 43.546 73.8986 43.1867 74.0453 42.732C74.192 42.2627 74.302 41.7347 74.3753 41.148C74.4486 40.5467 74.5 39.916 74.5293 39.256L74.6833 35.164H85.0013V45.46H81.5693ZM71.9993 49.552V44.184H86.6953V49.552H83.5053V47H75.1893V49.552H71.9993ZM88.8551 47V35.164H92.2651V39.784H97.4131V35.164H100.845V47H97.4131V42.578H92.2651V47H88.8551ZM104.13 47V35.164H107.54V42.204L113.304 35.164H116.45V47H113.04V39.96L107.298 47H104.13ZM128.132 47L124.172 41.39L126.966 39.74L132.18 47H128.132ZM119.75 47V35.164H123.182V47H119.75ZM122.17 42.512V39.762H126.306V42.512H122.17ZM127.296 41.478L124.084 41.126L128.242 35.164H131.894L127.296 41.478Z" fill="#141414"/>
<path d="M8.358 84L4.592 79.114L5.432 78.61L9.548 84H8.358ZM1.652 84V74.2H2.66V84H1.652ZM2.352 79.506V78.596H5.418V79.506H2.352ZM5.516 79.212L4.564 79.044L8.218 74.2H9.338L5.516 79.212ZM15.5893 84V82.376L15.5473 82.11V79.394C15.5473 78.7687 15.37 78.288 15.0153 77.952C14.67 77.616 14.152 77.448 13.4613 77.448C12.9853 77.448 12.5327 77.5273 12.1033 77.686C11.674 77.8447 11.31 78.0547 11.0113 78.316L10.5633 77.574C10.9367 77.2567 11.3847 77.014 11.9073 76.846C12.43 76.6687 12.9807 76.58 13.5593 76.58C14.5113 76.58 15.244 76.818 15.7573 77.294C16.28 77.7607 16.5413 78.4747 16.5413 79.436V84H15.5893ZM13.0553 84.07C12.5047 84.07 12.024 83.9813 11.6133 83.804C11.212 83.6173 10.904 83.3653 10.6893 83.048C10.4747 82.7213 10.3673 82.348 10.3673 81.928C10.3673 81.5453 10.456 81.2 10.6333 80.892C10.82 80.5747 11.1187 80.3227 11.5293 80.136C11.9493 79.94 12.5093 79.842 13.2093 79.842H15.7433V80.584H13.2373C12.528 80.584 12.0333 80.71 11.7533 80.962C11.4827 81.214 11.3473 81.5267 11.3473 81.9C11.3473 82.32 11.5107 82.656 11.8373 82.908C12.164 83.16 12.6213 83.286 13.2093 83.286C13.7693 83.286 14.25 83.16 14.6513 82.908C15.062 82.6467 15.3607 82.2733 15.5473 81.788L15.7713 82.474C15.5847 82.9593 15.258 83.3467 14.7913 83.636C14.334 83.9253 13.7553 84.07 13.0553 84.07ZM27.9094 84L25.3894 80.36L26.2154 79.87L29.0994 84H27.9094ZM23.7374 80.724V79.87H26.0614V80.724H23.7374ZM26.3134 80.43L25.3614 80.29L27.8114 76.65H28.8894L26.3134 80.43ZM19.2014 84H18.0114L20.8954 79.87L21.7074 80.36L19.2014 84ZM24.0454 84H23.0514V76.65H24.0454V84ZM23.3594 80.724H21.0494V79.87H23.3594V80.724ZM20.8114 80.43L18.2214 76.65H19.2994L21.7354 80.29L20.8114 80.43ZM35.7938 83.524V77.518H32.2518L32.1678 79.156C32.1492 79.6507 32.1165 80.136 32.0698 80.612C32.0325 81.088 31.9625 81.5267 31.8598 81.928C31.7665 82.32 31.6312 82.642 31.4538 82.894C31.2765 83.1367 31.0478 83.2767 30.7678 83.314L29.7738 83.132C30.0632 83.1413 30.3012 83.0387 30.4878 82.824C30.6745 82.6 30.8192 82.2967 30.9218 81.914C31.0245 81.5313 31.0992 81.0973 31.1458 80.612C31.1925 80.1173 31.2298 79.6133 31.2578 79.1L31.3558 76.65H36.7878V83.524H35.7938ZM29.4658 85.778V83.132H37.9358V85.778H36.9978V84H30.4038V85.778H29.4658ZM47.041 84V76.65H48.035V84H47.041ZM42.967 79.24C43.891 79.2493 44.5957 79.4547 45.081 79.856C45.5663 80.2573 45.809 80.836 45.809 81.592C45.809 82.376 45.5477 82.978 45.025 83.398C44.5023 83.818 43.7557 84.0233 42.785 84.014L39.873 84V76.65H40.867V79.212L42.967 79.24ZM42.715 83.258C43.4057 83.2673 43.9237 83.132 44.269 82.852C44.6237 82.5627 44.801 82.1427 44.801 81.592C44.801 81.0413 44.6283 80.64 44.283 80.388C43.9377 80.1267 43.415 79.9913 42.715 79.982L40.867 79.954V83.23L42.715 83.258ZM50.8652 84V76.65H51.8592V82.488L56.7732 76.65H57.6552V84H56.6612V78.148L51.7612 84H50.8652ZM54.1972 75.586C53.5812 75.586 53.0818 75.432 52.6992 75.124C52.3258 74.8067 52.1298 74.354 52.1112 73.766H52.8252C52.8345 74.1393 52.9652 74.4333 53.2172 74.648C53.4692 74.8627 53.7958 74.97 54.1972 74.97C54.5985 74.97 54.9252 74.8627 55.1772 74.648C55.4385 74.4333 55.5738 74.1393 55.5832 73.766H56.2972C56.2878 74.354 56.0918 74.8067 55.7092 75.124C55.3265 75.432 54.8225 75.586 54.1972 75.586ZM68.8159 80.892C68.3866 81.0787 67.9526 81.228 67.5139 81.34C67.0846 81.4427 66.6552 81.494 66.2259 81.494C65.3579 81.494 64.6719 81.298 64.1679 80.906C63.6639 80.5047 63.4119 79.8887 63.4119 79.058V76.65H64.3919V79.002C64.3919 79.562 64.5739 79.982 64.9379 80.262C65.3019 80.542 65.7919 80.682 66.4079 80.682C66.7812 80.682 67.1732 80.6353 67.5839 80.542C67.9946 80.4393 68.4099 80.2947 68.8299 80.108L68.8159 80.892ZM68.7319 84V76.65H69.7259V84H68.7319ZM75.6988 84.07C74.9334 84.07 74.2614 83.9113 73.6828 83.594C73.1041 83.2673 72.6514 82.824 72.3248 82.264C71.9981 81.6947 71.8348 81.046 71.8348 80.318C71.8348 79.59 71.9888 78.946 72.2968 78.386C72.6141 77.826 73.0434 77.3873 73.5848 77.07C74.1354 76.7433 74.7514 76.58 75.4328 76.58C76.1234 76.58 76.7348 76.7387 77.2668 77.056C77.8081 77.364 78.2328 77.8027 78.5408 78.372C78.8488 78.932 79.0028 79.5807 79.0028 80.318C79.0028 80.3647 78.9981 80.416 78.9888 80.472C78.9888 80.5187 78.9888 80.57 78.9888 80.626H72.5908V79.884H78.4568L78.0648 80.178C78.0648 79.646 77.9481 79.1747 77.7148 78.764C77.4908 78.344 77.1828 78.0173 76.7908 77.784C76.3988 77.5507 75.9461 77.434 75.4328 77.434C74.9288 77.434 74.4761 77.5507 74.0748 77.784C73.6734 78.0173 73.3608 78.344 73.1368 78.764C72.9128 79.184 72.8008 79.6647 72.8008 80.206V80.36C72.8008 80.92 72.9221 81.4147 73.1648 81.844C73.4168 82.264 73.7621 82.5953 74.2008 82.838C74.6488 83.0713 75.1574 83.188 75.7268 83.188C76.1748 83.188 76.5901 83.1087 76.9728 82.95C77.3648 82.7913 77.7008 82.5487 77.9808 82.222L78.5408 82.866C78.2141 83.258 77.8034 83.5567 77.3088 83.762C76.8234 83.9673 76.2868 84.07 75.6988 84.07ZM79.794 84L82.902 79.968L82.888 80.458L79.934 76.65H81.054L83.476 79.8L83.056 79.786L85.478 76.65H86.57L83.588 80.5L83.602 79.968L86.738 84H85.604L83.042 80.64L83.434 80.696L80.914 84H79.794ZM91.1314 84.07C90.422 84.07 89.7827 83.9113 89.2134 83.594C88.6534 83.2673 88.21 82.824 87.8834 82.264C87.5567 81.6947 87.3934 81.046 87.3934 80.318C87.3934 79.5807 87.5567 78.932 87.8834 78.372C88.21 77.812 88.6534 77.3733 89.2134 77.056C89.7734 76.7387 90.4127 76.58 91.1314 76.58C91.8594 76.58 92.5034 76.7387 93.0634 77.056C93.6327 77.3733 94.076 77.812 94.3934 78.372C94.72 78.932 94.8834 79.5807 94.8834 80.318C94.8834 81.046 94.72 81.6947 94.3934 82.264C94.076 82.824 93.6327 83.2673 93.0634 83.594C92.494 83.9113 91.85 84.07 91.1314 84.07ZM91.1314 83.188C91.6634 83.188 92.1347 83.0713 92.5454 82.838C92.956 82.5953 93.278 82.2593 93.5114 81.83C93.754 81.3913 93.8754 80.8873 93.8754 80.318C93.8754 79.7393 93.754 79.2353 93.5114 78.806C93.278 78.3767 92.956 78.0453 92.5454 77.812C92.1347 77.5693 91.668 77.448 91.1454 77.448C90.6227 77.448 90.156 77.5693 89.7454 77.812C89.3347 78.0453 89.008 78.3767 88.7654 78.806C88.5227 79.2353 88.4014 79.7393 88.4014 80.318C88.4014 80.8873 88.5227 81.3913 88.7654 81.83C89.008 82.2593 89.3347 82.5953 89.7454 82.838C90.156 83.0713 90.618 83.188 91.1314 83.188ZM95.6227 83.986L95.6927 83.132C95.7581 83.1413 95.8187 83.1553 95.8747 83.174C95.9401 83.1833 95.9961 83.188 96.0427 83.188C96.3414 83.188 96.5794 83.076 96.7567 82.852C96.9434 82.628 97.0834 82.3293 97.1767 81.956C97.2701 81.5827 97.3354 81.1627 97.3727 80.696C97.4101 80.22 97.4427 79.744 97.4707 79.268L97.5967 76.65H102.987V84H101.993V77.224L102.245 77.518H98.2407L98.4787 77.21L98.3667 79.338C98.3387 79.9727 98.2874 80.5793 98.2127 81.158C98.1474 81.7367 98.0401 82.2453 97.8907 82.684C97.7507 83.1227 97.5547 83.468 97.3027 83.72C97.0507 83.9627 96.7287 84.084 96.3367 84.084C96.2247 84.084 96.1081 84.0747 95.9867 84.056C95.8747 84.0373 95.7534 84.014 95.6227 83.986ZM109.477 84V76.65H116.085V84H115.091V77.252L115.343 77.518H110.219L110.471 77.252V84H109.477ZM122.704 84.07C122.069 84.07 121.495 83.9253 120.982 83.636C120.469 83.3373 120.058 82.9127 119.75 82.362C119.451 81.802 119.302 81.1207 119.302 80.318C119.302 79.5153 119.451 78.8387 119.75 78.288C120.049 77.728 120.455 77.3033 120.968 77.014C121.481 76.7247 122.06 76.58 122.704 76.58C123.404 76.58 124.029 76.7387 124.58 77.056C125.14 77.364 125.579 77.8027 125.896 78.372C126.213 78.932 126.372 79.5807 126.372 80.318C126.372 81.0647 126.213 81.718 125.896 82.278C125.579 82.838 125.14 83.2767 124.58 83.594C124.029 83.9113 123.404 84.07 122.704 84.07ZM118.91 86.716V76.65H119.862V78.862L119.764 80.332L119.904 81.816V86.716H118.91ZM122.634 83.188C123.157 83.188 123.623 83.0713 124.034 82.838C124.445 82.5953 124.771 82.2593 125.014 81.83C125.257 81.3913 125.378 80.8873 125.378 80.318C125.378 79.7487 125.257 79.2493 125.014 78.82C124.771 78.3907 124.445 78.0547 124.034 77.812C123.623 77.5693 123.157 77.448 122.634 77.448C122.111 77.448 121.64 77.5693 121.22 77.812C120.809 78.0547 120.483 78.3907 120.24 78.82C120.007 79.2493 119.89 79.7487 119.89 80.318C119.89 80.8873 120.007 81.3913 120.24 81.83C120.483 82.2593 120.809 82.5953 121.22 82.838C121.64 83.0713 122.111 83.188 122.634 83.188ZM131.532 84.07C130.822 84.07 130.183 83.9113 129.614 83.594C129.054 83.2673 128.61 82.824 128.284 82.264C127.957 81.6947 127.794 81.046 127.794 80.318C127.794 79.5807 127.957 78.932 128.284 78.372C128.61 77.812 129.054 77.3733 129.614 77.056C130.174 76.7387 130.813 76.58 131.532 76.58C132.26 76.58 132.904 76.7387 133.464 77.056C134.033 77.3733 134.476 77.812 134.794 78.372C135.12 78.932 135.284 79.5807 135.284 80.318C135.284 81.046 135.12 81.6947 134.794 82.264C134.476 82.824 134.033 83.2673 133.464 83.594C132.894 83.9113 132.25 84.07 131.532 84.07ZM131.532 83.188C132.064 83.188 132.535 83.0713 132.946 82.838C133.356 82.5953 133.678 82.2593 133.912 81.83C134.154 81.3913 134.276 80.8873 134.276 80.318C134.276 79.7393 134.154 79.2353 133.912 78.806C133.678 78.3767 133.356 78.0453 132.946 77.812C132.535 77.5693 132.068 77.448 131.546 77.448C131.023 77.448 130.556 77.5693 130.146 77.812C129.735 78.0453 129.408 78.3767 129.166 78.806C128.923 79.2353 128.802 79.7393 128.802 80.318C128.802 80.8873 128.923 81.3913 129.166 81.83C129.408 82.2593 129.735 82.5953 130.146 82.838C130.556 83.0713 131.018 83.188 131.532 83.188ZM135.944 84L139.052 79.968L139.038 80.458L136.084 76.65H137.204L139.626 79.8L139.206 79.786L141.628 76.65H142.72L139.738 80.5L139.752 79.968L142.888 84H141.754L139.192 80.64L139.584 80.696L137.064 84H135.944ZM147.282 84.07C146.572 84.07 145.933 83.9113 145.364 83.594C144.804 83.2673 144.36 82.824 144.034 82.264C143.707 81.6947 143.544 81.046 143.544 80.318C143.544 79.5807 143.707 78.932 144.034 78.372C144.36 77.812 144.804 77.3733 145.364 77.056C145.924 76.7387 146.563 76.58 147.282 76.58C148.01 76.58 148.654 76.7387 149.214 77.056C149.783 77.3733 150.226 77.812 150.544 78.372C150.87 78.932 151.034 79.5807 151.034 80.318C151.034 81.046 150.87 81.6947 150.544 82.264C150.226 82.824 149.783 83.2673 149.214 83.594C148.644 83.9113 148 84.07 147.282 84.07ZM147.282 83.188C147.814 83.188 148.285 83.0713 148.696 82.838C149.106 82.5953 149.428 82.2593 149.662 81.83C149.904 81.3913 150.026 80.8873 150.026 80.318C150.026 79.7393 149.904 79.2353 149.662 78.806C149.428 78.3767 149.106 78.0453 148.696 77.812C148.285 77.5693 147.818 77.448 147.296 77.448C146.773 77.448 146.306 77.5693 145.896 77.812C145.485 78.0453 145.158 78.3767 144.916 78.806C144.673 79.2353 144.552 79.7393 144.552 80.318C144.552 80.8873 144.673 81.3913 144.916 81.83C145.158 82.2593 145.485 82.5953 145.896 82.838C146.306 83.0713 146.768 83.188 147.282 83.188ZM158.157 83.524V77.518H154.615L154.531 79.156C154.512 79.6507 154.48 80.136 154.433 80.612C154.396 81.088 154.326 81.5267 154.223 81.928C154.13 82.32 153.994 82.642 153.817 82.894C153.64 83.1367 153.411 83.2767 153.131 83.314L152.137 83.132C152.426 83.1413 152.664 83.0387 152.851 82.824C153.038 82.6 153.182 82.2967 153.285 81.914C153.388 81.5313 153.462 81.0973 153.509 80.612C153.556 80.1173 153.593 79.6133 153.621 79.1L153.719 76.65H159.151V83.524H158.157ZM151.829 85.778V83.132H160.299V85.778H159.361V84H152.767V85.778H151.829ZM162.236 84V76.65H163.23V82.488L168.144 76.65H169.026V84H168.032V78.148L163.132 84H162.236ZM173.275 84V77.252L173.527 77.518H170.489V76.65H177.055V77.518H174.017L174.269 77.252V84H173.275ZM182.156 84V76.65H188.764V84H187.77V77.252L188.022 77.518H182.898L183.15 77.252V84H182.156ZM194.614 84.07C193.904 84.07 193.265 83.9113 192.696 83.594C192.136 83.2673 191.692 82.824 191.366 82.264C191.039 81.6947 190.876 81.046 190.876 80.318C190.876 79.5807 191.039 78.932 191.366 78.372C191.692 77.812 192.136 77.3733 192.696 77.056C193.256 76.7387 193.895 76.58 194.614 76.58C195.342 76.58 195.986 76.7387 196.546 77.056C197.115 77.3733 197.558 77.812 197.876 78.372C198.202 78.932 198.366 79.5807 198.366 80.318C198.366 81.046 198.202 81.6947 197.876 82.264C197.558 82.824 197.115 83.2673 196.546 83.594C195.976 83.9113 195.332 84.07 194.614 84.07ZM194.614 83.188C195.146 83.188 195.617 83.0713 196.028 82.838C196.438 82.5953 196.76 82.2593 196.994 81.83C197.236 81.3913 197.358 80.8873 197.358 80.318C197.358 79.7393 197.236 79.2353 196.994 78.806C196.76 78.3767 196.438 78.0453 196.028 77.812C195.617 77.5693 195.15 77.448 194.628 77.448C194.105 77.448 193.638 77.5693 193.228 77.812C192.817 78.0453 192.49 78.3767 192.248 78.806C192.005 79.2353 191.884 79.7393 191.884 80.318C191.884 80.8873 192.005 81.3913 192.248 81.83C192.49 82.2593 192.817 82.5953 193.228 82.838C193.638 83.0713 194.1 83.188 194.614 83.188ZM199.105 83.986L199.175 83.132C199.24 83.1413 199.301 83.1553 199.357 83.174C199.422 83.1833 199.478 83.188 199.525 83.188C199.824 83.188 200.062 83.076 200.239 82.852C200.426 82.628 200.566 82.3293 200.659 81.956C200.752 81.5827 200.818 81.1627 200.855 80.696C200.892 80.22 200.925 79.744 200.953 79.268L201.079 76.65H206.469V84H205.475V77.224L205.727 77.518H201.723L201.961 77.21L201.849 79.338C201.821 79.9727 201.77 80.5793 201.695 81.158C201.63 81.7367 201.522 82.2453 201.373 82.684C201.233 83.1227 201.037 83.468 200.785 83.72C200.533 83.9627 200.211 84.084 199.819 84.084C199.707 84.084 199.59 84.0747 199.469 84.056C199.357 84.0373 199.236 84.014 199.105 83.986ZM209.295 84V76.65H210.289V79.898H214.923V76.65H215.917V84H214.923V80.752H210.289V84H209.295ZM225.91 84V76.65H226.904V84H225.91ZM221.836 79.24C222.76 79.2493 223.465 79.4547 223.95 79.856C224.435 80.2573 224.678 80.836 224.678 81.592C224.678 82.376 224.417 82.978 223.894 83.398C223.371 83.818 222.625 84.0233 221.654 84.014L218.742 84V76.65H219.736V79.212L221.836 79.24ZM221.584 83.258C222.275 83.2673 222.793 83.132 223.138 82.852C223.493 82.5627 223.67 82.1427 223.67 81.592C223.67 81.0413 223.497 80.64 223.152 80.388C222.807 80.1267 222.284 79.9913 221.584 79.982L219.736 79.954V83.23L221.584 83.258ZM229.734 84V76.65H230.728V82.488L235.642 76.65H236.524V84H235.53V78.148L230.63 84H229.734ZM233.066 75.586C232.45 75.586 231.951 75.432 231.568 75.124C231.195 74.8067 230.999 74.354 230.98 73.766H231.694C231.704 74.1393 231.834 74.4333 232.086 74.648C232.338 74.8627 232.665 74.97 233.066 74.97C233.468 74.97 233.794 74.8627 234.046 74.648C234.308 74.4333 234.443 74.1393 234.452 73.766H235.166C235.157 74.354 234.961 74.8067 234.578 75.124C234.196 75.432 233.692 75.586 233.066 75.586ZM243.037 84V76.65H244.031V83.132H248.525V76.65H249.519V84H243.037ZM249.771 85.778V83.916L250.023 84H248.525V83.132H250.709V85.778H249.771ZM252.607 84V76.65H253.601V82.488L258.515 76.65H259.397V84H258.403V78.148L253.503 84H252.607ZM267.636 84L264.612 80.36L265.438 79.87L268.812 84H267.636ZM262.246 84V76.65H263.24V84H262.246ZM262.932 80.724V79.87H265.298V80.724H262.932ZM265.522 80.43L264.598 80.29L267.524 76.65H268.602L265.522 80.43ZM269.037 83.986L269.107 83.132C269.172 83.1413 269.233 83.1553 269.289 83.174C269.354 83.1833 269.41 83.188 269.457 83.188C269.755 83.188 269.993 83.076 270.171 82.852C270.357 82.628 270.497 82.3293 270.591 81.956C270.684 81.5827 270.749 81.1627 270.787 80.696C270.824 80.22 270.857 79.744 270.885 79.268L271.011 76.65H276.401V84H275.407V77.224L275.659 77.518H271.655L271.893 77.21L271.781 79.338C271.753 79.9727 271.701 80.5793 271.627 81.158C271.561 81.7367 271.454 82.2453 271.305 82.684C271.165 83.1227 270.969 83.468 270.717 83.72C270.465 83.9627 270.143 84.084 269.751 84.084C269.639 84.084 269.522 84.0747 269.401 84.056C269.289 84.0373 269.167 84.014 269.037 83.986ZM282.891 84V76.65H283.885V79.898H288.519V76.65H289.513V84H288.519V80.752H283.885V84H282.891ZM296.902 84V82.376L296.86 82.11V79.394C296.86 78.7687 296.682 78.288 296.328 77.952C295.982 77.616 295.464 77.448 294.774 77.448C294.298 77.448 293.845 77.5273 293.416 77.686C292.986 77.8447 292.622 78.0547 292.324 78.316L291.876 77.574C292.249 77.2567 292.697 77.014 293.22 76.846C293.742 76.6687 294.293 76.58 294.872 76.58C295.824 76.58 296.556 76.818 297.07 77.294C297.592 77.7607 297.854 78.4747 297.854 79.436V84H296.902ZM294.368 84.07C293.817 84.07 293.336 83.9813 292.926 83.804C292.524 83.6173 292.216 83.3653 292.002 83.048C291.787 82.7213 291.68 82.348 291.68 81.928C291.68 81.5453 291.768 81.2 291.946 80.892C292.132 80.5747 292.431 80.3227 292.842 80.136C293.262 79.94 293.822 79.842 294.522 79.842H297.056V80.584H294.55C293.84 80.584 293.346 80.71 293.066 80.962C292.795 81.214 292.66 81.5267 292.66 81.9C292.66 82.32 292.823 82.656 293.15 82.908C293.476 83.16 293.934 83.286 294.522 83.286C295.082 83.286 295.562 83.16 295.964 82.908C296.374 82.6467 296.673 82.2733 296.86 81.788L297.084 82.474C296.897 82.9593 296.57 83.3467 296.104 83.636C295.646 83.9253 295.068 84.07 294.368 84.07ZM1.414 106V98.65H2.408V101.898H7.042V98.65H8.036V106H7.042V102.752H2.408V106H1.414ZM15.4253 106V104.376L15.3833 104.11V101.394C15.3833 100.769 15.2059 100.288 14.8513 99.952C14.5059 99.616 13.9879 99.448 13.2973 99.448C12.8213 99.448 12.3686 99.5273 11.9393 99.686C11.5099 99.8447 11.1459 100.055 10.8473 100.316L10.3993 99.574C10.7726 99.2567 11.2206 99.014 11.7433 98.846C12.2659 98.6687 12.8166 98.58 13.3953 98.58C14.3473 98.58 15.0799 98.818 15.5933 99.294C16.1159 99.7607 16.3773 100.475 16.3773 101.436V106H15.4253ZM12.8913 106.07C12.3406 106.07 11.8599 105.981 11.4493 105.804C11.0479 105.617 10.7399 105.365 10.5253 105.048C10.3106 104.721 10.2033 104.348 10.2033 103.928C10.2033 103.545 10.2919 103.2 10.4693 102.892C10.6559 102.575 10.9546 102.323 11.3653 102.136C11.7853 101.94 12.3453 101.842 13.0453 101.842H15.5793V102.584H13.0733C12.3639 102.584 11.8693 102.71 11.5893 102.962C11.3186 103.214 11.1833 103.527 11.1833 103.9C11.1833 104.32 11.3466 104.656 11.6733 104.908C11.9999 105.16 12.4573 105.286 13.0453 105.286C13.6053 105.286 14.0859 105.16 14.4873 104.908C14.8979 104.647 15.1966 104.273 15.3833 103.788L15.6073 104.474C15.4206 104.959 15.0939 105.347 14.6273 105.636C14.1699 105.925 13.5913 106.07 12.8913 106.07ZM23.8534 105.132L23.6294 105.398V98.65H24.6234V105.398L24.3574 105.132H28.4594L28.1934 105.398V98.65H29.1874V106H19.0234V98.65H20.0174V105.398L19.7654 105.132H23.8534ZM35.1617 106.07C34.3963 106.07 33.7243 105.911 33.1457 105.594C32.567 105.267 32.1143 104.824 31.7877 104.264C31.461 103.695 31.2977 103.046 31.2977 102.318C31.2977 101.59 31.4517 100.946 31.7597 100.386C32.077 99.826 32.5063 99.3873 33.0477 99.07C33.5983 98.7433 34.2143 98.58 34.8957 98.58C35.5863 98.58 36.1977 98.7387 36.7297 99.056C37.271 99.364 37.6957 99.8027 38.0037 100.372C38.3117 100.932 38.4657 101.581 38.4657 102.318C38.4657 102.365 38.461 102.416 38.4517 102.472C38.4517 102.519 38.4517 102.57 38.4517 102.626H32.0537V101.884H37.9197L37.5277 102.178C37.5277 101.646 37.411 101.175 37.1777 100.764C36.9537 100.344 36.6457 100.017 36.2537 99.784C35.8617 99.5507 35.409 99.434 34.8957 99.434C34.3917 99.434 33.939 99.5507 33.5377 99.784C33.1363 100.017 32.8237 100.344 32.5997 100.764C32.3757 101.184 32.2637 101.665 32.2637 102.206V102.36C32.2637 102.92 32.385 103.415 32.6277 103.844C32.8797 104.264 33.225 104.595 33.6637 104.838C34.1117 105.071 34.6203 105.188 35.1897 105.188C35.6377 105.188 36.053 105.109 36.4357 104.95C36.8277 104.791 37.1637 104.549 37.4437 104.222L38.0037 104.866C37.677 105.258 37.2663 105.557 36.7717 105.762C36.2863 105.967 35.7497 106.07 35.1617 106.07ZM40.666 106V98.65H41.674L45.006 104.292H44.586L47.974 98.65H48.898V106H47.988V99.784L48.17 99.868L45.006 105.104H44.558L41.366 99.812L41.576 99.77V106H40.666ZM55.3906 106V98.65H61.9986V106H61.0046V99.252L61.2566 99.518H56.1326L56.3846 99.252V106H55.3906ZM68.6182 106.07C67.9835 106.07 67.4095 105.925 66.8962 105.636C66.3828 105.337 65.9722 104.913 65.6642 104.362C65.3655 103.802 65.2162 103.121 65.2162 102.318C65.2162 101.515 65.3655 100.839 65.6642 100.288C65.9628 99.728 66.3688 99.3033 66.8822 99.014C67.3955 98.7247 67.9742 98.58 68.6182 98.58C69.3182 98.58 69.9435 98.7387 70.4942 99.056C71.0542 99.364 71.4928 99.8027 71.8102 100.372C72.1275 100.932 72.2862 101.581 72.2862 102.318C72.2862 103.065 72.1275 103.718 71.8102 104.278C71.4928 104.838 71.0542 105.277 70.4942 105.594C69.9435 105.911 69.3182 106.07 68.6182 106.07ZM64.8242 108.716V98.65H65.7762V100.862L65.6782 102.332L65.8182 103.816V108.716H64.8242ZM68.5482 105.188C69.0708 105.188 69.5375 105.071 69.9482 104.838C70.3588 104.595 70.6855 104.259 70.9282 103.83C71.1708 103.391 71.2922 102.887 71.2922 102.318C71.2922 101.749 71.1708 101.249 70.9282 100.82C70.6855 100.391 70.3588 100.055 69.9482 99.812C69.5375 99.5693 69.0708 99.448 68.5482 99.448C68.0255 99.448 67.5542 99.5693 67.1342 99.812C66.7235 100.055 66.3968 100.391 66.1542 100.82C65.9208 101.249 65.8042 101.749 65.8042 102.318C65.8042 102.887 65.9208 103.391 66.1542 103.83C66.3968 104.259 66.7235 104.595 67.1342 104.838C67.5542 105.071 68.0255 105.188 68.5482 105.188ZM77.4458 106.07C76.7365 106.07 76.0971 105.911 75.5278 105.594C74.9678 105.267 74.5245 104.824 74.1978 104.264C73.8711 103.695 73.7078 103.046 73.7078 102.318C73.7078 101.581 73.8711 100.932 74.1978 100.372C74.5245 99.812 74.9678 99.3733 75.5278 99.056C76.0878 98.7387 76.7271 98.58 77.4458 98.58C78.1738 98.58 78.8178 98.7387 79.3778 99.056C79.9471 99.3733 80.3905 99.812 80.7078 100.372C81.0345 100.932 81.1978 101.581 81.1978 102.318C81.1978 103.046 81.0345 103.695 80.7078 104.264C80.3905 104.824 79.9471 105.267 79.3778 105.594C78.8085 105.911 78.1645 106.07 77.4458 106.07ZM77.4458 105.188C77.9778 105.188 78.4491 105.071 78.8598 104.838C79.2705 104.595 79.5925 104.259 79.8258 103.83C80.0685 103.391 80.1898 102.887 80.1898 102.318C80.1898 101.739 80.0685 101.235 79.8258 100.806C79.5925 100.377 79.2705 100.045 78.8598 99.812C78.4491 99.5693 77.9825 99.448 77.4598 99.448C76.9371 99.448 76.4705 99.5693 76.0598 99.812C75.6491 100.045 75.3225 100.377 75.0798 100.806C74.8371 101.235 74.7158 101.739 74.7158 102.318C74.7158 102.887 74.8371 103.391 75.0798 103.83C75.3225 104.259 75.6491 104.595 76.0598 104.838C76.4705 105.071 76.9325 105.188 77.4458 105.188ZM83.3222 106V98.65H84.3162V104.488L89.2302 98.65H90.1122V106H89.1182V100.148L84.2182 106H83.3222ZM94.7845 106.084C94.2525 106.084 93.7252 106.009 93.2025 105.86C92.6798 105.711 92.2178 105.482 91.8165 105.174L92.1385 104.432C92.4932 104.693 92.9038 104.894 93.3705 105.034C93.8372 105.165 94.2992 105.23 94.7565 105.23C95.2138 105.221 95.6105 105.155 95.9465 105.034C96.2825 104.913 96.5438 104.745 96.7305 104.53C96.9172 104.315 97.0105 104.073 97.0105 103.802C97.0105 103.41 96.8332 103.107 96.4785 102.892C96.1238 102.668 95.6385 102.556 95.0225 102.556H93.7625V101.828H94.9525C95.3165 101.828 95.6385 101.781 95.9185 101.688C96.1985 101.595 96.4132 101.459 96.5625 101.282C96.7212 101.105 96.8005 100.895 96.8005 100.652C96.8005 100.391 96.7072 100.167 96.5205 99.98C96.3432 99.7933 96.0958 99.6533 95.7785 99.56C95.4612 99.4667 95.1018 99.42 94.7005 99.42C94.3365 99.4293 93.9585 99.4853 93.5665 99.588C93.1745 99.6813 92.7872 99.826 92.4045 100.022L92.1245 99.252C92.5538 99.028 92.9785 98.86 93.3985 98.748C93.8278 98.6267 94.2572 98.566 94.6865 98.566C95.2745 98.5473 95.8018 98.6173 96.2685 98.776C96.7445 98.9347 97.1225 99.1633 97.4025 99.462C97.6825 99.7513 97.8225 100.101 97.8225 100.512C97.8225 100.876 97.7105 101.193 97.4865 101.464C97.2625 101.735 96.9638 101.945 96.5905 102.094C96.2172 102.243 95.7925 102.318 95.3165 102.318L95.3585 102.052C96.1985 102.052 96.8518 102.215 97.3185 102.542C97.7945 102.869 98.0325 103.312 98.0325 103.872C98.0325 104.311 97.8878 104.698 97.5985 105.034C97.3092 105.361 96.9172 105.617 96.4225 105.804C95.9372 105.991 95.3912 106.084 94.7845 106.084ZM100.289 106V98.65H103.537C104.368 98.65 105.021 98.8087 105.497 99.126C105.982 99.4433 106.225 99.91 106.225 100.526C106.225 101.123 105.996 101.585 105.539 101.912C105.082 102.229 104.48 102.388 103.733 102.388L103.929 102.094C104.806 102.094 105.45 102.257 105.861 102.584C106.272 102.911 106.477 103.382 106.477 103.998C106.477 104.633 106.244 105.127 105.777 105.482C105.32 105.827 104.606 106 103.635 106H100.289ZM101.255 105.216H103.593C104.218 105.216 104.69 105.118 105.007 104.922C105.334 104.717 105.497 104.39 105.497 103.942C105.497 103.494 105.352 103.167 105.063 102.962C104.774 102.757 104.316 102.654 103.691 102.654H101.255V105.216ZM101.255 101.912H103.467C104.036 101.912 104.47 101.805 104.769 101.59C105.077 101.375 105.231 101.063 105.231 100.652C105.231 100.241 105.077 99.9333 104.769 99.728C104.47 99.5227 104.036 99.42 103.467 99.42H101.255V101.912ZM111.831 106.07C111.121 106.07 110.482 105.911 109.913 105.594C109.353 105.267 108.909 104.824 108.583 104.264C108.256 103.695 108.093 103.046 108.093 102.318C108.093 101.581 108.256 100.932 108.583 100.372C108.909 99.812 109.353 99.3733 109.913 99.056C110.473 98.7387 111.112 98.58 111.831 98.58C112.559 98.58 113.203 98.7387 113.763 99.056C114.332 99.3733 114.775 99.812 115.093 100.372C115.419 100.932 115.583 101.581 115.583 102.318C115.583 103.046 115.419 103.695 115.093 104.264C114.775 104.824 114.332 105.267 113.763 105.594C113.193 105.911 112.549 106.07 111.831 106.07ZM111.831 105.188C112.363 105.188 112.834 105.071 113.245 104.838C113.655 104.595 113.977 104.259 114.211 103.83C114.453 103.391 114.575 102.887 114.575 102.318C114.575 101.739 114.453 101.235 114.211 100.806C113.977 100.377 113.655 100.045 113.245 99.812C112.834 99.5693 112.367 99.448 111.845 99.448C111.322 99.448 110.855 99.5693 110.445 99.812C110.034 100.045 109.707 100.377 109.465 100.806C109.222 101.235 109.101 101.739 109.101 102.318C109.101 102.887 109.222 103.391 109.465 103.83C109.707 104.259 110.034 104.595 110.445 104.838C110.855 105.071 111.317 105.188 111.831 105.188ZM122.706 105.524V99.518H119.164L119.08 101.156C119.061 101.651 119.029 102.136 118.982 102.612C118.945 103.088 118.875 103.527 118.772 103.928C118.679 104.32 118.543 104.642 118.366 104.894C118.189 105.137 117.96 105.277 117.68 105.314L116.686 105.132C116.975 105.141 117.213 105.039 117.4 104.824C117.587 104.6 117.731 104.297 117.834 103.914C117.937 103.531 118.011 103.097 118.058 102.612C118.105 102.117 118.142 101.613 118.17 101.1L118.268 98.65H123.7V105.524H122.706ZM116.378 107.778V105.132H124.848V107.778H123.91V106H117.316V107.778H116.378ZM129.865 106.07C129.137 106.07 128.484 105.911 127.905 105.594C127.336 105.267 126.888 104.824 126.561 104.264C126.234 103.695 126.071 103.046 126.071 102.318C126.071 101.581 126.234 100.932 126.561 100.372C126.888 99.812 127.336 99.3733 127.905 99.056C128.484 98.7387 129.137 98.58 129.865 98.58C130.49 98.58 131.055 98.7013 131.559 98.944C132.063 99.1867 132.46 99.5507 132.749 100.036L132.007 100.54C131.755 100.167 131.442 99.8913 131.069 99.714C130.696 99.5367 130.29 99.448 129.851 99.448C129.328 99.448 128.857 99.5693 128.437 99.812C128.017 100.045 127.686 100.377 127.443 100.806C127.2 101.235 127.079 101.739 127.079 102.318C127.079 102.897 127.2 103.401 127.443 103.83C127.686 104.259 128.017 104.595 128.437 104.838C128.857 105.071 129.328 105.188 129.851 105.188C130.29 105.188 130.696 105.099 131.069 104.922C131.442 104.745 131.755 104.474 132.007 104.11L132.749 104.614C132.46 105.09 132.063 105.454 131.559 105.706C131.055 105.949 130.49 106.07 129.865 106.07ZM135.937 106V99.252L136.189 99.518H133.151V98.65H139.717V99.518H136.679L136.931 99.252V106H135.937ZM141.154 106V98.65H144.402C145.233 98.65 145.886 98.8087 146.362 99.126C146.848 99.4433 147.09 99.91 147.09 100.526C147.09 101.123 146.862 101.585 146.404 101.912C145.947 102.229 145.345 102.388 144.598 102.388L144.794 102.094C145.672 102.094 146.316 102.257 146.726 102.584C147.137 102.911 147.342 103.382 147.342 103.998C147.342 104.633 147.109 105.127 146.642 105.482C146.185 105.827 145.471 106 144.5 106H141.154ZM142.12 105.216H144.458C145.084 105.216 145.555 105.118 145.872 104.922C146.199 104.717 146.362 104.39 146.362 103.942C146.362 103.494 146.218 103.167 145.928 102.962C145.639 102.757 145.182 102.654 144.556 102.654H142.12V105.216ZM142.12 101.912H144.332C144.902 101.912 145.336 101.805 145.634 101.59C145.942 101.375 146.096 101.063 146.096 100.652C146.096 100.241 145.942 99.9333 145.634 99.728C145.336 99.5227 144.902 99.42 144.332 99.42H142.12V101.912ZM152.822 106.07C152.056 106.07 151.384 105.911 150.806 105.594C150.227 105.267 149.774 104.824 149.448 104.264C149.121 103.695 148.958 103.046 148.958 102.318C148.958 101.59 149.112 100.946 149.42 100.386C149.737 99.826 150.166 99.3873 150.708 99.07C151.258 98.7433 151.874 98.58 152.556 98.58C153.246 98.58 153.858 98.7387 154.39 99.056C154.931 99.364 155.356 99.8027 155.664 100.372C155.972 100.932 156.126 101.581 156.126 102.318C156.126 102.365 156.121 102.416 156.112 102.472C156.112 102.519 156.112 102.57 156.112 102.626H149.714V101.884H155.58L155.188 102.178C155.188 101.646 155.071 101.175 154.838 100.764C154.614 100.344 154.306 100.017 153.914 99.784C153.522 99.5507 153.069 99.434 152.556 99.434C152.052 99.434 151.599 99.5507 151.198 99.784C150.796 100.017 150.484 100.344 150.26 100.764C150.036 101.184 149.924 101.665 149.924 102.206V102.36C149.924 102.92 150.045 103.415 150.288 103.844C150.54 104.264 150.885 104.595 151.324 104.838C151.772 105.071 152.28 105.188 152.85 105.188C153.298 105.188 153.713 105.109 154.096 104.95C154.488 104.791 154.824 104.549 155.104 104.222L155.664 104.866C155.337 105.258 154.926 105.557 154.432 105.762C153.946 105.967 153.41 106.07 152.822 106.07ZM165.014 106.07C164.305 106.07 163.666 105.911 163.096 105.594C162.536 105.267 162.093 104.824 161.766 104.264C161.44 103.695 161.276 103.046 161.276 102.318C161.276 101.581 161.44 100.932 161.766 100.372C162.093 99.812 162.536 99.3733 163.096 99.056C163.656 98.7387 164.296 98.58 165.014 98.58C165.742 98.58 166.386 98.7387 166.946 99.056C167.516 99.3733 167.959 99.812 168.276 100.372C168.603 100.932 168.766 101.581 168.766 102.318C168.766 103.046 168.603 103.695 168.276 104.264C167.959 104.824 167.516 105.267 166.946 105.594C166.377 105.911 165.733 106.07 165.014 106.07ZM165.014 105.188C165.546 105.188 166.018 105.071 166.428 104.838C166.839 104.595 167.161 104.259 167.394 103.83C167.637 103.391 167.758 102.887 167.758 102.318C167.758 101.739 167.637 101.235 167.394 100.806C167.161 100.377 166.839 100.045 166.428 99.812C166.018 99.5693 165.551 99.448 165.028 99.448C164.506 99.448 164.039 99.5693 163.628 99.812C163.218 100.045 162.891 100.377 162.648 100.806C162.406 101.235 162.284 101.739 162.284 102.318C162.284 102.887 162.406 103.391 162.648 103.83C162.891 104.259 163.218 104.595 163.628 104.838C164.039 105.071 164.501 105.188 165.014 105.188ZM172.017 106V99.252L172.269 99.518H169.231V98.65H175.797V99.518H172.759L173.011 99.252V106H172.017ZM184.692 106.07C184.058 106.07 183.484 105.925 182.97 105.636C182.457 105.337 182.046 104.913 181.738 104.362C181.44 103.802 181.29 103.121 181.29 102.318C181.29 101.515 181.44 100.839 181.738 100.288C182.037 99.728 182.443 99.3033 182.956 99.014C183.47 98.7247 184.048 98.58 184.692 98.58C185.392 98.58 186.018 98.7387 186.568 99.056C187.128 99.364 187.567 99.8027 187.884 100.372C188.202 100.932 188.36 101.581 188.36 102.318C188.36 103.065 188.202 103.718 187.884 104.278C187.567 104.838 187.128 105.277 186.568 105.594C186.018 105.911 185.392 106.07 184.692 106.07ZM180.898 108.716V98.65H181.85V100.862L181.752 102.332L181.892 103.816V108.716H180.898ZM184.622 105.188C185.145 105.188 185.612 105.071 186.022 104.838C186.433 104.595 186.76 104.259 187.002 103.83C187.245 103.391 187.366 102.887 187.366 102.318C187.366 101.749 187.245 101.249 187.002 100.82C186.76 100.391 186.433 100.055 186.022 99.812C185.612 99.5693 185.145 99.448 184.622 99.448C184.1 99.448 183.628 99.5693 183.208 99.812C182.798 100.055 182.471 100.391 182.228 100.82C181.995 101.249 181.878 101.749 181.878 102.318C181.878 102.887 181.995 103.391 182.228 103.83C182.471 104.259 182.798 104.595 183.208 104.838C183.628 105.071 184.1 105.188 184.622 105.188ZM195.019 106V104.376L194.977 104.11V101.394C194.977 100.769 194.8 100.288 194.445 99.952C194.1 99.616 193.582 99.448 192.891 99.448C192.415 99.448 191.962 99.5273 191.533 99.686C191.104 99.8447 190.74 100.055 190.441 100.316L189.993 99.574C190.366 99.2567 190.814 99.014 191.337 98.846C191.86 98.6687 192.41 98.58 192.989 98.58C193.941 98.58 194.674 98.818 195.187 99.294C195.71 99.7607 195.971 100.475 195.971 101.436V106H195.019ZM192.485 106.07C191.934 106.07 191.454 105.981 191.043 105.804C190.642 105.617 190.334 105.365 190.119 105.048C189.904 104.721 189.797 104.348 189.797 103.928C189.797 103.545 189.886 103.2 190.063 102.892C190.25 102.575 190.548 102.323 190.959 102.136C191.379 101.94 191.939 101.842 192.639 101.842H195.173V102.584H192.667C191.958 102.584 191.463 102.71 191.183 102.962C190.912 103.214 190.777 103.527 190.777 103.9C190.777 104.32 190.94 104.656 191.267 104.908C191.594 105.16 192.051 105.286 192.639 105.286C193.199 105.286 193.68 105.16 194.081 104.908C194.492 104.647 194.79 104.273 194.977 103.788L195.201 104.474C195.014 104.959 194.688 105.347 194.221 105.636C193.764 105.925 193.185 106.07 192.485 106.07ZM200.441 106.084C199.909 106.084 199.381 106.009 198.859 105.86C198.336 105.711 197.874 105.482 197.473 105.174L197.795 104.432C198.149 104.693 198.56 104.894 199.027 105.034C199.493 105.165 199.955 105.23 200.413 105.23C200.87 105.221 201.267 105.155 201.603 105.034C201.939 104.913 202.2 104.745 202.387 104.53C202.573 104.315 202.667 104.073 202.667 103.802C202.667 103.41 202.489 103.107 202.135 102.892C201.78 102.668 201.295 102.556 200.679 102.556H199.419V101.828H200.609C200.973 101.828 201.295 101.781 201.575 101.688C201.855 101.595 202.069 101.459 202.219 101.282C202.377 101.105 202.457 100.895 202.457 100.652C202.457 100.391 202.363 100.167 202.177 99.98C201.999 99.7933 201.752 99.6533 201.435 99.56C201.117 99.4667 200.758 99.42 200.357 99.42C199.993 99.4293 199.615 99.4853 199.223 99.588C198.831 99.6813 198.443 99.826 198.061 100.022L197.781 99.252C198.21 99.028 198.635 98.86 199.055 98.748C199.484 98.6267 199.913 98.566 200.343 98.566C200.931 98.5473 201.458 98.6173 201.925 98.776C202.401 98.9347 202.779 99.1633 203.059 99.462C203.339 99.7513 203.479 100.101 203.479 100.512C203.479 100.876 203.367 101.193 203.143 101.464C202.919 101.735 202.62 101.945 202.247 102.094C201.873 102.243 201.449 102.318 200.973 102.318L201.015 102.052C201.855 102.052 202.508 102.215 202.975 102.542C203.451 102.869 203.689 103.312 203.689 103.872C203.689 104.311 203.544 104.698 203.255 105.034C202.965 105.361 202.573 105.617 202.079 105.804C201.593 105.991 201.047 106.084 200.441 106.084ZM209.739 106.07C209.105 106.07 208.531 105.925 208.017 105.636C207.504 105.337 207.093 104.913 206.785 104.362C206.487 103.802 206.337 103.121 206.337 102.318C206.337 101.515 206.487 100.839 206.785 100.288C207.084 99.728 207.49 99.3033 208.003 99.014C208.517 98.7247 209.095 98.58 209.739 98.58C210.439 98.58 211.065 98.7387 211.615 99.056C212.175 99.364 212.614 99.8027 212.931 100.372C213.249 100.932 213.407 101.581 213.407 102.318C213.407 103.065 213.249 103.718 212.931 104.278C212.614 104.838 212.175 105.277 211.615 105.594C211.065 105.911 210.439 106.07 209.739 106.07ZM205.945 108.716V98.65H206.897V100.862L206.799 102.332L206.939 103.816V108.716H205.945ZM209.669 105.188C210.192 105.188 210.659 105.071 211.069 104.838C211.48 104.595 211.807 104.259 212.049 103.83C212.292 103.391 212.413 102.887 212.413 102.318C212.413 101.749 212.292 101.249 212.049 100.82C211.807 100.391 211.48 100.055 211.069 99.812C210.659 99.5693 210.192 99.448 209.669 99.448C209.147 99.448 208.675 99.5693 208.255 99.812C207.845 100.055 207.518 100.391 207.275 100.82C207.042 101.249 206.925 101.749 206.925 102.318C206.925 102.887 207.042 103.391 207.275 103.83C207.518 104.259 207.845 104.595 208.255 104.838C208.675 105.071 209.147 105.188 209.669 105.188ZM220.066 106V104.376L220.024 104.11V101.394C220.024 100.769 219.847 100.288 219.492 99.952C219.147 99.616 218.629 99.448 217.938 99.448C217.462 99.448 217.009 99.5273 216.58 99.686C216.151 99.8447 215.787 100.055 215.488 100.316L215.04 99.574C215.413 99.2567 215.861 99.014 216.384 98.846C216.907 98.6687 217.457 98.58 218.036 98.58C218.988 98.58 219.721 98.818 220.234 99.294C220.757 99.7607 221.018 100.475 221.018 101.436V106H220.066ZM217.532 106.07C216.981 106.07 216.501 105.981 216.09 105.804C215.689 105.617 215.381 105.365 215.166 105.048C214.951 104.721 214.844 104.348 214.844 103.928C214.844 103.545 214.933 103.2 215.11 102.892C215.297 102.575 215.595 102.323 216.006 102.136C216.426 101.94 216.986 101.842 217.686 101.842H220.22V102.584H217.714C217.005 102.584 216.51 102.71 216.23 102.962C215.959 103.214 215.824 103.527 215.824 103.9C215.824 104.32 215.987 104.656 216.314 104.908C216.641 105.16 217.098 105.286 217.686 105.286C218.246 105.286 218.727 105.16 219.128 104.908C219.539 104.647 219.837 104.273 220.024 103.788L220.248 104.474C220.061 104.959 219.735 105.347 219.268 105.636C218.811 105.925 218.232 106.07 217.532 106.07ZM226.968 106.084C226.371 106.084 225.839 105.986 225.372 105.79C224.915 105.594 224.523 105.295 224.196 104.894C223.869 104.493 223.622 103.998 223.454 103.41C223.286 102.813 223.202 102.122 223.202 101.338C223.202 100.638 223.267 100.027 223.398 99.504C223.529 98.972 223.711 98.5147 223.944 98.132C224.177 97.7493 224.448 97.4273 224.756 97.166C225.073 96.8953 225.414 96.6807 225.778 96.522C226.151 96.354 226.534 96.228 226.926 96.144L230.23 95.374L230.398 96.298L227.29 96.998C227.094 97.0447 226.856 97.11 226.576 97.194C226.305 97.278 226.025 97.404 225.736 97.572C225.456 97.74 225.195 97.9733 224.952 98.272C224.709 98.5707 224.513 98.958 224.364 99.434C224.224 99.9007 224.154 100.484 224.154 101.184C224.154 101.333 224.159 101.455 224.168 101.548C224.177 101.632 224.187 101.725 224.196 101.828C224.215 101.921 224.229 102.061 224.238 102.248L223.804 101.884C223.907 101.315 224.117 100.82 224.434 100.4C224.751 99.9707 225.148 99.6393 225.624 99.406C226.109 99.1633 226.646 99.042 227.234 99.042C227.915 99.042 228.522 99.1913 229.054 99.49C229.586 99.7793 230.001 100.185 230.3 100.708C230.608 101.231 230.762 101.837 230.762 102.528C230.762 103.209 230.603 103.821 230.286 104.362C229.978 104.903 229.539 105.328 228.97 105.636C228.401 105.935 227.733 106.084 226.968 106.084ZM227.08 105.258C227.603 105.258 228.065 105.141 228.466 104.908C228.867 104.665 229.18 104.339 229.404 103.928C229.637 103.517 229.754 103.055 229.754 102.542C229.754 102.038 229.637 101.59 229.404 101.198C229.18 100.806 228.867 100.498 228.466 100.274C228.065 100.041 227.598 99.924 227.066 99.924C226.543 99.924 226.081 100.036 225.68 100.26C225.279 100.475 224.961 100.778 224.728 101.17C224.504 101.562 224.392 102.015 224.392 102.528C224.392 103.041 224.504 103.503 224.728 103.914C224.961 104.325 225.279 104.651 225.68 104.894C226.091 105.137 226.557 105.258 227.08 105.258ZM235.917 106.07C235.207 106.07 234.568 105.911 233.999 105.594C233.439 105.267 232.995 104.824 232.669 104.264C232.342 103.695 232.179 103.046 232.179 102.318C232.179 101.581 232.342 100.932 232.669 100.372C232.995 99.812 233.439 99.3733 233.999 99.056C234.559 98.7387 235.198 98.58 235.917 98.58C236.645 98.58 237.289 98.7387 237.849 99.056C238.418 99.3733 238.861 99.812 239.179 100.372C239.505 100.932 239.669 101.581 239.669 102.318C239.669 103.046 239.505 103.695 239.179 104.264C238.861 104.824 238.418 105.267 237.849 105.594C237.279 105.911 236.635 106.07 235.917 106.07ZM235.917 105.188C236.449 105.188 236.92 105.071 237.331 104.838C237.741 104.595 238.063 104.259 238.297 103.83C238.539 103.391 238.661 102.887 238.661 102.318C238.661 101.739 238.539 101.235 238.297 100.806C238.063 100.377 237.741 100.045 237.331 99.812C236.92 99.5693 236.453 99.448 235.931 99.448C235.408 99.448 234.941 99.5693 234.531 99.812C234.12 100.045 233.793 100.377 233.551 100.806C233.308 101.235 233.187 101.739 233.187 102.318C233.187 102.887 233.308 103.391 233.551 103.83C233.793 104.259 234.12 104.595 234.531 104.838C234.941 105.071 235.403 105.188 235.917 105.188ZM242.919 106V99.252L243.171 99.518H240.133V98.65H246.699V99.518H243.661L243.913 99.252V106H242.919ZM253.527 106L250.503 102.36L251.329 101.87L254.703 106H253.527ZM248.137 106V98.65H249.131V106H248.137ZM248.823 102.724V101.87H251.189V102.724H248.823ZM251.413 102.43L250.489 102.29L253.415 98.65H254.493L251.413 102.43ZM256.271 106V98.65H257.265V104.488L262.179 98.65H263.061V106H262.067V100.148L257.167 106H256.271ZM268.23 105.986L268.3 105.132C268.365 105.141 268.426 105.155 268.482 105.174C268.547 105.183 268.603 105.188 268.65 105.188C268.949 105.188 269.187 105.076 269.364 104.852C269.551 104.628 269.691 104.329 269.784 103.956C269.877 103.583 269.943 103.163 269.98 102.696C270.017 102.22 270.05 101.744 270.078 101.268L270.204 98.65H275.594V106H274.6V99.224L274.852 99.518H270.848L271.086 99.21L270.974 101.338C270.946 101.973 270.895 102.579 270.82 103.158C270.755 103.737 270.647 104.245 270.498 104.684C270.358 105.123 270.162 105.468 269.91 105.72C269.658 105.963 269.336 106.084 268.944 106.084C268.832 106.084 268.715 106.075 268.594 106.056C268.482 106.037 268.361 106.014 268.23 105.986ZM281.57 106.07C280.805 106.07 280.133 105.911 279.554 105.594C278.975 105.267 278.523 104.824 278.196 104.264C277.869 103.695 277.706 103.046 277.706 102.318C277.706 101.59 277.86 100.946 278.168 100.386C278.485 99.826 278.915 99.3873 279.456 99.07C280.007 98.7433 280.623 98.58 281.304 98.58C281.995 98.58 282.606 98.7387 283.138 99.056C283.679 99.364 284.104 99.8027 284.412 100.372C284.72 100.932 284.874 101.581 284.874 102.318C284.874 102.365 284.869 102.416 284.86 102.472C284.86 102.519 284.86 102.57 284.86 102.626H278.462V101.884H284.328L283.936 102.178C283.936 101.646 283.819 101.175 283.586 100.764C283.362 100.344 283.054 100.017 282.662 99.784C282.27 99.5507 281.817 99.434 281.304 99.434C280.8 99.434 280.347 99.5507 279.946 99.784C279.545 100.017 279.232 100.344 279.008 100.764C278.784 101.184 278.672 101.665 278.672 102.206V102.36C278.672 102.92 278.793 103.415 279.036 103.844C279.288 104.264 279.633 104.595 280.072 104.838C280.52 105.071 281.029 105.188 281.598 105.188C282.046 105.188 282.461 105.109 282.844 104.95C283.236 104.791 283.572 104.549 283.852 104.222L284.412 104.866C284.085 105.258 283.675 105.557 283.18 105.762C282.695 105.967 282.158 106.07 281.57 106.07ZM292.464 106L289.44 102.36L290.266 101.87L293.64 106H292.464ZM287.074 106V98.65H288.068V106H287.074ZM287.76 102.724V101.87H290.126V102.724H287.76ZM290.35 102.43L289.426 102.29L292.352 98.65H293.43L290.35 102.43ZM299.636 106V104.376L299.594 104.11V101.394C299.594 100.769 299.417 100.288 299.062 99.952C298.717 99.616 298.199 99.448 297.508 99.448C297.032 99.448 296.58 99.5273 296.15 99.686C295.721 99.8447 295.357 100.055 295.058 100.316L294.61 99.574C294.984 99.2567 295.432 99.014 295.954 98.846C296.477 98.6687 297.028 98.58 297.606 98.58C298.558 98.58 299.291 98.818 299.804 99.294C300.327 99.7607 300.588 100.475 300.588 101.436V106H299.636ZM297.102 106.07C296.552 106.07 296.071 105.981 295.66 105.804C295.259 105.617 294.951 105.365 294.736 105.048C294.522 104.721 294.414 104.348 294.414 103.928C294.414 103.545 294.503 103.2 294.68 102.892C294.867 102.575 295.166 102.323 295.576 102.136C295.996 101.94 296.556 101.842 297.256 101.842H299.79V102.584H297.284C296.575 102.584 296.08 102.71 295.8 102.962C295.53 103.214 295.394 103.527 295.394 103.9C295.394 104.32 295.558 104.656 295.884 104.908C296.211 105.16 296.668 105.286 297.256 105.286C297.816 105.286 298.297 105.16 298.698 104.908C299.109 104.647 299.408 104.273 299.594 103.788L299.818 104.474C299.632 104.959 299.305 105.347 298.838 105.636C298.381 105.925 297.802 106.07 297.102 106.07ZM301.89 105.986L301.96 105.132C302.026 105.141 302.086 105.155 302.142 105.174C302.208 105.183 302.264 105.188 302.31 105.188C302.609 105.188 302.847 105.076 303.024 104.852C303.211 104.628 303.351 104.329 303.444 103.956C303.538 103.583 303.603 103.163 303.64 102.696C303.678 102.22 303.71 101.744 303.738 101.268L303.864 98.65H309.254V106H308.26V99.224L308.512 99.518H304.508L304.746 99.21L304.634 101.338C304.606 101.973 304.555 102.579 304.48 103.158C304.415 103.737 304.308 104.245 304.158 104.684C304.018 105.123 303.822 105.468 303.57 105.72C303.318 105.963 302.996 106.084 302.604 106.084C302.492 106.084 302.376 106.075 302.254 106.056C302.142 106.037 302.021 106.014 301.89 105.986ZM316.644 106V104.376L316.602 104.11V101.394C316.602 100.769 316.425 100.288 316.07 99.952C315.725 99.616 315.207 99.448 314.516 99.448C314.04 99.448 313.587 99.5273 313.158 99.686C312.729 99.8447 312.365 100.055 312.066 100.316L311.618 99.574C311.991 99.2567 312.439 99.014 312.962 98.846C313.485 98.6687 314.035 98.58 314.614 98.58C315.566 98.58 316.299 98.818 316.812 99.294C317.335 99.7607 317.596 100.475 317.596 101.436V106H316.644ZM314.11 106.07C313.559 106.07 313.079 105.981 312.668 105.804C312.267 105.617 311.959 105.365 311.744 105.048C311.529 104.721 311.422 104.348 311.422 103.928C311.422 103.545 311.511 103.2 311.688 102.892C311.875 102.575 312.173 102.323 312.584 102.136C313.004 101.94 313.564 101.842 314.264 101.842H316.798V102.584H314.292C313.583 102.584 313.088 102.71 312.808 102.962C312.537 103.214 312.402 103.527 312.402 103.9C312.402 104.32 312.565 104.656 312.892 104.908C313.219 105.16 313.676 105.286 314.264 105.286C314.824 105.286 315.305 105.16 315.706 104.908C316.117 104.647 316.415 104.273 316.602 103.788L316.826 104.474C316.639 104.959 316.313 105.347 315.846 105.636C315.389 105.925 314.81 106.07 314.11 106.07ZM6.454 127.524V121.518H2.912L2.828 123.156C2.80933 123.651 2.77667 124.136 2.73 124.612C2.69267 125.088 2.62267 125.527 2.52 125.928C2.42667 126.32 2.29133 126.642 2.114 126.894C1.93667 127.137 1.708 127.277 1.428 127.314L0.434 127.132C0.723333 127.141 0.961333 127.039 1.148 126.824C1.33467 126.6 1.47933 126.297 1.582 125.914C1.68467 125.531 1.75933 125.097 1.806 124.612C1.85267 124.117 1.89 123.613 1.918 123.1L2.016 120.65H7.448V127.524H6.454ZM0.126 129.778V127.132H8.596V129.778H7.658V128H1.064V129.778H0.126ZM13.5571 128.07C12.8478 128.07 12.2085 127.911 11.6391 127.594C11.0791 127.267 10.6358 126.824 10.3091 126.264C9.98247 125.695 9.81914 125.046 9.81914 124.318C9.81914 123.581 9.98247 122.932 10.3091 122.372C10.6358 121.812 11.0791 121.373 11.6391 121.056C12.1991 120.739 12.8385 120.58 13.5571 120.58C14.2851 120.58 14.9291 120.739 15.4891 121.056C16.0585 121.373 16.5018 121.812 16.8191 122.372C17.1458 122.932 17.3091 123.581 17.3091 124.318C17.3091 125.046 17.1458 125.695 16.8191 126.264C16.5018 126.824 16.0585 127.267 15.4891 127.594C14.9198 127.911 14.2758 128.07 13.5571 128.07ZM13.5571 127.188C14.0891 127.188 14.5605 127.071 14.9711 126.838C15.3818 126.595 15.7038 126.259 15.9371 125.83C16.1798 125.391 16.3011 124.887 16.3011 124.318C16.3011 123.739 16.1798 123.235 15.9371 122.806C15.7038 122.377 15.3818 122.045 14.9711 121.812C14.5605 121.569 14.0938 121.448 13.5711 121.448C13.0485 121.448 12.5818 121.569 12.1711 121.812C11.7605 122.045 11.4338 122.377 11.1911 122.806C10.9485 123.235 10.8271 123.739 10.8271 124.318C10.8271 124.887 10.9485 125.391 11.1911 125.83C11.4338 126.259 11.7605 126.595 12.1711 126.838C12.5818 127.071 13.0438 127.188 13.5571 127.188ZM27.2276 128.084C27.2276 128.084 27.2089 128.084 27.1716 128.084C27.1343 128.084 27.0969 128.084 27.0596 128.084C27.0316 128.084 27.0083 128.084 26.9896 128.084C25.5336 128.075 24.3996 127.743 23.5876 127.09C22.7756 126.437 22.3696 125.508 22.3696 124.304C22.3696 123.119 22.7756 122.204 23.5876 121.56C24.4089 120.907 25.5616 120.575 27.0456 120.566C27.0549 120.566 27.0736 120.566 27.1016 120.566C27.1389 120.566 27.1716 120.566 27.1996 120.566C27.2276 120.566 27.2463 120.566 27.2556 120.566C28.7489 120.575 29.9109 120.907 30.7416 121.56C31.5723 122.204 31.9876 123.119 31.9876 124.304C31.9876 125.517 31.5676 126.451 30.7276 127.104C29.8969 127.757 28.7303 128.084 27.2276 128.084ZM27.2136 127.216C28.0443 127.216 28.7396 127.104 29.2996 126.88C29.8596 126.647 30.2843 126.315 30.5736 125.886C30.8629 125.457 31.0076 124.929 31.0076 124.304C31.0076 123.697 30.8629 123.184 30.5736 122.764C30.2843 122.335 29.8596 122.008 29.2996 121.784C28.7396 121.56 28.0443 121.448 27.2136 121.448C27.2043 121.448 27.1763 121.448 27.1296 121.448C27.0923 121.448 27.0689 121.448 27.0596 121.448C26.2476 121.448 25.5663 121.565 25.0156 121.798C24.4649 122.022 24.0496 122.344 23.7696 122.764C23.4896 123.184 23.3496 123.697 23.3496 124.304C23.3496 124.92 23.4896 125.443 23.7696 125.872C24.0589 126.301 24.4789 126.633 25.0296 126.866C25.5803 127.09 26.2569 127.207 27.0596 127.216C27.0783 127.216 27.1063 127.216 27.1436 127.216C27.1809 127.216 27.2043 127.216 27.2136 127.216ZM26.6816 130.716V117.612H27.6476V130.716H26.6816ZM34.0898 128V120.65H35.0838V126.488L39.9978 120.65H40.8798V128H39.8858V122.148L34.9858 128H34.0898ZM43.7285 128V120.65H44.7225V123.898H49.3565V120.65H50.3505V128H49.3565V124.752H44.7225V128H43.7285ZM57.7397 128V126.376L57.6977 126.11V123.394C57.6977 122.769 57.5204 122.288 57.1657 121.952C56.8204 121.616 56.3024 121.448 55.6117 121.448C55.1357 121.448 54.6831 121.527 54.2537 121.686C53.8244 121.845 53.4604 122.055 53.1617 122.316L52.7137 121.574C53.0871 121.257 53.5351 121.014 54.0577 120.846C54.5804 120.669 55.1311 120.58 55.7097 120.58C56.6617 120.58 57.3944 120.818 57.9077 121.294C58.4304 121.761 58.6917 122.475 58.6917 123.436V128H57.7397ZM55.2057 128.07C54.6551 128.07 54.1744 127.981 53.7637 127.804C53.3624 127.617 53.0544 127.365 52.8397 127.048C52.6251 126.721 52.5177 126.348 52.5177 125.928C52.5177 125.545 52.6064 125.2 52.7837 124.892C52.9704 124.575 53.2691 124.323 53.6797 124.136C54.0997 123.94 54.6597 123.842 55.3597 123.842H57.8937V124.584H55.3877C54.6784 124.584 54.1837 124.71 53.9037 124.962C53.6331 125.214 53.4977 125.527 53.4977 125.9C53.4977 126.32 53.6611 126.656 53.9877 126.908C54.3144 127.16 54.7717 127.286 55.3597 127.286C55.9197 127.286 56.4004 127.16 56.8017 126.908C57.2124 126.647 57.5111 126.273 57.6977 125.788L57.9217 126.474C57.7351 126.959 57.4084 127.347 56.9417 127.636C56.4844 127.925 55.9057 128.07 55.2057 128.07ZM59.9938 127.986L60.0638 127.132C60.1292 127.141 60.1898 127.155 60.2458 127.174C60.3112 127.183 60.3672 127.188 60.4138 127.188C60.7125 127.188 60.9505 127.076 61.1278 126.852C61.3145 126.628 61.4545 126.329 61.5478 125.956C61.6412 125.583 61.7065 125.163 61.7438 124.696C61.7812 124.22 61.8138 123.744 61.8418 123.268L61.9678 120.65H67.3578V128H66.3638V121.224L66.6158 121.518H62.6118L62.8498 121.21L62.7378 123.338C62.7098 123.973 62.6585 124.579 62.5838 125.158C62.5185 125.737 62.4112 126.245 62.2618 126.684C62.1218 127.123 61.9258 127.468 61.6738 127.72C61.4218 127.963 61.0998 128.084 60.7078 128.084C60.5958 128.084 60.4792 128.075 60.3578 128.056C60.2458 128.037 60.1245 128.014 59.9938 127.986ZM73.3475 123.24C74.2715 123.249 74.9715 123.455 75.4475 123.856C75.9329 124.257 76.1755 124.836 76.1755 125.592C76.1755 126.376 75.9142 126.978 75.3915 127.398C74.8782 127.818 74.1315 128.023 73.1515 128.014L70.1835 128V120.65H71.1775V123.212L73.3475 123.24ZM73.0955 127.258C73.7769 127.267 74.2902 127.132 74.6355 126.852C74.9902 126.563 75.1675 126.143 75.1675 125.592C75.1675 125.041 74.9949 124.64 74.6495 124.388C74.3042 124.127 73.7862 123.991 73.0955 123.982L71.1775 123.954V127.23L73.0955 127.258ZM78.0722 128V120.65H79.0662V123.898H83.7002V120.65H84.6942V128H83.7002V124.752H79.0662V128H78.0722ZM90.5435 128.07C89.8341 128.07 89.1948 127.911 88.6255 127.594C88.0655 127.267 87.6221 126.824 87.2955 126.264C86.9688 125.695 86.8055 125.046 86.8055 124.318C86.8055 123.581 86.9688 122.932 87.2955 122.372C87.6221 121.812 88.0655 121.373 88.6255 121.056C89.1855 120.739 89.8248 120.58 90.5435 120.58C91.2715 120.58 91.9155 120.739 92.4755 121.056C93.0448 121.373 93.4881 121.812 93.8055 122.372C94.1321 122.932 94.2955 123.581 94.2955 124.318C94.2955 125.046 94.1321 125.695 93.8055 126.264C93.4881 126.824 93.0448 127.267 92.4755 127.594C91.9061 127.911 91.2621 128.07 90.5435 128.07ZM90.5435 127.188C91.0755 127.188 91.5468 127.071 91.9575 126.838C92.3681 126.595 92.6901 126.259 92.9235 125.83C93.1661 125.391 93.2875 124.887 93.2875 124.318C93.2875 123.739 93.1661 123.235 92.9235 122.806C92.6901 122.377 92.3681 122.045 91.9575 121.812C91.5468 121.569 91.0801 121.448 90.5575 121.448C90.0348 121.448 89.5681 121.569 89.1575 121.812C88.7468 122.045 88.4201 122.377 88.1775 122.806C87.9348 123.235 87.8135 123.739 87.8135 124.318C87.8135 124.887 87.9348 125.391 88.1775 125.83C88.4201 126.259 88.7468 126.595 89.1575 126.838C89.5681 127.071 90.0301 127.188 90.5435 127.188ZM96.4199 128V120.65H97.4139V126.488L102.328 120.65H103.21V128H102.216V122.148L97.3159 128H96.4199ZM99.7519 119.586C99.1359 119.586 98.6365 119.432 98.2539 119.124C97.8805 118.807 97.6845 118.354 97.6659 117.766H98.3799C98.3892 118.139 98.5199 118.433 98.7719 118.648C99.0239 118.863 99.3505 118.97 99.7519 118.97C100.153 118.97 100.48 118.863 100.732 118.648C100.993 118.433 101.129 118.139 101.138 117.766H101.852C101.843 118.354 101.647 118.807 101.264 119.124C100.881 119.432 100.377 119.586 99.7519 119.586ZM109.723 128V120.65H116.331V128H115.337V121.252L115.589 121.518H110.465L110.717 121.252V128H109.723ZM122.95 128.07C122.316 128.07 121.742 127.925 121.228 127.636C120.715 127.337 120.304 126.913 119.996 126.362C119.698 125.802 119.548 125.121 119.548 124.318C119.548 123.515 119.698 122.839 119.996 122.288C120.295 121.728 120.701 121.303 121.214 121.014C121.728 120.725 122.306 120.58 122.95 120.58C123.65 120.58 124.276 120.739 124.826 121.056C125.386 121.364 125.825 121.803 126.142 122.372C126.46 122.932 126.618 123.581 126.618 124.318C126.618 125.065 126.46 125.718 126.142 126.278C125.825 126.838 125.386 127.277 124.826 127.594C124.276 127.911 123.65 128.07 122.95 128.07ZM119.156 130.716V120.65H120.108V122.862L120.01 124.332L120.15 125.816V130.716H119.156ZM122.88 127.188C123.403 127.188 123.87 127.071 124.28 126.838C124.691 126.595 125.018 126.259 125.26 125.83C125.503 125.391 125.624 124.887 125.624 124.318C125.624 123.749 125.503 123.249 125.26 122.82C125.018 122.391 124.691 122.055 124.28 121.812C123.87 121.569 123.403 121.448 122.88 121.448C122.358 121.448 121.886 121.569 121.466 121.812C121.056 122.055 120.729 122.391 120.486 122.82C120.253 123.249 120.136 123.749 120.136 124.318C120.136 124.887 120.253 125.391 120.486 125.83C120.729 126.259 121.056 126.595 121.466 126.838C121.886 127.071 122.358 127.188 122.88 127.188ZM131.778 128.07C131.069 128.07 130.429 127.911 129.86 127.594C129.3 127.267 128.857 126.824 128.53 126.264C128.203 125.695 128.04 125.046 128.04 124.318C128.04 123.581 128.203 122.932 128.53 122.372C128.857 121.812 129.3 121.373 129.86 121.056C130.42 120.739 131.059 120.58 131.778 120.58C132.506 120.58 133.15 120.739 133.71 121.056C134.279 121.373 134.723 121.812 135.04 122.372C135.367 122.932 135.53 123.581 135.53 124.318C135.53 125.046 135.367 125.695 135.04 126.264C134.723 126.824 134.279 127.267 133.71 127.594C133.141 127.911 132.497 128.07 131.778 128.07ZM131.778 127.188C132.31 127.188 132.781 127.071 133.192 126.838C133.603 126.595 133.925 126.259 134.158 125.83C134.401 125.391 134.522 124.887 134.522 124.318C134.522 123.739 134.401 123.235 134.158 122.806C133.925 122.377 133.603 122.045 133.192 121.812C132.781 121.569 132.315 121.448 131.792 121.448C131.269 121.448 130.803 121.569 130.392 121.812C129.981 122.045 129.655 122.377 129.412 122.806C129.169 123.235 129.048 123.739 129.048 124.318C129.048 124.887 129.169 125.391 129.412 125.83C129.655 126.259 129.981 126.595 130.392 126.838C130.803 127.071 131.265 127.188 131.778 127.188ZM137.654 128V120.65H140.902C141.733 120.65 142.386 120.809 142.862 121.126C143.348 121.443 143.59 121.91 143.59 122.526C143.59 123.123 143.362 123.585 142.904 123.912C142.447 124.229 141.845 124.388 141.098 124.388L141.294 124.094C142.172 124.094 142.816 124.257 143.226 124.584C143.637 124.911 143.842 125.382 143.842 125.998C143.842 126.633 143.609 127.127 143.142 127.482C142.685 127.827 141.971 128 141 128H137.654ZM138.62 127.216H140.958C141.584 127.216 142.055 127.118 142.372 126.922C142.699 126.717 142.862 126.39 142.862 125.942C142.862 125.494 142.718 125.167 142.428 124.962C142.139 124.757 141.682 124.654 141.056 124.654H138.62V127.216ZM138.62 123.912H140.832C141.402 123.912 141.836 123.805 142.134 123.59C142.442 123.375 142.596 123.063 142.596 122.652C142.596 122.241 142.442 121.933 142.134 121.728C141.836 121.523 141.402 121.42 140.832 121.42H138.62V123.912ZM149.322 128.07C148.556 128.07 147.884 127.911 147.306 127.594C146.727 127.267 146.274 126.824 145.948 126.264C145.621 125.695 145.458 125.046 145.458 124.318C145.458 123.59 145.612 122.946 145.92 122.386C146.237 121.826 146.666 121.387 147.208 121.07C147.758 120.743 148.374 120.58 149.056 120.58C149.746 120.58 150.358 120.739 150.89 121.056C151.431 121.364 151.856 121.803 152.164 122.372C152.472 122.932 152.626 123.581 152.626 124.318C152.626 124.365 152.621 124.416 152.612 124.472C152.612 124.519 152.612 124.57 152.612 124.626H146.214V123.884H152.08L151.688 124.178C151.688 123.646 151.571 123.175 151.338 122.764C151.114 122.344 150.806 122.017 150.414 121.784C150.022 121.551 149.569 121.434 149.056 121.434C148.552 121.434 148.099 121.551 147.698 121.784C147.296 122.017 146.984 122.344 146.76 122.764C146.536 123.184 146.424 123.665 146.424 124.206V124.36C146.424 124.92 146.545 125.415 146.788 125.844C147.04 126.264 147.385 126.595 147.824 126.838C148.272 127.071 148.78 127.188 149.35 127.188C149.798 127.188 150.213 127.109 150.596 126.95C150.988 126.791 151.324 126.549 151.604 126.222L152.164 126.866C151.837 127.258 151.426 127.557 150.932 127.762C150.446 127.967 149.91 128.07 149.322 128.07ZM158.62 128.07C157.985 128.07 157.411 127.925 156.898 127.636C156.385 127.337 155.974 126.913 155.666 126.362C155.367 125.802 155.218 125.121 155.218 124.318C155.218 123.515 155.367 122.839 155.666 122.288C155.965 121.728 156.371 121.303 156.884 121.014C157.397 120.725 157.976 120.58 158.62 120.58C159.32 120.58 159.945 120.739 160.496 121.056C161.056 121.364 161.495 121.803 161.812 122.372C162.129 122.932 162.288 123.581 162.288 124.318C162.288 125.065 162.129 125.718 161.812 126.278C161.495 126.838 161.056 127.277 160.496 127.594C159.945 127.911 159.32 128.07 158.62 128.07ZM154.826 130.716V120.65H155.778V122.862L155.68 124.332L155.82 125.816V130.716H154.826ZM158.55 127.188C159.073 127.188 159.539 127.071 159.95 126.838C160.361 126.595 160.687 126.259 160.93 125.83C161.173 125.391 161.294 124.887 161.294 124.318C161.294 123.749 161.173 123.249 160.93 122.82C160.687 122.391 160.361 122.055 159.95 121.812C159.539 121.569 159.073 121.448 158.55 121.448C158.027 121.448 157.556 121.569 157.136 121.812C156.725 122.055 156.399 122.391 156.156 122.82C155.923 123.249 155.806 123.749 155.806 124.318C155.806 124.887 155.923 125.391 156.156 125.83C156.399 126.259 156.725 126.595 157.136 126.838C157.556 127.071 158.027 127.188 158.55 127.188ZM169.814 128L166.79 124.36L167.616 123.87L170.99 128H169.814ZM164.424 128V120.65H165.418V128H164.424ZM165.11 124.724V123.87H167.476V124.724H165.11ZM167.7 124.43L166.776 124.29L169.702 120.65H170.78L167.7 124.43ZM172.559 128V120.65H173.553V126.488L178.467 120.65H179.349V128H178.355V122.148L173.455 128H172.559Z" fill="#141414"/>
</svg>
