<svg width="856" height="112" viewBox="0 0 856 112" fill="none" xmlns="http://www.w3.org/2000/svg">
<path d="M3.48 38V10H8.84L20.76 29.76H17.92L29.64 10H35L35.04 38H28.96L28.92 19.32H30.08L20.68 35.04H17.8L8.2 19.32H9.56V38H3.48ZM63.6756 38V16.48H69.8756V38H63.6756ZM52.8356 23.36C55.6623 23.3867 57.7823 24.0267 59.1956 25.28C60.6356 26.5067 61.3556 28.2533 61.3556 30.52C61.3556 32.8933 60.5423 34.7467 58.9156 36.08C57.289 37.3867 54.9823 38.04 51.9956 38.04L41.5156 38V16.48H47.7156V23.36H52.8356ZM51.4356 33.6C52.6356 33.6267 53.5556 33.3733 54.1956 32.84C54.8356 32.3067 55.1556 31.5067 55.1556 30.44C55.1556 29.3733 54.8356 28.6133 54.1956 28.16C53.5556 27.68 52.6356 27.4267 51.4356 27.4L47.7156 27.36V33.6H51.4356ZM84.2188 28.68V24.8H124.219V28.68H84.2188ZM138.547 38V16.48H159.947V38H153.707V20.2L155.107 21.6H143.347L144.747 20.2V38H138.547ZM178.61 38.32C176.796 38.32 175.21 37.92 173.85 37.12C172.49 36.32 171.423 35.1067 170.65 33.48C169.903 31.8267 169.53 29.7467 169.53 27.24C169.53 24.7067 169.89 22.6267 170.61 21C171.33 19.3733 172.37 18.16 173.73 17.36C175.09 16.56 176.716 16.16 178.61 16.16C180.636 16.16 182.45 16.6267 184.05 17.56C185.676 18.4667 186.956 19.7467 187.89 21.4C188.85 23.0533 189.33 25 189.33 27.24C189.33 29.5067 188.85 31.4667 187.89 33.12C186.956 34.7733 185.676 36.0533 184.05 36.96C182.45 37.8667 180.636 38.32 178.61 38.32ZM165.89 45.76V16.48H171.85V20.88L171.73 27.28L172.13 33.64V45.76H165.89ZM177.53 33.2C178.57 33.2 179.49 32.96 180.29 32.48C181.116 32 181.77 31.32 182.25 30.44C182.756 29.5333 183.01 28.4667 183.01 27.24C183.01 25.9867 182.756 24.92 182.25 24.04C181.77 23.16 181.116 22.48 180.29 22C179.49 21.52 178.57 21.28 177.53 21.28C176.49 21.28 175.556 21.52 174.73 22C173.903 22.48 173.25 23.16 172.77 24.04C172.29 24.92 172.05 25.9867 172.05 27.24C172.05 28.4667 172.29 29.5333 172.77 30.44C173.25 31.32 173.903 32 174.73 32.48C175.556 32.96 176.49 33.2 177.53 33.2ZM203.783 38.32C201.49 38.32 199.45 37.84 197.663 36.88C195.903 35.92 194.503 34.6133 193.463 32.96C192.45 31.28 191.943 29.3733 191.943 27.24C191.943 25.08 192.45 23.1733 193.463 21.52C194.503 19.84 195.903 18.5333 197.663 17.6C199.45 16.64 201.49 16.16 203.783 16.16C206.05 16.16 208.076 16.64 209.863 17.6C211.65 18.5333 213.05 19.8267 214.063 21.48C215.076 23.1333 215.583 25.0533 215.583 27.24C215.583 29.3733 215.076 31.28 214.063 32.96C213.05 34.6133 211.65 35.92 209.863 36.88C208.076 37.84 206.05 38.32 203.783 38.32ZM203.783 33.2C204.823 33.2 205.756 32.96 206.583 32.48C207.41 32 208.063 31.32 208.543 30.44C209.023 29.5333 209.263 28.4667 209.263 27.24C209.263 25.9867 209.023 24.92 208.543 24.04C208.063 23.16 207.41 22.48 206.583 22C205.756 21.52 204.823 21.28 203.783 21.28C202.743 21.28 201.81 21.52 200.983 22C200.156 22.48 199.49 23.16 198.983 24.04C198.503 24.92 198.263 25.9867 198.263 27.24C198.263 28.4667 198.503 29.5333 198.983 30.44C199.49 31.32 200.156 32 200.983 32.48C201.81 32.96 202.743 33.2 203.783 33.2ZM219.875 38V16.48H226.075V29.28L236.555 16.48H242.275V38H236.075V25.2L225.635 38H219.875ZM255.358 38.4C253.705 38.4 252.051 38.2267 250.398 37.88C248.771 37.5333 247.265 37.0133 245.878 36.32L247.558 31.96C248.651 32.4933 249.838 32.9067 251.118 33.2C252.425 33.4667 253.745 33.6 255.078 33.6C256.038 33.6 256.865 33.5067 257.558 33.32C258.278 33.1067 258.825 32.8133 259.198 32.44C259.571 32.0667 259.758 31.6133 259.758 31.08C259.758 30.3867 259.465 29.8667 258.878 29.52C258.291 29.1467 257.438 28.96 256.318 28.96H251.918V25.08H255.798C256.518 25.08 257.131 25 257.638 24.84C258.145 24.68 258.518 24.4533 258.758 24.16C259.025 23.84 259.158 23.4667 259.158 23.04C259.158 22.5867 258.998 22.2 258.678 21.88C258.358 21.56 257.891 21.32 257.278 21.16C256.665 20.9733 255.891 20.88 254.958 20.88C253.891 20.88 252.785 21.0133 251.638 21.28C250.491 21.52 249.318 21.88 248.118 22.36L246.598 18.04C248.011 17.4533 249.411 16.9867 250.798 16.64C252.185 16.2933 253.558 16.1067 254.918 16.08C256.918 16.0267 258.718 16.24 260.318 16.72C261.918 17.2 263.171 17.8933 264.078 18.8C265.011 19.7067 265.478 20.8133 265.478 22.12C265.478 23.16 265.158 24.0933 264.518 24.92C263.905 25.7467 263.051 26.4 261.958 26.88C260.865 27.3333 259.638 27.56 258.278 27.56L258.438 26.32C260.811 26.32 262.678 26.8 264.038 27.76C265.398 28.6933 266.078 29.9733 266.078 31.6C266.078 32.9867 265.598 34.2 264.638 35.24C263.705 36.2533 262.425 37.04 260.798 37.6C259.198 38.1333 257.385 38.4 255.358 38.4ZM270.539 38V16.48H281.539C284.232 16.48 286.339 16.9733 287.859 17.96C289.379 18.92 290.139 20.28 290.139 22.04C290.139 23.8 289.419 25.1867 287.979 26.2C286.566 27.1867 284.686 27.68 282.339 27.68L282.979 26.24C285.592 26.24 287.539 26.72 288.819 27.68C290.126 28.64 290.779 30.04 290.779 31.88C290.779 33.7733 290.059 35.2667 288.619 36.36C287.179 37.4533 284.979 38 282.019 38H270.539ZM276.259 33.76H281.499C282.646 33.76 283.499 33.5733 284.059 33.2C284.646 32.8 284.939 32.2 284.939 31.4C284.939 30.5733 284.672 29.9733 284.139 29.6C283.606 29.2 282.766 29 281.619 29H276.259V33.76ZM276.259 25.32H280.979C282.072 25.32 282.886 25.12 283.419 24.72C283.979 24.32 284.259 23.7467 284.259 23C284.259 22.2267 283.979 21.6533 283.419 21.28C282.886 20.9067 282.072 20.72 280.979 20.72H276.259V25.32ZM305.502 38.32C303.209 38.32 301.169 37.84 299.382 36.88C297.622 35.92 296.222 34.6133 295.182 32.96C294.169 31.28 293.662 29.3733 293.662 27.24C293.662 25.08 294.169 23.1733 295.182 21.52C296.222 19.84 297.622 18.5333 299.382 17.6C301.169 16.64 303.209 16.16 305.502 16.16C307.769 16.16 309.795 16.64 311.582 17.6C313.369 18.5333 314.769 19.8267 315.782 21.48C316.795 23.1333 317.302 25.0533 317.302 27.24C317.302 29.3733 316.795 31.28 315.782 32.96C314.769 34.6133 313.369 35.92 311.582 36.88C309.795 37.84 307.769 38.32 305.502 38.32ZM305.502 33.2C306.542 33.2 307.475 32.96 308.302 32.48C309.129 32 309.782 31.32 310.262 30.44C310.742 29.5333 310.982 28.4667 310.982 27.24C310.982 25.9867 310.742 24.92 310.262 24.04C309.782 23.16 309.129 22.48 308.302 22C307.475 21.52 306.542 21.28 305.502 21.28C304.462 21.28 303.529 21.52 302.702 22C301.875 22.48 301.209 23.16 300.702 24.04C300.222 24.92 299.982 25.9867 299.982 27.24C299.982 28.4667 300.222 29.5333 300.702 30.44C301.209 31.32 301.875 32 302.702 32.48C303.529 32.96 304.462 33.2 305.502 33.2ZM336.081 35.2V21.6H329.041L328.921 24.36C328.868 25.5067 328.801 26.6 328.721 27.64C328.641 28.68 328.481 29.6267 328.241 30.48C328.028 31.3067 327.708 32.0133 327.281 32.6C326.855 33.16 326.281 33.5467 325.561 33.76L319.401 32.88C320.175 32.88 320.801 32.6533 321.281 32.2C321.761 31.72 322.135 31.0667 322.401 30.24C322.668 29.3867 322.868 28.4267 323.001 27.36C323.135 26.2667 323.228 25.12 323.281 23.92L323.561 16.48H342.321V35.2H336.081ZM318.681 42.64V32.88H345.401V42.64H339.601V38H324.481V42.64H318.681ZM349.328 38V16.48H355.528V29.28L366.008 16.48H371.728V38H365.528V25.2L355.088 38H349.328ZM382.327 38V20.16L383.727 21.6H375.047V16.48H395.807V21.6H387.127L388.527 20.16V38H382.327ZM408.754 38.32C406.301 38.32 404.141 37.84 402.274 36.88C400.434 35.92 399.008 34.6133 397.994 32.96C396.981 31.28 396.474 29.3733 396.474 27.24C396.474 25.08 396.968 23.1733 397.954 21.52C398.968 19.84 400.341 18.5333 402.074 17.6C403.808 16.64 405.768 16.16 407.954 16.16C410.061 16.16 411.954 16.6133 413.634 17.52C415.341 18.4 416.688 19.68 417.674 21.36C418.661 23.0133 419.154 25 419.154 27.32C419.154 27.56 419.141 27.84 419.114 28.16C419.088 28.4533 419.061 28.7333 419.034 29H401.554V25.36H415.754L413.354 26.44C413.354 25.32 413.128 24.3467 412.674 23.52C412.221 22.6933 411.594 22.0533 410.794 21.6C409.994 21.12 409.061 20.88 407.994 20.88C406.928 20.88 405.981 21.12 405.154 21.6C404.354 22.0533 403.728 22.7067 403.274 23.56C402.821 24.3867 402.594 25.3733 402.594 26.52V27.48C402.594 28.6533 402.848 29.6933 403.354 30.6C403.888 31.48 404.621 32.16 405.554 32.64C406.514 33.0933 407.634 33.32 408.914 33.32C410.061 33.32 411.061 33.1467 411.914 32.8C412.794 32.4533 413.594 31.9333 414.314 31.24L417.634 34.84C416.648 35.96 415.408 36.8267 413.914 37.44C412.421 38.0267 410.701 38.32 408.754 38.32ZM421.022 37.96L421.342 32.84C421.502 32.8667 421.662 32.8933 421.822 32.92C421.982 32.92 422.129 32.92 422.262 32.92C423.009 32.92 423.596 32.7067 424.022 32.28C424.449 31.8533 424.769 31.28 424.982 30.56C425.196 29.8133 425.342 28.9733 425.422 28.04C425.529 27.1067 425.609 26.1333 425.662 25.12L425.982 16.48H444.382V38H438.142V20.08L439.542 21.6H430.102L431.422 20L431.142 25.4C431.062 27.32 430.902 29.08 430.662 30.68C430.449 32.28 430.089 33.6667 429.582 34.84C429.076 35.9867 428.396 36.88 427.542 37.52C426.689 38.1333 425.596 38.44 424.262 38.44C423.782 38.44 423.276 38.4 422.742 38.32C422.209 38.24 421.636 38.12 421.022 37.96ZM462.023 23.36C464.849 23.3867 466.996 24.0267 468.463 25.28C469.956 26.5067 470.703 28.2533 470.703 30.52C470.703 32.8933 469.863 34.7467 468.183 36.08C466.503 37.3867 464.169 38.04 461.183 38.04L450.383 38V16.48H456.583V23.36H462.023ZM460.623 33.6C461.823 33.6267 462.743 33.3733 463.383 32.84C464.023 32.3067 464.343 31.5067 464.343 30.44C464.343 29.3733 464.023 28.6133 463.383 28.16C462.743 27.68 461.823 27.4267 460.623 27.4L456.583 27.36V33.6H460.623ZM473.284 44.16L475.924 34.56L476.804 38.16C475.658 38.16 474.711 37.8267 473.964 37.16C473.244 36.4933 472.884 35.5733 472.884 34.4C472.884 33.2267 473.258 32.2933 474.004 31.6C474.751 30.9067 475.671 30.56 476.764 30.56C477.884 30.56 478.804 30.92 479.524 31.64C480.244 32.3333 480.604 33.2533 480.604 34.4C480.604 34.7467 480.578 35.0933 480.524 35.44C480.471 35.76 480.364 36.16 480.204 36.64C480.071 37.0933 479.844 37.68 479.524 38.4L477.244 44.16H473.284ZM509.161 38V33.8L508.761 32.88V25.36C508.761 24.0267 508.348 22.9867 507.521 22.24C506.721 21.4933 505.481 21.12 503.801 21.12C502.655 21.12 501.521 21.3067 500.401 21.68C499.308 22.0267 498.375 22.5067 497.601 23.12L495.361 18.76C496.535 17.9333 497.948 17.2933 499.601 16.84C501.255 16.3867 502.935 16.16 504.641 16.16C507.921 16.16 510.468 16.9333 512.281 18.48C514.095 20.0267 515.001 22.44 515.001 25.72V38H509.161ZM502.601 38.32C500.921 38.32 499.481 38.04 498.281 37.48C497.081 36.8933 496.161 36.1067 495.521 35.12C494.881 34.1333 494.561 33.0267 494.561 31.8C494.561 30.52 494.868 29.4 495.481 28.44C496.121 27.48 497.121 26.7333 498.481 26.2C499.841 25.64 501.615 25.36 503.801 25.36H509.521V29H504.481C503.015 29 502.001 29.24 501.441 29.72C500.908 30.2 500.641 30.8 500.641 31.52C500.641 32.32 500.948 32.96 501.561 33.44C502.201 33.8933 503.068 34.12 504.161 34.12C505.201 34.12 506.135 33.88 506.961 33.4C507.788 32.8933 508.388 32.16 508.761 31.2L509.721 34.08C509.268 35.4667 508.441 36.52 507.241 37.24C506.041 37.96 504.495 38.32 502.601 38.32ZM531.75 38V16.48H537.95V24.88H547.31V16.48H553.55V38H547.31V29.96H537.95V38H531.75ZM570.043 38.32C567.59 38.32 565.43 37.84 563.563 36.88C561.723 35.92 560.297 34.6133 559.283 32.96C558.27 31.28 557.763 29.3733 557.763 27.24C557.763 25.08 558.257 23.1733 559.243 21.52C560.257 19.84 561.63 18.5333 563.363 17.6C565.097 16.64 567.057 16.16 569.243 16.16C571.35 16.16 573.243 16.6133 574.923 17.52C576.63 18.4 577.977 19.68 578.963 21.36C579.95 23.0133 580.443 25 580.443 27.32C580.443 27.56 580.43 27.84 580.403 28.16C580.377 28.4533 580.35 28.7333 580.323 29H562.843V25.36H577.043L574.643 26.44C574.643 25.32 574.417 24.3467 573.963 23.52C573.51 22.6933 572.883 22.0533 572.083 21.6C571.283 21.12 570.35 20.88 569.283 20.88C568.217 20.88 567.27 21.12 566.443 21.6C565.643 22.0533 565.017 22.7067 564.563 23.56C564.11 24.3867 563.883 25.3733 563.883 26.52V27.48C563.883 28.6533 564.137 29.6933 564.643 30.6C565.177 31.48 565.91 32.16 566.843 32.64C567.803 33.0933 568.923 33.32 570.203 33.32C571.35 33.32 572.35 33.1467 573.203 32.8C574.083 32.4533 574.883 31.9333 575.603 31.24L578.923 34.84C577.937 35.96 576.697 36.8267 575.203 37.44C573.71 38.0267 571.99 38.32 570.043 38.32ZM596.555 38V16.48H617.955V38H611.715V20.2L613.115 21.6H601.355L602.755 20.2V38H596.555ZM634.018 38.32C631.724 38.32 629.684 37.84 627.898 36.88C626.138 35.92 624.738 34.6133 623.698 32.96C622.684 31.28 622.178 29.3733 622.178 27.24C622.178 25.08 622.684 23.1733 623.698 21.52C624.738 19.84 626.138 18.5333 627.898 17.6C629.684 16.64 631.724 16.16 634.018 16.16C636.284 16.16 638.311 16.64 640.098 17.6C641.884 18.5333 643.284 19.8267 644.298 21.48C645.311 23.1333 645.818 25.0533 645.818 27.24C645.818 29.3733 645.311 31.28 644.298 32.96C643.284 34.6133 641.884 35.92 640.098 36.88C638.311 37.84 636.284 38.32 634.018 38.32ZM634.018 33.2C635.058 33.2 635.991 32.96 636.818 32.48C637.644 32 638.298 31.32 638.778 30.44C639.258 29.5333 639.498 28.4667 639.498 27.24C639.498 25.9867 639.258 24.92 638.778 24.04C638.298 23.16 637.644 22.48 636.818 22C635.991 21.52 635.058 21.28 634.018 21.28C632.978 21.28 632.044 21.52 631.217 22C630.391 22.48 629.724 23.16 629.218 24.04C628.738 24.92 628.498 25.9867 628.498 27.24C628.498 28.4667 628.738 29.5333 629.218 30.44C629.724 31.32 630.391 32 631.217 32.48C632.044 32.96 632.978 33.2 634.018 33.2ZM660.349 38.32C658.029 38.32 655.963 37.8533 654.149 36.92C652.336 35.96 650.909 34.64 649.869 32.96C648.856 31.28 648.349 29.3733 648.349 27.24C648.349 25.08 648.856 23.1733 649.869 21.52C650.909 19.84 652.336 18.5333 654.149 17.6C655.963 16.64 658.029 16.16 660.349 16.16C662.616 16.16 664.589 16.64 666.269 17.6C667.949 18.5333 669.189 19.88 669.989 21.64L665.149 24.24C664.589 23.2267 663.883 22.48 663.029 22C662.203 21.52 661.296 21.28 660.309 21.28C659.243 21.28 658.283 21.52 657.429 22C656.576 22.48 655.896 23.16 655.389 24.04C654.909 24.92 654.669 25.9867 654.669 27.24C654.669 28.4933 654.909 29.56 655.389 30.44C655.896 31.32 656.576 32 657.429 32.48C658.283 32.96 659.243 33.2 660.309 33.2C661.296 33.2 662.203 32.9733 663.029 32.52C663.883 32.04 664.589 31.28 665.149 30.24L669.989 32.88C669.189 34.6133 667.949 35.96 666.269 36.92C664.589 37.8533 662.616 38.32 660.349 38.32ZM686.461 38.32C684.648 38.32 683.061 37.92 681.701 37.12C680.341 36.32 679.275 35.1067 678.501 33.48C677.755 31.8267 677.381 29.7467 677.381 27.24C677.381 24.7067 677.741 22.6267 678.461 21C679.181 19.3733 680.221 18.16 681.581 17.36C682.941 16.56 684.568 16.16 686.461 16.16C688.488 16.16 690.301 16.6267 691.901 17.56C693.528 18.4667 694.808 19.7467 695.741 21.4C696.701 23.0533 697.181 25 697.181 27.24C697.181 29.5067 696.701 31.4667 695.741 33.12C694.808 34.7733 693.528 36.0533 691.901 36.96C690.301 37.8667 688.488 38.32 686.461 38.32ZM673.741 45.76V16.48H679.701V20.88L679.581 27.28L679.981 33.64V45.76H673.741ZM685.381 33.2C686.421 33.2 687.341 32.96 688.141 32.48C688.968 32 689.621 31.32 690.101 30.44C690.608 29.5333 690.861 28.4667 690.861 27.24C690.861 25.9867 690.608 24.92 690.101 24.04C689.621 23.16 688.968 22.48 688.141 22C687.341 21.52 686.421 21.28 685.381 21.28C684.341 21.28 683.408 21.52 682.581 22C681.755 22.48 681.101 23.16 680.621 24.04C680.141 24.92 679.901 25.9867 679.901 27.24C679.901 28.4667 680.141 29.5333 680.621 30.44C681.101 31.32 681.755 32 682.581 32.48C683.408 32.96 684.341 33.2 685.381 33.2ZM712.075 38.32C709.621 38.32 707.461 37.84 705.595 36.88C703.755 35.92 702.328 34.6133 701.315 32.96C700.301 31.28 699.795 29.3733 699.795 27.24C699.795 25.08 700.288 23.1733 701.275 21.52C702.288 19.84 703.661 18.5333 705.395 17.6C707.128 16.64 709.088 16.16 711.275 16.16C713.381 16.16 715.275 16.6133 716.955 17.52C718.661 18.4 720.008 19.68 720.995 21.36C721.981 23.0133 722.475 25 722.475 27.32C722.475 27.56 722.461 27.84 722.435 28.16C722.408 28.4533 722.381 28.7333 722.355 29H704.875V25.36H719.075L716.675 26.44C716.675 25.32 716.448 24.3467 715.995 23.52C715.541 22.6933 714.915 22.0533 714.115 21.6C713.315 21.12 712.381 20.88 711.315 20.88C710.248 20.88 709.301 21.12 708.475 21.6C707.675 22.0533 707.048 22.7067 706.595 23.56C706.141 24.3867 705.915 25.3733 705.915 26.52V27.48C705.915 28.6533 706.168 29.6933 706.675 30.6C707.208 31.48 707.941 32.16 708.875 32.64C709.835 33.0933 710.955 33.32 712.235 33.32C713.381 33.32 714.381 33.1467 715.235 32.8C716.115 32.4533 716.915 31.9333 717.635 31.24L720.955 34.84C719.968 35.96 718.728 36.8267 717.235 37.44C715.741 38.0267 714.021 38.32 712.075 38.32ZM741.863 35.2V21.6H734.823L734.703 24.36C734.649 25.5067 734.583 26.6 734.503 27.64C734.423 28.68 734.263 29.6267 734.023 30.48C733.809 31.3067 733.489 32.0133 733.063 32.6C732.636 33.16 732.063 33.5467 731.343 33.76L725.183 32.88C725.956 32.88 726.583 32.6533 727.063 32.2C727.543 31.72 727.916 31.0667 728.183 30.24C728.449 29.3867 728.649 28.4267 728.783 27.36C728.916 26.2667 729.009 25.12 729.062 23.92L729.342 16.48H748.103V35.2H741.863ZM724.463 42.64V32.88H751.183V42.64H745.383V38H730.263V42.64H724.463ZM755.109 38V16.48H761.309V24.88H770.669V16.48H776.909V38H770.669V29.96H761.309V38H755.109ZM782.883 38V16.48H789.083V29.28L799.563 16.48H805.283V38H799.083V25.2L788.643 38H782.883ZM826.521 38L819.321 27.8L824.401 24.8L833.881 38H826.521ZM811.281 38V16.48H817.521V38H811.281ZM815.681 29.84V24.84H823.201V29.84H815.681ZM825.001 27.96L819.161 27.32L826.721 16.48H833.361L825.001 27.96Z" fill="#141414"/>
<path d="M9.552 82L5.248 76.416L6.208 75.84L10.912 82H9.552ZM1.888 82V70.8H3.04V82H1.888ZM2.688 76.864V75.824H6.192V76.864H2.688ZM6.304 76.528L5.216 76.336L9.392 70.8H10.672L6.304 76.528ZM17.8164 82V80.144L17.7684 79.84V76.736C17.7684 76.0213 17.5657 75.472 17.1604 75.088C16.7657 74.704 16.1737 74.512 15.3844 74.512C14.8404 74.512 14.323 74.6027 13.8324 74.784C13.3417 74.9653 12.9257 75.2053 12.5844 75.504L12.0724 74.656C12.499 74.2933 13.011 74.016 13.6084 73.824C14.2057 73.6213 14.835 73.52 15.4964 73.52C16.5844 73.52 17.4217 73.792 18.0084 74.336C18.6057 74.8693 18.9044 75.6853 18.9044 76.784V82H17.8164ZM14.9204 82.08C14.291 82.08 13.7417 81.9787 13.2724 81.776C12.8137 81.5627 12.4617 81.2747 12.2164 80.912C11.971 80.5387 11.8484 80.112 11.8484 79.632C11.8484 79.1947 11.9497 78.8 12.1524 78.448C12.3657 78.0853 12.707 77.7973 13.1764 77.584C13.6564 77.36 14.2964 77.248 15.0964 77.248H17.9924V78.096H15.1284C14.3177 78.096 13.7524 78.24 13.4324 78.528C13.123 78.816 12.9684 79.1733 12.9684 79.6C12.9684 80.08 13.155 80.464 13.5284 80.752C13.9017 81.04 14.4244 81.184 15.0964 81.184C15.7364 81.184 16.2857 81.04 16.7444 80.752C17.2137 80.4533 17.555 80.0267 17.7684 79.472L18.0244 80.256C17.811 80.8107 17.4377 81.2533 16.9044 81.584C16.3817 81.9147 15.7204 82.08 14.9204 82.08ZM31.8965 82L29.0165 77.84L29.9605 77.28L33.2565 82H31.8965ZM27.1285 78.256V77.28H29.7845V78.256H27.1285ZM30.0725 77.92L28.9845 77.76L31.7845 73.6H33.0165L30.0725 77.92ZM21.9445 82H20.5845L23.8805 77.28L24.8085 77.84L21.9445 82ZM27.4805 82H26.3445V73.6H27.4805V82ZM26.6965 78.256H24.0565V77.28H26.6965V78.256ZM23.7845 77.92L20.8245 73.6H22.0565L24.8405 77.76L23.7845 77.92ZM40.9073 81.456V74.592H36.8593L36.7633 76.464C36.7419 77.0293 36.7046 77.584 36.6513 78.128C36.6086 78.672 36.5286 79.1733 36.4113 79.632C36.3046 80.08 36.1499 80.448 35.9473 80.736C35.7446 81.0133 35.4833 81.1733 35.1633 81.216L34.0273 81.008C34.3579 81.0187 34.6299 80.9013 34.8433 80.656C35.0566 80.4 35.2219 80.0533 35.3393 79.616C35.4566 79.1787 35.5419 78.6827 35.5953 78.128C35.6486 77.5627 35.6913 76.9867 35.7233 76.4L35.8353 73.6H42.0433V81.456H40.9073ZM33.6753 84.032V81.008H43.3553V84.032H42.2833V82H34.7473V84.032H33.6753ZM53.7611 82V73.6H54.8971V82H53.7611ZM49.1051 76.56C50.1611 76.5707 50.9665 76.8053 51.5211 77.264C52.0758 77.7227 52.3531 78.384 52.3531 79.248C52.3531 80.144 52.0545 80.832 51.4571 81.312C50.8598 81.792 50.0065 82.0267 48.8971 82.016L45.5691 82V73.6H46.7051V76.528L49.1051 76.56ZM48.8171 81.152C49.6065 81.1627 50.1985 81.008 50.5931 80.688C50.9985 80.3573 51.2011 79.8773 51.2011 79.248C51.2011 78.6187 51.0038 78.16 50.6091 77.872C50.2145 77.5733 49.6171 77.4187 48.8171 77.408L46.7051 77.376V81.12L48.8171 81.152ZM58.1316 82V73.6H59.2676V80.272L64.8836 73.6H65.8916V82H64.7556V75.312L59.1556 82H58.1316ZM61.9396 72.384C61.2356 72.384 60.665 72.208 60.2276 71.856C59.801 71.4933 59.577 70.976 59.5556 70.304H60.3716C60.3823 70.7307 60.5316 71.0667 60.8196 71.312C61.1076 71.5573 61.481 71.68 61.9396 71.68C62.3983 71.68 62.7716 71.5573 63.0596 71.312C63.3583 71.0667 63.513 70.7307 63.5236 70.304H64.3396C64.329 70.976 64.105 71.4933 63.6676 71.856C63.2303 72.208 62.6543 72.384 61.9396 72.384ZM78.6468 78.448C78.1561 78.6613 77.6601 78.832 77.1588 78.96C76.6681 79.0773 76.1774 79.136 75.6868 79.136C74.6948 79.136 73.9108 78.912 73.3348 78.464C72.7588 78.0053 72.4708 77.3013 72.4708 76.352V73.6H73.5908V76.288C73.5908 76.928 73.7988 77.408 74.2148 77.728C74.6308 78.048 75.1908 78.208 75.8948 78.208C76.3214 78.208 76.7694 78.1547 77.2388 78.048C77.7081 77.9307 78.1828 77.7653 78.6628 77.552L78.6468 78.448ZM78.5508 82V73.6H79.6868V82H78.5508ZM86.5129 82.08C85.6382 82.08 84.8702 81.8987 84.2089 81.536C83.5475 81.1627 83.0302 80.656 82.6569 80.016C82.2835 79.3653 82.0969 78.624 82.0969 77.792C82.0969 76.96 82.2729 76.224 82.6249 75.584C82.9875 74.944 83.4782 74.4427 84.0969 74.08C84.7262 73.7067 85.4302 73.52 86.2089 73.52C86.9982 73.52 87.6969 73.7013 88.3049 74.064C88.9235 74.416 89.4089 74.9173 89.7609 75.568C90.1129 76.208 90.2889 76.9493 90.2889 77.792C90.2889 77.8453 90.2835 77.904 90.2729 77.968C90.2729 78.0213 90.2729 78.08 90.2729 78.144H82.9609V77.296H89.6649L89.2169 77.632C89.2169 77.024 89.0835 76.4853 88.8169 76.016C88.5609 75.536 88.2089 75.1627 87.7609 74.896C87.3129 74.6293 86.7955 74.496 86.2089 74.496C85.6329 74.496 85.1155 74.6293 84.6569 74.896C84.1982 75.1627 83.8409 75.536 83.5849 76.016C83.3289 76.496 83.2009 77.0453 83.2009 77.664V77.84C83.2009 78.48 83.3395 79.0453 83.6169 79.536C83.9049 80.016 84.2995 80.3947 84.8009 80.672C85.3129 80.9387 85.8942 81.072 86.5449 81.072C87.0569 81.072 87.5315 80.9813 87.9689 80.8C88.4169 80.6187 88.8009 80.3413 89.1209 79.968L89.7609 80.704C89.3875 81.152 88.9182 81.4933 88.3529 81.728C87.7982 81.9627 87.1849 82.08 86.5129 82.08ZM91.1931 82L94.7451 77.392L94.7291 77.952L91.3531 73.6H92.6331L95.4011 77.2L94.9211 77.184L97.6891 73.6H98.9371L95.5291 78L95.5451 77.392L99.1291 82H97.8331L94.9051 78.16L95.3531 78.224L92.4731 82H91.1931ZM104.15 82.08C103.339 82.08 102.609 81.8987 101.958 81.536C101.318 81.1627 100.811 80.656 100.438 80.016C100.065 79.3653 99.8781 78.624 99.8781 77.792C99.8781 76.9493 100.065 76.208 100.438 75.568C100.811 74.928 101.318 74.4267 101.958 74.064C102.598 73.7013 103.329 73.52 104.15 73.52C104.982 73.52 105.718 73.7013 106.358 74.064C107.009 74.4267 107.515 74.928 107.878 75.568C108.251 76.208 108.438 76.9493 108.438 77.792C108.438 78.624 108.251 79.3653 107.878 80.016C107.515 80.656 107.009 81.1627 106.358 81.536C105.707 81.8987 104.971 82.08 104.15 82.08ZM104.15 81.072C104.758 81.072 105.297 80.9387 105.766 80.672C106.235 80.3947 106.603 80.0107 106.87 79.52C107.147 79.0187 107.286 78.4427 107.286 77.792C107.286 77.1307 107.147 76.5547 106.87 76.064C106.603 75.5733 106.235 75.1947 105.766 74.928C105.297 74.6507 104.763 74.512 104.166 74.512C103.569 74.512 103.035 74.6507 102.566 74.928C102.097 75.1947 101.723 75.5733 101.446 76.064C101.169 76.5547 101.03 77.1307 101.03 77.792C101.03 78.4427 101.169 79.0187 101.446 79.52C101.723 80.0107 102.097 80.3947 102.566 80.672C103.035 80.9387 103.563 81.072 104.15 81.072ZM109.283 81.984L109.363 81.008C109.438 81.0187 109.507 81.0347 109.571 81.056C109.646 81.0667 109.71 81.072 109.763 81.072C110.104 81.072 110.376 80.944 110.579 80.688C110.792 80.432 110.952 80.0907 111.059 79.664C111.166 79.2373 111.24 78.7573 111.283 78.224C111.326 77.68 111.363 77.136 111.395 76.592L111.539 73.6H117.699V82H116.563V74.256L116.851 74.592H112.275L112.547 74.24L112.419 76.672C112.387 77.3973 112.328 78.0907 112.243 78.752C112.168 79.4133 112.046 79.9947 111.875 80.496C111.715 80.9973 111.491 81.392 111.203 81.68C110.915 81.9573 110.547 82.096 110.099 82.096C109.971 82.096 109.838 82.0853 109.699 82.064C109.571 82.0427 109.432 82.016 109.283 81.984ZM125.116 82V73.6H132.668V82H131.532V74.288L131.82 74.592H125.964L126.252 74.288V82H125.116ZM140.233 82.08C139.508 82.08 138.852 81.9147 138.265 81.584C137.679 81.2427 137.209 80.7573 136.857 80.128C136.516 79.488 136.345 78.7093 136.345 77.792C136.345 76.8747 136.516 76.1013 136.857 75.472C137.199 74.832 137.663 74.3467 138.249 74.016C138.836 73.6853 139.497 73.52 140.233 73.52C141.033 73.52 141.748 73.7013 142.377 74.064C143.017 74.416 143.519 74.9173 143.881 75.568C144.244 76.208 144.425 76.9493 144.425 77.792C144.425 78.6453 144.244 79.392 143.881 80.032C143.519 80.672 143.017 81.1733 142.377 81.536C141.748 81.8987 141.033 82.08 140.233 82.08ZM135.897 85.104V73.6H136.985V76.128L136.873 77.808L137.033 79.504V85.104H135.897ZM140.153 81.072C140.751 81.072 141.284 80.9387 141.753 80.672C142.223 80.3947 142.596 80.0107 142.873 79.52C143.151 79.0187 143.289 78.4427 143.289 77.792C143.289 77.1413 143.151 76.5707 142.873 76.08C142.596 75.5893 142.223 75.2053 141.753 74.928C141.284 74.6507 140.751 74.512 140.153 74.512C139.556 74.512 139.017 74.6507 138.537 74.928C138.068 75.2053 137.695 75.5893 137.417 76.08C137.151 76.5707 137.017 77.1413 137.017 77.792C137.017 78.4427 137.151 79.0187 137.417 79.52C137.695 80.0107 138.068 80.3947 138.537 80.672C139.017 80.9387 139.556 81.072 140.153 81.072ZM150.322 82.08C149.511 82.08 148.781 81.8987 148.13 81.536C147.49 81.1627 146.983 80.656 146.61 80.016C146.237 79.3653 146.05 78.624 146.05 77.792C146.05 76.9493 146.237 76.208 146.61 75.568C146.983 74.928 147.49 74.4267 148.13 74.064C148.77 73.7013 149.501 73.52 150.322 73.52C151.154 73.52 151.89 73.7013 152.53 74.064C153.181 74.4267 153.687 74.928 154.05 75.568C154.423 76.208 154.61 76.9493 154.61 77.792C154.61 78.624 154.423 79.3653 154.05 80.016C153.687 80.656 153.181 81.1627 152.53 81.536C151.879 81.8987 151.143 82.08 150.322 82.08ZM150.322 81.072C150.93 81.072 151.469 80.9387 151.938 80.672C152.407 80.3947 152.775 80.0107 153.042 79.52C153.319 79.0187 153.458 78.4427 153.458 77.792C153.458 77.1307 153.319 76.5547 153.042 76.064C152.775 75.5733 152.407 75.1947 151.938 74.928C151.469 74.6507 150.935 74.512 150.338 74.512C149.741 74.512 149.207 74.6507 148.738 74.928C148.269 75.1947 147.895 75.5733 147.618 76.064C147.341 76.5547 147.202 77.1307 147.202 77.792C147.202 78.4427 147.341 79.0187 147.618 79.52C147.895 80.0107 148.269 80.3947 148.738 80.672C149.207 80.9387 149.735 81.072 150.322 81.072ZM155.365 82L158.917 77.392L158.901 77.952L155.525 73.6H156.805L159.573 77.2L159.093 77.184L161.861 73.6H163.109L159.701 78L159.717 77.392L163.301 82H162.005L159.077 78.16L159.525 78.224L156.645 82H155.365ZM168.322 82.08C167.511 82.08 166.781 81.8987 166.13 81.536C165.49 81.1627 164.983 80.656 164.61 80.016C164.237 79.3653 164.05 78.624 164.05 77.792C164.05 76.9493 164.237 76.208 164.61 75.568C164.983 74.928 165.49 74.4267 166.13 74.064C166.77 73.7013 167.501 73.52 168.322 73.52C169.154 73.52 169.89 73.7013 170.53 74.064C171.181 74.4267 171.687 74.928 172.05 75.568C172.423 76.208 172.61 76.9493 172.61 77.792C172.61 78.624 172.423 79.3653 172.05 80.016C171.687 80.656 171.181 81.1627 170.53 81.536C169.879 81.8987 169.143 82.08 168.322 82.08ZM168.322 81.072C168.93 81.072 169.469 80.9387 169.938 80.672C170.407 80.3947 170.775 80.0107 171.042 79.52C171.319 79.0187 171.458 78.4427 171.458 77.792C171.458 77.1307 171.319 76.5547 171.042 76.064C170.775 75.5733 170.407 75.1947 169.938 74.928C169.469 74.6507 168.935 74.512 168.338 74.512C167.741 74.512 167.207 74.6507 166.738 74.928C166.269 75.1947 165.895 75.5733 165.618 76.064C165.341 76.5547 165.202 77.1307 165.202 77.792C165.202 78.4427 165.341 79.0187 165.618 79.52C165.895 80.0107 166.269 80.3947 166.738 80.672C167.207 80.9387 167.735 81.072 168.322 81.072ZM180.751 81.456V74.592H176.703L176.607 76.464C176.586 77.0293 176.548 77.584 176.495 78.128C176.452 78.672 176.372 79.1733 176.255 79.632C176.148 80.08 175.994 80.448 175.791 80.736C175.588 81.0133 175.327 81.1733 175.007 81.216L173.871 81.008C174.202 81.0187 174.474 80.9013 174.687 80.656C174.9 80.4 175.066 80.0533 175.183 79.616C175.3 79.1787 175.386 78.6827 175.439 78.128C175.492 77.5627 175.535 76.9867 175.567 76.4L175.679 73.6H181.887V81.456H180.751ZM173.519 84.032V81.008H183.199V84.032H182.127V82H174.591V84.032H173.519ZM185.413 82V73.6H186.549V80.272L192.165 73.6H193.173V82H192.037V75.312L186.437 82H185.413ZM198.029 82V74.288L198.317 74.592H194.845V73.6H202.349V74.592H198.877L199.165 74.288V82H198.029ZM208.179 82V73.6H215.731V82H214.595V74.288L214.883 74.592H209.027L209.315 74.288V82H208.179ZM222.416 82.08C221.605 82.08 220.874 81.8987 220.224 81.536C219.584 81.1627 219.077 80.656 218.704 80.016C218.33 79.3653 218.144 78.624 218.144 77.792C218.144 76.9493 218.33 76.208 218.704 75.568C219.077 74.928 219.584 74.4267 220.224 74.064C220.864 73.7013 221.594 73.52 222.416 73.52C223.248 73.52 223.984 73.7013 224.624 74.064C225.274 74.4267 225.781 74.928 226.144 75.568C226.517 76.208 226.704 76.9493 226.704 77.792C226.704 78.624 226.517 79.3653 226.144 80.016C225.781 80.656 225.274 81.1627 224.624 81.536C223.973 81.8987 223.237 82.08 222.416 82.08ZM222.416 81.072C223.024 81.072 223.562 80.9387 224.032 80.672C224.501 80.3947 224.869 80.0107 225.136 79.52C225.413 79.0187 225.552 78.4427 225.552 77.792C225.552 77.1307 225.413 76.5547 225.136 76.064C224.869 75.5733 224.501 75.1947 224.032 74.928C223.562 74.6507 223.029 74.512 222.432 74.512C221.834 74.512 221.301 74.6507 220.832 74.928C220.362 75.1947 219.989 75.5733 219.712 76.064C219.434 76.5547 219.296 77.1307 219.296 77.792C219.296 78.4427 219.434 79.0187 219.712 79.52C219.989 80.0107 220.362 80.3947 220.832 80.672C221.301 80.9387 221.829 81.072 222.416 81.072ZM227.549 81.984L227.629 81.008C227.703 81.0187 227.773 81.0347 227.837 81.056C227.911 81.0667 227.975 81.072 228.029 81.072C228.37 81.072 228.642 80.944 228.845 80.688C229.058 80.432 229.218 80.0907 229.325 79.664C229.431 79.2373 229.506 78.7573 229.549 78.224C229.591 77.68 229.629 77.136 229.661 76.592L229.805 73.6H235.965V82H234.829V74.256L235.117 74.592H230.541L230.813 74.24L230.685 76.672C230.653 77.3973 230.594 78.0907 230.509 78.752C230.434 79.4133 230.311 79.9947 230.141 80.496C229.981 80.9973 229.757 81.392 229.469 81.68C229.181 81.9573 228.813 82.096 228.365 82.096C228.237 82.096 228.103 82.0853 227.965 82.064C227.837 82.0427 227.698 82.016 227.549 81.984ZM239.194 82V73.6H240.33V77.312H245.626V73.6H246.762V82H245.626V78.288H240.33V82H239.194ZM258.183 82V73.6H259.319V82H258.183ZM253.527 76.56C254.583 76.5707 255.388 76.8053 255.943 77.264C256.498 77.7227 256.775 78.384 256.775 79.248C256.775 80.144 256.476 80.832 255.879 81.312C255.282 81.792 254.428 82.0267 253.319 82.016L249.991 82V73.6H251.127V76.528L253.527 76.56ZM253.239 81.152C254.028 81.1627 254.62 81.008 255.015 80.688C255.42 80.3573 255.623 79.8773 255.623 79.248C255.623 78.6187 255.426 78.16 255.031 77.872C254.636 77.5733 254.039 77.4187 253.239 77.408L251.127 77.376V81.12L253.239 81.152ZM262.554 82V73.6H263.69V80.272L269.306 73.6H270.314V82H269.178V75.312L263.578 82H262.554ZM266.362 72.384C265.658 72.384 265.087 72.208 264.65 71.856C264.223 71.4933 263.999 70.976 263.978 70.304H264.794C264.804 70.7307 264.954 71.0667 265.242 71.312C265.53 71.5573 265.903 71.68 266.362 71.68C266.82 71.68 267.194 71.5573 267.482 71.312C267.78 71.0667 267.935 70.7307 267.946 70.304H268.762C268.751 70.976 268.527 71.4933 268.09 71.856C267.652 72.208 267.076 72.384 266.362 72.384ZM277.757 82V73.6H278.893V81.008H284.029V73.6H285.165V82H277.757ZM285.453 84.032V81.904L285.741 82H284.029V81.008H286.525V84.032H285.453ZM288.694 82V73.6H289.83V80.272L295.446 73.6H296.454V82H295.318V75.312L289.718 82H288.694ZM305.87 82L302.414 77.84L303.358 77.28L307.214 82H305.87ZM299.71 82V73.6H300.846V82H299.71ZM300.494 78.256V77.28H303.198V78.256H300.494ZM303.454 77.92L302.398 77.76L305.742 73.6H306.974L303.454 77.92ZM307.471 81.984L307.551 81.008C307.625 81.0187 307.695 81.0347 307.759 81.056C307.833 81.0667 307.897 81.072 307.951 81.072C308.292 81.072 308.564 80.944 308.767 80.688C308.98 80.432 309.14 80.0907 309.247 79.664C309.353 79.2373 309.428 78.7573 309.471 78.224C309.513 77.68 309.551 77.136 309.583 76.592L309.727 73.6H315.887V82H314.751V74.256L315.039 74.592H310.463L310.735 74.24L310.607 76.672C310.575 77.3973 310.516 78.0907 310.431 78.752C310.356 79.4133 310.233 79.9947 310.063 80.496C309.903 80.9973 309.679 81.392 309.391 81.68C309.103 81.9573 308.735 82.096 308.287 82.096C308.159 82.096 308.025 82.0853 307.887 82.064C307.759 82.0427 307.62 82.016 307.471 81.984ZM323.304 82V73.6H324.44V77.312H329.736V73.6H330.872V82H329.736V78.288H324.44V82H323.304ZM339.316 82V80.144L339.268 79.84V76.736C339.268 76.0213 339.066 75.472 338.66 75.088C338.266 74.704 337.674 74.512 336.884 74.512C336.34 74.512 335.823 74.6027 335.332 74.784C334.842 74.9653 334.426 75.2053 334.084 75.504L333.572 74.656C333.999 74.2933 334.511 74.016 335.108 73.824C335.706 73.6213 336.335 73.52 336.996 73.52C338.084 73.52 338.922 73.792 339.508 74.336C340.106 74.8693 340.404 75.6853 340.404 76.784V82H339.316ZM336.42 82.08C335.791 82.08 335.242 81.9787 334.772 81.776C334.314 81.5627 333.962 81.2747 333.716 80.912C333.471 80.5387 333.348 80.112 333.348 79.632C333.348 79.1947 333.45 78.8 333.652 78.448C333.866 78.0853 334.207 77.7973 334.676 77.584C335.156 77.36 335.796 77.248 336.596 77.248H339.492V78.096H336.628C335.818 78.096 335.252 78.24 334.932 78.528C334.623 78.816 334.468 79.1733 334.468 79.6C334.468 80.08 334.655 80.464 335.028 80.752C335.402 81.04 335.924 81.184 336.596 81.184C337.236 81.184 337.786 81.04 338.244 80.752C338.714 80.4533 339.055 80.0267 339.268 79.472L339.524 80.256C339.311 80.8107 338.938 81.2533 338.404 81.584C337.882 81.9147 337.22 82.08 336.42 82.08ZM347.616 82V73.6H348.752V77.312H354.048V73.6H355.184V82H354.048V78.288H348.752V82H347.616ZM363.629 82V80.144L363.581 79.84V76.736C363.581 76.0213 363.378 75.472 362.973 75.088C362.578 74.704 361.986 74.512 361.197 74.512C360.653 74.512 360.136 74.6027 359.645 74.784C359.154 74.9653 358.738 75.2053 358.397 75.504L357.885 74.656C358.312 74.2933 358.824 74.016 359.421 73.824C360.018 73.6213 360.648 73.52 361.309 73.52C362.397 73.52 363.234 73.792 363.821 74.336C364.418 74.8693 364.717 75.6853 364.717 76.784V82H363.629ZM360.733 82.08C360.104 82.08 359.554 81.9787 359.085 81.776C358.626 81.5627 358.274 81.2747 358.029 80.912C357.784 80.5387 357.661 80.112 357.661 79.632C357.661 79.1947 357.762 78.8 357.965 78.448C358.178 78.0853 358.52 77.7973 358.989 77.584C359.469 77.36 360.109 77.248 360.909 77.248H363.805V78.096H360.941C360.13 78.096 359.565 78.24 359.245 78.528C358.936 78.816 358.781 79.1733 358.781 79.6C358.781 80.08 358.968 80.464 359.341 80.752C359.714 81.04 360.237 81.184 360.909 81.184C361.549 81.184 362.098 81.04 362.557 80.752C363.026 80.4533 363.368 80.0267 363.581 79.472L363.837 80.256C363.624 80.8107 363.25 81.2533 362.717 81.584C362.194 81.9147 361.533 82.08 360.733 82.08ZM373.261 81.008L373.005 81.312V73.6H374.141V81.312L373.837 81.008H378.525L378.221 81.312V73.6H379.357V82H367.741V73.6H368.877V81.312L368.589 81.008H373.261ZM386.185 82.08C385.31 82.08 384.542 81.8987 383.881 81.536C383.219 81.1627 382.702 80.656 382.329 80.016C381.955 79.3653 381.769 78.624 381.769 77.792C381.769 76.96 381.945 76.224 382.297 75.584C382.659 74.944 383.15 74.4427 383.769 74.08C384.398 73.7067 385.102 73.52 385.881 73.52C386.67 73.52 387.369 73.7013 387.977 74.064C388.595 74.416 389.081 74.9173 389.433 75.568C389.785 76.208 389.961 76.9493 389.961 77.792C389.961 77.8453 389.955 77.904 389.945 77.968C389.945 78.0213 389.945 78.08 389.945 78.144H382.633V77.296H389.337L388.889 77.632C388.889 77.024 388.755 76.4853 388.489 76.016C388.233 75.536 387.881 75.1627 387.433 74.896C386.985 74.6293 386.467 74.496 385.881 74.496C385.305 74.496 384.787 74.6293 384.329 74.896C383.87 75.1627 383.513 75.536 383.257 76.016C383.001 76.496 382.873 77.0453 382.873 77.664V77.84C382.873 78.48 383.011 79.0453 383.289 79.536C383.577 80.016 383.971 80.3947 384.473 80.672C384.985 80.9387 385.566 81.072 386.217 81.072C386.729 81.072 387.203 80.9813 387.641 80.8C388.089 80.6187 388.473 80.3413 388.793 79.968L389.433 80.704C389.059 81.152 388.59 81.4933 388.025 81.728C387.47 81.9627 386.857 82.08 386.185 82.08ZM392.475 82V73.6H393.627L397.435 80.048H396.955L400.827 73.6H401.883V82H400.843V74.896L401.051 74.992L397.435 80.976H396.923L393.275 74.928L393.515 74.88V82H392.475ZM409.304 82V73.6H416.856V82H415.72V74.288L416.008 74.592H410.152L410.44 74.288V82H409.304ZM424.421 82.08C423.695 82.08 423.039 81.9147 422.453 81.584C421.866 81.2427 421.397 80.7573 421.045 80.128C420.703 79.488 420.533 78.7093 420.533 77.792C420.533 76.8747 420.703 76.1013 421.045 75.472C421.386 74.832 421.85 74.3467 422.437 74.016C423.023 73.6853 423.685 73.52 424.421 73.52C425.221 73.52 425.935 73.7013 426.565 74.064C427.205 74.416 427.706 74.9173 428.069 75.568C428.431 76.208 428.613 76.9493 428.613 77.792C428.613 78.6453 428.431 79.392 428.069 80.032C427.706 80.672 427.205 81.1733 426.565 81.536C425.935 81.8987 425.221 82.08 424.421 82.08ZM420.085 85.104V73.6H421.173V76.128L421.061 77.808L421.221 79.504V85.104H420.085ZM424.341 81.072C424.938 81.072 425.471 80.9387 425.941 80.672C426.41 80.3947 426.783 80.0107 427.061 79.52C427.338 79.0187 427.477 78.4427 427.477 77.792C427.477 77.1413 427.338 76.5707 427.061 76.08C426.783 75.5893 426.41 75.2053 425.941 74.928C425.471 74.6507 424.938 74.512 424.341 74.512C423.743 74.512 423.205 74.6507 422.725 74.928C422.255 75.2053 421.882 75.5893 421.605 76.08C421.338 76.5707 421.205 77.1413 421.205 77.792C421.205 78.4427 421.338 79.0187 421.605 79.52C421.882 80.0107 422.255 80.3947 422.725 80.672C423.205 80.9387 423.743 81.072 424.341 81.072ZM434.51 82.08C433.699 82.08 432.968 81.8987 432.318 81.536C431.678 81.1627 431.171 80.656 430.798 80.016C430.424 79.3653 430.238 78.624 430.238 77.792C430.238 76.9493 430.424 76.208 430.798 75.568C431.171 74.928 431.678 74.4267 432.318 74.064C432.958 73.7013 433.688 73.52 434.51 73.52C435.342 73.52 436.078 73.7013 436.718 74.064C437.368 74.4267 437.875 74.928 438.238 75.568C438.611 76.208 438.798 76.9493 438.798 77.792C438.798 78.624 438.611 79.3653 438.238 80.016C437.875 80.656 437.368 81.1627 436.718 81.536C436.067 81.8987 435.331 82.08 434.51 82.08ZM434.51 81.072C435.118 81.072 435.656 80.9387 436.126 80.672C436.595 80.3947 436.963 80.0107 437.23 79.52C437.507 79.0187 437.646 78.4427 437.646 77.792C437.646 77.1307 437.507 76.5547 437.23 76.064C436.963 75.5733 436.595 75.1947 436.126 74.928C435.656 74.6507 435.123 74.512 434.526 74.512C433.928 74.512 433.395 74.6507 432.926 74.928C432.456 75.1947 432.083 75.5733 431.806 76.064C431.528 76.5547 431.39 77.1307 431.39 77.792C431.39 78.4427 431.528 79.0187 431.806 79.52C432.083 80.0107 432.456 80.3947 432.926 80.672C433.395 80.9387 433.923 81.072 434.51 81.072ZM441.225 82V73.6H442.361V80.272L447.977 73.6H448.985V82H447.849V75.312L442.249 82H441.225ZM454.325 82.096C453.717 82.096 453.114 82.0107 452.517 81.84C451.92 81.6693 451.392 81.408 450.933 81.056L451.301 80.208C451.706 80.5067 452.176 80.736 452.709 80.896C453.242 81.0453 453.77 81.12 454.293 81.12C454.816 81.1093 455.269 81.0347 455.653 80.896C456.037 80.7573 456.336 80.5653 456.549 80.32C456.762 80.0747 456.869 79.7973 456.869 79.488C456.869 79.04 456.666 78.6933 456.261 78.448C455.856 78.192 455.301 78.064 454.597 78.064H453.157V77.232H454.517C454.933 77.232 455.301 77.1787 455.621 77.072C455.941 76.9653 456.186 76.8107 456.357 76.608C456.538 76.4053 456.629 76.1653 456.629 75.888C456.629 75.5893 456.522 75.3333 456.309 75.12C456.106 74.9067 455.824 74.7467 455.461 74.64C455.098 74.5333 454.688 74.48 454.229 74.48C453.813 74.4907 453.381 74.5547 452.933 74.672C452.485 74.7787 452.042 74.944 451.605 75.168L451.285 74.288C451.776 74.032 452.261 73.84 452.741 73.712C453.232 73.5733 453.722 73.504 454.213 73.504C454.885 73.4827 455.488 73.5627 456.021 73.744C456.565 73.9253 456.997 74.1867 457.317 74.528C457.637 74.8587 457.797 75.2587 457.797 75.728C457.797 76.144 457.669 76.5067 457.413 76.816C457.157 77.1253 456.816 77.3653 456.389 77.536C455.962 77.7067 455.477 77.792 454.933 77.792L454.981 77.488C455.941 77.488 456.688 77.6747 457.221 78.048C457.765 78.4213 458.037 78.928 458.037 79.568C458.037 80.0693 457.872 80.512 457.541 80.896C457.21 81.2693 456.762 81.5627 456.197 81.776C455.642 81.9893 455.018 82.096 454.325 82.096ZM460.616 82V73.6H464.328C465.277 73.6 466.024 73.7813 466.568 74.144C467.123 74.5067 467.4 75.04 467.4 75.744C467.4 76.4267 467.139 76.9547 466.616 77.328C466.093 77.6907 465.405 77.872 464.552 77.872L464.776 77.536C465.779 77.536 466.515 77.7227 466.984 78.096C467.453 78.4693 467.688 79.008 467.688 79.712C467.688 80.4373 467.421 81.0027 466.888 81.408C466.365 81.8027 465.549 82 464.44 82H460.616ZM461.72 81.104H464.392C465.107 81.104 465.645 80.992 466.008 80.768C466.381 80.5333 466.568 80.16 466.568 79.648C466.568 79.136 466.403 78.7627 466.072 78.528C465.741 78.2933 465.219 78.176 464.504 78.176H461.72V81.104ZM461.72 77.328H464.248C464.899 77.328 465.395 77.2053 465.736 76.96C466.088 76.7147 466.264 76.3573 466.264 75.888C466.264 75.4187 466.088 75.0667 465.736 74.832C465.395 74.5973 464.899 74.48 464.248 74.48H461.72V77.328ZM473.806 82.08C472.996 82.08 472.265 81.8987 471.614 81.536C470.974 81.1627 470.468 80.656 470.094 80.016C469.721 79.3653 469.534 78.624 469.534 77.792C469.534 76.9493 469.721 76.208 470.094 75.568C470.468 74.928 470.974 74.4267 471.614 74.064C472.254 73.7013 472.985 73.52 473.806 73.52C474.638 73.52 475.374 73.7013 476.014 74.064C476.665 74.4267 477.172 74.928 477.534 75.568C477.908 76.208 478.094 76.9493 478.094 77.792C478.094 78.624 477.908 79.3653 477.534 80.016C477.172 80.656 476.665 81.1627 476.014 81.536C475.364 81.8987 474.628 82.08 473.806 82.08ZM473.806 81.072C474.414 81.072 474.953 80.9387 475.422 80.672C475.892 80.3947 476.26 80.0107 476.526 79.52C476.804 79.0187 476.942 78.4427 476.942 77.792C476.942 77.1307 476.804 76.5547 476.526 76.064C476.26 75.5733 475.892 75.1947 475.422 74.928C474.953 74.6507 474.42 74.512 473.822 74.512C473.225 74.512 472.692 74.6507 472.222 74.928C471.753 75.1947 471.38 75.5733 471.102 76.064C470.825 76.5547 470.686 77.1307 470.686 77.792C470.686 78.4427 470.825 79.0187 471.102 79.52C471.38 80.0107 471.753 80.3947 472.222 80.672C472.692 80.9387 473.22 81.072 473.806 81.072ZM486.235 81.456V74.592H482.187L482.091 76.464C482.07 77.0293 482.033 77.584 481.979 78.128C481.937 78.672 481.857 79.1733 481.739 79.632C481.633 80.08 481.478 80.448 481.275 80.736C481.073 81.0133 480.811 81.1733 480.491 81.216L479.355 81.008C479.686 81.0187 479.958 80.9013 480.171 80.656C480.385 80.4 480.55 80.0533 480.667 79.616C480.785 79.1787 480.87 78.6827 480.923 78.128C480.977 77.5627 481.019 76.9867 481.051 76.4L481.163 73.6H487.371V81.456H486.235ZM479.003 84.032V81.008H488.683V84.032H487.611V82H480.075V84.032H479.003ZM494.417 82.08C493.585 82.08 492.839 81.8987 492.177 81.536C491.527 81.1627 491.015 80.656 490.641 80.016C490.268 79.3653 490.081 78.624 490.081 77.792C490.081 76.9493 490.268 76.208 490.641 75.568C491.015 74.928 491.527 74.4267 492.177 74.064C492.839 73.7013 493.585 73.52 494.417 73.52C495.132 73.52 495.777 73.6587 496.353 73.936C496.929 74.2133 497.383 74.6293 497.713 75.184L496.865 75.76C496.577 75.3333 496.22 75.0187 495.793 74.816C495.367 74.6133 494.903 74.512 494.401 74.512C493.804 74.512 493.265 74.6507 492.785 74.928C492.305 75.1947 491.927 75.5733 491.649 76.064C491.372 76.5547 491.233 77.1307 491.233 77.792C491.233 78.4533 491.372 79.0293 491.649 79.52C491.927 80.0107 492.305 80.3947 492.785 80.672C493.265 80.9387 493.804 81.072 494.401 81.072C494.903 81.072 495.367 80.9707 495.793 80.768C496.22 80.5653 496.577 80.256 496.865 79.84L497.713 80.416C497.383 80.96 496.929 81.376 496.353 81.664C495.777 81.9413 495.132 82.08 494.417 82.08ZM501.357 82V74.288L501.645 74.592H498.173V73.6H505.677V74.592H502.205L502.493 74.288V82H501.357ZM507.319 82V73.6H511.031C511.98 73.6 512.727 73.7813 513.271 74.144C513.826 74.5067 514.103 75.04 514.103 75.744C514.103 76.4267 513.842 76.9547 513.319 77.328C512.796 77.6907 512.108 77.872 511.255 77.872L511.479 77.536C512.482 77.536 513.218 77.7227 513.687 78.096C514.156 78.4693 514.391 79.008 514.391 79.712C514.391 80.4373 514.124 81.0027 513.591 81.408C513.068 81.8027 512.252 82 511.143 82H507.319ZM508.423 81.104H511.095C511.81 81.104 512.348 80.992 512.711 80.768C513.084 80.5333 513.271 80.16 513.271 79.648C513.271 79.136 513.106 78.7627 512.775 78.528C512.444 78.2933 511.922 78.176 511.207 78.176H508.423V81.104ZM508.423 77.328H510.951C511.602 77.328 512.098 77.2053 512.439 76.96C512.791 76.7147 512.967 76.3573 512.967 75.888C512.967 75.4187 512.791 75.0667 512.439 74.832C512.098 74.5973 511.602 74.48 510.951 74.48H508.423V77.328ZM520.654 82.08C519.779 82.08 519.011 81.8987 518.35 81.536C517.688 81.1627 517.171 80.656 516.798 80.016C516.424 79.3653 516.238 78.624 516.238 77.792C516.238 76.96 516.414 76.224 516.766 75.584C517.128 74.944 517.619 74.4427 518.238 74.08C518.867 73.7067 519.571 73.52 520.35 73.52C521.139 73.52 521.838 73.7013 522.446 74.064C523.064 74.416 523.55 74.9173 523.902 75.568C524.254 76.208 524.43 76.9493 524.43 77.792C524.43 77.8453 524.424 77.904 524.414 77.968C524.414 78.0213 524.414 78.08 524.414 78.144H517.102V77.296H523.806L523.358 77.632C523.358 77.024 523.224 76.4853 522.958 76.016C522.702 75.536 522.35 75.1627 521.902 74.896C521.454 74.6293 520.936 74.496 520.35 74.496C519.774 74.496 519.256 74.6293 518.798 74.896C518.339 75.1627 517.982 75.536 517.726 76.016C517.47 76.496 517.342 77.0453 517.342 77.664V77.84C517.342 78.48 517.48 79.0453 517.758 79.536C518.046 80.016 518.44 80.3947 518.942 80.672C519.454 80.9387 520.035 81.072 520.686 81.072C521.198 81.072 521.672 80.9813 522.11 80.8C522.558 80.6187 522.942 80.3413 523.262 79.968L523.902 80.704C523.528 81.152 523.059 81.4933 522.494 81.728C521.939 81.9627 521.326 82.08 520.654 82.08ZM534.588 82.08C533.777 82.08 533.046 81.8987 532.396 81.536C531.756 81.1627 531.249 80.656 530.876 80.016C530.502 79.3653 530.316 78.624 530.316 77.792C530.316 76.9493 530.502 76.208 530.876 75.568C531.249 74.928 531.756 74.4267 532.396 74.064C533.036 73.7013 533.766 73.52 534.588 73.52C535.42 73.52 536.156 73.7013 536.796 74.064C537.446 74.4267 537.953 74.928 538.316 75.568C538.689 76.208 538.876 76.9493 538.876 77.792C538.876 78.624 538.689 79.3653 538.316 80.016C537.953 80.656 537.446 81.1627 536.796 81.536C536.145 81.8987 535.409 82.08 534.588 82.08ZM534.588 81.072C535.196 81.072 535.734 80.9387 536.204 80.672C536.673 80.3947 537.041 80.0107 537.308 79.52C537.585 79.0187 537.724 78.4427 537.724 77.792C537.724 77.1307 537.585 76.5547 537.308 76.064C537.041 75.5733 536.673 75.1947 536.204 74.928C535.734 74.6507 535.201 74.512 534.604 74.512C534.006 74.512 533.473 74.6507 533.004 74.928C532.534 75.1947 532.161 75.5733 531.884 76.064C531.606 76.5547 531.468 77.1307 531.468 77.792C531.468 78.4427 531.606 79.0187 531.884 79.52C532.161 80.0107 532.534 80.3947 533.004 80.672C533.473 80.9387 534.001 81.072 534.588 81.072ZM542.591 82V74.288L542.879 74.592H539.407V73.6H546.911V74.592H543.439L543.727 74.288V82H542.591ZM557.077 82.08C556.352 82.08 555.696 81.9147 555.109 81.584C554.522 81.2427 554.053 80.7573 553.701 80.128C553.36 79.488 553.189 78.7093 553.189 77.792C553.189 76.8747 553.36 76.1013 553.701 75.472C554.042 74.832 554.506 74.3467 555.093 74.016C555.68 73.6853 556.341 73.52 557.077 73.52C557.877 73.52 558.592 73.7013 559.221 74.064C559.861 74.416 560.362 74.9173 560.725 75.568C561.088 76.208 561.269 76.9493 561.269 77.792C561.269 78.6453 561.088 79.392 560.725 80.032C560.362 80.672 559.861 81.1733 559.221 81.536C558.592 81.8987 557.877 82.08 557.077 82.08ZM552.741 85.104V73.6H553.829V76.128L553.717 77.808L553.877 79.504V85.104H552.741ZM556.997 81.072C557.594 81.072 558.128 80.9387 558.597 80.672C559.066 80.3947 559.44 80.0107 559.717 79.52C559.994 79.0187 560.133 78.4427 560.133 77.792C560.133 77.1413 559.994 76.5707 559.717 76.08C559.44 75.5893 559.066 75.2053 558.597 74.928C558.128 74.6507 557.594 74.512 556.997 74.512C556.4 74.512 555.861 74.6507 555.381 74.928C554.912 75.2053 554.538 75.5893 554.261 76.08C553.994 76.5707 553.861 77.1413 553.861 77.792C553.861 78.4427 553.994 79.0187 554.261 79.52C554.538 80.0107 554.912 80.3947 555.381 80.672C555.861 80.9387 556.4 81.072 556.997 81.072ZM568.879 82V80.144L568.831 79.84V76.736C568.831 76.0213 568.628 75.472 568.223 75.088C567.828 74.704 567.236 74.512 566.447 74.512C565.903 74.512 565.386 74.6027 564.895 74.784C564.404 74.9653 563.988 75.2053 563.647 75.504L563.135 74.656C563.562 74.2933 564.074 74.016 564.671 73.824C565.268 73.6213 565.898 73.52 566.559 73.52C567.647 73.52 568.484 73.792 569.071 74.336C569.668 74.8693 569.967 75.6853 569.967 76.784V82H568.879ZM565.983 82.08C565.354 82.08 564.804 81.9787 564.335 81.776C563.876 81.5627 563.524 81.2747 563.279 80.912C563.034 80.5387 562.911 80.112 562.911 79.632C562.911 79.1947 563.012 78.8 563.215 78.448C563.428 78.0853 563.77 77.7973 564.239 77.584C564.719 77.36 565.359 77.248 566.159 77.248H569.055V78.096H566.191C565.38 78.096 564.815 78.24 564.495 78.528C564.186 78.816 564.031 79.1733 564.031 79.6C564.031 80.08 564.218 80.464 564.591 80.752C564.964 81.04 565.487 81.184 566.159 81.184C566.799 81.184 567.348 81.04 567.807 80.752C568.276 80.4533 568.618 80.0267 568.831 79.472L569.087 80.256C568.874 80.8107 568.5 81.2533 567.967 81.584C567.444 81.9147 566.783 82.08 565.983 82.08ZM575.075 82.096C574.467 82.096 573.864 82.0107 573.267 81.84C572.67 81.6693 572.142 81.408 571.683 81.056L572.051 80.208C572.456 80.5067 572.926 80.736 573.459 80.896C573.992 81.0453 574.52 81.12 575.043 81.12C575.566 81.1093 576.019 81.0347 576.403 80.896C576.787 80.7573 577.086 80.5653 577.299 80.32C577.512 80.0747 577.619 79.7973 577.619 79.488C577.619 79.04 577.416 78.6933 577.011 78.448C576.606 78.192 576.051 78.064 575.347 78.064H573.907V77.232H575.267C575.683 77.232 576.051 77.1787 576.371 77.072C576.691 76.9653 576.936 76.8107 577.107 76.608C577.288 76.4053 577.379 76.1653 577.379 75.888C577.379 75.5893 577.272 75.3333 577.059 75.12C576.856 74.9067 576.574 74.7467 576.211 74.64C575.848 74.5333 575.438 74.48 574.979 74.48C574.563 74.4907 574.131 74.5547 573.683 74.672C573.235 74.7787 572.792 74.944 572.355 75.168L572.035 74.288C572.526 74.032 573.011 73.84 573.491 73.712C573.982 73.5733 574.472 73.504 574.963 73.504C575.635 73.4827 576.238 73.5627 576.771 73.744C577.315 73.9253 577.747 74.1867 578.067 74.528C578.387 74.8587 578.547 75.2587 578.547 75.728C578.547 76.144 578.419 76.5067 578.163 76.816C577.907 77.1253 577.566 77.3653 577.139 77.536C576.712 77.7067 576.227 77.792 575.683 77.792L575.731 77.488C576.691 77.488 577.438 77.6747 577.971 78.048C578.515 78.4213 578.787 78.928 578.787 79.568C578.787 80.0693 578.622 80.512 578.291 80.896C577.96 81.2693 577.512 81.5627 576.947 81.776C576.392 81.9893 575.768 82.096 575.075 82.096ZM585.702 82.08C584.977 82.08 584.321 81.9147 583.734 81.584C583.147 81.2427 582.678 80.7573 582.326 80.128C581.985 79.488 581.814 78.7093 581.814 77.792C581.814 76.8747 581.985 76.1013 582.326 75.472C582.667 74.832 583.131 74.3467 583.718 74.016C584.305 73.6853 584.966 73.52 585.702 73.52C586.502 73.52 587.217 73.7013 587.846 74.064C588.486 74.416 588.987 74.9173 589.35 75.568C589.713 76.208 589.894 76.9493 589.894 77.792C589.894 78.6453 589.713 79.392 589.35 80.032C588.987 80.672 588.486 81.1733 587.846 81.536C587.217 81.8987 586.502 82.08 585.702 82.08ZM581.366 85.104V73.6H582.454V76.128L582.342 77.808L582.502 79.504V85.104H581.366ZM585.622 81.072C586.219 81.072 586.753 80.9387 587.222 80.672C587.691 80.3947 588.065 80.0107 588.342 79.52C588.619 79.0187 588.758 78.4427 588.758 77.792C588.758 77.1413 588.619 76.5707 588.342 76.08C588.065 75.5893 587.691 75.2053 587.222 74.928C586.753 74.6507 586.219 74.512 585.622 74.512C585.025 74.512 584.486 74.6507 584.006 74.928C583.537 75.2053 583.163 75.5893 582.886 76.08C582.619 76.5707 582.486 77.1413 582.486 77.792C582.486 78.4427 582.619 79.0187 582.886 79.52C583.163 80.0107 583.537 80.3947 584.006 80.672C584.486 80.9387 585.025 81.072 585.622 81.072ZM597.504 82V80.144L597.456 79.84V76.736C597.456 76.0213 597.253 75.472 596.848 75.088C596.453 74.704 595.861 74.512 595.072 74.512C594.528 74.512 594.011 74.6027 593.52 74.784C593.029 74.9653 592.613 75.2053 592.272 75.504L591.76 74.656C592.187 74.2933 592.699 74.016 593.296 73.824C593.893 73.6213 594.523 73.52 595.184 73.52C596.272 73.52 597.109 73.792 597.696 74.336C598.293 74.8693 598.592 75.6853 598.592 76.784V82H597.504ZM594.608 82.08C593.979 82.08 593.429 81.9787 592.96 81.776C592.501 81.5627 592.149 81.2747 591.904 80.912C591.659 80.5387 591.536 80.112 591.536 79.632C591.536 79.1947 591.637 78.8 591.84 78.448C592.053 78.0853 592.395 77.7973 592.864 77.584C593.344 77.36 593.984 77.248 594.784 77.248H597.68V78.096H594.816C594.005 78.096 593.44 78.24 593.12 78.528C592.811 78.816 592.656 79.1733 592.656 79.6C592.656 80.08 592.843 80.464 593.216 80.752C593.589 81.04 594.112 81.184 594.784 81.184C595.424 81.184 595.973 81.04 596.432 80.752C596.901 80.4533 597.243 80.0267 597.456 79.472L597.712 80.256C597.499 80.8107 597.125 81.2533 596.592 81.584C596.069 81.9147 595.408 82.08 594.608 82.08ZM605.392 82.096C604.709 82.096 604.101 81.984 603.568 81.76C603.045 81.536 602.597 81.1947 602.224 80.736C601.851 80.2773 601.568 79.712 601.376 79.04C601.184 78.3573 601.088 77.568 601.088 76.672C601.088 75.872 601.163 75.1733 601.312 74.576C601.461 73.968 601.669 73.4453 601.936 73.008C602.203 72.5707 602.512 72.2027 602.864 71.904C603.227 71.5947 603.616 71.3493 604.032 71.168C604.459 70.976 604.896 70.832 605.344 70.736L609.12 69.856L609.312 70.912L605.76 71.712C605.536 71.7653 605.264 71.84 604.944 71.936C604.635 72.032 604.315 72.176 603.984 72.368C603.664 72.56 603.365 72.8267 603.088 73.168C602.811 73.5093 602.587 73.952 602.416 74.496C602.256 75.0293 602.176 75.696 602.176 76.496C602.176 76.6667 602.181 76.8053 602.192 76.912C602.203 77.008 602.213 77.1147 602.224 77.232C602.245 77.3387 602.261 77.4987 602.272 77.712L601.776 77.296C601.893 76.6453 602.133 76.08 602.496 75.6C602.859 75.1093 603.312 74.7307 603.856 74.464C604.411 74.1867 605.024 74.048 605.696 74.048C606.475 74.048 607.168 74.2187 607.776 74.56C608.384 74.8907 608.859 75.3547 609.2 75.952C609.552 76.5493 609.728 77.2427 609.728 78.032C609.728 78.8107 609.547 79.5093 609.184 80.128C608.832 80.7467 608.331 81.232 607.68 81.584C607.029 81.9253 606.267 82.096 605.392 82.096ZM605.52 81.152C606.117 81.152 606.645 81.0187 607.104 80.752C607.563 80.4747 607.92 80.1013 608.176 79.632C608.443 79.1627 608.576 78.6347 608.576 78.048C608.576 77.472 608.443 76.96 608.176 76.512C607.92 76.064 607.563 75.712 607.104 75.456C606.645 75.1893 606.112 75.056 605.504 75.056C604.907 75.056 604.379 75.184 603.92 75.44C603.461 75.6853 603.099 76.032 602.832 76.48C602.576 76.928 602.448 77.4453 602.448 78.032C602.448 78.6187 602.576 79.1467 602.832 79.616C603.099 80.0853 603.461 80.4587 603.92 80.736C604.389 81.0133 604.923 81.152 605.52 81.152ZM615.619 82.08C614.808 82.08 614.078 81.8987 613.427 81.536C612.787 81.1627 612.28 80.656 611.907 80.016C611.534 79.3653 611.347 78.624 611.347 77.792C611.347 76.9493 611.534 76.208 611.907 75.568C612.28 74.928 612.787 74.4267 613.427 74.064C614.067 73.7013 614.798 73.52 615.619 73.52C616.451 73.52 617.187 73.7013 617.827 74.064C618.478 74.4267 618.984 74.928 619.347 75.568C619.72 76.208 619.907 76.9493 619.907 77.792C619.907 78.624 619.72 79.3653 619.347 80.016C618.984 80.656 618.478 81.1627 617.827 81.536C617.176 81.8987 616.44 82.08 615.619 82.08ZM615.619 81.072C616.227 81.072 616.766 80.9387 617.235 80.672C617.704 80.3947 618.072 80.0107 618.339 79.52C618.616 79.0187 618.755 78.4427 618.755 77.792C618.755 77.1307 618.616 76.5547 618.339 76.064C618.072 75.5733 617.704 75.1947 617.235 74.928C616.766 74.6507 616.232 74.512 615.635 74.512C615.038 74.512 614.504 74.6507 614.035 74.928C613.566 75.1947 613.192 75.5733 612.915 76.064C612.638 76.5547 612.499 77.1307 612.499 77.792C612.499 78.4427 612.638 79.0187 612.915 79.52C613.192 80.0107 613.566 80.3947 614.035 80.672C614.504 80.9387 615.032 81.072 615.619 81.072ZM623.622 82V74.288L623.91 74.592H620.438V73.6H627.942V74.592H624.47L624.758 74.288V82H623.622ZM635.745 82L632.289 77.84L633.233 77.28L637.089 82H635.745ZM629.585 82V73.6H630.721V82H629.585ZM630.369 78.256V77.28H633.073V78.256H630.369ZM633.329 77.92L632.273 77.76L635.617 73.6H636.849L633.329 77.92ZM638.882 82V73.6H640.018V80.272L645.634 73.6H646.642V82H645.506V75.312L639.906 82H638.882ZM652.549 81.984L652.629 81.008C652.703 81.0187 652.773 81.0347 652.837 81.056C652.911 81.0667 652.975 81.072 653.029 81.072C653.37 81.072 653.642 80.944 653.845 80.688C654.058 80.432 654.218 80.0907 654.325 79.664C654.431 79.2373 654.506 78.7573 654.549 78.224C654.591 77.68 654.629 77.136 654.661 76.592L654.805 73.6H660.965V82H659.829V74.256L660.117 74.592H655.541L655.813 74.24L655.685 76.672C655.653 77.3973 655.594 78.0907 655.509 78.752C655.434 79.4133 655.311 79.9947 655.141 80.496C654.981 80.9973 654.757 81.392 654.469 81.68C654.181 81.9573 653.813 82.096 653.365 82.096C653.237 82.096 653.103 82.0853 652.965 82.064C652.837 82.0427 652.698 82.016 652.549 81.984ZM667.794 82.08C666.919 82.08 666.151 81.8987 665.49 81.536C664.829 81.1627 664.311 80.656 663.938 80.016C663.565 79.3653 663.378 78.624 663.378 77.792C663.378 76.96 663.554 76.224 663.906 75.584C664.269 74.944 664.759 74.4427 665.378 74.08C666.007 73.7067 666.711 73.52 667.49 73.52C668.279 73.52 668.978 73.7013 669.586 74.064C670.205 74.416 670.69 74.9173 671.042 75.568C671.394 76.208 671.57 76.9493 671.57 77.792C671.57 77.8453 671.565 77.904 671.554 77.968C671.554 78.0213 671.554 78.08 671.554 78.144H664.242V77.296H670.946L670.498 77.632C670.498 77.024 670.365 76.4853 670.098 76.016C669.842 75.536 669.49 75.1627 669.042 74.896C668.594 74.6293 668.077 74.496 667.49 74.496C666.914 74.496 666.397 74.6293 665.938 74.896C665.479 75.1627 665.122 75.536 664.866 76.016C664.61 76.496 664.482 77.0453 664.482 77.664V77.84C664.482 78.48 664.621 79.0453 664.898 79.536C665.186 80.016 665.581 80.3947 666.082 80.672C666.594 80.9387 667.175 81.072 667.826 81.072C668.338 81.072 668.813 80.9813 669.25 80.8C669.698 80.6187 670.082 80.3413 670.402 79.968L671.042 80.704C670.669 81.152 670.199 81.4933 669.634 81.728C669.079 81.9627 668.466 82.08 667.794 82.08ZM680.245 82L676.789 77.84L677.733 77.28L681.589 82H680.245ZM674.085 82V73.6H675.221V82H674.085ZM674.869 78.256V77.28H677.573V78.256H674.869ZM677.829 77.92L676.773 77.76L680.117 73.6H681.349L677.829 77.92ZM688.441 82V80.144L688.393 79.84V76.736C688.393 76.0213 688.191 75.472 687.785 75.088C687.391 74.704 686.799 74.512 686.009 74.512C685.465 74.512 684.948 74.6027 684.457 74.784C683.967 74.9653 683.551 75.2053 683.209 75.504L682.697 74.656C683.124 74.2933 683.636 74.016 684.233 73.824C684.831 73.6213 685.46 73.52 686.121 73.52C687.209 73.52 688.047 73.792 688.633 74.336C689.231 74.8693 689.529 75.6853 689.529 76.784V82H688.441ZM685.545 82.08C684.916 82.08 684.367 81.9787 683.897 81.776C683.439 81.5627 683.087 81.2747 682.841 80.912C682.596 80.5387 682.473 80.112 682.473 79.632C682.473 79.1947 682.575 78.8 682.777 78.448C682.991 78.0853 683.332 77.7973 683.801 77.584C684.281 77.36 684.921 77.248 685.721 77.248H688.617V78.096H685.753C684.943 78.096 684.377 78.24 684.057 78.528C683.748 78.816 683.593 79.1733 683.593 79.6C683.593 80.08 683.78 80.464 684.153 80.752C684.527 81.04 685.049 81.184 685.721 81.184C686.361 81.184 686.911 81.04 687.369 80.752C687.839 80.4533 688.18 80.0267 688.393 79.472L688.649 80.256C688.436 80.8107 688.063 81.2533 687.529 81.584C687.007 81.9147 686.345 82.08 685.545 82.08ZM691.018 81.984L691.098 81.008C691.172 81.0187 691.242 81.0347 691.306 81.056C691.38 81.0667 691.444 81.072 691.498 81.072C691.839 81.072 692.111 80.944 692.314 80.688C692.527 80.432 692.687 80.0907 692.794 79.664C692.9 79.2373 692.975 78.7573 693.018 78.224C693.06 77.68 693.098 77.136 693.13 76.592L693.274 73.6H699.434V82H698.298V74.256L698.586 74.592H694.01L694.282 74.24L694.154 76.672C694.122 77.3973 694.063 78.0907 693.978 78.752C693.903 79.4133 693.78 79.9947 693.61 80.496C693.45 80.9973 693.226 81.392 692.938 81.68C692.65 81.9573 692.282 82.096 691.834 82.096C691.706 82.096 691.572 82.0853 691.434 82.064C691.306 82.0427 691.167 82.016 691.018 81.984ZM707.879 82V80.144L707.831 79.84V76.736C707.831 76.0213 707.628 75.472 707.223 75.088C706.828 74.704 706.236 74.512 705.447 74.512C704.903 74.512 704.386 74.6027 703.895 74.784C703.404 74.9653 702.988 75.2053 702.647 75.504L702.135 74.656C702.562 74.2933 703.074 74.016 703.671 73.824C704.268 73.6213 704.898 73.52 705.559 73.52C706.647 73.52 707.484 73.792 708.071 74.336C708.668 74.8693 708.967 75.6853 708.967 76.784V82H707.879ZM704.983 82.08C704.354 82.08 703.804 81.9787 703.335 81.776C702.876 81.5627 702.524 81.2747 702.279 80.912C702.034 80.5387 701.911 80.112 701.911 79.632C701.911 79.1947 702.012 78.8 702.215 78.448C702.428 78.0853 702.77 77.7973 703.239 77.584C703.719 77.36 704.359 77.248 705.159 77.248H708.055V78.096H705.191C704.38 78.096 703.815 78.24 703.495 78.528C703.186 78.816 703.031 79.1733 703.031 79.6C703.031 80.08 703.218 80.464 703.591 80.752C703.964 81.04 704.487 81.184 705.159 81.184C705.799 81.184 706.348 81.04 706.807 80.752C707.276 80.4533 707.618 80.0267 707.831 79.472L708.087 80.256C707.874 80.8107 707.5 81.2533 706.967 81.584C706.444 81.9147 705.783 82.08 704.983 82.08ZM721.939 81.456V74.592H717.891L717.795 76.464C717.773 77.0293 717.736 77.584 717.683 78.128C717.64 78.672 717.56 79.1733 717.443 79.632C717.336 80.08 717.181 80.448 716.979 80.736C716.776 81.0133 716.515 81.1733 716.195 81.216L715.059 81.008C715.389 81.0187 715.661 80.9013 715.875 80.656C716.088 80.4 716.253 80.0533 716.371 79.616C716.488 79.1787 716.573 78.6827 716.627 78.128C716.68 77.5627 716.723 76.9867 716.755 76.4L716.867 73.6H723.075V81.456H721.939ZM714.707 84.032V81.008H724.387V84.032H723.315V82H715.779V84.032H714.707ZM730.056 82.08C729.246 82.08 728.515 81.8987 727.864 81.536C727.224 81.1627 726.718 80.656 726.344 80.016C725.971 79.3653 725.784 78.624 725.784 77.792C725.784 76.9493 725.971 76.208 726.344 75.568C726.718 74.928 727.224 74.4267 727.864 74.064C728.504 73.7013 729.235 73.52 730.056 73.52C730.888 73.52 731.624 73.7013 732.264 74.064C732.915 74.4267 733.422 74.928 733.784 75.568C734.158 76.208 734.344 76.9493 734.344 77.792C734.344 78.624 734.158 79.3653 733.784 80.016C733.422 80.656 732.915 81.1627 732.264 81.536C731.614 81.8987 730.878 82.08 730.056 82.08ZM730.056 81.072C730.664 81.072 731.203 80.9387 731.672 80.672C732.142 80.3947 732.51 80.0107 732.776 79.52C733.054 79.0187 733.192 78.4427 733.192 77.792C733.192 77.1307 733.054 76.5547 732.776 76.064C732.51 75.5733 732.142 75.1947 731.672 74.928C731.203 74.6507 730.67 74.512 730.072 74.512C729.475 74.512 728.942 74.6507 728.472 74.928C728.003 75.1947 727.63 75.5733 727.352 76.064C727.075 76.5547 726.936 77.1307 726.936 77.792C726.936 78.4427 727.075 79.0187 727.352 79.52C727.63 80.0107 728.003 80.3947 728.472 80.672C728.942 80.9387 729.47 81.072 730.056 81.072ZM745.68 82.096C745.68 82.096 745.658 82.096 745.616 82.096C745.573 82.096 745.53 82.096 745.488 82.096C745.456 82.096 745.429 82.096 745.408 82.096C743.744 82.0853 742.448 81.7067 741.52 80.96C740.592 80.2133 740.128 79.152 740.128 77.776C740.128 76.4213 740.592 75.376 741.52 74.64C742.458 73.8933 743.776 73.5147 745.472 73.504C745.482 73.504 745.504 73.504 745.536 73.504C745.578 73.504 745.616 73.504 745.648 73.504C745.68 73.504 745.701 73.504 745.712 73.504C747.418 73.5147 748.746 73.8933 749.696 74.64C750.645 75.376 751.12 76.4213 751.12 77.776C751.12 79.1627 750.64 80.2293 749.68 80.976C748.73 81.7227 747.397 82.096 745.68 82.096ZM745.664 81.104C746.613 81.104 747.408 80.976 748.048 80.72C748.688 80.4533 749.173 80.0747 749.504 79.584C749.834 79.0933 750 78.4907 750 77.776C750 77.0827 749.834 76.496 749.504 76.016C749.173 75.5253 748.688 75.152 748.048 74.896C747.408 74.64 746.613 74.512 745.664 74.512C745.653 74.512 745.621 74.512 745.568 74.512C745.525 74.512 745.498 74.512 745.488 74.512C744.56 74.512 743.781 74.6453 743.152 74.912C742.522 75.168 742.048 75.536 741.728 76.016C741.408 76.496 741.248 77.0827 741.248 77.776C741.248 78.48 741.408 79.0773 741.728 79.568C742.058 80.0587 742.538 80.4373 743.168 80.704C743.797 80.96 744.57 81.0933 745.488 81.104C745.509 81.104 745.541 81.104 745.584 81.104C745.626 81.104 745.653 81.104 745.664 81.104ZM745.056 85.104V70.128H746.16V85.104H745.056ZM753.522 82V73.6H754.658V80.272L760.274 73.6H761.282V82H760.146V75.312L754.546 82H753.522ZM764.538 82V73.6H765.674V77.312H770.97V73.6H772.106V82H770.97V78.288H765.674V82H764.538ZM780.551 82V80.144L780.503 79.84V76.736C780.503 76.0213 780.3 75.472 779.895 75.088C779.5 74.704 778.908 74.512 778.119 74.512C777.575 74.512 777.057 74.6027 776.567 74.784C776.076 74.9653 775.66 75.2053 775.319 75.504L774.807 74.656C775.233 74.2933 775.745 74.016 776.343 73.824C776.94 73.6213 777.569 73.52 778.231 73.52C779.319 73.52 780.156 73.792 780.743 74.336C781.34 74.8693 781.639 75.6853 781.639 76.784V82H780.551ZM777.655 82.08C777.025 82.08 776.476 81.9787 776.007 81.776C775.548 81.5627 775.196 81.2747 774.951 80.912C774.705 80.5387 774.583 80.112 774.583 79.632C774.583 79.1947 774.684 78.8 774.887 78.448C775.1 78.0853 775.441 77.7973 775.911 77.584C776.391 77.36 777.031 77.248 777.831 77.248H780.727V78.096H777.863C777.052 78.096 776.487 78.24 776.167 78.528C775.857 78.816 775.703 79.1733 775.703 79.6C775.703 80.08 775.889 80.464 776.263 80.752C776.636 81.04 777.159 81.184 777.831 81.184C778.471 81.184 779.02 81.04 779.479 80.752C779.948 80.4533 780.289 80.0267 780.503 79.472L780.759 80.256C780.545 80.8107 780.172 81.2533 779.639 81.584C779.116 81.9147 778.455 82.08 777.655 82.08ZM783.127 81.984L783.207 81.008C783.282 81.0187 783.351 81.0347 783.415 81.056C783.49 81.0667 783.554 81.072 783.607 81.072C783.948 81.072 784.22 80.944 784.423 80.688C784.636 80.432 784.796 80.0907 784.903 79.664C785.01 79.2373 785.084 78.7573 785.127 78.224C785.17 77.68 785.207 77.136 785.239 76.592L785.383 73.6H791.543V82H790.407V74.256L790.695 74.592H786.119L786.391 74.24L786.263 76.672C786.231 77.3973 786.172 78.0907 786.087 78.752C786.012 79.4133 785.89 79.9947 785.719 80.496C785.559 80.9973 785.335 81.392 785.047 81.68C784.759 81.9573 784.391 82.096 783.943 82.096C783.815 82.096 783.682 82.0853 783.543 82.064C783.415 82.0427 783.276 82.016 783.127 81.984ZM798.388 76.56C799.444 76.5707 800.244 76.8053 800.788 77.264C801.343 77.7227 801.62 78.384 801.62 79.248C801.62 80.144 801.322 80.832 800.724 81.312C800.138 81.792 799.284 82.0267 798.164 82.016L794.772 82V73.6H795.908V76.528L798.388 76.56ZM798.1 81.152C798.879 81.1627 799.466 81.008 799.86 80.688C800.266 80.3573 800.468 79.8773 800.468 79.248C800.468 78.6187 800.271 78.16 799.876 77.872C799.482 77.5733 798.89 77.4187 798.1 77.408L795.908 77.376V81.12L798.1 81.152ZM803.788 82V73.6H804.924V77.312H810.22V73.6H811.356V82H810.22V78.288H804.924V82H803.788ZM818.041 82.08C817.23 82.08 816.499 81.8987 815.849 81.536C815.209 81.1627 814.702 80.656 814.329 80.016C813.955 79.3653 813.769 78.624 813.769 77.792C813.769 76.9493 813.955 76.208 814.329 75.568C814.702 74.928 815.209 74.4267 815.849 74.064C816.489 73.7013 817.219 73.52 818.041 73.52C818.873 73.52 819.609 73.7013 820.249 74.064C820.899 74.4267 821.406 74.928 821.769 75.568C822.142 76.208 822.329 76.9493 822.329 77.792C822.329 78.624 822.142 79.3653 821.769 80.016C821.406 80.656 820.899 81.1627 820.249 81.536C819.598 81.8987 818.862 82.08 818.041 82.08ZM818.041 81.072C818.649 81.072 819.187 80.9387 819.657 80.672C820.126 80.3947 820.494 80.0107 820.761 79.52C821.038 79.0187 821.177 78.4427 821.177 77.792C821.177 77.1307 821.038 76.5547 820.761 76.064C820.494 75.5733 820.126 75.1947 819.657 74.928C819.187 74.6507 818.654 74.512 818.057 74.512C817.459 74.512 816.926 74.6507 816.457 74.928C815.987 75.1947 815.614 75.5733 815.337 76.064C815.059 76.5547 814.921 77.1307 814.921 77.792C814.921 78.4427 815.059 79.0187 815.337 79.52C815.614 80.0107 815.987 80.3947 816.457 80.672C816.926 80.9387 817.454 81.072 818.041 81.072ZM824.757 82V73.6H825.893V80.272L831.509 73.6H832.517V82H831.381V75.312L825.781 82H824.757ZM828.565 72.384C827.861 72.384 827.29 72.208 826.853 71.856C826.426 71.4933 826.202 70.976 826.181 70.304H826.997C827.007 70.7307 827.157 71.0667 827.445 71.312C827.733 71.5573 828.106 71.68 828.565 71.68C829.023 71.68 829.397 71.5573 829.685 71.312C829.983 71.0667 830.138 70.7307 830.149 70.304H830.965C830.954 70.976 830.73 71.4933 830.293 71.856C829.855 72.208 829.279 72.384 828.565 72.384ZM1.616 106V97.6H9.168V106H8.032V98.288L8.32 98.592H2.464L2.752 98.288V106H1.616ZM16.7333 106.08C16.0079 106.08 15.3519 105.915 14.7653 105.584C14.1786 105.243 13.7093 104.757 13.3573 104.128C13.0159 103.488 12.8453 102.709 12.8453 101.792C12.8453 100.875 13.0159 100.101 13.3573 99.472C13.6986 98.832 14.1626 98.3467 14.7493 98.016C15.3359 97.6853 15.9973 97.52 16.7333 97.52C17.5333 97.52 18.2479 97.7013 18.8773 98.064C19.5173 98.416 20.0186 98.9173 20.3813 99.568C20.7439 100.208 20.9253 100.949 20.9253 101.792C20.9253 102.645 20.7439 103.392 20.3813 104.032C20.0186 104.672 19.5173 105.173 18.8773 105.536C18.2479 105.899 17.5333 106.08 16.7333 106.08ZM12.3973 109.104V97.6H13.4853V100.128L13.3733 101.808L13.5333 103.504V109.104H12.3973ZM16.6533 105.072C17.2506 105.072 17.7839 104.939 18.2533 104.672C18.7226 104.395 19.0959 104.011 19.3733 103.52C19.6506 103.019 19.7893 102.443 19.7893 101.792C19.7893 101.141 19.6506 100.571 19.3733 100.08C19.0959 99.5893 18.7226 99.2053 18.2533 98.928C17.7839 98.6507 17.2506 98.512 16.6533 98.512C16.0559 98.512 15.5173 98.6507 15.0373 98.928C14.5679 99.2053 14.1946 99.5893 13.9173 100.08C13.6506 100.571 13.5173 101.141 13.5173 101.792C13.5173 102.443 13.6506 103.019 13.9173 103.52C14.1946 104.011 14.5679 104.395 15.0373 104.672C15.5173 104.939 16.0559 105.072 16.6533 105.072ZM26.822 106.08C26.0113 106.08 25.2807 105.899 24.63 105.536C23.99 105.163 23.4833 104.656 23.11 104.016C22.7367 103.365 22.55 102.624 22.55 101.792C22.55 100.949 22.7367 100.208 23.11 99.568C23.4833 98.928 23.99 98.4267 24.63 98.064C25.27 97.7013 26.0007 97.52 26.822 97.52C27.654 97.52 28.39 97.7013 29.03 98.064C29.6807 98.4267 30.1873 98.928 30.55 99.568C30.9233 100.208 31.11 100.949 31.11 101.792C31.11 102.624 30.9233 103.365 30.55 104.016C30.1873 104.656 29.6807 105.163 29.03 105.536C28.3793 105.899 27.6433 106.08 26.822 106.08ZM26.822 105.072C27.43 105.072 27.9687 104.939 28.438 104.672C28.9073 104.395 29.2753 104.011 29.542 103.52C29.8193 103.019 29.958 102.443 29.958 101.792C29.958 101.131 29.8193 100.555 29.542 100.064C29.2753 99.5733 28.9073 99.1947 28.438 98.928C27.9687 98.6507 27.4353 98.512 26.838 98.512C26.2407 98.512 25.7073 98.6507 25.238 98.928C24.7687 99.1947 24.3953 99.5733 24.118 100.064C23.8407 100.555 23.702 101.131 23.702 101.792C23.702 102.443 23.8407 103.019 24.118 103.52C24.3953 104.011 24.7687 104.395 25.238 104.672C25.7073 104.939 26.2353 105.072 26.822 105.072ZM33.5379 106V97.6H37.2499C38.1992 97.6 38.9459 97.7813 39.4899 98.144C40.0445 98.5067 40.3219 99.04 40.3219 99.744C40.3219 100.427 40.0605 100.955 39.5379 101.328C39.0152 101.691 38.3272 101.872 37.4739 101.872L37.6979 101.536C38.7005 101.536 39.4365 101.723 39.9059 102.096C40.3752 102.469 40.6099 103.008 40.6099 103.712C40.6099 104.437 40.3432 105.003 39.8099 105.408C39.2872 105.803 38.4712 106 37.3619 106H33.5379ZM34.6419 105.104H37.3139C38.0285 105.104 38.5672 104.992 38.9299 104.768C39.3032 104.533 39.4899 104.16 39.4899 103.648C39.4899 103.136 39.3245 102.763 38.9939 102.528C38.6632 102.293 38.1405 102.176 37.4259 102.176H34.6419V105.104ZM34.6419 101.328H37.1699C37.8205 101.328 38.3165 101.205 38.6579 100.96C39.0099 100.715 39.1859 100.357 39.1859 99.888C39.1859 99.4187 39.0099 99.0667 38.6579 98.832C38.3165 98.5973 37.8205 98.48 37.1699 98.48H34.6419V101.328ZM46.8723 106.08C45.9976 106.08 45.2296 105.899 44.5683 105.536C43.9069 105.163 43.3896 104.656 43.0163 104.016C42.6429 103.365 42.4563 102.624 42.4563 101.792C42.4563 100.96 42.6323 100.224 42.9843 99.584C43.3469 98.944 43.8376 98.4427 44.4563 98.08C45.0856 97.7067 45.7896 97.52 46.5683 97.52C47.3576 97.52 48.0563 97.7013 48.6643 98.064C49.2829 98.416 49.7683 98.9173 50.1203 99.568C50.4723 100.208 50.6483 100.949 50.6483 101.792C50.6483 101.845 50.6429 101.904 50.6323 101.968C50.6323 102.021 50.6323 102.08 50.6323 102.144H43.3203V101.296H50.0243L49.5763 101.632C49.5763 101.024 49.4429 100.485 49.1763 100.016C48.9203 99.536 48.5683 99.1627 48.1203 98.896C47.6723 98.6293 47.1549 98.496 46.5683 98.496C45.9923 98.496 45.4749 98.6293 45.0163 98.896C44.5576 99.1627 44.2003 99.536 43.9443 100.016C43.6883 100.496 43.5603 101.045 43.5603 101.664V101.84C43.5603 102.48 43.6989 103.045 43.9763 103.536C44.2643 104.016 44.6589 104.395 45.1603 104.672C45.6723 104.939 46.2536 105.072 46.9043 105.072C47.4163 105.072 47.8909 104.981 48.3283 104.8C48.7763 104.619 49.1603 104.341 49.4803 103.968L50.1203 104.704C49.7469 105.152 49.2776 105.493 48.7123 105.728C48.1576 105.963 47.5443 106.08 46.8723 106.08ZM57.4989 106.08C56.7735 106.08 56.1175 105.915 55.5309 105.584C54.9442 105.243 54.4749 104.757 54.1229 104.128C53.7815 103.488 53.6109 102.709 53.6109 101.792C53.6109 100.875 53.7815 100.101 54.1229 99.472C54.4642 98.832 54.9282 98.3467 55.5149 98.016C56.1015 97.6853 56.7629 97.52 57.4989 97.52C58.2989 97.52 59.0135 97.7013 59.6429 98.064C60.2829 98.416 60.7842 98.9173 61.1469 99.568C61.5095 100.208 61.6909 100.949 61.6909 101.792C61.6909 102.645 61.5095 103.392 61.1469 104.032C60.7842 104.672 60.2829 105.173 59.6429 105.536C59.0135 105.899 58.2989 106.08 57.4989 106.08ZM53.1629 109.104V97.6H54.2509V100.128L54.1389 101.808L54.2989 103.504V109.104H53.1629ZM57.4189 105.072C58.0162 105.072 58.5495 104.939 59.0189 104.672C59.4882 104.395 59.8615 104.011 60.1389 103.52C60.4162 103.019 60.5549 102.443 60.5549 101.792C60.5549 101.141 60.4162 100.571 60.1389 100.08C59.8615 99.5893 59.4882 99.2053 59.0189 98.928C58.5495 98.6507 58.0162 98.512 57.4189 98.512C56.8215 98.512 56.2829 98.6507 55.8029 98.928C55.3335 99.2053 54.9602 99.5893 54.6829 100.08C54.4162 100.571 54.2829 101.141 54.2829 101.792C54.2829 102.443 54.4162 103.019 54.6829 103.52C54.9602 104.011 55.3335 104.395 55.8029 104.672C56.2829 104.939 56.8215 105.072 57.4189 105.072ZM70.2916 106L66.8356 101.84L67.7796 101.28L71.6356 106H70.2916ZM64.1316 106V97.6H65.2676V106H64.1316ZM64.9156 102.256V101.28H67.6196V102.256H64.9156ZM67.8756 101.92L66.8196 101.76L70.1636 97.6H71.3956L67.8756 101.92ZM73.4285 106V97.6H74.5645V104.272L80.1805 97.6H81.1885V106H80.0525V99.312L74.4525 106H73.4285Z" fill="#141414"/>
</svg>
