<svg width="328" height="138" viewBox="0 0 328 138" fill="none" xmlns="http://www.w3.org/2000/svg">
<path d="M1.914 21V5.6H4.862L11.418 16.468H9.856L16.302 5.6H19.25L19.272 21H15.928L15.906 10.726H16.544L11.374 19.372H9.79L4.51 10.726H5.258V21H1.914ZM35.0216 21V9.164H38.4316V21H35.0216ZM29.0596 12.948C30.6143 12.9627 31.7803 13.3147 32.5576 14.004C33.3496 14.6787 33.7456 15.6393 33.7456 16.886C33.7456 18.1913 33.2983 19.2107 32.4036 19.944C31.5089 20.6627 30.2403 21.022 28.5976 21.022L22.8336 21V9.164H26.2436V12.948H29.0596ZM28.2896 18.58C28.9496 18.5947 29.4556 18.4553 29.8076 18.162C30.1596 17.8687 30.3356 17.4287 30.3356 16.842C30.3356 16.2553 30.1596 15.8373 29.8076 15.588C29.4556 15.324 28.9496 15.1847 28.2896 15.17L26.2436 15.148V18.58H28.2896ZM53.6023 21.176C52.3263 21.176 51.1896 20.9193 50.1923 20.406C49.195 19.878 48.4103 19.152 47.8383 18.228C47.281 17.304 47.0023 16.2553 47.0023 15.082C47.0023 13.894 47.281 12.8453 47.8383 11.936C48.4103 11.012 49.195 10.2933 50.1923 9.78C51.1896 9.252 52.3263 8.988 53.6023 8.988C54.849 8.988 55.9343 9.252 56.8583 9.78C57.7823 10.2933 58.4643 11.034 58.9043 12.002L56.2423 13.432C55.9343 12.8747 55.5456 12.464 55.0763 12.2C54.6216 11.936 54.123 11.804 53.5803 11.804C52.9936 11.804 52.4656 11.936 51.9963 12.2C51.527 12.464 51.153 12.838 50.8743 13.322C50.6103 13.806 50.4783 14.3927 50.4783 15.082C50.4783 15.7713 50.6103 16.358 50.8743 16.842C51.153 17.326 51.527 17.7 51.9963 17.964C52.4656 18.228 52.9936 18.36 53.5803 18.36C54.123 18.36 54.6216 18.2353 55.0763 17.986C55.5456 17.722 55.9343 17.304 56.2423 16.732L58.9043 18.184C58.4643 19.1373 57.7823 19.878 56.8583 20.406C55.9343 20.9193 54.849 21.176 53.6023 21.176ZM66.3835 21.176C65.1221 21.176 64.0001 20.912 63.0175 20.384C62.0495 19.856 61.2795 19.1373 60.7075 18.228C60.1501 17.304 59.8715 16.2553 59.8715 15.082C59.8715 13.894 60.1501 12.8453 60.7075 11.936C61.2795 11.012 62.0495 10.2933 63.0175 9.78C64.0001 9.252 65.1221 8.988 66.3835 8.988C67.6301 8.988 68.7448 9.252 69.7275 9.78C70.7101 10.2933 71.4801 11.0047 72.0375 11.914C72.5948 12.8233 72.8735 13.8793 72.8735 15.082C72.8735 16.2553 72.5948 17.304 72.0375 18.228C71.4801 19.1373 70.7101 19.856 69.7275 20.384C68.7448 20.912 67.6301 21.176 66.3835 21.176ZM66.3835 18.36C66.9555 18.36 67.4688 18.228 67.9235 17.964C68.3781 17.7 68.7375 17.326 69.0015 16.842C69.2655 16.3433 69.3975 15.7567 69.3975 15.082C69.3975 14.3927 69.2655 13.806 69.0015 13.322C68.7375 12.838 68.3781 12.464 67.9235 12.2C67.4688 11.936 66.9555 11.804 66.3835 11.804C65.8115 11.804 65.2981 11.936 64.8435 12.2C64.3888 12.464 64.0221 12.838 63.7435 13.322C63.4795 13.806 63.3475 14.3927 63.3475 15.082C63.3475 15.7567 63.4795 16.3433 63.7435 16.842C64.0221 17.326 64.3888 17.7 64.8435 17.964C65.2981 18.228 65.8115 18.36 66.3835 18.36ZM81.108 21.264C80.14 21.264 79.26 21.1247 78.468 20.846C77.676 20.5527 76.9867 20.1053 76.4 19.504C75.828 18.888 75.3807 18.1033 75.058 17.15C74.75 16.1967 74.596 15.06 74.596 13.74C74.596 12.8013 74.6767 11.9433 74.838 11.166C74.9993 10.3887 75.2413 9.68467 75.564 9.054C75.8867 8.40867 76.2973 7.844 76.796 7.36C77.3093 6.86133 77.9033 6.45067 78.578 6.128C79.2673 5.79067 80.0447 5.534 80.91 5.358L86.542 4.236L87.004 7.184L82.032 8.174C81.7387 8.23267 81.4013 8.31333 81.02 8.416C80.6533 8.504 80.2793 8.64333 79.898 8.834C79.5313 9.02467 79.1867 9.296 78.864 9.648C78.556 9.98533 78.3067 10.4327 78.116 10.99C77.9253 11.5327 77.83 12.2073 77.83 13.014C77.83 13.2633 77.8373 13.454 77.852 13.586C77.8813 13.718 77.9033 13.8573 77.918 14.004C77.9473 14.1507 77.962 14.378 77.962 14.686L76.862 13.608C77.1847 12.9187 77.5953 12.332 78.094 11.848C78.6073 11.364 79.194 10.9973 79.854 10.748C80.5287 10.484 81.2767 10.352 82.098 10.352C83.2127 10.352 84.188 10.5793 85.024 11.034C85.8747 11.474 86.5347 12.0973 87.004 12.904C87.4733 13.7107 87.708 14.6273 87.708 15.654C87.708 16.7687 87.4293 17.7513 86.872 18.602C86.3147 19.438 85.5373 20.0907 84.54 20.56C83.5573 21.0293 82.4133 21.264 81.108 21.264ZM81.284 18.602C81.856 18.602 82.362 18.4773 82.802 18.228C83.242 17.964 83.5793 17.6193 83.814 17.194C84.0633 16.754 84.188 16.2627 84.188 15.72C84.188 15.192 84.0633 14.7227 83.814 14.312C83.5793 13.9013 83.242 13.5787 82.802 13.344C82.362 13.1093 81.8487 12.992 81.262 12.992C80.69 12.992 80.1767 13.1093 79.722 13.344C79.2673 13.564 78.9153 13.872 78.666 14.268C78.4167 14.664 78.292 15.126 78.292 15.654C78.292 16.1967 78.4167 16.6953 78.666 17.15C78.93 17.59 79.282 17.942 79.722 18.206C80.1767 18.47 80.6973 18.602 81.284 18.602ZM97.0107 21.176C96.0134 21.176 95.1407 20.956 94.3927 20.516C93.6447 20.076 93.0581 19.4087 92.6327 18.514C92.2221 17.6047 92.0167 16.4607 92.0167 15.082C92.0167 13.6887 92.2147 12.5447 92.6107 11.65C93.0067 10.7553 93.5787 10.088 94.3267 9.648C95.0747 9.208 95.9694 8.988 97.0107 8.988C98.1254 8.988 99.1227 9.24467 100.003 9.758C100.897 10.2567 101.601 10.9607 102.115 11.87C102.643 12.7793 102.907 13.85 102.907 15.082C102.907 16.3287 102.643 17.4067 102.115 18.316C101.601 19.2253 100.897 19.9293 100.003 20.428C99.1227 20.9267 98.1254 21.176 97.0107 21.176ZM90.0147 25.268V9.164H93.2927V11.584L93.2267 15.104L93.4467 18.602V25.268H90.0147ZM96.4167 18.36C96.9887 18.36 97.4947 18.228 97.9347 17.964C98.3894 17.7 98.7487 17.326 99.0127 16.842C99.2914 16.3433 99.4307 15.7567 99.4307 15.082C99.4307 14.3927 99.2914 13.806 99.0127 13.322C98.7487 12.838 98.3894 12.464 97.9347 12.2C97.4947 11.936 96.9887 11.804 96.4167 11.804C95.8447 11.804 95.3314 11.936 94.8767 12.2C94.4221 12.464 94.0627 12.838 93.7987 13.322C93.5347 13.806 93.4027 14.3927 93.4027 15.082C93.4027 15.7567 93.5347 16.3433 93.7987 16.842C94.0627 17.326 94.4221 17.7 94.8767 17.964C95.3314 18.228 95.8447 18.36 96.4167 18.36ZM112.203 21V18.69L111.983 18.184V14.048C111.983 13.3147 111.755 12.7427 111.301 12.332C110.861 11.9213 110.179 11.716 109.255 11.716C108.624 11.716 108.001 11.8187 107.385 12.024C106.783 12.2147 106.27 12.4787 105.845 12.816L104.613 10.418C105.258 9.96333 106.035 9.61133 106.945 9.362C107.854 9.11267 108.778 8.988 109.717 8.988C111.521 8.988 112.921 9.41333 113.919 10.264C114.916 11.1147 115.415 12.442 115.415 14.246V21H112.203ZM108.595 21.176C107.671 21.176 106.879 21.022 106.219 20.714C105.559 20.3913 105.053 19.9587 104.701 19.416C104.349 18.8733 104.173 18.2647 104.173 17.59C104.173 16.886 104.341 16.27 104.679 15.742C105.031 15.214 105.581 14.8033 106.329 14.51C107.077 14.202 108.052 14.048 109.255 14.048H112.401V16.05H109.629C108.822 16.05 108.265 16.182 107.957 16.446C107.663 16.71 107.517 17.04 107.517 17.436C107.517 17.876 107.685 18.228 108.023 18.492C108.375 18.7413 108.851 18.866 109.453 18.866C110.025 18.866 110.538 18.734 110.993 18.47C111.447 18.1913 111.777 17.788 111.983 17.26L112.511 18.844C112.261 19.6067 111.807 20.186 111.147 20.582C110.487 20.978 109.636 21.176 108.595 21.176ZM116.9 20.978L117.076 18.162C117.164 18.1767 117.252 18.1913 117.34 18.206C117.428 18.206 117.509 18.206 117.582 18.206C117.993 18.206 118.315 18.0887 118.55 17.854C118.785 17.6193 118.961 17.304 119.078 16.908C119.195 16.4973 119.276 16.0353 119.32 15.522C119.379 15.0087 119.423 14.4733 119.452 13.916L119.628 9.164H129.748V21H126.316V11.144L127.086 11.98H121.894L122.62 11.1L122.466 14.07C122.422 15.126 122.334 16.094 122.202 16.974C122.085 17.854 121.887 18.6167 121.608 19.262C121.329 19.8927 120.955 20.384 120.486 20.736C120.017 21.0733 119.415 21.242 118.682 21.242C118.418 21.242 118.139 21.22 117.846 21.176C117.553 21.132 117.237 21.066 116.9 20.978ZM133.048 21V9.164H136.458V16.204L142.222 9.164H145.368V21H141.958V13.96L136.216 21H133.048ZM153.402 20.978L153.578 18.162C153.666 18.1767 153.754 18.1913 153.842 18.206C153.93 18.206 154.011 18.206 154.084 18.206C154.495 18.206 154.817 18.0887 155.052 17.854C155.287 17.6193 155.463 17.304 155.58 16.908C155.697 16.4973 155.778 16.0353 155.822 15.522C155.881 15.0087 155.925 14.4733 155.954 13.916L156.13 9.164H166.25V21H162.818V11.144L163.588 11.98H158.396L159.122 11.1L158.968 14.07C158.924 15.126 158.836 16.094 158.704 16.974C158.587 17.854 158.389 18.6167 158.11 19.262C157.831 19.8927 157.457 20.384 156.988 20.736C156.519 21.0733 155.917 21.242 155.184 21.242C154.92 21.242 154.641 21.22 154.348 21.176C154.055 21.132 153.739 21.066 153.402 20.978ZM171.156 25.444C170.54 25.444 169.932 25.3487 169.33 25.158C168.729 24.9673 168.238 24.7033 167.856 24.366L169.11 21.924C169.374 22.1587 169.675 22.342 170.012 22.474C170.364 22.606 170.709 22.672 171.046 22.672C171.53 22.672 171.912 22.5547 172.19 22.32C172.484 22.1 172.748 21.726 172.982 21.198L173.598 19.746L173.862 19.372L178.108 9.164H181.408L176.062 21.726C175.681 22.6793 175.241 23.4273 174.742 23.97C174.258 24.5127 173.716 24.894 173.114 25.114C172.528 25.334 171.875 25.444 171.156 25.444ZM173.18 21.462L167.9 9.164H171.442L175.534 19.064L173.18 21.462ZM190.522 16.468C190.038 16.732 189.503 16.9447 188.916 17.106C188.329 17.2673 187.684 17.348 186.98 17.348C185.425 17.348 184.23 16.996 183.394 16.292C182.558 15.5733 182.14 14.4367 182.14 12.882V9.164H185.572V12.662C185.572 13.3953 185.763 13.9233 186.144 14.246C186.525 14.554 187.061 14.708 187.75 14.708C188.249 14.708 188.725 14.6493 189.18 14.532C189.649 14.4147 190.097 14.246 190.522 14.026V16.468ZM190.28 21V9.164H193.712V21H190.28ZM205.081 18.184L204.333 18.976V9.164H207.765V18.976L206.973 18.184H212.429L211.659 18.976V9.164H215.069V21H197.007V9.164H200.417V18.976L199.647 18.184H205.081ZM218.363 21V9.164H221.773V16.204L227.537 9.164H230.683V21H227.273V13.96L221.531 21H218.363ZM239.768 21.176C238.419 21.176 237.231 20.912 236.204 20.384C235.192 19.856 234.407 19.1373 233.85 18.228C233.293 17.304 233.014 16.2553 233.014 15.082C233.014 13.894 233.285 12.8453 233.828 11.936C234.385 11.012 235.141 10.2933 236.094 9.78C237.047 9.252 238.125 8.988 239.328 8.988C240.487 8.988 241.528 9.23733 242.452 9.736C243.391 10.22 244.131 10.924 244.674 11.848C245.217 12.7573 245.488 13.85 245.488 15.126C245.488 15.258 245.481 15.412 245.466 15.588C245.451 15.7493 245.437 15.9033 245.422 16.05H235.808V14.048H243.618L242.298 14.642C242.298 14.026 242.173 13.4907 241.924 13.036C241.675 12.5813 241.33 12.2293 240.89 11.98C240.45 11.716 239.937 11.584 239.35 11.584C238.763 11.584 238.243 11.716 237.788 11.98C237.348 12.2293 237.003 12.5887 236.754 13.058C236.505 13.5127 236.38 14.0553 236.38 14.686V15.214C236.38 15.8593 236.519 16.4313 236.798 16.93C237.091 17.414 237.495 17.788 238.008 18.052C238.536 18.3013 239.152 18.426 239.856 18.426C240.487 18.426 241.037 18.3307 241.506 18.14C241.99 17.9493 242.43 17.6633 242.826 17.282L244.652 19.262C244.109 19.878 243.427 20.3547 242.606 20.692C241.785 21.0147 240.839 21.176 239.768 21.176ZM8.624 47.176C7.62667 47.176 6.754 46.956 6.006 46.516C5.258 46.076 4.67133 45.4087 4.246 44.514C3.83533 43.6047 3.63 42.4607 3.63 41.082C3.63 39.6887 3.828 38.5447 4.224 37.65C4.62 36.7553 5.192 36.088 5.94 35.648C6.688 35.208 7.58267 34.988 8.624 34.988C9.73867 34.988 10.736 35.2447 11.616 35.758C12.5107 36.2567 13.2147 36.9607 13.728 37.87C14.256 38.7793 14.52 39.85 14.52 41.082C14.52 42.3287 14.256 43.4067 13.728 44.316C13.2147 45.2253 12.5107 45.9293 11.616 46.428C10.736 46.9267 9.73867 47.176 8.624 47.176ZM1.628 51.268V35.164H4.906V37.584L4.84 41.104L5.06 44.602V51.268H1.628ZM8.03 44.36C8.602 44.36 9.108 44.228 9.548 43.964C10.0027 43.7 10.362 43.326 10.626 42.842C10.9047 42.3433 11.044 41.7567 11.044 41.082C11.044 40.3927 10.9047 39.806 10.626 39.322C10.362 38.838 10.0027 38.464 9.548 38.2C9.108 37.936 8.602 37.804 8.03 37.804C7.458 37.804 6.94467 37.936 6.49 38.2C6.03533 38.464 5.676 38.838 5.412 39.322C5.148 39.806 5.016 40.3927 5.016 41.082C5.016 41.7567 5.148 42.3433 5.412 42.842C5.676 43.326 6.03533 43.7 6.49 43.964C6.94467 44.228 7.458 44.36 8.03 44.36ZM22.7114 47.176C21.3621 47.176 20.1741 46.912 19.1474 46.384C18.1354 45.856 17.3507 45.1373 16.7934 44.228C16.2361 43.304 15.9574 42.2553 15.9574 41.082C15.9574 39.894 16.2287 38.8453 16.7714 37.936C17.3287 37.012 18.0841 36.2933 19.0374 35.78C19.9907 35.252 21.0687 34.988 22.2714 34.988C23.4301 34.988 24.4714 35.2373 25.3954 35.736C26.3341 36.22 27.0747 36.924 27.6174 37.848C28.1601 38.7573 28.4314 39.85 28.4314 41.126C28.4314 41.258 28.4241 41.412 28.4094 41.588C28.3947 41.7493 28.3801 41.9033 28.3654 42.05H18.7514V40.048H26.5614L25.2414 40.642C25.2414 40.026 25.1167 39.4907 24.8674 39.036C24.6181 38.5813 24.2734 38.2293 23.8334 37.98C23.3934 37.716 22.8801 37.584 22.2934 37.584C21.7067 37.584 21.1861 37.716 20.7314 37.98C20.2914 38.2293 19.9467 38.5887 19.6974 39.058C19.4481 39.5127 19.3234 40.0553 19.3234 40.686V41.214C19.3234 41.8593 19.4627 42.4313 19.7414 42.93C20.0347 43.414 20.4381 43.788 20.9514 44.052C21.4794 44.3013 22.0954 44.426 22.7994 44.426C23.4301 44.426 23.9801 44.3307 24.4494 44.14C24.9334 43.9493 25.3734 43.6633 25.7694 43.282L27.5954 45.262C27.0527 45.878 26.3707 46.3547 25.5494 46.692C24.7281 47.0147 23.7821 47.176 22.7114 47.176ZM39.1361 44.184L38.3881 44.976V35.164H41.8201V44.976L41.0281 44.184H46.4841L45.7141 44.976V35.164H49.1241V47H31.0621V35.164H34.4721V44.976L33.7021 44.184H39.1361ZM58.2036 47.176C56.8542 47.176 55.6662 46.912 54.6396 46.384C53.6276 45.856 52.8429 45.1373 52.2856 44.228C51.7282 43.304 51.4496 42.2553 51.4496 41.082C51.4496 39.894 51.7209 38.8453 52.2636 37.936C52.8209 37.012 53.5762 36.2933 54.5296 35.78C55.4829 35.252 56.5609 34.988 57.7636 34.988C58.9222 34.988 59.9636 35.2373 60.8876 35.736C61.8262 36.22 62.5669 36.924 63.1096 37.848C63.6522 38.7573 63.9236 39.85 63.9236 41.126C63.9236 41.258 63.9162 41.412 63.9016 41.588C63.8869 41.7493 63.8722 41.9033 63.8576 42.05H54.2436V40.048H62.0536L60.7336 40.642C60.7336 40.026 60.6089 39.4907 60.3596 39.036C60.1102 38.5813 59.7656 38.2293 59.3256 37.98C58.8856 37.716 58.3722 37.584 57.7856 37.584C57.1989 37.584 56.6782 37.716 56.2236 37.98C55.7836 38.2293 55.4389 38.5887 55.1896 39.058C54.9402 39.5127 54.8156 40.0553 54.8156 40.686V41.214C54.8156 41.8593 54.9549 42.4313 55.2336 42.93C55.5269 43.414 55.9302 43.788 56.4436 44.052C56.9716 44.3013 57.5876 44.426 58.2916 44.426C58.9222 44.426 59.4722 44.3307 59.9416 44.14C60.4256 43.9493 60.8656 43.6633 61.2616 43.282L63.0876 45.262C62.5449 45.878 61.8629 46.3547 61.0416 46.692C60.2202 47.0147 59.2742 47.176 58.2036 47.176ZM66.5543 47V35.164H69.9643V39.784H75.1123V35.164H78.5443V47H75.1123V42.578H69.9643V47H66.5543ZM81.8297 47V35.164H85.2397V42.204L91.0037 35.164H94.1497V47H90.7397V39.96L84.9977 47H81.8297ZM104.907 47V43.062L105.391 43.612H102.113C100.411 43.612 99.0768 43.26 98.1088 42.556C97.1408 41.852 96.6568 40.84 96.6568 39.52C96.6568 38.112 97.1628 37.034 98.1748 36.286C99.2015 35.538 100.58 35.164 102.311 35.164H107.965V47H104.907ZM96.4808 47L99.6268 42.49H103.125L100.133 47H96.4808ZM104.907 42.006V37.078L105.391 37.958H102.377C101.673 37.958 101.123 38.09 100.727 38.354C100.345 38.618 100.155 39.0433 100.155 39.63C100.155 40.7593 100.881 41.324 102.333 41.324H105.391L104.907 42.006ZM117.494 47V35.164H129.264V47H125.832V37.21L126.602 37.98H120.134L120.904 37.21V47H117.494ZM138.098 47.176C136.837 47.176 135.715 46.912 134.732 46.384C133.764 45.856 132.994 45.1373 132.422 44.228C131.865 43.304 131.586 42.2553 131.586 41.082C131.586 39.894 131.865 38.8453 132.422 37.936C132.994 37.012 133.764 36.2933 134.732 35.78C135.715 35.252 136.837 34.988 138.098 34.988C139.345 34.988 140.46 35.252 141.442 35.78C142.425 36.2933 143.195 37.0047 143.752 37.914C144.31 38.8233 144.588 39.8793 144.588 41.082C144.588 42.2553 144.31 43.304 143.752 44.228C143.195 45.1373 142.425 45.856 141.442 46.384C140.46 46.912 139.345 47.176 138.098 47.176ZM138.098 44.36C138.67 44.36 139.184 44.228 139.638 43.964C140.093 43.7 140.452 43.326 140.716 42.842C140.98 42.3433 141.112 41.7567 141.112 41.082C141.112 40.3927 140.98 39.806 140.716 39.322C140.452 38.838 140.093 38.464 139.638 38.2C139.184 37.936 138.67 37.804 138.098 37.804C137.526 37.804 137.013 37.936 136.558 38.2C136.104 38.464 135.737 38.838 135.458 39.322C135.194 39.806 135.062 40.3927 135.062 41.082C135.062 41.7567 135.194 42.3433 135.458 42.842C135.737 43.326 136.104 43.7 136.558 43.964C137.013 44.228 137.526 44.36 138.098 44.36ZM158.811 47.176C157.535 47.176 156.399 46.9193 155.401 46.406C154.404 45.878 153.619 45.152 153.047 44.228C152.49 43.304 152.211 42.2553 152.211 41.082C152.211 39.894 152.49 38.8453 153.047 37.936C153.619 37.012 154.404 36.2933 155.401 35.78C156.399 35.252 157.535 34.988 158.811 34.988C160.058 34.988 161.143 35.252 162.067 35.78C162.991 36.2933 163.673 37.034 164.113 38.002L161.451 39.432C161.143 38.8747 160.755 38.464 160.285 38.2C159.831 37.936 159.332 37.804 158.789 37.804C158.203 37.804 157.675 37.936 157.205 38.2C156.736 38.464 156.362 38.838 156.083 39.322C155.819 39.806 155.687 40.3927 155.687 41.082C155.687 41.7713 155.819 42.358 156.083 42.842C156.362 43.326 156.736 43.7 157.205 43.964C157.675 44.228 158.203 44.36 158.789 44.36C159.332 44.36 159.831 44.2353 160.285 43.986C160.755 43.722 161.143 43.304 161.451 42.732L164.113 44.184C163.673 45.1373 162.991 45.878 162.067 46.406C161.143 46.9193 160.058 47.176 158.811 47.176ZM168.707 47V37.188L169.477 37.98H164.703V35.164H176.121V37.98H171.347L172.117 37.188V47H168.707ZM177.951 47V35.164H181.361V42.204L187.125 35.164H190.271V47H186.861V39.96L181.119 47H177.951ZM192.074 46.978L192.25 44.162C192.338 44.1767 192.426 44.1913 192.514 44.206C192.602 44.206 192.683 44.206 192.756 44.206C193.167 44.206 193.489 44.0887 193.724 43.854C193.959 43.6193 194.135 43.304 194.252 42.908C194.369 42.4973 194.45 42.0353 194.494 41.522C194.553 41.0087 194.597 40.4733 194.626 39.916L194.802 35.164H204.922V47H201.49V37.144L202.26 37.98H197.068L197.794 37.1L197.64 40.07C197.596 41.126 197.508 42.094 197.376 42.974C197.259 43.854 197.061 44.6167 196.782 45.262C196.503 45.8927 196.129 46.384 195.66 46.736C195.191 47.0733 194.589 47.242 193.856 47.242C193.592 47.242 193.313 47.22 193.02 47.176C192.727 47.132 192.411 47.066 192.074 46.978ZM208.222 47V35.164H211.632V39.52H215.108V42.49H211.632V47H208.222ZM219.42 47.176C218.203 47.176 217.118 46.912 216.164 46.384C215.211 45.856 214.463 45.1373 213.92 44.228C213.378 43.304 213.106 42.2553 213.106 41.082C213.106 39.894 213.378 38.8453 213.92 37.936C214.463 37.012 215.211 36.2933 216.164 35.78C217.118 35.252 218.203 34.988 219.42 34.988C220.638 34.988 221.716 35.252 222.654 35.78C223.608 36.2933 224.356 37.012 224.898 37.936C225.441 38.8453 225.712 39.894 225.712 41.082C225.712 42.2553 225.441 43.304 224.898 44.228C224.356 45.152 223.608 45.878 222.654 46.406C221.716 46.9193 220.638 47.176 219.42 47.176ZM219.42 44.36C219.978 44.36 220.469 44.228 220.894 43.964C221.334 43.7 221.679 43.326 221.928 42.842C222.192 42.3433 222.324 41.7567 222.324 41.082C222.324 40.3927 222.192 39.806 221.928 39.322C221.679 38.838 221.334 38.464 220.894 38.2C220.469 37.936 219.978 37.804 219.42 37.804C218.878 37.804 218.379 37.936 217.924 38.2C217.484 38.464 217.132 38.838 216.868 39.322C216.619 39.806 216.494 40.3927 216.494 41.082C216.494 41.7567 216.619 42.3433 216.868 42.842C217.132 43.326 217.484 43.7 217.924 43.964C218.379 44.228 218.878 44.36 219.42 44.36ZM227.306 50.388L228.758 45.108L229.242 47.088C228.612 47.088 228.091 46.9047 227.68 46.538C227.284 46.1713 227.086 45.6653 227.086 45.02C227.086 44.3747 227.292 43.8613 227.702 43.48C228.113 43.0987 228.619 42.908 229.22 42.908C229.836 42.908 230.342 43.106 230.738 43.502C231.134 43.8833 231.332 44.3893 231.332 45.02C231.332 45.2107 231.318 45.4013 231.288 45.592C231.259 45.768 231.2 45.988 231.112 46.252C231.039 46.5013 230.914 46.824 230.738 47.22L229.484 50.388H227.306ZM1.65 73V61.164H5.236L9.702 69.26H8.272L13.046 61.164H16.258L16.302 73H13.2V64.684L13.728 65.036L9.658 71.856H8.206L4.114 64.794L4.752 64.64V73H1.65ZM26.6735 73V70.69L26.4535 70.184V66.048C26.4535 65.3147 26.2261 64.7427 25.7715 64.332C25.3315 63.9213 24.6495 63.716 23.7255 63.716C23.0948 63.716 22.4715 63.8187 21.8555 64.024C21.2541 64.2147 20.7408 64.4787 20.3155 64.816L19.0835 62.418C19.7288 61.9633 20.5061 61.6113 21.4155 61.362C22.3248 61.1127 23.2488 60.988 24.1875 60.988C25.9915 60.988 27.3921 61.4133 28.3895 62.264C29.3868 63.1147 29.8855 64.442 29.8855 66.246V73H26.6735ZM23.0655 73.176C22.1415 73.176 21.3495 73.022 20.6895 72.714C20.0295 72.3913 19.5235 71.9587 19.1715 71.416C18.8195 70.8733 18.6435 70.2647 18.6435 69.59C18.6435 68.886 18.8121 68.27 19.1495 67.742C19.5015 67.214 20.0515 66.8033 20.7995 66.51C21.5475 66.202 22.5228 66.048 23.7255 66.048H26.8715V68.05H24.0995C23.2928 68.05 22.7355 68.182 22.4275 68.446C22.1341 68.71 21.9875 69.04 21.9875 69.436C21.9875 69.876 22.1561 70.228 22.4935 70.492C22.8455 70.7413 23.3221 70.866 23.9235 70.866C24.4955 70.866 25.0088 70.734 25.4635 70.47C25.9181 70.1913 26.2481 69.788 26.4535 69.26L26.9815 70.844C26.7321 71.6067 26.2775 72.186 25.6175 72.582C24.9575 72.978 24.1068 73.176 23.0655 73.176ZM35.3968 73V63.188L36.1668 63.98H31.3928V61.164H42.8108V63.98H38.0368L38.8068 63.188V73H35.3968ZM49.9321 73.176C48.5828 73.176 47.3948 72.912 46.3681 72.384C45.3561 71.856 44.5714 71.1373 44.0141 70.228C43.4568 69.304 43.1781 68.2553 43.1781 67.082C43.1781 65.894 43.4494 64.8453 43.9921 63.936C44.5494 63.012 45.3048 62.2933 46.2581 61.78C47.2114 61.252 48.2894 60.988 49.4921 60.988C50.6508 60.988 51.6921 61.2373 52.6161 61.736C53.5548 62.22 54.2954 62.924 54.8381 63.848C55.3808 64.7573 55.6521 65.85 55.6521 67.126C55.6521 67.258 55.6448 67.412 55.6301 67.588C55.6154 67.7493 55.6008 67.9033 55.5861 68.05H45.9721V66.048H53.7821L52.4621 66.642C52.4621 66.026 52.3374 65.4907 52.0881 65.036C51.8388 64.5813 51.4941 64.2293 51.0541 63.98C50.6141 63.716 50.1008 63.584 49.5141 63.584C48.9274 63.584 48.4068 63.716 47.9521 63.98C47.5121 64.2293 47.1674 64.5887 46.9181 65.058C46.6688 65.5127 46.5441 66.0553 46.5441 66.686V67.214C46.5441 67.8593 46.6834 68.4313 46.9621 68.93C47.2554 69.414 47.6588 69.788 48.1721 70.052C48.7001 70.3013 49.3161 70.426 50.0201 70.426C50.6508 70.426 51.2008 70.3307 51.6701 70.14C52.1541 69.9493 52.5941 69.6633 52.9901 69.282L54.8161 71.262C54.2734 71.878 53.5914 72.3547 52.7701 72.692C51.9488 73.0147 51.0028 73.176 49.9321 73.176ZM65.2568 73.176C64.2595 73.176 63.3868 72.956 62.6388 72.516C61.8908 72.076 61.3041 71.4087 60.8788 70.514C60.4681 69.6047 60.2628 68.4607 60.2628 67.082C60.2628 65.6887 60.4608 64.5447 60.8568 63.65C61.2528 62.7553 61.8248 62.088 62.5728 61.648C63.3208 61.208 64.2155 60.988 65.2568 60.988C66.3715 60.988 67.3688 61.2447 68.2488 61.758C69.1435 62.2567 69.8475 62.9607 70.3608 63.87C70.8888 64.7793 71.1528 65.85 71.1528 67.082C71.1528 68.3287 70.8888 69.4067 70.3608 70.316C69.8475 71.2253 69.1435 71.9293 68.2488 72.428C67.3688 72.9267 66.3715 73.176 65.2568 73.176ZM58.2608 77.268V61.164H61.5388V63.584L61.4728 67.104L61.6928 70.602V77.268H58.2608ZM64.6628 70.36C65.2348 70.36 65.7408 70.228 66.1808 69.964C66.6355 69.7 66.9948 69.326 67.2588 68.842C67.5375 68.3433 67.6768 67.7567 67.6768 67.082C67.6768 66.3927 67.5375 65.806 67.2588 65.322C66.9948 64.838 66.6355 64.464 66.1808 64.2C65.7408 63.936 65.2348 63.804 64.6628 63.804C64.0908 63.804 63.5775 63.936 63.1228 64.2C62.6681 64.464 62.3088 64.838 62.0448 65.322C61.7808 65.806 61.6488 66.3927 61.6488 67.082C61.6488 67.7567 61.7808 68.3433 62.0448 68.842C62.3088 69.326 62.6681 69.7 63.1228 69.964C63.5775 70.228 64.0908 70.36 64.6628 70.36ZM73.5582 73V61.164H76.9682V68.204L82.7322 61.164H85.8782V73H82.4682V65.96L76.7262 73H73.5582ZM96.2613 73V70.69L96.0413 70.184V66.048C96.0413 65.3147 95.814 64.7427 95.3593 64.332C94.9193 63.9213 94.2373 63.716 93.3133 63.716C92.6827 63.716 92.0593 63.8187 91.4433 64.024C90.842 64.2147 90.3287 64.4787 89.9033 64.816L88.6713 62.418C89.3167 61.9633 90.094 61.6113 91.0033 61.362C91.9127 61.1127 92.8367 60.988 93.7753 60.988C95.5793 60.988 96.98 61.4133 97.9773 62.264C98.9747 63.1147 99.4733 64.442 99.4733 66.246V73H96.2613ZM92.6533 73.176C91.7293 73.176 90.9373 73.022 90.2773 72.714C89.6173 72.3913 89.1113 71.9587 88.7593 71.416C88.4073 70.8733 88.2313 70.2647 88.2313 69.59C88.2313 68.886 88.4 68.27 88.7373 67.742C89.0893 67.214 89.6393 66.8033 90.3873 66.51C91.1353 66.202 92.1107 66.048 93.3133 66.048H96.4593V68.05H93.6873C92.8807 68.05 92.3233 68.182 92.0153 68.446C91.722 68.71 91.5753 69.04 91.5753 69.436C91.5753 69.876 91.744 70.228 92.0813 70.492C92.4333 70.7413 92.91 70.866 93.5113 70.866C94.0833 70.866 94.5967 70.734 95.0513 70.47C95.506 70.1913 95.836 69.788 96.0413 69.26L96.5693 70.844C96.32 71.6067 95.8653 72.186 95.2053 72.582C94.5453 72.978 93.6947 73.176 92.6533 73.176ZM100.959 72.978L101.135 70.162C101.223 70.1767 101.311 70.1913 101.399 70.206C101.487 70.206 101.567 70.206 101.641 70.206C102.051 70.206 102.374 70.0887 102.609 69.854C102.843 69.6193 103.019 69.304 103.137 68.908C103.254 68.4973 103.335 68.0353 103.379 67.522C103.437 67.0087 103.481 66.4733 103.511 65.916L103.687 61.164H113.807V73H110.375V63.144L111.145 63.98H105.953L106.679 63.1L106.525 66.07C106.481 67.126 106.393 68.094 106.261 68.974C106.143 69.854 105.945 70.6167 105.667 71.262C105.388 71.8927 105.014 72.384 104.545 72.736C104.075 73.0733 103.474 73.242 102.741 73.242C102.477 73.242 102.198 73.22 101.905 73.176C101.611 73.132 101.296 73.066 100.959 72.978ZM124.191 73V70.69L123.971 70.184V66.048C123.971 65.3147 123.744 64.7427 123.289 64.332C122.849 63.9213 122.167 63.716 121.243 63.716C120.612 63.716 119.989 63.8187 119.373 64.024C118.772 64.2147 118.258 64.4787 117.833 64.816L116.601 62.418C117.246 61.9633 118.024 61.6113 118.933 61.362C119.842 61.1127 120.766 60.988 121.705 60.988C123.509 60.988 124.91 61.4133 125.907 62.264C126.904 63.1147 127.403 64.442 127.403 66.246V73H124.191ZM120.583 73.176C119.659 73.176 118.867 73.022 118.207 72.714C117.547 72.3913 117.041 71.9587 116.689 71.416C116.337 70.8733 116.161 70.2647 116.161 69.59C116.161 68.886 116.33 68.27 116.667 67.742C117.019 67.214 117.569 66.8033 118.317 66.51C119.065 66.202 120.04 66.048 121.243 66.048H124.389V68.05H121.617C120.81 68.05 120.253 68.182 119.945 68.446C119.652 68.71 119.505 69.04 119.505 69.436C119.505 69.876 119.674 70.228 120.011 70.492C120.363 70.7413 120.84 70.866 121.441 70.866C122.013 70.866 122.526 70.734 122.981 70.47C123.436 70.1913 123.766 69.788 123.971 69.26L124.499 70.844C124.25 71.6067 123.795 72.186 123.135 72.582C122.475 72.978 121.624 73.176 120.583 73.176ZM130.384 73V61.164H133.97L138.436 69.26H137.006L141.78 61.164H144.992L145.036 73H141.934V64.684L142.462 65.036L138.392 71.856H136.94L132.848 64.794L133.486 64.64V73H130.384ZM154.554 73V61.164H157.964V68.204L163.728 61.164H166.874V73H163.464V65.96L157.722 73H154.554ZM178.934 73V63.188L179.704 63.98H174.93V61.164H186.348V63.98H181.574L182.344 63.188V73H178.934ZM195.151 73.176C194.154 73.176 193.281 72.956 192.533 72.516C191.785 72.076 191.199 71.4087 190.773 70.514C190.363 69.6047 190.157 68.4607 190.157 67.082C190.157 65.6887 190.355 64.5447 190.751 63.65C191.147 62.7553 191.719 62.088 192.467 61.648C193.215 61.208 194.11 60.988 195.151 60.988C196.266 60.988 197.263 61.2447 198.143 61.758C199.038 62.2567 199.742 62.9607 200.255 63.87C200.783 64.7793 201.047 65.85 201.047 67.082C201.047 68.3287 200.783 69.4067 200.255 70.316C199.742 71.2253 199.038 71.9293 198.143 72.428C197.263 72.9267 196.266 73.176 195.151 73.176ZM188.155 77.268V61.164H191.433V63.584L191.367 67.104L191.587 70.602V77.268H188.155ZM194.557 70.36C195.129 70.36 195.635 70.228 196.075 69.964C196.53 69.7 196.889 69.326 197.153 68.842C197.432 68.3433 197.571 67.7567 197.571 67.082C197.571 66.3927 197.432 65.806 197.153 65.322C196.889 64.838 196.53 64.464 196.075 64.2C195.635 63.936 195.129 63.804 194.557 63.804C193.985 63.804 193.472 63.936 193.017 64.2C192.563 64.464 192.203 64.838 191.939 65.322C191.675 65.806 191.543 66.3927 191.543 67.082C191.543 67.7567 191.675 68.3433 191.939 68.842C192.203 69.326 192.563 69.7 193.017 69.964C193.472 70.228 193.985 70.36 194.557 70.36ZM209.239 73.176C207.889 73.176 206.701 72.912 205.675 72.384C204.663 71.856 203.878 71.1373 203.321 70.228C202.763 69.304 202.485 68.2553 202.485 67.082C202.485 65.894 202.756 64.8453 203.299 63.936C203.856 63.012 204.611 62.2933 205.565 61.78C206.518 61.252 207.596 60.988 208.799 60.988C209.957 60.988 210.999 61.2373 211.923 61.736C212.861 62.22 213.602 62.924 214.145 63.848C214.687 64.7573 214.959 65.85 214.959 67.126C214.959 67.258 214.951 67.412 214.937 67.588C214.922 67.7493 214.907 67.9033 214.893 68.05H205.279V66.048H213.089L211.769 66.642C211.769 66.026 211.644 65.4907 211.395 65.036C211.145 64.5813 210.801 64.2293 210.361 63.98C209.921 63.716 209.407 63.584 208.821 63.584C208.234 63.584 207.713 63.716 207.259 63.98C206.819 64.2293 206.474 64.5887 206.225 65.058C205.975 65.5127 205.851 66.0553 205.851 66.686V67.214C205.851 67.8593 205.99 68.4313 206.269 68.93C206.562 69.414 206.965 69.788 207.479 70.052C208.007 70.3013 208.623 70.426 209.327 70.426C209.957 70.426 210.507 70.3307 210.977 70.14C211.461 69.9493 211.901 69.6633 212.297 69.282L214.123 71.262C213.58 71.878 212.898 72.3547 212.077 72.692C211.255 73.0147 210.309 73.176 209.239 73.176ZM217.589 73V61.164H220.999V65.784H226.147V61.164H229.579V73H226.147V68.578H220.999V73H217.589ZM241.005 71.46V63.98H237.133L237.067 65.498C237.038 66.1287 237.001 66.73 236.957 67.302C236.913 67.874 236.825 68.3947 236.693 68.864C236.576 69.3187 236.4 69.7073 236.165 70.03C235.93 70.338 235.615 70.5507 235.219 70.668L231.831 70.184C232.256 70.184 232.601 70.0593 232.865 69.81C233.129 69.546 233.334 69.1867 233.481 68.732C233.628 68.2627 233.738 67.7347 233.811 67.148C233.884 66.5467 233.936 65.916 233.965 65.256L234.119 61.164H244.437V71.46H241.005ZM231.435 75.552V70.184H246.131V75.552H242.941V73H234.625V75.552H231.435ZM255.375 73V70.69L255.155 70.184V66.048C255.155 65.3147 254.927 64.7427 254.473 64.332C254.033 63.9213 253.351 63.716 252.427 63.716C251.796 63.716 251.173 63.8187 250.557 64.024C249.955 64.2147 249.442 64.4787 249.017 64.816L247.785 62.418C248.43 61.9633 249.207 61.6113 250.117 61.362C251.026 61.1127 251.95 60.988 252.889 60.988C254.693 60.988 256.093 61.4133 257.091 62.264C258.088 63.1147 258.587 64.442 258.587 66.246V73H255.375ZM251.767 73.176C250.843 73.176 250.051 73.022 249.391 72.714C248.731 72.3913 248.225 71.9587 247.873 71.416C247.521 70.8733 247.345 70.2647 247.345 69.59C247.345 68.886 247.513 68.27 247.851 67.742C248.203 67.214 248.753 66.8033 249.501 66.51C250.249 66.202 251.224 66.048 252.427 66.048H255.573V68.05H252.801C251.994 68.05 251.437 68.182 251.129 68.446C250.835 68.71 250.689 69.04 250.689 69.436C250.689 69.876 250.857 70.228 251.195 70.492C251.547 70.7413 252.023 70.866 252.625 70.866C253.197 70.866 253.71 70.734 254.165 70.47C254.619 70.1913 254.949 69.788 255.155 69.26L255.683 70.844C255.433 71.6067 254.979 72.186 254.319 72.582C253.659 72.978 252.808 73.176 251.767 73.176ZM261.568 73V61.164H265.154L269.62 69.26H268.19L272.964 61.164H276.176L276.22 73H273.118V64.684L273.646 65.036L269.576 71.856H268.124L264.032 64.794L264.67 64.64V73H261.568Z" fill="#141414"/>
<path d="M8.82 100.2H9.842V110H8.82V100.2ZM2.688 110H1.652V100.2H2.688V110ZM8.918 105.478H2.576V104.568H8.918V105.478ZM17.476 110V108.376L17.434 108.11V105.394C17.434 104.769 17.2567 104.288 16.902 103.952C16.5567 103.616 16.0387 103.448 15.348 103.448C14.872 103.448 14.4194 103.527 13.99 103.686C13.5607 103.845 13.1967 104.055 12.898 104.316L12.45 103.574C12.8234 103.257 13.2714 103.014 13.794 102.846C14.3167 102.669 14.8674 102.58 15.446 102.58C16.398 102.58 17.1307 102.818 17.644 103.294C18.1667 103.761 18.428 104.475 18.428 105.436V110H17.476ZM14.942 110.07C14.3914 110.07 13.9107 109.981 13.5 109.804C13.0987 109.617 12.7907 109.365 12.576 109.048C12.3614 108.721 12.254 108.348 12.254 107.928C12.254 107.545 12.3427 107.2 12.52 106.892C12.7067 106.575 13.0054 106.323 13.416 106.136C13.836 105.94 14.396 105.842 15.096 105.842H17.63V106.584H15.124C14.4147 106.584 13.92 106.71 13.64 106.962C13.3694 107.214 13.234 107.527 13.234 107.9C13.234 108.32 13.3974 108.656 13.724 108.908C14.0507 109.16 14.508 109.286 15.096 109.286C15.656 109.286 16.1367 109.16 16.538 108.908C16.9487 108.647 17.2474 108.273 17.434 107.788L17.658 108.474C17.4714 108.959 17.1447 109.347 16.678 109.636C16.2207 109.925 15.642 110.07 14.942 110.07ZM21.0742 110V102.65H22.0682V108.488L26.9822 102.65H27.8642V110H26.8702V104.148L21.9702 110H21.0742ZM24.4062 101.586C23.7902 101.586 23.2908 101.432 22.9082 101.124C22.5348 100.807 22.3388 100.354 22.3202 99.766H23.0342C23.0435 100.139 23.1742 100.433 23.4262 100.648C23.6782 100.863 24.0048 100.97 24.4062 100.97C24.8075 100.97 25.1342 100.863 25.3862 100.648C25.6475 100.433 25.7828 100.139 25.7922 99.766H26.5062C26.4968 100.354 26.3008 100.807 25.9182 101.124C25.5355 101.432 25.0315 101.586 24.4062 101.586ZM35.7528 109.524V103.518H32.2108L32.1268 105.156C32.1082 105.651 32.0755 106.136 32.0288 106.612C31.9915 107.088 31.9215 107.527 31.8188 107.928C31.7255 108.32 31.5902 108.642 31.4128 108.894C31.2355 109.137 31.0068 109.277 30.7268 109.314L29.7328 109.132C30.0222 109.141 30.2602 109.039 30.4468 108.824C30.6335 108.6 30.7782 108.297 30.8808 107.914C30.9835 107.531 31.0582 107.097 31.1048 106.612C31.1515 106.117 31.1888 105.613 31.2168 105.1L31.3148 102.65H36.7468V109.524H35.7528ZM29.4248 111.778V109.132H37.8948V111.778H36.9568V110H30.3628V111.778H29.4248ZM39.832 110V102.65H40.826V108.488L45.74 102.65H46.622V110H45.628V104.148L40.728 110H39.832ZM50.8706 110V103.252L51.1226 103.518H48.0846V102.65H54.6506V103.518H51.6126L51.8646 103.252V110H50.8706ZM58.896 110.07C58.1307 110.07 57.4587 109.911 56.88 109.594C56.3014 109.267 55.8487 108.824 55.522 108.264C55.1954 107.695 55.032 107.046 55.032 106.318C55.032 105.59 55.186 104.946 55.494 104.386C55.8114 103.826 56.2407 103.387 56.782 103.07C57.3327 102.743 57.9487 102.58 58.63 102.58C59.3207 102.58 59.932 102.739 60.464 103.056C61.0054 103.364 61.43 103.803 61.738 104.372C62.046 104.932 62.2 105.581 62.2 106.318C62.2 106.365 62.1954 106.416 62.186 106.472C62.186 106.519 62.186 106.57 62.186 106.626H55.788V105.884H61.654L61.262 106.178C61.262 105.646 61.1454 105.175 60.912 104.764C60.688 104.344 60.38 104.017 59.988 103.784C59.596 103.551 59.1434 103.434 58.63 103.434C58.126 103.434 57.6734 103.551 57.272 103.784C56.8707 104.017 56.558 104.344 56.334 104.764C56.11 105.184 55.998 105.665 55.998 106.206V106.36C55.998 106.92 56.1194 107.415 56.362 107.844C56.614 108.264 56.9594 108.595 57.398 108.838C57.846 109.071 58.3547 109.188 58.924 109.188C59.372 109.188 59.7874 109.109 60.17 108.95C60.562 108.791 60.898 108.549 61.178 108.222L61.738 108.866C61.4114 109.258 61.0007 109.557 60.506 109.762C60.0207 109.967 59.484 110.07 58.896 110.07ZM71.1444 110.07C70.4164 110.07 69.7631 109.911 69.1844 109.594C68.6151 109.267 68.1671 108.824 67.8404 108.264C67.5137 107.695 67.3504 107.046 67.3504 106.318C67.3504 105.581 67.5137 104.932 67.8404 104.372C68.1671 103.812 68.6151 103.373 69.1844 103.056C69.7631 102.739 70.4164 102.58 71.1444 102.58C71.7697 102.58 72.3344 102.701 72.8384 102.944C73.3424 103.187 73.7391 103.551 74.0284 104.036L73.2864 104.54C73.0344 104.167 72.7217 103.891 72.3484 103.714C71.9751 103.537 71.5691 103.448 71.1304 103.448C70.6077 103.448 70.1364 103.569 69.7164 103.812C69.2964 104.045 68.9651 104.377 68.7224 104.806C68.4797 105.235 68.3584 105.739 68.3584 106.318C68.3584 106.897 68.4797 107.401 68.7224 107.83C68.9651 108.259 69.2964 108.595 69.7164 108.838C70.1364 109.071 70.6077 109.188 71.1304 109.188C71.5691 109.188 71.9751 109.099 72.3484 108.922C72.7217 108.745 73.0344 108.474 73.2864 108.11L74.0284 108.614C73.7391 109.09 73.3424 109.454 72.8384 109.706C72.3344 109.949 71.7697 110.07 71.1444 110.07ZM77.2163 110V103.252L77.4683 103.518H74.4303V102.65H80.9963V103.518H77.9583L78.2103 103.252V110H77.2163ZM82.4335 110V102.65H83.4275V108.488L88.3415 102.65H89.2235V110H88.2295V104.148L83.3295 110H82.4335ZM90.7282 109.986L90.7982 109.132C90.8635 109.141 90.9242 109.155 90.9802 109.174C91.0455 109.183 91.1015 109.188 91.1482 109.188C91.4469 109.188 91.6849 109.076 91.8622 108.852C92.0489 108.628 92.1889 108.329 92.2822 107.956C92.3755 107.583 92.4409 107.163 92.4782 106.696C92.5155 106.22 92.5482 105.744 92.5762 105.268L92.7022 102.65H98.0922V110H97.0982V103.224L97.3502 103.518H93.3462L93.5842 103.21L93.4722 105.338C93.4442 105.973 93.3929 106.579 93.3182 107.158C93.2529 107.737 93.1455 108.245 92.9962 108.684C92.8562 109.123 92.6602 109.468 92.4082 109.72C92.1562 109.963 91.8342 110.084 91.4422 110.084C91.3302 110.084 91.2135 110.075 91.0922 110.056C90.9802 110.037 90.8589 110.014 90.7282 109.986ZM104.082 105.24C105.006 105.249 105.706 105.455 106.182 105.856C106.667 106.257 106.91 106.836 106.91 107.592C106.91 108.376 106.649 108.978 106.126 109.398C105.613 109.818 104.866 110.023 103.886 110.014L100.918 110V102.65H101.912V105.212L104.082 105.24ZM103.83 109.258C104.511 109.267 105.025 109.132 105.37 108.852C105.725 108.563 105.902 108.143 105.902 107.592C105.902 107.041 105.729 106.64 105.384 106.388C105.039 106.127 104.521 105.991 103.83 105.982L101.912 105.954V109.23L103.83 109.258ZM108.067 112.044L108.683 109.454L108.795 110.056C108.581 110.056 108.399 109.986 108.249 109.846C108.109 109.706 108.039 109.524 108.039 109.3C108.039 109.076 108.109 108.894 108.249 108.754C108.399 108.614 108.576 108.544 108.781 108.544C108.996 108.544 109.169 108.619 109.299 108.768C109.439 108.917 109.509 109.095 109.509 109.3C109.509 109.375 109.505 109.449 109.495 109.524C109.486 109.599 109.467 109.683 109.439 109.776C109.411 109.869 109.374 109.981 109.327 110.112L108.739 112.044H108.067ZM120.718 110L117.694 106.36L118.52 105.87L121.894 110H120.718ZM115.328 110V102.65H116.322V110H115.328ZM116.014 106.724V105.87H118.38V106.724H116.014ZM118.604 106.43L117.68 106.29L120.606 102.65H121.684L118.604 106.43ZM126.227 110.07C125.518 110.07 124.878 109.911 124.309 109.594C123.749 109.267 123.306 108.824 122.979 108.264C122.652 107.695 122.489 107.046 122.489 106.318C122.489 105.581 122.652 104.932 122.979 104.372C123.306 103.812 123.749 103.373 124.309 103.056C124.869 102.739 125.508 102.58 126.227 102.58C126.955 102.58 127.599 102.739 128.159 103.056C128.728 103.373 129.172 103.812 129.489 104.372C129.816 104.932 129.979 105.581 129.979 106.318C129.979 107.046 129.816 107.695 129.489 108.264C129.172 108.824 128.728 109.267 128.159 109.594C127.59 109.911 126.946 110.07 126.227 110.07ZM126.227 109.188C126.759 109.188 127.23 109.071 127.641 108.838C128.052 108.595 128.374 108.259 128.607 107.83C128.85 107.391 128.971 106.887 128.971 106.318C128.971 105.739 128.85 105.235 128.607 104.806C128.374 104.377 128.052 104.045 127.641 103.812C127.23 103.569 126.764 103.448 126.241 103.448C125.718 103.448 125.252 103.569 124.841 103.812C124.43 104.045 124.104 104.377 123.861 104.806C123.618 105.235 123.497 105.739 123.497 106.318C123.497 106.887 123.618 107.391 123.861 107.83C124.104 108.259 124.43 108.595 124.841 108.838C125.252 109.071 125.714 109.188 126.227 109.188ZM133.23 110V103.252L133.482 103.518H130.444V102.65H137.01V103.518H133.972L134.224 103.252V110H133.23ZM141.129 110.07C140.42 110.07 139.781 109.911 139.211 109.594C138.651 109.267 138.208 108.824 137.881 108.264C137.555 107.695 137.391 107.046 137.391 106.318C137.391 105.581 137.555 104.932 137.881 104.372C138.208 103.812 138.651 103.373 139.211 103.056C139.771 102.739 140.411 102.58 141.129 102.58C141.857 102.58 142.501 102.739 143.061 103.056C143.631 103.373 144.074 103.812 144.391 104.372C144.718 104.932 144.881 105.581 144.881 106.318C144.881 107.046 144.718 107.695 144.391 108.264C144.074 108.824 143.631 109.267 143.061 109.594C142.492 109.911 141.848 110.07 141.129 110.07ZM141.129 109.188C141.661 109.188 142.133 109.071 142.543 108.838C142.954 108.595 143.276 108.259 143.509 107.83C143.752 107.391 143.873 106.887 143.873 106.318C143.873 105.739 143.752 105.235 143.509 104.806C143.276 104.377 142.954 104.045 142.543 103.812C142.133 103.569 141.666 103.448 141.143 103.448C140.621 103.448 140.154 103.569 139.743 103.812C139.333 104.045 139.006 104.377 138.763 104.806C138.521 105.235 138.399 105.739 138.399 106.318C138.399 106.887 138.521 107.391 138.763 107.83C139.006 108.259 139.333 108.595 139.743 108.838C140.154 109.071 140.616 109.188 141.129 109.188ZM150.8 110.07C150.165 110.07 149.591 109.925 149.078 109.636C148.564 109.337 148.154 108.913 147.846 108.362C147.547 107.802 147.398 107.121 147.398 106.318C147.398 105.515 147.547 104.839 147.846 104.288C148.144 103.728 148.55 103.303 149.064 103.014C149.577 102.725 150.156 102.58 150.8 102.58C151.5 102.58 152.125 102.739 152.676 103.056C153.236 103.364 153.674 103.803 153.992 104.372C154.309 104.932 154.468 105.581 154.468 106.318C154.468 107.065 154.309 107.718 153.992 108.278C153.674 108.838 153.236 109.277 152.676 109.594C152.125 109.911 151.5 110.07 150.8 110.07ZM147.006 112.716V102.65H147.958V104.862L147.86 106.332L148 107.816V112.716H147.006ZM150.73 109.188C151.252 109.188 151.719 109.071 152.13 108.838C152.54 108.595 152.867 108.259 153.11 107.83C153.352 107.391 153.474 106.887 153.474 106.318C153.474 105.749 153.352 105.249 153.11 104.82C152.867 104.391 152.54 104.055 152.13 103.812C151.719 103.569 151.252 103.448 150.73 103.448C150.207 103.448 149.736 103.569 149.316 103.812C148.905 104.055 148.578 104.391 148.336 104.82C148.102 105.249 147.986 105.749 147.986 106.318C147.986 106.887 148.102 107.391 148.336 107.83C148.578 108.259 148.905 108.595 149.316 108.838C149.736 109.071 150.207 109.188 150.73 109.188ZM163.771 110V102.65H164.765V110H163.771ZM159.697 105.24C160.621 105.249 161.326 105.455 161.811 105.856C162.297 106.257 162.539 106.836 162.539 107.592C162.539 108.376 162.278 108.978 161.755 109.398C161.233 109.818 160.486 110.023 159.515 110.014L156.603 110V102.65H157.597V105.212L159.697 105.24ZM159.445 109.258C160.136 109.267 160.654 109.132 160.999 108.852C161.354 108.563 161.531 108.143 161.531 107.592C161.531 107.041 161.359 106.64 161.013 106.388C160.668 106.127 160.145 105.991 159.445 105.982L157.597 105.954V109.23L159.445 109.258ZM167.596 110V102.65H168.59V108.488L173.504 102.65H174.386V110H173.392V104.148L168.492 110H167.596ZM170.928 101.586C170.312 101.586 169.812 101.432 169.43 101.124C169.056 100.807 168.86 100.354 168.842 99.766H169.556C169.565 100.139 169.696 100.433 169.948 100.648C170.2 100.863 170.526 100.97 170.928 100.97C171.329 100.97 171.656 100.863 171.908 100.648C172.169 100.433 172.304 100.139 172.314 99.766H173.028C173.018 100.354 172.822 100.807 172.44 101.124C172.057 101.432 171.553 101.586 170.928 101.586ZM183.922 110.07C183.213 110.07 182.574 109.911 182.004 109.594C181.444 109.267 181.001 108.824 180.674 108.264C180.348 107.695 180.184 107.046 180.184 106.318C180.184 105.581 180.348 104.932 180.674 104.372C181.001 103.812 181.444 103.373 182.004 103.056C182.564 102.739 183.204 102.58 183.922 102.58C184.65 102.58 185.294 102.739 185.854 103.056C186.424 103.373 186.867 103.812 187.184 104.372C187.511 104.932 187.674 105.581 187.674 106.318C187.674 107.046 187.511 107.695 187.184 108.264C186.867 108.824 186.424 109.267 185.854 109.594C185.285 109.911 184.641 110.07 183.922 110.07ZM183.922 109.188C184.454 109.188 184.926 109.071 185.336 108.838C185.747 108.595 186.069 108.259 186.302 107.83C186.545 107.391 186.666 106.887 186.666 106.318C186.666 105.739 186.545 105.235 186.302 104.806C186.069 104.377 185.747 104.045 185.336 103.812C184.926 103.569 184.459 103.448 183.936 103.448C183.414 103.448 182.947 103.569 182.536 103.812C182.126 104.045 181.799 104.377 181.556 104.806C181.314 105.235 181.192 105.739 181.192 106.318C181.192 106.887 181.314 107.391 181.556 107.83C181.799 108.259 182.126 108.595 182.536 108.838C182.947 109.071 183.409 109.188 183.922 109.188ZM190.925 110V103.252L191.177 103.518H188.139V102.65H194.705V103.518H191.667L191.919 103.252V110H190.925ZM199.937 110.07C199.302 110.07 198.728 109.925 198.215 109.636C197.701 109.337 197.291 108.913 196.983 108.362C196.684 107.802 196.535 107.121 196.535 106.318C196.535 105.515 196.684 104.839 196.983 104.288C197.281 103.728 197.687 103.303 198.201 103.014C198.714 102.725 199.293 102.58 199.937 102.58C200.637 102.58 201.262 102.739 201.813 103.056C202.373 103.364 202.811 103.803 203.129 104.372C203.446 104.932 203.605 105.581 203.605 106.318C203.605 107.065 203.446 107.718 203.129 108.278C202.811 108.838 202.373 109.277 201.813 109.594C201.262 109.911 200.637 110.07 199.937 110.07ZM196.143 112.716V102.65H197.095V104.862L196.997 106.332L197.137 107.816V112.716H196.143ZM199.867 109.188C200.389 109.188 200.856 109.071 201.267 108.838C201.677 108.595 202.004 108.259 202.247 107.83C202.489 107.391 202.611 106.887 202.611 106.318C202.611 105.749 202.489 105.249 202.247 104.82C202.004 104.391 201.677 104.055 201.267 103.812C200.856 103.569 200.389 103.448 199.867 103.448C199.344 103.448 198.873 103.569 198.453 103.812C198.042 104.055 197.715 104.391 197.473 104.82C197.239 105.249 197.123 105.749 197.123 106.318C197.123 106.887 197.239 107.391 197.473 107.83C197.715 108.259 198.042 108.595 198.453 108.838C198.873 109.071 199.344 109.188 199.867 109.188ZM210.263 110V108.376L210.221 108.11V105.394C210.221 104.769 210.044 104.288 209.689 103.952C209.344 103.616 208.826 103.448 208.135 103.448C207.659 103.448 207.206 103.527 206.777 103.686C206.348 103.845 205.984 104.055 205.685 104.316L205.237 103.574C205.61 103.257 206.058 103.014 206.581 102.846C207.104 102.669 207.654 102.58 208.233 102.58C209.185 102.58 209.918 102.818 210.431 103.294C210.954 103.761 211.215 104.475 211.215 105.436V110H210.263ZM207.729 110.07C207.178 110.07 206.698 109.981 206.287 109.804C205.886 109.617 205.578 109.365 205.363 109.048C205.148 108.721 205.041 108.348 205.041 107.928C205.041 107.545 205.13 107.2 205.307 106.892C205.494 106.575 205.792 106.323 206.203 106.136C206.623 105.94 207.183 105.842 207.883 105.842H210.417V106.584H207.911C207.202 106.584 206.707 106.71 206.427 106.962C206.156 107.214 206.021 107.527 206.021 107.9C206.021 108.32 206.184 108.656 206.511 108.908C206.838 109.16 207.295 109.286 207.883 109.286C208.443 109.286 208.924 109.16 209.325 108.908C209.736 108.647 210.034 108.273 210.221 107.788L210.445 108.474C210.258 108.959 209.932 109.347 209.465 109.636C209.008 109.925 208.429 110.07 207.729 110.07ZM222.583 110L220.063 106.36L220.889 105.87L223.773 110H222.583ZM218.411 106.724V105.87H220.735V106.724H218.411ZM220.987 106.43L220.035 106.29L222.485 102.65H223.563L220.987 106.43ZM213.875 110H212.685L215.569 105.87L216.381 106.36L213.875 110ZM218.719 110H217.725V102.65H218.719V110ZM218.033 106.724H215.723V105.87H218.033V106.724ZM215.485 106.43L212.895 102.65H213.973L216.409 106.29L215.485 106.43ZM229.855 110V108.376L229.813 108.11V105.394C229.813 104.769 229.636 104.288 229.281 103.952C228.936 103.616 228.418 103.448 227.727 103.448C227.251 103.448 226.798 103.527 226.369 103.686C225.94 103.845 225.576 104.055 225.277 104.316L224.829 103.574C225.202 103.257 225.65 103.014 226.173 102.846C226.696 102.669 227.246 102.58 227.825 102.58C228.777 102.58 229.51 102.818 230.023 103.294C230.546 103.761 230.807 104.475 230.807 105.436V110H229.855ZM227.321 110.07C226.77 110.07 226.29 109.981 225.879 109.804C225.478 109.617 225.17 109.365 224.955 109.048C224.74 108.721 224.633 108.348 224.633 107.928C224.633 107.545 224.722 107.2 224.899 106.892C225.086 106.575 225.384 106.323 225.795 106.136C226.215 105.94 226.775 105.842 227.475 105.842H230.009V106.584H227.503C226.794 106.584 226.299 106.71 226.019 106.962C225.748 107.214 225.613 107.527 225.613 107.9C225.613 108.32 225.776 108.656 226.103 108.908C226.43 109.16 226.887 109.286 227.475 109.286C228.035 109.286 228.516 109.16 228.917 108.908C229.328 108.647 229.626 108.273 229.813 107.788L230.037 108.474C229.85 108.959 229.524 109.347 229.057 109.636C228.6 109.925 228.021 110.07 227.321 110.07ZM236.603 110.07C235.838 110.07 235.166 109.911 234.587 109.594C234.008 109.267 233.556 108.824 233.229 108.264C232.902 107.695 232.739 107.046 232.739 106.318C232.739 105.59 232.893 104.946 233.201 104.386C233.518 103.826 233.948 103.387 234.489 103.07C235.04 102.743 235.656 102.58 236.337 102.58C237.028 102.58 237.639 102.739 238.171 103.056C238.712 103.364 239.137 103.803 239.445 104.372C239.753 104.932 239.907 105.581 239.907 106.318C239.907 106.365 239.902 106.416 239.893 106.472C239.893 106.519 239.893 106.57 239.893 106.626H233.495V105.884H239.361L238.969 106.178C238.969 105.646 238.852 105.175 238.619 104.764C238.395 104.344 238.087 104.017 237.695 103.784C237.303 103.551 236.85 103.434 236.337 103.434C235.833 103.434 235.38 103.551 234.979 103.784C234.578 104.017 234.265 104.344 234.041 104.764C233.817 105.184 233.705 105.665 233.705 106.206V106.36C233.705 106.92 233.826 107.415 234.069 107.844C234.321 108.264 234.666 108.595 235.105 108.838C235.553 109.071 236.062 109.188 236.631 109.188C237.079 109.188 237.494 109.109 237.877 108.95C238.269 108.791 238.605 108.549 238.885 108.222L239.445 108.866C239.118 109.258 238.708 109.557 238.213 109.762C237.728 109.967 237.191 110.07 236.603 110.07ZM243.179 110V103.252L243.431 103.518H240.393V102.65H246.959V103.518H243.921L244.173 103.252V110H243.179ZM250.856 110L253.964 105.968L253.95 106.458L250.996 102.65H252.116L254.538 105.8L254.118 105.786L256.54 102.65H257.632L254.65 106.5L254.664 105.968L257.8 110H256.666L254.104 106.64L254.496 106.696L251.976 110H250.856ZM263.857 110V108.376L263.815 108.11V105.394C263.815 104.769 263.638 104.288 263.283 103.952C262.938 103.616 262.42 103.448 261.729 103.448C261.253 103.448 260.8 103.527 260.371 103.686C259.942 103.845 259.578 104.055 259.279 104.316L258.831 103.574C259.204 103.257 259.652 103.014 260.175 102.846C260.698 102.669 261.248 102.58 261.827 102.58C262.779 102.58 263.512 102.818 264.025 103.294C264.548 103.761 264.809 104.475 264.809 105.436V110H263.857ZM261.323 110.07C260.772 110.07 260.292 109.981 259.881 109.804C259.48 109.617 259.172 109.365 258.957 109.048C258.742 108.721 258.635 108.348 258.635 107.928C258.635 107.545 258.724 107.2 258.901 106.892C259.088 106.575 259.386 106.323 259.797 106.136C260.217 105.94 260.777 105.842 261.477 105.842H264.011V106.584H261.505C260.796 106.584 260.301 106.71 260.021 106.962C259.75 107.214 259.615 107.527 259.615 107.9C259.615 108.32 259.778 108.656 260.105 108.908C260.432 109.16 260.889 109.286 261.477 109.286C262.037 109.286 262.518 109.16 262.919 108.908C263.33 108.647 263.628 108.273 263.815 107.788L264.039 108.474C263.852 108.959 263.526 109.347 263.059 109.636C262.602 109.925 262.023 110.07 261.323 110.07ZM271.249 110.07C270.614 110.07 270.04 109.925 269.527 109.636C269.014 109.337 268.603 108.913 268.295 108.362C267.996 107.802 267.847 107.121 267.847 106.318C267.847 105.515 267.996 104.839 268.295 104.288C268.594 103.728 269 103.303 269.513 103.014C270.026 102.725 270.605 102.58 271.249 102.58C271.949 102.58 272.574 102.739 273.125 103.056C273.685 103.364 274.124 103.803 274.441 104.372C274.758 104.932 274.917 105.581 274.917 106.318C274.917 107.065 274.758 107.718 274.441 108.278C274.124 108.838 273.685 109.277 273.125 109.594C272.574 109.911 271.949 110.07 271.249 110.07ZM267.455 112.716V102.65H268.407V104.862L268.309 106.332L268.449 107.816V112.716H267.455ZM271.179 109.188C271.702 109.188 272.168 109.071 272.579 108.838C272.99 108.595 273.316 108.259 273.559 107.83C273.802 107.391 273.923 106.887 273.923 106.318C273.923 105.749 273.802 105.249 273.559 104.82C273.316 104.391 272.99 104.055 272.579 103.812C272.168 103.569 271.702 103.448 271.179 103.448C270.656 103.448 270.185 103.569 269.765 103.812C269.354 104.055 269.028 104.391 268.785 104.82C268.552 105.249 268.435 105.749 268.435 106.318C268.435 106.887 268.552 107.391 268.785 107.83C269.028 108.259 269.354 108.595 269.765 108.838C270.185 109.071 270.656 109.188 271.179 109.188ZM281.576 110V108.376L281.534 108.11V105.394C281.534 104.769 281.356 104.288 281.002 103.952C280.656 103.616 280.138 103.448 279.448 103.448C278.972 103.448 278.519 103.527 278.09 103.686C277.66 103.845 277.296 104.055 276.998 104.316L276.55 103.574C276.923 103.257 277.371 103.014 277.894 102.846C278.416 102.669 278.967 102.58 279.546 102.58C280.498 102.58 281.23 102.818 281.744 103.294C282.266 103.761 282.528 104.475 282.528 105.436V110H281.576ZM279.042 110.07C278.491 110.07 278.01 109.981 277.6 109.804C277.198 109.617 276.89 109.365 276.676 109.048C276.461 108.721 276.354 108.348 276.354 107.928C276.354 107.545 276.442 107.2 276.62 106.892C276.806 106.575 277.105 106.323 277.516 106.136C277.936 105.94 278.496 105.842 279.196 105.842H281.73V106.584H279.224C278.514 106.584 278.02 106.71 277.74 106.962C277.469 107.214 277.334 107.527 277.334 107.9C277.334 108.32 277.497 108.656 277.824 108.908C278.15 109.16 278.608 109.286 279.196 109.286C279.756 109.286 280.236 109.16 280.638 108.908C281.048 108.647 281.347 108.273 281.534 107.788L281.758 108.474C281.571 108.959 281.244 109.347 280.778 109.636C280.32 109.925 279.742 110.07 279.042 110.07ZM290.564 110L287.54 106.36L288.366 105.87L291.74 110H290.564ZM285.174 110V102.65H286.168V110H285.174ZM285.86 106.724V105.87H288.226V106.724H285.86ZM288.45 106.43L287.526 106.29L290.452 102.65H291.53L288.45 106.43ZM294.558 110V103.252L294.81 103.518H291.772V102.65H298.338V103.518H295.3L295.552 103.252V110H294.558ZM302.584 110.07C301.818 110.07 301.146 109.911 300.568 109.594C299.989 109.267 299.536 108.824 299.21 108.264C298.883 107.695 298.72 107.046 298.72 106.318C298.72 105.59 298.874 104.946 299.182 104.386C299.499 103.826 299.928 103.387 300.47 103.07C301.02 102.743 301.636 102.58 302.318 102.58C303.008 102.58 303.62 102.739 304.152 103.056C304.693 103.364 305.118 103.803 305.426 104.372C305.734 104.932 305.888 105.581 305.888 106.318C305.888 106.365 305.883 106.416 305.874 106.472C305.874 106.519 305.874 106.57 305.874 106.626H299.476V105.884H305.342L304.95 106.178C304.95 105.646 304.833 105.175 304.6 104.764C304.376 104.344 304.068 104.017 303.676 103.784C303.284 103.551 302.831 103.434 302.318 103.434C301.814 103.434 301.361 103.551 300.96 103.784C300.558 104.017 300.246 104.344 300.022 104.764C299.798 105.184 299.686 105.665 299.686 106.206V106.36C299.686 106.92 299.807 107.415 300.05 107.844C300.302 108.264 300.647 108.595 301.086 108.838C301.534 109.071 302.042 109.188 302.612 109.188C303.06 109.188 303.475 109.109 303.858 108.95C304.25 108.791 304.586 108.549 304.866 108.222L305.426 108.866C305.099 109.258 304.688 109.557 304.194 109.762C303.708 109.967 303.172 110.07 302.584 110.07ZM311.882 110.07C311.247 110.07 310.673 109.925 310.16 109.636C309.646 109.337 309.236 108.913 308.928 108.362C308.629 107.802 308.48 107.121 308.48 106.318C308.48 105.515 308.629 104.839 308.928 104.288C309.226 103.728 309.632 103.303 310.146 103.014C310.659 102.725 311.238 102.58 311.882 102.58C312.582 102.58 313.207 102.739 313.758 103.056C314.318 103.364 314.756 103.803 315.074 104.372C315.391 104.932 315.55 105.581 315.55 106.318C315.55 107.065 315.391 107.718 315.074 108.278C314.756 108.838 314.318 109.277 313.758 109.594C313.207 109.911 312.582 110.07 311.882 110.07ZM308.088 112.716V102.65H309.04V104.862L308.942 106.332L309.082 107.816V112.716H308.088ZM311.812 109.188C312.334 109.188 312.801 109.071 313.212 108.838C313.622 108.595 313.949 108.259 314.192 107.83C314.434 107.391 314.556 106.887 314.556 106.318C314.556 105.749 314.434 105.249 314.192 104.82C313.949 104.391 313.622 104.055 313.212 103.812C312.801 103.569 312.334 103.448 311.812 103.448C311.289 103.448 310.818 103.569 310.398 103.812C309.987 104.055 309.66 104.391 309.418 104.82C309.184 105.249 309.068 105.749 309.068 106.318C309.068 106.887 309.184 107.391 309.418 107.83C309.66 108.259 309.987 108.595 310.398 108.838C310.818 109.071 311.289 109.188 311.812 109.188ZM1.414 132V124.65H4.662C5.49267 124.65 6.146 124.809 6.622 125.126C7.10733 125.443 7.35 125.91 7.35 126.526C7.35 127.123 7.12133 127.585 6.664 127.912C6.20667 128.229 5.60467 128.388 4.858 128.388L5.054 128.094C5.93133 128.094 6.57533 128.257 6.986 128.584C7.39667 128.911 7.602 129.382 7.602 129.998C7.602 130.633 7.36867 131.127 6.902 131.482C6.44467 131.827 5.73067 132 4.76 132H1.414ZM2.38 131.216H4.718C5.34333 131.216 5.81467 131.118 6.132 130.922C6.45867 130.717 6.622 130.39 6.622 129.942C6.622 129.494 6.47733 129.167 6.188 128.962C5.89867 128.757 5.44133 128.654 4.816 128.654H2.38V131.216ZM2.38 127.912H4.592C5.16133 127.912 5.59533 127.805 5.894 127.59C6.202 127.375 6.356 127.063 6.356 126.652C6.356 126.241 6.202 125.933 5.894 125.728C5.59533 125.523 5.16133 125.42 4.592 125.42H2.38V127.912ZM14.4956 132V130.376L14.4536 130.11V127.394C14.4536 126.769 14.2762 126.288 13.9216 125.952C13.5762 125.616 13.0582 125.448 12.3676 125.448C11.8916 125.448 11.4389 125.527 11.0096 125.686C10.5802 125.845 10.2162 126.055 9.91758 126.316L9.46958 125.574C9.84291 125.257 10.2909 125.014 10.8136 124.846C11.3362 124.669 11.8869 124.58 12.4656 124.58C13.4176 124.58 14.1502 124.818 14.6636 125.294C15.1862 125.761 15.4476 126.475 15.4476 127.436V132H14.4956ZM11.9616 132.07C11.4109 132.07 10.9302 131.981 10.5196 131.804C10.1182 131.617 9.81024 131.365 9.59558 131.048C9.38091 130.721 9.27358 130.348 9.27358 129.928C9.27358 129.545 9.36224 129.2 9.53958 128.892C9.72624 128.575 10.0249 128.323 10.4356 128.136C10.8556 127.94 11.4156 127.842 12.1156 127.842H14.6496V128.584H12.1436C11.4342 128.584 10.9396 128.71 10.6596 128.962C10.3889 129.214 10.2536 129.527 10.2536 129.9C10.2536 130.32 10.4169 130.656 10.7436 130.908C11.0702 131.16 11.5276 131.286 12.1156 131.286C12.6756 131.286 13.1562 131.16 13.5576 130.908C13.9682 130.647 14.2669 130.273 14.4536 129.788L14.6776 130.474C14.4909 130.959 14.1642 131.347 13.6976 131.636C13.2402 131.925 12.6616 132.07 11.9616 132.07ZM22.9237 131.132L22.6997 131.398V124.65H23.6937V131.398L23.4277 131.132H27.5297L27.2637 131.398V124.65H28.2577V132H18.0937V124.65H19.0877V131.398L18.8357 131.132H22.9237ZM34.232 132.07C33.4666 132.07 32.7946 131.911 32.216 131.594C31.6373 131.267 31.1846 130.824 30.858 130.264C30.5313 129.695 30.368 129.046 30.368 128.318C30.368 127.59 30.522 126.946 30.83 126.386C31.1473 125.826 31.5766 125.387 32.118 125.07C32.6686 124.743 33.2846 124.58 33.966 124.58C34.6566 124.58 35.268 124.739 35.8 125.056C36.3413 125.364 36.766 125.803 37.074 126.372C37.382 126.932 37.536 127.581 37.536 128.318C37.536 128.365 37.5313 128.416 37.522 128.472C37.522 128.519 37.522 128.57 37.522 128.626H31.124V127.884H36.99L36.598 128.178C36.598 127.646 36.4813 127.175 36.248 126.764C36.024 126.344 35.716 126.017 35.324 125.784C34.932 125.551 34.4793 125.434 33.966 125.434C33.462 125.434 33.0093 125.551 32.608 125.784C32.2066 126.017 31.894 126.344 31.67 126.764C31.446 127.184 31.334 127.665 31.334 128.206V128.36C31.334 128.92 31.4553 129.415 31.698 129.844C31.95 130.264 32.2953 130.595 32.734 130.838C33.182 131.071 33.6906 131.188 34.26 131.188C34.708 131.188 35.1233 131.109 35.506 130.95C35.898 130.791 36.234 130.549 36.514 130.222L37.074 130.866C36.7473 131.258 36.3366 131.557 35.842 131.762C35.3566 131.967 34.82 132.07 34.232 132.07ZM39.7363 132V124.65H44.9443V125.518H40.4783L40.7303 125.266V132H39.7363ZM49.063 132.07C48.3537 132.07 47.7143 131.911 47.145 131.594C46.585 131.267 46.1417 130.824 45.815 130.264C45.4883 129.695 45.325 129.046 45.325 128.318C45.325 127.581 45.4883 126.932 45.815 126.372C46.1417 125.812 46.585 125.373 47.145 125.056C47.705 124.739 48.3443 124.58 49.063 124.58C49.791 124.58 50.435 124.739 50.995 125.056C51.5643 125.373 52.0077 125.812 52.325 126.372C52.6517 126.932 52.815 127.581 52.815 128.318C52.815 129.046 52.6517 129.695 52.325 130.264C52.0077 130.824 51.5643 131.267 50.995 131.594C50.4257 131.911 49.7817 132.07 49.063 132.07ZM49.063 131.188C49.595 131.188 50.0663 131.071 50.477 130.838C50.8877 130.595 51.2097 130.259 51.443 129.83C51.6857 129.391 51.807 128.887 51.807 128.318C51.807 127.739 51.6857 127.235 51.443 126.806C51.2097 126.377 50.8877 126.045 50.477 125.812C50.0663 125.569 49.5997 125.448 49.077 125.448C48.5543 125.448 48.0877 125.569 47.677 125.812C47.2663 126.045 46.9397 126.377 46.697 126.806C46.4543 127.235 46.333 127.739 46.333 128.318C46.333 128.887 46.4543 129.391 46.697 129.83C46.9397 130.259 47.2663 130.595 47.677 130.838C48.0877 131.071 48.5497 131.188 49.063 131.188ZM63.1675 132V130.376L63.1255 130.11V127.394C63.1255 126.769 62.9481 126.288 62.5935 125.952C62.2481 125.616 61.7301 125.448 61.0395 125.448C60.5635 125.448 60.1108 125.527 59.6815 125.686C59.2521 125.845 58.8881 126.055 58.5895 126.316L58.1415 125.574C58.5148 125.257 58.9628 125.014 59.4855 124.846C60.0081 124.669 60.5588 124.58 61.1375 124.58C62.0895 124.58 62.8221 124.818 63.3355 125.294C63.8581 125.761 64.1195 126.475 64.1195 127.436V132H63.1675ZM60.6335 132.07C60.0828 132.07 59.6021 131.981 59.1915 131.804C58.7901 131.617 58.4821 131.365 58.2675 131.048C58.0528 130.721 57.9455 130.348 57.9455 129.928C57.9455 129.545 58.0341 129.2 58.2115 128.892C58.3981 128.575 58.6968 128.323 59.1075 128.136C59.5275 127.94 60.0875 127.842 60.7875 127.842H63.3215V128.584H60.8155C60.1061 128.584 59.6115 128.71 59.3315 128.962C59.0608 129.214 58.9255 129.527 58.9255 129.9C58.9255 130.32 59.0888 130.656 59.4155 130.908C59.7421 131.16 60.1995 131.286 60.7875 131.286C61.3475 131.286 61.8281 131.16 62.2295 130.908C62.6401 130.647 62.9388 130.273 63.1255 129.788L63.3495 130.474C63.1628 130.959 62.8361 131.347 62.3695 131.636C61.9121 131.925 61.3335 132.07 60.6335 132.07ZM66.7656 132V124.65H70.0136C70.8442 124.65 71.4976 124.809 71.9736 125.126C72.4589 125.443 72.7016 125.91 72.7016 126.526C72.7016 127.123 72.4729 127.585 72.0156 127.912C71.5582 128.229 70.9562 128.388 70.2096 128.388L70.4056 128.094C71.2829 128.094 71.9269 128.257 72.3376 128.584C72.7482 128.911 72.9536 129.382 72.9536 129.998C72.9536 130.633 72.7202 131.127 72.2536 131.482C71.7962 131.827 71.0822 132 70.1116 132H66.7656ZM67.7316 131.216H70.0696C70.6949 131.216 71.1662 131.118 71.4836 130.922C71.8102 130.717 71.9736 130.39 71.9736 129.942C71.9736 129.494 71.8289 129.167 71.5396 128.962C71.2502 128.757 70.7929 128.654 70.1676 128.654H67.7316V131.216ZM67.7316 127.912H69.9436C70.5129 127.912 70.9469 127.805 71.2456 127.59C71.5536 127.375 71.7076 127.063 71.7076 126.652C71.7076 126.241 71.5536 125.933 71.2456 125.728C70.9469 125.523 70.5129 125.42 69.9436 125.42H67.7316V127.912ZM76.6831 132V125.252L76.9351 125.518H73.8971V124.65H80.4631V125.518H77.4251L77.6771 125.252V132H76.6831ZM84.5825 132.07C83.8732 132.07 83.2339 131.911 82.6645 131.594C82.1045 131.267 81.6612 130.824 81.3345 130.264C81.0079 129.695 80.8445 129.046 80.8445 128.318C80.8445 127.581 81.0079 126.932 81.3345 126.372C81.6612 125.812 82.1045 125.373 82.6645 125.056C83.2245 124.739 83.8639 124.58 84.5825 124.58C85.3105 124.58 85.9545 124.739 86.5145 125.056C87.0839 125.373 87.5272 125.812 87.8445 126.372C88.1712 126.932 88.3345 127.581 88.3345 128.318C88.3345 129.046 88.1712 129.695 87.8445 130.264C87.5272 130.824 87.0839 131.267 86.5145 131.594C85.9452 131.911 85.3012 132.07 84.5825 132.07ZM84.5825 131.188C85.1145 131.188 85.5859 131.071 85.9965 130.838C86.4072 130.595 86.7292 130.259 86.9625 129.83C87.2052 129.391 87.3265 128.887 87.3265 128.318C87.3265 127.739 87.2052 127.235 86.9625 126.806C86.7292 126.377 86.4072 126.045 85.9965 125.812C85.5859 125.569 85.1192 125.448 84.5965 125.448C84.0739 125.448 83.6072 125.569 83.1965 125.812C82.7859 126.045 82.4592 126.377 82.2165 126.806C81.9739 127.235 81.8525 127.739 81.8525 128.318C81.8525 128.887 81.9739 129.391 82.2165 129.83C82.4592 130.259 82.7859 130.595 83.1965 130.838C83.6072 131.071 84.0692 131.188 84.5825 131.188Z" fill="#141414"/>
</svg>
