<svg width="856" height="160" viewBox="0 0 856 160" fill="none" xmlns="http://www.w3.org/2000/svg">
<path d="M3.48 38V10H16.52C19.7733 10 22.3067 10.6267 24.12 11.88C25.9333 13.1333 26.84 14.92 26.84 17.24C26.84 19.5333 25.9867 21.32 24.28 22.6C22.5733 23.8533 20.3067 24.48 17.48 24.48L18.24 22.8C21.3867 22.8 23.8267 23.4267 25.56 24.68C27.2933 25.9333 28.16 27.7467 28.16 30.12C28.16 32.5733 27.2267 34.5067 25.36 35.92C23.52 37.3067 20.8267 38 17.28 38H3.48ZM9.92 33.2H17.04C18.5333 33.2 19.6667 32.9067 20.44 32.32C21.2133 31.7333 21.6 30.8267 21.6 29.6C21.6 28.4267 21.2133 27.56 20.44 27C19.6667 26.4133 18.5333 26.12 17.04 26.12H9.92V33.2ZM9.92 21.6H15.96C17.3733 21.6 18.44 21.32 19.16 20.76C19.88 20.1733 20.24 19.32 20.24 18.2C20.24 17.08 19.88 16.24 19.16 15.68C18.44 15.0933 17.3733 14.8 15.96 14.8H9.92V21.6ZM42.8847 38.32C40.5914 38.32 38.5514 37.84 36.7647 36.88C35.0047 35.92 33.6047 34.6133 32.5647 32.96C31.5514 31.28 31.0447 29.3733 31.0447 27.24C31.0447 25.08 31.5514 23.1733 32.5647 21.52C33.6047 19.84 35.0047 18.5333 36.7647 17.6C38.5514 16.64 40.5914 16.16 42.8847 16.16C45.1514 16.16 47.178 16.64 48.9647 17.6C50.7514 18.5333 52.1514 19.8267 53.1647 21.48C54.178 23.1333 54.6847 25.0533 54.6847 27.24C54.6847 29.3733 54.178 31.28 53.1647 32.96C52.1514 34.6133 50.7514 35.92 48.9647 36.88C47.178 37.84 45.1514 38.32 42.8847 38.32ZM42.8847 33.2C43.9247 33.2 44.858 32.96 45.6847 32.48C46.5114 32 47.1647 31.32 47.6447 30.44C48.1247 29.5333 48.3647 28.4667 48.3647 27.24C48.3647 25.9867 48.1247 24.92 47.6447 24.04C47.1647 23.16 46.5114 22.48 45.6847 22C44.858 21.52 43.9247 21.28 42.8847 21.28C41.8447 21.28 40.9114 21.52 40.0847 22C39.258 22.48 38.5914 23.16 38.0847 24.04C37.6047 24.92 37.3647 25.9867 37.3647 27.24C37.3647 28.4667 37.6047 29.5333 38.0847 30.44C38.5914 31.32 39.258 32 40.0847 32.48C40.9114 32.96 41.8447 33.2 42.8847 33.2ZM73.4641 35.2V21.6H66.4241L66.3041 24.36C66.2507 25.5067 66.1841 26.6 66.1041 27.64C66.0241 28.68 65.8641 29.6267 65.6241 30.48C65.4107 31.3067 65.0907 32.0133 64.6641 32.6C64.2374 33.16 63.6641 33.5467 62.9441 33.76L56.7841 32.88C57.5574 32.88 58.1841 32.6533 58.6641 32.2C59.1441 31.72 59.5174 31.0667 59.7841 30.24C60.0507 29.3867 60.2507 28.4267 60.3841 27.36C60.5174 26.2667 60.6107 25.12 60.6641 23.92L60.9441 16.48H79.7041V35.2H73.4641ZM56.0641 42.64V32.88H82.7841V42.64H76.9841V38H61.8641V42.64H56.0641ZM86.7109 38V16.48H92.9109V29.28L103.391 16.48H109.111V38H102.911V25.2L92.4709 38H86.7109ZM119.709 38V20.16L121.109 21.6H112.429V16.48H133.189V21.6H124.509L125.909 20.16V38H119.709ZM146.137 38.32C143.684 38.32 141.524 37.84 139.657 36.88C137.817 35.92 136.391 34.6133 135.377 32.96C134.364 31.28 133.857 29.3733 133.857 27.24C133.857 25.08 134.351 23.1733 135.337 21.52C136.351 19.84 137.724 18.5333 139.457 17.6C141.191 16.64 143.151 16.16 145.337 16.16C147.444 16.16 149.337 16.6133 151.017 17.52C152.724 18.4 154.071 19.68 155.057 21.36C156.044 23.0133 156.537 25 156.537 27.32C156.537 27.56 156.524 27.84 156.497 28.16C156.471 28.4533 156.444 28.7333 156.417 29H138.937V25.36H153.137L150.737 26.44C150.737 25.32 150.511 24.3467 150.057 23.52C149.604 22.6933 148.977 22.0533 148.177 21.6C147.377 21.12 146.444 20.88 145.377 20.88C144.311 20.88 143.364 21.12 142.537 21.6C141.737 22.0533 141.111 22.7067 140.657 23.56C140.204 24.3867 139.977 25.3733 139.977 26.52V27.48C139.977 28.6533 140.231 29.6933 140.737 30.6C141.271 31.48 142.004 32.16 142.937 32.64C143.897 33.0933 145.017 33.32 146.297 33.32C147.444 33.32 148.444 33.1467 149.297 32.8C150.177 32.4533 150.977 31.9333 151.697 31.24L155.017 34.84C154.031 35.96 152.791 36.8267 151.297 37.44C149.804 38.0267 148.084 38.32 146.137 38.32ZM158.405 37.96L158.725 32.84C158.885 32.8667 159.045 32.8933 159.205 32.92C159.365 32.92 159.512 32.92 159.645 32.92C160.392 32.92 160.978 32.7067 161.405 32.28C161.832 31.8533 162.152 31.28 162.365 30.56C162.578 29.8133 162.725 28.9733 162.805 28.04C162.912 27.1067 162.992 26.1333 163.045 25.12L163.365 16.48H181.765V38H175.525V20.08L176.925 21.6H167.485L168.805 20L168.525 25.4C168.445 27.32 168.285 29.08 168.045 30.68C167.832 32.28 167.472 33.6667 166.965 34.84C166.458 35.9867 165.778 36.88 164.925 37.52C164.072 38.1333 162.978 38.44 161.645 38.44C161.165 38.44 160.658 38.4 160.125 38.32C159.592 38.24 159.018 38.12 158.405 37.96ZM187.766 38V16.48H193.966V29.28L204.446 16.48H210.166V38H203.966V25.2L193.526 38H187.766ZM227.492 38V16.48H238.492C241.186 16.48 243.292 16.9733 244.812 17.96C246.332 18.92 247.092 20.28 247.092 22.04C247.092 23.8 246.372 25.1867 244.932 26.2C243.519 27.1867 241.639 27.68 239.292 27.68L239.932 26.24C242.546 26.24 244.492 26.72 245.772 27.68C247.079 28.64 247.732 30.04 247.732 31.88C247.732 33.7733 247.012 35.2667 245.572 36.36C244.132 37.4533 241.932 38 238.972 38H227.492ZM233.212 33.76H238.452C239.599 33.76 240.452 33.5733 241.012 33.2C241.599 32.8 241.892 32.2 241.892 31.4C241.892 30.5733 241.626 29.9733 241.092 29.6C240.559 29.2 239.719 29 238.572 29H233.212V33.76ZM233.212 25.32H237.932C239.026 25.32 239.839 25.12 240.372 24.72C240.932 24.32 241.212 23.7467 241.212 23C241.212 22.2267 240.932 21.6533 240.372 21.28C239.839 20.9067 239.026 20.72 237.932 20.72H233.212V25.32ZM274.535 38V16.48H280.735V38H274.535ZM263.695 23.36C266.522 23.3867 268.642 24.0267 270.055 25.28C271.495 26.5067 272.215 28.2533 272.215 30.52C272.215 32.8933 271.402 34.7467 269.775 36.08C268.148 37.3867 265.842 38.04 262.855 38.04L252.375 38V16.48H258.575V23.36H263.695ZM262.295 33.6C263.495 33.6267 264.415 33.3733 265.055 32.84C265.695 32.3067 266.015 31.5067 266.015 30.44C266.015 29.3733 265.695 28.6133 265.055 28.16C264.415 27.68 263.495 27.4267 262.295 27.4L258.575 27.36V33.6H262.295ZM297.43 38.48C295.67 38.48 294.07 38.2267 292.63 37.72C291.19 37.1867 289.937 36.3733 288.87 35.28C287.83 34.16 287.017 32.7333 286.43 31C285.87 29.2667 285.59 27.2 285.59 24.8C285.59 23.0933 285.737 21.5333 286.03 20.12C286.323 18.7067 286.763 17.4267 287.35 16.28C287.937 15.1067 288.683 14.08 289.59 13.2C290.523 12.2933 291.603 11.5467 292.83 10.96C294.083 10.3467 295.497 9.88 297.07 9.56L307.31 7.52L308.15 12.88L299.11 14.68C298.577 14.7867 297.963 14.9333 297.27 15.12C296.603 15.28 295.923 15.5333 295.23 15.88C294.563 16.2267 293.937 16.72 293.35 17.36C292.79 17.9733 292.337 18.7867 291.99 19.8C291.643 20.7867 291.47 22.0133 291.47 23.48C291.47 23.9333 291.483 24.28 291.51 24.52C291.563 24.76 291.603 25.0133 291.63 25.28C291.683 25.5467 291.71 25.96 291.71 26.52L289.71 24.56C290.297 23.3067 291.043 22.24 291.95 21.36C292.883 20.48 293.95 19.8133 295.15 19.36C296.377 18.88 297.737 18.64 299.23 18.64C301.257 18.64 303.03 19.0533 304.55 19.88C306.097 20.68 307.297 21.8133 308.15 23.28C309.003 24.7467 309.43 26.4133 309.43 28.28C309.43 30.3067 308.923 32.0933 307.91 33.64C306.897 35.16 305.483 36.3467 303.67 37.2C301.883 38.0533 299.803 38.48 297.43 38.48ZM297.75 33.64C298.79 33.64 299.71 33.4133 300.51 32.96C301.31 32.48 301.923 31.8533 302.35 31.08C302.803 30.28 303.03 29.3867 303.03 28.4C303.03 27.44 302.803 26.5867 302.35 25.84C301.923 25.0933 301.31 24.5067 300.51 24.08C299.71 23.6533 298.777 23.44 297.71 23.44C296.67 23.44 295.737 23.6533 294.91 24.08C294.083 24.48 293.443 25.04 292.99 25.76C292.537 26.48 292.31 27.32 292.31 28.28C292.31 29.2667 292.537 30.1733 292.99 31C293.47 31.8 294.11 32.44 294.91 32.92C295.737 33.4 296.683 33.64 297.75 33.64ZM313.664 38V16.48H319.864V29.28L330.344 16.48H336.064V38H329.864V25.2L319.424 38H313.664ZM354.743 38.32C352.929 38.32 351.343 37.92 349.983 37.12C348.623 36.32 347.556 35.1067 346.783 33.48C346.036 31.8267 345.663 29.7467 345.663 27.24C345.663 24.7067 346.023 22.6267 346.743 21C347.463 19.3733 348.503 18.16 349.863 17.36C351.223 16.56 352.849 16.16 354.743 16.16C356.769 16.16 358.583 16.6267 360.182 17.56C361.809 18.4667 363.089 19.7467 364.023 21.4C364.983 23.0533 365.463 25 365.463 27.24C365.463 29.5067 364.983 31.4667 364.023 33.12C363.089 34.7733 361.809 36.0533 360.182 36.96C358.583 37.8667 356.769 38.32 354.743 38.32ZM342.023 45.76V16.48H347.983V20.88L347.863 27.28L348.263 33.64V45.76H342.023ZM353.663 33.2C354.703 33.2 355.623 32.96 356.423 32.48C357.249 32 357.903 31.32 358.383 30.44C358.889 29.5333 359.143 28.4667 359.143 27.24C359.143 25.9867 358.889 24.92 358.383 24.04C357.903 23.16 357.249 22.48 356.423 22C355.623 21.52 354.703 21.28 353.663 21.28C352.623 21.28 351.689 21.52 350.863 22C350.036 22.48 349.383 23.16 348.903 24.04C348.423 24.92 348.183 25.9867 348.183 27.24C348.183 28.4667 348.423 29.5333 348.903 30.44C349.383 31.32 350.036 32 350.863 32.48C351.689 32.96 352.623 33.2 353.663 33.2ZM382.364 38V33.8L381.964 32.88V25.36C381.964 24.0267 381.551 22.9867 380.724 22.24C379.924 21.4933 378.684 21.12 377.004 21.12C375.858 21.12 374.724 21.3067 373.604 21.68C372.511 22.0267 371.578 22.5067 370.804 23.12L368.564 18.76C369.738 17.9333 371.151 17.2933 372.804 16.84C374.458 16.3867 376.138 16.16 377.844 16.16C381.124 16.16 383.671 16.9333 385.484 18.48C387.298 20.0267 388.204 22.44 388.204 25.72V38H382.364ZM375.804 38.32C374.124 38.32 372.684 38.04 371.484 37.48C370.284 36.8933 369.364 36.1067 368.724 35.12C368.084 34.1333 367.764 33.0267 367.764 31.8C367.764 30.52 368.071 29.4 368.684 28.44C369.324 27.48 370.324 26.7333 371.684 26.2C373.044 25.64 374.818 25.36 377.004 25.36H382.724V29H377.684C376.218 29 375.204 29.24 374.644 29.72C374.111 30.2 373.844 30.8 373.844 31.52C373.844 32.32 374.151 32.96 374.764 33.44C375.404 33.8933 376.271 34.12 377.364 34.12C378.404 34.12 379.338 33.88 380.164 33.4C380.991 32.8933 381.591 32.16 381.964 31.2L382.924 34.08C382.471 35.4667 381.644 36.52 380.444 37.24C379.244 37.96 377.698 38.32 375.804 38.32ZM393.625 38V16.48H399.825V24.4H406.145V29.8H399.825V38H393.625ZM413.985 38.32C411.772 38.32 409.798 37.84 408.065 36.88C406.332 35.92 404.972 34.6133 403.985 32.96C402.998 31.28 402.505 29.3733 402.505 27.24C402.505 25.08 402.998 23.1733 403.985 21.52C404.972 19.84 406.332 18.5333 408.065 17.6C409.798 16.64 411.772 16.16 413.985 16.16C416.198 16.16 418.158 16.64 419.865 17.6C421.598 18.5333 422.958 19.84 423.945 21.52C424.932 23.1733 425.425 25.08 425.425 27.24C425.425 29.3733 424.932 31.28 423.945 32.96C422.958 34.64 421.598 35.96 419.865 36.92C418.158 37.8533 416.198 38.32 413.985 38.32ZM413.985 33.2C414.998 33.2 415.892 32.96 416.665 32.48C417.465 32 418.092 31.32 418.545 30.44C419.025 29.5333 419.265 28.4667 419.265 27.24C419.265 25.9867 419.025 24.92 418.545 24.04C418.092 23.16 417.465 22.48 416.665 22C415.892 21.52 414.998 21.28 413.985 21.28C412.998 21.28 412.092 21.52 411.265 22C410.465 22.48 409.825 23.16 409.345 24.04C408.892 24.92 408.665 25.9867 408.665 27.24C408.665 28.4667 408.892 29.5333 409.345 30.44C409.825 31.32 410.465 32 411.265 32.48C412.092 32.96 412.998 33.2 413.985 33.2ZM433.577 38V20.16L434.977 21.6H426.297V16.48H447.057V21.6H438.377L439.777 20.16V38H433.577ZM461.711 38V16.48H467.911V29.28L478.391 16.48H484.111V38H477.911V25.2L467.471 38H461.711ZM490.109 38V16.48H496.629L504.749 31.2H502.149L510.829 16.48H516.669L516.749 38H511.109V22.88L512.069 23.52L504.669 35.92H502.029L494.589 23.08L495.749 22.8V38H490.109ZM533.247 38.32C530.793 38.32 528.633 37.84 526.767 36.88C524.927 35.92 523.5 34.6133 522.487 32.96C521.473 31.28 520.967 29.3733 520.967 27.24C520.967 25.08 521.46 23.1733 522.447 21.52C523.46 19.84 524.833 18.5333 526.567 17.6C528.3 16.64 530.26 16.16 532.447 16.16C534.553 16.16 536.447 16.6133 538.127 17.52C539.833 18.4 541.18 19.68 542.167 21.36C543.153 23.0133 543.647 25 543.647 27.32C543.647 27.56 543.633 27.84 543.607 28.16C543.58 28.4533 543.553 28.7333 543.527 29H526.047V25.36H540.247L537.847 26.44C537.847 25.32 537.62 24.3467 537.167 23.52C536.713 22.6933 536.087 22.0533 535.287 21.6C534.487 21.12 533.553 20.88 532.487 20.88C531.42 20.88 530.473 21.12 529.647 21.6C528.847 22.0533 528.22 22.7067 527.767 23.56C527.313 24.3867 527.087 25.3733 527.087 26.52V27.48C527.087 28.6533 527.34 29.6933 527.847 30.6C528.38 31.48 529.113 32.16 530.047 32.64C531.007 33.0933 532.127 33.32 533.407 33.32C534.553 33.32 535.553 33.1467 536.407 32.8C537.287 32.4533 538.087 31.9333 538.807 31.24L542.127 34.84C541.14 35.96 539.9 36.8267 538.407 37.44C536.913 38.0267 535.193 38.32 533.247 38.32ZM548.43 38V16.48H554.63V24.88H563.99V16.48H570.23V38H563.99V29.96H554.63V38H548.43ZM576.203 38V16.48H582.403V24.88H591.763V16.48H598.003V38H591.763V29.96H582.403V38H576.203ZM614.057 38.32C611.763 38.32 609.723 37.84 607.937 36.88C606.177 35.92 604.777 34.6133 603.737 32.96C602.723 31.28 602.217 29.3733 602.217 27.24C602.217 25.08 602.723 23.1733 603.737 21.52C604.777 19.84 606.177 18.5333 607.937 17.6C609.723 16.64 611.763 16.16 614.057 16.16C616.323 16.16 618.35 16.64 620.137 17.6C621.923 18.5333 623.323 19.8267 624.337 21.48C625.35 23.1333 625.857 25.0533 625.857 27.24C625.857 29.3733 625.35 31.28 624.337 32.96C623.323 34.6133 621.923 35.92 620.137 36.88C618.35 37.84 616.323 38.32 614.057 38.32ZM614.057 33.2C615.097 33.2 616.03 32.96 616.857 32.48C617.683 32 618.337 31.32 618.817 30.44C619.297 29.5333 619.537 28.4667 619.537 27.24C619.537 25.9867 619.297 24.92 618.817 24.04C618.337 23.16 617.683 22.48 616.857 22C616.03 21.52 615.097 21.28 614.057 21.28C613.017 21.28 612.083 21.52 611.257 22C610.43 22.48 609.763 23.16 609.257 24.04C608.777 24.92 608.537 25.9867 608.537 27.24C608.537 28.4667 608.777 29.5333 609.257 30.44C609.763 31.32 610.43 32 611.257 32.48C612.083 32.96 613.017 33.2 614.057 33.2ZM641.477 38V16.48H647.677V24.88H657.037V16.48H663.277V38H657.037V29.96H647.677V38H641.477ZM682.13 38V33.8L681.73 32.88V25.36C681.73 24.0267 681.317 22.9867 680.49 22.24C679.69 21.4933 678.45 21.12 676.77 21.12C675.623 21.12 674.49 21.3067 673.37 21.68C672.277 22.0267 671.343 22.5067 670.57 23.12L668.33 18.76C669.503 17.9333 670.917 17.2933 672.57 16.84C674.223 16.3867 675.903 16.16 677.61 16.16C680.89 16.16 683.437 16.9333 685.25 18.48C687.063 20.0267 687.97 22.44 687.97 25.72V38H682.13ZM675.57 38.32C673.89 38.32 672.45 38.04 671.25 37.48C670.05 36.8933 669.13 36.1067 668.49 35.12C667.85 34.1333 667.53 33.0267 667.53 31.8C667.53 30.52 667.837 29.4 668.45 28.44C669.09 27.48 670.09 26.7333 671.45 26.2C672.81 25.64 674.583 25.36 676.77 25.36H682.49V29H677.45C675.983 29 674.97 29.24 674.41 29.72C673.877 30.2 673.61 30.8 673.61 31.52C673.61 32.32 673.917 32.96 674.53 33.44C675.17 33.8933 676.037 34.12 677.13 34.12C678.17 34.12 679.103 33.88 679.93 33.4C680.757 32.8933 681.357 32.16 681.73 31.2L682.69 34.08C682.237 35.4667 681.41 36.52 680.21 37.24C679.01 37.96 677.463 38.32 675.57 38.32ZM708.071 32.88L706.711 34.32V16.48H712.951V34.32L711.511 32.88H721.431L720.031 34.32V16.48H726.231V38H693.391V16.48H699.591V34.32L698.191 32.88H708.071ZM732.219 38V16.48H738.419V29.28L748.899 16.48H754.619V38H748.419V25.2L737.979 38H732.219ZM16.56 77.76C15.68 78.24 14.7067 78.6267 13.64 78.92C12.5733 79.2133 11.4 79.36 10.12 79.36C7.29333 79.36 5.12 78.72 3.6 77.44C2.08 76.1333 1.32 74.0667 1.32 71.24V64.48H7.56V70.84C7.56 72.1733 7.90667 73.1333 8.6 73.72C9.29333 74.28 10.2667 74.56 11.52 74.56C12.4267 74.56 13.2933 74.4533 14.12 74.24C14.9733 74.0267 15.7867 73.72 16.56 73.32V77.76ZM16.12 86V64.48H22.36V86H16.12ZM38.8716 86.32C36.4182 86.32 34.2582 85.84 32.3916 84.88C30.5516 83.92 29.1249 82.6133 28.1116 80.96C27.0982 79.28 26.5916 77.3733 26.5916 75.24C26.5916 73.08 27.0849 71.1733 28.0716 69.52C29.0849 67.84 30.4582 66.5333 32.1916 65.6C33.9249 64.64 35.8849 64.16 38.0716 64.16C40.1782 64.16 42.0716 64.6133 43.7516 65.52C45.4582 66.4 46.8049 67.68 47.7916 69.36C48.7782 71.0133 49.2716 73 49.2716 75.32C49.2716 75.56 49.2582 75.84 49.2316 76.16C49.2049 76.4533 49.1782 76.7333 49.1516 77H31.6716V73.36H45.8716L43.4716 74.44C43.4716 73.32 43.2449 72.3467 42.7916 71.52C42.3382 70.6933 41.7116 70.0533 40.9116 69.6C40.1116 69.12 39.1782 68.88 38.1116 68.88C37.0449 68.88 36.0982 69.12 35.2716 69.6C34.4716 70.0533 33.8449 70.7067 33.3916 71.56C32.9382 72.3867 32.7116 73.3733 32.7116 74.52V75.48C32.7116 76.6533 32.9649 77.6933 33.4716 78.6C34.0049 79.48 34.7382 80.16 35.6716 80.64C36.6316 81.0933 37.7516 81.32 39.0316 81.32C40.1782 81.32 41.1782 81.1467 42.0316 80.8C42.9116 80.4533 43.7116 79.9333 44.4316 79.24L47.7516 82.84C46.7649 83.96 45.5249 84.8267 44.0316 85.44C42.5382 86.0267 40.8182 86.32 38.8716 86.32ZM50.5888 86L60.2288 73.36L60.1088 76.8L50.8688 64.48H57.8688L63.7088 72.52L61.0688 72.6L67.1088 64.48H73.7488L64.4688 76.68V73.32L74.0688 86H66.9888L60.8688 77.44L63.4688 77.8L57.3888 86H50.5888ZM74.4206 85.96L74.7406 80.84C74.9006 80.8667 75.0606 80.8933 75.2206 80.92C75.3806 80.92 75.5273 80.92 75.6606 80.92C76.4073 80.92 76.994 80.7067 77.4206 80.28C77.8473 79.8533 78.1673 79.28 78.3806 78.56C78.594 77.8133 78.7406 76.9733 78.8206 76.04C78.9273 75.1067 79.0073 74.1333 79.0606 73.12L79.3806 64.48H97.7806V86H91.5406V68.08L92.9406 69.6H83.5006L84.8206 68L84.5406 73.4C84.4606 75.32 84.3006 77.08 84.0606 78.68C83.8473 80.28 83.4873 81.6667 82.9806 82.84C82.474 83.9867 81.794 84.88 80.9406 85.52C80.0873 86.1333 78.994 86.44 77.6606 86.44C77.1806 86.44 76.674 86.4 76.1406 86.32C75.6073 86.24 75.034 86.12 74.4206 85.96ZM125.941 86V64.48H132.141V86H125.941ZM115.101 71.36C117.928 71.3867 120.048 72.0267 121.461 73.28C122.901 74.5067 123.621 76.2533 123.621 78.52C123.621 80.8933 122.808 82.7467 121.181 84.08C119.555 85.3867 117.248 86.04 114.261 86.04L103.781 86V64.48H109.981V71.36H115.101ZM113.701 81.6C114.901 81.6267 115.821 81.3733 116.461 80.84C117.101 80.3067 117.421 79.5067 117.421 78.44C117.421 77.3733 117.101 76.6133 116.461 76.16C115.821 75.68 114.901 75.4267 113.701 75.4L109.981 75.36V81.6H113.701Z" fill="#141414"/>
<path d="M9.552 130L5.248 124.416L6.208 123.84L10.912 130H9.552ZM1.888 130V118.8H3.04V130H1.888ZM2.688 124.864V123.824H6.192V124.864H2.688ZM6.304 124.528L5.216 124.336L9.392 118.8H10.672L6.304 124.528ZM17.8164 130V128.144L17.7684 127.84V124.736C17.7684 124.021 17.5657 123.472 17.1604 123.088C16.7657 122.704 16.1737 122.512 15.3844 122.512C14.8404 122.512 14.323 122.603 13.8324 122.784C13.3417 122.965 12.9257 123.205 12.5844 123.504L12.0724 122.656C12.499 122.293 13.011 122.016 13.6084 121.824C14.2057 121.621 14.835 121.52 15.4964 121.52C16.5844 121.52 17.4217 121.792 18.0084 122.336C18.6057 122.869 18.9044 123.685 18.9044 124.784V130H17.8164ZM14.9204 130.08C14.291 130.08 13.7417 129.979 13.2724 129.776C12.8137 129.563 12.4617 129.275 12.2164 128.912C11.971 128.539 11.8484 128.112 11.8484 127.632C11.8484 127.195 11.9497 126.8 12.1524 126.448C12.3657 126.085 12.707 125.797 13.1764 125.584C13.6564 125.36 14.2964 125.248 15.0964 125.248H17.9924V126.096H15.1284C14.3177 126.096 13.7524 126.24 13.4324 126.528C13.123 126.816 12.9684 127.173 12.9684 127.6C12.9684 128.08 13.155 128.464 13.5284 128.752C13.9017 129.04 14.4244 129.184 15.0964 129.184C15.7364 129.184 16.2857 129.04 16.7444 128.752C17.2137 128.453 17.555 128.027 17.7684 127.472L18.0244 128.256C17.811 128.811 17.4377 129.253 16.9044 129.584C16.3817 129.915 15.7204 130.08 14.9204 130.08ZM31.8965 130L29.0165 125.84L29.9605 125.28L33.2565 130H31.8965ZM27.1285 126.256V125.28H29.7845V126.256H27.1285ZM30.0725 125.92L28.9845 125.76L31.7845 121.6H33.0165L30.0725 125.92ZM21.9445 130H20.5845L23.8805 125.28L24.8085 125.84L21.9445 130ZM27.4805 130H26.3445V121.6H27.4805V130ZM26.6965 126.256H24.0565V125.28H26.6965V126.256ZM23.7845 125.92L20.8245 121.6H22.0565L24.8405 125.76L23.7845 125.92ZM40.9073 129.456V122.592H36.8593L36.7633 124.464C36.7419 125.029 36.7046 125.584 36.6513 126.128C36.6086 126.672 36.5286 127.173 36.4113 127.632C36.3046 128.08 36.1499 128.448 35.9473 128.736C35.7446 129.013 35.4833 129.173 35.1633 129.216L34.0273 129.008C34.3579 129.019 34.6299 128.901 34.8433 128.656C35.0566 128.4 35.2219 128.053 35.3393 127.616C35.4566 127.179 35.5419 126.683 35.5953 126.128C35.6486 125.563 35.6913 124.987 35.7233 124.4L35.8353 121.6H42.0433V129.456H40.9073ZM33.6753 132.032V129.008H43.3553V132.032H42.2833V130H34.7473V132.032H33.6753ZM53.7611 130V121.6H54.8971V130H53.7611ZM49.1051 124.56C50.1611 124.571 50.9665 124.805 51.5211 125.264C52.0758 125.723 52.3531 126.384 52.3531 127.248C52.3531 128.144 52.0545 128.832 51.4571 129.312C50.8598 129.792 50.0065 130.027 48.8971 130.016L45.5691 130V121.6H46.7051V124.528L49.1051 124.56ZM48.8171 129.152C49.6065 129.163 50.1985 129.008 50.5931 128.688C50.9985 128.357 51.2011 127.877 51.2011 127.248C51.2011 126.619 51.0038 126.16 50.6091 125.872C50.2145 125.573 49.6171 125.419 48.8171 125.408L46.7051 125.376V129.12L48.8171 129.152ZM58.1316 130V121.6H59.2676V128.272L64.8836 121.6H65.8916V130H64.7556V123.312L59.1556 130H58.1316ZM61.9396 120.384C61.2356 120.384 60.665 120.208 60.2276 119.856C59.801 119.493 59.577 118.976 59.5556 118.304H60.3716C60.3823 118.731 60.5316 119.067 60.8196 119.312C61.1076 119.557 61.481 119.68 61.9396 119.68C62.3983 119.68 62.7716 119.557 63.0596 119.312C63.3583 119.067 63.513 118.731 63.5236 118.304H64.3396C64.329 118.976 64.105 119.493 63.6676 119.856C63.2303 120.208 62.6543 120.384 61.9396 120.384ZM79.4948 130L76.0388 125.84L76.9828 125.28L80.8388 130H79.4948ZM73.3348 130V121.6H74.4708V130H73.3348ZM74.1188 126.256V125.28H76.8228V126.256H74.1188ZM77.0788 125.92L76.0228 125.76L79.3668 121.6H80.5988L77.0788 125.92ZM85.7908 130.08C84.9801 130.08 84.2494 129.899 83.5988 129.536C82.9588 129.163 82.4521 128.656 82.0788 128.016C81.7054 127.365 81.5188 126.624 81.5188 125.792C81.5188 124.949 81.7054 124.208 82.0788 123.568C82.4521 122.928 82.9588 122.427 83.5988 122.064C84.2388 121.701 84.9694 121.52 85.7908 121.52C86.6228 121.52 87.3588 121.701 87.9988 122.064C88.6494 122.427 89.1561 122.928 89.5188 123.568C89.8921 124.208 90.0788 124.949 90.0788 125.792C90.0788 126.624 89.8921 127.365 89.5188 128.016C89.1561 128.656 88.6494 129.163 87.9988 129.536C87.3481 129.899 86.6121 130.08 85.7908 130.08ZM85.7908 129.072C86.3988 129.072 86.9374 128.939 87.4068 128.672C87.8761 128.395 88.2441 128.011 88.5108 127.52C88.7881 127.019 88.9268 126.443 88.9268 125.792C88.9268 125.131 88.7881 124.555 88.5108 124.064C88.2441 123.573 87.8761 123.195 87.4068 122.928C86.9374 122.651 86.4041 122.512 85.8068 122.512C85.2094 122.512 84.6761 122.651 84.2068 122.928C83.7374 123.195 83.3641 123.573 83.0868 124.064C82.8094 124.555 82.6708 125.131 82.6708 125.792C82.6708 126.443 82.8094 127.019 83.0868 127.52C83.3641 128.011 83.7374 128.395 84.2068 128.672C84.6761 128.939 85.2041 129.072 85.7908 129.072ZM92.5066 130V121.6H93.6586L97.4666 128.048H96.9866L100.859 121.6H101.915V130H100.875V122.896L101.083 122.992L97.4666 128.976H96.9546L93.3066 122.928L93.5466 122.88V130H92.5066ZM105.147 130V121.6H112.699V130H111.563V122.288L111.851 122.592H105.995L106.283 122.288V130H105.147ZM114.393 129.984L114.473 129.008C114.547 129.019 114.617 129.035 114.681 129.056C114.755 129.067 114.819 129.072 114.873 129.072C115.214 129.072 115.486 128.944 115.689 128.688C115.902 128.432 116.062 128.091 116.169 127.664C116.275 127.237 116.35 126.757 116.393 126.224C116.435 125.68 116.473 125.136 116.505 124.592L116.649 121.6H122.809V130H121.673V122.256L121.961 122.592H117.385L117.657 122.24L117.529 124.672C117.497 125.397 117.438 126.091 117.353 126.752C117.278 127.413 117.155 127.995 116.985 128.496C116.825 128.997 116.601 129.392 116.312 129.68C116.025 129.957 115.657 130.096 115.209 130.096C115.081 130.096 114.947 130.085 114.809 130.064C114.681 130.043 114.542 130.016 114.393 129.984ZM129.638 130.08C128.763 130.08 127.995 129.899 127.334 129.536C126.673 129.163 126.155 128.656 125.782 128.016C125.409 127.365 125.222 126.624 125.222 125.792C125.222 124.96 125.398 124.224 125.75 123.584C126.113 122.944 126.603 122.443 127.222 122.08C127.851 121.707 128.555 121.52 129.334 121.52C130.123 121.52 130.822 121.701 131.43 122.064C132.049 122.416 132.534 122.917 132.886 123.568C133.238 124.208 133.414 124.949 133.414 125.792C133.414 125.845 133.409 125.904 133.398 125.968C133.398 126.021 133.398 126.08 133.398 126.144H126.086V125.296H132.79L132.342 125.632C132.342 125.024 132.209 124.485 131.942 124.016C131.686 123.536 131.334 123.163 130.886 122.896C130.438 122.629 129.921 122.496 129.334 122.496C128.758 122.496 128.241 122.629 127.782 122.896C127.323 123.163 126.966 123.536 126.71 124.016C126.454 124.496 126.326 125.045 126.326 125.664V125.84C126.326 126.48 126.465 127.045 126.742 127.536C127.03 128.016 127.425 128.395 127.926 128.672C128.438 128.939 129.019 129.072 129.67 129.072C130.182 129.072 130.657 128.981 131.094 128.8C131.542 128.619 131.926 128.341 132.246 127.968L132.886 128.704C132.513 129.152 132.043 129.493 131.478 129.728C130.923 129.963 130.31 130.08 129.638 130.08ZM142.089 130L138.633 125.84L139.577 125.28L143.433 130H142.089ZM135.929 130V121.6H137.065V130H135.929ZM136.713 126.256V125.28H139.417V126.256H136.713ZM139.673 125.92L138.617 125.76L141.961 121.6H143.193L139.673 125.92ZM146.654 130V122.288L146.942 122.592H143.47V121.6H150.974V122.592H147.502L147.79 122.288V130H146.654ZM155.188 126.064V125.248H171.188V126.064H155.188ZM178.159 126.16V125.296H183.039V126.16H178.159ZM179.279 121.52C180.132 121.52 180.895 121.707 181.567 122.08C182.239 122.443 182.767 122.949 183.151 123.6C183.546 124.24 183.743 124.971 183.743 125.792C183.743 126.613 183.546 127.349 183.151 128C182.767 128.651 182.239 129.163 181.567 129.536C180.895 129.909 180.132 130.096 179.279 130.096C178.586 130.096 177.94 129.989 177.343 129.776C176.756 129.552 176.26 129.232 175.855 128.816L176.527 128.144C176.89 128.485 177.3 128.741 177.759 128.912C178.218 129.072 178.708 129.152 179.231 129.152C179.892 129.152 180.479 129.008 180.991 128.72C181.514 128.421 181.924 128.021 182.223 127.52C182.522 127.008 182.671 126.432 182.671 125.792C182.671 125.152 182.522 124.581 182.223 124.08C181.924 123.568 181.514 123.168 180.991 122.88C180.479 122.592 179.892 122.448 179.231 122.448C178.708 122.448 178.218 122.533 177.759 122.704C177.3 122.864 176.89 123.115 176.527 123.456L175.855 122.8C176.26 122.373 176.756 122.053 177.343 121.84C177.94 121.627 178.586 121.52 179.279 121.52ZM187.419 130V122.288L187.707 122.592H184.235V121.6H191.739V122.592H188.267L188.555 122.288V130H187.419ZM196.447 130.08C195.636 130.08 194.906 129.899 194.255 129.536C193.615 129.163 193.108 128.656 192.735 128.016C192.362 127.365 192.175 126.624 192.175 125.792C192.175 124.949 192.362 124.208 192.735 123.568C193.108 122.928 193.615 122.427 194.255 122.064C194.895 121.701 195.626 121.52 196.447 121.52C197.279 121.52 198.015 121.701 198.655 122.064C199.306 122.427 199.812 122.928 200.175 123.568C200.548 124.208 200.735 124.949 200.735 125.792C200.735 126.624 200.548 127.365 200.175 128.016C199.812 128.656 199.306 129.163 198.655 129.536C198.004 129.899 197.268 130.08 196.447 130.08ZM196.447 129.072C197.055 129.072 197.594 128.939 198.063 128.672C198.532 128.395 198.9 128.011 199.167 127.52C199.444 127.019 199.583 126.443 199.583 125.792C199.583 125.131 199.444 124.555 199.167 124.064C198.9 123.573 198.532 123.195 198.063 122.928C197.594 122.651 197.06 122.512 196.463 122.512C195.866 122.512 195.332 122.651 194.863 122.928C194.394 123.195 194.02 123.573 193.743 124.064C193.466 124.555 193.327 125.131 193.327 125.792C193.327 126.443 193.466 127.019 193.743 127.52C194.02 128.011 194.394 128.395 194.863 128.672C195.332 128.939 195.86 129.072 196.447 129.072ZM207.35 130V121.6H214.902V130H213.766V122.288L214.054 122.592H208.198L208.486 122.288V130H207.35ZM222.468 130.08C221.742 130.08 221.086 129.915 220.5 129.584C219.913 129.243 219.444 128.757 219.092 128.128C218.75 127.488 218.58 126.709 218.58 125.792C218.58 124.875 218.75 124.101 219.092 123.472C219.433 122.832 219.897 122.347 220.484 122.016C221.07 121.685 221.732 121.52 222.468 121.52C223.268 121.52 223.982 121.701 224.612 122.064C225.252 122.416 225.753 122.917 226.116 123.568C226.478 124.208 226.66 124.949 226.66 125.792C226.66 126.645 226.478 127.392 226.116 128.032C225.753 128.672 225.252 129.173 224.612 129.536C223.982 129.899 223.268 130.08 222.468 130.08ZM218.132 133.104V121.6H219.22V124.128L219.108 125.808L219.268 127.504V133.104H218.132ZM222.388 129.072C222.985 129.072 223.518 128.939 223.988 128.672C224.457 128.395 224.83 128.011 225.108 127.52C225.385 127.019 225.524 126.443 225.524 125.792C225.524 125.141 225.385 124.571 225.108 124.08C224.83 123.589 224.457 123.205 223.988 122.928C223.518 122.651 222.985 122.512 222.388 122.512C221.79 122.512 221.252 122.651 220.772 122.928C220.302 123.205 219.929 123.589 219.652 124.08C219.385 124.571 219.252 125.141 219.252 125.792C219.252 126.443 219.385 127.019 219.652 127.52C219.929 128.011 220.302 128.395 220.772 128.672C221.252 128.939 221.79 129.072 222.388 129.072ZM232.556 130.08C231.746 130.08 231.015 129.899 230.364 129.536C229.724 129.163 229.218 128.656 228.844 128.016C228.471 127.365 228.284 126.624 228.284 125.792C228.284 124.949 228.471 124.208 228.844 123.568C229.218 122.928 229.724 122.427 230.364 122.064C231.004 121.701 231.735 121.52 232.556 121.52C233.388 121.52 234.124 121.701 234.764 122.064C235.415 122.427 235.922 122.928 236.284 123.568C236.658 124.208 236.844 124.949 236.844 125.792C236.844 126.624 236.658 127.365 236.284 128.016C235.922 128.656 235.415 129.163 234.764 129.536C234.114 129.899 233.378 130.08 232.556 130.08ZM232.556 129.072C233.164 129.072 233.703 128.939 234.172 128.672C234.642 128.395 235.01 128.011 235.276 127.52C235.554 127.019 235.692 126.443 235.692 125.792C235.692 125.131 235.554 124.555 235.276 124.064C235.01 123.573 234.642 123.195 234.172 122.928C233.703 122.651 233.17 122.512 232.572 122.512C231.975 122.512 231.442 122.651 230.972 122.928C230.503 123.195 230.13 123.573 229.852 124.064C229.575 124.555 229.436 125.131 229.436 125.792C229.436 126.443 229.575 127.019 229.852 127.52C230.13 128.011 230.503 128.395 230.972 128.672C231.442 128.939 231.97 129.072 232.556 129.072ZM244.985 129.456V122.592H240.937L240.841 124.464C240.82 125.029 240.783 125.584 240.729 126.128C240.687 126.672 240.607 127.173 240.489 127.632C240.383 128.08 240.228 128.448 240.025 128.736C239.823 129.013 239.561 129.173 239.241 129.216L238.105 129.008C238.436 129.019 238.708 128.901 238.921 128.656C239.135 128.4 239.3 128.053 239.417 127.616C239.535 127.179 239.62 126.683 239.673 126.128C239.727 125.563 239.769 124.987 239.801 124.4L239.913 121.6H246.121V129.456H244.985ZM237.753 132.032V129.008H247.433V132.032H246.361V130H238.825V132.032H237.753ZM249.791 133.184C249.397 133.184 249.018 133.12 248.655 132.992C248.303 132.864 247.999 132.672 247.743 132.416L248.271 131.568C248.485 131.771 248.714 131.925 248.959 132.032C249.215 132.149 249.498 132.208 249.807 132.208C250.181 132.208 250.501 132.101 250.767 131.888C251.045 131.685 251.306 131.323 251.551 130.8L252.095 129.568L252.223 129.392L255.679 121.6H256.799L252.591 131.008C252.357 131.552 252.095 131.984 251.807 132.304C251.53 132.624 251.226 132.848 250.895 132.976C250.565 133.115 250.197 133.184 249.791 133.184ZM252.031 130.24L248.159 121.6H249.343L252.767 129.312L252.031 130.24ZM258.569 130V121.6H259.721L263.529 128.048H263.049L266.921 121.6H267.977V130H266.937V122.896L267.145 122.992L263.529 128.976H263.017L259.369 122.928L259.609 122.88V130H258.569ZM276.426 130V128.144L276.378 127.84V124.736C276.378 124.021 276.175 123.472 275.77 123.088C275.375 122.704 274.783 122.512 273.994 122.512C273.45 122.512 272.932 122.603 272.442 122.784C271.951 122.965 271.535 123.205 271.194 123.504L270.682 122.656C271.108 122.293 271.62 122.016 272.218 121.824C272.815 121.621 273.444 121.52 274.106 121.52C275.194 121.52 276.031 121.792 276.618 122.336C277.215 122.869 277.514 123.685 277.514 124.784V130H276.426ZM273.53 130.08C272.9 130.08 272.351 129.979 271.882 129.776C271.423 129.563 271.071 129.275 270.826 128.912C270.58 128.539 270.458 128.112 270.458 127.632C270.458 127.195 270.559 126.8 270.762 126.448C270.975 126.085 271.316 125.797 271.786 125.584C272.266 125.36 272.906 125.248 273.706 125.248H276.602V126.096H273.738C272.927 126.096 272.362 126.24 272.042 126.528C271.732 126.816 271.578 127.173 271.578 127.6C271.578 128.08 271.764 128.464 272.138 128.752C272.511 129.04 273.034 129.184 273.706 129.184C274.346 129.184 274.895 129.04 275.354 128.752C275.823 128.453 276.164 128.027 276.378 127.472L276.634 128.256C276.42 128.811 276.047 129.253 275.514 129.584C274.991 129.915 274.33 130.08 273.53 130.08ZM280.538 130V121.6H281.674V125.312H286.97V121.6H288.106V130H286.97V126.288H281.674V130H280.538ZM291.335 130V121.6H292.471V125.312H297.767V121.6H298.903V130H297.767V126.288H292.471V130H291.335ZM310.324 130V121.6H311.46V130H310.324ZM305.668 124.56C306.724 124.571 307.529 124.805 308.084 125.264C308.638 125.723 308.916 126.384 308.916 127.248C308.916 128.144 308.617 128.832 308.02 129.312C307.422 129.792 306.569 130.027 305.46 130.016L302.132 130V121.6H303.268V124.528L305.668 124.56ZM305.38 129.152C306.169 129.163 306.761 129.008 307.156 128.688C307.561 128.357 307.764 127.877 307.764 127.248C307.764 126.619 307.566 126.16 307.172 125.872C306.777 125.573 306.18 125.419 305.38 125.408L303.268 125.376V129.12L305.38 129.152ZM314.694 130V121.6H315.83V128.272L321.446 121.6H322.454V130H321.318V123.312L315.718 130H314.694ZM318.502 120.384C317.798 120.384 317.227 120.208 316.79 119.856C316.363 119.493 316.139 118.976 316.118 118.304H316.934C316.945 118.731 317.094 119.067 317.382 119.312C317.67 119.557 318.043 119.68 318.502 119.68C318.961 119.68 319.334 119.557 319.622 119.312C319.921 119.067 320.075 118.731 320.086 118.304H320.902C320.891 118.976 320.667 119.493 320.23 119.856C319.793 120.208 319.217 120.384 318.502 120.384ZM333.673 130.096C332.991 130.096 332.383 129.984 331.849 129.76C331.327 129.536 330.879 129.195 330.505 128.736C330.132 128.277 329.849 127.712 329.657 127.04C329.465 126.357 329.369 125.568 329.369 124.672C329.369 123.872 329.444 123.173 329.593 122.576C329.743 121.968 329.951 121.445 330.217 121.008C330.484 120.571 330.793 120.203 331.145 119.904C331.508 119.595 331.897 119.349 332.313 119.168C332.74 118.976 333.177 118.832 333.625 118.736L337.401 117.856L337.593 118.912L334.041 119.712C333.817 119.765 333.545 119.84 333.225 119.936C332.916 120.032 332.596 120.176 332.265 120.368C331.945 120.56 331.647 120.827 331.369 121.168C331.092 121.509 330.868 121.952 330.697 122.496C330.537 123.029 330.457 123.696 330.457 124.496C330.457 124.667 330.463 124.805 330.473 124.912C330.484 125.008 330.495 125.115 330.505 125.232C330.527 125.339 330.543 125.499 330.553 125.712L330.057 125.296C330.175 124.645 330.415 124.08 330.777 123.6C331.14 123.109 331.593 122.731 332.137 122.464C332.692 122.187 333.305 122.048 333.977 122.048C334.756 122.048 335.449 122.219 336.057 122.56C336.665 122.891 337.14 123.355 337.481 123.952C337.833 124.549 338.009 125.243 338.009 126.032C338.009 126.811 337.828 127.509 337.465 128.128C337.113 128.747 336.612 129.232 335.961 129.584C335.311 129.925 334.548 130.096 333.673 130.096ZM333.801 129.152C334.399 129.152 334.927 129.019 335.385 128.752C335.844 128.475 336.201 128.101 336.457 127.632C336.724 127.163 336.857 126.635 336.857 126.048C336.857 125.472 336.724 124.96 336.457 124.512C336.201 124.064 335.844 123.712 335.385 123.456C334.927 123.189 334.393 123.056 333.785 123.056C333.188 123.056 332.66 123.184 332.201 123.44C331.743 123.685 331.38 124.032 331.113 124.48C330.857 124.928 330.729 125.445 330.729 126.032C330.729 126.619 330.857 127.147 331.113 127.616C331.38 128.085 331.743 128.459 332.201 128.736C332.671 129.013 333.204 129.152 333.801 129.152ZM345.613 130V128.144L345.565 127.84V124.736C345.565 124.021 345.363 123.472 344.957 123.088C344.563 122.704 343.971 122.512 343.181 122.512C342.637 122.512 342.12 122.603 341.629 122.784C341.139 122.965 340.723 123.205 340.381 123.504L339.869 122.656C340.296 122.293 340.808 122.016 341.405 121.824C342.003 121.621 342.632 121.52 343.293 121.52C344.381 121.52 345.219 121.792 345.805 122.336C346.403 122.869 346.701 123.685 346.701 124.784V130H345.613ZM342.717 130.08C342.088 130.08 341.539 129.979 341.069 129.776C340.611 129.563 340.259 129.275 340.013 128.912C339.768 128.539 339.645 128.112 339.645 127.632C339.645 127.195 339.747 126.8 339.949 126.448C340.163 126.085 340.504 125.797 340.973 125.584C341.453 125.36 342.093 125.248 342.893 125.248H345.789V126.096H342.925C342.115 126.096 341.549 126.24 341.229 126.528C340.92 126.816 340.765 127.173 340.765 127.6C340.765 128.08 340.952 128.464 341.325 128.752C341.699 129.04 342.221 129.184 342.893 129.184C343.533 129.184 344.083 129.04 344.541 128.752C345.011 128.453 345.352 128.027 345.565 127.472L345.821 128.256C345.608 128.811 345.235 129.253 344.701 129.584C344.179 129.915 343.517 130.08 342.717 130.08ZM348.189 129.984L348.269 129.008C348.344 129.019 348.413 129.035 348.477 129.056C348.552 129.067 348.616 129.072 348.669 129.072C349.011 129.072 349.283 128.944 349.485 128.688C349.699 128.432 349.859 128.091 349.965 127.664C350.072 127.237 350.147 126.757 350.189 126.224C350.232 125.68 350.269 125.136 350.301 124.592L350.445 121.6H356.605V130H355.469V122.256L355.757 122.592H351.181L351.453 122.24L351.325 124.672C351.293 125.397 351.235 126.091 351.149 126.752C351.075 127.413 350.952 127.995 350.781 128.496C350.621 128.997 350.397 129.392 350.109 129.68C349.821 129.957 349.453 130.096 349.005 130.096C348.877 130.096 348.744 130.085 348.605 130.064C348.477 130.043 348.339 130.016 348.189 129.984ZM365.051 130V128.144L365.003 127.84V124.736C365.003 124.021 364.8 123.472 364.395 123.088C364 122.704 363.408 122.512 362.619 122.512C362.075 122.512 361.557 122.603 361.067 122.784C360.576 122.965 360.16 123.205 359.819 123.504L359.307 122.656C359.733 122.293 360.245 122.016 360.843 121.824C361.44 121.621 362.069 121.52 362.731 121.52C363.819 121.52 364.656 121.792 365.243 122.336C365.84 122.869 366.139 123.685 366.139 124.784V130H365.051ZM362.155 130.08C361.525 130.08 360.976 129.979 360.507 129.776C360.048 129.563 359.696 129.275 359.451 128.912C359.205 128.539 359.083 128.112 359.083 127.632C359.083 127.195 359.184 126.8 359.387 126.448C359.6 126.085 359.941 125.797 360.411 125.584C360.891 125.36 361.531 125.248 362.331 125.248H365.227V126.096H362.363C361.552 126.096 360.987 126.24 360.667 126.528C360.357 126.816 360.203 127.173 360.203 127.6C360.203 128.08 360.389 128.464 360.763 128.752C361.136 129.04 361.659 129.184 362.331 129.184C362.971 129.184 363.52 129.04 363.979 128.752C364.448 128.453 364.789 128.027 365.003 127.472L365.259 128.256C365.045 128.811 364.672 129.253 364.139 129.584C363.616 129.915 362.955 130.08 362.155 130.08ZM369.163 130V121.6H370.299V125.312H375.595V121.6H376.731V130H375.595V126.288H370.299V130H369.163ZM383.48 130.08C382.648 130.08 381.901 129.899 381.24 129.536C380.589 129.163 380.077 128.656 379.704 128.016C379.33 127.365 379.144 126.624 379.144 125.792C379.144 124.949 379.33 124.208 379.704 123.568C380.077 122.928 380.589 122.427 381.24 122.064C381.901 121.701 382.648 121.52 383.48 121.52C384.194 121.52 384.84 121.659 385.416 121.936C385.992 122.213 386.445 122.629 386.776 123.184L385.928 123.76C385.64 123.333 385.282 123.019 384.856 122.816C384.429 122.613 383.965 122.512 383.464 122.512C382.866 122.512 382.328 122.651 381.848 122.928C381.368 123.195 380.989 123.573 380.712 124.064C380.434 124.555 380.296 125.131 380.296 125.792C380.296 126.453 380.434 127.029 380.712 127.52C380.989 128.011 381.368 128.395 381.848 128.672C382.328 128.939 382.866 129.072 383.464 129.072C383.965 129.072 384.429 128.971 384.856 128.768C385.282 128.565 385.64 128.256 385.928 127.84L386.776 128.416C386.445 128.96 385.992 129.376 385.416 129.664C384.84 129.941 384.194 130.08 383.48 130.08ZM393.163 130V121.6H394.315L398.123 128.048H397.643L401.515 121.6H402.571V130H401.531V122.896L401.739 122.992L398.123 128.976H397.611L393.963 122.928L394.203 122.88V130H393.163ZM409.404 130.08C408.529 130.08 407.761 129.899 407.1 129.536C406.438 129.163 405.921 128.656 405.548 128.016C405.174 127.365 404.988 126.624 404.988 125.792C404.988 124.96 405.164 124.224 405.516 123.584C405.878 122.944 406.369 122.443 406.988 122.08C407.617 121.707 408.321 121.52 409.1 121.52C409.889 121.52 410.588 121.701 411.196 122.064C411.814 122.416 412.3 122.917 412.652 123.568C413.004 124.208 413.18 124.949 413.18 125.792C413.18 125.845 413.174 125.904 413.164 125.968C413.164 126.021 413.164 126.08 413.164 126.144H405.852V125.296H412.556L412.108 125.632C412.108 125.024 411.974 124.485 411.708 124.016C411.452 123.536 411.1 123.163 410.652 122.896C410.204 122.629 409.686 122.496 409.1 122.496C408.524 122.496 408.006 122.629 407.548 122.896C407.089 123.163 406.732 123.536 406.476 124.016C406.22 124.496 406.092 125.045 406.092 125.664V125.84C406.092 126.48 406.23 127.045 406.508 127.536C406.796 128.016 407.19 128.395 407.692 128.672C408.204 128.939 408.785 129.072 409.436 129.072C409.948 129.072 410.422 128.981 410.86 128.8C411.308 128.619 411.692 128.341 412.012 127.968L412.652 128.704C412.278 129.152 411.809 129.493 411.244 129.728C410.689 129.963 410.076 130.08 409.404 130.08ZM425.428 130L422.548 125.84L423.492 125.28L426.788 130H425.428ZM420.66 126.256V125.28H423.316V126.256H420.66ZM423.604 125.92L422.516 125.76L425.316 121.6H426.548L423.604 125.92ZM415.476 130H414.116L417.412 125.28L418.34 125.84L415.476 130ZM421.012 130H419.876V121.6H421.012V130ZM420.228 126.256H417.588V125.28H420.228V126.256ZM417.316 125.92L414.356 121.6H415.588L418.372 125.76L417.316 125.92ZM434.439 129.456V122.592H430.391L430.295 124.464C430.273 125.029 430.236 125.584 430.183 126.128C430.14 126.672 430.06 127.173 429.943 127.632C429.836 128.08 429.681 128.448 429.479 128.736C429.276 129.013 429.015 129.173 428.695 129.216L427.559 129.008C427.889 129.019 428.161 128.901 428.375 128.656C428.588 128.4 428.753 128.053 428.871 127.616C428.988 127.179 429.073 126.683 429.127 126.128C429.18 125.563 429.223 124.987 429.255 124.4L429.367 121.6H435.575V129.456H434.439ZM427.207 132.032V129.008H436.887V132.032H435.815V130H428.279V132.032H427.207ZM439.244 133.184C438.85 133.184 438.471 133.12 438.108 132.992C437.756 132.864 437.452 132.672 437.196 132.416L437.724 131.568C437.938 131.771 438.167 131.925 438.412 132.032C438.668 132.149 438.951 132.208 439.26 132.208C439.634 132.208 439.954 132.101 440.22 131.888C440.498 131.685 440.759 131.323 441.004 130.8L441.548 129.568L441.676 129.392L445.132 121.6H446.252L442.044 131.008C441.81 131.552 441.548 131.984 441.26 132.304C440.983 132.624 440.679 132.848 440.348 132.976C440.018 133.115 439.65 133.184 439.244 133.184ZM441.484 130.24L437.612 121.6H438.796L442.22 129.312L441.484 130.24ZM458.37 130L454.914 125.84L455.858 125.28L459.714 130H458.37ZM452.21 130V121.6H453.346V130H452.21ZM452.994 126.256V125.28H455.698V126.256H452.994ZM455.954 125.92L454.898 125.76L458.242 121.6H459.474L455.954 125.92ZM464.666 130.08C463.855 130.08 463.124 129.899 462.474 129.536C461.834 129.163 461.327 128.656 460.954 128.016C460.58 127.365 460.394 126.624 460.394 125.792C460.394 124.949 460.58 124.208 460.954 123.568C461.327 122.928 461.834 122.427 462.474 122.064C463.114 121.701 463.844 121.52 464.666 121.52C465.498 121.52 466.234 121.701 466.874 122.064C467.524 122.427 468.031 122.928 468.394 123.568C468.767 124.208 468.954 124.949 468.954 125.792C468.954 126.624 468.767 127.365 468.394 128.016C468.031 128.656 467.524 129.163 466.874 129.536C466.223 129.899 465.487 130.08 464.666 130.08ZM464.666 129.072C465.274 129.072 465.812 128.939 466.282 128.672C466.751 128.395 467.119 128.011 467.386 127.52C467.663 127.019 467.802 126.443 467.802 125.792C467.802 125.131 467.663 124.555 467.386 124.064C467.119 123.573 466.751 123.195 466.282 122.928C465.812 122.651 465.279 122.512 464.682 122.512C464.084 122.512 463.551 122.651 463.082 122.928C462.612 123.195 462.239 123.573 461.962 124.064C461.684 124.555 461.546 125.131 461.546 125.792C461.546 126.443 461.684 127.019 461.962 127.52C462.239 128.011 462.612 128.395 463.082 128.672C463.551 128.939 464.079 129.072 464.666 129.072ZM471.382 130V121.6H472.534L476.342 128.048H475.862L479.734 121.6H480.79V130H479.75V122.896L479.958 122.992L476.342 128.976H475.83L472.182 122.928L472.422 122.88V130H471.382ZM488.742 130.096C488.742 130.096 488.721 130.096 488.678 130.096C488.636 130.096 488.593 130.096 488.55 130.096C488.518 130.096 488.492 130.096 488.47 130.096C486.806 130.085 485.51 129.707 484.582 128.96C483.654 128.213 483.19 127.152 483.19 125.776C483.19 124.421 483.654 123.376 484.582 122.64C485.521 121.893 486.838 121.515 488.534 121.504C488.545 121.504 488.566 121.504 488.598 121.504C488.641 121.504 488.678 121.504 488.71 121.504C488.742 121.504 488.764 121.504 488.774 121.504C490.481 121.515 491.809 121.893 492.758 122.64C493.708 123.376 494.182 124.421 494.182 125.776C494.182 127.163 493.702 128.229 492.742 128.976C491.793 129.723 490.46 130.096 488.742 130.096ZM488.726 129.104C489.676 129.104 490.47 128.976 491.11 128.72C491.75 128.453 492.236 128.075 492.566 127.584C492.897 127.093 493.062 126.491 493.062 125.776C493.062 125.083 492.897 124.496 492.566 124.016C492.236 123.525 491.75 123.152 491.11 122.896C490.47 122.64 489.676 122.512 488.726 122.512C488.716 122.512 488.684 122.512 488.63 122.512C488.588 122.512 488.561 122.512 488.55 122.512C487.622 122.512 486.844 122.645 486.214 122.912C485.585 123.168 485.11 123.536 484.79 124.016C484.47 124.496 484.31 125.083 484.31 125.776C484.31 126.48 484.47 127.077 484.79 127.568C485.121 128.059 485.601 128.437 486.23 128.704C486.86 128.96 487.633 129.093 488.55 129.104C488.572 129.104 488.604 129.104 488.646 129.104C488.689 129.104 488.716 129.104 488.726 129.104ZM488.118 133.104V118.128H489.222V133.104H488.118ZM500.041 130.08C499.23 130.08 498.499 129.899 497.849 129.536C497.209 129.163 496.702 128.656 496.329 128.016C495.955 127.365 495.769 126.624 495.769 125.792C495.769 124.949 495.955 124.208 496.329 123.568C496.702 122.928 497.209 122.427 497.849 122.064C498.489 121.701 499.219 121.52 500.041 121.52C500.873 121.52 501.609 121.701 502.249 122.064C502.899 122.427 503.406 122.928 503.769 123.568C504.142 124.208 504.329 124.949 504.329 125.792C504.329 126.624 504.142 127.365 503.769 128.016C503.406 128.656 502.899 129.163 502.249 129.536C501.598 129.899 500.862 130.08 500.041 130.08ZM500.041 129.072C500.649 129.072 501.187 128.939 501.657 128.672C502.126 128.395 502.494 128.011 502.761 127.52C503.038 127.019 503.177 126.443 503.177 125.792C503.177 125.131 503.038 124.555 502.761 124.064C502.494 123.573 502.126 123.195 501.657 122.928C501.187 122.651 500.654 122.512 500.057 122.512C499.459 122.512 498.926 122.651 498.457 122.928C497.987 123.195 497.614 123.573 497.337 124.064C497.059 124.555 496.921 125.131 496.921 125.792C496.921 126.443 497.059 127.019 497.337 127.52C497.614 128.011 497.987 128.395 498.457 128.672C498.926 128.939 499.454 129.072 500.041 129.072ZM511.093 130.08C510.367 130.08 509.711 129.915 509.125 129.584C508.538 129.243 508.069 128.757 507.717 128.128C507.375 127.488 507.205 126.709 507.205 125.792C507.205 124.875 507.375 124.101 507.717 123.472C508.058 122.832 508.522 122.347 509.109 122.016C509.695 121.685 510.357 121.52 511.093 121.52C511.893 121.52 512.607 121.701 513.237 122.064C513.877 122.416 514.378 122.917 514.741 123.568C515.103 124.208 515.285 124.949 515.285 125.792C515.285 126.645 515.103 127.392 514.741 128.032C514.378 128.672 513.877 129.173 513.237 129.536C512.607 129.899 511.893 130.08 511.093 130.08ZM506.757 133.104V121.6H507.845V124.128L507.733 125.808L507.893 127.504V133.104H506.757ZM511.013 129.072C511.61 129.072 512.143 128.939 512.613 128.672C513.082 128.395 513.455 128.011 513.733 127.52C514.01 127.019 514.149 126.443 514.149 125.792C514.149 125.141 514.01 124.571 513.733 124.08C513.455 123.589 513.082 123.205 512.613 122.928C512.143 122.651 511.61 122.512 511.013 122.512C510.415 122.512 509.877 122.651 509.397 122.928C508.927 123.205 508.554 123.589 508.277 124.08C508.01 124.571 507.877 125.141 507.877 125.792C507.877 126.443 508.01 127.019 508.277 127.52C508.554 128.011 508.927 128.395 509.397 128.672C509.877 128.939 510.415 129.072 511.013 129.072ZM519.013 130V122.288L519.301 122.592H515.829V121.6H523.333V122.592H519.861L520.149 122.288V130H519.013ZM528.041 130.08C527.23 130.08 526.499 129.899 525.849 129.536C525.209 129.163 524.702 128.656 524.329 128.016C523.955 127.365 523.769 126.624 523.769 125.792C523.769 124.949 523.955 124.208 524.329 123.568C524.702 122.928 525.209 122.427 525.849 122.064C526.489 121.701 527.219 121.52 528.041 121.52C528.873 121.52 529.609 121.701 530.249 122.064C530.899 122.427 531.406 122.928 531.769 123.568C532.142 124.208 532.329 124.949 532.329 125.792C532.329 126.624 532.142 127.365 531.769 128.016C531.406 128.656 530.899 129.163 530.249 129.536C529.598 129.899 528.862 130.08 528.041 130.08ZM528.041 129.072C528.649 129.072 529.187 128.939 529.657 128.672C530.126 128.395 530.494 128.011 530.761 127.52C531.038 127.019 531.177 126.443 531.177 125.792C531.177 125.131 531.038 124.555 530.761 124.064C530.494 123.573 530.126 123.195 529.657 122.928C529.187 122.651 528.654 122.512 528.057 122.512C527.459 122.512 526.926 122.651 526.457 122.928C525.987 123.195 525.614 123.573 525.337 124.064C525.059 124.555 524.921 125.131 524.921 125.792C524.921 126.443 525.059 127.019 525.337 127.52C525.614 128.011 525.987 128.395 526.457 128.672C526.926 128.939 527.454 129.072 528.041 129.072ZM534.757 130V121.6H535.909L539.717 128.048H539.237L543.109 121.6H544.165V130H543.125V122.896L543.333 122.992L539.717 128.976H539.205L535.557 122.928L535.797 122.88V130H534.757ZM546.677 132.336L547.381 129.376L547.509 130.064C547.264 130.064 547.056 129.984 546.885 129.824C546.725 129.664 546.645 129.456 546.645 129.2C546.645 128.944 546.725 128.736 546.885 128.576C547.056 128.416 547.259 128.336 547.493 128.336C547.739 128.336 547.936 128.421 548.085 128.592C548.245 128.763 548.325 128.965 548.325 129.2C548.325 129.285 548.32 129.371 548.309 129.456C548.299 129.541 548.277 129.637 548.245 129.744C548.213 129.851 548.171 129.979 548.117 130.128L547.445 132.336H546.677ZM560.735 129.456V122.592H556.687L556.591 124.464C556.57 125.029 556.533 125.584 556.479 126.128C556.437 126.672 556.357 127.173 556.239 127.632C556.133 128.08 555.978 128.448 555.775 128.736C555.573 129.013 555.311 129.173 554.991 129.216L553.855 129.008C554.186 129.019 554.458 128.901 554.671 128.656C554.885 128.4 555.05 128.053 555.167 127.616C555.285 127.179 555.37 126.683 555.423 126.128C555.477 125.563 555.519 124.987 555.551 124.4L555.663 121.6H561.871V129.456H560.735ZM553.503 132.032V129.008H563.183V132.032H562.111V130H554.575V132.032H553.503ZM568.853 130.08C568.043 130.08 567.312 129.899 566.661 129.536C566.021 129.163 565.515 128.656 565.141 128.016C564.768 127.365 564.581 126.624 564.581 125.792C564.581 124.949 564.768 124.208 565.141 123.568C565.515 122.928 566.021 122.427 566.661 122.064C567.301 121.701 568.032 121.52 568.853 121.52C569.685 121.52 570.421 121.701 571.061 122.064C571.712 122.427 572.219 122.928 572.581 123.568C572.955 124.208 573.141 124.949 573.141 125.792C573.141 126.624 572.955 127.365 572.581 128.016C572.219 128.656 571.712 129.163 571.061 129.536C570.411 129.899 569.675 130.08 568.853 130.08ZM568.853 129.072C569.461 129.072 570 128.939 570.469 128.672C570.939 128.395 571.307 128.011 571.573 127.52C571.851 127.019 571.989 126.443 571.989 125.792C571.989 125.131 571.851 124.555 571.573 124.064C571.307 123.573 570.939 123.195 570.469 122.928C570 122.651 569.467 122.512 568.869 122.512C568.272 122.512 567.739 122.651 567.269 122.928C566.8 123.195 566.427 123.573 566.149 124.064C565.872 124.555 565.733 125.131 565.733 125.792C565.733 126.443 565.872 127.019 566.149 127.52C566.427 128.011 566.8 128.395 567.269 128.672C567.739 128.939 568.267 129.072 568.853 129.072ZM573.986 129.984L574.066 129.008C574.141 129.019 574.21 129.035 574.274 129.056C574.349 129.067 574.413 129.072 574.466 129.072C574.808 129.072 575.08 128.944 575.282 128.688C575.496 128.432 575.656 128.091 575.762 127.664C575.869 127.237 575.944 126.757 575.986 126.224C576.029 125.68 576.066 125.136 576.098 124.592L576.242 121.6H582.402V130H581.266V122.256L581.554 122.592H576.978L577.25 122.24L577.122 124.672C577.09 125.397 577.032 126.091 576.946 126.752C576.872 127.413 576.749 127.995 576.578 128.496C576.418 128.997 576.194 129.392 575.906 129.68C575.618 129.957 575.25 130.096 574.802 130.096C574.674 130.096 574.541 130.085 574.402 130.064C574.274 130.043 574.136 130.016 573.986 129.984ZM585.632 130V121.6H591.584V122.592H586.48L586.768 122.304V130H585.632ZM596.291 130.08C595.48 130.08 594.749 129.899 594.099 129.536C593.459 129.163 592.952 128.656 592.579 128.016C592.205 127.365 592.019 126.624 592.019 125.792C592.019 124.949 592.205 124.208 592.579 123.568C592.952 122.928 593.459 122.427 594.099 122.064C594.739 121.701 595.469 121.52 596.291 121.52C597.123 121.52 597.859 121.701 598.499 122.064C599.149 122.427 599.656 122.928 600.019 123.568C600.392 124.208 600.579 124.949 600.579 125.792C600.579 126.624 600.392 127.365 600.019 128.016C599.656 128.656 599.149 129.163 598.499 129.536C597.848 129.899 597.112 130.08 596.291 130.08ZM596.291 129.072C596.899 129.072 597.437 128.939 597.907 128.672C598.376 128.395 598.744 128.011 599.011 127.52C599.288 127.019 599.427 126.443 599.427 125.792C599.427 125.131 599.288 124.555 599.011 124.064C598.744 123.573 598.376 123.195 597.907 122.928C597.437 122.651 596.904 122.512 596.307 122.512C595.709 122.512 595.176 122.651 594.707 122.928C594.237 123.195 593.864 123.573 593.587 124.064C593.309 124.555 593.171 125.131 593.171 125.792C593.171 126.443 593.309 127.019 593.587 127.52C593.864 128.011 594.237 128.395 594.707 128.672C595.176 128.939 595.704 129.072 596.291 129.072ZM603.007 130V121.6H606.719C607.668 121.6 608.415 121.781 608.959 122.144C609.513 122.507 609.791 123.04 609.791 123.744C609.791 124.427 609.529 124.955 609.007 125.328C608.484 125.691 607.796 125.872 606.943 125.872L607.167 125.536C608.169 125.536 608.905 125.723 609.375 126.096C609.844 126.469 610.079 127.008 610.079 127.712C610.079 128.437 609.812 129.003 609.279 129.408C608.756 129.803 607.94 130 606.831 130H603.007ZM604.111 129.104H606.783C607.497 129.104 608.036 128.992 608.399 128.768C608.772 128.533 608.959 128.16 608.959 127.648C608.959 127.136 608.793 126.763 608.463 126.528C608.132 126.293 607.609 126.176 606.895 126.176H604.111V129.104ZM604.111 125.328H606.639C607.289 125.328 607.785 125.205 608.127 124.96C608.479 124.715 608.655 124.357 608.655 123.888C608.655 123.419 608.479 123.067 608.127 122.832C607.785 122.597 607.289 122.48 606.639 122.48H604.111V125.328ZM616.341 130.08C615.466 130.08 614.698 129.899 614.037 129.536C613.376 129.163 612.858 128.656 612.485 128.016C612.112 127.365 611.925 126.624 611.925 125.792C611.925 124.96 612.101 124.224 612.453 123.584C612.816 122.944 613.306 122.443 613.925 122.08C614.554 121.707 615.258 121.52 616.037 121.52C616.826 121.52 617.525 121.701 618.133 122.064C618.752 122.416 619.237 122.917 619.589 123.568C619.941 124.208 620.117 124.949 620.117 125.792C620.117 125.845 620.112 125.904 620.101 125.968C620.101 126.021 620.101 126.08 620.101 126.144H612.789V125.296H619.493L619.045 125.632C619.045 125.024 618.912 124.485 618.645 124.016C618.389 123.536 618.037 123.163 617.589 122.896C617.141 122.629 616.624 122.496 616.037 122.496C615.461 122.496 614.944 122.629 614.485 122.896C614.026 123.163 613.669 123.536 613.413 124.016C613.157 124.496 613.029 125.045 613.029 125.664V125.84C613.029 126.48 613.168 127.045 613.445 127.536C613.733 128.016 614.128 128.395 614.629 128.672C615.141 128.939 615.722 129.072 616.373 129.072C616.885 129.072 617.36 128.981 617.797 128.8C618.245 128.619 618.629 128.341 618.949 127.968L619.589 128.704C619.216 129.152 618.746 129.493 618.181 129.728C617.626 129.963 617.013 130.08 616.341 130.08ZM627.944 126.448C627.453 126.661 626.957 126.832 626.456 126.96C625.965 127.077 625.474 127.136 624.984 127.136C623.992 127.136 623.208 126.912 622.632 126.464C622.056 126.005 621.768 125.301 621.768 124.352V121.6H622.888V124.288C622.888 124.928 623.096 125.408 623.512 125.728C623.928 126.048 624.488 126.208 625.192 126.208C625.618 126.208 626.066 126.155 626.536 126.048C627.005 125.931 627.48 125.765 627.96 125.552L627.944 126.448ZM627.848 130V121.6H628.984V130H627.848ZM632.21 130V121.6H633.346V125.312H638.642V121.6H639.778V130H638.642V126.288H633.346V130H632.21ZM646.463 130.08C645.652 130.08 644.921 129.899 644.271 129.536C643.631 129.163 643.124 128.656 642.751 128.016C642.377 127.365 642.191 126.624 642.191 125.792C642.191 124.949 642.377 124.208 642.751 123.568C643.124 122.928 643.631 122.427 644.271 122.064C644.911 121.701 645.641 121.52 646.463 121.52C647.295 121.52 648.031 121.701 648.671 122.064C649.321 122.427 649.828 122.928 650.191 123.568C650.564 124.208 650.751 124.949 650.751 125.792C650.751 126.624 650.564 127.365 650.191 128.016C649.828 128.656 649.321 129.163 648.671 129.536C648.02 129.899 647.284 130.08 646.463 130.08ZM646.463 129.072C647.071 129.072 647.609 128.939 648.079 128.672C648.548 128.395 648.916 128.011 649.183 127.52C649.46 127.019 649.599 126.443 649.599 125.792C649.599 125.131 649.46 124.555 649.183 124.064C648.916 123.573 648.548 123.195 648.079 122.928C647.609 122.651 647.076 122.512 646.479 122.512C645.881 122.512 645.348 122.651 644.879 122.928C644.409 123.195 644.036 123.573 643.759 124.064C643.481 124.555 643.343 125.131 643.343 125.792C643.343 126.443 643.481 127.019 643.759 127.52C644.036 128.011 644.409 128.395 644.879 128.672C645.348 128.939 645.876 129.072 646.463 129.072ZM656.699 130.08C655.867 130.08 655.12 129.899 654.459 129.536C653.808 129.163 653.296 128.656 652.923 128.016C652.549 127.365 652.363 126.624 652.363 125.792C652.363 124.949 652.549 124.208 652.923 123.568C653.296 122.928 653.808 122.427 654.459 122.064C655.12 121.701 655.867 121.52 656.699 121.52C657.413 121.52 658.059 121.659 658.635 121.936C659.211 122.213 659.664 122.629 659.995 123.184L659.147 123.76C658.859 123.333 658.501 123.019 658.075 122.816C657.648 122.613 657.184 122.512 656.683 122.512C656.085 122.512 655.547 122.651 655.067 122.928C654.587 123.195 654.208 123.573 653.931 124.064C653.653 124.555 653.515 125.131 653.515 125.792C653.515 126.453 653.653 127.029 653.931 127.52C654.208 128.011 654.587 128.395 655.067 128.672C655.547 128.939 656.085 129.072 656.683 129.072C657.184 129.072 657.648 128.971 658.075 128.768C658.501 128.565 658.859 128.256 659.147 127.84L659.995 128.416C659.664 128.96 659.211 129.376 658.635 129.664C658.059 129.941 657.413 130.08 656.699 130.08ZM663.638 130V122.288L663.926 122.592H660.454V121.6H667.958V122.592H664.486L664.774 122.288V130H663.638ZM673.216 124.56C674.272 124.571 675.072 124.805 675.616 125.264C676.171 125.723 676.448 126.384 676.448 127.248C676.448 128.144 676.15 128.832 675.552 129.312C674.966 129.792 674.112 130.027 672.992 130.016L669.6 130V121.6H670.736V124.528L673.216 124.56ZM672.928 129.152C673.707 129.163 674.294 129.008 674.688 128.688C675.094 128.357 675.296 127.877 675.296 127.248C675.296 126.619 675.099 126.16 674.704 125.872C674.31 125.573 673.718 125.419 672.928 125.408L670.736 125.376V129.12L672.928 129.152ZM678.616 130V121.6H679.752V125.216H682.312V126.256H679.752V130H678.616ZM685.848 130.08C685.048 130.08 684.328 129.899 683.688 129.536C683.059 129.163 682.563 128.656 682.2 128.016C681.837 127.365 681.656 126.624 681.656 125.792C681.656 124.949 681.837 124.208 682.2 123.568C682.563 122.928 683.059 122.427 683.688 122.064C684.328 121.701 685.048 121.52 685.848 121.52C686.648 121.52 687.363 121.701 687.992 122.064C688.621 122.427 689.117 122.928 689.48 123.568C689.843 124.208 690.024 124.949 690.024 125.792C690.024 126.624 689.843 127.365 689.48 128.016C689.117 128.656 688.621 129.163 687.992 129.536C687.363 129.899 686.648 130.08 685.848 130.08ZM685.848 129.088C686.435 129.088 686.957 128.949 687.416 128.672C687.875 128.395 688.237 128.011 688.504 127.52C688.771 127.019 688.904 126.443 688.904 125.792C688.904 125.131 688.771 124.555 688.504 124.064C688.237 123.573 687.875 123.195 687.416 122.928C686.957 122.651 686.435 122.512 685.848 122.512C685.272 122.512 684.749 122.651 684.28 122.928C683.821 123.195 683.459 123.573 683.192 124.064C682.925 124.555 682.792 125.131 682.792 125.792C682.792 126.443 682.925 127.019 683.192 127.52C683.459 128.011 683.821 128.395 684.28 128.672C684.749 128.949 685.272 129.088 685.848 129.088ZM696.647 130V121.6H697.783V128.272L703.399 121.6H704.407V130H703.271V123.312L697.671 130H696.647ZM711.85 130V121.6H715.562C716.512 121.6 717.258 121.781 717.802 122.144C718.357 122.507 718.634 123.04 718.634 123.744C718.634 124.427 718.373 124.955 717.85 125.328C717.328 125.691 716.64 125.872 715.786 125.872L716.01 125.536C717.013 125.536 717.749 125.723 718.218 126.096C718.688 126.469 718.922 127.008 718.922 127.712C718.922 128.437 718.656 129.003 718.122 129.408C717.6 129.803 716.784 130 715.674 130H711.85ZM712.954 129.104H715.626C716.341 129.104 716.88 128.992 717.242 128.768C717.616 128.533 717.802 128.16 717.802 127.648C717.802 127.136 717.637 126.763 717.306 126.528C716.976 126.293 716.453 126.176 715.738 126.176H712.954V129.104ZM712.954 125.328H715.482C716.133 125.328 716.629 125.205 716.97 124.96C717.322 124.715 717.498 124.357 717.498 123.888C717.498 123.419 717.322 123.067 716.97 122.832C716.629 122.597 716.133 122.48 715.482 122.48H712.954V125.328ZM721.585 130V121.6H722.721V125.312H728.017V121.6H729.153V130H728.017V126.288H722.721V130H721.585ZM735.982 130.08C735.107 130.08 734.339 129.899 733.678 129.536C733.016 129.163 732.499 128.656 732.126 128.016C731.752 127.365 731.566 126.624 731.566 125.792C731.566 124.96 731.742 124.224 732.094 123.584C732.456 122.944 732.947 122.443 733.566 122.08C734.195 121.707 734.899 121.52 735.678 121.52C736.467 121.52 737.166 121.701 737.774 122.064C738.392 122.416 738.878 122.917 739.23 123.568C739.582 124.208 739.758 124.949 739.758 125.792C739.758 125.845 739.752 125.904 739.742 125.968C739.742 126.021 739.742 126.08 739.742 126.144H732.43V125.296H739.134L738.686 125.632C738.686 125.024 738.552 124.485 738.286 124.016C738.03 123.536 737.678 123.163 737.23 122.896C736.782 122.629 736.264 122.496 735.678 122.496C735.102 122.496 734.584 122.629 734.126 122.896C733.667 123.163 733.31 123.536 733.054 124.016C732.798 124.496 732.67 125.045 732.67 125.664V125.84C732.67 126.48 732.808 127.045 733.086 127.536C733.374 128.016 733.768 128.395 734.27 128.672C734.782 128.939 735.363 129.072 736.014 129.072C736.526 129.072 737 128.981 737.438 128.8C737.886 128.619 738.27 128.341 738.59 127.968L739.23 128.704C738.856 129.152 738.387 129.493 737.822 129.728C737.267 129.963 736.654 130.08 735.982 130.08ZM747.792 129.008L747.536 129.312V121.6H748.672V129.312L748.368 129.008H753.056L752.752 129.312V121.6H753.888V130H742.272V121.6H743.408V129.312L743.12 129.008H747.792ZM757.116 130V121.6H758.252V125.312H763.548V121.6H764.684V130H763.548V126.288H758.252V130H757.116ZM767.913 130V121.6H769.049V128.272L774.665 121.6H775.673V130H774.537V123.312L768.937 130H767.913ZM778.929 130V121.6H780.081L783.889 128.048H783.409L787.281 121.6H788.337V130H787.297V122.896L787.505 122.992L783.889 128.976H783.377L779.729 122.928L779.969 122.88V130H778.929ZM795.757 130V121.6H799.469C800.418 121.6 801.165 121.781 801.709 122.144C802.263 122.507 802.541 123.04 802.541 123.744C802.541 124.427 802.279 124.955 801.757 125.328C801.234 125.691 800.546 125.872 799.693 125.872L799.917 125.536C800.919 125.536 801.655 125.723 802.125 126.096C802.594 126.469 802.829 127.008 802.829 127.712C802.829 128.437 802.562 129.003 802.029 129.408C801.506 129.803 800.69 130 799.581 130H795.757ZM796.861 129.104H799.533C800.247 129.104 800.786 128.992 801.149 128.768C801.522 128.533 801.709 128.16 801.709 127.648C801.709 127.136 801.543 126.763 801.213 126.528C800.882 126.293 800.359 126.176 799.645 126.176H796.861V129.104ZM796.861 125.328H799.389C800.039 125.328 800.535 125.205 800.877 124.96C801.229 124.715 801.405 124.357 801.405 123.888C801.405 123.419 801.229 123.067 800.877 122.832C800.535 122.597 800.039 122.48 799.389 122.48H796.861V125.328ZM805.491 130V121.6H806.627V128.272L812.243 121.6H813.251V130H812.115V123.312L806.515 130H805.491ZM822.267 129.456V122.592H818.219L818.123 124.464C818.101 125.029 818.064 125.584 818.011 126.128C817.968 126.672 817.888 127.173 817.771 127.632C817.664 128.08 817.509 128.448 817.307 128.736C817.104 129.013 816.843 129.173 816.523 129.216L815.387 129.008C815.717 129.019 815.989 128.901 816.203 128.656C816.416 128.4 816.581 128.053 816.699 127.616C816.816 127.179 816.901 126.683 816.955 126.128C817.008 125.563 817.051 124.987 817.083 124.4L817.195 121.6H823.403V129.456H822.267ZM815.035 132.032V129.008H824.715V132.032H823.643V130H816.107V132.032H815.035ZM830.385 130.08C829.574 130.08 828.843 129.899 828.193 129.536C827.553 129.163 827.046 128.656 826.673 128.016C826.299 127.365 826.113 126.624 826.113 125.792C826.113 124.949 826.299 124.208 826.673 123.568C827.046 122.928 827.553 122.427 828.193 122.064C828.833 121.701 829.563 121.52 830.385 121.52C831.217 121.52 831.953 121.701 832.593 122.064C833.243 122.427 833.75 122.928 834.113 123.568C834.486 124.208 834.673 124.949 834.673 125.792C834.673 126.624 834.486 127.365 834.113 128.016C833.75 128.656 833.243 129.163 832.593 129.536C831.942 129.899 831.206 130.08 830.385 130.08ZM830.385 129.072C830.993 129.072 831.531 128.939 832.001 128.672C832.47 128.395 832.838 128.011 833.105 127.52C833.382 127.019 833.521 126.443 833.521 125.792C833.521 125.131 833.382 124.555 833.105 124.064C832.838 123.573 832.47 123.195 832.001 122.928C831.531 122.651 830.998 122.512 830.401 122.512C829.803 122.512 829.27 122.651 828.801 122.928C828.331 123.195 827.958 123.573 827.681 124.064C827.403 124.555 827.265 125.131 827.265 125.792C827.265 126.443 827.403 127.019 827.681 127.52C827.958 128.011 828.331 128.395 828.801 128.672C829.27 128.939 829.798 129.072 830.385 129.072ZM837.1 130V121.6H838.252L842.06 128.048H841.58L845.452 121.6H846.508V130H845.468V122.896L845.676 122.992L842.06 128.976H841.548L837.9 122.928L838.14 122.88V130H837.1ZM5.136 154.08C4.304 154.08 3.55733 153.899 2.896 153.536C2.24533 153.163 1.73333 152.656 1.36 152.016C0.986667 151.365 0.8 150.624 0.8 149.792C0.8 148.949 0.986667 148.208 1.36 147.568C1.73333 146.928 2.24533 146.427 2.896 146.064C3.55733 145.701 4.304 145.52 5.136 145.52C5.85067 145.52 6.496 145.659 7.072 145.936C7.648 146.213 8.10133 146.629 8.432 147.184L7.584 147.76C7.296 147.333 6.93867 147.019 6.512 146.816C6.08533 146.613 5.62133 146.512 5.12 146.512C4.52267 146.512 3.984 146.651 3.504 146.928C3.024 147.195 2.64533 147.573 2.368 148.064C2.09067 148.555 1.952 149.131 1.952 149.792C1.952 150.453 2.09067 151.029 2.368 151.52C2.64533 152.011 3.024 152.395 3.504 152.672C3.984 152.939 4.52267 153.072 5.12 153.072C5.62133 153.072 6.08533 152.971 6.512 152.768C6.93867 152.565 7.296 152.256 7.584 151.84L8.432 152.416C8.10133 152.96 7.648 153.376 7.072 153.664C6.496 153.941 5.85067 154.08 5.136 154.08ZM15.8476 154V152.144L15.7996 151.84V148.736C15.7996 148.021 15.597 147.472 15.1916 147.088C14.797 146.704 14.205 146.512 13.4156 146.512C12.8716 146.512 12.3543 146.603 11.8636 146.784C11.373 146.965 10.957 147.205 10.6156 147.504L10.1036 146.656C10.5303 146.293 11.0423 146.016 11.6396 145.824C12.237 145.621 12.8663 145.52 13.5276 145.52C14.6156 145.52 15.453 145.792 16.0396 146.336C16.637 146.869 16.9356 147.685 16.9356 148.784V154H15.8476ZM12.9516 154.08C12.3223 154.08 11.773 153.979 11.3036 153.776C10.845 153.563 10.493 153.275 10.2476 152.912C10.0023 152.539 9.87963 152.112 9.87963 151.632C9.87963 151.195 9.98096 150.8 10.1836 150.448C10.397 150.085 10.7383 149.797 11.2076 149.584C11.6876 149.36 12.3276 149.248 13.1276 149.248H16.0236V150.096H13.1596C12.349 150.096 11.7836 150.24 11.4636 150.528C11.1543 150.816 10.9996 151.173 10.9996 151.6C10.9996 152.08 11.1863 152.464 11.5596 152.752C11.933 153.04 12.4556 153.184 13.1276 153.184C13.7676 153.184 14.317 153.04 14.7756 152.752C15.245 152.453 15.5863 152.027 15.7996 151.472L16.0556 152.256C15.8423 152.811 15.469 153.253 14.9356 153.584C14.413 153.915 13.7516 154.08 12.9516 154.08ZM18.4238 153.984L18.5038 153.008C18.5784 153.019 18.6478 153.035 18.7118 153.056C18.7864 153.067 18.8504 153.072 18.9038 153.072C19.2451 153.072 19.5171 152.944 19.7198 152.688C19.9331 152.432 20.0931 152.091 20.1998 151.664C20.3064 151.237 20.3811 150.757 20.4238 150.224C20.4664 149.68 20.5038 149.136 20.5358 148.592L20.6798 145.6H26.8398V154H25.7038V146.256L25.9918 146.592H21.4158L21.6878 146.24L21.5598 148.672C21.5278 149.397 21.4691 150.091 21.3838 150.752C21.3091 151.413 21.1864 151.995 21.0158 152.496C20.8558 152.997 20.6318 153.392 20.3438 153.68C20.0558 153.957 19.6878 154.096 19.2398 154.096C19.1118 154.096 18.9784 154.085 18.8398 154.064C18.7118 154.043 18.5731 154.016 18.4238 153.984ZM33.5251 154.08C32.7145 154.08 31.9838 153.899 31.3331 153.536C30.6931 153.163 30.1865 152.656 29.8131 152.016C29.4398 151.365 29.2531 150.624 29.2531 149.792C29.2531 148.949 29.4398 148.208 29.8131 147.568C30.1865 146.928 30.6931 146.427 31.3331 146.064C31.9731 145.701 32.7038 145.52 33.5251 145.52C34.3571 145.52 35.0931 145.701 35.7331 146.064C36.3838 146.427 36.8905 146.928 37.2531 147.568C37.6265 148.208 37.8131 148.949 37.8131 149.792C37.8131 150.624 37.6265 151.365 37.2531 152.016C36.8905 152.656 36.3838 153.163 35.7331 153.536C35.0825 153.899 34.3465 154.08 33.5251 154.08ZM33.5251 153.072C34.1331 153.072 34.6718 152.939 35.1411 152.672C35.6105 152.395 35.9785 152.011 36.2451 151.52C36.5225 151.019 36.6611 150.443 36.6611 149.792C36.6611 149.131 36.5225 148.555 36.2451 148.064C35.9785 147.573 35.6105 147.195 35.1411 146.928C34.6718 146.651 34.1385 146.512 33.5411 146.512C32.9438 146.512 32.4105 146.651 31.9411 146.928C31.4718 147.195 31.0985 147.573 30.8211 148.064C30.5438 148.555 30.4051 149.131 30.4051 149.792C30.4051 150.443 30.5438 151.019 30.8211 151.52C31.0985 152.011 31.4718 152.395 31.9411 152.672C32.4105 152.939 32.9385 153.072 33.5251 153.072ZM40.241 154V145.6H41.377V149.312H46.673V145.6H47.809V154H46.673V150.288H41.377V154H40.241ZM56.2539 154V152.144L56.2059 151.84V148.736C56.2059 148.021 56.0032 147.472 55.5979 147.088C55.2032 146.704 54.6112 146.512 53.8219 146.512C53.2779 146.512 52.7605 146.603 52.2699 146.784C51.7792 146.965 51.3632 147.205 51.0219 147.504L50.5099 146.656C50.9365 146.293 51.4485 146.016 52.0459 145.824C52.6432 145.621 53.2725 145.52 53.9339 145.52C55.0219 145.52 55.8592 145.792 56.4459 146.336C57.0432 146.869 57.3419 147.685 57.3419 148.784V154H56.2539ZM53.3579 154.08C52.7285 154.08 52.1792 153.979 51.7099 153.776C51.2512 153.563 50.8992 153.275 50.6539 152.912C50.4085 152.539 50.2859 152.112 50.2859 151.632C50.2859 151.195 50.3872 150.8 50.5899 150.448C50.8032 150.085 51.1445 149.797 51.6139 149.584C52.0939 149.36 52.7339 149.248 53.5339 149.248H56.4299V150.096H53.5659C52.7552 150.096 52.1899 150.24 51.8699 150.528C51.5605 150.816 51.4059 151.173 51.4059 151.6C51.4059 152.08 51.5925 152.464 51.9659 152.752C52.3392 153.04 52.8619 153.184 53.5339 153.184C54.1739 153.184 54.7232 153.04 55.1819 152.752C55.6512 152.453 55.9925 152.027 56.2059 151.472L56.4619 152.256C56.2485 152.811 55.8752 153.253 55.3419 153.584C54.8192 153.915 54.1579 154.08 53.3579 154.08Z" fill="#141414"/>
</svg>
