<svg width="856" height="136" viewBox="0 0 856 136" fill="none" xmlns="http://www.w3.org/2000/svg">
<path d="M3.48 38V10H8.84L20.76 29.76H17.92L29.64 10H35L35.04 38H28.96L28.92 19.32H30.08L20.68 35.04H17.8L8.2 19.32H9.56V38H3.48ZM63.6756 38V16.48H69.8756V38H63.6756ZM52.8356 23.36C55.6623 23.3867 57.7823 24.0267 59.1956 25.28C60.6356 26.5067 61.3556 28.2533 61.3556 30.52C61.3556 32.8933 60.5423 34.7467 58.9156 36.08C57.289 37.3867 54.9823 38.04 51.9956 38.04L41.5156 38V16.48H47.7156V23.36H52.8356ZM51.4356 33.6C52.6356 33.6267 53.5556 33.3733 54.1956 32.84C54.8356 32.3067 55.1556 31.5067 55.1556 30.44C55.1556 29.3733 54.8356 28.6133 54.1956 28.16C53.5556 27.68 52.6356 27.4267 51.4356 27.4L47.7156 27.36V33.6H51.4356ZM97.4588 38.32C95.1388 38.32 93.0721 37.8533 91.2588 36.92C89.4454 35.96 88.0188 34.64 86.9788 32.96C85.9654 31.28 85.4588 29.3733 85.4588 27.24C85.4588 25.08 85.9654 23.1733 86.9788 21.52C88.0188 19.84 89.4454 18.5333 91.2588 17.6C93.0721 16.64 95.1388 16.16 97.4588 16.16C99.7254 16.16 101.699 16.64 103.379 17.6C105.059 18.5333 106.299 19.88 107.099 21.64L102.259 24.24C101.699 23.2267 100.992 22.48 100.139 22C99.3121 21.52 98.4054 21.28 97.4188 21.28C96.3521 21.28 95.3921 21.52 94.5388 22C93.6854 22.48 93.0054 23.16 92.4988 24.04C92.0188 24.92 91.7788 25.9867 91.7788 27.24C91.7788 28.4933 92.0188 29.56 92.4988 30.44C93.0054 31.32 93.6854 32 94.5388 32.48C95.3921 32.96 96.3521 33.2 97.4188 33.2C98.4054 33.2 99.3121 32.9733 100.139 32.52C100.992 32.04 101.699 31.28 102.259 30.24L107.099 32.88C106.299 34.6133 105.059 35.96 103.379 36.92C101.699 37.8533 99.7254 38.32 97.4588 38.32ZM120.697 38.32C118.404 38.32 116.364 37.84 114.577 36.88C112.817 35.92 111.417 34.6133 110.377 32.96C109.364 31.28 108.857 29.3733 108.857 27.24C108.857 25.08 109.364 23.1733 110.377 21.52C111.417 19.84 112.817 18.5333 114.577 17.6C116.364 16.64 118.404 16.16 120.697 16.16C122.964 16.16 124.991 16.64 126.777 17.6C128.564 18.5333 129.964 19.8267 130.977 21.48C131.991 23.1333 132.497 25.0533 132.497 27.24C132.497 29.3733 131.991 31.28 130.977 32.96C129.964 34.6133 128.564 35.92 126.777 36.88C124.991 37.84 122.964 38.32 120.697 38.32ZM120.697 33.2C121.737 33.2 122.671 32.96 123.497 32.48C124.324 32 124.977 31.32 125.457 30.44C125.937 29.5333 126.177 28.4667 126.177 27.24C126.177 25.9867 125.937 24.92 125.457 24.04C124.977 23.16 124.324 22.48 123.497 22C122.671 21.52 121.737 21.28 120.697 21.28C119.657 21.28 118.724 21.52 117.897 22C117.071 22.48 116.404 23.16 115.897 24.04C115.417 24.92 115.177 25.9867 115.177 27.24C115.177 28.4667 115.417 29.5333 115.897 30.44C116.404 31.32 117.071 32 117.897 32.48C118.724 32.96 119.657 33.2 120.697 33.2ZM147.469 38.48C145.709 38.48 144.109 38.2267 142.669 37.72C141.229 37.1867 139.976 36.3733 138.909 35.28C137.869 34.16 137.056 32.7333 136.469 31C135.909 29.2667 135.629 27.2 135.629 24.8C135.629 23.0933 135.776 21.5333 136.069 20.12C136.362 18.7067 136.802 17.4267 137.389 16.28C137.976 15.1067 138.722 14.08 139.629 13.2C140.562 12.2933 141.642 11.5467 142.869 10.96C144.122 10.3467 145.536 9.88 147.109 9.56L157.349 7.52L158.189 12.88L149.149 14.68C148.616 14.7867 148.002 14.9333 147.309 15.12C146.642 15.28 145.962 15.5333 145.269 15.88C144.602 16.2267 143.976 16.72 143.389 17.36C142.829 17.9733 142.376 18.7867 142.029 19.8C141.682 20.7867 141.509 22.0133 141.509 23.48C141.509 23.9333 141.522 24.28 141.549 24.52C141.602 24.76 141.642 25.0133 141.669 25.28C141.722 25.5467 141.749 25.96 141.749 26.52L139.749 24.56C140.336 23.3067 141.082 22.24 141.989 21.36C142.922 20.48 143.989 19.8133 145.189 19.36C146.416 18.88 147.776 18.64 149.269 18.64C151.296 18.64 153.069 19.0533 154.589 19.88C156.136 20.68 157.336 21.8133 158.189 23.28C159.042 24.7467 159.469 26.4133 159.469 28.28C159.469 30.3067 158.962 32.0933 157.949 33.64C156.936 35.16 155.522 36.3467 153.709 37.2C151.922 38.0533 149.842 38.48 147.469 38.48ZM147.789 33.64C148.829 33.64 149.749 33.4133 150.549 32.96C151.349 32.48 151.962 31.8533 152.389 31.08C152.842 30.28 153.069 29.3867 153.069 28.4C153.069 27.44 152.842 26.5867 152.389 25.84C151.962 25.0933 151.349 24.5067 150.549 24.08C149.749 23.6533 148.816 23.44 147.749 23.44C146.709 23.44 145.776 23.6533 144.949 24.08C144.122 24.48 143.482 25.04 143.029 25.76C142.576 26.48 142.349 27.32 142.349 28.28C142.349 29.2667 142.576 30.1733 143.029 31C143.509 31.8 144.149 32.44 144.949 32.92C145.776 33.4 146.722 33.64 147.789 33.64ZM176.383 38.32C174.57 38.32 172.983 37.92 171.623 37.12C170.263 36.32 169.196 35.1067 168.423 33.48C167.676 31.8267 167.303 29.7467 167.303 27.24C167.303 24.7067 167.663 22.6267 168.383 21C169.103 19.3733 170.143 18.16 171.503 17.36C172.863 16.56 174.49 16.16 176.383 16.16C178.41 16.16 180.223 16.6267 181.823 17.56C183.45 18.4667 184.73 19.7467 185.663 21.4C186.623 23.0533 187.103 25 187.103 27.24C187.103 29.5067 186.623 31.4667 185.663 33.12C184.73 34.7733 183.45 36.0533 181.823 36.96C180.223 37.8667 178.41 38.32 176.383 38.32ZM163.663 45.76V16.48H169.623V20.88L169.503 27.28L169.903 33.64V45.76H163.663ZM175.303 33.2C176.343 33.2 177.263 32.96 178.063 32.48C178.89 32 179.543 31.32 180.023 30.44C180.53 29.5333 180.783 28.4667 180.783 27.24C180.783 25.9867 180.53 24.92 180.023 24.04C179.543 23.16 178.89 22.48 178.063 22C177.263 21.52 176.343 21.28 175.303 21.28C174.263 21.28 173.33 21.52 172.503 22C171.676 22.48 171.023 23.16 170.543 24.04C170.063 24.92 169.823 25.9867 169.823 27.24C169.823 28.4667 170.063 29.5333 170.543 30.44C171.023 31.32 171.676 32 172.503 32.48C173.33 32.96 174.263 33.2 175.303 33.2ZM204.005 38V33.8L203.605 32.88V25.36C203.605 24.0267 203.192 22.9867 202.365 22.24C201.565 21.4933 200.325 21.12 198.645 21.12C197.498 21.12 196.365 21.3067 195.245 21.68C194.152 22.0267 193.218 22.5067 192.445 23.12L190.205 18.76C191.378 17.9333 192.792 17.2933 194.445 16.84C196.098 16.3867 197.778 16.16 199.485 16.16C202.765 16.16 205.312 16.9333 207.125 18.48C208.938 20.0267 209.845 22.44 209.845 25.72V38H204.005ZM197.445 38.32C195.765 38.32 194.325 38.04 193.125 37.48C191.925 36.8933 191.005 36.1067 190.365 35.12C189.725 34.1333 189.405 33.0267 189.405 31.8C189.405 30.52 189.712 29.4 190.325 28.44C190.965 27.48 191.965 26.7333 193.325 26.2C194.685 25.64 196.458 25.36 198.645 25.36H204.365V29H199.325C197.858 29 196.845 29.24 196.285 29.72C195.752 30.2 195.485 30.8 195.485 31.52C195.485 32.32 195.792 32.96 196.405 33.44C197.045 33.8933 197.912 34.12 199.005 34.12C200.045 34.12 200.978 33.88 201.805 33.4C202.632 32.8933 203.232 32.16 203.605 31.2L204.565 34.08C204.112 35.4667 203.285 36.52 202.085 37.24C200.885 37.96 199.338 38.32 197.445 38.32ZM212.546 37.96L212.866 32.84C213.026 32.8667 213.186 32.8933 213.346 32.92C213.506 32.92 213.652 32.92 213.786 32.92C214.532 32.92 215.119 32.7067 215.546 32.28C215.972 31.8533 216.292 31.28 216.506 30.56C216.719 29.8133 216.866 28.9733 216.946 28.04C217.052 27.1067 217.132 26.1333 217.186 25.12L217.506 16.48H235.906V38H229.666V20.08L231.066 21.6H221.626L222.946 20L222.666 25.4C222.586 27.32 222.426 29.08 222.186 30.68C221.972 32.28 221.612 33.6667 221.106 34.84C220.599 35.9867 219.919 36.88 219.066 37.52C218.212 38.1333 217.119 38.44 215.786 38.44C215.306 38.44 214.799 38.4 214.266 38.32C213.732 38.24 213.159 38.12 212.546 37.96ZM241.906 38V16.48H248.106V29.28L258.586 16.48H264.306V38H258.106V25.2L247.666 38H241.906ZM278.913 37.96L279.233 32.84C279.393 32.8667 279.553 32.8933 279.713 32.92C279.873 32.92 280.019 32.92 280.153 32.92C280.899 32.92 281.486 32.7067 281.913 32.28C282.339 31.8533 282.659 31.28 282.873 30.56C283.086 29.8133 283.233 28.9733 283.313 28.04C283.419 27.1067 283.499 26.1333 283.553 25.12L283.873 16.48H302.273V38H296.033V20.08L297.433 21.6H287.993L289.313 20L289.033 25.4C288.953 27.32 288.793 29.08 288.553 30.68C288.339 32.28 287.979 33.6667 287.473 34.84C286.966 35.9867 286.286 36.88 285.433 37.52C284.579 38.1333 283.486 38.44 282.153 38.44C281.673 38.44 281.166 38.4 280.633 38.32C280.099 38.24 279.526 38.12 278.913 37.96ZM311.193 46.08C310.073 46.08 308.967 45.9067 307.873 45.56C306.78 45.2133 305.887 44.7333 305.193 44.12L307.473 39.68C307.953 40.1067 308.5 40.44 309.113 40.68C309.753 40.92 310.38 41.04 310.993 41.04C311.873 41.04 312.567 40.8267 313.073 40.4C313.607 40 314.087 39.32 314.513 38.36L315.633 35.72L316.113 35.04L323.833 16.48H329.833L320.113 39.32C319.42 41.0533 318.62 42.4133 317.713 43.4C316.833 44.3867 315.847 45.08 314.753 45.48C313.687 45.88 312.5 46.08 311.193 46.08ZM314.873 38.84L305.273 16.48H311.713L319.153 34.48L314.873 38.84ZM346.404 29.76C345.524 30.24 344.55 30.6267 343.484 30.92C342.417 31.2133 341.244 31.36 339.964 31.36C337.137 31.36 334.964 30.72 333.444 29.44C331.924 28.1333 331.164 26.0667 331.164 23.24V16.48H337.404V22.84C337.404 24.1733 337.75 25.1333 338.444 25.72C339.137 26.28 340.11 26.56 341.364 26.56C342.27 26.56 343.137 26.4533 343.964 26.24C344.817 26.0267 345.63 25.72 346.404 25.32V29.76ZM345.964 38V16.48H352.204V38H345.964ZM372.875 32.88L371.515 34.32V16.48H377.755V34.32L376.315 32.88H386.235L384.835 34.32V16.48H391.035V38H358.195V16.48H364.395V34.32L362.995 32.88H372.875ZM397.023 38V16.48H403.223V29.28L413.703 16.48H419.423V38H413.223V25.2L402.783 38H397.023ZM435.942 38.32C433.489 38.32 431.329 37.84 429.462 36.88C427.622 35.92 426.195 34.6133 425.182 32.96C424.169 31.28 423.662 29.3733 423.662 27.24C423.662 25.08 424.155 23.1733 425.142 21.52C426.155 19.84 427.529 18.5333 429.262 17.6C430.995 16.64 432.955 16.16 435.142 16.16C437.249 16.16 439.142 16.6133 440.822 17.52C442.529 18.4 443.875 19.68 444.862 21.36C445.849 23.0133 446.342 25 446.342 27.32C446.342 27.56 446.329 27.84 446.302 28.16C446.275 28.4533 446.249 28.7333 446.222 29H428.742V25.36H442.942L440.542 26.44C440.542 25.32 440.315 24.3467 439.862 23.52C439.409 22.6933 438.782 22.0533 437.982 21.6C437.182 21.12 436.249 20.88 435.182 20.88C434.115 20.88 433.169 21.12 432.342 21.6C431.542 22.0533 430.915 22.7067 430.462 23.56C430.009 24.3867 429.782 25.3733 429.782 26.52V27.48C429.782 28.6533 430.035 29.6933 430.542 30.6C431.075 31.48 431.809 32.16 432.742 32.64C433.702 33.0933 434.822 33.32 436.102 33.32C437.249 33.32 438.249 33.1467 439.102 32.8C439.982 32.4533 440.782 31.9333 441.502 31.24L444.822 34.84C443.835 35.96 442.595 36.8267 441.102 37.44C439.609 38.0267 437.889 38.32 435.942 38.32ZM475.133 38.32C473.32 38.32 471.733 37.92 470.373 37.12C469.013 36.32 467.946 35.1067 467.173 33.48C466.426 31.8267 466.053 29.7467 466.053 27.24C466.053 24.7067 466.413 22.6267 467.133 21C467.853 19.3733 468.893 18.16 470.253 17.36C471.613 16.56 473.24 16.16 475.133 16.16C477.16 16.16 478.973 16.6267 480.573 17.56C482.2 18.4667 483.48 19.7467 484.413 21.4C485.373 23.0533 485.853 25 485.853 27.24C485.853 29.5067 485.373 31.4667 484.413 33.12C483.48 34.7733 482.2 36.0533 480.573 36.96C478.973 37.8667 477.16 38.32 475.133 38.32ZM462.413 45.76V16.48H468.373V20.88L468.253 27.28L468.653 33.64V45.76H462.413ZM474.053 33.2C475.093 33.2 476.013 32.96 476.813 32.48C477.64 32 478.293 31.32 478.773 30.44C479.28 29.5333 479.533 28.4667 479.533 27.24C479.533 25.9867 479.28 24.92 478.773 24.04C478.293 23.16 477.64 22.48 476.813 22C476.013 21.52 475.093 21.28 474.053 21.28C473.013 21.28 472.08 21.52 471.253 22C470.426 22.48 469.773 23.16 469.293 24.04C468.813 24.92 468.573 25.9867 468.573 27.24C468.573 28.4667 468.813 29.5333 469.293 30.44C469.773 31.32 470.426 32 471.253 32.48C472.08 32.96 473.013 33.2 474.053 33.2ZM500.747 38.32C498.293 38.32 496.133 37.84 494.267 36.88C492.427 35.92 491 34.6133 489.987 32.96C488.973 31.28 488.467 29.3733 488.467 27.24C488.467 25.08 488.96 23.1733 489.947 21.52C490.96 19.84 492.333 18.5333 494.067 17.6C495.8 16.64 497.76 16.16 499.947 16.16C502.053 16.16 503.947 16.6133 505.627 17.52C507.333 18.4 508.68 19.68 509.667 21.36C510.653 23.0133 511.147 25 511.147 27.32C511.147 27.56 511.133 27.84 511.107 28.16C511.08 28.4533 511.053 28.7333 511.027 29H493.547V25.36H507.747L505.347 26.44C505.347 25.32 505.12 24.3467 504.667 23.52C504.213 22.6933 503.587 22.0533 502.787 21.6C501.987 21.12 501.053 20.88 499.987 20.88C498.92 20.88 497.973 21.12 497.147 21.6C496.347 22.0533 495.72 22.7067 495.267 23.56C494.813 24.3867 494.587 25.3733 494.587 26.52V27.48C494.587 28.6533 494.84 29.6933 495.347 30.6C495.88 31.48 496.613 32.16 497.547 32.64C498.507 33.0933 499.627 33.32 500.907 33.32C502.053 33.32 503.053 33.1467 503.907 32.8C504.787 32.4533 505.587 31.9333 506.307 31.24L509.627 34.84C508.64 35.96 507.4 36.8267 505.907 37.44C504.413 38.0267 502.693 38.32 500.747 38.32ZM530.61 32.88L529.25 34.32V16.48H535.49V34.32L534.05 32.88H543.97L542.57 34.32V16.48H548.77V38H515.93V16.48H522.13V34.32L520.73 32.88H530.61ZM565.278 38.32C562.824 38.32 560.664 37.84 558.798 36.88C556.958 35.92 555.531 34.6133 554.518 32.96C553.504 31.28 552.998 29.3733 552.998 27.24C552.998 25.08 553.491 23.1733 554.478 21.52C555.491 19.84 556.864 18.5333 558.598 17.6C560.331 16.64 562.291 16.16 564.478 16.16C566.584 16.16 568.478 16.6133 570.158 17.52C571.864 18.4 573.211 19.68 574.198 21.36C575.184 23.0133 575.678 25 575.678 27.32C575.678 27.56 575.664 27.84 575.638 28.16C575.611 28.4533 575.584 28.7333 575.558 29H558.078V25.36H572.278L569.878 26.44C569.878 25.32 569.651 24.3467 569.198 23.52C568.744 22.6933 568.118 22.0533 567.318 21.6C566.518 21.12 565.584 20.88 564.518 20.88C563.451 20.88 562.504 21.12 561.678 21.6C560.878 22.0533 560.251 22.7067 559.798 23.56C559.344 24.3867 559.118 25.3733 559.118 26.52V27.48C559.118 28.6533 559.371 29.6933 559.878 30.6C560.411 31.48 561.144 32.16 562.078 32.64C563.038 33.0933 564.158 33.32 565.438 33.32C566.584 33.32 567.584 33.1467 568.438 32.8C569.318 32.4533 570.118 31.9333 570.838 31.24L574.158 34.84C573.171 35.96 571.931 36.8267 570.438 37.44C568.944 38.0267 567.224 38.32 565.278 38.32ZM580.461 38V16.48H586.661V24.88H596.021V16.48H602.261V38H596.021V29.96H586.661V38H580.461ZM608.234 38V16.48H614.434V29.28L624.914 16.48H630.634V38H624.434V25.2L613.994 38H608.234ZM650.193 38V30.84L651.073 31.84H645.113C642.019 31.84 639.593 31.2 637.833 29.92C636.073 28.64 635.193 26.8 635.193 24.4C635.193 21.84 636.113 19.88 637.953 18.52C639.819 17.16 642.326 16.48 645.473 16.48H655.753V38H650.193ZM634.873 38L640.593 29.8H646.953L641.513 38H634.873ZM650.193 28.92V19.96L651.073 21.56H645.593C644.313 21.56 643.313 21.8 642.593 22.28C641.899 22.76 641.553 23.5333 641.553 24.6C641.553 26.6533 642.873 27.68 645.513 27.68H651.073L650.193 28.92ZM673.078 38V16.48H694.478V38H688.238V20.2L689.638 21.6H677.878L679.278 20.2V38H673.078ZM710.541 38.32C708.248 38.32 706.208 37.84 704.421 36.88C702.661 35.92 701.261 34.6133 700.221 32.96C699.208 31.28 698.701 29.3733 698.701 27.24C698.701 25.08 699.208 23.1733 700.221 21.52C701.261 19.84 702.661 18.5333 704.421 17.6C706.208 16.64 708.248 16.16 710.541 16.16C712.808 16.16 714.834 16.64 716.621 17.6C718.408 18.5333 719.808 19.8267 720.821 21.48C721.834 23.1333 722.341 25.0533 722.341 27.24C722.341 29.3733 721.834 31.28 720.821 32.96C719.808 34.6133 718.408 35.92 716.621 36.88C714.834 37.84 712.808 38.32 710.541 38.32ZM710.541 33.2C711.581 33.2 712.514 32.96 713.341 32.48C714.168 32 714.821 31.32 715.301 30.44C715.781 29.5333 716.021 28.4667 716.021 27.24C716.021 25.9867 715.781 24.92 715.301 24.04C714.821 23.16 714.168 22.48 713.341 22C712.514 21.52 711.581 21.28 710.541 21.28C709.501 21.28 708.568 21.52 707.741 22C706.914 22.48 706.248 23.16 705.741 24.04C705.261 24.92 705.021 25.9867 705.021 27.24C705.021 28.4667 705.261 29.5333 705.741 30.44C706.248 31.32 706.914 32 707.741 32.48C708.568 32.96 709.501 33.2 710.541 33.2ZM13.24 86.32C10.92 86.32 8.85333 85.8533 7.04 84.92C5.22667 83.96 3.8 82.64 2.76 80.96C1.74667 79.28 1.24 77.3733 1.24 75.24C1.24 73.08 1.74667 71.1733 2.76 69.52C3.8 67.84 5.22667 66.5333 7.04 65.6C8.85333 64.64 10.92 64.16 13.24 64.16C15.5067 64.16 17.48 64.64 19.16 65.6C20.84 66.5333 22.08 67.88 22.88 69.64L18.04 72.24C17.48 71.2267 16.7733 70.48 15.92 70C15.0933 69.52 14.1867 69.28 13.2 69.28C12.1333 69.28 11.1733 69.52 10.32 70C9.46667 70.48 8.78667 71.16 8.28 72.04C7.8 72.92 7.56 73.9867 7.56 75.24C7.56 76.4933 7.8 77.56 8.28 78.44C8.78667 79.32 9.46667 80 10.32 80.48C11.1733 80.96 12.1333 81.2 13.2 81.2C14.1867 81.2 15.0933 80.9733 15.92 80.52C16.7733 80.04 17.48 79.28 18.04 78.24L22.88 80.88C22.08 82.6133 20.84 83.96 19.16 84.92C17.48 85.8533 15.5067 86.32 13.24 86.32ZM31.2328 86V68.16L32.6328 69.6H23.9528V64.48H44.7128V69.6H36.0328L37.4328 68.16V86H31.2328ZM48.0391 86V64.48H54.2391V77.28L64.7191 64.48H70.4391V86H64.2391V73.2L53.7991 86H48.0391ZM73.7175 85.96L74.0375 80.84C74.1975 80.8667 74.3575 80.8933 74.5175 80.92C74.6775 80.92 74.8242 80.92 74.9575 80.92C75.7042 80.92 76.2908 80.7067 76.7175 80.28C77.1442 79.8533 77.4642 79.28 77.6775 78.56C77.8908 77.8133 78.0375 76.9733 78.1175 76.04C78.2242 75.1067 78.3042 74.1333 78.3575 73.12L78.6775 64.48H97.0775V86H90.8375V68.08L92.2375 69.6H82.7975L84.1175 68L83.8375 73.4C83.7575 75.32 83.5975 77.08 83.3575 78.68C83.1442 80.28 82.7842 81.6667 82.2775 82.84C81.7708 83.9867 81.0908 84.88 80.2375 85.52C79.3842 86.1333 78.2908 86.44 76.9575 86.44C76.4775 86.44 75.9708 86.4 75.4375 86.32C74.9042 86.24 74.3308 86.12 73.7175 85.96ZM103.078 86V64.48H109.278V72.4H115.598V77.8H109.278V86H103.078ZM123.438 86.32C121.225 86.32 119.251 85.84 117.518 84.88C115.785 83.92 114.425 82.6133 113.438 80.96C112.451 79.28 111.958 77.3733 111.958 75.24C111.958 73.08 112.451 71.1733 113.438 69.52C114.425 67.84 115.785 66.5333 117.518 65.6C119.251 64.64 121.225 64.16 123.438 64.16C125.651 64.16 127.611 64.64 129.318 65.6C131.051 66.5333 132.411 67.84 133.398 69.52C134.385 71.1733 134.878 73.08 134.878 75.24C134.878 77.3733 134.385 79.28 133.398 80.96C132.411 82.64 131.051 83.96 129.318 84.92C127.611 85.8533 125.651 86.32 123.438 86.32ZM123.438 81.2C124.451 81.2 125.345 80.96 126.118 80.48C126.918 80 127.545 79.32 127.998 78.44C128.478 77.5333 128.718 76.4667 128.718 75.24C128.718 73.9867 128.478 72.92 127.998 72.04C127.545 71.16 126.918 70.48 126.118 70C125.345 69.52 124.451 69.28 123.438 69.28C122.451 69.28 121.545 69.52 120.718 70C119.918 70.48 119.278 71.16 118.798 72.04C118.345 72.92 118.118 73.9867 118.118 75.24C118.118 76.4667 118.345 77.5333 118.798 78.44C119.278 79.32 119.918 80 120.718 80.48C121.545 80.96 122.451 81.2 123.438 81.2ZM137.777 92.16L140.417 82.56L141.297 86.16C140.15 86.16 139.203 85.8267 138.457 85.16C137.737 84.4933 137.377 83.5733 137.377 82.4C137.377 81.2267 137.75 80.2933 138.497 79.6C139.243 78.9067 140.163 78.56 141.257 78.56C142.377 78.56 143.297 78.92 144.017 79.64C144.737 80.3333 145.097 81.2533 145.097 82.4C145.097 82.7467 145.07 83.0933 145.017 83.44C144.963 83.76 144.857 84.16 144.697 84.64C144.563 85.0933 144.337 85.68 144.017 86.4L141.737 92.16H137.777ZM160.773 86V64.48H167.293L175.413 79.2H172.813L181.493 64.48H187.333L187.413 86H181.773V70.88L182.733 71.52L175.333 83.92H172.693L165.253 71.08L166.413 70.8V86H160.773ZM206.271 86V81.8L205.871 80.88V73.36C205.871 72.0267 205.457 70.9867 204.631 70.24C203.831 69.4933 202.591 69.12 200.911 69.12C199.764 69.12 198.631 69.3067 197.511 69.68C196.417 70.0267 195.484 70.5067 194.711 71.12L192.471 66.76C193.644 65.9333 195.057 65.2933 196.711 64.84C198.364 64.3867 200.044 64.16 201.751 64.16C205.031 64.16 207.577 64.9333 209.391 66.48C211.204 68.0267 212.111 70.44 212.111 73.72V86H206.271ZM199.711 86.32C198.031 86.32 196.591 86.04 195.391 85.48C194.191 84.8933 193.271 84.1067 192.631 83.12C191.991 82.1333 191.671 81.0267 191.671 79.8C191.671 78.52 191.977 77.4 192.591 76.44C193.231 75.48 194.231 74.7333 195.591 74.2C196.951 73.64 198.724 73.36 200.911 73.36H206.631V77H201.591C200.124 77 199.111 77.24 198.551 77.72C198.017 78.2 197.751 78.8 197.751 79.52C197.751 80.32 198.057 80.96 198.671 81.44C199.311 81.8933 200.177 82.12 201.271 82.12C202.311 82.12 203.244 81.88 204.071 81.4C204.897 80.8933 205.497 80.16 205.871 79.2L206.831 82.08C206.377 83.4667 205.551 84.52 204.351 85.24C203.151 85.96 201.604 86.32 199.711 86.32ZM222.131 86V68.16L223.531 69.6H214.851V64.48H235.611V69.6H226.931L228.331 68.16V86H222.131ZM248.559 86.32C246.106 86.32 243.946 85.84 242.079 84.88C240.239 83.92 238.812 82.6133 237.799 80.96C236.786 79.28 236.279 77.3733 236.279 75.24C236.279 73.08 236.772 71.1733 237.759 69.52C238.772 67.84 240.146 66.5333 241.879 65.6C243.612 64.64 245.572 64.16 247.759 64.16C249.866 64.16 251.759 64.6133 253.439 65.52C255.146 66.4 256.492 67.68 257.479 69.36C258.466 71.0133 258.959 73 258.959 75.32C258.959 75.56 258.946 75.84 258.919 76.16C258.892 76.4533 258.866 76.7333 258.839 77H241.359V73.36H255.559L253.159 74.44C253.159 73.32 252.932 72.3467 252.479 71.52C252.026 70.6933 251.399 70.0533 250.599 69.6C249.799 69.12 248.866 68.88 247.799 68.88C246.732 68.88 245.786 69.12 244.959 69.6C244.159 70.0533 243.532 70.7067 243.079 71.56C242.626 72.3867 242.399 73.3733 242.399 74.52V75.48C242.399 76.6533 242.652 77.6933 243.159 78.6C243.692 79.48 244.426 80.16 245.359 80.64C246.319 81.0933 247.439 81.32 248.719 81.32C249.866 81.32 250.866 81.1467 251.719 80.8C252.599 80.4533 253.399 79.9333 254.119 79.24L257.439 82.84C256.452 83.96 255.212 84.8267 253.719 85.44C252.226 86.0267 250.506 86.32 248.559 86.32ZM276.422 86.32C274.609 86.32 273.022 85.92 271.662 85.12C270.302 84.32 269.236 83.1067 268.462 81.48C267.716 79.8267 267.342 77.7467 267.342 75.24C267.342 72.7067 267.702 70.6267 268.422 69C269.142 67.3733 270.182 66.16 271.542 65.36C272.902 64.56 274.529 64.16 276.422 64.16C278.449 64.16 280.262 64.6267 281.862 65.56C283.489 66.4667 284.769 67.7467 285.702 69.4C286.662 71.0533 287.142 73 287.142 75.24C287.142 77.5067 286.662 79.4667 285.702 81.12C284.769 82.7733 283.489 84.0533 281.862 84.96C280.262 85.8667 278.449 86.32 276.422 86.32ZM263.702 93.76V64.48H269.662V68.88L269.542 75.28L269.942 81.64V93.76H263.702ZM275.342 81.2C276.382 81.2 277.302 80.96 278.102 80.48C278.929 80 279.582 79.32 280.062 78.44C280.569 77.5333 280.822 76.4667 280.822 75.24C280.822 73.9867 280.569 72.92 280.062 72.04C279.582 71.16 278.929 70.48 278.102 70C277.302 69.52 276.382 69.28 275.342 69.28C274.302 69.28 273.369 69.52 272.542 70C271.716 70.48 271.062 71.16 270.582 72.04C270.102 72.92 269.862 73.9867 269.862 75.24C269.862 76.4667 270.102 77.5333 270.582 78.44C271.062 79.32 271.716 80 272.542 80.48C273.369 80.96 274.302 81.2 275.342 81.2ZM291.516 86V64.48H297.716V77.28L308.196 64.48H313.916V86H307.716V73.2L297.276 86H291.516ZM332.794 86V81.8L332.394 80.88V73.36C332.394 72.0267 331.981 70.9867 331.154 70.24C330.354 69.4933 329.114 69.12 327.434 69.12C326.287 69.12 325.154 69.3067 324.034 69.68C322.941 70.0267 322.007 70.5067 321.234 71.12L318.994 66.76C320.167 65.9333 321.581 65.2933 323.234 64.84C324.887 64.3867 326.567 64.16 328.274 64.16C331.554 64.16 334.101 64.9333 335.914 66.48C337.727 68.0267 338.634 70.44 338.634 73.72V86H332.794ZM326.234 86.32C324.554 86.32 323.114 86.04 321.914 85.48C320.714 84.8933 319.794 84.1067 319.154 83.12C318.514 82.1333 318.194 81.0267 318.194 79.8C318.194 78.52 318.501 77.4 319.114 76.44C319.754 75.48 320.754 74.7333 322.114 74.2C323.474 73.64 325.247 73.36 327.434 73.36H333.154V77H328.114C326.647 77 325.634 77.24 325.074 77.72C324.541 78.2 324.274 78.8 324.274 79.52C324.274 80.32 324.581 80.96 325.194 81.44C325.834 81.8933 326.701 82.12 327.794 82.12C328.834 82.12 329.767 81.88 330.594 81.4C331.421 80.8933 332.021 80.16 332.394 79.2L333.354 82.08C332.901 83.4667 332.074 84.52 330.874 85.24C329.674 85.96 328.127 86.32 326.234 86.32ZM341.335 85.96L341.655 80.84C341.815 80.8667 341.975 80.8933 342.135 80.92C342.295 80.92 342.441 80.92 342.575 80.92C343.321 80.92 343.908 80.7067 344.335 80.28C344.761 79.8533 345.081 79.28 345.295 78.56C345.508 77.8133 345.655 76.9733 345.735 76.04C345.841 75.1067 345.921 74.1333 345.975 73.12L346.295 64.48H364.695V86H358.455V68.08L359.855 69.6H350.415L351.735 68L351.455 73.4C351.375 75.32 351.215 77.08 350.975 78.68C350.761 80.28 350.401 81.6667 349.895 82.84C349.388 83.9867 348.708 84.88 347.855 85.52C347.001 86.1333 345.908 86.44 344.575 86.44C344.095 86.44 343.588 86.4 343.055 86.32C342.521 86.24 341.948 86.12 341.335 85.96ZM383.575 86V81.8L383.175 80.88V73.36C383.175 72.0267 382.762 70.9867 381.935 70.24C381.135 69.4933 379.895 69.12 378.215 69.12C377.069 69.12 375.935 69.3067 374.815 69.68C373.722 70.0267 372.789 70.5067 372.015 71.12L369.775 66.76C370.949 65.9333 372.362 65.2933 374.015 64.84C375.669 64.3867 377.349 64.16 379.055 64.16C382.335 64.16 384.882 64.9333 386.695 66.48C388.509 68.0267 389.415 70.44 389.415 73.72V86H383.575ZM377.015 86.32C375.335 86.32 373.895 86.04 372.695 85.48C371.495 84.8933 370.575 84.1067 369.935 83.12C369.295 82.1333 368.975 81.0267 368.975 79.8C368.975 78.52 369.282 77.4 369.895 76.44C370.535 75.48 371.535 74.7333 372.895 74.2C374.255 73.64 376.029 73.36 378.215 73.36H383.935V77H378.895C377.429 77 376.415 77.24 375.855 77.72C375.322 78.2 375.055 78.8 375.055 79.52C375.055 80.32 375.362 80.96 375.975 81.44C376.615 81.8933 377.482 82.12 378.575 82.12C379.615 82.12 380.549 81.88 381.375 81.4C382.202 80.8933 382.802 80.16 383.175 79.2L384.135 82.08C383.682 83.4667 382.855 84.52 381.655 85.24C380.455 85.96 378.909 86.32 377.015 86.32ZM394.836 86V64.48H401.356L409.476 79.2H406.876L415.556 64.48H421.396L421.476 86H415.836V70.88L416.796 71.52L409.396 83.92H406.756L399.316 71.08L400.476 70.8V86H394.836ZM438.781 86V64.48H444.981V77.28L455.461 64.48H461.181V86H454.981V73.2L444.541 86H438.781ZM483.108 86V68.16L484.508 69.6H475.828V64.48H496.588V69.6H487.908L489.308 68.16V86H483.108ZM512.594 86.32C510.781 86.32 509.194 85.92 507.834 85.12C506.474 84.32 505.407 83.1067 504.634 81.48C503.887 79.8267 503.514 77.7467 503.514 75.24C503.514 72.7067 503.874 70.6267 504.594 69C505.314 67.3733 506.354 66.16 507.714 65.36C509.074 64.56 510.701 64.16 512.594 64.16C514.621 64.16 516.434 64.6267 518.034 65.56C519.661 66.4667 520.941 67.7467 521.874 69.4C522.834 71.0533 523.314 73 523.314 75.24C523.314 77.5067 522.834 79.4667 521.874 81.12C520.941 82.7733 519.661 84.0533 518.034 84.96C516.434 85.8667 514.621 86.32 512.594 86.32ZM499.874 93.76V64.48H505.834V68.88L505.714 75.28L506.114 81.64V93.76H499.874ZM511.514 81.2C512.554 81.2 513.474 80.96 514.274 80.48C515.101 80 515.754 79.32 516.234 78.44C516.741 77.5333 516.994 76.4667 516.994 75.24C516.994 73.9867 516.741 72.92 516.234 72.04C515.754 71.16 515.101 70.48 514.274 70C513.474 69.52 512.554 69.28 511.514 69.28C510.474 69.28 509.541 69.52 508.714 70C507.887 70.48 507.234 71.16 506.754 72.04C506.274 72.92 506.034 73.9867 506.034 75.24C506.034 76.4667 506.274 77.5333 506.754 78.44C507.234 79.32 507.887 80 508.714 80.48C509.541 80.96 510.474 81.2 511.514 81.2ZM538.208 86.32C535.754 86.32 533.594 85.84 531.728 84.88C529.888 83.92 528.461 82.6133 527.448 80.96C526.434 79.28 525.928 77.3733 525.928 75.24C525.928 73.08 526.421 71.1733 527.408 69.52C528.421 67.84 529.794 66.5333 531.528 65.6C533.261 64.64 535.221 64.16 537.408 64.16C539.514 64.16 541.408 64.6133 543.088 65.52C544.794 66.4 546.141 67.68 547.128 69.36C548.114 71.0133 548.608 73 548.608 75.32C548.608 75.56 548.594 75.84 548.568 76.16C548.541 76.4533 548.514 76.7333 548.488 77H531.008V73.36H545.208L542.808 74.44C542.808 73.32 542.581 72.3467 542.128 71.52C541.674 70.6933 541.048 70.0533 540.248 69.6C539.448 69.12 538.514 68.88 537.448 68.88C536.381 68.88 535.434 69.12 534.608 69.6C533.808 70.0533 533.181 70.7067 532.728 71.56C532.274 72.3867 532.048 73.3733 532.048 74.52V75.48C532.048 76.6533 532.301 77.6933 532.808 78.6C533.341 79.48 534.074 80.16 535.008 80.64C535.968 81.0933 537.088 81.32 538.368 81.32C539.514 81.32 540.514 81.1467 541.368 80.8C542.248 80.4533 543.048 79.9333 543.768 79.24L547.088 82.84C546.101 83.96 544.861 84.8267 543.368 85.44C541.874 86.0267 540.154 86.32 538.208 86.32ZM553.391 86V64.48H559.591V72.88H568.951V64.48H575.191V86H568.951V77.96H559.591V86H553.391ZM595.964 83.2V69.6H588.924L588.804 72.36C588.751 73.5067 588.684 74.6 588.604 75.64C588.524 76.68 588.364 77.6267 588.124 78.48C587.911 79.3067 587.591 80.0133 587.164 80.6C586.737 81.16 586.164 81.5467 585.444 81.76L579.284 80.88C580.057 80.88 580.684 80.6533 581.164 80.2C581.644 79.72 582.017 79.0667 582.284 78.24C582.551 77.3867 582.751 76.4267 582.884 75.36C583.017 74.2667 583.111 73.12 583.164 71.92L583.444 64.48H602.204V83.2H595.964ZM578.564 90.64V80.88H605.284V90.64H599.484V86H584.364V90.64H578.564ZM622.091 86V81.8L621.691 80.88V73.36C621.691 72.0267 621.278 70.9867 620.451 70.24C619.651 69.4933 618.411 69.12 616.731 69.12C615.584 69.12 614.451 69.3067 613.331 69.68C612.238 70.0267 611.304 70.5067 610.531 71.12L608.291 66.76C609.464 65.9333 610.878 65.2933 612.531 64.84C614.184 64.3867 615.864 64.16 617.571 64.16C620.851 64.16 623.398 64.9333 625.211 66.48C627.024 68.0267 627.931 70.44 627.931 73.72V86H622.091ZM615.531 86.32C613.851 86.32 612.411 86.04 611.211 85.48C610.011 84.8933 609.091 84.1067 608.451 83.12C607.811 82.1333 607.491 81.0267 607.491 79.8C607.491 78.52 607.798 77.4 608.411 76.44C609.051 75.48 610.051 74.7333 611.411 74.2C612.771 73.64 614.544 73.36 616.731 73.36H622.451V77H617.411C615.944 77 614.931 77.24 614.371 77.72C613.838 78.2 613.571 78.8 613.571 79.52C613.571 80.32 613.878 80.96 614.491 81.44C615.131 81.8933 615.998 82.12 617.091 82.12C618.131 82.12 619.064 81.88 619.891 81.4C620.718 80.8933 621.318 80.16 621.691 79.2L622.651 82.08C622.198 83.4667 621.371 84.52 620.171 85.24C618.971 85.96 617.424 86.32 615.531 86.32ZM633.352 86V64.48H639.872L647.992 79.2H645.392L654.072 64.48H659.912L659.992 86H654.352V70.88L655.312 71.52L647.912 83.92H645.272L637.832 71.08L638.992 70.8V86H633.352Z" fill="#141414"/>
<path d="M10.08 118.8H11.248V130H10.08V118.8ZM3.072 130H1.888V118.8H3.072V130ZM10.192 124.832H2.944V123.792H10.192V124.832ZM19.9726 130V128.144L19.9246 127.84V124.736C19.9246 124.021 19.722 123.472 19.3166 123.088C18.922 122.704 18.33 122.512 17.5406 122.512C16.9966 122.512 16.4793 122.603 15.9886 122.784C15.498 122.965 15.082 123.205 14.7406 123.504L14.2286 122.656C14.6553 122.293 15.1673 122.016 15.7646 121.824C16.362 121.621 16.9913 121.52 17.6526 121.52C18.7406 121.52 19.578 121.792 20.1646 122.336C20.762 122.869 21.0606 123.685 21.0606 124.784V130H19.9726ZM17.0766 130.08C16.4473 130.08 15.898 129.979 15.4286 129.776C14.97 129.563 14.618 129.275 14.3726 128.912C14.1273 128.539 14.0046 128.112 14.0046 127.632C14.0046 127.195 14.106 126.8 14.3086 126.448C14.522 126.085 14.8633 125.797 15.3326 125.584C15.8126 125.36 16.4526 125.248 17.2526 125.248H20.1486V126.096H17.2846C16.474 126.096 15.9086 126.24 15.5886 126.528C15.2793 126.816 15.1246 127.173 15.1246 127.6C15.1246 128.08 15.3113 128.464 15.6846 128.752C16.058 129.04 16.5806 129.184 17.2526 129.184C17.8926 129.184 18.442 129.04 18.9006 128.752C19.37 128.453 19.7113 128.027 19.9246 127.472L20.1806 128.256C19.9673 128.811 19.594 129.253 19.0606 129.584C18.538 129.915 17.8766 130.08 17.0766 130.08ZM24.0848 130V121.6H25.2208V128.272L30.8368 121.6H31.8448V130H30.7088V123.312L25.1088 130H24.0848ZM27.8928 120.384C27.1888 120.384 26.6181 120.208 26.1808 119.856C25.7541 119.493 25.5301 118.976 25.5088 118.304H26.3248C26.3354 118.731 26.4848 119.067 26.7728 119.312C27.0608 119.557 27.4341 119.68 27.8928 119.68C28.3514 119.68 28.7248 119.557 29.0128 119.312C29.3114 119.067 29.4661 118.731 29.4768 118.304H30.2928C30.2821 118.976 30.0581 119.493 29.6208 119.856C29.1834 120.208 28.6074 120.384 27.8928 120.384ZM40.8604 129.456V122.592H36.8124L36.7164 124.464C36.695 125.029 36.6577 125.584 36.6044 126.128C36.5617 126.672 36.4817 127.173 36.3644 127.632C36.2577 128.08 36.103 128.448 35.9004 128.736C35.6977 129.013 35.4364 129.173 35.1164 129.216L33.9804 129.008C34.311 129.019 34.583 128.901 34.7964 128.656C35.0097 128.4 35.175 128.053 35.2924 127.616C35.4097 127.179 35.495 126.683 35.5484 126.128C35.6017 125.563 35.6444 124.987 35.6764 124.4L35.7884 121.6H41.9964V129.456H40.8604ZM33.6284 132.032V129.008H43.3084V132.032H42.2364V130H34.7004V132.032H33.6284ZM45.5223 130V121.6H46.6583V128.272L52.2743 121.6H53.2823V130H52.1463V123.312L46.5463 130H45.5223ZM58.1379 130V122.288L58.4259 122.592H54.9539V121.6H62.4579V122.592H58.9859L59.2739 122.288V130H58.1379ZM67.3098 130.08C66.4351 130.08 65.6671 129.899 65.0058 129.536C64.3444 129.163 63.8271 128.656 63.4538 128.016C63.0804 127.365 62.8938 126.624 62.8938 125.792C62.8938 124.96 63.0698 124.224 63.4218 123.584C63.7844 122.944 64.2751 122.443 64.8938 122.08C65.5231 121.707 66.2271 121.52 67.0058 121.52C67.7951 121.52 68.4938 121.701 69.1018 122.064C69.7204 122.416 70.2058 122.917 70.5578 123.568C70.9098 124.208 71.0858 124.949 71.0858 125.792C71.0858 125.845 71.0804 125.904 71.0698 125.968C71.0698 126.021 71.0698 126.08 71.0698 126.144H63.7578V125.296H70.4618L70.0138 125.632C70.0138 125.024 69.8804 124.485 69.6138 124.016C69.3578 123.536 69.0058 123.163 68.5578 122.896C68.1098 122.629 67.5924 122.496 67.0058 122.496C66.4298 122.496 65.9124 122.629 65.4538 122.896C64.9951 123.163 64.6378 123.536 64.3818 124.016C64.1258 124.496 63.9978 125.045 63.9978 125.664V125.84C63.9978 126.48 64.1364 127.045 64.4138 127.536C64.7018 128.016 65.0964 128.395 65.5978 128.672C66.1098 128.939 66.6911 129.072 67.3418 129.072C67.8538 129.072 68.3284 128.981 68.7658 128.8C69.2138 128.619 69.5978 128.341 69.9178 127.968L70.5578 128.704C70.1844 129.152 69.7151 129.493 69.1498 129.728C68.5951 129.963 67.9818 130.08 67.3098 130.08ZM81.3079 130.08C80.4759 130.08 79.7292 129.899 79.0679 129.536C78.4172 129.163 77.9052 128.656 77.5319 128.016C77.1585 127.365 76.9719 126.624 76.9719 125.792C76.9719 124.949 77.1585 124.208 77.5319 123.568C77.9052 122.928 78.4172 122.427 79.0679 122.064C79.7292 121.701 80.4759 121.52 81.3079 121.52C82.0225 121.52 82.6679 121.659 83.2439 121.936C83.8199 122.213 84.2732 122.629 84.6039 123.184L83.7559 123.76C83.4679 123.333 83.1105 123.019 82.6839 122.816C82.2572 122.613 81.7932 122.512 81.2919 122.512C80.6945 122.512 80.1559 122.651 79.6759 122.928C79.1959 123.195 78.8172 123.573 78.5399 124.064C78.2625 124.555 78.1239 125.131 78.1239 125.792C78.1239 126.453 78.2625 127.029 78.5399 127.52C78.8172 128.011 79.1959 128.395 79.6759 128.672C80.1559 128.939 80.6945 129.072 81.2919 129.072C81.7932 129.072 82.2572 128.971 82.6839 128.768C83.1105 128.565 83.4679 128.256 83.7559 127.84L84.6039 128.416C84.2732 128.96 83.8199 129.376 83.2439 129.664C82.6679 129.941 82.0225 130.08 81.3079 130.08ZM88.2473 130V122.288L88.5353 122.592H85.0633V121.6H92.5673V122.592H89.0953L89.3833 122.288V130H88.2473ZM94.2098 130V121.6H95.3458V128.272L100.962 121.6H101.97V130H100.834V123.312L95.2338 130H94.2098ZM103.689 129.984L103.769 129.008C103.844 129.019 103.913 129.035 103.977 129.056C104.052 129.067 104.116 129.072 104.169 129.072C104.511 129.072 104.783 128.944 104.985 128.688C105.199 128.432 105.359 128.091 105.465 127.664C105.572 127.237 105.647 126.757 105.689 126.224C105.732 125.68 105.769 125.136 105.801 124.592L105.945 121.6H112.105V130H110.969V122.256L111.257 122.592H106.681L106.953 122.24L106.825 124.672C106.793 125.397 106.735 126.091 106.649 126.752C106.575 127.413 106.452 127.995 106.281 128.496C106.121 128.997 105.897 129.392 105.609 129.68C105.321 129.957 104.953 130.096 104.505 130.096C104.377 130.096 104.244 130.085 104.105 130.064C103.977 130.043 103.839 130.016 103.689 129.984ZM118.951 124.56C120.007 124.571 120.807 124.805 121.351 125.264C121.905 125.723 122.183 126.384 122.183 127.248C122.183 128.144 121.884 128.832 121.287 129.312C120.7 129.792 119.847 130.027 118.727 130.016L115.335 130V121.6H116.471V124.528L118.951 124.56ZM118.663 129.152C119.441 129.163 120.028 129.008 120.423 128.688C120.828 128.357 121.031 127.877 121.031 127.248C121.031 126.619 120.833 126.16 120.439 125.872C120.044 125.573 119.452 125.419 118.663 125.408L116.471 125.376V129.12L118.663 129.152ZM123.505 132.336L124.209 129.376L124.337 130.064C124.092 130.064 123.884 129.984 123.713 129.824C123.553 129.664 123.473 129.456 123.473 129.2C123.473 128.944 123.553 128.736 123.713 128.576C123.884 128.416 124.087 128.336 124.321 128.336C124.567 128.336 124.764 128.421 124.913 128.592C125.073 128.763 125.153 128.965 125.153 129.2C125.153 129.285 125.148 129.371 125.137 129.456C125.127 129.541 125.105 129.637 125.073 129.744C125.041 129.851 124.999 129.979 124.945 130.128L124.273 132.336H123.505ZM137.964 130L134.508 125.84L135.452 125.28L139.308 130H137.964ZM131.804 130V121.6H132.94V130H131.804ZM132.588 126.256V125.28H135.292V126.256H132.588ZM135.548 125.92L134.492 125.76L137.836 121.6H139.068L135.548 125.92ZM144.26 130.08C143.449 130.08 142.718 129.899 142.068 129.536C141.428 129.163 140.921 128.656 140.548 128.016C140.174 127.365 139.988 126.624 139.988 125.792C139.988 124.949 140.174 124.208 140.548 123.568C140.921 122.928 141.428 122.427 142.068 122.064C142.708 121.701 143.438 121.52 144.26 121.52C145.092 121.52 145.828 121.701 146.468 122.064C147.118 122.427 147.625 122.928 147.988 123.568C148.361 124.208 148.548 124.949 148.548 125.792C148.548 126.624 148.361 127.365 147.988 128.016C147.625 128.656 147.118 129.163 146.468 129.536C145.817 129.899 145.081 130.08 144.26 130.08ZM144.26 129.072C144.868 129.072 145.406 128.939 145.876 128.672C146.345 128.395 146.713 128.011 146.98 127.52C147.257 127.019 147.396 126.443 147.396 125.792C147.396 125.131 147.257 124.555 146.98 124.064C146.713 123.573 146.345 123.195 145.876 122.928C145.406 122.651 144.873 122.512 144.276 122.512C143.678 122.512 143.145 122.651 142.676 122.928C142.206 123.195 141.833 123.573 141.556 124.064C141.278 124.555 141.14 125.131 141.14 125.792C141.14 126.443 141.278 127.019 141.556 127.52C141.833 128.011 142.206 128.395 142.676 128.672C143.145 128.939 143.673 129.072 144.26 129.072ZM152.263 130V122.288L152.551 122.592H149.079V121.6H156.583V122.592H153.111L153.399 122.288V130H152.263ZM161.291 130.08C160.48 130.08 159.749 129.899 159.099 129.536C158.459 129.163 157.952 128.656 157.579 128.016C157.205 127.365 157.019 126.624 157.019 125.792C157.019 124.949 157.205 124.208 157.579 123.568C157.952 122.928 158.459 122.427 159.099 122.064C159.739 121.701 160.469 121.52 161.291 121.52C162.123 121.52 162.859 121.701 163.499 122.064C164.149 122.427 164.656 122.928 165.019 123.568C165.392 124.208 165.579 124.949 165.579 125.792C165.579 126.624 165.392 127.365 165.019 128.016C164.656 128.656 164.149 129.163 163.499 129.536C162.848 129.899 162.112 130.08 161.291 130.08ZM161.291 129.072C161.899 129.072 162.437 128.939 162.907 128.672C163.376 128.395 163.744 128.011 164.011 127.52C164.288 127.019 164.427 126.443 164.427 125.792C164.427 125.131 164.288 124.555 164.011 124.064C163.744 123.573 163.376 123.195 162.907 122.928C162.437 122.651 161.904 122.512 161.307 122.512C160.709 122.512 160.176 122.651 159.707 122.928C159.237 123.195 158.864 123.573 158.587 124.064C158.309 124.555 158.171 125.131 158.171 125.792C158.171 126.443 158.309 127.019 158.587 127.52C158.864 128.011 159.237 128.395 159.707 128.672C160.176 128.939 160.704 129.072 161.291 129.072ZM172.343 130.08C171.617 130.08 170.961 129.915 170.375 129.584C169.788 129.243 169.319 128.757 168.967 128.128C168.625 127.488 168.455 126.709 168.455 125.792C168.455 124.875 168.625 124.101 168.967 123.472C169.308 122.832 169.772 122.347 170.359 122.016C170.945 121.685 171.607 121.52 172.343 121.52C173.143 121.52 173.857 121.701 174.487 122.064C175.127 122.416 175.628 122.917 175.991 123.568C176.353 124.208 176.535 124.949 176.535 125.792C176.535 126.645 176.353 127.392 175.991 128.032C175.628 128.672 175.127 129.173 174.487 129.536C173.857 129.899 173.143 130.08 172.343 130.08ZM168.007 133.104V121.6H169.095V124.128L168.983 125.808L169.143 127.504V133.104H168.007ZM172.263 129.072C172.86 129.072 173.393 128.939 173.863 128.672C174.332 128.395 174.705 128.011 174.983 127.52C175.26 127.019 175.399 126.443 175.399 125.792C175.399 125.141 175.26 124.571 174.983 124.08C174.705 123.589 174.332 123.205 173.863 122.928C173.393 122.651 172.86 122.512 172.263 122.512C171.665 122.512 171.127 122.651 170.647 122.928C170.177 123.205 169.804 123.589 169.527 124.08C169.26 124.571 169.127 125.141 169.127 125.792C169.127 126.443 169.26 127.019 169.527 127.52C169.804 128.011 170.177 128.395 170.647 128.672C171.127 128.939 171.665 129.072 172.263 129.072ZM187.167 130V121.6H188.303V130H187.167ZM182.511 124.56C183.567 124.571 184.373 124.805 184.927 125.264C185.482 125.723 185.759 126.384 185.759 127.248C185.759 128.144 185.461 128.832 184.863 129.312C184.266 129.792 183.413 130.027 182.303 130.016L178.975 130V121.6H180.111V124.528L182.511 124.56ZM182.223 129.152C183.013 129.163 183.605 129.008 183.999 128.688C184.405 128.357 184.607 127.877 184.607 127.248C184.607 126.619 184.41 126.16 184.015 125.872C183.621 125.573 183.023 125.419 182.223 125.408L180.111 125.376V129.12L182.223 129.152ZM191.538 130V121.6H192.674V128.272L198.29 121.6H199.298V130H198.162V123.312L192.562 130H191.538ZM195.346 120.384C194.642 120.384 194.071 120.208 193.634 119.856C193.207 119.493 192.983 118.976 192.962 118.304H193.778C193.789 118.731 193.938 119.067 194.226 119.312C194.514 119.557 194.887 119.68 195.346 119.68C195.805 119.68 196.178 119.557 196.466 119.312C196.765 119.067 196.919 118.731 196.93 118.304H197.746C197.735 118.976 197.511 119.493 197.074 119.856C196.637 120.208 196.061 120.384 195.346 120.384ZM210.197 130.08C209.386 130.08 208.656 129.899 208.005 129.536C207.365 129.163 206.858 128.656 206.485 128.016C206.112 127.365 205.925 126.624 205.925 125.792C205.925 124.949 206.112 124.208 206.485 123.568C206.858 122.928 207.365 122.427 208.005 122.064C208.645 121.701 209.376 121.52 210.197 121.52C211.029 121.52 211.765 121.701 212.405 122.064C213.056 122.427 213.562 122.928 213.925 123.568C214.298 124.208 214.485 124.949 214.485 125.792C214.485 126.624 214.298 127.365 213.925 128.016C213.562 128.656 213.056 129.163 212.405 129.536C211.754 129.899 211.018 130.08 210.197 130.08ZM210.197 129.072C210.805 129.072 211.344 128.939 211.813 128.672C212.282 128.395 212.65 128.011 212.917 127.52C213.194 127.019 213.333 126.443 213.333 125.792C213.333 125.131 213.194 124.555 212.917 124.064C212.65 123.573 212.282 123.195 211.813 122.928C211.344 122.651 210.81 122.512 210.213 122.512C209.616 122.512 209.082 122.651 208.613 122.928C208.144 123.195 207.77 123.573 207.493 124.064C207.216 124.555 207.077 125.131 207.077 125.792C207.077 126.443 207.216 127.019 207.493 127.52C207.77 128.011 208.144 128.395 208.613 128.672C209.082 128.939 209.61 129.072 210.197 129.072ZM218.2 130V122.288L218.488 122.592H215.016V121.6H222.52V122.592H219.048L219.336 122.288V130H218.2ZM228.499 130.08C227.774 130.08 227.118 129.915 226.531 129.584C225.944 129.243 225.475 128.757 225.123 128.128C224.782 127.488 224.611 126.709 224.611 125.792C224.611 124.875 224.782 124.101 225.123 123.472C225.464 122.832 225.928 122.347 226.515 122.016C227.102 121.685 227.763 121.52 228.499 121.52C229.299 121.52 230.014 121.701 230.643 122.064C231.283 122.416 231.784 122.917 232.147 123.568C232.51 124.208 232.691 124.949 232.691 125.792C232.691 126.645 232.51 127.392 232.147 128.032C231.784 128.672 231.283 129.173 230.643 129.536C230.014 129.899 229.299 130.08 228.499 130.08ZM224.163 133.104V121.6H225.251V124.128L225.139 125.808L225.299 127.504V133.104H224.163ZM228.419 129.072C229.016 129.072 229.55 128.939 230.019 128.672C230.488 128.395 230.862 128.011 231.139 127.52C231.416 127.019 231.555 126.443 231.555 125.792C231.555 125.141 231.416 124.571 231.139 124.08C230.862 123.589 230.488 123.205 230.019 122.928C229.55 122.651 229.016 122.512 228.419 122.512C227.822 122.512 227.283 122.651 226.803 122.928C226.334 123.205 225.96 123.589 225.683 124.08C225.416 124.571 225.283 125.141 225.283 125.792C225.283 126.443 225.416 127.019 225.683 127.52C225.96 128.011 226.334 128.395 226.803 128.672C227.283 128.939 227.822 129.072 228.419 129.072ZM240.301 130V128.144L240.253 127.84V124.736C240.253 124.021 240.05 123.472 239.645 123.088C239.25 122.704 238.658 122.512 237.869 122.512C237.325 122.512 236.807 122.603 236.317 122.784C235.826 122.965 235.41 123.205 235.069 123.504L234.557 122.656C234.983 122.293 235.495 122.016 236.093 121.824C236.69 121.621 237.319 121.52 237.981 121.52C239.069 121.52 239.906 121.792 240.493 122.336C241.09 122.869 241.389 123.685 241.389 124.784V130H240.301ZM237.405 130.08C236.775 130.08 236.226 129.979 235.757 129.776C235.298 129.563 234.946 129.275 234.701 128.912C234.455 128.539 234.333 128.112 234.333 127.632C234.333 127.195 234.434 126.8 234.637 126.448C234.85 126.085 235.191 125.797 235.661 125.584C236.141 125.36 236.781 125.248 237.581 125.248H240.477V126.096H237.613C236.802 126.096 236.237 126.24 235.917 126.528C235.607 126.816 235.453 127.173 235.453 127.6C235.453 128.08 235.639 128.464 236.013 128.752C236.386 129.04 236.909 129.184 237.581 129.184C238.221 129.184 238.77 129.04 239.229 128.752C239.698 128.453 240.039 128.027 240.253 127.472L240.509 128.256C240.295 128.811 239.922 129.253 239.389 129.584C238.866 129.915 238.205 130.08 237.405 130.08ZM254.381 130L251.501 125.84L252.445 125.28L255.741 130H254.381ZM249.613 126.256V125.28H252.269V126.256H249.613ZM252.557 125.92L251.469 125.76L254.269 121.6H255.501L252.557 125.92ZM244.429 130H243.069L246.365 125.28L247.293 125.84L244.429 130ZM249.965 130H248.829V121.6H249.965V130ZM249.181 126.256H246.541V125.28H249.181V126.256ZM246.269 125.92L243.309 121.6H244.541L247.325 125.76L246.269 125.92ZM262.691 130V128.144L262.643 127.84V124.736C262.643 124.021 262.441 123.472 262.035 123.088C261.641 122.704 261.049 122.512 260.259 122.512C259.715 122.512 259.198 122.603 258.707 122.784C258.217 122.965 257.801 123.205 257.459 123.504L256.947 122.656C257.374 122.293 257.886 122.016 258.483 121.824C259.081 121.621 259.71 121.52 260.371 121.52C261.459 121.52 262.297 121.792 262.883 122.336C263.481 122.869 263.779 123.685 263.779 124.784V130H262.691ZM259.795 130.08C259.166 130.08 258.617 129.979 258.147 129.776C257.689 129.563 257.337 129.275 257.091 128.912C256.846 128.539 256.723 128.112 256.723 127.632C256.723 127.195 256.825 126.8 257.027 126.448C257.241 126.085 257.582 125.797 258.051 125.584C258.531 125.36 259.171 125.248 259.971 125.248H262.867V126.096H260.003C259.193 126.096 258.627 126.24 258.307 126.528C257.998 126.816 257.843 127.173 257.843 127.6C257.843 128.08 258.03 128.464 258.403 128.752C258.777 129.04 259.299 129.184 259.971 129.184C260.611 129.184 261.161 129.04 261.619 128.752C262.089 128.453 262.43 128.027 262.643 127.472L262.899 128.256C262.686 128.811 262.313 129.253 261.779 129.584C261.257 129.915 260.595 130.08 259.795 130.08ZM270.404 130.08C269.529 130.08 268.761 129.899 268.1 129.536C267.438 129.163 266.921 128.656 266.548 128.016C266.174 127.365 265.988 126.624 265.988 125.792C265.988 124.96 266.164 124.224 266.516 123.584C266.878 122.944 267.369 122.443 267.988 122.08C268.617 121.707 269.321 121.52 270.1 121.52C270.889 121.52 271.588 121.701 272.196 122.064C272.814 122.416 273.3 122.917 273.652 123.568C274.004 124.208 274.18 124.949 274.18 125.792C274.18 125.845 274.174 125.904 274.164 125.968C274.164 126.021 274.164 126.08 274.164 126.144H266.852V125.296H273.556L273.108 125.632C273.108 125.024 272.974 124.485 272.708 124.016C272.452 123.536 272.1 123.163 271.652 122.896C271.204 122.629 270.686 122.496 270.1 122.496C269.524 122.496 269.006 122.629 268.548 122.896C268.089 123.163 267.732 123.536 267.476 124.016C267.22 124.496 267.092 125.045 267.092 125.664V125.84C267.092 126.48 267.23 127.045 267.508 127.536C267.796 128.016 268.19 128.395 268.692 128.672C269.204 128.939 269.785 129.072 270.436 129.072C270.948 129.072 271.422 128.981 271.86 128.8C272.308 128.619 272.692 128.341 273.012 127.968L273.652 128.704C273.278 129.152 272.809 129.493 272.244 129.728C271.689 129.963 271.076 130.08 270.404 130.08ZM277.919 130V122.288L278.207 122.592H274.735V121.6H282.239V122.592H278.767L279.055 122.288V130H277.919ZM286.693 130L290.245 125.392L290.229 125.952L286.853 121.6H288.133L290.901 125.2L290.421 125.184L293.189 121.6H294.437L291.029 126L291.045 125.392L294.629 130H293.333L290.405 126.16L290.853 126.224L287.973 130H286.693ZM301.551 130V128.144L301.503 127.84V124.736C301.503 124.021 301.3 123.472 300.895 123.088C300.5 122.704 299.908 122.512 299.119 122.512C298.575 122.512 298.057 122.603 297.567 122.784C297.076 122.965 296.66 123.205 296.319 123.504L295.807 122.656C296.233 122.293 296.745 122.016 297.343 121.824C297.94 121.621 298.569 121.52 299.231 121.52C300.319 121.52 301.156 121.792 301.743 122.336C302.34 122.869 302.639 123.685 302.639 124.784V130H301.551ZM298.655 130.08C298.025 130.08 297.476 129.979 297.007 129.776C296.548 129.563 296.196 129.275 295.951 128.912C295.705 128.539 295.583 128.112 295.583 127.632C295.583 127.195 295.684 126.8 295.887 126.448C296.1 126.085 296.441 125.797 296.911 125.584C297.391 125.36 298.031 125.248 298.831 125.248H301.727V126.096H298.863C298.052 126.096 297.487 126.24 297.167 126.528C296.857 126.816 296.703 127.173 296.703 127.6C296.703 128.08 296.889 128.464 297.263 128.752C297.636 129.04 298.159 129.184 298.831 129.184C299.471 129.184 300.02 129.04 300.479 128.752C300.948 128.453 301.289 128.027 301.503 127.472L301.759 128.256C301.545 128.811 301.172 129.253 300.639 129.584C300.116 129.915 299.455 130.08 298.655 130.08ZM309.999 130.08C309.274 130.08 308.618 129.915 308.031 129.584C307.444 129.243 306.975 128.757 306.623 128.128C306.282 127.488 306.111 126.709 306.111 125.792C306.111 124.875 306.282 124.101 306.623 123.472C306.964 122.832 307.428 122.347 308.015 122.016C308.602 121.685 309.263 121.52 309.999 121.52C310.799 121.52 311.514 121.701 312.143 122.064C312.783 122.416 313.284 122.917 313.647 123.568C314.01 124.208 314.191 124.949 314.191 125.792C314.191 126.645 314.01 127.392 313.647 128.032C313.284 128.672 312.783 129.173 312.143 129.536C311.514 129.899 310.799 130.08 309.999 130.08ZM305.663 133.104V121.6H306.751V124.128L306.639 125.808L306.799 127.504V133.104H305.663ZM309.919 129.072C310.516 129.072 311.05 128.939 311.519 128.672C311.988 128.395 312.362 128.011 312.639 127.52C312.916 127.019 313.055 126.443 313.055 125.792C313.055 125.141 312.916 124.571 312.639 124.08C312.362 123.589 311.988 123.205 311.519 122.928C311.05 122.651 310.516 122.512 309.919 122.512C309.322 122.512 308.783 122.651 308.303 122.928C307.834 123.205 307.46 123.589 307.183 124.08C306.916 124.571 306.783 125.141 306.783 125.792C306.783 126.443 306.916 127.019 307.183 127.52C307.46 128.011 307.834 128.395 308.303 128.672C308.783 128.939 309.322 129.072 309.919 129.072ZM321.801 130V128.144L321.753 127.84V124.736C321.753 124.021 321.55 123.472 321.145 123.088C320.75 122.704 320.158 122.512 319.369 122.512C318.825 122.512 318.307 122.603 317.817 122.784C317.326 122.965 316.91 123.205 316.569 123.504L316.057 122.656C316.483 122.293 316.995 122.016 317.593 121.824C318.19 121.621 318.819 121.52 319.481 121.52C320.569 121.52 321.406 121.792 321.993 122.336C322.59 122.869 322.889 123.685 322.889 124.784V130H321.801ZM318.905 130.08C318.275 130.08 317.726 129.979 317.257 129.776C316.798 129.563 316.446 129.275 316.201 128.912C315.955 128.539 315.833 128.112 315.833 127.632C315.833 127.195 315.934 126.8 316.137 126.448C316.35 126.085 316.691 125.797 317.161 125.584C317.641 125.36 318.281 125.248 319.081 125.248H321.977V126.096H319.113C318.302 126.096 317.737 126.24 317.417 126.528C317.107 126.816 316.953 127.173 316.953 127.6C316.953 128.08 317.139 128.464 317.513 128.752C317.886 129.04 318.409 129.184 319.081 129.184C319.721 129.184 320.27 129.04 320.729 128.752C321.198 128.453 321.539 128.027 321.753 127.472L322.009 128.256C321.795 128.811 321.422 129.253 320.889 129.584C320.366 129.915 319.705 130.08 318.905 130.08ZM332.073 130L328.617 125.84L329.561 125.28L333.417 130H332.073ZM325.913 130V121.6H327.049V130H325.913ZM326.697 126.256V125.28H329.401V126.256H326.697ZM329.657 125.92L328.601 125.76L331.945 121.6H333.177L329.657 125.92ZM336.638 130V122.288L336.926 122.592H333.454V121.6H340.958V122.592H337.486L337.774 122.288V130H336.638ZM345.81 130.08C344.935 130.08 344.167 129.899 343.506 129.536C342.844 129.163 342.327 128.656 341.954 128.016C341.58 127.365 341.394 126.624 341.394 125.792C341.394 124.96 341.57 124.224 341.922 123.584C342.284 122.944 342.775 122.443 343.394 122.08C344.023 121.707 344.727 121.52 345.506 121.52C346.295 121.52 346.994 121.701 347.602 122.064C348.22 122.416 348.706 122.917 349.058 123.568C349.41 124.208 349.586 124.949 349.586 125.792C349.586 125.845 349.58 125.904 349.57 125.968C349.57 126.021 349.57 126.08 349.57 126.144H342.258V125.296H348.962L348.514 125.632C348.514 125.024 348.38 124.485 348.114 124.016C347.858 123.536 347.506 123.163 347.058 122.896C346.61 122.629 346.092 122.496 345.506 122.496C344.93 122.496 344.412 122.629 343.954 122.896C343.495 123.163 343.138 123.536 342.882 124.016C342.626 124.496 342.498 125.045 342.498 125.664V125.84C342.498 126.48 342.636 127.045 342.914 127.536C343.202 128.016 343.596 128.395 344.098 128.672C344.61 128.939 345.191 129.072 345.842 129.072C346.354 129.072 346.828 128.981 347.266 128.8C347.714 128.619 348.098 128.341 348.418 127.968L349.058 128.704C348.684 129.152 348.215 129.493 347.65 129.728C347.095 129.963 346.482 130.08 345.81 130.08ZM356.436 130.08C355.711 130.08 355.055 129.915 354.468 129.584C353.882 129.243 353.412 128.757 353.06 128.128C352.719 127.488 352.548 126.709 352.548 125.792C352.548 124.875 352.719 124.101 353.06 123.472C353.402 122.832 353.866 122.347 354.452 122.016C355.039 121.685 355.7 121.52 356.436 121.52C357.236 121.52 357.951 121.701 358.58 122.064C359.22 122.416 359.722 122.917 360.084 123.568C360.447 124.208 360.628 124.949 360.628 125.792C360.628 126.645 360.447 127.392 360.084 128.032C359.722 128.672 359.22 129.173 358.58 129.536C357.951 129.899 357.236 130.08 356.436 130.08ZM352.1 133.104V121.6H353.188V124.128L353.076 125.808L353.236 127.504V133.104H352.1ZM356.356 129.072C356.954 129.072 357.487 128.939 357.956 128.672C358.426 128.395 358.799 128.011 359.076 127.52C359.354 127.019 359.492 126.443 359.492 125.792C359.492 125.141 359.354 124.571 359.076 124.08C358.799 123.589 358.426 123.205 357.956 122.928C357.487 122.651 356.954 122.512 356.356 122.512C355.759 122.512 355.22 122.651 354.74 122.928C354.271 123.205 353.898 123.589 353.62 124.08C353.354 124.571 353.22 125.141 353.22 125.792C353.22 126.443 353.354 127.019 353.62 127.52C353.898 128.011 354.271 128.395 354.74 128.672C355.22 128.939 355.759 129.072 356.356 129.072ZM367.257 130V121.6H370.969C371.918 121.6 372.665 121.781 373.209 122.144C373.763 122.507 374.041 123.04 374.041 123.744C374.041 124.427 373.779 124.955 373.257 125.328C372.734 125.691 372.046 125.872 371.193 125.872L371.417 125.536C372.419 125.536 373.155 125.723 373.625 126.096C374.094 126.469 374.329 127.008 374.329 127.712C374.329 128.437 374.062 129.003 373.529 129.408C373.006 129.803 372.19 130 371.081 130H367.257ZM368.361 129.104H371.033C371.747 129.104 372.286 128.992 372.649 128.768C373.022 128.533 373.209 128.16 373.209 127.648C373.209 127.136 373.043 126.763 372.713 126.528C372.382 126.293 371.859 126.176 371.145 126.176H368.361V129.104ZM368.361 125.328H370.889C371.539 125.328 372.035 125.205 372.377 124.96C372.729 124.715 372.905 124.357 372.905 123.888C372.905 123.419 372.729 123.067 372.377 122.832C372.035 122.597 371.539 122.48 370.889 122.48H368.361V125.328ZM382.207 130V128.144L382.159 127.84V124.736C382.159 124.021 381.956 123.472 381.551 123.088C381.156 122.704 380.564 122.512 379.775 122.512C379.231 122.512 378.714 122.603 378.223 122.784C377.732 122.965 377.316 123.205 376.975 123.504L376.463 122.656C376.89 122.293 377.402 122.016 377.999 121.824C378.596 121.621 379.226 121.52 379.887 121.52C380.975 121.52 381.812 121.792 382.399 122.336C382.996 122.869 383.295 123.685 383.295 124.784V130H382.207ZM379.311 130.08C378.682 130.08 378.132 129.979 377.663 129.776C377.204 129.563 376.852 129.275 376.607 128.912C376.362 128.539 376.239 128.112 376.239 127.632C376.239 127.195 376.34 126.8 376.543 126.448C376.756 126.085 377.098 125.797 377.567 125.584C378.047 125.36 378.687 125.248 379.487 125.248H382.383V126.096H379.519C378.708 126.096 378.143 126.24 377.823 126.528C377.514 126.816 377.359 127.173 377.359 127.6C377.359 128.08 377.546 128.464 377.919 128.752C378.292 129.04 378.815 129.184 379.487 129.184C380.127 129.184 380.676 129.04 381.135 128.752C381.604 128.453 381.946 128.027 382.159 127.472L382.415 128.256C382.202 128.811 381.828 129.253 381.295 129.584C380.772 129.915 380.111 130.08 379.311 130.08ZM391.839 129.008L391.583 129.312V121.6H392.719V129.312L392.415 129.008H397.103L396.799 129.312V121.6H397.935V130H386.319V121.6H387.455V129.312L387.167 129.008H391.839ZM404.763 130.08C403.888 130.08 403.12 129.899 402.459 129.536C401.798 129.163 401.28 128.656 400.907 128.016C400.534 127.365 400.347 126.624 400.347 125.792C400.347 124.96 400.523 124.224 400.875 123.584C401.238 122.944 401.728 122.443 402.347 122.08C402.976 121.707 403.68 121.52 404.459 121.52C405.248 121.52 405.947 121.701 406.555 122.064C407.174 122.416 407.659 122.917 408.011 123.568C408.363 124.208 408.539 124.949 408.539 125.792C408.539 125.845 408.534 125.904 408.523 125.968C408.523 126.021 408.523 126.08 408.523 126.144H401.211V125.296H407.915L407.467 125.632C407.467 125.024 407.334 124.485 407.067 124.016C406.811 123.536 406.459 123.163 406.011 122.896C405.563 122.629 405.046 122.496 404.459 122.496C403.883 122.496 403.366 122.629 402.907 122.896C402.448 123.163 402.091 123.536 401.835 124.016C401.579 124.496 401.451 125.045 401.451 125.664V125.84C401.451 126.48 401.59 127.045 401.867 127.536C402.155 128.016 402.55 128.395 403.051 128.672C403.563 128.939 404.144 129.072 404.795 129.072C405.307 129.072 405.782 128.981 406.219 128.8C406.667 128.619 407.051 128.341 407.371 127.968L408.011 128.704C407.638 129.152 407.168 129.493 406.603 129.728C406.048 129.963 405.435 130.08 404.763 130.08ZM411.054 130V121.6H417.006V122.592H411.902L412.19 122.304V130H411.054ZM421.713 130.08C420.902 130.08 420.171 129.899 419.521 129.536C418.881 129.163 418.374 128.656 418.001 128.016C417.627 127.365 417.441 126.624 417.441 125.792C417.441 124.949 417.627 124.208 418.001 123.568C418.374 122.928 418.881 122.427 419.521 122.064C420.161 121.701 420.891 121.52 421.713 121.52C422.545 121.52 423.281 121.701 423.921 122.064C424.571 122.427 425.078 122.928 425.441 123.568C425.814 124.208 426.001 124.949 426.001 125.792C426.001 126.624 425.814 127.365 425.441 128.016C425.078 128.656 424.571 129.163 423.921 129.536C423.27 129.899 422.534 130.08 421.713 130.08ZM421.713 129.072C422.321 129.072 422.859 128.939 423.329 128.672C423.798 128.395 424.166 128.011 424.433 127.52C424.71 127.019 424.849 126.443 424.849 125.792C424.849 125.131 424.71 124.555 424.433 124.064C424.166 123.573 423.798 123.195 423.329 122.928C422.859 122.651 422.326 122.512 421.729 122.512C421.131 122.512 420.598 122.651 420.129 122.928C419.659 123.195 419.286 123.573 419.009 124.064C418.731 124.555 418.593 125.131 418.593 125.792C418.593 126.443 418.731 127.019 419.009 127.52C419.286 128.011 419.659 128.395 420.129 128.672C420.598 128.939 421.126 129.072 421.713 129.072ZM437.832 130V128.144L437.784 127.84V124.736C437.784 124.021 437.581 123.472 437.176 123.088C436.781 122.704 436.189 122.512 435.4 122.512C434.856 122.512 434.339 122.603 433.848 122.784C433.357 122.965 432.941 123.205 432.6 123.504L432.088 122.656C432.515 122.293 433.027 122.016 433.624 121.824C434.221 121.621 434.851 121.52 435.512 121.52C436.6 121.52 437.437 121.792 438.024 122.336C438.621 122.869 438.92 123.685 438.92 124.784V130H437.832ZM434.936 130.08C434.307 130.08 433.757 129.979 433.288 129.776C432.829 129.563 432.477 129.275 432.232 128.912C431.987 128.539 431.864 128.112 431.864 127.632C431.864 127.195 431.965 126.8 432.168 126.448C432.381 126.085 432.723 125.797 433.192 125.584C433.672 125.36 434.312 125.248 435.112 125.248H438.008V126.096H435.144C434.333 126.096 433.768 126.24 433.448 126.528C433.139 126.816 432.984 127.173 432.984 127.6C432.984 128.08 433.171 128.464 433.544 128.752C433.917 129.04 434.44 129.184 435.112 129.184C435.752 129.184 436.301 129.04 436.76 128.752C437.229 128.453 437.571 128.027 437.784 127.472L438.04 128.256C437.827 128.811 437.453 129.253 436.92 129.584C436.397 129.915 435.736 130.08 434.936 130.08ZM441.944 130V121.6H445.656C446.605 121.6 447.352 121.781 447.896 122.144C448.451 122.507 448.728 123.04 448.728 123.744C448.728 124.427 448.467 124.955 447.944 125.328C447.421 125.691 446.733 125.872 445.88 125.872L446.104 125.536C447.107 125.536 447.843 125.723 448.312 126.096C448.781 126.469 449.016 127.008 449.016 127.712C449.016 128.437 448.749 129.003 448.216 129.408C447.693 129.803 446.877 130 445.768 130H441.944ZM443.048 129.104H445.72C446.435 129.104 446.973 128.992 447.336 128.768C447.709 128.533 447.896 128.16 447.896 127.648C447.896 127.136 447.731 126.763 447.4 126.528C447.069 126.293 446.547 126.176 445.832 126.176H443.048V129.104ZM443.048 125.328H445.576C446.227 125.328 446.723 125.205 447.064 124.96C447.416 124.715 447.592 124.357 447.592 123.888C447.592 123.419 447.416 123.067 447.064 122.832C446.723 122.597 446.227 122.48 445.576 122.48H443.048V125.328ZM453.279 130V122.288L453.567 122.592H450.095V121.6H457.599V122.592H454.127L454.415 122.288V130H453.279ZM462.306 130.08C461.496 130.08 460.765 129.899 460.114 129.536C459.474 129.163 458.968 128.656 458.594 128.016C458.221 127.365 458.034 126.624 458.034 125.792C458.034 124.949 458.221 124.208 458.594 123.568C458.968 122.928 459.474 122.427 460.114 122.064C460.754 121.701 461.485 121.52 462.306 121.52C463.138 121.52 463.874 121.701 464.514 122.064C465.165 122.427 465.672 122.928 466.034 123.568C466.408 124.208 466.594 124.949 466.594 125.792C466.594 126.624 466.408 127.365 466.034 128.016C465.672 128.656 465.165 129.163 464.514 129.536C463.864 129.899 463.128 130.08 462.306 130.08ZM462.306 129.072C462.914 129.072 463.453 128.939 463.922 128.672C464.392 128.395 464.76 128.011 465.026 127.52C465.304 127.019 465.442 126.443 465.442 125.792C465.442 125.131 465.304 124.555 465.026 124.064C464.76 123.573 464.392 123.195 463.922 122.928C463.453 122.651 462.92 122.512 462.322 122.512C461.725 122.512 461.192 122.651 460.722 122.928C460.253 123.195 459.88 123.573 459.602 124.064C459.325 124.555 459.186 125.131 459.186 125.792C459.186 126.443 459.325 127.019 459.602 127.52C459.88 128.011 460.253 128.395 460.722 128.672C461.192 128.939 461.72 129.072 462.306 129.072Z" fill="#141414"/>
</svg>
