<svg width="708" height="102" viewBox="0 0 708 102" fill="none" xmlns="http://www.w3.org/2000/svg">
<path d="M2.262 25V6.8H5.746L13.494 19.644H11.648L19.266 6.8H22.75L22.776 25H18.824L18.798 12.858H19.552L13.442 23.076H11.57L5.33 12.858H6.214V25H2.262ZM41.3892 25V11.012H45.4192V25H41.3892ZM34.3432 15.484C36.1805 15.5013 37.5585 15.9173 38.4772 16.732C39.4132 17.5293 39.8812 18.6647 39.8812 20.138C39.8812 21.6807 39.3525 22.8853 38.2952 23.752C37.2378 24.6013 35.7385 25.026 33.7972 25.026L26.9852 25V11.012H31.0152V15.484H34.3432ZM33.4332 22.14C34.2132 22.1573 34.8112 21.9927 35.2272 21.646C35.6432 21.2993 35.8512 20.7793 35.8512 20.086C35.8512 19.3927 35.6432 18.8987 35.2272 18.604C34.8112 18.292 34.2132 18.1273 33.4332 18.11L31.0152 18.084V22.14H33.4332ZM63.3482 25.208C61.8402 25.208 60.4969 24.9047 59.3182 24.298C58.1395 23.674 57.2122 22.816 56.5362 21.724C55.8775 20.632 55.5482 19.3927 55.5482 18.006C55.5482 16.602 55.8775 15.3627 56.5362 14.288C57.2122 13.196 58.1395 12.3467 59.3182 11.74C60.4969 11.116 61.8402 10.804 63.3482 10.804C64.8215 10.804 66.1042 11.116 67.1962 11.74C68.2882 12.3467 69.0942 13.222 69.6142 14.366L66.4682 16.056C66.1042 15.3973 65.6449 14.912 65.0902 14.6C64.5529 14.288 63.9635 14.132 63.3222 14.132C62.6289 14.132 62.0049 14.288 61.4502 14.6C60.8955 14.912 60.4535 15.354 60.1242 15.926C59.8122 16.498 59.6562 17.1913 59.6562 18.006C59.6562 18.8207 59.8122 19.514 60.1242 20.086C60.4535 20.658 60.8955 21.1 61.4502 21.412C62.0049 21.724 62.6289 21.88 63.3222 21.88C63.9635 21.88 64.5529 21.7327 65.0902 21.438C65.6449 21.126 66.1042 20.632 66.4682 19.956L69.6142 21.672C69.0942 22.7987 68.2882 23.674 67.1962 24.298C66.1042 24.9047 64.8215 25.208 63.3482 25.208ZM78.4532 25.208C76.9625 25.208 75.6365 24.896 74.4752 24.272C73.3312 23.648 72.4212 22.7987 71.7452 21.724C71.0865 20.632 70.7572 19.3927 70.7572 18.006C70.7572 16.602 71.0865 15.3627 71.7452 14.288C72.4212 13.196 73.3312 12.3467 74.4752 11.74C75.6365 11.116 76.9625 10.804 78.4532 10.804C79.9265 10.804 81.2438 11.116 82.4052 11.74C83.5665 12.3467 84.4765 13.1873 85.1352 14.262C85.7938 15.3367 86.1232 16.5847 86.1232 18.006C86.1232 19.3927 85.7938 20.632 85.1352 21.724C84.4765 22.7987 83.5665 23.648 82.4052 24.272C81.2438 24.896 79.9265 25.208 78.4532 25.208ZM78.4532 21.88C79.1292 21.88 79.7358 21.724 80.2732 21.412C80.8105 21.1 81.2352 20.658 81.5472 20.086C81.8592 19.4967 82.0152 18.8033 82.0152 18.006C82.0152 17.1913 81.8592 16.498 81.5472 15.926C81.2352 15.354 80.8105 14.912 80.2732 14.6C79.7358 14.288 79.1292 14.132 78.4532 14.132C77.7772 14.132 77.1705 14.288 76.6332 14.6C76.0958 14.912 75.6625 15.354 75.3332 15.926C75.0212 16.498 74.8652 17.1913 74.8652 18.006C74.8652 18.8033 75.0212 19.4967 75.3332 20.086C75.6625 20.658 76.0958 21.1 76.6332 21.412C77.1705 21.724 77.7772 21.88 78.4532 21.88ZM95.8549 25.312C94.7109 25.312 93.6709 25.1473 92.7349 24.818C91.7989 24.4713 90.9842 23.9427 90.2909 23.232C89.6149 22.504 89.0862 21.5767 88.7049 20.45C88.3409 19.3233 88.1589 17.98 88.1589 16.42C88.1589 15.3107 88.2542 14.2967 88.4449 13.378C88.6356 12.4593 88.9216 11.6273 89.3029 10.882C89.6842 10.1193 90.1696 9.452 90.7589 8.88C91.3656 8.29067 92.0676 7.80533 92.8649 7.424C93.6796 7.02533 94.5982 6.722 95.6209 6.514L102.277 5.188L102.823 8.672L96.9469 9.842C96.6002 9.91133 96.2016 10.0067 95.7509 10.128C95.3176 10.232 94.8756 10.3967 94.4249 10.622C93.9916 10.8473 93.5842 11.168 93.2029 11.584C92.8389 11.9827 92.5442 12.5113 92.3189 13.17C92.0936 13.8113 91.9809 14.6087 91.9809 15.562C91.9809 15.8567 91.9896 16.082 92.0069 16.238C92.0416 16.394 92.0676 16.5587 92.0849 16.732C92.1196 16.9053 92.1369 17.174 92.1369 17.538L90.8369 16.264C91.2182 15.4493 91.7036 14.756 92.2929 14.184C92.8996 13.612 93.5929 13.1787 94.3729 12.884C95.1702 12.572 96.0542 12.416 97.0249 12.416C98.3422 12.416 99.4949 12.6847 100.483 13.222C101.488 13.742 102.268 14.4787 102.823 15.432C103.378 16.3853 103.655 17.4687 103.655 18.682C103.655 19.9993 103.326 21.1607 102.667 22.166C102.008 23.154 101.09 23.9253 99.9109 24.48C98.7496 25.0347 97.3976 25.312 95.8549 25.312ZM96.0629 22.166C96.7389 22.166 97.3369 22.0187 97.8569 21.724C98.3769 21.412 98.7756 21.0047 99.0529 20.502C99.3476 19.982 99.4949 19.4013 99.4949 18.76C99.4949 18.136 99.3476 17.5813 99.0529 17.096C98.7756 16.6107 98.3769 16.2293 97.8569 15.952C97.3369 15.6747 96.7302 15.536 96.0369 15.536C95.3609 15.536 94.7542 15.6747 94.2169 15.952C93.6796 16.212 93.2636 16.576 92.9689 17.044C92.6742 17.512 92.5269 18.058 92.5269 18.682C92.5269 19.3233 92.6742 19.9127 92.9689 20.45C93.2809 20.97 93.6969 21.386 94.2169 21.698C94.7542 22.01 95.3696 22.166 96.0629 22.166ZM114.649 25.208C113.47 25.208 112.439 24.948 111.555 24.428C110.671 23.908 109.978 23.1193 109.475 22.062C108.99 20.9873 108.747 19.6353 108.747 18.006C108.747 16.3593 108.981 15.0073 109.449 13.95C109.917 12.8927 110.593 12.104 111.477 11.584C112.361 11.064 113.418 10.804 114.649 10.804C115.966 10.804 117.145 11.1073 118.185 11.714C119.242 12.3033 120.074 13.1353 120.681 14.21C121.305 15.2847 121.617 16.55 121.617 18.006C121.617 19.4793 121.305 20.7533 120.681 21.828C120.074 22.9027 119.242 23.7347 118.185 24.324C117.145 24.9133 115.966 25.208 114.649 25.208ZM106.381 30.044V11.012H110.255V13.872L110.177 18.032L110.437 22.166V30.044H106.381ZM113.947 21.88C114.623 21.88 115.221 21.724 115.741 21.412C116.278 21.1 116.703 20.658 117.015 20.086C117.344 19.4967 117.509 18.8033 117.509 18.006C117.509 17.1913 117.344 16.498 117.015 15.926C116.703 15.354 116.278 14.912 115.741 14.6C115.221 14.288 114.623 14.132 113.947 14.132C113.271 14.132 112.664 14.288 112.127 14.6C111.59 14.912 111.165 15.354 110.853 15.926C110.541 16.498 110.385 17.1913 110.385 18.006C110.385 18.8033 110.541 19.4967 110.853 20.086C111.165 20.658 111.59 21.1 112.127 21.412C112.664 21.724 113.271 21.88 113.947 21.88ZM132.603 25V22.27L132.343 21.672V16.784C132.343 15.9173 132.075 15.2413 131.537 14.756C131.017 14.2707 130.211 14.028 129.119 14.028C128.374 14.028 127.637 14.1493 126.909 14.392C126.199 14.6173 125.592 14.9293 125.089 15.328L123.633 12.494C124.396 11.9567 125.315 11.5407 126.389 11.246C127.464 10.9513 128.556 10.804 129.665 10.804C131.797 10.804 133.453 11.3067 134.631 12.312C135.81 13.3173 136.399 14.886 136.399 17.018V25H132.603ZM128.339 25.208C127.247 25.208 126.311 25.026 125.531 24.662C124.751 24.2807 124.153 23.7693 123.737 23.128C123.321 22.4867 123.113 21.7673 123.113 20.97C123.113 20.138 123.313 19.41 123.711 18.786C124.127 18.162 124.777 17.6767 125.661 17.33C126.545 16.966 127.698 16.784 129.119 16.784H132.837V19.15H129.561C128.608 19.15 127.949 19.306 127.585 19.618C127.239 19.93 127.065 20.32 127.065 20.788C127.065 21.308 127.265 21.724 127.663 22.036C128.079 22.3307 128.643 22.478 129.353 22.478C130.029 22.478 130.636 22.322 131.173 22.01C131.711 21.6807 132.101 21.204 132.343 20.58L132.967 22.452C132.673 23.3533 132.135 24.038 131.355 24.506C130.575 24.974 129.57 25.208 128.339 25.208ZM138.155 24.974L138.363 21.646C138.467 21.6633 138.571 21.6807 138.675 21.698C138.779 21.698 138.874 21.698 138.961 21.698C139.446 21.698 139.827 21.5593 140.105 21.282C140.382 21.0047 140.59 20.632 140.729 20.164C140.867 19.6787 140.963 19.1327 141.015 18.526C141.084 17.9193 141.136 17.2867 141.171 16.628L141.379 11.012H153.339V25H149.283V13.352L150.193 14.34H144.057L144.915 13.3L144.733 16.81C144.681 18.058 144.577 19.202 144.421 20.242C144.282 21.282 144.048 22.1833 143.719 22.946C143.389 23.6913 142.947 24.272 142.393 24.688C141.838 25.0867 141.127 25.286 140.261 25.286C139.949 25.286 139.619 25.26 139.273 25.208C138.926 25.156 138.553 25.078 138.155 24.974ZM157.239 25V11.012H161.269V19.332L168.081 11.012H171.799V25H167.769V16.68L160.983 25H157.239ZM181.293 24.974L181.501 21.646C181.605 21.6633 181.709 21.6807 181.813 21.698C181.917 21.698 182.013 21.698 182.099 21.698C182.585 21.698 182.966 21.5593 183.243 21.282C183.521 21.0047 183.729 20.632 183.867 20.164C184.006 19.6787 184.101 19.1327 184.153 18.526C184.223 17.9193 184.275 17.2867 184.309 16.628L184.517 11.012H196.477V25H192.421V13.352L193.331 14.34H187.195L188.053 13.3L187.871 16.81C187.819 18.058 187.715 19.202 187.559 20.242C187.421 21.282 187.187 22.1833 186.857 22.946C186.528 23.6913 186.086 24.272 185.531 24.688C184.977 25.0867 184.266 25.286 183.399 25.286C183.087 25.286 182.758 25.26 182.411 25.208C182.065 25.156 181.692 25.078 181.293 24.974ZM202.276 30.252C201.548 30.252 200.828 30.1393 200.118 29.914C199.407 29.6887 198.826 29.3767 198.376 28.978L199.858 26.092C200.17 26.3693 200.525 26.586 200.924 26.742C201.34 26.898 201.747 26.976 202.146 26.976C202.718 26.976 203.168 26.8373 203.498 26.56C203.844 26.3 204.156 25.858 204.434 25.234L205.162 23.518L205.474 23.076L210.492 11.012H214.392L208.074 25.858C207.623 26.9847 207.103 27.8687 206.514 28.51C205.942 29.1513 205.3 29.602 204.59 29.862C203.896 30.122 203.125 30.252 202.276 30.252ZM204.668 25.546L198.428 11.012H202.614L207.45 22.712L204.668 25.546ZM225.162 19.644C224.59 19.956 223.958 20.2073 223.264 20.398C222.571 20.5887 221.808 20.684 220.976 20.684C219.139 20.684 217.726 20.268 216.738 19.436C215.75 18.5867 215.256 17.2433 215.256 15.406V11.012H219.312V15.146C219.312 16.0127 219.538 16.6367 219.988 17.018C220.439 17.382 221.072 17.564 221.886 17.564C222.476 17.564 223.039 17.4947 223.576 17.356C224.131 17.2173 224.66 17.018 225.162 16.758V19.644ZM224.876 25V11.012H228.932V25H224.876ZM242.369 21.672L241.485 22.608V11.012H245.541V22.608L244.605 21.672H251.053L250.143 22.608V11.012H254.173V25H232.827V11.012H236.857V22.608L235.947 21.672H242.369ZM258.065 25V11.012H262.095V19.332L268.907 11.012H272.625V25H268.595V16.68L261.809 25H258.065ZM283.362 25.208C281.768 25.208 280.364 24.896 279.15 24.272C277.954 23.648 277.027 22.7987 276.368 21.724C275.71 20.632 275.38 19.3927 275.38 18.006C275.38 16.602 275.701 15.3627 276.342 14.288C277.001 13.196 277.894 12.3467 279.02 11.74C280.147 11.116 281.421 10.804 282.842 10.804C284.212 10.804 285.442 11.0987 286.534 11.688C287.644 12.26 288.519 13.092 289.16 14.184C289.802 15.2587 290.122 16.55 290.122 18.058C290.122 18.214 290.114 18.396 290.096 18.604C290.079 18.7947 290.062 18.9767 290.044 19.15H278.682V16.784H287.912L286.352 17.486C286.352 16.758 286.205 16.1253 285.91 15.588C285.616 15.0507 285.208 14.6347 284.688 14.34C284.168 14.028 283.562 13.872 282.868 13.872C282.175 13.872 281.56 14.028 281.022 14.34C280.502 14.6347 280.095 15.0593 279.8 15.614C279.506 16.1513 279.358 16.7927 279.358 17.538V18.162C279.358 18.9247 279.523 19.6007 279.852 20.19C280.199 20.762 280.676 21.204 281.282 21.516C281.906 21.8107 282.634 21.958 283.466 21.958C284.212 21.958 284.862 21.8453 285.416 21.62C285.988 21.3947 286.508 21.0567 286.976 20.606L289.134 22.946C288.493 23.674 287.687 24.2373 286.716 24.636C285.746 25.0173 284.628 25.208 283.362 25.208ZM308.837 25.208C307.658 25.208 306.627 24.948 305.743 24.428C304.859 23.908 304.165 23.1193 303.663 22.062C303.177 20.9873 302.935 19.6353 302.935 18.006C302.935 16.3593 303.169 15.0073 303.637 13.95C304.105 12.8927 304.781 12.104 305.665 11.584C306.549 11.064 307.606 10.804 308.837 10.804C310.154 10.804 311.333 11.1073 312.373 11.714C313.43 12.3033 314.262 13.1353 314.869 14.21C315.493 15.2847 315.805 16.55 315.805 18.006C315.805 19.4793 315.493 20.7533 314.869 21.828C314.262 22.9027 313.43 23.7347 312.373 24.324C311.333 24.9133 310.154 25.208 308.837 25.208ZM300.569 30.044V11.012H304.443V13.872L304.365 18.032L304.625 22.166V30.044H300.569ZM308.135 21.88C308.811 21.88 309.409 21.724 309.929 21.412C310.466 21.1 310.891 20.658 311.203 20.086C311.532 19.4967 311.697 18.8033 311.697 18.006C311.697 17.1913 311.532 16.498 311.203 15.926C310.891 15.354 310.466 14.912 309.929 14.6C309.409 14.288 308.811 14.132 308.135 14.132C307.459 14.132 306.852 14.288 306.315 14.6C305.777 14.912 305.353 15.354 305.041 15.926C304.729 16.498 304.573 17.1913 304.573 18.006C304.573 18.8033 304.729 19.4967 305.041 20.086C305.353 20.658 305.777 21.1 306.315 21.412C306.852 21.724 307.459 21.88 308.135 21.88ZM325.485 25.208C323.891 25.208 322.487 24.896 321.273 24.272C320.077 23.648 319.15 22.7987 318.491 21.724C317.833 20.632 317.503 19.3927 317.503 18.006C317.503 16.602 317.824 15.3627 318.465 14.288C319.124 13.196 320.017 12.3467 321.143 11.74C322.27 11.116 323.544 10.804 324.965 10.804C326.335 10.804 327.565 11.0987 328.657 11.688C329.767 12.26 330.642 13.092 331.283 14.184C331.925 15.2587 332.245 16.55 332.245 18.058C332.245 18.214 332.237 18.396 332.219 18.604C332.202 18.7947 332.185 18.9767 332.167 19.15H320.805V16.784H330.035L328.475 17.486C328.475 16.758 328.328 16.1253 328.033 15.588C327.739 15.0507 327.331 14.6347 326.811 14.34C326.291 14.028 325.685 13.872 324.991 13.872C324.298 13.872 323.683 14.028 323.145 14.34C322.625 14.6347 322.218 15.0593 321.923 15.614C321.629 16.1513 321.481 16.7927 321.481 17.538V18.162C321.481 18.9247 321.646 19.6007 321.975 20.19C322.322 20.762 322.799 21.204 323.405 21.516C324.029 21.8107 324.757 21.958 325.589 21.958C326.335 21.958 326.985 21.8453 327.539 21.62C328.111 21.3947 328.631 21.0567 329.099 20.606L331.257 22.946C330.616 23.674 329.81 24.2373 328.839 24.636C327.869 25.0173 326.751 25.208 325.485 25.208ZM344.896 21.672L344.012 22.608V11.012H348.068V22.608L347.132 21.672H353.58L352.67 22.608V11.012H356.7V25H335.354V11.012H339.384V22.608L338.474 21.672H344.896ZM367.431 25.208C365.836 25.208 364.432 24.896 363.219 24.272C362.023 23.648 361.095 22.7987 360.437 21.724C359.778 20.632 359.449 19.3927 359.449 18.006C359.449 16.602 359.769 15.3627 360.411 14.288C361.069 13.196 361.962 12.3467 363.089 11.74C364.215 11.116 365.489 10.804 366.911 10.804C368.28 10.804 369.511 11.0987 370.603 11.688C371.712 12.26 372.587 13.092 373.229 14.184C373.87 15.2587 374.191 16.55 374.191 18.058C374.191 18.214 374.182 18.396 374.165 18.604C374.147 18.7947 374.13 18.9767 374.113 19.15H362.751V16.784H371.981L370.421 17.486C370.421 16.758 370.273 16.1253 369.979 15.588C369.684 15.0507 369.277 14.6347 368.757 14.34C368.237 14.028 367.63 13.872 366.937 13.872C366.243 13.872 365.628 14.028 365.091 14.34C364.571 14.6347 364.163 15.0593 363.869 15.614C363.574 16.1513 363.427 16.7927 363.427 17.538V18.162C363.427 18.9247 363.591 19.6007 363.921 20.19C364.267 20.762 364.744 21.204 365.351 21.516C365.975 21.8107 366.703 21.958 367.535 21.958C368.28 21.958 368.93 21.8453 369.485 21.62C370.057 21.3947 370.577 21.0567 371.045 20.606L373.203 22.946C372.561 23.674 371.755 24.2373 370.785 24.636C369.814 25.0173 368.696 25.208 367.431 25.208ZM377.3 25V11.012H381.33V16.472H387.414V11.012H391.47V25H387.414V19.774H381.33V25H377.3ZM395.352 25V11.012H399.382V19.332L406.194 11.012H409.912V25H405.882V16.68L399.096 25H395.352ZM422.625 25V20.346L423.197 20.996H419.323C417.313 20.996 415.735 20.58 414.591 19.748C413.447 18.916 412.875 17.72 412.875 16.16C412.875 14.496 413.473 13.222 414.669 12.338C415.883 11.454 417.512 11.012 419.557 11.012H426.239V25H422.625ZM412.667 25L416.385 19.67H420.519L416.983 25H412.667ZM422.625 19.098V13.274L423.197 14.314H419.635C418.803 14.314 418.153 14.47 417.685 14.782C417.235 15.094 417.009 15.5967 417.009 16.29C417.009 17.6247 417.867 18.292 419.583 18.292H423.197L422.625 19.098ZM437.501 25V11.012H451.411V25H447.355V13.43L448.265 14.34H440.621L441.531 13.43V25H437.501ZM461.852 25.208C460.361 25.208 459.035 24.896 457.874 24.272C456.73 23.648 455.82 22.7987 455.144 21.724C454.485 20.632 454.156 19.3927 454.156 18.006C454.156 16.602 454.485 15.3627 455.144 14.288C455.82 13.196 456.73 12.3467 457.874 11.74C459.035 11.116 460.361 10.804 461.852 10.804C463.325 10.804 464.642 11.116 465.804 11.74C466.965 12.3467 467.875 13.1873 468.534 14.262C469.192 15.3367 469.522 16.5847 469.522 18.006C469.522 19.3927 469.192 20.632 468.534 21.724C467.875 22.7987 466.965 23.648 465.804 24.272C464.642 24.896 463.325 25.208 461.852 25.208ZM461.852 21.88C462.528 21.88 463.134 21.724 463.672 21.412C464.209 21.1 464.634 20.658 464.946 20.086C465.258 19.4967 465.414 18.8033 465.414 18.006C465.414 17.1913 465.258 16.498 464.946 15.926C464.634 15.354 464.209 14.912 463.672 14.6C463.134 14.288 462.528 14.132 461.852 14.132C461.176 14.132 460.569 14.288 460.032 14.6C459.494 14.912 459.061 15.354 458.732 15.926C458.42 16.498 458.264 17.1913 458.264 18.006C458.264 18.8033 458.42 19.4967 458.732 20.086C459.061 20.658 459.494 21.1 460.032 21.412C460.569 21.724 461.176 21.88 461.852 21.88ZM486.331 25.208C484.823 25.208 483.479 24.9047 482.301 24.298C481.122 23.674 480.195 22.816 479.519 21.724C478.86 20.632 478.531 19.3927 478.531 18.006C478.531 16.602 478.86 15.3627 479.519 14.288C480.195 13.196 481.122 12.3467 482.301 11.74C483.479 11.116 484.823 10.804 486.331 10.804C487.804 10.804 489.087 11.116 490.179 11.74C491.271 12.3467 492.077 13.222 492.597 14.366L489.451 16.056C489.087 15.3973 488.627 14.912 488.073 14.6C487.535 14.288 486.946 14.132 486.305 14.132C485.611 14.132 484.987 14.288 484.433 14.6C483.878 14.912 483.436 15.354 483.107 15.926C482.795 16.498 482.639 17.1913 482.639 18.006C482.639 18.8207 482.795 19.514 483.107 20.086C483.436 20.658 483.878 21.1 484.433 21.412C484.987 21.724 485.611 21.88 486.305 21.88C486.946 21.88 487.535 21.7327 488.073 21.438C488.627 21.126 489.087 20.632 489.451 19.956L492.597 21.672C492.077 22.7987 491.271 23.674 490.179 24.298C489.087 24.9047 487.804 25.208 486.331 25.208ZM498.026 25V13.404L498.936 14.34H493.294V11.012H506.788V14.34H501.146L502.056 13.404V25H498.026ZM508.95 25V11.012H512.98V19.332L519.792 11.012H523.51V25H519.48V16.68L512.694 25H508.95ZM525.641 24.974L525.849 21.646C525.953 21.6633 526.057 21.6807 526.161 21.698C526.265 21.698 526.36 21.698 526.447 21.698C526.932 21.698 527.314 21.5593 527.591 21.282C527.868 21.0047 528.076 20.632 528.215 20.164C528.354 19.6787 528.449 19.1327 528.501 18.526C528.57 17.9193 528.622 17.2867 528.657 16.628L528.865 11.012H540.825V25H536.769V13.352L537.679 14.34H531.543L532.401 13.3L532.219 16.81C532.167 18.058 532.063 19.202 531.907 20.242C531.768 21.282 531.534 22.1833 531.205 22.946C530.876 23.6913 530.434 24.272 529.879 24.688C529.324 25.0867 528.614 25.286 527.747 25.286C527.435 25.286 527.106 25.26 526.759 25.208C526.412 25.156 526.04 25.078 525.641 24.974ZM544.725 25V11.012H548.755V16.16H552.863V19.67H548.755V25H544.725ZM557.959 25.208C556.521 25.208 555.238 24.896 554.111 24.272C552.985 23.648 552.101 22.7987 551.459 21.724C550.818 20.632 550.497 19.3927 550.497 18.006C550.497 16.602 550.818 15.3627 551.459 14.288C552.101 13.196 552.985 12.3467 554.111 11.74C555.238 11.116 556.521 10.804 557.959 10.804C559.398 10.804 560.672 11.116 561.781 11.74C562.908 12.3467 563.792 13.196 564.433 14.288C565.075 15.3627 565.395 16.602 565.395 18.006C565.395 19.3927 565.075 20.632 564.433 21.724C563.792 22.816 562.908 23.674 561.781 24.298C560.672 24.9047 559.398 25.208 557.959 25.208ZM557.959 21.88C558.618 21.88 559.199 21.724 559.701 21.412C560.221 21.1 560.629 20.658 560.923 20.086C561.235 19.4967 561.391 18.8033 561.391 18.006C561.391 17.1913 561.235 16.498 560.923 15.926C560.629 15.354 560.221 14.912 559.701 14.6C559.199 14.288 558.618 14.132 557.959 14.132C557.318 14.132 556.729 14.288 556.191 14.6C555.671 14.912 555.255 15.354 554.943 15.926C554.649 16.498 554.501 17.1913 554.501 18.006C554.501 18.8033 554.649 19.4967 554.943 20.086C555.255 20.658 555.671 21.1 556.191 21.412C556.729 21.724 557.318 21.88 557.959 21.88ZM567.279 29.004L568.995 22.764L569.567 25.104C568.822 25.104 568.207 24.8873 567.721 24.454C567.253 24.0207 567.019 23.4227 567.019 22.66C567.019 21.8973 567.262 21.2907 567.747 20.84C568.233 20.3893 568.831 20.164 569.541 20.164C570.269 20.164 570.867 20.398 571.335 20.866C571.803 21.3167 572.037 21.9147 572.037 22.66C572.037 22.8853 572.02 23.1107 571.985 23.336C571.951 23.544 571.881 23.804 571.777 24.116C571.691 24.4107 571.543 24.792 571.335 25.26L569.853 29.004H567.279ZM1.95 57V43.012H6.188L11.466 52.58H9.776L15.418 43.012H19.214L19.266 57H15.6V47.172L16.224 47.588L11.414 55.648H9.698L4.862 47.302L5.616 47.12V57H1.95ZM31.5232 57V54.27L31.2632 53.672V48.784C31.2632 47.9173 30.9945 47.2413 30.4572 46.756C29.9372 46.2707 29.1312 46.028 28.0392 46.028C27.2938 46.028 26.5572 46.1493 25.8292 46.392C25.1185 46.6173 24.5118 46.9293 24.0092 47.328L22.5532 44.494C23.3158 43.9567 24.2345 43.5407 25.3092 43.246C26.3838 42.9513 27.4758 42.804 28.5852 42.804C30.7172 42.804 32.3725 43.3067 33.5512 44.312C34.7298 45.3173 35.3192 46.886 35.3192 49.018V57H31.5232ZM27.2592 57.208C26.1672 57.208 25.2312 57.026 24.4512 56.662C23.6712 56.2807 23.0732 55.7693 22.6572 55.128C22.2412 54.4867 22.0332 53.7673 22.0332 52.97C22.0332 52.138 22.2325 51.41 22.6312 50.786C23.0472 50.162 23.6972 49.6767 24.5812 49.33C25.4652 48.966 26.6178 48.784 28.0392 48.784H31.7572V51.15H28.4812C27.5278 51.15 26.8692 51.306 26.5052 51.618C26.1585 51.93 25.9852 52.32 25.9852 52.788C25.9852 53.308 26.1845 53.724 26.5832 54.036C26.9992 54.3307 27.5625 54.478 28.2732 54.478C28.9492 54.478 29.5558 54.322 30.0932 54.01C30.6305 53.6807 31.0205 53.204 31.2632 52.58L31.8872 54.452C31.5925 55.3533 31.0552 56.038 30.2752 56.506C29.4952 56.974 28.4898 57.208 27.2592 57.208ZM41.8326 57V45.404L42.7426 46.34H37.1006V43.012H50.5946V46.34H44.9526L45.8626 45.404V57H41.8326ZM59.0107 57.208C57.416 57.208 56.012 56.896 54.7987 56.272C53.6027 55.648 52.6753 54.7987 52.0167 53.724C51.358 52.632 51.0287 51.3927 51.0287 50.006C51.0287 48.602 51.3493 47.3627 51.9907 46.288C52.6493 45.196 53.542 44.3467 54.6687 43.74C55.7953 43.116 57.0693 42.804 58.4907 42.804C59.86 42.804 61.0907 43.0987 62.1827 43.688C63.292 44.26 64.1673 45.092 64.8087 46.184C65.45 47.2587 65.7707 48.55 65.7707 50.058C65.7707 50.214 65.762 50.396 65.7447 50.604C65.7273 50.7947 65.71 50.9767 65.6927 51.15H54.3307V48.784H63.5607L62.0007 49.486C62.0007 48.758 61.8533 48.1253 61.5587 47.588C61.264 47.0507 60.8567 46.6347 60.3367 46.34C59.8167 46.028 59.21 45.872 58.5167 45.872C57.8233 45.872 57.208 46.028 56.6707 46.34C56.1507 46.6347 55.7433 47.0593 55.4487 47.614C55.154 48.1513 55.0067 48.7927 55.0067 49.538V50.162C55.0067 50.9247 55.1713 51.6007 55.5007 52.19C55.8473 52.762 56.324 53.204 56.9307 53.516C57.5547 53.8107 58.2827 53.958 59.1147 53.958C59.86 53.958 60.51 53.8453 61.0647 53.62C61.6367 53.3947 62.1567 53.0567 62.6247 52.606L64.7827 54.946C64.1413 55.674 63.3353 56.2373 62.3647 56.636C61.394 57.0173 60.276 57.208 59.0107 57.208ZM77.1217 57.208C75.943 57.208 74.9117 56.948 74.0277 56.428C73.1437 55.908 72.4504 55.1193 71.9477 54.062C71.4624 52.9873 71.2197 51.6353 71.2197 50.006C71.2197 48.3593 71.4537 47.0073 71.9217 45.95C72.3897 44.8927 73.0657 44.104 73.9497 43.584C74.8337 43.064 75.891 42.804 77.1217 42.804C78.439 42.804 79.6177 43.1073 80.6577 43.714C81.715 44.3033 82.547 45.1353 83.1537 46.21C83.7777 47.2847 84.0897 48.55 84.0897 50.006C84.0897 51.4793 83.7777 52.7533 83.1537 53.828C82.547 54.9027 81.715 55.7347 80.6577 56.324C79.6177 56.9133 78.439 57.208 77.1217 57.208ZM68.8537 62.044V43.012H72.7277V45.872L72.6497 50.032L72.9097 54.166V62.044H68.8537ZM76.4197 53.88C77.0957 53.88 77.6937 53.724 78.2137 53.412C78.751 53.1 79.1757 52.658 79.4877 52.086C79.817 51.4967 79.9817 50.8033 79.9817 50.006C79.9817 49.1913 79.817 48.498 79.4877 47.926C79.1757 47.354 78.751 46.912 78.2137 46.6C77.6937 46.288 77.0957 46.132 76.4197 46.132C75.7437 46.132 75.137 46.288 74.5997 46.6C74.0624 46.912 73.6377 47.354 73.3257 47.926C73.0137 48.498 72.8577 49.1913 72.8577 50.006C72.8577 50.8033 73.0137 51.4967 73.3257 52.086C73.6377 52.658 74.0624 53.1 74.5997 53.412C75.137 53.724 75.7437 53.88 76.4197 53.88ZM86.9324 57V43.012H90.9624V51.332L97.7744 43.012H101.492V57H97.4624V48.68L90.6764 57H86.9324ZM113.763 57V54.27L113.503 53.672V48.784C113.503 47.9173 113.235 47.2413 112.697 46.756C112.177 46.2707 111.371 46.028 110.279 46.028C109.534 46.028 108.797 46.1493 108.069 46.392C107.359 46.6173 106.752 46.9293 106.249 47.328L104.793 44.494C105.556 43.9567 106.475 43.5407 107.549 43.246C108.624 42.9513 109.716 42.804 110.825 42.804C112.957 42.804 114.613 43.3067 115.791 44.312C116.97 45.3173 117.559 46.886 117.559 49.018V57H113.763ZM109.499 57.208C108.407 57.208 107.471 57.026 106.691 56.662C105.911 56.2807 105.313 55.7693 104.897 55.128C104.481 54.4867 104.273 53.7673 104.273 52.97C104.273 52.138 104.473 51.41 104.871 50.786C105.287 50.162 105.937 49.6767 106.821 49.33C107.705 48.966 108.858 48.784 110.279 48.784H113.997V51.15H110.721C109.768 51.15 109.109 51.306 108.745 51.618C108.399 51.93 108.225 52.32 108.225 52.788C108.225 53.308 108.425 53.724 108.823 54.036C109.239 54.3307 109.803 54.478 110.513 54.478C111.189 54.478 111.796 54.322 112.333 54.01C112.871 53.6807 113.261 53.204 113.503 52.58L114.127 54.452C113.833 55.3533 113.295 56.038 112.515 56.506C111.735 56.974 110.73 57.208 109.499 57.208ZM119.315 56.974L119.523 53.646C119.627 53.6633 119.731 53.6807 119.835 53.698C119.939 53.698 120.034 53.698 120.121 53.698C120.606 53.698 120.987 53.5593 121.265 53.282C121.542 53.0047 121.75 52.632 121.889 52.164C122.027 51.6787 122.123 51.1327 122.175 50.526C122.244 49.9193 122.296 49.2867 122.331 48.628L122.539 43.012H134.499V57H130.443V45.352L131.353 46.34H125.217L126.075 45.3L125.893 48.81C125.841 50.058 125.737 51.202 125.581 52.242C125.442 53.282 125.208 54.1833 124.879 54.946C124.549 55.6913 124.107 56.272 123.553 56.688C122.998 57.0867 122.287 57.286 121.421 57.286C121.109 57.286 120.779 57.26 120.433 57.208C120.086 57.156 119.713 57.078 119.315 56.974ZM146.771 57V54.27L146.511 53.672V48.784C146.511 47.9173 146.243 47.2413 145.705 46.756C145.185 46.2707 144.379 46.028 143.287 46.028C142.542 46.028 141.805 46.1493 141.077 46.392C140.367 46.6173 139.76 46.9293 139.257 47.328L137.801 44.494C138.564 43.9567 139.483 43.5407 140.557 43.246C141.632 42.9513 142.724 42.804 143.833 42.804C145.965 42.804 147.621 43.3067 148.799 44.312C149.978 45.3173 150.567 46.886 150.567 49.018V57H146.771ZM142.507 57.208C141.415 57.208 140.479 57.026 139.699 56.662C138.919 56.2807 138.321 55.7693 137.905 55.128C137.489 54.4867 137.281 53.7673 137.281 52.97C137.281 52.138 137.481 51.41 137.879 50.786C138.295 50.162 138.945 49.6767 139.829 49.33C140.713 48.966 141.866 48.784 143.287 48.784H147.005V51.15H143.729C142.776 51.15 142.117 51.306 141.753 51.618C141.407 51.93 141.233 52.32 141.233 52.788C141.233 53.308 141.433 53.724 141.831 54.036C142.247 54.3307 142.811 54.478 143.521 54.478C144.197 54.478 144.804 54.322 145.341 54.01C145.879 53.6807 146.269 53.204 146.511 52.58L147.135 54.452C146.841 55.3533 146.303 56.038 145.523 56.506C144.743 56.974 143.738 57.208 142.507 57.208ZM154.091 57V43.012H158.329L163.607 52.58H161.917L167.559 43.012H171.355L171.407 57H167.741V47.172L168.365 47.588L163.555 55.648H161.839L157.003 47.302L157.757 47.12V57H154.091ZM182.655 57V43.012H186.685V51.332L193.497 43.012H197.215V57H193.185V48.68L186.399 57H182.655ZM211.467 57V45.404L212.377 46.34H206.735V43.012H220.229V46.34H214.587L215.497 45.404V57H211.467ZM230.633 57.208C229.455 57.208 228.423 56.948 227.539 56.428C226.655 55.908 225.962 55.1193 225.459 54.062C224.974 52.9873 224.731 51.6353 224.731 50.006C224.731 48.3593 224.965 47.0073 225.433 45.95C225.901 44.8927 226.577 44.104 227.461 43.584C228.345 43.064 229.403 42.804 230.633 42.804C231.951 42.804 233.129 43.1073 234.169 43.714C235.227 44.3033 236.059 45.1353 236.665 46.21C237.289 47.2847 237.601 48.55 237.601 50.006C237.601 51.4793 237.289 52.7533 236.665 53.828C236.059 54.9027 235.227 55.7347 234.169 56.324C233.129 56.9133 231.951 57.208 230.633 57.208ZM222.365 62.044V43.012H226.239V45.872L226.161 50.032L226.421 54.166V62.044H222.365ZM229.931 53.88C230.607 53.88 231.205 53.724 231.725 53.412C232.263 53.1 232.687 52.658 232.999 52.086C233.329 51.4967 233.493 50.8033 233.493 50.006C233.493 49.1913 233.329 48.498 232.999 47.926C232.687 47.354 232.263 46.912 231.725 46.6C231.205 46.288 230.607 46.132 229.931 46.132C229.255 46.132 228.649 46.288 228.111 46.6C227.574 46.912 227.149 47.354 226.837 47.926C226.525 48.498 226.369 49.1913 226.369 50.006C226.369 50.8033 226.525 51.4967 226.837 52.086C227.149 52.658 227.574 53.1 228.111 53.412C228.649 53.724 229.255 53.88 229.931 53.88ZM247.282 57.208C245.687 57.208 244.283 56.896 243.07 56.272C241.874 55.648 240.947 54.7987 240.288 53.724C239.629 52.632 239.3 51.3927 239.3 50.006C239.3 48.602 239.621 47.3627 240.262 46.288C240.921 45.196 241.813 44.3467 242.94 43.74C244.067 43.116 245.341 42.804 246.762 42.804C248.131 42.804 249.362 43.0987 250.454 43.688C251.563 44.26 252.439 45.092 253.08 46.184C253.721 47.2587 254.042 48.55 254.042 50.058C254.042 50.214 254.033 50.396 254.016 50.604C253.999 50.7947 253.981 50.9767 253.964 51.15H242.602V48.784H251.832L250.272 49.486C250.272 48.758 250.125 48.1253 249.83 47.588C249.535 47.0507 249.128 46.6347 248.608 46.34C248.088 46.028 247.481 45.872 246.788 45.872C246.095 45.872 245.479 46.028 244.942 46.34C244.422 46.6347 244.015 47.0593 243.72 47.614C243.425 48.1513 243.278 48.7927 243.278 49.538V50.162C243.278 50.9247 243.443 51.6007 243.772 52.19C244.119 52.762 244.595 53.204 245.202 53.516C245.826 53.8107 246.554 53.958 247.386 53.958C248.131 53.958 248.781 53.8453 249.336 53.62C249.908 53.3947 250.428 53.0567 250.896 52.606L253.054 54.946C252.413 55.674 251.607 56.2373 250.636 56.636C249.665 57.0173 248.547 57.208 247.282 57.208ZM257.151 57V43.012H261.181V48.472H267.265V43.012H271.321V57H267.265V51.774H261.181V57H257.151ZM284.824 55.18V46.34H280.248L280.17 48.134C280.135 48.8793 280.092 49.59 280.04 50.266C279.988 50.942 279.884 51.5573 279.728 52.112C279.589 52.6493 279.381 53.1087 279.104 53.49C278.827 53.854 278.454 54.1053 277.986 54.244L273.982 53.672C274.485 53.672 274.892 53.5247 275.204 53.23C275.516 52.918 275.759 52.4933 275.932 51.956C276.105 51.4013 276.235 50.7773 276.322 50.084C276.409 49.3733 276.469 48.628 276.504 47.848L276.686 43.012H288.88V55.18H284.824ZM273.514 60.016V53.672H290.882V60.016H287.112V57H277.284V60.016H273.514ZM301.806 57V54.27L301.546 53.672V48.784C301.546 47.9173 301.278 47.2413 300.74 46.756C300.22 46.2707 299.414 46.028 298.322 46.028C297.577 46.028 296.84 46.1493 296.112 46.392C295.402 46.6173 294.795 46.9293 294.292 47.328L292.836 44.494C293.599 43.9567 294.518 43.5407 295.592 43.246C296.667 42.9513 297.759 42.804 298.868 42.804C301 42.804 302.656 43.3067 303.834 44.312C305.013 45.3173 305.602 46.886 305.602 49.018V57H301.806ZM297.542 57.208C296.45 57.208 295.514 57.026 294.734 56.662C293.954 56.2807 293.356 55.7693 292.94 55.128C292.524 54.4867 292.316 53.7673 292.316 52.97C292.316 52.138 292.516 51.41 292.914 50.786C293.33 50.162 293.98 49.6767 294.864 49.33C295.748 48.966 296.901 48.784 298.322 48.784H302.04V51.15H298.764C297.811 51.15 297.152 51.306 296.788 51.618C296.442 51.93 296.268 52.32 296.268 52.788C296.268 53.308 296.468 53.724 296.866 54.036C297.282 54.3307 297.846 54.478 298.556 54.478C299.232 54.478 299.839 54.322 300.376 54.01C300.914 53.6807 301.304 53.204 301.546 52.58L302.17 54.452C301.876 55.3533 301.338 56.038 300.558 56.506C299.778 56.974 298.773 57.208 297.542 57.208ZM309.126 57V43.012H313.364L318.642 52.58H316.952L322.594 43.012H326.39L326.442 57H322.776V47.172L323.4 47.588L318.59 55.648H316.874L312.038 47.302L312.792 47.12V57H309.126Z" fill="#141414"/>
<path d="M8.82 86.2H9.842V96H8.82V86.2ZM2.688 96H1.652V86.2H2.688V96ZM8.918 91.478H2.576V90.568H8.918V91.478ZM17.476 96V94.376L17.434 94.11V91.394C17.434 90.7687 17.2567 90.288 16.902 89.952C16.5567 89.616 16.0387 89.448 15.348 89.448C14.872 89.448 14.4194 89.5273 13.99 89.686C13.5607 89.8447 13.1967 90.0547 12.898 90.316L12.45 89.574C12.8234 89.2567 13.2714 89.014 13.794 88.846C14.3167 88.6687 14.8674 88.58 15.446 88.58C16.398 88.58 17.1307 88.818 17.644 89.294C18.1667 89.7607 18.428 90.4747 18.428 91.436V96H17.476ZM14.942 96.07C14.3914 96.07 13.9107 95.9813 13.5 95.804C13.0987 95.6173 12.7907 95.3653 12.576 95.048C12.3614 94.7213 12.254 94.348 12.254 93.928C12.254 93.5453 12.3427 93.2 12.52 92.892C12.7067 92.5747 13.0054 92.3227 13.416 92.136C13.836 91.94 14.396 91.842 15.096 91.842H17.63V92.584H15.124C14.4147 92.584 13.92 92.71 13.64 92.962C13.3694 93.214 13.234 93.5267 13.234 93.9C13.234 94.32 13.3974 94.656 13.724 94.908C14.0507 95.16 14.508 95.286 15.096 95.286C15.656 95.286 16.1367 95.16 16.538 94.908C16.9487 94.6467 17.2474 94.2733 17.434 93.788L17.658 94.474C17.4714 94.9593 17.1447 95.3467 16.678 95.636C16.2207 95.9253 15.642 96.07 14.942 96.07ZM21.0742 96V88.65H22.0682V94.488L26.9822 88.65H27.8642V96H26.8702V90.148L21.9702 96H21.0742ZM24.4062 87.586C23.7902 87.586 23.2908 87.432 22.9082 87.124C22.5348 86.8067 22.3388 86.354 22.3202 85.766H23.0342C23.0435 86.1393 23.1742 86.4333 23.4262 86.648C23.6782 86.8627 24.0048 86.97 24.4062 86.97C24.8075 86.97 25.1342 86.8627 25.3862 86.648C25.6475 86.4333 25.7828 86.1393 25.7922 85.766H26.5062C26.4968 86.354 26.3008 86.8067 25.9182 87.124C25.5355 87.432 25.0315 87.586 24.4062 87.586ZM35.7528 95.524V89.518H32.2108L32.1268 91.156C32.1082 91.6507 32.0755 92.136 32.0288 92.612C31.9915 93.088 31.9215 93.5267 31.8188 93.928C31.7255 94.32 31.5902 94.642 31.4128 94.894C31.2355 95.1367 31.0068 95.2767 30.7268 95.314L29.7328 95.132C30.0222 95.1413 30.2602 95.0387 30.4468 94.824C30.6335 94.6 30.7782 94.2967 30.8808 93.914C30.9835 93.5313 31.0582 93.0973 31.1048 92.612C31.1515 92.1173 31.1888 91.6133 31.2168 91.1L31.3148 88.65H36.7468V95.524H35.7528ZM29.4248 97.778V95.132H37.8948V97.778H36.9568V96H30.3628V97.778H29.4248ZM39.832 96V88.65H40.826V94.488L45.74 88.65H46.622V96H45.628V90.148L40.728 96H39.832ZM50.8706 96V89.252L51.1226 89.518H48.0846V88.65H54.6506V89.518H51.6126L51.8646 89.252V96H50.8706ZM58.896 96.07C58.1307 96.07 57.4587 95.9113 56.88 95.594C56.3014 95.2673 55.8487 94.824 55.522 94.264C55.1954 93.6947 55.032 93.046 55.032 92.318C55.032 91.59 55.186 90.946 55.494 90.386C55.8114 89.826 56.2407 89.3873 56.782 89.07C57.3327 88.7433 57.9487 88.58 58.63 88.58C59.3207 88.58 59.932 88.7387 60.464 89.056C61.0054 89.364 61.43 89.8027 61.738 90.372C62.046 90.932 62.2 91.5807 62.2 92.318C62.2 92.3647 62.1954 92.416 62.186 92.472C62.186 92.5187 62.186 92.57 62.186 92.626H55.788V91.884H61.654L61.262 92.178C61.262 91.646 61.1454 91.1747 60.912 90.764C60.688 90.344 60.38 90.0173 59.988 89.784C59.596 89.5507 59.1434 89.434 58.63 89.434C58.126 89.434 57.6734 89.5507 57.272 89.784C56.8707 90.0173 56.558 90.344 56.334 90.764C56.11 91.184 55.998 91.6647 55.998 92.206V92.36C55.998 92.92 56.1194 93.4147 56.362 93.844C56.614 94.264 56.9594 94.5953 57.398 94.838C57.846 95.0713 58.3547 95.188 58.924 95.188C59.372 95.188 59.7874 95.1087 60.17 94.95C60.562 94.7913 60.898 94.5487 61.178 94.222L61.738 94.866C61.4114 95.258 61.0007 95.5567 60.506 95.762C60.0207 95.9673 59.484 96.07 58.896 96.07ZM71.1444 96.07C70.4164 96.07 69.7631 95.9113 69.1844 95.594C68.6151 95.2673 68.1671 94.824 67.8404 94.264C67.5137 93.6947 67.3504 93.046 67.3504 92.318C67.3504 91.5807 67.5137 90.932 67.8404 90.372C68.1671 89.812 68.6151 89.3733 69.1844 89.056C69.7631 88.7387 70.4164 88.58 71.1444 88.58C71.7697 88.58 72.3344 88.7013 72.8384 88.944C73.3424 89.1867 73.7391 89.5507 74.0284 90.036L73.2864 90.54C73.0344 90.1667 72.7217 89.8913 72.3484 89.714C71.9751 89.5367 71.5691 89.448 71.1304 89.448C70.6077 89.448 70.1364 89.5693 69.7164 89.812C69.2964 90.0453 68.9651 90.3767 68.7224 90.806C68.4797 91.2353 68.3584 91.7393 68.3584 92.318C68.3584 92.8967 68.4797 93.4007 68.7224 93.83C68.9651 94.2593 69.2964 94.5953 69.7164 94.838C70.1364 95.0713 70.6077 95.188 71.1304 95.188C71.5691 95.188 71.9751 95.0993 72.3484 94.922C72.7217 94.7447 73.0344 94.474 73.2864 94.11L74.0284 94.614C73.7391 95.09 73.3424 95.454 72.8384 95.706C72.3344 95.9487 71.7697 96.07 71.1444 96.07ZM77.2163 96V89.252L77.4683 89.518H74.4303V88.65H80.9963V89.518H77.9583L78.2103 89.252V96H77.2163ZM82.4335 96V88.65H83.4275V94.488L88.3415 88.65H89.2235V96H88.2295V90.148L83.3295 96H82.4335ZM90.7282 95.986L90.7982 95.132C90.8635 95.1413 90.9242 95.1553 90.9802 95.174C91.0455 95.1833 91.1015 95.188 91.1482 95.188C91.4469 95.188 91.6849 95.076 91.8622 94.852C92.0489 94.628 92.1889 94.3293 92.2822 93.956C92.3755 93.5827 92.4409 93.1627 92.4782 92.696C92.5155 92.22 92.5482 91.744 92.5762 91.268L92.7022 88.65H98.0922V96H97.0982V89.224L97.3502 89.518H93.3462L93.5842 89.21L93.4722 91.338C93.4442 91.9727 93.3929 92.5793 93.3182 93.158C93.2529 93.7367 93.1455 94.2453 92.9962 94.684C92.8562 95.1227 92.6602 95.468 92.4082 95.72C92.1562 95.9627 91.8342 96.084 91.4422 96.084C91.3302 96.084 91.2135 96.0747 91.0922 96.056C90.9802 96.0373 90.8589 96.014 90.7282 95.986ZM104.082 91.24C105.006 91.2493 105.706 91.4547 106.182 91.856C106.667 92.2573 106.91 92.836 106.91 93.592C106.91 94.376 106.649 94.978 106.126 95.398C105.613 95.818 104.866 96.0233 103.886 96.014L100.918 96V88.65H101.912V91.212L104.082 91.24ZM103.83 95.258C104.511 95.2673 105.025 95.132 105.37 94.852C105.725 94.5627 105.902 94.1427 105.902 93.592C105.902 93.0413 105.729 92.64 105.384 92.388C105.039 92.1267 104.521 91.9913 103.83 91.982L101.912 91.954V95.23L103.83 95.258ZM108.067 98.044L108.683 95.454L108.795 96.056C108.581 96.056 108.399 95.986 108.249 95.846C108.109 95.706 108.039 95.524 108.039 95.3C108.039 95.076 108.109 94.894 108.249 94.754C108.399 94.614 108.576 94.544 108.781 94.544C108.996 94.544 109.169 94.6187 109.299 94.768C109.439 94.9173 109.509 95.0947 109.509 95.3C109.509 95.3747 109.505 95.4493 109.495 95.524C109.486 95.5987 109.467 95.6827 109.439 95.776C109.411 95.8693 109.374 95.9813 109.327 96.112L108.739 98.044H108.067ZM120.718 96L117.694 92.36L118.52 91.87L121.894 96H120.718ZM115.328 96V88.65H116.322V96H115.328ZM116.014 92.724V91.87H118.38V92.724H116.014ZM118.604 92.43L117.68 92.29L120.606 88.65H121.684L118.604 92.43ZM126.227 96.07C125.518 96.07 124.878 95.9113 124.309 95.594C123.749 95.2673 123.306 94.824 122.979 94.264C122.652 93.6947 122.489 93.046 122.489 92.318C122.489 91.5807 122.652 90.932 122.979 90.372C123.306 89.812 123.749 89.3733 124.309 89.056C124.869 88.7387 125.508 88.58 126.227 88.58C126.955 88.58 127.599 88.7387 128.159 89.056C128.728 89.3733 129.172 89.812 129.489 90.372C129.816 90.932 129.979 91.5807 129.979 92.318C129.979 93.046 129.816 93.6947 129.489 94.264C129.172 94.824 128.728 95.2673 128.159 95.594C127.59 95.9113 126.946 96.07 126.227 96.07ZM126.227 95.188C126.759 95.188 127.23 95.0713 127.641 94.838C128.052 94.5953 128.374 94.2593 128.607 93.83C128.85 93.3913 128.971 92.8873 128.971 92.318C128.971 91.7393 128.85 91.2353 128.607 90.806C128.374 90.3767 128.052 90.0453 127.641 89.812C127.23 89.5693 126.764 89.448 126.241 89.448C125.718 89.448 125.252 89.5693 124.841 89.812C124.43 90.0453 124.104 90.3767 123.861 90.806C123.618 91.2353 123.497 91.7393 123.497 92.318C123.497 92.8873 123.618 93.3913 123.861 93.83C124.104 94.2593 124.43 94.5953 124.841 94.838C125.252 95.0713 125.714 95.188 126.227 95.188ZM133.23 96V89.252L133.482 89.518H130.444V88.65H137.01V89.518H133.972L134.224 89.252V96H133.23ZM141.129 96.07C140.42 96.07 139.781 95.9113 139.211 95.594C138.651 95.2673 138.208 94.824 137.881 94.264C137.555 93.6947 137.391 93.046 137.391 92.318C137.391 91.5807 137.555 90.932 137.881 90.372C138.208 89.812 138.651 89.3733 139.211 89.056C139.771 88.7387 140.411 88.58 141.129 88.58C141.857 88.58 142.501 88.7387 143.061 89.056C143.631 89.3733 144.074 89.812 144.391 90.372C144.718 90.932 144.881 91.5807 144.881 92.318C144.881 93.046 144.718 93.6947 144.391 94.264C144.074 94.824 143.631 95.2673 143.061 95.594C142.492 95.9113 141.848 96.07 141.129 96.07ZM141.129 95.188C141.661 95.188 142.133 95.0713 142.543 94.838C142.954 94.5953 143.276 94.2593 143.509 93.83C143.752 93.3913 143.873 92.8873 143.873 92.318C143.873 91.7393 143.752 91.2353 143.509 90.806C143.276 90.3767 142.954 90.0453 142.543 89.812C142.133 89.5693 141.666 89.448 141.143 89.448C140.621 89.448 140.154 89.5693 139.743 89.812C139.333 90.0453 139.006 90.3767 138.763 90.806C138.521 91.2353 138.399 91.7393 138.399 92.318C138.399 92.8873 138.521 93.3913 138.763 93.83C139.006 94.2593 139.333 94.5953 139.743 94.838C140.154 95.0713 140.616 95.188 141.129 95.188ZM150.8 96.07C150.165 96.07 149.591 95.9253 149.078 95.636C148.564 95.3373 148.154 94.9127 147.846 94.362C147.547 93.802 147.398 93.1207 147.398 92.318C147.398 91.5153 147.547 90.8387 147.846 90.288C148.144 89.728 148.55 89.3033 149.064 89.014C149.577 88.7247 150.156 88.58 150.8 88.58C151.5 88.58 152.125 88.7387 152.676 89.056C153.236 89.364 153.674 89.8027 153.992 90.372C154.309 90.932 154.468 91.5807 154.468 92.318C154.468 93.0647 154.309 93.718 153.992 94.278C153.674 94.838 153.236 95.2767 152.676 95.594C152.125 95.9113 151.5 96.07 150.8 96.07ZM147.006 98.716V88.65H147.958V90.862L147.86 92.332L148 93.816V98.716H147.006ZM150.73 95.188C151.252 95.188 151.719 95.0713 152.13 94.838C152.54 94.5953 152.867 94.2593 153.11 93.83C153.352 93.3913 153.474 92.8873 153.474 92.318C153.474 91.7487 153.352 91.2493 153.11 90.82C152.867 90.3907 152.54 90.0547 152.13 89.812C151.719 89.5693 151.252 89.448 150.73 89.448C150.207 89.448 149.736 89.5693 149.316 89.812C148.905 90.0547 148.578 90.3907 148.336 90.82C148.102 91.2493 147.986 91.7487 147.986 92.318C147.986 92.8873 148.102 93.3913 148.336 93.83C148.578 94.2593 148.905 94.5953 149.316 94.838C149.736 95.0713 150.207 95.188 150.73 95.188ZM163.771 96V88.65H164.765V96H163.771ZM159.697 91.24C160.621 91.2493 161.326 91.4547 161.811 91.856C162.297 92.2573 162.539 92.836 162.539 93.592C162.539 94.376 162.278 94.978 161.755 95.398C161.233 95.818 160.486 96.0233 159.515 96.014L156.603 96V88.65H157.597V91.212L159.697 91.24ZM159.445 95.258C160.136 95.2673 160.654 95.132 160.999 94.852C161.354 94.5627 161.531 94.1427 161.531 93.592C161.531 93.0413 161.359 92.64 161.013 92.388C160.668 92.1267 160.145 91.9913 159.445 91.982L157.597 91.954V95.23L159.445 95.258ZM167.596 96V88.65H168.59V94.488L173.504 88.65H174.386V96H173.392V90.148L168.492 96H167.596ZM170.928 87.586C170.312 87.586 169.812 87.432 169.43 87.124C169.056 86.8067 168.86 86.354 168.842 85.766H169.556C169.565 86.1393 169.696 86.4333 169.948 86.648C170.2 86.8627 170.526 86.97 170.928 86.97C171.329 86.97 171.656 86.8627 171.908 86.648C172.169 86.4333 172.304 86.1393 172.314 85.766H173.028C173.018 86.354 172.822 86.8067 172.44 87.124C172.057 87.432 171.553 87.586 170.928 87.586ZM183.922 96.07C183.213 96.07 182.574 95.9113 182.004 95.594C181.444 95.2673 181.001 94.824 180.674 94.264C180.348 93.6947 180.184 93.046 180.184 92.318C180.184 91.5807 180.348 90.932 180.674 90.372C181.001 89.812 181.444 89.3733 182.004 89.056C182.564 88.7387 183.204 88.58 183.922 88.58C184.65 88.58 185.294 88.7387 185.854 89.056C186.424 89.3733 186.867 89.812 187.184 90.372C187.511 90.932 187.674 91.5807 187.674 92.318C187.674 93.046 187.511 93.6947 187.184 94.264C186.867 94.824 186.424 95.2673 185.854 95.594C185.285 95.9113 184.641 96.07 183.922 96.07ZM183.922 95.188C184.454 95.188 184.926 95.0713 185.336 94.838C185.747 94.5953 186.069 94.2593 186.302 93.83C186.545 93.3913 186.666 92.8873 186.666 92.318C186.666 91.7393 186.545 91.2353 186.302 90.806C186.069 90.3767 185.747 90.0453 185.336 89.812C184.926 89.5693 184.459 89.448 183.936 89.448C183.414 89.448 182.947 89.5693 182.536 89.812C182.126 90.0453 181.799 90.3767 181.556 90.806C181.314 91.2353 181.192 91.7393 181.192 92.318C181.192 92.8873 181.314 93.3913 181.556 93.83C181.799 94.2593 182.126 94.5953 182.536 94.838C182.947 95.0713 183.409 95.188 183.922 95.188ZM190.925 96V89.252L191.177 89.518H188.139V88.65H194.705V89.518H191.667L191.919 89.252V96H190.925ZM199.937 96.07C199.302 96.07 198.728 95.9253 198.215 95.636C197.701 95.3373 197.291 94.9127 196.983 94.362C196.684 93.802 196.535 93.1207 196.535 92.318C196.535 91.5153 196.684 90.8387 196.983 90.288C197.281 89.728 197.687 89.3033 198.201 89.014C198.714 88.7247 199.293 88.58 199.937 88.58C200.637 88.58 201.262 88.7387 201.813 89.056C202.373 89.364 202.811 89.8027 203.129 90.372C203.446 90.932 203.605 91.5807 203.605 92.318C203.605 93.0647 203.446 93.718 203.129 94.278C202.811 94.838 202.373 95.2767 201.813 95.594C201.262 95.9113 200.637 96.07 199.937 96.07ZM196.143 98.716V88.65H197.095V90.862L196.997 92.332L197.137 93.816V98.716H196.143ZM199.867 95.188C200.389 95.188 200.856 95.0713 201.267 94.838C201.677 94.5953 202.004 94.2593 202.247 93.83C202.489 93.3913 202.611 92.8873 202.611 92.318C202.611 91.7487 202.489 91.2493 202.247 90.82C202.004 90.3907 201.677 90.0547 201.267 89.812C200.856 89.5693 200.389 89.448 199.867 89.448C199.344 89.448 198.873 89.5693 198.453 89.812C198.042 90.0547 197.715 90.3907 197.473 90.82C197.239 91.2493 197.123 91.7487 197.123 92.318C197.123 92.8873 197.239 93.3913 197.473 93.83C197.715 94.2593 198.042 94.5953 198.453 94.838C198.873 95.0713 199.344 95.188 199.867 95.188ZM210.263 96V94.376L210.221 94.11V91.394C210.221 90.7687 210.044 90.288 209.689 89.952C209.344 89.616 208.826 89.448 208.135 89.448C207.659 89.448 207.206 89.5273 206.777 89.686C206.348 89.8447 205.984 90.0547 205.685 90.316L205.237 89.574C205.61 89.2567 206.058 89.014 206.581 88.846C207.104 88.6687 207.654 88.58 208.233 88.58C209.185 88.58 209.918 88.818 210.431 89.294C210.954 89.7607 211.215 90.4747 211.215 91.436V96H210.263ZM207.729 96.07C207.178 96.07 206.698 95.9813 206.287 95.804C205.886 95.6173 205.578 95.3653 205.363 95.048C205.148 94.7213 205.041 94.348 205.041 93.928C205.041 93.5453 205.13 93.2 205.307 92.892C205.494 92.5747 205.792 92.3227 206.203 92.136C206.623 91.94 207.183 91.842 207.883 91.842H210.417V92.584H207.911C207.202 92.584 206.707 92.71 206.427 92.962C206.156 93.214 206.021 93.5267 206.021 93.9C206.021 94.32 206.184 94.656 206.511 94.908C206.838 95.16 207.295 95.286 207.883 95.286C208.443 95.286 208.924 95.16 209.325 94.908C209.736 94.6467 210.034 94.2733 210.221 93.788L210.445 94.474C210.258 94.9593 209.932 95.3467 209.465 95.636C209.008 95.9253 208.429 96.07 207.729 96.07ZM222.583 96L220.063 92.36L220.889 91.87L223.773 96H222.583ZM218.411 92.724V91.87H220.735V92.724H218.411ZM220.987 92.43L220.035 92.29L222.485 88.65H223.563L220.987 92.43ZM213.875 96H212.685L215.569 91.87L216.381 92.36L213.875 96ZM218.719 96H217.725V88.65H218.719V96ZM218.033 92.724H215.723V91.87H218.033V92.724ZM215.485 92.43L212.895 88.65H213.973L216.409 92.29L215.485 92.43ZM229.855 96V94.376L229.813 94.11V91.394C229.813 90.7687 229.636 90.288 229.281 89.952C228.936 89.616 228.418 89.448 227.727 89.448C227.251 89.448 226.798 89.5273 226.369 89.686C225.94 89.8447 225.576 90.0547 225.277 90.316L224.829 89.574C225.202 89.2567 225.65 89.014 226.173 88.846C226.696 88.6687 227.246 88.58 227.825 88.58C228.777 88.58 229.51 88.818 230.023 89.294C230.546 89.7607 230.807 90.4747 230.807 91.436V96H229.855ZM227.321 96.07C226.77 96.07 226.29 95.9813 225.879 95.804C225.478 95.6173 225.17 95.3653 224.955 95.048C224.74 94.7213 224.633 94.348 224.633 93.928C224.633 93.5453 224.722 93.2 224.899 92.892C225.086 92.5747 225.384 92.3227 225.795 92.136C226.215 91.94 226.775 91.842 227.475 91.842H230.009V92.584H227.503C226.794 92.584 226.299 92.71 226.019 92.962C225.748 93.214 225.613 93.5267 225.613 93.9C225.613 94.32 225.776 94.656 226.103 94.908C226.43 95.16 226.887 95.286 227.475 95.286C228.035 95.286 228.516 95.16 228.917 94.908C229.328 94.6467 229.626 94.2733 229.813 93.788L230.037 94.474C229.85 94.9593 229.524 95.3467 229.057 95.636C228.6 95.9253 228.021 96.07 227.321 96.07ZM236.603 96.07C235.838 96.07 235.166 95.9113 234.587 95.594C234.008 95.2673 233.556 94.824 233.229 94.264C232.902 93.6947 232.739 93.046 232.739 92.318C232.739 91.59 232.893 90.946 233.201 90.386C233.518 89.826 233.948 89.3873 234.489 89.07C235.04 88.7433 235.656 88.58 236.337 88.58C237.028 88.58 237.639 88.7387 238.171 89.056C238.712 89.364 239.137 89.8027 239.445 90.372C239.753 90.932 239.907 91.5807 239.907 92.318C239.907 92.3647 239.902 92.416 239.893 92.472C239.893 92.5187 239.893 92.57 239.893 92.626H233.495V91.884H239.361L238.969 92.178C238.969 91.646 238.852 91.1747 238.619 90.764C238.395 90.344 238.087 90.0173 237.695 89.784C237.303 89.5507 236.85 89.434 236.337 89.434C235.833 89.434 235.38 89.5507 234.979 89.784C234.578 90.0173 234.265 90.344 234.041 90.764C233.817 91.184 233.705 91.6647 233.705 92.206V92.36C233.705 92.92 233.826 93.4147 234.069 93.844C234.321 94.264 234.666 94.5953 235.105 94.838C235.553 95.0713 236.062 95.188 236.631 95.188C237.079 95.188 237.494 95.1087 237.877 94.95C238.269 94.7913 238.605 94.5487 238.885 94.222L239.445 94.866C239.118 95.258 238.708 95.5567 238.213 95.762C237.728 95.9673 237.191 96.07 236.603 96.07ZM243.179 96V89.252L243.431 89.518H240.393V88.65H246.959V89.518H243.921L244.173 89.252V96H243.179ZM250.856 96L253.964 91.968L253.95 92.458L250.996 88.65H252.116L254.538 91.8L254.118 91.786L256.54 88.65H257.632L254.65 92.5L254.664 91.968L257.8 96H256.666L254.104 92.64L254.496 92.696L251.976 96H250.856ZM263.857 96V94.376L263.815 94.11V91.394C263.815 90.7687 263.638 90.288 263.283 89.952C262.938 89.616 262.42 89.448 261.729 89.448C261.253 89.448 260.8 89.5273 260.371 89.686C259.942 89.8447 259.578 90.0547 259.279 90.316L258.831 89.574C259.204 89.2567 259.652 89.014 260.175 88.846C260.698 88.6687 261.248 88.58 261.827 88.58C262.779 88.58 263.512 88.818 264.025 89.294C264.548 89.7607 264.809 90.4747 264.809 91.436V96H263.857ZM261.323 96.07C260.772 96.07 260.292 95.9813 259.881 95.804C259.48 95.6173 259.172 95.3653 258.957 95.048C258.742 94.7213 258.635 94.348 258.635 93.928C258.635 93.5453 258.724 93.2 258.901 92.892C259.088 92.5747 259.386 92.3227 259.797 92.136C260.217 91.94 260.777 91.842 261.477 91.842H264.011V92.584H261.505C260.796 92.584 260.301 92.71 260.021 92.962C259.75 93.214 259.615 93.5267 259.615 93.9C259.615 94.32 259.778 94.656 260.105 94.908C260.432 95.16 260.889 95.286 261.477 95.286C262.037 95.286 262.518 95.16 262.919 94.908C263.33 94.6467 263.628 94.2733 263.815 93.788L264.039 94.474C263.852 94.9593 263.526 95.3467 263.059 95.636C262.602 95.9253 262.023 96.07 261.323 96.07ZM271.249 96.07C270.614 96.07 270.04 95.9253 269.527 95.636C269.014 95.3373 268.603 94.9127 268.295 94.362C267.996 93.802 267.847 93.1207 267.847 92.318C267.847 91.5153 267.996 90.8387 268.295 90.288C268.594 89.728 269 89.3033 269.513 89.014C270.026 88.7247 270.605 88.58 271.249 88.58C271.949 88.58 272.574 88.7387 273.125 89.056C273.685 89.364 274.124 89.8027 274.441 90.372C274.758 90.932 274.917 91.5807 274.917 92.318C274.917 93.0647 274.758 93.718 274.441 94.278C274.124 94.838 273.685 95.2767 273.125 95.594C272.574 95.9113 271.949 96.07 271.249 96.07ZM267.455 98.716V88.65H268.407V90.862L268.309 92.332L268.449 93.816V98.716H267.455ZM271.179 95.188C271.702 95.188 272.168 95.0713 272.579 94.838C272.99 94.5953 273.316 94.2593 273.559 93.83C273.802 93.3913 273.923 92.8873 273.923 92.318C273.923 91.7487 273.802 91.2493 273.559 90.82C273.316 90.3907 272.99 90.0547 272.579 89.812C272.168 89.5693 271.702 89.448 271.179 89.448C270.656 89.448 270.185 89.5693 269.765 89.812C269.354 90.0547 269.028 90.3907 268.785 90.82C268.552 91.2493 268.435 91.7487 268.435 92.318C268.435 92.8873 268.552 93.3913 268.785 93.83C269.028 94.2593 269.354 94.5953 269.765 94.838C270.185 95.0713 270.656 95.188 271.179 95.188ZM281.576 96V94.376L281.534 94.11V91.394C281.534 90.7687 281.356 90.288 281.002 89.952C280.656 89.616 280.138 89.448 279.448 89.448C278.972 89.448 278.519 89.5273 278.09 89.686C277.66 89.8447 277.296 90.0547 276.998 90.316L276.55 89.574C276.923 89.2567 277.371 89.014 277.894 88.846C278.416 88.6687 278.967 88.58 279.546 88.58C280.498 88.58 281.23 88.818 281.744 89.294C282.266 89.7607 282.528 90.4747 282.528 91.436V96H281.576ZM279.042 96.07C278.491 96.07 278.01 95.9813 277.6 95.804C277.198 95.6173 276.89 95.3653 276.676 95.048C276.461 94.7213 276.354 94.348 276.354 93.928C276.354 93.5453 276.442 93.2 276.62 92.892C276.806 92.5747 277.105 92.3227 277.516 92.136C277.936 91.94 278.496 91.842 279.196 91.842H281.73V92.584H279.224C278.514 92.584 278.02 92.71 277.74 92.962C277.469 93.214 277.334 93.5267 277.334 93.9C277.334 94.32 277.497 94.656 277.824 94.908C278.15 95.16 278.608 95.286 279.196 95.286C279.756 95.286 280.236 95.16 280.638 94.908C281.048 94.6467 281.347 94.2733 281.534 93.788L281.758 94.474C281.571 94.9593 281.244 95.3467 280.778 95.636C280.32 95.9253 279.742 96.07 279.042 96.07ZM290.564 96L287.54 92.36L288.366 91.87L291.74 96H290.564ZM285.174 96V88.65H286.168V96H285.174ZM285.86 92.724V91.87H288.226V92.724H285.86ZM288.45 92.43L287.526 92.29L290.452 88.65H291.53L288.45 92.43ZM294.558 96V89.252L294.81 89.518H291.772V88.65H298.338V89.518H295.3L295.552 89.252V96H294.558ZM302.584 96.07C301.818 96.07 301.146 95.9113 300.568 95.594C299.989 95.2673 299.536 94.824 299.21 94.264C298.883 93.6947 298.72 93.046 298.72 92.318C298.72 91.59 298.874 90.946 299.182 90.386C299.499 89.826 299.928 89.3873 300.47 89.07C301.02 88.7433 301.636 88.58 302.318 88.58C303.008 88.58 303.62 88.7387 304.152 89.056C304.693 89.364 305.118 89.8027 305.426 90.372C305.734 90.932 305.888 91.5807 305.888 92.318C305.888 92.3647 305.883 92.416 305.874 92.472C305.874 92.5187 305.874 92.57 305.874 92.626H299.476V91.884H305.342L304.95 92.178C304.95 91.646 304.833 91.1747 304.6 90.764C304.376 90.344 304.068 90.0173 303.676 89.784C303.284 89.5507 302.831 89.434 302.318 89.434C301.814 89.434 301.361 89.5507 300.96 89.784C300.558 90.0173 300.246 90.344 300.022 90.764C299.798 91.184 299.686 91.6647 299.686 92.206V92.36C299.686 92.92 299.807 93.4147 300.05 93.844C300.302 94.264 300.647 94.5953 301.086 94.838C301.534 95.0713 302.042 95.188 302.612 95.188C303.06 95.188 303.475 95.1087 303.858 94.95C304.25 94.7913 304.586 94.5487 304.866 94.222L305.426 94.866C305.099 95.258 304.688 95.5567 304.194 95.762C303.708 95.9673 303.172 96.07 302.584 96.07ZM311.882 96.07C311.247 96.07 310.673 95.9253 310.16 95.636C309.646 95.3373 309.236 94.9127 308.928 94.362C308.629 93.802 308.48 93.1207 308.48 92.318C308.48 91.5153 308.629 90.8387 308.928 90.288C309.226 89.728 309.632 89.3033 310.146 89.014C310.659 88.7247 311.238 88.58 311.882 88.58C312.582 88.58 313.207 88.7387 313.758 89.056C314.318 89.364 314.756 89.8027 315.074 90.372C315.391 90.932 315.55 91.5807 315.55 92.318C315.55 93.0647 315.391 93.718 315.074 94.278C314.756 94.838 314.318 95.2767 313.758 95.594C313.207 95.9113 312.582 96.07 311.882 96.07ZM308.088 98.716V88.65H309.04V90.862L308.942 92.332L309.082 93.816V98.716H308.088ZM311.812 95.188C312.334 95.188 312.801 95.0713 313.212 94.838C313.622 94.5953 313.949 94.2593 314.192 93.83C314.434 93.3913 314.556 92.8873 314.556 92.318C314.556 91.7487 314.434 91.2493 314.192 90.82C313.949 90.3907 313.622 90.0547 313.212 89.812C312.801 89.5693 312.334 89.448 311.812 89.448C311.289 89.448 310.818 89.5693 310.398 89.812C309.987 90.0547 309.66 90.3907 309.418 90.82C309.184 91.2493 309.068 91.7487 309.068 92.318C309.068 92.8873 309.184 93.3913 309.418 93.83C309.66 94.2593 309.987 94.5953 310.398 94.838C310.818 95.0713 311.289 95.188 311.812 95.188ZM321.35 96V88.65H324.598C325.428 88.65 326.082 88.8087 326.558 89.126C327.043 89.4433 327.286 89.91 327.286 90.526C327.286 91.1233 327.057 91.5853 326.6 91.912C326.142 92.2293 325.54 92.388 324.794 92.388L324.99 92.094C325.867 92.094 326.511 92.2573 326.922 92.584C327.332 92.9107 327.538 93.382 327.538 93.998C327.538 94.6327 327.304 95.1273 326.838 95.482C326.38 95.8273 325.666 96 324.696 96H321.35ZM322.316 95.216H324.654C325.279 95.216 325.75 95.118 326.068 94.922C326.394 94.7167 326.558 94.39 326.558 93.942C326.558 93.494 326.413 93.1673 326.124 92.962C325.834 92.7567 325.377 92.654 324.752 92.654H322.316V95.216ZM322.316 91.912H324.528C325.097 91.912 325.531 91.8047 325.83 91.59C326.138 91.3753 326.292 91.0627 326.292 90.652C326.292 90.2413 326.138 89.9333 325.83 89.728C325.531 89.5227 325.097 89.42 324.528 89.42H322.316V91.912ZM334.431 96V94.376L334.389 94.11V91.394C334.389 90.7687 334.212 90.288 333.857 89.952C333.512 89.616 332.994 89.448 332.303 89.448C331.827 89.448 331.374 89.5273 330.945 89.686C330.516 89.8447 330.152 90.0547 329.853 90.316L329.405 89.574C329.778 89.2567 330.226 89.014 330.749 88.846C331.272 88.6687 331.822 88.58 332.401 88.58C333.353 88.58 334.086 88.818 334.599 89.294C335.122 89.7607 335.383 90.4747 335.383 91.436V96H334.431ZM331.897 96.07C331.346 96.07 330.866 95.9813 330.455 95.804C330.054 95.6173 329.746 95.3653 329.531 95.048C329.316 94.7213 329.209 94.348 329.209 93.928C329.209 93.5453 329.298 93.2 329.475 92.892C329.662 92.5747 329.96 92.3227 330.371 92.136C330.791 91.94 331.351 91.842 332.051 91.842H334.585V92.584H332.079C331.37 92.584 330.875 92.71 330.595 92.962C330.324 93.214 330.189 93.5267 330.189 93.9C330.189 94.32 330.352 94.656 330.679 94.908C331.006 95.16 331.463 95.286 332.051 95.286C332.611 95.286 333.092 95.16 333.493 94.908C333.904 94.6467 334.202 94.2733 334.389 93.788L334.613 94.474C334.426 94.9593 334.1 95.3467 333.633 95.636C333.176 95.9253 332.597 96.07 331.897 96.07ZM342.859 95.132L342.635 95.398V88.65H343.629V95.398L343.363 95.132H347.465L347.199 95.398V88.65H348.193V96H338.029V88.65H339.023V95.398L338.771 95.132H342.859ZM354.168 96.07C353.402 96.07 352.73 95.9113 352.152 95.594C351.573 95.2673 351.12 94.824 350.794 94.264C350.467 93.6947 350.304 93.046 350.304 92.318C350.304 91.59 350.458 90.946 350.766 90.386C351.083 89.826 351.512 89.3873 352.054 89.07C352.604 88.7433 353.22 88.58 353.902 88.58C354.592 88.58 355.204 88.7387 355.736 89.056C356.277 89.364 356.702 89.8027 357.01 90.372C357.318 90.932 357.472 91.5807 357.472 92.318C357.472 92.3647 357.467 92.416 357.458 92.472C357.458 92.5187 357.458 92.57 357.458 92.626H351.06V91.884H356.926L356.534 92.178C356.534 91.646 356.417 91.1747 356.184 90.764C355.96 90.344 355.652 90.0173 355.26 89.784C354.868 89.5507 354.415 89.434 353.902 89.434C353.398 89.434 352.945 89.5507 352.544 89.784C352.142 90.0173 351.83 90.344 351.606 90.764C351.382 91.184 351.27 91.6647 351.27 92.206V92.36C351.27 92.92 351.391 93.4147 351.634 93.844C351.886 94.264 352.231 94.5953 352.67 94.838C353.118 95.0713 353.626 95.188 354.196 95.188C354.644 95.188 355.059 95.1087 355.442 94.95C355.834 94.7913 356.17 94.5487 356.45 94.222L357.01 94.866C356.683 95.258 356.272 95.5567 355.778 95.762C355.292 95.9673 354.756 96.07 354.168 96.07ZM359.672 96V88.65H364.88V89.518H360.414L360.666 89.266V96H359.672ZM368.999 96.07C368.289 96.07 367.65 95.9113 367.081 95.594C366.521 95.2673 366.077 94.824 365.751 94.264C365.424 93.6947 365.261 93.046 365.261 92.318C365.261 91.5807 365.424 90.932 365.751 90.372C366.077 89.812 366.521 89.3733 367.081 89.056C367.641 88.7387 368.28 88.58 368.999 88.58C369.727 88.58 370.371 88.7387 370.931 89.056C371.5 89.3733 371.943 89.812 372.261 90.372C372.587 90.932 372.751 91.5807 372.751 92.318C372.751 93.046 372.587 93.6947 372.261 94.264C371.943 94.824 371.5 95.2673 370.931 95.594C370.361 95.9113 369.717 96.07 368.999 96.07ZM368.999 95.188C369.531 95.188 370.002 95.0713 370.413 94.838C370.823 94.5953 371.145 94.2593 371.379 93.83C371.621 93.3913 371.743 92.8873 371.743 92.318C371.743 91.7393 371.621 91.2353 371.379 90.806C371.145 90.3767 370.823 90.0453 370.413 89.812C370.002 89.5693 369.535 89.448 369.013 89.448C368.49 89.448 368.023 89.5693 367.613 89.812C367.202 90.0453 366.875 90.3767 366.633 90.806C366.39 91.2353 366.269 91.7393 366.269 92.318C366.269 92.8873 366.39 93.3913 366.633 93.83C366.875 94.2593 367.202 94.5953 367.613 94.838C368.023 95.0713 368.485 95.188 368.999 95.188ZM383.103 96V94.376L383.061 94.11V91.394C383.061 90.7687 382.884 90.288 382.529 89.952C382.184 89.616 381.666 89.448 380.975 89.448C380.499 89.448 380.046 89.5273 379.617 89.686C379.188 89.8447 378.824 90.0547 378.525 90.316L378.077 89.574C378.45 89.2567 378.898 89.014 379.421 88.846C379.944 88.6687 380.494 88.58 381.073 88.58C382.025 88.58 382.758 88.818 383.271 89.294C383.794 89.7607 384.055 90.4747 384.055 91.436V96H383.103ZM380.569 96.07C380.018 96.07 379.538 95.9813 379.127 95.804C378.726 95.6173 378.418 95.3653 378.203 95.048C377.988 94.7213 377.881 94.348 377.881 93.928C377.881 93.5453 377.97 93.2 378.147 92.892C378.334 92.5747 378.632 92.3227 379.043 92.136C379.463 91.94 380.023 91.842 380.723 91.842H383.257V92.584H380.751C380.042 92.584 379.547 92.71 379.267 92.962C378.996 93.214 378.861 93.5267 378.861 93.9C378.861 94.32 379.024 94.656 379.351 94.908C379.678 95.16 380.135 95.286 380.723 95.286C381.283 95.286 381.764 95.16 382.165 94.908C382.576 94.6467 382.874 94.2733 383.061 93.788L383.285 94.474C383.098 94.9593 382.772 95.3467 382.305 95.636C381.848 95.9253 381.269 96.07 380.569 96.07ZM386.701 96V88.65H389.949C390.78 88.65 391.433 88.8087 391.909 89.126C392.394 89.4433 392.637 89.91 392.637 90.526C392.637 91.1233 392.408 91.5853 391.951 91.912C391.494 92.2293 390.892 92.388 390.145 92.388L390.341 92.094C391.218 92.094 391.862 92.2573 392.273 92.584C392.684 92.9107 392.889 93.382 392.889 93.998C392.889 94.6327 392.656 95.1273 392.189 95.482C391.732 95.8273 391.018 96 390.047 96H386.701ZM387.667 95.216H390.005C390.63 95.216 391.102 95.118 391.419 94.922C391.746 94.7167 391.909 94.39 391.909 93.942C391.909 93.494 391.764 93.1673 391.475 92.962C391.186 92.7567 390.728 92.654 390.103 92.654H387.667V95.216ZM387.667 91.912H389.879C390.448 91.912 390.882 91.8047 391.181 91.59C391.489 91.3753 391.643 91.0627 391.643 90.652C391.643 90.2413 391.489 89.9333 391.181 89.728C390.882 89.5227 390.448 89.42 389.879 89.42H387.667V91.912ZM396.619 96V89.252L396.871 89.518H393.833V88.65H400.399V89.518H397.361L397.613 89.252V96H396.619ZM404.518 96.07C403.809 96.07 403.169 95.9113 402.6 95.594C402.04 95.2673 401.597 94.824 401.27 94.264C400.943 93.6947 400.78 93.046 400.78 92.318C400.78 91.5807 400.943 90.932 401.27 90.372C401.597 89.812 402.04 89.3733 402.6 89.056C403.16 88.7387 403.799 88.58 404.518 88.58C405.246 88.58 405.89 88.7387 406.45 89.056C407.019 89.3733 407.463 89.812 407.78 90.372C408.107 90.932 408.27 91.5807 408.27 92.318C408.27 93.046 408.107 93.6947 407.78 94.264C407.463 94.824 407.019 95.2673 406.45 95.594C405.881 95.9113 405.237 96.07 404.518 96.07ZM404.518 95.188C405.05 95.188 405.521 95.0713 405.932 94.838C406.343 94.5953 406.665 94.2593 406.898 93.83C407.141 93.3913 407.262 92.8873 407.262 92.318C407.262 91.7393 407.141 91.2353 406.898 90.806C406.665 90.3767 406.343 90.0453 405.932 89.812C405.521 89.5693 405.055 89.448 404.532 89.448C404.009 89.448 403.543 89.5693 403.132 89.812C402.721 90.0453 402.395 90.3767 402.152 90.806C401.909 91.2353 401.788 91.7393 401.788 92.318C401.788 92.8873 401.909 93.3913 402.152 93.83C402.395 94.2593 402.721 94.5953 403.132 94.838C403.543 95.0713 404.005 95.188 404.518 95.188Z" fill="#141414"/>
</svg>
