<svg width="328" height="134" viewBox="0 0 328 134" fill="none" xmlns="http://www.w3.org/2000/svg">
<path d="M1.914 21V5.6H9.086C10.8753 5.6 12.2687 5.94467 13.266 6.634C14.2633 7.32333 14.762 8.306 14.762 9.582C14.762 10.8433 14.2927 11.826 13.354 12.53C12.4153 13.2193 11.1687 13.564 9.614 13.564L10.032 12.64C11.7627 12.64 13.1047 12.9847 14.058 13.674C15.0113 14.3633 15.488 15.3607 15.488 16.666C15.488 18.0153 14.9747 19.0787 13.948 19.856C12.936 20.6187 11.4547 21 9.504 21H1.914ZM5.456 18.36H9.372C10.1933 18.36 10.8167 18.1987 11.242 17.876C11.6673 17.5533 11.88 17.0547 11.88 16.38C11.88 15.7347 11.6673 15.258 11.242 14.95C10.8167 14.6273 10.1933 14.466 9.372 14.466H5.456V18.36ZM5.456 11.98H8.778C9.55533 11.98 10.142 11.826 10.538 11.518C10.934 11.1953 11.132 10.726 11.132 10.11C11.132 9.494 10.934 9.032 10.538 8.724C10.142 8.40133 9.55533 8.24 8.778 8.24H5.456V11.98ZM23.5866 21.176C22.3252 21.176 21.2032 20.912 20.2206 20.384C19.2526 19.856 18.4826 19.1373 17.9106 18.228C17.3532 17.304 17.0746 16.2553 17.0746 15.082C17.0746 13.894 17.3532 12.8453 17.9106 11.936C18.4826 11.012 19.2526 10.2933 20.2206 9.78C21.2032 9.252 22.3252 8.988 23.5866 8.988C24.8332 8.988 25.9479 9.252 26.9306 9.78C27.9132 10.2933 28.6832 11.0047 29.2406 11.914C29.7979 12.8233 30.0766 13.8793 30.0766 15.082C30.0766 16.2553 29.7979 17.304 29.2406 18.228C28.6832 19.1373 27.9132 19.856 26.9306 20.384C25.9479 20.912 24.8332 21.176 23.5866 21.176ZM23.5866 18.36C24.1586 18.36 24.6719 18.228 25.1266 17.964C25.5812 17.7 25.9406 17.326 26.2046 16.842C26.4686 16.3433 26.6006 15.7567 26.6006 15.082C26.6006 14.3927 26.4686 13.806 26.2046 13.322C25.9406 12.838 25.5812 12.464 25.1266 12.2C24.6719 11.936 24.1586 11.804 23.5866 11.804C23.0146 11.804 22.5012 11.936 22.0466 12.2C21.5919 12.464 21.2252 12.838 20.9466 13.322C20.6826 13.806 20.5506 14.3927 20.5506 15.082C20.5506 15.7567 20.6826 16.3433 20.9466 16.842C21.2252 17.326 21.5919 17.7 22.0466 17.964C22.5012 18.228 23.0146 18.36 23.5866 18.36ZM40.4052 19.46V11.98H36.5332L36.4672 13.498C36.4379 14.1287 36.4012 14.73 36.3572 15.302C36.3132 15.874 36.2252 16.3947 36.0932 16.864C35.9759 17.3187 35.7999 17.7073 35.5652 18.03C35.3306 18.338 35.0152 18.5507 34.6192 18.668L31.2312 18.184C31.6566 18.184 32.0012 18.0593 32.2652 17.81C32.5292 17.546 32.7346 17.1867 32.8812 16.732C33.0279 16.2627 33.1379 15.7347 33.2112 15.148C33.2846 14.5467 33.3359 13.916 33.3652 13.256L33.5192 9.164H43.8372V19.46H40.4052ZM30.8352 23.552V18.184H45.5312V23.552H42.3412V21H34.0252V23.552H30.8352ZM47.691 21V9.164H51.101V16.204L56.865 9.164H60.011V21H56.601V13.96L50.859 21H47.691ZM65.8402 21V11.188L66.6102 11.98H61.8362V9.164H73.2542V11.98H68.4802L69.2502 11.188V21H65.8402ZM80.3755 21.176C79.0261 21.176 77.8381 20.912 76.8115 20.384C75.7995 19.856 75.0148 19.1373 74.4575 18.228C73.9001 17.304 73.6215 16.2553 73.6215 15.082C73.6215 13.894 73.8928 12.8453 74.4355 11.936C74.9928 11.012 75.7481 10.2933 76.7015 9.78C77.6548 9.252 78.7328 8.988 79.9355 8.988C81.0941 8.988 82.1355 9.23733 83.0595 9.736C83.9981 10.22 84.7388 10.924 85.2815 11.848C85.8241 12.7573 86.0955 13.85 86.0955 15.126C86.0955 15.258 86.0881 15.412 86.0735 15.588C86.0588 15.7493 86.0441 15.9033 86.0295 16.05H76.4155V14.048H84.2255L82.9055 14.642C82.9055 14.026 82.7808 13.4907 82.5315 13.036C82.2821 12.5813 81.9375 12.2293 81.4975 11.98C81.0575 11.716 80.5441 11.584 79.9575 11.584C79.3708 11.584 78.8501 11.716 78.3955 11.98C77.9555 12.2293 77.6108 12.5887 77.3615 13.058C77.1121 13.5127 76.9875 14.0553 76.9875 14.686V15.214C76.9875 15.8593 77.1268 16.4313 77.4055 16.93C77.6988 17.414 78.1021 17.788 78.6155 18.052C79.1435 18.3013 79.7595 18.426 80.4635 18.426C81.0941 18.426 81.6441 18.3307 82.1135 18.14C82.5975 17.9493 83.0375 17.6633 83.4335 17.282L85.2595 19.262C84.7168 19.878 84.0348 20.3547 83.2135 20.692C82.3921 21.0147 81.4461 21.176 80.3755 21.176ZM87.1228 20.978L87.2988 18.162C87.3868 18.1767 87.4748 18.1913 87.5628 18.206C87.6508 18.206 87.7314 18.206 87.8048 18.206C88.2154 18.206 88.5381 18.0887 88.7728 17.854C89.0074 17.6193 89.1834 17.304 89.3008 16.908C89.4181 16.4973 89.4988 16.0353 89.5428 15.522C89.6014 15.0087 89.6454 14.4733 89.6748 13.916L89.8508 9.164H99.9708V21H96.5388V11.144L97.3088 11.98H92.1168L92.8428 11.1L92.6888 14.07C92.6448 15.126 92.5568 16.094 92.4248 16.974C92.3074 17.854 92.1094 18.6167 91.8308 19.262C91.5521 19.8927 91.1781 20.384 90.7088 20.736C90.2394 21.0733 89.6381 21.242 88.9048 21.242C88.6408 21.242 88.3621 21.22 88.0688 21.176C87.7754 21.132 87.4601 21.066 87.1228 20.978ZM103.271 21V9.164H106.681V16.204L112.445 9.164H115.591V21H112.181V13.96L106.439 21H103.271ZM125.121 21V9.164H131.171C132.652 9.164 133.811 9.43533 134.647 9.978C135.483 10.506 135.901 11.254 135.901 12.222C135.901 13.19 135.505 13.9527 134.713 14.51C133.935 15.0527 132.901 15.324 131.611 15.324L131.963 14.532C133.4 14.532 134.471 14.796 135.175 15.324C135.893 15.852 136.253 16.622 136.253 17.634C136.253 18.6753 135.857 19.4967 135.065 20.098C134.273 20.6993 133.063 21 131.435 21H125.121ZM128.267 18.668H131.149C131.779 18.668 132.249 18.5653 132.557 18.36C132.879 18.14 133.041 17.81 133.041 17.37C133.041 16.9153 132.894 16.5853 132.601 16.38C132.307 16.16 131.845 16.05 131.215 16.05H128.267V18.668ZM128.267 14.026H130.863C131.464 14.026 131.911 13.916 132.205 13.696C132.513 13.476 132.667 13.1607 132.667 12.75C132.667 12.3247 132.513 12.0093 132.205 11.804C131.911 11.5987 131.464 11.496 130.863 11.496H128.267V14.026ZM150.994 21V9.164H154.404V21H150.994ZM145.032 12.948C146.587 12.9627 147.753 13.3147 148.53 14.004C149.322 14.6787 149.718 15.6393 149.718 16.886C149.718 18.1913 149.271 19.2107 148.376 19.944C147.482 20.6627 146.213 21.022 144.57 21.022L138.806 21V9.164H142.216V12.948H145.032ZM144.262 18.58C144.922 18.5947 145.428 18.4553 145.78 18.162C146.132 17.8687 146.308 17.4287 146.308 16.842C146.308 16.2553 146.132 15.8373 145.78 15.588C145.428 15.324 144.922 15.1847 144.262 15.17L142.216 15.148V18.58H144.262ZM163.587 21.264C162.619 21.264 161.739 21.1247 160.947 20.846C160.155 20.5527 159.465 20.1053 158.879 19.504C158.307 18.888 157.859 18.1033 157.537 17.15C157.229 16.1967 157.075 15.06 157.075 13.74C157.075 12.8013 157.155 11.9433 157.317 11.166C157.478 10.3887 157.72 9.68467 158.043 9.054C158.365 8.40867 158.776 7.844 159.275 7.36C159.788 6.86133 160.382 6.45067 161.057 6.128C161.746 5.79067 162.523 5.534 163.389 5.358L169.021 4.236L169.483 7.184L164.511 8.174C164.217 8.23267 163.88 8.31333 163.499 8.416C163.132 8.504 162.758 8.64333 162.377 8.834C162.01 9.02467 161.665 9.296 161.343 9.648C161.035 9.98533 160.785 10.4327 160.595 10.99C160.404 11.5327 160.309 12.2073 160.309 13.014C160.309 13.2633 160.316 13.454 160.331 13.586C160.36 13.718 160.382 13.8573 160.397 14.004C160.426 14.1507 160.441 14.378 160.441 14.686L159.341 13.608C159.663 12.9187 160.074 12.332 160.573 11.848C161.086 11.364 161.673 10.9973 162.333 10.748C163.007 10.484 163.755 10.352 164.577 10.352C165.691 10.352 166.667 10.5793 167.503 11.034C168.353 11.474 169.013 12.0973 169.483 12.904C169.952 13.7107 170.187 14.6273 170.187 15.654C170.187 16.7687 169.908 17.7513 169.351 18.602C168.793 19.438 168.016 20.0907 167.019 20.56C166.036 21.0293 164.892 21.264 163.587 21.264ZM163.763 18.602C164.335 18.602 164.841 18.4773 165.281 18.228C165.721 17.964 166.058 17.6193 166.293 17.194C166.542 16.754 166.667 16.2627 166.667 15.72C166.667 15.192 166.542 14.7227 166.293 14.312C166.058 13.9013 165.721 13.5787 165.281 13.344C164.841 13.1093 164.327 12.992 163.741 12.992C163.169 12.992 162.655 13.1093 162.201 13.344C161.746 13.564 161.394 13.872 161.145 14.268C160.895 14.664 160.771 15.126 160.771 15.654C160.771 16.1967 160.895 16.6953 161.145 17.15C161.409 17.59 161.761 17.942 162.201 18.206C162.655 18.47 163.176 18.602 163.763 18.602ZM172.515 21V9.164H175.925V16.204L181.689 9.164H184.835V21H181.425V13.96L175.683 21H172.515ZM195.108 21.176C194.111 21.176 193.238 20.956 192.49 20.516C191.742 20.076 191.156 19.4087 190.73 18.514C190.32 17.6047 190.114 16.4607 190.114 15.082C190.114 13.6887 190.312 12.5447 190.708 11.65C191.104 10.7553 191.676 10.088 192.424 9.648C193.172 9.208 194.067 8.988 195.108 8.988C196.223 8.988 197.22 9.24467 198.1 9.758C198.995 10.2567 199.699 10.9607 200.212 11.87C200.74 12.7793 201.004 13.85 201.004 15.082C201.004 16.3287 200.74 17.4067 200.212 18.316C199.699 19.2253 198.995 19.9293 198.1 20.428C197.22 20.9267 196.223 21.176 195.108 21.176ZM188.112 25.268V9.164H191.39V11.584L191.324 15.104L191.544 18.602V25.268H188.112ZM194.514 18.36C195.086 18.36 195.592 18.228 196.032 17.964C196.487 17.7 196.846 17.326 197.11 16.842C197.389 16.3433 197.528 15.7567 197.528 15.082C197.528 14.3927 197.389 13.806 197.11 13.322C196.846 12.838 196.487 12.464 196.032 12.2C195.592 11.936 195.086 11.804 194.514 11.804C193.942 11.804 193.429 11.936 192.974 12.2C192.52 12.464 192.16 12.838 191.896 13.322C191.632 13.806 191.5 14.3927 191.5 15.082C191.5 15.7567 191.632 16.3433 191.896 16.842C192.16 17.326 192.52 17.7 192.974 17.964C193.429 18.228 193.942 18.36 194.514 18.36ZM210.3 21V18.69L210.08 18.184V14.048C210.08 13.3147 209.853 12.7427 209.398 12.332C208.958 11.9213 208.276 11.716 207.352 11.716C206.722 11.716 206.098 11.8187 205.482 12.024C204.881 12.2147 204.368 12.4787 203.942 12.816L202.71 10.418C203.356 9.96333 204.133 9.61133 205.042 9.362C205.952 9.11267 206.876 8.988 207.814 8.988C209.618 8.988 211.019 9.41333 212.016 10.264C213.014 11.1147 213.512 12.442 213.512 14.246V21H210.3ZM206.692 21.176C205.768 21.176 204.976 21.022 204.316 20.714C203.656 20.3913 203.15 19.9587 202.798 19.416C202.446 18.8733 202.27 18.2647 202.27 17.59C202.27 16.886 202.439 16.27 202.776 15.742C203.128 15.214 203.678 14.8033 204.426 14.51C205.174 14.202 206.15 14.048 207.352 14.048H210.498V16.05H207.726C206.92 16.05 206.362 16.182 206.054 16.446C205.761 16.71 205.614 17.04 205.614 17.436C205.614 17.876 205.783 18.228 206.12 18.492C206.472 18.7413 206.949 18.866 207.55 18.866C208.122 18.866 208.636 18.734 209.09 18.47C209.545 18.1913 209.875 17.788 210.08 17.26L210.608 18.844C210.359 19.6067 209.904 20.186 209.244 20.582C208.584 20.978 207.734 21.176 206.692 21.176ZM216.494 21V9.164H219.904V13.52H223.38V16.49H219.904V21H216.494ZM227.692 21.176C226.474 21.176 225.389 20.912 224.436 20.384C223.482 19.856 222.734 19.1373 222.192 18.228C221.649 17.304 221.378 16.2553 221.378 15.082C221.378 13.894 221.649 12.8453 222.192 11.936C222.734 11.012 223.482 10.2933 224.436 9.78C225.389 9.252 226.474 8.988 227.692 8.988C228.909 8.988 229.987 9.252 230.926 9.78C231.879 10.2933 232.627 11.012 233.17 11.936C233.712 12.8453 233.984 13.894 233.984 15.082C233.984 16.2553 233.712 17.304 233.17 18.228C232.627 19.152 231.879 19.878 230.926 20.406C229.987 20.9193 228.909 21.176 227.692 21.176ZM227.692 18.36C228.249 18.36 228.74 18.228 229.166 17.964C229.606 17.7 229.95 17.326 230.2 16.842C230.464 16.3433 230.596 15.7567 230.596 15.082C230.596 14.3927 230.464 13.806 230.2 13.322C229.95 12.838 229.606 12.464 229.166 12.2C228.74 11.936 228.249 11.804 227.692 11.804C227.149 11.804 226.65 11.936 226.196 12.2C225.756 12.464 225.404 12.838 225.14 13.322C224.89 13.806 224.766 14.3927 224.766 15.082C224.766 15.7567 224.89 16.3433 225.14 16.842C225.404 17.326 225.756 17.7 226.196 17.964C226.65 18.228 227.149 18.36 227.692 18.36ZM238.467 21V11.188L239.237 11.98H234.463V9.164H245.881V11.98H241.107L241.877 11.188V21H238.467ZM1.65 47V35.164H5.06V42.204L10.824 35.164H13.97V47H10.56V39.96L4.818 47H1.65ZM17.2691 47V35.164H20.8551L25.3211 43.26H23.8911L28.6651 35.164H31.8771L31.9211 47H28.8191V38.684L29.3471 39.036L25.2771 45.856H23.8251L19.7331 38.794L20.3711 38.64V47H17.2691ZM40.9946 47.176C39.6453 47.176 38.4573 46.912 37.4306 46.384C36.4186 45.856 35.6339 45.1373 35.0766 44.228C34.5193 43.304 34.2406 42.2553 34.2406 41.082C34.2406 39.894 34.5119 38.8453 35.0546 37.936C35.6119 37.012 36.3673 36.2933 37.3206 35.78C38.2739 35.252 39.3519 34.988 40.5546 34.988C41.7133 34.988 42.7546 35.2373 43.6786 35.736C44.6173 36.22 45.3579 36.924 45.9006 37.848C46.4433 38.7573 46.7146 39.85 46.7146 41.126C46.7146 41.258 46.7073 41.412 46.6926 41.588C46.6779 41.7493 46.6633 41.9033 46.6486 42.05H37.0346V40.048H44.8446L43.5246 40.642C43.5246 40.026 43.3999 39.4907 43.1506 39.036C42.9013 38.5813 42.5566 38.2293 42.1166 37.98C41.6766 37.716 41.1633 37.584 40.5766 37.584C39.9899 37.584 39.4693 37.716 39.0146 37.98C38.5746 38.2293 38.2299 38.5887 37.9806 39.058C37.7313 39.5127 37.6066 40.0553 37.6066 40.686V41.214C37.6066 41.8593 37.7459 42.4313 38.0246 42.93C38.3179 43.414 38.7213 43.788 39.2346 44.052C39.7626 44.3013 40.3786 44.426 41.0826 44.426C41.7133 44.426 42.2633 44.3307 42.7326 44.14C43.2166 43.9493 43.6566 43.6633 44.0526 43.282L45.8786 45.262C45.3359 45.878 44.6539 46.3547 43.8326 46.692C43.0113 47.0147 42.0653 47.176 40.9946 47.176ZM49.3453 47V35.164H52.7553V39.784H57.9033V35.164H61.3353V47H57.9033V42.578H52.7553V47H49.3453ZM64.6207 47V35.164H68.0307V39.784H73.1787V35.164H76.6107V47H73.1787V42.578H68.0307V47H64.6207ZM85.4401 47.176C84.1788 47.176 83.0568 46.912 82.0741 46.384C81.1061 45.856 80.3361 45.1373 79.7641 44.228C79.2068 43.304 78.9281 42.2553 78.9281 41.082C78.9281 39.894 79.2068 38.8453 79.7641 37.936C80.3361 37.012 81.1061 36.2933 82.0741 35.78C83.0568 35.252 84.1788 34.988 85.4401 34.988C86.6868 34.988 87.8014 35.252 88.7841 35.78C89.7668 36.2933 90.5368 37.0047 91.0941 37.914C91.6514 38.8233 91.9301 39.8793 91.9301 41.082C91.9301 42.2553 91.6514 43.304 91.0941 44.228C90.5368 45.1373 89.7668 45.856 88.7841 46.384C87.8014 46.912 86.6868 47.176 85.4401 47.176ZM85.4401 44.36C86.0121 44.36 86.5254 44.228 86.9801 43.964C87.4348 43.7 87.7941 43.326 88.0581 42.842C88.3221 42.3433 88.4541 41.7567 88.4541 41.082C88.4541 40.3927 88.3221 39.806 88.0581 39.322C87.7941 38.838 87.4348 38.464 86.9801 38.2C86.5254 37.936 86.0121 37.804 85.4401 37.804C84.8681 37.804 84.3548 37.936 83.9001 38.2C83.4454 38.464 83.0788 38.838 82.8001 39.322C82.5361 39.806 82.4041 40.3927 82.4041 41.082C82.4041 41.7567 82.5361 42.3433 82.8001 42.842C83.0788 43.326 83.4454 43.7 83.9001 43.964C84.3548 44.228 84.8681 44.36 85.4401 44.36ZM100.521 47V35.164H103.931V39.784H109.079V35.164H112.511V47H109.079V42.578H103.931V47H100.521ZM122.88 47V44.69L122.66 44.184V40.048C122.66 39.3147 122.433 38.7427 121.978 38.332C121.538 37.9213 120.856 37.716 119.932 37.716C119.302 37.716 118.678 37.8187 118.062 38.024C117.461 38.2147 116.948 38.4787 116.522 38.816L115.29 36.418C115.936 35.9633 116.713 35.6113 117.622 35.362C118.532 35.1127 119.456 34.988 120.394 34.988C122.198 34.988 123.599 35.4133 124.596 36.264C125.594 37.1147 126.092 38.442 126.092 40.246V47H122.88ZM119.272 47.176C118.348 47.176 117.556 47.022 116.896 46.714C116.236 46.3913 115.73 45.9587 115.378 45.416C115.026 44.8733 114.85 44.2647 114.85 43.59C114.85 42.886 115.019 42.27 115.356 41.742C115.708 41.214 116.258 40.8033 117.006 40.51C117.754 40.202 118.73 40.048 119.932 40.048H123.078V42.05H120.306C119.5 42.05 118.942 42.182 118.634 42.446C118.341 42.71 118.194 43.04 118.194 43.436C118.194 43.876 118.363 44.228 118.7 44.492C119.052 44.7413 119.529 44.866 120.13 44.866C120.702 44.866 121.216 44.734 121.67 44.47C122.125 44.1913 122.455 43.788 122.66 43.26L123.188 44.844C122.939 45.6067 122.484 46.186 121.824 46.582C121.164 46.978 120.314 47.176 119.272 47.176ZM137.148 44.184L136.4 44.976V35.164H139.832V44.976L139.04 44.184H144.496L143.726 44.976V35.164H147.136V47H129.074V35.164H132.484V44.976L131.714 44.184H137.148ZM150.429 47V35.164H153.839V42.204L159.603 35.164H162.749V47H159.339V39.96L153.597 47H150.429ZM179.737 42.468C179.253 42.732 178.718 42.9447 178.131 43.106C177.544 43.2673 176.899 43.348 176.195 43.348C174.64 43.348 173.445 42.996 172.609 42.292C171.773 41.5733 171.355 40.4367 171.355 38.882V35.164H174.787V38.662C174.787 39.3953 174.978 39.9233 175.359 40.246C175.74 40.554 176.276 40.708 176.965 40.708C177.464 40.708 177.94 40.6493 178.395 40.532C178.864 40.4147 179.312 40.246 179.737 40.026V42.468ZM179.495 47V35.164H182.927V47H179.495ZM192.008 47.176C190.659 47.176 189.471 46.912 188.444 46.384C187.432 45.856 186.648 45.1373 186.09 44.228C185.533 43.304 185.254 42.2553 185.254 41.082C185.254 39.894 185.526 38.8453 186.068 37.936C186.626 37.012 187.381 36.2933 188.334 35.78C189.288 35.252 190.366 34.988 191.568 34.988C192.727 34.988 193.768 35.2373 194.692 35.736C195.631 36.22 196.372 36.924 196.914 37.848C197.457 38.7573 197.728 39.85 197.728 41.126C197.728 41.258 197.721 41.412 197.706 41.588C197.692 41.7493 197.677 41.9033 197.662 42.05H188.048V40.048H195.858L194.538 40.642C194.538 40.026 194.414 39.4907 194.164 39.036C193.915 38.5813 193.57 38.2293 193.13 37.98C192.69 37.716 192.177 37.584 191.59 37.584C191.004 37.584 190.483 37.716 190.028 37.98C189.588 38.2293 189.244 38.5887 188.994 39.058C188.745 39.5127 188.62 40.0553 188.62 40.686V41.214C188.62 41.8593 188.76 42.4313 189.038 42.93C189.332 43.414 189.735 43.788 190.248 44.052C190.776 44.3013 191.392 44.426 192.096 44.426C192.727 44.426 193.277 44.3307 193.746 44.14C194.23 43.9493 194.67 43.6633 195.066 43.282L196.892 45.262C196.35 45.878 195.668 46.3547 194.846 46.692C194.025 47.0147 193.079 47.176 192.008 47.176ZM198.453 47L203.755 40.048L203.689 41.94L198.607 35.164H202.457L205.669 39.586L204.217 39.63L207.539 35.164H211.191L206.087 41.874V40.026L211.367 47H207.473L204.107 42.292L205.537 42.49L202.193 47H198.453ZM211.56 46.978L211.736 44.162C211.824 44.1767 211.912 44.1913 212 44.206C212.088 44.206 212.169 44.206 212.242 44.206C212.653 44.206 212.976 44.0887 213.21 43.854C213.445 43.6193 213.621 43.304 213.738 42.908C213.856 42.4973 213.936 42.0353 213.98 41.522C214.039 41.0087 214.083 40.4733 214.112 39.916L214.288 35.164H224.408V47H220.976V37.144L221.746 37.98H216.554L217.28 37.1L217.126 40.07C217.082 41.126 216.994 42.094 216.862 42.974C216.745 43.854 216.547 44.6167 216.268 45.262C215.99 45.8927 215.616 46.384 215.146 46.736C214.677 47.0733 214.076 47.242 213.342 47.242C213.078 47.242 212.8 47.22 212.506 47.176C212.213 47.132 211.898 47.066 211.56 46.978ZM239.897 47V35.164H243.307V47H239.897ZM233.935 38.948C235.489 38.9627 236.655 39.3147 237.433 40.004C238.225 40.6787 238.621 41.6393 238.621 42.886C238.621 44.1913 238.173 45.2107 237.279 45.944C236.384 46.6627 235.115 47.022 233.473 47.022L227.709 47V35.164H231.119V38.948H233.935ZM233.165 44.58C233.825 44.5947 234.331 44.4553 234.683 44.162C235.035 43.8687 235.211 43.4287 235.211 42.842C235.211 42.2553 235.035 41.8373 234.683 41.588C234.331 41.324 233.825 41.1847 233.165 41.17L231.119 41.148V44.58H233.165Z" fill="#141414"/>
<path d="M8.358 84L4.592 79.114L5.432 78.61L9.548 84H8.358ZM1.652 84V74.2H2.66V84H1.652ZM2.352 79.506V78.596H5.418V79.506H2.352ZM5.516 79.212L4.564 79.044L8.218 74.2H9.338L5.516 79.212ZM15.5893 84V82.376L15.5473 82.11V79.394C15.5473 78.7687 15.37 78.288 15.0153 77.952C14.67 77.616 14.152 77.448 13.4613 77.448C12.9853 77.448 12.5327 77.5273 12.1033 77.686C11.674 77.8447 11.31 78.0547 11.0113 78.316L10.5633 77.574C10.9367 77.2567 11.3847 77.014 11.9073 76.846C12.43 76.6687 12.9807 76.58 13.5593 76.58C14.5113 76.58 15.244 76.818 15.7573 77.294C16.28 77.7607 16.5413 78.4747 16.5413 79.436V84H15.5893ZM13.0553 84.07C12.5047 84.07 12.024 83.9813 11.6133 83.804C11.212 83.6173 10.904 83.3653 10.6893 83.048C10.4747 82.7213 10.3673 82.348 10.3673 81.928C10.3673 81.5453 10.456 81.2 10.6333 80.892C10.82 80.5747 11.1187 80.3227 11.5293 80.136C11.9493 79.94 12.5093 79.842 13.2093 79.842H15.7433V80.584H13.2373C12.528 80.584 12.0333 80.71 11.7533 80.962C11.4827 81.214 11.3473 81.5267 11.3473 81.9C11.3473 82.32 11.5107 82.656 11.8373 82.908C12.164 83.16 12.6213 83.286 13.2093 83.286C13.7693 83.286 14.25 83.16 14.6513 82.908C15.062 82.6467 15.3607 82.2733 15.5473 81.788L15.7713 82.474C15.5847 82.9593 15.258 83.3467 14.7913 83.636C14.334 83.9253 13.7553 84.07 13.0553 84.07ZM27.9094 84L25.3894 80.36L26.2154 79.87L29.0994 84H27.9094ZM23.7374 80.724V79.87H26.0614V80.724H23.7374ZM26.3134 80.43L25.3614 80.29L27.8114 76.65H28.8894L26.3134 80.43ZM19.2014 84H18.0114L20.8954 79.87L21.7074 80.36L19.2014 84ZM24.0454 84H23.0514V76.65H24.0454V84ZM23.3594 80.724H21.0494V79.87H23.3594V80.724ZM20.8114 80.43L18.2214 76.65H19.2994L21.7354 80.29L20.8114 80.43ZM35.7938 83.524V77.518H32.2518L32.1678 79.156C32.1492 79.6507 32.1165 80.136 32.0698 80.612C32.0325 81.088 31.9625 81.5267 31.8598 81.928C31.7665 82.32 31.6312 82.642 31.4538 82.894C31.2765 83.1367 31.0478 83.2767 30.7678 83.314L29.7738 83.132C30.0632 83.1413 30.3012 83.0387 30.4878 82.824C30.6745 82.6 30.8192 82.2967 30.9218 81.914C31.0245 81.5313 31.0992 81.0973 31.1458 80.612C31.1925 80.1173 31.2298 79.6133 31.2578 79.1L31.3558 76.65H36.7878V83.524H35.7938ZM29.4658 85.778V83.132H37.9358V85.778H36.9978V84H30.4038V85.778H29.4658ZM47.041 84V76.65H48.035V84H47.041ZM42.967 79.24C43.891 79.2493 44.5957 79.4547 45.081 79.856C45.5663 80.2573 45.809 80.836 45.809 81.592C45.809 82.376 45.5477 82.978 45.025 83.398C44.5023 83.818 43.7557 84.0233 42.785 84.014L39.873 84V76.65H40.867V79.212L42.967 79.24ZM42.715 83.258C43.4057 83.2673 43.9237 83.132 44.269 82.852C44.6237 82.5627 44.801 82.1427 44.801 81.592C44.801 81.0413 44.6283 80.64 44.283 80.388C43.9377 80.1267 43.415 79.9913 42.715 79.982L40.867 79.954V83.23L42.715 83.258ZM50.8652 84V76.65H51.8592V82.488L56.7732 76.65H57.6552V84H56.6612V78.148L51.7612 84H50.8652ZM54.1972 75.586C53.5812 75.586 53.0818 75.432 52.6992 75.124C52.3258 74.8067 52.1298 74.354 52.1112 73.766H52.8252C52.8345 74.1393 52.9652 74.4333 53.2172 74.648C53.4692 74.8627 53.7958 74.97 54.1972 74.97C54.5985 74.97 54.9252 74.8627 55.1772 74.648C55.4385 74.4333 55.5738 74.1393 55.5832 73.766H56.2972C56.2878 74.354 56.0918 74.8067 55.7092 75.124C55.3265 75.432 54.8225 75.586 54.1972 75.586ZM69.5579 84L66.5339 80.36L67.3599 79.87L70.7339 84H69.5579ZM64.1679 84V76.65H65.1619V84H64.1679ZM64.8539 80.724V79.87H67.2199V80.724H64.8539ZM67.4439 80.43L66.5199 80.29L69.4459 76.65H70.5239L67.4439 80.43ZM75.0669 84.07C74.3576 84.07 73.7182 83.9113 73.1489 83.594C72.5889 83.2673 72.1456 82.824 71.8189 82.264C71.4922 81.6947 71.3289 81.046 71.3289 80.318C71.3289 79.5807 71.4922 78.932 71.8189 78.372C72.1456 77.812 72.5889 77.3733 73.1489 77.056C73.7089 76.7387 74.3482 76.58 75.0669 76.58C75.7949 76.58 76.4389 76.7387 76.9989 77.056C77.5682 77.3733 78.0116 77.812 78.3289 78.372C78.6556 78.932 78.8189 79.5807 78.8189 80.318C78.8189 81.046 78.6556 81.6947 78.3289 82.264C78.0116 82.824 77.5682 83.2673 76.9989 83.594C76.4296 83.9113 75.7856 84.07 75.0669 84.07ZM75.0669 83.188C75.5989 83.188 76.0702 83.0713 76.4809 82.838C76.8916 82.5953 77.2136 82.2593 77.4469 81.83C77.6896 81.3913 77.8109 80.8873 77.8109 80.318C77.8109 79.7393 77.6896 79.2353 77.4469 78.806C77.2136 78.3767 76.8916 78.0453 76.4809 77.812C76.0702 77.5693 75.6036 77.448 75.0809 77.448C74.5582 77.448 74.0916 77.5693 73.6809 77.812C73.2702 78.0453 72.9436 78.3767 72.7009 78.806C72.4582 79.2353 72.3369 79.7393 72.3369 80.318C72.3369 80.8873 72.4582 81.3913 72.7009 81.83C72.9436 82.2593 73.2702 82.5953 73.6809 82.838C74.0916 83.0713 74.5536 83.188 75.0669 83.188ZM80.9433 84V76.65H81.9513L85.2833 82.292H84.8633L88.2513 76.65H89.1753V84H88.2653V77.784L88.4473 77.868L85.2833 83.104H84.8353L81.6433 77.812L81.8533 77.77V84H80.9433ZM92.0038 84V76.65H98.6118V84H97.6178V77.252L97.8698 77.518H92.7458L92.9978 77.252V84H92.0038ZM100.093 83.986L100.163 83.132C100.229 83.1413 100.289 83.1553 100.345 83.174C100.411 83.1833 100.467 83.188 100.513 83.188C100.812 83.188 101.05 83.076 101.227 82.852C101.414 82.628 101.554 82.3293 101.647 81.956C101.741 81.5827 101.806 81.1627 101.843 80.696C101.881 80.22 101.913 79.744 101.941 79.268L102.067 76.65H107.457V84H106.463V77.224L106.715 77.518H102.711L102.949 77.21L102.837 79.338C102.809 79.9727 102.758 80.5793 102.683 81.158C102.618 81.7367 102.511 82.2453 102.361 82.684C102.221 83.1227 102.025 83.468 101.773 83.72C101.521 83.9627 101.199 84.084 100.807 84.084C100.695 84.084 100.579 84.0747 100.457 84.056C100.345 84.0373 100.224 84.014 100.093 83.986ZM113.433 84.07C112.668 84.07 111.996 83.9113 111.417 83.594C110.838 83.2673 110.386 82.824 110.059 82.264C109.732 81.6947 109.569 81.046 109.569 80.318C109.569 79.59 109.723 78.946 110.031 78.386C110.348 77.826 110.778 77.3873 111.319 77.07C111.87 76.7433 112.486 76.58 113.167 76.58C113.858 76.58 114.469 76.7387 115.001 77.056C115.542 77.364 115.967 77.8027 116.275 78.372C116.583 78.932 116.737 79.5807 116.737 80.318C116.737 80.3647 116.732 80.416 116.723 80.472C116.723 80.5187 116.723 80.57 116.723 80.626H110.325V79.884H116.191L115.799 80.178C115.799 79.646 115.682 79.1747 115.449 78.764C115.225 78.344 114.917 78.0173 114.525 77.784C114.133 77.5507 113.68 77.434 113.167 77.434C112.663 77.434 112.21 77.5507 111.809 77.784C111.408 78.0173 111.095 78.344 110.871 78.764C110.647 79.184 110.535 79.6647 110.535 80.206V80.36C110.535 80.92 110.656 81.4147 110.899 81.844C111.151 82.264 111.496 82.5953 111.935 82.838C112.383 83.0713 112.892 83.188 113.461 83.188C113.909 83.188 114.324 83.1087 114.707 82.95C115.099 82.7913 115.435 82.5487 115.715 82.222L116.275 82.866C115.948 83.258 115.538 83.5567 115.043 83.762C114.558 83.9673 114.021 84.07 113.433 84.07ZM124.327 84L121.303 80.36L122.129 79.87L125.503 84H124.327ZM118.937 84V76.65H119.931V84H118.937ZM119.623 80.724V79.87H121.989V80.724H119.623ZM122.213 80.43L121.289 80.29L124.215 76.65H125.293L122.213 80.43ZM128.322 84V77.252L128.574 77.518H125.536V76.65H132.102V77.518H129.064L129.316 77.252V84H128.322ZM135.789 80.556V79.842H149.789V80.556H135.789ZM155.889 80.64V79.884H160.159V80.64H155.889ZM156.869 76.58C157.616 76.58 158.283 76.7433 158.871 77.07C159.459 77.3873 159.921 77.8307 160.257 78.4C160.602 78.96 160.775 79.5993 160.775 80.318C160.775 81.0367 160.602 81.6807 160.257 82.25C159.921 82.8193 159.459 83.2673 158.871 83.594C158.283 83.9207 157.616 84.084 156.869 84.084C156.262 84.084 155.698 83.9907 155.175 83.804C154.662 83.608 154.228 83.328 153.873 82.964L154.461 82.376C154.778 82.6747 155.138 82.8987 155.539 83.048C155.94 83.188 156.37 83.258 156.827 83.258C157.406 83.258 157.919 83.132 158.367 82.88C158.824 82.6187 159.184 82.2687 159.445 81.83C159.706 81.382 159.837 80.878 159.837 80.318C159.837 79.758 159.706 79.2587 159.445 78.82C159.184 78.372 158.824 78.022 158.367 77.77C157.919 77.518 157.406 77.392 156.827 77.392C156.37 77.392 155.94 77.4667 155.539 77.616C155.138 77.756 154.778 77.9753 154.461 78.274L153.873 77.7C154.228 77.3267 154.662 77.0467 155.175 76.86C155.698 76.6733 156.262 76.58 156.869 76.58ZM163.992 84V77.252L164.244 77.518H161.206V76.65H167.772V77.518H164.734L164.986 77.252V84H163.992ZM171.891 84.07C171.182 84.07 170.542 83.9113 169.973 83.594C169.413 83.2673 168.97 82.824 168.643 82.264C168.316 81.6947 168.153 81.046 168.153 80.318C168.153 79.5807 168.316 78.932 168.643 78.372C168.97 77.812 169.413 77.3733 169.973 77.056C170.533 76.7387 171.172 76.58 171.891 76.58C172.619 76.58 173.263 76.7387 173.823 77.056C174.392 77.3733 174.836 77.812 175.153 78.372C175.48 78.932 175.643 79.5807 175.643 80.318C175.643 81.046 175.48 81.6947 175.153 82.264C174.836 82.824 174.392 83.2673 173.823 83.594C173.254 83.9113 172.61 84.07 171.891 84.07ZM171.891 83.188C172.423 83.188 172.894 83.0713 173.305 82.838C173.716 82.5953 174.038 82.2593 174.271 81.83C174.514 81.3913 174.635 80.8873 174.635 80.318C174.635 79.7393 174.514 79.2353 174.271 78.806C174.038 78.3767 173.716 78.0453 173.305 77.812C172.894 77.5693 172.428 77.448 171.905 77.448C171.382 77.448 170.916 77.5693 170.505 77.812C170.094 78.0453 169.768 78.3767 169.525 78.806C169.282 79.2353 169.161 79.7393 169.161 80.318C169.161 80.8873 169.282 81.3913 169.525 81.83C169.768 82.2593 170.094 82.5953 170.505 82.838C170.916 83.0713 171.378 83.188 171.891 83.188ZM181.432 84V76.65H188.04V84H187.046V77.252L187.298 77.518H182.174L182.426 77.252V84H181.432ZM194.659 84.07C194.025 84.07 193.451 83.9253 192.937 83.636C192.424 83.3373 192.013 82.9127 191.705 82.362C191.407 81.802 191.257 81.1207 191.257 80.318C191.257 79.5153 191.407 78.8387 191.705 78.288C192.004 77.728 192.41 77.3033 192.923 77.014C193.437 76.7247 194.015 76.58 194.659 76.58C195.359 76.58 195.985 76.7387 196.535 77.056C197.095 77.364 197.534 77.8027 197.851 78.372C198.169 78.932 198.327 79.5807 198.327 80.318C198.327 81.0647 198.169 81.718 197.851 82.278C197.534 82.838 197.095 83.2767 196.535 83.594C195.985 83.9113 195.359 84.07 194.659 84.07ZM190.865 86.716V76.65H191.817V78.862L191.719 80.332L191.859 81.816V86.716H190.865ZM194.589 83.188C195.112 83.188 195.579 83.0713 195.989 82.838C196.4 82.5953 196.727 82.2593 196.969 81.83C197.212 81.3913 197.333 80.8873 197.333 80.318C197.333 79.7487 197.212 79.2493 196.969 78.82C196.727 78.3907 196.4 78.0547 195.989 77.812C195.579 77.5693 195.112 77.448 194.589 77.448C194.067 77.448 193.595 77.5693 193.175 77.812C192.765 78.0547 192.438 78.3907 192.195 78.82C191.962 79.2493 191.845 79.7487 191.845 80.318C191.845 80.8873 191.962 81.3913 192.195 81.83C192.438 82.2593 192.765 82.5953 193.175 82.838C193.595 83.0713 194.067 83.188 194.589 83.188ZM203.487 84.07C202.777 84.07 202.138 83.9113 201.569 83.594C201.009 83.2673 200.565 82.824 200.239 82.264C199.912 81.6947 199.749 81.046 199.749 80.318C199.749 79.5807 199.912 78.932 200.239 78.372C200.565 77.812 201.009 77.3733 201.569 77.056C202.129 76.7387 202.768 76.58 203.487 76.58C204.215 76.58 204.859 76.7387 205.419 77.056C205.988 77.3733 206.431 77.812 206.749 78.372C207.075 78.932 207.239 79.5807 207.239 80.318C207.239 81.046 207.075 81.6947 206.749 82.264C206.431 82.824 205.988 83.2673 205.419 83.594C204.849 83.9113 204.205 84.07 203.487 84.07ZM203.487 83.188C204.019 83.188 204.49 83.0713 204.901 82.838C205.311 82.5953 205.633 82.2593 205.867 81.83C206.109 81.3913 206.231 80.8873 206.231 80.318C206.231 79.7393 206.109 79.2353 205.867 78.806C205.633 78.3767 205.311 78.0453 204.901 77.812C204.49 77.5693 204.023 77.448 203.501 77.448C202.978 77.448 202.511 77.5693 202.101 77.812C201.69 78.0453 201.363 78.3767 201.121 78.806C200.878 79.2353 200.757 79.7393 200.757 80.318C200.757 80.8873 200.878 81.3913 201.121 81.83C201.363 82.2593 201.69 82.5953 202.101 82.838C202.511 83.0713 202.973 83.188 203.487 83.188ZM214.362 83.524V77.518H210.82L210.736 79.156C210.718 79.6507 210.685 80.136 210.638 80.612C210.601 81.088 210.531 81.5267 210.428 81.928C210.335 82.32 210.2 82.642 210.022 82.894C209.845 83.1367 209.616 83.2767 209.336 83.314L208.342 83.132C208.632 83.1413 208.87 83.0387 209.056 82.824C209.243 82.6 209.388 82.2967 209.49 81.914C209.593 81.5313 209.668 81.0973 209.714 80.612C209.761 80.1173 209.798 79.6133 209.826 79.1L209.924 76.65H215.356V83.524H214.362ZM208.034 85.778V83.132H216.504V85.778H215.566V84H208.972V85.778H208.034ZM218.567 86.786C218.222 86.786 217.891 86.73 217.573 86.618C217.265 86.506 216.999 86.338 216.775 86.114L217.237 85.372C217.424 85.5493 217.625 85.6847 217.839 85.778C218.063 85.8807 218.311 85.932 218.581 85.932C218.908 85.932 219.188 85.8387 219.421 85.652C219.664 85.4747 219.893 85.1573 220.107 84.7L220.583 83.622L220.695 83.468L223.719 76.65H224.699L221.017 84.882C220.812 85.358 220.583 85.736 220.331 86.016C220.089 86.296 219.823 86.492 219.533 86.604C219.244 86.7253 218.922 86.786 218.567 86.786ZM220.527 84.21L217.139 76.65H218.175L221.171 83.398L220.527 84.21ZM226.248 84V76.65H227.256L230.588 82.292H230.168L233.556 76.65H234.48V84H233.57V77.784L233.752 77.868L230.588 83.104H230.14L226.948 77.812L227.158 77.77V84H226.248ZM241.873 84V82.376L241.831 82.11V79.394C241.831 78.7687 241.653 78.288 241.299 77.952C240.953 77.616 240.435 77.448 239.745 77.448C239.269 77.448 238.816 77.5273 238.387 77.686C237.957 77.8447 237.593 78.0547 237.295 78.316L236.847 77.574C237.22 77.2567 237.668 77.014 238.191 76.846C238.713 76.6687 239.264 76.58 239.843 76.58C240.795 76.58 241.527 76.818 242.041 77.294C242.563 77.7607 242.825 78.4747 242.825 79.436V84H241.873ZM239.339 84.07C238.788 84.07 238.307 83.9813 237.897 83.804C237.495 83.6173 237.187 83.3653 236.973 83.048C236.758 82.7213 236.651 82.348 236.651 81.928C236.651 81.5453 236.739 81.2 236.917 80.892C237.103 80.5747 237.402 80.3227 237.813 80.136C238.233 79.94 238.793 79.842 239.493 79.842H242.027V80.584H239.521C238.811 80.584 238.317 80.71 238.037 80.962C237.766 81.214 237.631 81.5267 237.631 81.9C237.631 82.32 237.794 82.656 238.121 82.908C238.447 83.16 238.905 83.286 239.493 83.286C240.053 83.286 240.533 83.16 240.935 82.908C241.345 82.6467 241.644 82.2733 241.831 81.788L242.055 82.474C241.868 82.9593 241.541 83.3467 241.075 83.636C240.617 83.9253 240.039 84.07 239.339 84.07ZM245.471 84V76.65H246.465V79.898H251.099V76.65H252.093V84H251.099V80.752H246.465V84H245.471ZM254.918 84V76.65H255.912V79.898H260.546V76.65H261.54V84H260.546V80.752H255.912V84H254.918ZM271.533 84V76.65H272.527V84H271.533ZM267.459 79.24C268.383 79.2493 269.088 79.4547 269.573 79.856C270.059 80.2573 270.301 80.836 270.301 81.592C270.301 82.376 270.04 82.978 269.517 83.398C268.995 83.818 268.248 84.0233 267.277 84.014L264.365 84V76.65H265.359V79.212L267.459 79.24ZM267.207 83.258C267.898 83.2673 268.416 83.132 268.761 82.852C269.116 82.5627 269.293 82.1427 269.293 81.592C269.293 81.0413 269.121 80.64 268.775 80.388C268.43 80.1267 267.907 79.9913 267.207 79.982L265.359 79.954V83.23L267.207 83.258ZM275.357 84V76.65H276.351V82.488L281.265 76.65H282.147V84H281.153V78.148L276.253 84H275.357ZM278.689 75.586C278.073 75.586 277.574 75.432 277.191 75.124C276.818 74.8067 276.622 74.354 276.603 73.766H277.317C277.327 74.1393 277.457 74.4333 277.709 74.648C277.961 74.8627 278.288 74.97 278.689 74.97C279.091 74.97 279.417 74.8627 279.669 74.648C279.931 74.4333 280.066 74.1393 280.075 73.766H280.789C280.78 74.354 280.584 74.8067 280.201 75.124C279.819 75.432 279.315 75.586 278.689 75.586ZM4.718 106.084C4.12067 106.084 3.58867 105.986 3.122 105.79C2.66467 105.594 2.27267 105.295 1.946 104.894C1.61933 104.493 1.372 103.998 1.204 103.41C1.036 102.813 0.952 102.122 0.952 101.338C0.952 100.638 1.01733 100.027 1.148 99.504C1.27867 98.972 1.46067 98.5147 1.694 98.132C1.92733 97.7493 2.198 97.4273 2.506 97.166C2.82333 96.8953 3.164 96.6807 3.528 96.522C3.90133 96.354 4.284 96.228 4.676 96.144L7.98 95.374L8.148 96.298L5.04 96.998C4.844 97.0447 4.606 97.11 4.326 97.194C4.05533 97.278 3.77533 97.404 3.486 97.572C3.206 97.74 2.94467 97.9733 2.702 98.272C2.45933 98.5707 2.26333 98.958 2.114 99.434C1.974 99.9007 1.904 100.484 1.904 101.184C1.904 101.333 1.90867 101.455 1.918 101.548C1.92733 101.632 1.93667 101.725 1.946 101.828C1.96467 101.921 1.97867 102.061 1.988 102.248L1.554 101.884C1.65667 101.315 1.86667 100.82 2.184 100.4C2.50133 99.9707 2.898 99.6393 3.374 99.406C3.85933 99.1633 4.396 99.042 4.984 99.042C5.66533 99.042 6.272 99.1913 6.804 99.49C7.336 99.7793 7.75133 100.185 8.05 100.708C8.358 101.231 8.512 101.837 8.512 102.528C8.512 103.209 8.35333 103.821 8.036 104.362C7.728 104.903 7.28933 105.328 6.72 105.636C6.15067 105.935 5.48333 106.084 4.718 106.084ZM4.83 105.258C5.35267 105.258 5.81467 105.141 6.216 104.908C6.61733 104.665 6.93 104.339 7.154 103.928C7.38733 103.517 7.504 103.055 7.504 102.542C7.504 102.038 7.38733 101.59 7.154 101.198C6.93 100.806 6.61733 100.498 6.216 100.274C5.81467 100.041 5.348 99.924 4.816 99.924C4.29333 99.924 3.83133 100.036 3.43 100.26C3.02867 100.475 2.71133 100.778 2.478 101.17C2.254 101.562 2.142 102.015 2.142 102.528C2.142 103.041 2.254 103.503 2.478 103.914C2.71133 104.325 3.02867 104.651 3.43 104.894C3.84067 105.137 4.30733 105.258 4.83 105.258ZM15.1655 106V104.376L15.1235 104.11V101.394C15.1235 100.769 14.9462 100.288 14.5915 99.952C14.2462 99.616 13.7282 99.448 13.0375 99.448C12.5615 99.448 12.1088 99.5273 11.6795 99.686C11.2502 99.8447 10.8862 100.055 10.5875 100.316L10.1395 99.574C10.5128 99.2567 10.9608 99.014 11.4835 98.846C12.0062 98.6687 12.5568 98.58 13.1355 98.58C14.0875 98.58 14.8202 98.818 15.3335 99.294C15.8562 99.7607 16.1175 100.475 16.1175 101.436V106H15.1655ZM12.6315 106.07C12.0808 106.07 11.6002 105.981 11.1895 105.804C10.7882 105.617 10.4802 105.365 10.2655 105.048C10.0508 104.721 9.9435 104.348 9.9435 103.928C9.9435 103.545 10.0322 103.2 10.2095 102.892C10.3962 102.575 10.6948 102.323 11.1055 102.136C11.5255 101.94 12.0855 101.842 12.7855 101.842H15.3195V102.584H12.8135C12.1042 102.584 11.6095 102.71 11.3295 102.962C11.0588 103.214 10.9235 103.527 10.9235 103.9C10.9235 104.32 11.0868 104.656 11.4135 104.908C11.7402 105.16 12.1975 105.286 12.7855 105.286C13.3455 105.286 13.8262 105.16 14.2275 104.908C14.6382 104.647 14.9368 104.273 15.1235 103.788L15.3475 104.474C15.1608 104.959 14.8342 105.347 14.3675 105.636C13.9102 105.925 13.3315 106.07 12.6315 106.07ZM17.4196 105.986L17.4896 105.132C17.5549 105.141 17.6156 105.155 17.6716 105.174C17.7369 105.183 17.7929 105.188 17.8396 105.188C18.1383 105.188 18.3763 105.076 18.5536 104.852C18.7403 104.628 18.8803 104.329 18.9736 103.956C19.0669 103.583 19.1323 103.163 19.1696 102.696C19.2069 102.22 19.2396 101.744 19.2676 101.268L19.3936 98.65H24.7836V106H23.7896V99.224L24.0416 99.518H20.0376L20.2756 99.21L20.1636 101.338C20.1356 101.973 20.0843 102.579 20.0096 103.158C19.9443 103.737 19.8369 104.245 19.6876 104.684C19.5476 105.123 19.3516 105.468 19.0996 105.72C18.8476 105.963 18.5256 106.084 18.1336 106.084C18.0216 106.084 17.9049 106.075 17.7836 106.056C17.6716 106.037 17.5503 106.014 17.4196 105.986ZM32.1733 106V104.376L32.1313 104.11V101.394C32.1313 100.769 31.954 100.288 31.5993 99.952C31.254 99.616 30.736 99.448 30.0453 99.448C29.5693 99.448 29.1166 99.5273 28.6873 99.686C28.258 99.8447 27.894 100.055 27.5953 100.316L27.1473 99.574C27.5206 99.2567 27.9686 99.014 28.4913 98.846C29.014 98.6687 29.5646 98.58 30.1433 98.58C31.0953 98.58 31.828 98.818 32.3413 99.294C32.864 99.7607 33.1253 100.475 33.1253 101.436V106H32.1733ZM29.6393 106.07C29.0886 106.07 28.608 105.981 28.1973 105.804C27.796 105.617 27.488 105.365 27.2733 105.048C27.0586 104.721 26.9513 104.348 26.9513 103.928C26.9513 103.545 27.04 103.2 27.2173 102.892C27.404 102.575 27.7026 102.323 28.1133 102.136C28.5333 101.94 29.0933 101.842 29.7933 101.842H32.3273V102.584H29.8213C29.112 102.584 28.6173 102.71 28.3373 102.962C28.0666 103.214 27.9313 103.527 27.9313 103.9C27.9313 104.32 28.0946 104.656 28.4213 104.908C28.748 105.16 29.2053 105.286 29.7933 105.286C30.3533 105.286 30.834 105.16 31.2353 104.908C31.646 104.647 31.9446 104.273 32.1313 103.788L32.3553 104.474C32.1686 104.959 31.842 105.347 31.3753 105.636C30.918 105.925 30.3393 106.07 29.6393 106.07ZM35.7714 106V98.65H36.7654V101.898H41.3994V98.65H42.3934V106H41.3994V102.752H36.7654V106H35.7714ZM48.2987 106.07C47.5707 106.07 46.9174 105.911 46.3387 105.594C45.7694 105.267 45.3214 104.824 44.9947 104.264C44.668 103.695 44.5047 103.046 44.5047 102.318C44.5047 101.581 44.668 100.932 44.9947 100.372C45.3214 99.812 45.7694 99.3733 46.3387 99.056C46.9174 98.7387 47.5707 98.58 48.2987 98.58C48.924 98.58 49.4887 98.7013 49.9927 98.944C50.4967 99.1867 50.8934 99.5507 51.1827 100.036L50.4407 100.54C50.1887 100.167 49.876 99.8913 49.5027 99.714C49.1294 99.5367 48.7234 99.448 48.2847 99.448C47.762 99.448 47.2907 99.5693 46.8707 99.812C46.4507 100.045 46.1194 100.377 45.8767 100.806C45.634 101.235 45.5127 101.739 45.5127 102.318C45.5127 102.897 45.634 103.401 45.8767 103.83C46.1194 104.259 46.4507 104.595 46.8707 104.838C47.2907 105.071 47.762 105.188 48.2847 105.188C48.7234 105.188 49.1294 105.099 49.5027 104.922C49.876 104.745 50.1887 104.474 50.4407 104.11L51.1827 104.614C50.8934 105.09 50.4967 105.454 49.9927 105.706C49.4887 105.949 48.924 106.07 48.2987 106.07ZM56.7714 106V98.65H57.7794L61.1114 104.292H60.6914L64.0794 98.65H65.0034V106H64.0934V99.784L64.2754 99.868L61.1114 105.104H60.6634L57.4714 99.812L57.6814 99.77V106H56.7714ZM70.982 106.07C70.2166 106.07 69.5446 105.911 68.966 105.594C68.3873 105.267 67.9346 104.824 67.608 104.264C67.2813 103.695 67.118 103.046 67.118 102.318C67.118 101.59 67.272 100.946 67.58 100.386C67.8973 99.826 68.3266 99.3873 68.868 99.07C69.4186 98.7433 70.0346 98.58 70.716 98.58C71.4066 98.58 72.018 98.7387 72.55 99.056C73.0913 99.364 73.516 99.8027 73.824 100.372C74.132 100.932 74.286 101.581 74.286 102.318C74.286 102.365 74.2813 102.416 74.272 102.472C74.272 102.519 74.272 102.57 74.272 102.626H67.874V101.884H73.74L73.348 102.178C73.348 101.646 73.2313 101.175 72.998 100.764C72.774 100.344 72.466 100.017 72.074 99.784C71.682 99.5507 71.2293 99.434 70.716 99.434C70.212 99.434 69.7593 99.5507 69.358 99.784C68.9566 100.017 68.644 100.344 68.42 100.764C68.196 101.184 68.084 101.665 68.084 102.206V102.36C68.084 102.92 68.2053 103.415 68.448 103.844C68.7 104.264 69.0453 104.595 69.484 104.838C69.932 105.071 70.4406 105.188 71.01 105.188C71.458 105.188 71.8733 105.109 72.256 104.95C72.648 104.791 72.984 104.549 73.264 104.222L73.824 104.866C73.4973 105.258 73.0866 105.557 72.592 105.762C72.1066 105.967 71.57 106.07 70.982 106.07ZM85.0032 106L82.4832 102.36L83.3092 101.87L86.1932 106H85.0032ZM80.8312 102.724V101.87H83.1552V102.724H80.8312ZM83.4072 102.43L82.4552 102.29L84.9052 98.65H85.9832L83.4072 102.43ZM76.2952 106H75.1052L77.9892 101.87L78.8012 102.36L76.2952 106ZM81.1392 106H80.1452V98.65H81.1392V106ZM80.4532 102.724H78.1432V101.87H80.4532V102.724ZM77.9052 102.43L75.3152 98.65H76.3932L78.8292 102.29L77.9052 102.43ZM92.8876 105.524V99.518H89.3456L89.2616 101.156C89.2429 101.651 89.2103 102.136 89.1636 102.612C89.1263 103.088 89.0563 103.527 88.9536 103.928C88.8603 104.32 88.7249 104.642 88.5476 104.894C88.3703 105.137 88.1416 105.277 87.8616 105.314L86.8676 105.132C87.1569 105.141 87.3949 105.039 87.5816 104.824C87.7683 104.6 87.9129 104.297 88.0156 103.914C88.1183 103.531 88.1929 103.097 88.2396 102.612C88.2863 102.117 88.3236 101.613 88.3516 101.1L88.4496 98.65H93.8816V105.524H92.8876ZM86.5596 107.778V105.132H95.0296V107.778H94.0916V106H87.4976V107.778H86.5596ZM97.0927 108.786C96.7474 108.786 96.4161 108.73 96.0987 108.618C95.7907 108.506 95.5247 108.338 95.3007 108.114L95.7627 107.372C95.9494 107.549 96.1501 107.685 96.3647 107.778C96.5887 107.881 96.8361 107.932 97.1067 107.932C97.4334 107.932 97.7134 107.839 97.9467 107.652C98.1894 107.475 98.4181 107.157 98.6327 106.7L99.1087 105.622L99.2207 105.468L102.245 98.65H103.225L99.5427 106.882C99.3374 107.358 99.1087 107.736 98.8567 108.016C98.6141 108.296 98.3481 108.492 98.0587 108.604C97.7694 108.725 97.4474 108.786 97.0927 108.786ZM99.0527 106.21L95.6647 98.65H96.7007L99.6967 105.398L99.0527 106.21ZM113.827 106L110.803 102.36L111.629 101.87L115.003 106H113.827ZM108.437 106V98.65H109.431V106H108.437ZM109.123 102.724V101.87H111.489V102.724H109.123ZM111.713 102.43L110.789 102.29L113.715 98.65H114.793L111.713 102.43ZM119.336 106.07C118.627 106.07 117.988 105.911 117.418 105.594C116.858 105.267 116.415 104.824 116.088 104.264C115.762 103.695 115.598 103.046 115.598 102.318C115.598 101.581 115.762 100.932 116.088 100.372C116.415 99.812 116.858 99.3733 117.418 99.056C117.978 98.7387 118.618 98.58 119.336 98.58C120.064 98.58 120.708 98.7387 121.268 99.056C121.838 99.3733 122.281 99.812 122.598 100.372C122.925 100.932 123.088 101.581 123.088 102.318C123.088 103.046 122.925 103.695 122.598 104.264C122.281 104.824 121.838 105.267 121.268 105.594C120.699 105.911 120.055 106.07 119.336 106.07ZM119.336 105.188C119.868 105.188 120.34 105.071 120.75 104.838C121.161 104.595 121.483 104.259 121.716 103.83C121.959 103.391 122.08 102.887 122.08 102.318C122.08 101.739 121.959 101.235 121.716 100.806C121.483 100.377 121.161 100.045 120.75 99.812C120.34 99.5693 119.873 99.448 119.35 99.448C118.828 99.448 118.361 99.5693 117.95 99.812C117.54 100.045 117.213 100.377 116.97 100.806C116.728 101.235 116.606 101.739 116.606 102.318C116.606 102.887 116.728 103.391 116.97 103.83C117.213 104.259 117.54 104.595 117.95 104.838C118.361 105.071 118.823 105.188 119.336 105.188ZM125.213 106V98.65H126.221L129.553 104.292H129.133L132.521 98.65H133.445V106H132.535V99.784L132.717 99.868L129.553 105.104H129.105L125.913 99.812L126.123 99.77V106H125.213ZM140.403 106.084C140.403 106.084 140.385 106.084 140.347 106.084C140.31 106.084 140.273 106.084 140.235 106.084C140.207 106.084 140.184 106.084 140.165 106.084C138.709 106.075 137.575 105.743 136.763 105.09C135.951 104.437 135.545 103.508 135.545 102.304C135.545 101.119 135.951 100.204 136.763 99.56C137.585 98.9067 138.737 98.5753 140.221 98.566C140.231 98.566 140.249 98.566 140.277 98.566C140.315 98.566 140.347 98.566 140.375 98.566C140.403 98.566 140.422 98.566 140.431 98.566C141.925 98.5753 143.087 98.9067 143.917 99.56C144.748 100.204 145.163 101.119 145.163 102.304C145.163 103.517 144.743 104.451 143.903 105.104C143.073 105.757 141.906 106.084 140.403 106.084ZM140.389 105.216C141.22 105.216 141.915 105.104 142.475 104.88C143.035 104.647 143.46 104.315 143.749 103.886C144.039 103.457 144.183 102.929 144.183 102.304C144.183 101.697 144.039 101.184 143.749 100.764C143.46 100.335 143.035 100.008 142.475 99.784C141.915 99.56 141.22 99.448 140.389 99.448C140.38 99.448 140.352 99.448 140.305 99.448C140.268 99.448 140.245 99.448 140.235 99.448C139.423 99.448 138.742 99.5647 138.191 99.798C137.641 100.022 137.225 100.344 136.945 100.764C136.665 101.184 136.525 101.697 136.525 102.304C136.525 102.92 136.665 103.443 136.945 103.872C137.235 104.301 137.655 104.633 138.205 104.866C138.756 105.09 139.433 105.207 140.235 105.216C140.254 105.216 140.282 105.216 140.319 105.216C140.357 105.216 140.38 105.216 140.389 105.216ZM139.857 108.716V95.612H140.823V108.716H139.857ZM150.29 106.07C149.58 106.07 148.941 105.911 148.372 105.594C147.812 105.267 147.368 104.824 147.042 104.264C146.715 103.695 146.552 103.046 146.552 102.318C146.552 101.581 146.715 100.932 147.042 100.372C147.368 99.812 147.812 99.3733 148.372 99.056C148.932 98.7387 149.571 98.58 150.29 98.58C151.018 98.58 151.662 98.7387 152.222 99.056C152.791 99.3733 153.234 99.812 153.552 100.372C153.878 100.932 154.042 101.581 154.042 102.318C154.042 103.046 153.878 103.695 153.552 104.264C153.234 104.824 152.791 105.267 152.222 105.594C151.652 105.911 151.008 106.07 150.29 106.07ZM150.29 105.188C150.822 105.188 151.293 105.071 151.704 104.838C152.114 104.595 152.436 104.259 152.67 103.83C152.912 103.391 153.034 102.887 153.034 102.318C153.034 101.739 152.912 101.235 152.67 100.806C152.436 100.377 152.114 100.045 151.704 99.812C151.293 99.5693 150.826 99.448 150.304 99.448C149.781 99.448 149.314 99.5693 148.904 99.812C148.493 100.045 148.166 100.377 147.924 100.806C147.681 101.235 147.56 101.739 147.56 102.318C147.56 102.887 147.681 103.391 147.924 103.83C148.166 104.259 148.493 104.595 148.904 104.838C149.314 105.071 149.776 105.188 150.29 105.188ZM159.96 106.07C159.325 106.07 158.751 105.925 158.238 105.636C157.725 105.337 157.314 104.913 157.006 104.362C156.707 103.802 156.558 103.121 156.558 102.318C156.558 101.515 156.707 100.839 157.006 100.288C157.305 99.728 157.711 99.3033 158.224 99.014C158.737 98.7247 159.316 98.58 159.96 98.58C160.66 98.58 161.285 98.7387 161.836 99.056C162.396 99.364 162.835 99.8027 163.152 100.372C163.469 100.932 163.628 101.581 163.628 102.318C163.628 103.065 163.469 103.718 163.152 104.278C162.835 104.838 162.396 105.277 161.836 105.594C161.285 105.911 160.66 106.07 159.96 106.07ZM156.166 108.716V98.65H157.118V100.862L157.02 102.332L157.16 103.816V108.716H156.166ZM159.89 105.188C160.413 105.188 160.879 105.071 161.29 104.838C161.701 104.595 162.027 104.259 162.27 103.83C162.513 103.391 162.634 102.887 162.634 102.318C162.634 101.749 162.513 101.249 162.27 100.82C162.027 100.391 161.701 100.055 161.29 99.812C160.879 99.5693 160.413 99.448 159.89 99.448C159.367 99.448 158.896 99.5693 158.476 99.812C158.065 100.055 157.739 100.391 157.496 100.82C157.263 101.249 157.146 101.749 157.146 102.318C157.146 102.887 157.263 103.391 157.496 103.83C157.739 104.259 158.065 104.595 158.476 104.838C158.896 105.071 159.367 105.188 159.89 105.188ZM166.89 106V99.252L167.142 99.518H164.104V98.65H170.67V99.518H167.632L167.884 99.252V106H166.89ZM174.79 106.07C174.08 106.07 173.441 105.911 172.872 105.594C172.312 105.267 171.868 104.824 171.542 104.264C171.215 103.695 171.052 103.046 171.052 102.318C171.052 101.581 171.215 100.932 171.542 100.372C171.868 99.812 172.312 99.3733 172.872 99.056C173.432 98.7387 174.071 98.58 174.79 98.58C175.518 98.58 176.162 98.7387 176.722 99.056C177.291 99.3733 177.734 99.812 178.052 100.372C178.378 100.932 178.542 101.581 178.542 102.318C178.542 103.046 178.378 103.695 178.052 104.264C177.734 104.824 177.291 105.267 176.722 105.594C176.152 105.911 175.508 106.07 174.79 106.07ZM174.79 105.188C175.322 105.188 175.793 105.071 176.204 104.838C176.614 104.595 176.936 104.259 177.17 103.83C177.412 103.391 177.534 102.887 177.534 102.318C177.534 101.739 177.412 101.235 177.17 100.806C176.936 100.377 176.614 100.045 176.204 99.812C175.793 99.5693 175.326 99.448 174.804 99.448C174.281 99.448 173.814 99.5693 173.404 99.812C172.993 100.045 172.666 100.377 172.424 100.806C172.181 101.235 172.06 101.739 172.06 102.318C172.06 102.887 172.181 103.391 172.424 103.83C172.666 104.259 172.993 104.595 173.404 104.838C173.814 105.071 174.276 105.188 174.79 105.188ZM180.666 106V98.65H181.674L185.006 104.292H184.586L187.974 98.65H188.898V106H187.988V99.784L188.17 99.868L185.006 105.104H184.558L181.366 99.812L181.576 99.77V106H180.666ZM191.097 108.044L191.713 105.454L191.825 106.056C191.61 106.056 191.428 105.986 191.279 105.846C191.139 105.706 191.069 105.524 191.069 105.3C191.069 105.076 191.139 104.894 191.279 104.754C191.428 104.614 191.605 104.544 191.811 104.544C192.025 104.544 192.198 104.619 192.329 104.768C192.469 104.917 192.539 105.095 192.539 105.3C192.539 105.375 192.534 105.449 192.525 105.524C192.515 105.599 192.497 105.683 192.469 105.776C192.441 105.869 192.403 105.981 192.357 106.112L191.769 108.044H191.097ZM203.397 105.524V99.518H199.855L199.771 101.156C199.753 101.651 199.72 102.136 199.673 102.612C199.636 103.088 199.566 103.527 199.463 103.928C199.37 104.32 199.235 104.642 199.057 104.894C198.88 105.137 198.651 105.277 198.371 105.314L197.377 105.132C197.667 105.141 197.905 105.039 198.091 104.824C198.278 104.6 198.423 104.297 198.525 103.914C198.628 103.531 198.703 103.097 198.749 102.612C198.796 102.117 198.833 101.613 198.861 101.1L198.959 98.65H204.391V105.524H203.397ZM197.069 107.778V105.132H205.539V107.778H204.601V106H198.007V107.778H197.069ZM210.501 106.07C209.791 106.07 209.152 105.911 208.583 105.594C208.023 105.267 207.579 104.824 207.253 104.264C206.926 103.695 206.763 103.046 206.763 102.318C206.763 101.581 206.926 100.932 207.253 100.372C207.579 99.812 208.023 99.3733 208.583 99.056C209.143 98.7387 209.782 98.58 210.501 98.58C211.229 98.58 211.873 98.7387 212.433 99.056C213.002 99.3733 213.445 99.812 213.763 100.372C214.089 100.932 214.253 101.581 214.253 102.318C214.253 103.046 214.089 103.695 213.763 104.264C213.445 104.824 213.002 105.267 212.433 105.594C211.863 105.911 211.219 106.07 210.501 106.07ZM210.501 105.188C211.033 105.188 211.504 105.071 211.915 104.838C212.325 104.595 212.647 104.259 212.881 103.83C213.123 103.391 213.245 102.887 213.245 102.318C213.245 101.739 213.123 101.235 212.881 100.806C212.647 100.377 212.325 100.045 211.915 99.812C211.504 99.5693 211.037 99.448 210.515 99.448C209.992 99.448 209.525 99.5693 209.115 99.812C208.704 100.045 208.377 100.377 208.135 100.806C207.892 101.235 207.771 101.739 207.771 102.318C207.771 102.887 207.892 103.391 208.135 103.83C208.377 104.259 208.704 104.595 209.115 104.838C209.525 105.071 209.987 105.188 210.501 105.188ZM214.992 105.986L215.062 105.132C215.127 105.141 215.188 105.155 215.244 105.174C215.309 105.183 215.365 105.188 215.412 105.188C215.711 105.188 215.949 105.076 216.126 104.852C216.313 104.628 216.453 104.329 216.546 103.956C216.639 103.583 216.705 103.163 216.742 102.696C216.779 102.22 216.812 101.744 216.84 101.268L216.966 98.65H222.356V106H221.362V99.224L221.614 99.518H217.61L217.848 99.21L217.736 101.338C217.708 101.973 217.657 102.579 217.582 103.158C217.517 103.737 217.409 104.245 217.26 104.684C217.12 105.123 216.924 105.468 216.672 105.72C216.42 105.963 216.098 106.084 215.706 106.084C215.594 106.084 215.477 106.075 215.356 106.056C215.244 106.037 215.123 106.014 214.992 105.986ZM225.182 106V98.65H230.39V99.518H225.924L226.176 99.266V106H225.182ZM234.508 106.07C233.799 106.07 233.16 105.911 232.59 105.594C232.03 105.267 231.587 104.824 231.26 104.264C230.934 103.695 230.77 103.046 230.77 102.318C230.77 101.581 230.934 100.932 231.26 100.372C231.587 99.812 232.03 99.3733 232.59 99.056C233.15 98.7387 233.79 98.58 234.508 98.58C235.236 98.58 235.88 98.7387 236.44 99.056C237.01 99.3733 237.453 99.812 237.77 100.372C238.097 100.932 238.26 101.581 238.26 102.318C238.26 103.046 238.097 103.695 237.77 104.264C237.453 104.824 237.01 105.267 236.44 105.594C235.871 105.911 235.227 106.07 234.508 106.07ZM234.508 105.188C235.04 105.188 235.512 105.071 235.922 104.838C236.333 104.595 236.655 104.259 236.888 103.83C237.131 103.391 237.252 102.887 237.252 102.318C237.252 101.739 237.131 101.235 236.888 100.806C236.655 100.377 236.333 100.045 235.922 99.812C235.512 99.5693 235.045 99.448 234.522 99.448C234 99.448 233.533 99.5693 233.122 99.812C232.712 100.045 232.385 100.377 232.142 100.806C231.9 101.235 231.778 101.739 231.778 102.318C231.778 102.887 231.9 103.391 232.142 103.83C232.385 104.259 232.712 104.595 233.122 104.838C233.533 105.071 233.995 105.188 234.508 105.188ZM240.385 106V98.65H243.633C244.463 98.65 245.117 98.8087 245.593 99.126C246.078 99.4433 246.321 99.91 246.321 100.526C246.321 101.123 246.092 101.585 245.635 101.912C245.177 102.229 244.575 102.388 243.829 102.388L244.025 102.094C244.902 102.094 245.546 102.257 245.957 102.584C246.367 102.911 246.573 103.382 246.573 103.998C246.573 104.633 246.339 105.127 245.873 105.482C245.415 105.827 244.701 106 243.731 106H240.385ZM241.351 105.216H243.689C244.314 105.216 244.785 105.118 245.103 104.922C245.429 104.717 245.593 104.39 245.593 103.942C245.593 103.494 245.448 103.167 245.159 102.962C244.869 102.757 244.412 102.654 243.787 102.654H241.351V105.216ZM241.351 101.912H243.563C244.132 101.912 244.566 101.805 244.865 101.59C245.173 101.375 245.327 101.063 245.327 100.652C245.327 100.241 245.173 99.9333 244.865 99.728C244.566 99.5227 244.132 99.42 243.563 99.42H241.351V101.912ZM252.052 106.07C251.287 106.07 250.615 105.911 250.036 105.594C249.458 105.267 249.005 104.824 248.678 104.264C248.352 103.695 248.188 103.046 248.188 102.318C248.188 101.59 248.342 100.946 248.65 100.386C248.968 99.826 249.397 99.3873 249.938 99.07C250.489 98.7433 251.105 98.58 251.786 98.58C252.477 98.58 253.088 98.7387 253.62 99.056C254.162 99.364 254.586 99.8027 254.894 100.372C255.202 100.932 255.356 101.581 255.356 102.318C255.356 102.365 255.352 102.416 255.342 102.472C255.342 102.519 255.342 102.57 255.342 102.626H248.944V101.884H254.81L254.418 102.178C254.418 101.646 254.302 101.175 254.068 100.764C253.844 100.344 253.536 100.017 253.144 99.784C252.752 99.5507 252.3 99.434 251.786 99.434C251.282 99.434 250.83 99.5507 250.428 99.784C250.027 100.017 249.714 100.344 249.49 100.764C249.266 101.184 249.154 101.665 249.154 102.206V102.36C249.154 102.92 249.276 103.415 249.518 103.844C249.77 104.264 250.116 104.595 250.554 104.838C251.002 105.071 251.511 105.188 252.08 105.188C252.528 105.188 252.944 105.109 253.326 104.95C253.718 104.791 254.054 104.549 254.334 104.222L254.894 104.866C254.568 105.258 254.157 105.557 253.662 105.762C253.177 105.967 252.64 106.07 252.052 106.07ZM262.205 102.892C261.775 103.079 261.341 103.228 260.903 103.34C260.473 103.443 260.044 103.494 259.615 103.494C258.747 103.494 258.061 103.298 257.557 102.906C257.053 102.505 256.801 101.889 256.801 101.058V98.65H257.781V101.002C257.781 101.562 257.963 101.982 258.327 102.262C258.691 102.542 259.181 102.682 259.797 102.682C260.17 102.682 260.562 102.635 260.973 102.542C261.383 102.439 261.799 102.295 262.219 102.108L262.205 102.892ZM262.121 106V98.65H263.115V106H262.121ZM265.937 106V98.65H266.931V101.898H271.565V98.65H272.559V106H271.565V102.752H266.931V106H265.937ZM278.409 106.07C277.699 106.07 277.06 105.911 276.491 105.594C275.931 105.267 275.487 104.824 275.161 104.264C274.834 103.695 274.671 103.046 274.671 102.318C274.671 101.581 274.834 100.932 275.161 100.372C275.487 99.812 275.931 99.3733 276.491 99.056C277.051 98.7387 277.69 98.58 278.409 98.58C279.137 98.58 279.781 98.7387 280.341 99.056C280.91 99.3733 281.353 99.812 281.671 100.372C281.997 100.932 282.161 101.581 282.161 102.318C282.161 103.046 281.997 103.695 281.671 104.264C281.353 104.824 280.91 105.267 280.341 105.594C279.771 105.911 279.127 106.07 278.409 106.07ZM278.409 105.188C278.941 105.188 279.412 105.071 279.823 104.838C280.233 104.595 280.555 104.259 280.789 103.83C281.031 103.391 281.153 102.887 281.153 102.318C281.153 101.739 281.031 101.235 280.789 100.806C280.555 100.377 280.233 100.045 279.823 99.812C279.412 99.5693 278.945 99.448 278.423 99.448C277.9 99.448 277.433 99.5693 277.023 99.812C276.612 100.045 276.285 100.377 276.043 100.806C275.8 101.235 275.679 101.739 275.679 102.318C275.679 102.887 275.8 103.391 276.043 103.83C276.285 104.259 276.612 104.595 277.023 104.838C277.433 105.071 277.895 105.188 278.409 105.188ZM287.365 106.07C286.637 106.07 285.984 105.911 285.405 105.594C284.836 105.267 284.388 104.824 284.061 104.264C283.734 103.695 283.571 103.046 283.571 102.318C283.571 101.581 283.734 100.932 284.061 100.372C284.388 99.812 284.836 99.3733 285.405 99.056C285.984 98.7387 286.637 98.58 287.365 98.58C287.99 98.58 288.555 98.7013 289.059 98.944C289.563 99.1867 289.96 99.5507 290.249 100.036L289.507 100.54C289.255 100.167 288.942 99.8913 288.569 99.714C288.196 99.5367 287.79 99.448 287.351 99.448C286.828 99.448 286.357 99.5693 285.937 99.812C285.517 100.045 285.186 100.377 284.943 100.806C284.7 101.235 284.579 101.739 284.579 102.318C284.579 102.897 284.7 103.401 284.943 103.83C285.186 104.259 285.517 104.595 285.937 104.838C286.357 105.071 286.828 105.188 287.351 105.188C287.79 105.188 288.196 105.099 288.569 104.922C288.942 104.745 289.255 104.474 289.507 104.11L290.249 104.614C289.96 105.09 289.563 105.454 289.059 105.706C288.555 105.949 287.99 106.07 287.365 106.07ZM293.437 106V99.252L293.689 99.518H290.651V98.65H297.217V99.518H294.179L294.431 99.252V106H293.437ZM301.818 101.24C302.742 101.249 303.442 101.455 303.918 101.856C304.404 102.257 304.646 102.836 304.646 103.592C304.646 104.376 304.385 104.978 303.862 105.398C303.349 105.818 302.602 106.023 301.622 106.014L298.654 106V98.65H299.648V101.212L301.818 101.24ZM301.566 105.258C302.248 105.267 302.761 105.132 303.106 104.852C303.461 104.563 303.638 104.143 303.638 103.592C303.638 103.041 303.466 102.64 303.12 102.388C302.775 102.127 302.257 101.991 301.566 101.982L299.648 101.954V105.23L301.566 105.258ZM306.543 106V98.65H307.537V101.814H309.777V102.724H307.537V106H306.543ZM312.871 106.07C312.171 106.07 311.541 105.911 310.981 105.594C310.43 105.267 309.996 104.824 309.679 104.264C309.362 103.695 309.203 103.046 309.203 102.318C309.203 101.581 309.362 100.932 309.679 100.372C309.996 99.812 310.43 99.3733 310.981 99.056C311.541 98.7387 312.171 98.58 312.871 98.58C313.571 98.58 314.196 98.7387 314.747 99.056C315.298 99.3733 315.732 99.812 316.049 100.372C316.366 100.932 316.525 101.581 316.525 102.318C316.525 103.046 316.366 103.695 316.049 104.264C315.732 104.824 315.298 105.267 314.747 105.594C314.196 105.911 313.571 106.07 312.871 106.07ZM312.871 105.202C313.384 105.202 313.842 105.081 314.243 104.838C314.644 104.595 314.962 104.259 315.195 103.83C315.428 103.391 315.545 102.887 315.545 102.318C315.545 101.739 315.428 101.235 315.195 100.806C314.962 100.377 314.644 100.045 314.243 99.812C313.842 99.5693 313.384 99.448 312.871 99.448C312.367 99.448 311.91 99.5693 311.499 99.812C311.098 100.045 310.78 100.377 310.547 100.806C310.314 101.235 310.197 101.739 310.197 102.318C310.197 102.887 310.314 103.391 310.547 103.83C310.78 104.259 311.098 104.595 311.499 104.838C311.91 105.081 312.367 105.202 312.871 105.202ZM1.414 128V120.65H2.408V126.488L7.322 120.65H8.204V128H7.21V122.148L2.31 128H1.414ZM14.7167 128V120.65H17.9647C18.7954 120.65 19.4487 120.809 19.9247 121.126C20.4101 121.443 20.6527 121.91 20.6527 122.526C20.6527 123.123 20.4241 123.585 19.9667 123.912C19.5094 124.229 18.9074 124.388 18.1607 124.388L18.3567 124.094C19.2341 124.094 19.8781 124.257 20.2887 124.584C20.6994 124.911 20.9047 125.382 20.9047 125.998C20.9047 126.633 20.6714 127.127 20.2047 127.482C19.7474 127.827 19.0334 128 18.0627 128H14.7167ZM15.6827 127.216H18.0207C18.6461 127.216 19.1174 127.118 19.4347 126.922C19.7614 126.717 19.9247 126.39 19.9247 125.942C19.9247 125.494 19.7801 125.167 19.4907 124.962C19.2014 124.757 18.7441 124.654 18.1187 124.654H15.6827V127.216ZM15.6827 123.912H17.8947C18.4641 123.912 18.8981 123.805 19.1967 123.59C19.5047 123.375 19.6587 123.063 19.6587 122.652C19.6587 122.241 19.5047 121.933 19.1967 121.728C18.8981 121.523 18.4641 121.42 17.8947 121.42H15.6827V123.912ZM23.2343 128V120.65H24.2283V123.898H28.8623V120.65H29.8563V128H28.8623V124.752H24.2283V128H23.2343ZM35.8316 128.07C35.0662 128.07 34.3942 127.911 33.8156 127.594C33.2369 127.267 32.7842 126.824 32.4576 126.264C32.1309 125.695 31.9676 125.046 31.9676 124.318C31.9676 123.59 32.1216 122.946 32.4296 122.386C32.7469 121.826 33.1762 121.387 33.7176 121.07C34.2682 120.743 34.8842 120.58 35.5656 120.58C36.2562 120.58 36.8676 120.739 37.3996 121.056C37.9409 121.364 38.3656 121.803 38.6736 122.372C38.9816 122.932 39.1356 123.581 39.1356 124.318C39.1356 124.365 39.1309 124.416 39.1216 124.472C39.1216 124.519 39.1216 124.57 39.1216 124.626H32.7236V123.884H38.5896L38.1976 124.178C38.1976 123.646 38.0809 123.175 37.8476 122.764C37.6236 122.344 37.3156 122.017 36.9236 121.784C36.5316 121.551 36.0789 121.434 35.5656 121.434C35.0616 121.434 34.6089 121.551 34.2076 121.784C33.8062 122.017 33.4936 122.344 33.2696 122.764C33.0456 123.184 32.9336 123.665 32.9336 124.206V124.36C32.9336 124.92 33.0549 125.415 33.2976 125.844C33.5496 126.264 33.8949 126.595 34.3336 126.838C34.7816 127.071 35.2902 127.188 35.8596 127.188C36.3076 127.188 36.7229 127.109 37.1056 126.95C37.4976 126.791 37.8336 126.549 38.1136 126.222L38.6736 126.866C38.3469 127.258 37.9362 127.557 37.4416 127.762C36.9562 127.967 36.4196 128.07 35.8316 128.07ZM46.1659 127.132L45.9419 127.398V120.65H46.9359V127.398L46.6699 127.132H50.7719L50.5059 127.398V120.65H51.4999V128H41.3359V120.65H42.3299V127.398L42.0779 127.132H46.1659ZM54.3242 128V120.65H55.3182V123.898H59.9522V120.65H60.9462V128H59.9522V124.752H55.3182V128H54.3242ZM63.7714 128V120.65H64.7654V126.488L69.6794 120.65H70.5614V128H69.5674V122.148L64.6674 128H63.7714ZM73.4101 128V120.65H74.4181L77.7501 126.292H77.3301L80.7181 120.65H81.6421V128H80.7321V121.784L80.9141 121.868L77.7501 127.104H77.3021L74.1101 121.812L74.3201 121.77V128H73.4101ZM88.1347 128V120.65H91.3827C92.2134 120.65 92.8667 120.809 93.3427 121.126C93.828 121.443 94.0707 121.91 94.0707 122.526C94.0707 123.123 93.842 123.585 93.3847 123.912C92.9274 124.229 92.3254 124.388 91.5787 124.388L91.7747 124.094C92.652 124.094 93.296 124.257 93.7067 124.584C94.1174 124.911 94.3227 125.382 94.3227 125.998C94.3227 126.633 94.0894 127.127 93.6227 127.482C93.1654 127.827 92.4514 128 91.4807 128H88.1347ZM89.1007 127.216H91.4387C92.064 127.216 92.5354 127.118 92.8527 126.922C93.1794 126.717 93.3427 126.39 93.3427 125.942C93.3427 125.494 93.198 125.167 92.9087 124.962C92.6194 124.757 92.162 124.654 91.5367 124.654H89.1007V127.216ZM89.1007 123.912H91.3127C91.882 123.912 92.316 123.805 92.6147 123.59C92.9227 123.375 93.0767 123.063 93.0767 122.652C93.0767 122.241 92.9227 121.933 92.6147 121.728C92.316 121.523 91.882 121.42 91.3127 121.42H89.1007V123.912ZM96.6523 128V120.65H97.6463V126.488L102.56 120.65H103.442V128H102.448V122.148L97.5483 128H96.6523ZM111.331 127.524V121.518H107.789L107.705 123.156C107.686 123.651 107.654 124.136 107.607 124.612C107.57 125.088 107.5 125.527 107.397 125.928C107.304 126.32 107.168 126.642 106.991 126.894C106.814 127.137 106.585 127.277 106.305 127.314L105.311 127.132C105.6 127.141 105.838 127.039 106.025 126.824C106.212 126.6 106.356 126.297 106.459 125.914C106.562 125.531 106.636 125.097 106.683 124.612C106.73 124.117 106.767 123.613 106.795 123.1L106.893 120.65H112.325V127.524H111.331ZM105.003 129.778V127.132H113.473V129.778H112.535V128H105.941V129.778H105.003ZM118.434 128.07C117.725 128.07 117.085 127.911 116.516 127.594C115.956 127.267 115.513 126.824 115.186 126.264C114.859 125.695 114.696 125.046 114.696 124.318C114.696 123.581 114.859 122.932 115.186 122.372C115.513 121.812 115.956 121.373 116.516 121.056C117.076 120.739 117.715 120.58 118.434 120.58C119.162 120.58 119.806 120.739 120.366 121.056C120.935 121.373 121.379 121.812 121.696 122.372C122.023 122.932 122.186 123.581 122.186 124.318C122.186 125.046 122.023 125.695 121.696 126.264C121.379 126.824 120.935 127.267 120.366 127.594C119.797 127.911 119.153 128.07 118.434 128.07ZM118.434 127.188C118.966 127.188 119.437 127.071 119.848 126.838C120.259 126.595 120.581 126.259 120.814 125.83C121.057 125.391 121.178 124.887 121.178 124.318C121.178 123.739 121.057 123.235 120.814 122.806C120.581 122.377 120.259 122.045 119.848 121.812C119.437 121.569 118.971 121.448 118.448 121.448C117.925 121.448 117.459 121.569 117.048 121.812C116.637 122.045 116.311 122.377 116.068 122.806C115.825 123.235 115.704 123.739 115.704 124.318C115.704 124.887 115.825 125.391 116.068 125.83C116.311 126.259 116.637 126.595 117.048 126.838C117.459 127.071 117.921 127.188 118.434 127.188ZM124.31 128V120.65H125.318L128.65 126.292H128.23L131.618 120.65H132.542V128H131.632V121.784L131.814 121.868L128.65 127.104H128.202L125.01 121.812L125.22 121.77V128H124.31ZM142.115 128.07C141.387 128.07 140.734 127.911 140.155 127.594C139.586 127.267 139.138 126.824 138.811 126.264C138.484 125.695 138.321 125.046 138.321 124.318C138.321 123.581 138.484 122.932 138.811 122.372C139.138 121.812 139.586 121.373 140.155 121.056C140.734 120.739 141.387 120.58 142.115 120.58C142.74 120.58 143.305 120.701 143.809 120.944C144.313 121.187 144.71 121.551 144.999 122.036L144.257 122.54C144.005 122.167 143.692 121.891 143.319 121.714C142.946 121.537 142.54 121.448 142.101 121.448C141.578 121.448 141.107 121.569 140.687 121.812C140.267 122.045 139.936 122.377 139.693 122.806C139.45 123.235 139.329 123.739 139.329 124.318C139.329 124.897 139.45 125.401 139.693 125.83C139.936 126.259 140.267 126.595 140.687 126.838C141.107 127.071 141.578 127.188 142.101 127.188C142.54 127.188 142.946 127.099 143.319 126.922C143.692 126.745 144.005 126.474 144.257 126.11L144.999 126.614C144.71 127.09 144.313 127.454 143.809 127.706C143.305 127.949 142.74 128.07 142.115 128.07ZM151.488 128V126.376L151.446 126.11V123.394C151.446 122.769 151.268 122.288 150.914 121.952C150.568 121.616 150.05 121.448 149.36 121.448C148.884 121.448 148.431 121.527 148.002 121.686C147.572 121.845 147.208 122.055 146.91 122.316L146.462 121.574C146.835 121.257 147.283 121.014 147.806 120.846C148.328 120.669 148.879 120.58 149.458 120.58C150.41 120.58 151.142 120.818 151.656 121.294C152.178 121.761 152.44 122.475 152.44 123.436V128H151.488ZM148.954 128.07C148.403 128.07 147.922 127.981 147.512 127.804C147.11 127.617 146.802 127.365 146.588 127.048C146.373 126.721 146.266 126.348 146.266 125.928C146.266 125.545 146.354 125.2 146.532 124.892C146.718 124.575 147.017 124.323 147.428 124.136C147.848 123.94 148.408 123.842 149.108 123.842H151.642V124.584H149.136C148.426 124.584 147.932 124.71 147.652 124.962C147.381 125.214 147.246 125.527 147.246 125.9C147.246 126.32 147.409 126.656 147.736 126.908C148.062 127.16 148.52 127.286 149.108 127.286C149.668 127.286 150.148 127.16 150.55 126.908C150.96 126.647 151.259 126.273 151.446 125.788L151.67 126.474C151.483 126.959 151.156 127.347 150.69 127.636C150.232 127.925 149.654 128.07 148.954 128.07ZM153.742 127.986L153.812 127.132C153.877 127.141 153.938 127.155 153.994 127.174C154.059 127.183 154.115 127.188 154.162 127.188C154.461 127.188 154.699 127.076 154.876 126.852C155.063 126.628 155.203 126.329 155.296 125.956C155.389 125.583 155.455 125.163 155.492 124.696C155.529 124.22 155.562 123.744 155.59 123.268L155.716 120.65H161.106V128H160.112V121.224L160.364 121.518H156.36L156.598 121.21L156.486 123.338C156.458 123.973 156.407 124.579 156.332 125.158C156.267 125.737 156.159 126.245 156.01 126.684C155.87 127.123 155.674 127.468 155.422 127.72C155.17 127.963 154.848 128.084 154.456 128.084C154.344 128.084 154.227 128.075 154.106 128.056C153.994 128.037 153.873 128.014 153.742 127.986ZM166.956 128.07C166.246 128.07 165.607 127.911 165.038 127.594C164.478 127.267 164.034 126.824 163.708 126.264C163.381 125.695 163.218 125.046 163.218 124.318C163.218 123.581 163.381 122.932 163.708 122.372C164.034 121.812 164.478 121.373 165.038 121.056C165.598 120.739 166.237 120.58 166.956 120.58C167.684 120.58 168.328 120.739 168.888 121.056C169.457 121.373 169.9 121.812 170.218 122.372C170.544 122.932 170.708 123.581 170.708 124.318C170.708 125.046 170.544 125.695 170.218 126.264C169.9 126.824 169.457 127.267 168.888 127.594C168.318 127.911 167.674 128.07 166.956 128.07ZM166.956 127.188C167.488 127.188 167.959 127.071 168.37 126.838C168.78 126.595 169.102 126.259 169.336 125.83C169.578 125.391 169.7 124.887 169.7 124.318C169.7 123.739 169.578 123.235 169.336 122.806C169.102 122.377 168.78 122.045 168.37 121.812C167.959 121.569 167.492 121.448 166.97 121.448C166.447 121.448 165.98 121.569 165.57 121.812C165.159 122.045 164.832 122.377 164.59 122.806C164.347 123.235 164.226 123.739 164.226 124.318C164.226 124.887 164.347 125.391 164.59 125.83C164.832 126.259 165.159 126.595 165.57 126.838C165.98 127.071 166.442 127.188 166.956 127.188ZM172.832 128V120.65H173.826V123.898H178.46V120.65H179.454V128H178.46V124.752H173.826V128H172.832ZM186.843 128V126.376L186.801 126.11V123.394C186.801 122.769 186.624 122.288 186.269 121.952C185.924 121.616 185.406 121.448 184.715 121.448C184.239 121.448 183.787 121.527 183.357 121.686C182.928 121.845 182.564 122.055 182.265 122.316L181.817 121.574C182.191 121.257 182.639 121.014 183.161 120.846C183.684 120.669 184.235 120.58 184.813 120.58C185.765 120.58 186.498 120.818 187.011 121.294C187.534 121.761 187.795 122.475 187.795 123.436V128H186.843ZM184.309 128.07C183.759 128.07 183.278 127.981 182.867 127.804C182.466 127.617 182.158 127.365 181.943 127.048C181.729 126.721 181.621 126.348 181.621 125.928C181.621 125.545 181.71 125.2 181.887 124.892C182.074 124.575 182.373 124.323 182.783 124.136C183.203 123.94 183.763 123.842 184.463 123.842H186.997V124.584H184.491C183.782 124.584 183.287 124.71 183.007 124.962C182.737 125.214 182.601 125.527 182.601 125.9C182.601 126.32 182.765 126.656 183.091 126.908C183.418 127.16 183.875 127.286 184.463 127.286C185.023 127.286 185.504 127.16 185.905 126.908C186.316 126.647 186.615 126.273 186.801 125.788L187.025 126.474C186.839 126.959 186.512 127.347 186.045 127.636C185.588 127.925 185.009 128.07 184.309 128.07Z" fill="#141414"/>
</svg>
