<svg width="708" height="92" viewBox="0 0 708 92" fill="none" xmlns="http://www.w3.org/2000/svg">
<path d="M2.262 25V6.8H10.738C12.8527 6.8 14.4993 7.20733 15.678 8.022C16.8567 8.83667 17.446 9.998 17.446 11.506C17.446 12.9967 16.8913 14.158 15.782 14.99C14.6727 15.8047 13.1993 16.212 11.362 16.212L11.856 15.12C13.9013 15.12 15.4873 15.5273 16.614 16.342C17.7407 17.1567 18.304 18.3353 18.304 19.878C18.304 21.4727 17.6973 22.7293 16.484 23.648C15.288 24.5493 13.5373 25 11.232 25H2.262ZM6.448 21.88H11.076C12.0467 21.88 12.7833 21.6893 13.286 21.308C13.7887 20.9267 14.04 20.3373 14.04 19.54C14.04 18.7773 13.7887 18.214 13.286 17.85C12.7833 17.4687 12.0467 17.278 11.076 17.278H6.448V21.88ZM6.448 14.34H10.374C11.2927 14.34 11.986 14.158 12.454 13.794C12.922 13.4127 13.156 12.858 13.156 12.13C13.156 11.402 12.922 10.856 12.454 10.492C11.986 10.1107 11.2927 9.92 10.374 9.92H6.448V14.34ZM27.875 25.208C26.3844 25.208 25.0584 24.896 23.897 24.272C22.753 23.648 21.843 22.7987 21.167 21.724C20.5084 20.632 20.179 19.3927 20.179 18.006C20.179 16.602 20.5084 15.3627 21.167 14.288C21.843 13.196 22.753 12.3467 23.897 11.74C25.0584 11.116 26.3844 10.804 27.875 10.804C29.3484 10.804 30.6657 11.116 31.827 11.74C32.9884 12.3467 33.8984 13.1873 34.557 14.262C35.2157 15.3367 35.545 16.5847 35.545 18.006C35.545 19.3927 35.2157 20.632 34.557 21.724C33.8984 22.7987 32.9884 23.648 31.827 24.272C30.6657 24.896 29.3484 25.208 27.875 25.208ZM27.875 21.88C28.551 21.88 29.1577 21.724 29.695 21.412C30.2324 21.1 30.657 20.658 30.969 20.086C31.281 19.4967 31.437 18.8033 31.437 18.006C31.437 17.1913 31.281 16.498 30.969 15.926C30.657 15.354 30.2324 14.912 29.695 14.6C29.1577 14.288 28.551 14.132 27.875 14.132C27.199 14.132 26.5924 14.288 26.055 14.6C25.5177 14.912 25.0844 15.354 24.755 15.926C24.443 16.498 24.287 17.1913 24.287 18.006C24.287 18.8033 24.443 19.4967 24.755 20.086C25.0844 20.658 25.5177 21.1 26.055 21.412C26.5924 21.724 27.199 21.88 27.875 21.88ZM47.7516 23.18V14.34H43.1756L43.0976 16.134C43.063 16.8793 43.0196 17.59 42.9676 18.266C42.9156 18.942 42.8116 19.5573 42.6556 20.112C42.517 20.6493 42.309 21.1087 42.0316 21.49C41.7543 21.854 41.3816 22.1053 40.9136 22.244L36.9096 21.672C37.4123 21.672 37.8196 21.5247 38.1316 21.23C38.4436 20.918 38.6863 20.4933 38.8596 19.956C39.033 19.4013 39.163 18.7773 39.2496 18.084C39.3363 17.3733 39.397 16.628 39.4316 15.848L39.6136 11.012H51.8076V23.18H47.7516ZM36.4416 28.016V21.672H53.8096V28.016H50.0396V25H40.2116V28.016H36.4416ZM56.3621 25V11.012H60.3921V19.332L67.2041 11.012H70.9221V25H66.8921V16.68L60.1061 25H56.3621ZM77.8111 25V13.404L78.7211 14.34H73.0791V11.012H86.5731V14.34H80.9311L81.8411 13.404V25H77.8111ZM94.9892 25.208C93.3945 25.208 91.9905 24.896 90.7772 24.272C89.5812 23.648 88.6538 22.7987 87.9952 21.724C87.3365 20.632 87.0072 19.3927 87.0072 18.006C87.0072 16.602 87.3278 15.3627 87.9692 14.288C88.6278 13.196 89.5205 12.3467 90.6472 11.74C91.7738 11.116 93.0478 10.804 94.4692 10.804C95.8385 10.804 97.0692 11.0987 98.1612 11.688C99.2705 12.26 100.146 13.092 100.787 14.184C101.429 15.2587 101.749 16.55 101.749 18.058C101.749 18.214 101.741 18.396 101.723 18.604C101.706 18.7947 101.689 18.9767 101.671 19.15H90.3092V16.784H99.5392L97.9792 17.486C97.9792 16.758 97.8318 16.1253 97.5372 15.588C97.2425 15.0507 96.8352 14.6347 96.3152 14.34C95.7952 14.028 95.1885 13.872 94.4952 13.872C93.8018 13.872 93.1865 14.028 92.6492 14.34C92.1292 14.6347 91.7218 15.0593 91.4272 15.614C91.1325 16.1513 90.9852 16.7927 90.9852 17.538V18.162C90.9852 18.9247 91.1498 19.6007 91.4792 20.19C91.8258 20.762 92.3025 21.204 92.9092 21.516C93.5332 21.8107 94.2612 21.958 95.0932 21.958C95.8385 21.958 96.4885 21.8453 97.0432 21.62C97.6152 21.3947 98.1352 21.0567 98.6032 20.606L100.761 22.946C100.12 23.674 99.3138 24.2373 98.3432 24.636C97.3725 25.0173 96.2545 25.208 94.9892 25.208ZM102.963 24.974L103.171 21.646C103.275 21.6633 103.379 21.6807 103.483 21.698C103.587 21.698 103.683 21.698 103.769 21.698C104.255 21.698 104.636 21.5593 104.913 21.282C105.191 21.0047 105.399 20.632 105.537 20.164C105.676 19.6787 105.771 19.1327 105.823 18.526C105.893 17.9193 105.945 17.2867 105.979 16.628L106.187 11.012H118.147V25H114.091V13.352L115.001 14.34H108.865L109.723 13.3L109.541 16.81C109.489 18.058 109.385 19.202 109.229 20.242C109.091 21.282 108.857 22.1833 108.527 22.946C108.198 23.6913 107.756 24.272 107.201 24.688C106.647 25.0867 105.936 25.286 105.069 25.286C104.757 25.286 104.428 25.26 104.081 25.208C103.735 25.156 103.362 25.078 102.963 24.974ZM122.048 25V11.012H126.078V19.332L132.89 11.012H136.608V25H132.578V16.68L125.792 25H122.048ZM147.87 25V11.012H155.02C156.771 11.012 158.14 11.3327 159.128 11.974C160.116 12.598 160.61 13.482 160.61 14.626C160.61 15.77 160.142 16.6713 159.206 17.33C158.287 17.9713 157.065 18.292 155.54 18.292L155.956 17.356C157.655 17.356 158.92 17.668 159.752 18.292C160.601 18.916 161.026 19.826 161.026 21.022C161.026 22.2527 160.558 23.2233 159.622 23.934C158.686 24.6447 157.256 25 155.332 25H147.87ZM151.588 22.244H154.994C155.739 22.244 156.294 22.1227 156.658 21.88C157.039 21.62 157.23 21.23 157.23 20.71C157.23 20.1727 157.057 19.7827 156.71 19.54C156.363 19.28 155.817 19.15 155.072 19.15H151.588V22.244ZM151.588 16.758H154.656C155.367 16.758 155.895 16.628 156.242 16.368C156.606 16.108 156.788 15.7353 156.788 15.25C156.788 14.7473 156.606 14.3747 156.242 14.132C155.895 13.8893 155.367 13.768 154.656 13.768H151.588V16.758ZM178.448 25V11.012H182.478V25H178.448ZM171.402 15.484C173.239 15.5013 174.617 15.9173 175.536 16.732C176.472 17.5293 176.94 18.6647 176.94 20.138C176.94 21.6807 176.411 22.8853 175.354 23.752C174.296 24.6013 172.797 25.026 170.856 25.026L164.044 25V11.012H168.074V15.484H171.402ZM170.492 22.14C171.272 22.1573 171.87 21.9927 172.286 21.646C172.702 21.2993 172.91 20.7793 172.91 20.086C172.91 19.3927 172.702 18.8987 172.286 18.604C171.87 18.292 171.272 18.1273 170.492 18.11L168.074 18.084V22.14H170.492ZM193.33 25.312C192.186 25.312 191.146 25.1473 190.21 24.818C189.274 24.4713 188.459 23.9427 187.766 23.232C187.09 22.504 186.561 21.5767 186.18 20.45C185.816 19.3233 185.634 17.98 185.634 16.42C185.634 15.3107 185.729 14.2967 185.92 13.378C186.11 12.4593 186.396 11.6273 186.778 10.882C187.159 10.1193 187.644 9.452 188.234 8.88C188.84 8.29067 189.542 7.80533 190.34 7.424C191.154 7.02533 192.073 6.722 193.096 6.514L199.752 5.188L200.298 8.672L194.422 9.842C194.075 9.91133 193.676 10.0067 193.226 10.128C192.792 10.232 192.35 10.3967 191.9 10.622C191.466 10.8473 191.059 11.168 190.678 11.584C190.314 11.9827 190.019 12.5113 189.794 13.17C189.568 13.8113 189.456 14.6087 189.456 15.562C189.456 15.8567 189.464 16.082 189.482 16.238C189.516 16.394 189.542 16.5587 189.56 16.732C189.594 16.9053 189.612 17.174 189.612 17.538L188.312 16.264C188.693 15.4493 189.178 14.756 189.768 14.184C190.374 13.612 191.068 13.1787 191.848 12.884C192.645 12.572 193.529 12.416 194.5 12.416C195.817 12.416 196.97 12.6847 197.958 13.222C198.963 13.742 199.743 14.4787 200.298 15.432C200.852 16.3853 201.13 17.4687 201.13 18.682C201.13 19.9993 200.8 21.1607 200.142 22.166C199.483 23.154 198.564 23.9253 197.386 24.48C196.224 25.0347 194.872 25.312 193.33 25.312ZM193.538 22.166C194.214 22.166 194.812 22.0187 195.332 21.724C195.852 21.412 196.25 21.0047 196.528 20.502C196.822 19.982 196.97 19.4013 196.97 18.76C196.97 18.136 196.822 17.5813 196.528 17.096C196.25 16.6107 195.852 16.2293 195.332 15.952C194.812 15.6747 194.205 15.536 193.512 15.536C192.836 15.536 192.229 15.6747 191.692 15.952C191.154 16.212 190.738 16.576 190.444 17.044C190.149 17.512 190.002 18.058 190.002 18.682C190.002 19.3233 190.149 19.9127 190.444 20.45C190.756 20.97 191.172 21.386 191.692 21.698C192.229 22.01 192.844 22.166 193.538 22.166ZM203.882 25V11.012H207.912V19.332L214.724 11.012H218.442V25H214.412V16.68L207.626 25H203.882ZM230.583 25.208C229.404 25.208 228.373 24.948 227.489 24.428C226.605 23.908 225.911 23.1193 225.409 22.062C224.923 20.9873 224.681 19.6353 224.681 18.006C224.681 16.3593 224.915 15.0073 225.383 13.95C225.851 12.8927 226.527 12.104 227.411 11.584C228.295 11.064 229.352 10.804 230.583 10.804C231.9 10.804 233.079 11.1073 234.119 11.714C235.176 12.3033 236.008 13.1353 236.615 14.21C237.239 15.2847 237.551 16.55 237.551 18.006C237.551 19.4793 237.239 20.7533 236.615 21.828C236.008 22.9027 235.176 23.7347 234.119 24.324C233.079 24.9133 231.9 25.208 230.583 25.208ZM222.315 30.044V11.012H226.189V13.872L226.111 18.032L226.371 22.166V30.044H222.315ZM229.881 21.88C230.557 21.88 231.155 21.724 231.675 21.412C232.212 21.1 232.637 20.658 232.949 20.086C233.278 19.4967 233.443 18.8033 233.443 18.006C233.443 17.1913 233.278 16.498 232.949 15.926C232.637 15.354 232.212 14.912 231.675 14.6C231.155 14.288 230.557 14.132 229.881 14.132C229.205 14.132 228.598 14.288 228.061 14.6C227.523 14.912 227.099 15.354 226.787 15.926C226.475 16.498 226.319 17.1913 226.319 18.006C226.319 18.8033 226.475 19.4967 226.787 20.086C227.099 20.658 227.523 21.1 228.061 21.412C228.598 21.724 229.205 21.88 229.881 21.88ZM248.537 25V22.27L248.277 21.672V16.784C248.277 15.9173 248.008 15.2413 247.471 14.756C246.951 14.2707 246.145 14.028 245.053 14.028C244.308 14.028 243.571 14.1493 242.843 14.392C242.132 14.6173 241.526 14.9293 241.023 15.328L239.567 12.494C240.33 11.9567 241.248 11.5407 242.323 11.246C243.398 10.9513 244.49 10.804 245.599 10.804C247.731 10.804 249.386 11.3067 250.565 12.312C251.744 13.3173 252.333 14.886 252.333 17.018V25H248.537ZM244.273 25.208C243.181 25.208 242.245 25.026 241.465 24.662C240.685 24.2807 240.087 23.7693 239.671 23.128C239.255 22.4867 239.047 21.7673 239.047 20.97C239.047 20.138 239.246 19.41 239.645 18.786C240.061 18.162 240.711 17.6767 241.595 17.33C242.479 16.966 243.632 16.784 245.053 16.784H248.771V19.15H245.495C244.542 19.15 243.883 19.306 243.519 19.618C243.172 19.93 242.999 20.32 242.999 20.788C242.999 21.308 243.198 21.724 243.597 22.036C244.013 22.3307 244.576 22.478 245.287 22.478C245.963 22.478 246.57 22.322 247.107 22.01C247.644 21.6807 248.034 21.204 248.277 20.58L248.901 22.452C248.606 23.3533 248.069 24.038 247.289 24.506C246.509 24.974 245.504 25.208 244.273 25.208ZM255.856 25V11.012H259.886V16.16H263.994V19.67H259.886V25H255.856ZM269.09 25.208C267.652 25.208 266.369 24.896 265.242 24.272C264.116 23.648 263.232 22.7987 262.59 21.724C261.949 20.632 261.628 19.3927 261.628 18.006C261.628 16.602 261.949 15.3627 262.59 14.288C263.232 13.196 264.116 12.3467 265.242 11.74C266.369 11.116 267.652 10.804 269.09 10.804C270.529 10.804 271.803 11.116 272.912 11.74C274.039 12.3467 274.923 13.196 275.564 14.288C276.206 15.3627 276.526 16.602 276.526 18.006C276.526 19.3927 276.206 20.632 275.564 21.724C274.923 22.816 274.039 23.674 272.912 24.298C271.803 24.9047 270.529 25.208 269.09 25.208ZM269.09 21.88C269.749 21.88 270.33 21.724 270.832 21.412C271.352 21.1 271.76 20.658 272.054 20.086C272.366 19.4967 272.522 18.8033 272.522 18.006C272.522 17.1913 272.366 16.498 272.054 15.926C271.76 15.354 271.352 14.912 270.832 14.6C270.33 14.288 269.749 14.132 269.09 14.132C268.449 14.132 267.86 14.288 267.322 14.6C266.802 14.912 266.386 15.354 266.074 15.926C265.78 16.498 265.632 17.1913 265.632 18.006C265.632 18.8033 265.78 19.4967 266.074 20.086C266.386 20.658 266.802 21.1 267.322 21.412C267.86 21.724 268.449 21.88 269.09 21.88ZM281.825 25V13.404L282.735 14.34H277.093V11.012H290.587V14.34H284.945L285.855 13.404V25H281.825ZM300.112 25V11.012H304.142V19.332L310.954 11.012H314.672V25H310.642V16.68L303.856 25H300.112ZM318.571 25V11.012H322.809L328.087 20.58H326.397L332.039 11.012H335.835L335.887 25H332.221V15.172L332.845 15.588L328.035 23.648H326.319L321.483 15.302L322.237 15.12V25H318.571ZM346.61 25.208C345.016 25.208 343.612 24.896 342.398 24.272C341.202 23.648 340.275 22.7987 339.616 21.724C338.958 20.632 338.628 19.3927 338.628 18.006C338.628 16.602 338.949 15.3627 339.59 14.288C340.249 13.196 341.142 12.3467 342.268 11.74C343.395 11.116 344.669 10.804 346.09 10.804C347.46 10.804 348.69 11.0987 349.782 11.688C350.892 12.26 351.767 13.092 352.408 14.184C353.05 15.2587 353.37 16.55 353.37 18.058C353.37 18.214 353.362 18.396 353.344 18.604C353.327 18.7947 353.31 18.9767 353.292 19.15H341.93V16.784H351.16L349.6 17.486C349.6 16.758 349.453 16.1253 349.158 15.588C348.864 15.0507 348.456 14.6347 347.936 14.34C347.416 14.028 346.81 13.872 346.116 13.872C345.423 13.872 344.808 14.028 344.27 14.34C343.75 14.6347 343.343 15.0593 343.048 15.614C342.754 16.1513 342.606 16.7927 342.606 17.538V18.162C342.606 18.9247 342.771 19.6007 343.1 20.19C343.447 20.762 343.924 21.204 344.53 21.516C345.154 21.8107 345.882 21.958 346.714 21.958C347.46 21.958 348.11 21.8453 348.664 21.62C349.236 21.3947 349.756 21.0567 350.224 20.606L352.382 22.946C351.741 23.674 350.935 24.2373 349.964 24.636C348.994 25.0173 347.876 25.208 346.61 25.208ZM356.479 25V11.012H360.509V16.472H366.593V11.012H370.649V25H366.593V19.774H360.509V25H356.479ZM374.532 25V11.012H378.562V16.472H384.646V11.012H388.702V25H384.646V19.774H378.562V25H374.532ZM399.137 25.208C397.646 25.208 396.32 24.896 395.159 24.272C394.015 23.648 393.105 22.7987 392.429 21.724C391.77 20.632 391.441 19.3927 391.441 18.006C391.441 16.602 391.77 15.3627 392.429 14.288C393.105 13.196 394.015 12.3467 395.159 11.74C396.32 11.116 397.646 10.804 399.137 10.804C400.61 10.804 401.927 11.116 403.089 11.74C404.25 12.3467 405.16 13.1873 405.819 14.262C406.477 15.3367 406.807 16.5847 406.807 18.006C406.807 19.3927 406.477 20.632 405.819 21.724C405.16 22.7987 404.25 23.648 403.089 24.272C401.927 24.896 400.61 25.208 399.137 25.208ZM399.137 21.88C399.813 21.88 400.419 21.724 400.957 21.412C401.494 21.1 401.919 20.658 402.231 20.086C402.543 19.4967 402.699 18.8033 402.699 18.006C402.699 17.1913 402.543 16.498 402.231 15.926C401.919 15.354 401.494 14.912 400.957 14.6C400.419 14.288 399.813 14.132 399.137 14.132C398.461 14.132 397.854 14.288 397.317 14.6C396.779 14.912 396.346 15.354 396.017 15.926C395.705 16.498 395.549 17.1913 395.549 18.006C395.549 18.8033 395.705 19.4967 396.017 20.086C396.346 20.658 396.779 21.1 397.317 21.412C397.854 21.724 398.461 21.88 399.137 21.88ZM416.96 25V11.012H420.99V16.472H427.074V11.012H431.13V25H427.074V19.774H420.99V25H416.96ZM443.385 25V22.27L443.125 21.672V16.784C443.125 15.9173 442.856 15.2413 442.319 14.756C441.799 14.2707 440.993 14.028 439.901 14.028C439.155 14.028 438.419 14.1493 437.691 14.392C436.98 14.6173 436.373 14.9293 435.871 15.328L434.415 12.494C435.177 11.9567 436.096 11.5407 437.171 11.246C438.245 10.9513 439.337 10.804 440.447 10.804C442.579 10.804 444.234 11.3067 445.413 12.312C446.591 13.3173 447.181 14.886 447.181 17.018V25H443.385ZM439.121 25.208C438.029 25.208 437.093 25.026 436.312 24.662C435.533 24.2807 434.935 23.7693 434.519 23.128C434.103 22.4867 433.895 21.7673 433.895 20.97C433.895 20.138 434.094 19.41 434.493 18.786C434.909 18.162 435.559 17.6767 436.443 17.33C437.327 16.966 438.479 16.784 439.901 16.784H443.619V19.15H440.343C439.389 19.15 438.731 19.306 438.367 19.618C438.02 19.93 437.847 20.32 437.847 20.788C437.847 21.308 438.046 21.724 438.445 22.036C438.861 22.3307 439.424 22.478 440.135 22.478C440.811 22.478 441.417 22.322 441.955 22.01C442.492 21.6807 442.882 21.204 443.125 20.58L443.749 22.452C443.454 23.3533 442.917 24.038 442.137 24.506C441.357 24.974 440.351 25.208 439.121 25.208ZM460.246 21.672L459.362 22.608V11.012H463.418V22.608L462.482 21.672H468.93L468.02 22.608V11.012H472.05V25H450.704V11.012H454.734V22.608L453.824 21.672H460.246ZM475.942 25V11.012H479.972V19.332L486.784 11.012H490.502V25H486.472V16.68L479.686 25H475.942ZM510.578 19.644C510.006 19.956 509.374 20.2073 508.68 20.398C507.987 20.5887 507.224 20.684 506.392 20.684C504.555 20.684 503.142 20.268 502.154 19.436C501.166 18.5867 500.672 17.2433 500.672 15.406V11.012H504.728V15.146C504.728 16.0127 504.954 16.6367 505.404 17.018C505.855 17.382 506.488 17.564 507.302 17.564C507.892 17.564 508.455 17.4947 508.992 17.356C509.547 17.2173 510.076 17.018 510.578 16.758V19.644ZM510.292 25V11.012H514.348V25H510.292ZM525.081 25.208C523.486 25.208 522.082 24.896 520.869 24.272C519.673 23.648 518.746 22.7987 518.087 21.724C517.428 20.632 517.099 19.3927 517.099 18.006C517.099 16.602 517.42 15.3627 518.061 14.288C518.72 13.196 519.612 12.3467 520.739 11.74C521.866 11.116 523.14 10.804 524.561 10.804C525.93 10.804 527.161 11.0987 528.253 11.688C529.362 12.26 530.238 13.092 530.879 14.184C531.52 15.2587 531.841 16.55 531.841 18.058C531.841 18.214 531.832 18.396 531.815 18.604C531.798 18.7947 531.78 18.9767 531.763 19.15H520.401V16.784H529.631L528.071 17.486C528.071 16.758 527.924 16.1253 527.629 15.588C527.334 15.0507 526.927 14.6347 526.407 14.34C525.887 14.028 525.28 13.872 524.587 13.872C523.894 13.872 523.278 14.028 522.741 14.34C522.221 14.6347 521.814 15.0593 521.519 15.614C521.224 16.1513 521.077 16.7927 521.077 17.538V18.162C521.077 18.9247 521.242 19.6007 521.571 20.19C521.918 20.762 522.394 21.204 523.001 21.516C523.625 21.8107 524.353 21.958 525.185 21.958C525.93 21.958 526.58 21.8453 527.135 21.62C527.707 21.3947 528.227 21.0567 528.695 20.606L530.853 22.946C530.212 23.674 529.406 24.2373 528.435 24.636C527.464 25.0173 526.346 25.208 525.081 25.208ZM532.697 25L538.963 16.784L538.885 19.02L532.879 11.012H537.429L541.225 16.238L539.509 16.29L543.435 11.012H547.751L541.719 18.942V16.758L547.959 25H543.357L539.379 19.436L541.069 19.67L537.117 25H532.697ZM548.188 24.974L548.396 21.646C548.5 21.6633 548.604 21.6807 548.708 21.698C548.812 21.698 548.907 21.698 548.994 21.698C549.479 21.698 549.861 21.5593 550.138 21.282C550.415 21.0047 550.623 20.632 550.762 20.164C550.901 19.6787 550.996 19.1327 551.048 18.526C551.117 17.9193 551.169 17.2867 551.204 16.628L551.412 11.012H563.372V25H559.316V13.352L560.226 14.34H554.09L554.948 13.3L554.766 16.81C554.714 18.058 554.61 19.202 554.454 20.242C554.315 21.282 554.081 22.1833 553.752 22.946C553.423 23.6913 552.981 24.272 552.426 24.688C551.871 25.0867 551.161 25.286 550.294 25.286C549.982 25.286 549.653 25.26 549.306 25.208C548.959 25.156 548.587 25.078 548.188 24.974ZM581.676 25V11.012H585.706V25H581.676ZM574.63 15.484C576.468 15.5013 577.846 15.9173 578.764 16.732C579.7 17.5293 580.168 18.6647 580.168 20.138C580.168 21.6807 579.64 22.8853 578.582 23.752C577.525 24.6013 576.026 25.026 574.084 25.026L567.272 25V11.012H571.302V15.484H574.63ZM573.72 22.14C574.5 22.1573 575.098 21.9927 575.514 21.646C575.93 21.2993 576.138 20.7793 576.138 20.086C576.138 19.3927 575.93 18.8987 575.514 18.604C575.098 18.292 574.5 18.1273 573.72 18.11L571.302 18.084V22.14H573.72Z" fill="#141414"/>
<path d="M8.358 64L4.592 59.114L5.432 58.61L9.548 64H8.358ZM1.652 64V54.2H2.66V64H1.652ZM2.352 59.506V58.596H5.418V59.506H2.352ZM5.516 59.212L4.564 59.044L8.218 54.2H9.338L5.516 59.212ZM15.5893 64V62.376L15.5473 62.11V59.394C15.5473 58.7687 15.37 58.288 15.0153 57.952C14.67 57.616 14.152 57.448 13.4613 57.448C12.9853 57.448 12.5327 57.5273 12.1033 57.686C11.674 57.8447 11.31 58.0547 11.0113 58.316L10.5633 57.574C10.9367 57.2567 11.3847 57.014 11.9073 56.846C12.43 56.6687 12.9807 56.58 13.5593 56.58C14.5113 56.58 15.244 56.818 15.7573 57.294C16.28 57.7607 16.5413 58.4747 16.5413 59.436V64H15.5893ZM13.0553 64.07C12.5047 64.07 12.024 63.9813 11.6133 63.804C11.212 63.6173 10.904 63.3653 10.6893 63.048C10.4747 62.7213 10.3673 62.348 10.3673 61.928C10.3673 61.5453 10.456 61.2 10.6333 60.892C10.82 60.5747 11.1187 60.3227 11.5293 60.136C11.9493 59.94 12.5093 59.842 13.2093 59.842H15.7433V60.584H13.2373C12.528 60.584 12.0333 60.71 11.7533 60.962C11.4827 61.214 11.3473 61.5267 11.3473 61.9C11.3473 62.32 11.5107 62.656 11.8373 62.908C12.164 63.16 12.6213 63.286 13.2093 63.286C13.7693 63.286 14.25 63.16 14.6513 62.908C15.062 62.6467 15.3607 62.2733 15.5473 61.788L15.7713 62.474C15.5847 62.9593 15.258 63.3467 14.7913 63.636C14.334 63.9253 13.7553 64.07 13.0553 64.07ZM27.9094 64L25.3894 60.36L26.2154 59.87L29.0994 64H27.9094ZM23.7374 60.724V59.87H26.0614V60.724H23.7374ZM26.3134 60.43L25.3614 60.29L27.8114 56.65H28.8894L26.3134 60.43ZM19.2014 64H18.0114L20.8954 59.87L21.7074 60.36L19.2014 64ZM24.0454 64H23.0514V56.65H24.0454V64ZM23.3594 60.724H21.0494V59.87H23.3594V60.724ZM20.8114 60.43L18.2214 56.65H19.2994L21.7354 60.29L20.8114 60.43ZM35.7938 63.524V57.518H32.2518L32.1678 59.156C32.1492 59.6507 32.1165 60.136 32.0698 60.612C32.0325 61.088 31.9625 61.5267 31.8598 61.928C31.7665 62.32 31.6312 62.642 31.4538 62.894C31.2765 63.1367 31.0478 63.2767 30.7678 63.314L29.7738 63.132C30.0632 63.1413 30.3012 63.0387 30.4878 62.824C30.6745 62.6 30.8192 62.2967 30.9218 61.914C31.0245 61.5313 31.0992 61.0973 31.1458 60.612C31.1925 60.1173 31.2298 59.6133 31.2578 59.1L31.3558 56.65H36.7878V63.524H35.7938ZM29.4658 65.778V63.132H37.9358V65.778H36.9978V64H30.4038V65.778H29.4658ZM47.041 64V56.65H48.035V64H47.041ZM42.967 59.24C43.891 59.2493 44.5957 59.4547 45.081 59.856C45.5663 60.2573 45.809 60.836 45.809 61.592C45.809 62.376 45.5477 62.978 45.025 63.398C44.5023 63.818 43.7557 64.0233 42.785 64.014L39.873 64V56.65H40.867V59.212L42.967 59.24ZM42.715 63.258C43.4057 63.2673 43.9237 63.132 44.269 62.852C44.6237 62.5627 44.801 62.1427 44.801 61.592C44.801 61.0413 44.6283 60.64 44.283 60.388C43.9377 60.1267 43.415 59.9913 42.715 59.982L40.867 59.954V63.23L42.715 63.258ZM50.8652 64V56.65H51.8592V62.488L56.7732 56.65H57.6552V64H56.6612V58.148L51.7612 64H50.8652ZM54.1972 55.586C53.5812 55.586 53.0818 55.432 52.6992 55.124C52.3258 54.8067 52.1298 54.354 52.1112 53.766H52.8252C52.8345 54.1393 52.9652 54.4333 53.2172 54.648C53.4692 54.8627 53.7958 54.97 54.1972 54.97C54.5985 54.97 54.9252 54.8627 55.1772 54.648C55.4385 54.4333 55.5738 54.1393 55.5832 53.766H56.2972C56.2878 54.354 56.0918 54.8067 55.7092 55.124C55.3265 55.432 54.8225 55.586 54.1972 55.586ZM69.5579 64L66.5339 60.36L67.3599 59.87L70.7339 64H69.5579ZM64.1679 64V56.65H65.1619V64H64.1679ZM64.8539 60.724V59.87H67.2199V60.724H64.8539ZM67.4439 60.43L66.5199 60.29L69.4459 56.65H70.5239L67.4439 60.43ZM75.0669 64.07C74.3576 64.07 73.7182 63.9113 73.1489 63.594C72.5889 63.2673 72.1456 62.824 71.8189 62.264C71.4922 61.6947 71.3289 61.046 71.3289 60.318C71.3289 59.5807 71.4922 58.932 71.8189 58.372C72.1456 57.812 72.5889 57.3733 73.1489 57.056C73.7089 56.7387 74.3482 56.58 75.0669 56.58C75.7949 56.58 76.4389 56.7387 76.9989 57.056C77.5682 57.3733 78.0116 57.812 78.3289 58.372C78.6556 58.932 78.8189 59.5807 78.8189 60.318C78.8189 61.046 78.6556 61.6947 78.3289 62.264C78.0116 62.824 77.5682 63.2673 76.9989 63.594C76.4296 63.9113 75.7856 64.07 75.0669 64.07ZM75.0669 63.188C75.5989 63.188 76.0702 63.0713 76.4809 62.838C76.8916 62.5953 77.2136 62.2593 77.4469 61.83C77.6896 61.3913 77.8109 60.8873 77.8109 60.318C77.8109 59.7393 77.6896 59.2353 77.4469 58.806C77.2136 58.3767 76.8916 58.0453 76.4809 57.812C76.0702 57.5693 75.6036 57.448 75.0809 57.448C74.5582 57.448 74.0916 57.5693 73.6809 57.812C73.2702 58.0453 72.9436 58.3767 72.7009 58.806C72.4582 59.2353 72.3369 59.7393 72.3369 60.318C72.3369 60.8873 72.4582 61.3913 72.7009 61.83C72.9436 62.2593 73.2702 62.5953 73.6809 62.838C74.0916 63.0713 74.5536 63.188 75.0669 63.188ZM80.9433 64V56.65H81.9513L85.2833 62.292H84.8633L88.2513 56.65H89.1753V64H88.2653V57.784L88.4473 57.868L85.2833 63.104H84.8353L81.6433 57.812L81.8533 57.77V64H80.9433ZM92.0038 64V56.65H98.6118V64H97.6178V57.252L97.8698 57.518H92.7458L92.9978 57.252V64H92.0038ZM100.093 63.986L100.163 63.132C100.229 63.1413 100.289 63.1553 100.345 63.174C100.411 63.1833 100.467 63.188 100.513 63.188C100.812 63.188 101.05 63.076 101.227 62.852C101.414 62.628 101.554 62.3293 101.647 61.956C101.741 61.5827 101.806 61.1627 101.843 60.696C101.881 60.22 101.913 59.744 101.941 59.268L102.067 56.65H107.457V64H106.463V57.224L106.715 57.518H102.711L102.949 57.21L102.837 59.338C102.809 59.9727 102.758 60.5793 102.683 61.158C102.618 61.7367 102.511 62.2453 102.361 62.684C102.221 63.1227 102.025 63.468 101.773 63.72C101.521 63.9627 101.199 64.084 100.807 64.084C100.695 64.084 100.579 64.0747 100.457 64.056C100.345 64.0373 100.224 64.014 100.093 63.986ZM113.433 64.07C112.668 64.07 111.996 63.9113 111.417 63.594C110.838 63.2673 110.386 62.824 110.059 62.264C109.732 61.6947 109.569 61.046 109.569 60.318C109.569 59.59 109.723 58.946 110.031 58.386C110.348 57.826 110.778 57.3873 111.319 57.07C111.87 56.7433 112.486 56.58 113.167 56.58C113.858 56.58 114.469 56.7387 115.001 57.056C115.542 57.364 115.967 57.8027 116.275 58.372C116.583 58.932 116.737 59.5807 116.737 60.318C116.737 60.3647 116.732 60.416 116.723 60.472C116.723 60.5187 116.723 60.57 116.723 60.626H110.325V59.884H116.191L115.799 60.178C115.799 59.646 115.682 59.1747 115.449 58.764C115.225 58.344 114.917 58.0173 114.525 57.784C114.133 57.5507 113.68 57.434 113.167 57.434C112.663 57.434 112.21 57.5507 111.809 57.784C111.408 58.0173 111.095 58.344 110.871 58.764C110.647 59.184 110.535 59.6647 110.535 60.206V60.36C110.535 60.92 110.656 61.4147 110.899 61.844C111.151 62.264 111.496 62.5953 111.935 62.838C112.383 63.0713 112.892 63.188 113.461 63.188C113.909 63.188 114.324 63.1087 114.707 62.95C115.099 62.7913 115.435 62.5487 115.715 62.222L116.275 62.866C115.948 63.258 115.538 63.5567 115.043 63.762C114.558 63.9673 114.021 64.07 113.433 64.07ZM124.327 64L121.303 60.36L122.129 59.87L125.503 64H124.327ZM118.937 64V56.65H119.931V64H118.937ZM119.623 60.724V59.87H121.989V60.724H119.623ZM122.213 60.43L121.289 60.29L124.215 56.65H125.293L122.213 60.43ZM128.322 64V57.252L128.574 57.518H125.536V56.65H132.102V57.518H129.064L129.316 57.252V64H128.322ZM135.789 60.556V59.842H149.789V60.556H135.789ZM155.889 60.64V59.884H160.159V60.64H155.889ZM156.869 56.58C157.616 56.58 158.283 56.7433 158.871 57.07C159.459 57.3873 159.921 57.8307 160.257 58.4C160.602 58.96 160.775 59.5993 160.775 60.318C160.775 61.0367 160.602 61.6807 160.257 62.25C159.921 62.8193 159.459 63.2673 158.871 63.594C158.283 63.9207 157.616 64.084 156.869 64.084C156.262 64.084 155.698 63.9907 155.175 63.804C154.662 63.608 154.228 63.328 153.873 62.964L154.461 62.376C154.778 62.6747 155.138 62.8987 155.539 63.048C155.94 63.188 156.37 63.258 156.827 63.258C157.406 63.258 157.919 63.132 158.367 62.88C158.824 62.6187 159.184 62.2687 159.445 61.83C159.706 61.382 159.837 60.878 159.837 60.318C159.837 59.758 159.706 59.2587 159.445 58.82C159.184 58.372 158.824 58.022 158.367 57.77C157.919 57.518 157.406 57.392 156.827 57.392C156.37 57.392 155.94 57.4667 155.539 57.616C155.138 57.756 154.778 57.9753 154.461 58.274L153.873 57.7C154.228 57.3267 154.662 57.0467 155.175 56.86C155.698 56.6733 156.262 56.58 156.869 56.58ZM163.992 64V57.252L164.244 57.518H161.206V56.65H167.772V57.518H164.734L164.986 57.252V64H163.992ZM171.891 64.07C171.182 64.07 170.542 63.9113 169.973 63.594C169.413 63.2673 168.97 62.824 168.643 62.264C168.316 61.6947 168.153 61.046 168.153 60.318C168.153 59.5807 168.316 58.932 168.643 58.372C168.97 57.812 169.413 57.3733 169.973 57.056C170.533 56.7387 171.172 56.58 171.891 56.58C172.619 56.58 173.263 56.7387 173.823 57.056C174.392 57.3733 174.836 57.812 175.153 58.372C175.48 58.932 175.643 59.5807 175.643 60.318C175.643 61.046 175.48 61.6947 175.153 62.264C174.836 62.824 174.392 63.2673 173.823 63.594C173.254 63.9113 172.61 64.07 171.891 64.07ZM171.891 63.188C172.423 63.188 172.894 63.0713 173.305 62.838C173.716 62.5953 174.038 62.2593 174.271 61.83C174.514 61.3913 174.635 60.8873 174.635 60.318C174.635 59.7393 174.514 59.2353 174.271 58.806C174.038 58.3767 173.716 58.0453 173.305 57.812C172.894 57.5693 172.428 57.448 171.905 57.448C171.382 57.448 170.916 57.5693 170.505 57.812C170.094 58.0453 169.768 58.3767 169.525 58.806C169.282 59.2353 169.161 59.7393 169.161 60.318C169.161 60.8873 169.282 61.3913 169.525 61.83C169.768 62.2593 170.094 62.5953 170.505 62.838C170.916 63.0713 171.378 63.188 171.891 63.188ZM181.432 64V56.65H188.04V64H187.046V57.252L187.298 57.518H182.174L182.426 57.252V64H181.432ZM194.659 64.07C194.025 64.07 193.451 63.9253 192.937 63.636C192.424 63.3373 192.013 62.9127 191.705 62.362C191.407 61.802 191.257 61.1207 191.257 60.318C191.257 59.5153 191.407 58.8387 191.705 58.288C192.004 57.728 192.41 57.3033 192.923 57.014C193.437 56.7247 194.015 56.58 194.659 56.58C195.359 56.58 195.985 56.7387 196.535 57.056C197.095 57.364 197.534 57.8027 197.851 58.372C198.169 58.932 198.327 59.5807 198.327 60.318C198.327 61.0647 198.169 61.718 197.851 62.278C197.534 62.838 197.095 63.2767 196.535 63.594C195.985 63.9113 195.359 64.07 194.659 64.07ZM190.865 66.716V56.65H191.817V58.862L191.719 60.332L191.859 61.816V66.716H190.865ZM194.589 63.188C195.112 63.188 195.579 63.0713 195.989 62.838C196.4 62.5953 196.727 62.2593 196.969 61.83C197.212 61.3913 197.333 60.8873 197.333 60.318C197.333 59.7487 197.212 59.2493 196.969 58.82C196.727 58.3907 196.4 58.0547 195.989 57.812C195.579 57.5693 195.112 57.448 194.589 57.448C194.067 57.448 193.595 57.5693 193.175 57.812C192.765 58.0547 192.438 58.3907 192.195 58.82C191.962 59.2493 191.845 59.7487 191.845 60.318C191.845 60.8873 191.962 61.3913 192.195 61.83C192.438 62.2593 192.765 62.5953 193.175 62.838C193.595 63.0713 194.067 63.188 194.589 63.188ZM203.487 64.07C202.777 64.07 202.138 63.9113 201.569 63.594C201.009 63.2673 200.565 62.824 200.239 62.264C199.912 61.6947 199.749 61.046 199.749 60.318C199.749 59.5807 199.912 58.932 200.239 58.372C200.565 57.812 201.009 57.3733 201.569 57.056C202.129 56.7387 202.768 56.58 203.487 56.58C204.215 56.58 204.859 56.7387 205.419 57.056C205.988 57.3733 206.431 57.812 206.749 58.372C207.075 58.932 207.239 59.5807 207.239 60.318C207.239 61.046 207.075 61.6947 206.749 62.264C206.431 62.824 205.988 63.2673 205.419 63.594C204.849 63.9113 204.205 64.07 203.487 64.07ZM203.487 63.188C204.019 63.188 204.49 63.0713 204.901 62.838C205.311 62.5953 205.633 62.2593 205.867 61.83C206.109 61.3913 206.231 60.8873 206.231 60.318C206.231 59.7393 206.109 59.2353 205.867 58.806C205.633 58.3767 205.311 58.0453 204.901 57.812C204.49 57.5693 204.023 57.448 203.501 57.448C202.978 57.448 202.511 57.5693 202.101 57.812C201.69 58.0453 201.363 58.3767 201.121 58.806C200.878 59.2353 200.757 59.7393 200.757 60.318C200.757 60.8873 200.878 61.3913 201.121 61.83C201.363 62.2593 201.69 62.5953 202.101 62.838C202.511 63.0713 202.973 63.188 203.487 63.188ZM214.362 63.524V57.518H210.82L210.736 59.156C210.718 59.6507 210.685 60.136 210.638 60.612C210.601 61.088 210.531 61.5267 210.428 61.928C210.335 62.32 210.2 62.642 210.022 62.894C209.845 63.1367 209.616 63.2767 209.336 63.314L208.342 63.132C208.632 63.1413 208.87 63.0387 209.056 62.824C209.243 62.6 209.388 62.2967 209.49 61.914C209.593 61.5313 209.668 61.0973 209.714 60.612C209.761 60.1173 209.798 59.6133 209.826 59.1L209.924 56.65H215.356V63.524H214.362ZM208.034 65.778V63.132H216.504V65.778H215.566V64H208.972V65.778H208.034ZM218.567 66.786C218.222 66.786 217.891 66.73 217.573 66.618C217.265 66.506 216.999 66.338 216.775 66.114L217.237 65.372C217.424 65.5493 217.625 65.6847 217.839 65.778C218.063 65.8807 218.311 65.932 218.581 65.932C218.908 65.932 219.188 65.8387 219.421 65.652C219.664 65.4747 219.893 65.1573 220.107 64.7L220.583 63.622L220.695 63.468L223.719 56.65H224.699L221.017 64.882C220.812 65.358 220.583 65.736 220.331 66.016C220.089 66.296 219.823 66.492 219.533 66.604C219.244 66.7253 218.922 66.786 218.567 66.786ZM220.527 64.21L217.139 56.65H218.175L221.171 63.398L220.527 64.21ZM226.248 64V56.65H227.256L230.588 62.292H230.168L233.556 56.65H234.48V64H233.57V57.784L233.752 57.868L230.588 63.104H230.14L226.948 57.812L227.158 57.77V64H226.248ZM241.873 64V62.376L241.831 62.11V59.394C241.831 58.7687 241.653 58.288 241.299 57.952C240.953 57.616 240.435 57.448 239.745 57.448C239.269 57.448 238.816 57.5273 238.387 57.686C237.957 57.8447 237.593 58.0547 237.295 58.316L236.847 57.574C237.22 57.2567 237.668 57.014 238.191 56.846C238.713 56.6687 239.264 56.58 239.843 56.58C240.795 56.58 241.527 56.818 242.041 57.294C242.563 57.7607 242.825 58.4747 242.825 59.436V64H241.873ZM239.339 64.07C238.788 64.07 238.307 63.9813 237.897 63.804C237.495 63.6173 237.187 63.3653 236.973 63.048C236.758 62.7213 236.651 62.348 236.651 61.928C236.651 61.5453 236.739 61.2 236.917 60.892C237.103 60.5747 237.402 60.3227 237.813 60.136C238.233 59.94 238.793 59.842 239.493 59.842H242.027V60.584H239.521C238.811 60.584 238.317 60.71 238.037 60.962C237.766 61.214 237.631 61.5267 237.631 61.9C237.631 62.32 237.794 62.656 238.121 62.908C238.447 63.16 238.905 63.286 239.493 63.286C240.053 63.286 240.533 63.16 240.935 62.908C241.345 62.6467 241.644 62.2733 241.831 61.788L242.055 62.474C241.868 62.9593 241.541 63.3467 241.075 63.636C240.617 63.9253 240.039 64.07 239.339 64.07ZM245.471 64V56.65H246.465V59.898H251.099V56.65H252.093V64H251.099V60.752H246.465V64H245.471ZM254.918 64V56.65H255.912V59.898H260.546V56.65H261.54V64H260.546V60.752H255.912V64H254.918ZM271.533 64V56.65H272.527V64H271.533ZM267.459 59.24C268.383 59.2493 269.088 59.4547 269.573 59.856C270.059 60.2573 270.301 60.836 270.301 61.592C270.301 62.376 270.04 62.978 269.517 63.398C268.995 63.818 268.248 64.0233 267.277 64.014L264.365 64V56.65H265.359V59.212L267.459 59.24ZM267.207 63.258C267.898 63.2673 268.416 63.132 268.761 62.852C269.116 62.5627 269.293 62.1427 269.293 61.592C269.293 61.0413 269.121 60.64 268.775 60.388C268.43 60.1267 267.907 59.9913 267.207 59.982L265.359 59.954V63.23L267.207 63.258ZM275.357 64V56.65H276.351V62.488L281.265 56.65H282.147V64H281.153V58.148L276.253 64H275.357ZM278.689 55.586C278.073 55.586 277.574 55.432 277.191 55.124C276.818 54.8067 276.622 54.354 276.603 53.766H277.317C277.327 54.1393 277.457 54.4333 277.709 54.648C277.961 54.8627 278.288 54.97 278.689 54.97C279.091 54.97 279.417 54.8627 279.669 54.648C279.931 54.4333 280.066 54.1393 280.075 53.766H280.789C280.78 54.354 280.584 54.8067 280.201 55.124C279.819 55.432 279.315 55.586 278.689 55.586ZM291.964 64.084C291.367 64.084 290.835 63.986 290.368 63.79C289.911 63.594 289.519 63.2953 289.192 62.894C288.865 62.4927 288.618 61.998 288.45 61.41C288.282 60.8127 288.198 60.122 288.198 59.338C288.198 58.638 288.263 58.0267 288.394 57.504C288.525 56.972 288.707 56.5147 288.94 56.132C289.173 55.7493 289.444 55.4273 289.752 55.166C290.069 54.8953 290.41 54.6807 290.774 54.522C291.147 54.354 291.53 54.228 291.922 54.144L295.226 53.374L295.394 54.298L292.286 54.998C292.09 55.0447 291.852 55.11 291.572 55.194C291.301 55.278 291.021 55.404 290.732 55.572C290.452 55.74 290.191 55.9733 289.948 56.272C289.705 56.5707 289.509 56.958 289.36 57.434C289.22 57.9007 289.15 58.484 289.15 59.184C289.15 59.3333 289.155 59.4547 289.164 59.548C289.173 59.632 289.183 59.7253 289.192 59.828C289.211 59.9213 289.225 60.0613 289.234 60.248L288.8 59.884C288.903 59.3147 289.113 58.82 289.43 58.4C289.747 57.9707 290.144 57.6393 290.62 57.406C291.105 57.1633 291.642 57.042 292.23 57.042C292.911 57.042 293.518 57.1913 294.05 57.49C294.582 57.7793 294.997 58.1853 295.296 58.708C295.604 59.2307 295.758 59.8373 295.758 60.528C295.758 61.2093 295.599 61.8207 295.282 62.362C294.974 62.9033 294.535 63.328 293.966 63.636C293.397 63.9347 292.729 64.084 291.964 64.084ZM292.076 63.258C292.599 63.258 293.061 63.1413 293.462 62.908C293.863 62.6653 294.176 62.3387 294.4 61.928C294.633 61.5173 294.75 61.0553 294.75 60.542C294.75 60.038 294.633 59.59 294.4 59.198C294.176 58.806 293.863 58.498 293.462 58.274C293.061 58.0407 292.594 57.924 292.062 57.924C291.539 57.924 291.077 58.036 290.676 58.26C290.275 58.4747 289.957 58.778 289.724 59.17C289.5 59.562 289.388 60.0147 289.388 60.528C289.388 61.0413 289.5 61.5033 289.724 61.914C289.957 62.3247 290.275 62.6513 290.676 62.894C291.087 63.1367 291.553 63.258 292.076 63.258ZM302.412 64V62.376L302.37 62.11V59.394C302.37 58.7687 302.192 58.288 301.838 57.952C301.492 57.616 300.974 57.448 300.284 57.448C299.808 57.448 299.355 57.5273 298.926 57.686C298.496 57.8447 298.132 58.0547 297.834 58.316L297.386 57.574C297.759 57.2567 298.207 57.014 298.73 56.846C299.252 56.6687 299.803 56.58 300.382 56.58C301.334 56.58 302.066 56.818 302.58 57.294C303.102 57.7607 303.364 58.4747 303.364 59.436V64H302.412ZM299.878 64.07C299.327 64.07 298.846 63.9813 298.436 63.804C298.034 63.6173 297.726 63.3653 297.512 63.048C297.297 62.7213 297.19 62.348 297.19 61.928C297.19 61.5453 297.278 61.2 297.456 60.892C297.642 60.5747 297.941 60.3227 298.352 60.136C298.772 59.94 299.332 59.842 300.032 59.842H302.566V60.584H300.06C299.35 60.584 298.856 60.71 298.576 60.962C298.305 61.214 298.17 61.5267 298.17 61.9C298.17 62.32 298.333 62.656 298.66 62.908C298.986 63.16 299.444 63.286 300.032 63.286C300.592 63.286 301.072 63.16 301.474 62.908C301.884 62.6467 302.183 62.2733 302.37 61.788L302.594 62.474C302.407 62.9593 302.08 63.3467 301.614 63.636C301.156 63.9253 300.578 64.07 299.878 64.07ZM304.666 63.986L304.736 63.132C304.801 63.1413 304.862 63.1553 304.918 63.174C304.983 63.1833 305.039 63.188 305.086 63.188C305.384 63.188 305.622 63.076 305.8 62.852C305.986 62.628 306.126 62.3293 306.22 61.956C306.313 61.5827 306.378 61.1627 306.416 60.696C306.453 60.22 306.486 59.744 306.514 59.268L306.64 56.65H312.03V64H311.036V57.224L311.288 57.518H307.284L307.522 57.21L307.41 59.338C307.382 59.9727 307.33 60.5793 307.256 61.158C307.19 61.7367 307.083 62.2453 306.934 62.684C306.794 63.1227 306.598 63.468 306.346 63.72C306.094 63.9627 305.772 64.084 305.38 64.084C305.268 64.084 305.151 64.0747 305.03 64.056C304.918 64.0373 304.796 64.014 304.666 63.986ZM319.419 64V62.376L319.377 62.11V59.394C319.377 58.7687 319.2 58.288 318.845 57.952C318.5 57.616 317.982 57.448 317.291 57.448C316.815 57.448 316.363 57.5273 315.933 57.686C315.504 57.8447 315.14 58.0547 314.841 58.316L314.393 57.574C314.767 57.2567 315.215 57.014 315.737 56.846C316.26 56.6687 316.811 56.58 317.389 56.58C318.341 56.58 319.074 56.818 319.587 57.294C320.11 57.7607 320.371 58.4747 320.371 59.436V64H319.419ZM316.885 64.07C316.335 64.07 315.854 63.9813 315.443 63.804C315.042 63.6173 314.734 63.3653 314.519 63.048C314.305 62.7213 314.197 62.348 314.197 61.928C314.197 61.5453 314.286 61.2 314.463 60.892C314.65 60.5747 314.949 60.3227 315.359 60.136C315.779 59.94 316.339 59.842 317.039 59.842H319.573V60.584H317.067C316.358 60.584 315.863 60.71 315.583 60.962C315.313 61.214 315.177 61.5267 315.177 61.9C315.177 62.32 315.341 62.656 315.667 62.908C315.994 63.16 316.451 63.286 317.039 63.286C317.599 63.286 318.08 63.16 318.481 62.908C318.892 62.6467 319.191 62.2733 319.377 61.788L319.601 62.474C319.415 62.9593 319.088 63.3467 318.621 63.636C318.164 63.9253 317.585 64.07 316.885 64.07ZM323.018 64V56.65H324.012V59.898H328.646V56.65H329.64V64H328.646V60.752H324.012V64H323.018ZM335.545 64.07C334.817 64.07 334.163 63.9113 333.585 63.594C333.015 63.2673 332.567 62.824 332.241 62.264C331.914 61.6947 331.751 61.046 331.751 60.318C331.751 59.5807 331.914 58.932 332.241 58.372C332.567 57.812 333.015 57.3733 333.585 57.056C334.163 56.7387 334.817 56.58 335.545 56.58C336.17 56.58 336.735 56.7013 337.239 56.944C337.743 57.1867 338.139 57.5507 338.429 58.036L337.687 58.54C337.435 58.1667 337.122 57.8913 336.749 57.714C336.375 57.5367 335.969 57.448 335.531 57.448C335.008 57.448 334.537 57.5693 334.117 57.812C333.697 58.0453 333.365 58.3767 333.123 58.806C332.88 59.2353 332.759 59.7393 332.759 60.318C332.759 60.8967 332.88 61.4007 333.123 61.83C333.365 62.2593 333.697 62.5953 334.117 62.838C334.537 63.0713 335.008 63.188 335.531 63.188C335.969 63.188 336.375 63.0993 336.749 62.922C337.122 62.7447 337.435 62.474 337.687 62.11L338.429 62.614C338.139 63.09 337.743 63.454 337.239 63.706C336.735 63.9487 336.17 64.07 335.545 64.07ZM344.018 64V56.65H345.026L348.358 62.292H347.938L351.326 56.65H352.25V64H351.34V57.784L351.522 57.868L348.358 63.104H347.91L344.718 57.812L344.928 57.77V64H344.018ZM358.228 64.07C357.463 64.07 356.791 63.9113 356.212 63.594C355.633 63.2673 355.181 62.824 354.854 62.264C354.527 61.6947 354.364 61.046 354.364 60.318C354.364 59.59 354.518 58.946 354.826 58.386C355.143 57.826 355.573 57.3873 356.114 57.07C356.665 56.7433 357.281 56.58 357.962 56.58C358.653 56.58 359.264 56.7387 359.796 57.056C360.337 57.364 360.762 57.8027 361.07 58.372C361.378 58.932 361.532 59.5807 361.532 60.318C361.532 60.3647 361.527 60.416 361.518 60.472C361.518 60.5187 361.518 60.57 361.518 60.626H355.12V59.884H360.986L360.594 60.178C360.594 59.646 360.477 59.1747 360.244 58.764C360.02 58.344 359.712 58.0173 359.32 57.784C358.928 57.5507 358.475 57.434 357.962 57.434C357.458 57.434 357.005 57.5507 356.604 57.784C356.203 58.0173 355.89 58.344 355.666 58.764C355.442 59.184 355.33 59.6647 355.33 60.206V60.36C355.33 60.92 355.451 61.4147 355.694 61.844C355.946 62.264 356.291 62.5953 356.73 62.838C357.178 63.0713 357.687 63.188 358.256 63.188C358.704 63.188 359.119 63.1087 359.502 62.95C359.894 62.7913 360.23 62.5487 360.51 62.222L361.07 62.866C360.743 63.258 360.333 63.5567 359.838 63.762C359.353 63.9673 358.816 64.07 358.228 64.07ZM372.249 64L369.729 60.36L370.555 59.87L373.439 64H372.249ZM368.077 60.724V59.87H370.401V60.724H368.077ZM370.653 60.43L369.701 60.29L372.151 56.65H373.229L370.653 60.43ZM363.541 64H362.351L365.235 59.87L366.047 60.36L363.541 64ZM368.385 64H367.391V56.65H368.385V64ZM367.699 60.724H365.389V59.87H367.699V60.724ZM365.151 60.43L362.561 56.65H363.639L366.075 60.29L365.151 60.43ZM380.134 63.524V57.518H376.592L376.508 59.156C376.489 59.6507 376.456 60.136 376.41 60.612C376.372 61.088 376.302 61.5267 376.2 61.928C376.106 62.32 375.971 62.642 375.794 62.894C375.616 63.1367 375.388 63.2767 375.108 63.314L374.114 63.132C374.403 63.1413 374.641 63.0387 374.828 62.824C375.014 62.6 375.159 62.2967 375.262 61.914C375.364 61.5313 375.439 61.0973 375.486 60.612C375.532 60.1173 375.57 59.6133 375.598 59.1L375.696 56.65H381.128V63.524H380.134ZM373.806 65.778V63.132H382.276V65.778H381.338V64H374.744V65.778H373.806ZM384.339 66.786C383.993 66.786 383.662 66.73 383.345 66.618C383.037 66.506 382.771 66.338 382.547 66.114L383.009 65.372C383.195 65.5493 383.396 65.6847 383.611 65.778C383.835 65.8807 384.082 65.932 384.353 65.932C384.679 65.932 384.959 65.8387 385.193 65.652C385.435 65.4747 385.664 65.1573 385.879 64.7L386.355 63.622L386.467 63.468L389.491 56.65H390.471L386.789 64.882C386.583 65.358 386.355 65.736 386.103 66.016C385.86 66.296 385.594 66.492 385.305 66.604C385.015 66.7253 384.693 66.786 384.339 66.786ZM386.299 64.21L382.911 56.65H383.947L386.943 63.398L386.299 64.21ZM401.074 64L398.05 60.36L398.876 59.87L402.25 64H401.074ZM395.684 64V56.65H396.678V64H395.684ZM396.37 60.724V59.87H398.736V60.724H396.37ZM398.96 60.43L398.036 60.29L400.962 56.65H402.04L398.96 60.43ZM406.583 64.07C405.873 64.07 405.234 63.9113 404.665 63.594C404.105 63.2673 403.661 62.824 403.335 62.264C403.008 61.6947 402.845 61.046 402.845 60.318C402.845 59.5807 403.008 58.932 403.335 58.372C403.661 57.812 404.105 57.3733 404.665 57.056C405.225 56.7387 405.864 56.58 406.583 56.58C407.311 56.58 407.955 56.7387 408.515 57.056C409.084 57.3733 409.527 57.812 409.845 58.372C410.171 58.932 410.335 59.5807 410.335 60.318C410.335 61.046 410.171 61.6947 409.845 62.264C409.527 62.824 409.084 63.2673 408.515 63.594C407.945 63.9113 407.301 64.07 406.583 64.07ZM406.583 63.188C407.115 63.188 407.586 63.0713 407.997 62.838C408.407 62.5953 408.729 62.2593 408.963 61.83C409.205 61.3913 409.327 60.8873 409.327 60.318C409.327 59.7393 409.205 59.2353 408.963 58.806C408.729 58.3767 408.407 58.0453 407.997 57.812C407.586 57.5693 407.119 57.448 406.597 57.448C406.074 57.448 405.607 57.5693 405.197 57.812C404.786 58.0453 404.459 58.3767 404.217 58.806C403.974 59.2353 403.853 59.7393 403.853 60.318C403.853 60.8873 403.974 61.3913 404.217 61.83C404.459 62.2593 404.786 62.5953 405.197 62.838C405.607 63.0713 406.069 63.188 406.583 63.188ZM412.459 64V56.65H413.467L416.799 62.292H416.379L419.767 56.65H420.691V64H419.781V57.784L419.963 57.868L416.799 63.104H416.351L413.159 57.812L413.369 57.77V64H412.459ZM427.649 64.084C427.649 64.084 427.631 64.084 427.593 64.084C427.556 64.084 427.519 64.084 427.481 64.084C427.453 64.084 427.43 64.084 427.411 64.084C425.955 64.0747 424.821 63.7433 424.009 63.09C423.197 62.4367 422.791 61.508 422.791 60.304C422.791 59.1187 423.197 58.204 424.009 57.56C424.831 56.9067 425.983 56.5753 427.467 56.566C427.477 56.566 427.495 56.566 427.523 56.566C427.561 56.566 427.593 56.566 427.621 56.566C427.649 56.566 427.668 56.566 427.677 56.566C429.171 56.5753 430.333 56.9067 431.163 57.56C431.994 58.204 432.409 59.1187 432.409 60.304C432.409 61.5173 431.989 62.4507 431.149 63.104C430.319 63.7573 429.152 64.084 427.649 64.084ZM427.635 63.216C428.466 63.216 429.161 63.104 429.721 62.88C430.281 62.6467 430.706 62.3153 430.995 61.886C431.285 61.4567 431.429 60.9293 431.429 60.304C431.429 59.6973 431.285 59.184 430.995 58.764C430.706 58.3347 430.281 58.008 429.721 57.784C429.161 57.56 428.466 57.448 427.635 57.448C427.626 57.448 427.598 57.448 427.551 57.448C427.514 57.448 427.491 57.448 427.481 57.448C426.669 57.448 425.988 57.5647 425.437 57.798C424.887 58.022 424.471 58.344 424.191 58.764C423.911 59.184 423.771 59.6973 423.771 60.304C423.771 60.92 423.911 61.4427 424.191 61.872C424.481 62.3013 424.901 62.6327 425.451 62.866C426.002 63.09 426.679 63.2067 427.481 63.216C427.5 63.216 427.528 63.216 427.565 63.216C427.603 63.216 427.626 63.216 427.635 63.216ZM427.103 66.716V53.612H428.069V66.716H427.103ZM437.536 64.07C436.826 64.07 436.187 63.9113 435.618 63.594C435.058 63.2673 434.614 62.824 434.288 62.264C433.961 61.6947 433.798 61.046 433.798 60.318C433.798 59.5807 433.961 58.932 434.288 58.372C434.614 57.812 435.058 57.3733 435.618 57.056C436.178 56.7387 436.817 56.58 437.536 56.58C438.264 56.58 438.908 56.7387 439.468 57.056C440.037 57.3733 440.48 57.812 440.798 58.372C441.124 58.932 441.288 59.5807 441.288 60.318C441.288 61.046 441.124 61.6947 440.798 62.264C440.48 62.824 440.037 63.2673 439.468 63.594C438.898 63.9113 438.254 64.07 437.536 64.07ZM437.536 63.188C438.068 63.188 438.539 63.0713 438.95 62.838C439.36 62.5953 439.682 62.2593 439.916 61.83C440.158 61.3913 440.28 60.8873 440.28 60.318C440.28 59.7393 440.158 59.2353 439.916 58.806C439.682 58.3767 439.36 58.0453 438.95 57.812C438.539 57.5693 438.072 57.448 437.55 57.448C437.027 57.448 436.56 57.5693 436.15 57.812C435.739 58.0453 435.412 58.3767 435.17 58.806C434.927 59.2353 434.806 59.7393 434.806 60.318C434.806 60.8873 434.927 61.3913 435.17 61.83C435.412 62.2593 435.739 62.5953 436.15 62.838C436.56 63.0713 437.022 63.188 437.536 63.188ZM447.206 64.07C446.571 64.07 445.997 63.9253 445.484 63.636C444.971 63.3373 444.56 62.9127 444.252 62.362C443.953 61.802 443.804 61.1207 443.804 60.318C443.804 59.5153 443.953 58.8387 444.252 58.288C444.551 57.728 444.957 57.3033 445.47 57.014C445.983 56.7247 446.562 56.58 447.206 56.58C447.906 56.58 448.531 56.7387 449.082 57.056C449.642 57.364 450.081 57.8027 450.398 58.372C450.715 58.932 450.874 59.5807 450.874 60.318C450.874 61.0647 450.715 61.718 450.398 62.278C450.081 62.838 449.642 63.2767 449.082 63.594C448.531 63.9113 447.906 64.07 447.206 64.07ZM443.412 66.716V56.65H444.364V58.862L444.266 60.332L444.406 61.816V66.716H443.412ZM447.136 63.188C447.659 63.188 448.125 63.0713 448.536 62.838C448.947 62.5953 449.273 62.2593 449.516 61.83C449.759 61.3913 449.88 60.8873 449.88 60.318C449.88 59.7487 449.759 59.2493 449.516 58.82C449.273 58.3907 448.947 58.0547 448.536 57.812C448.125 57.5693 447.659 57.448 447.136 57.448C446.613 57.448 446.142 57.5693 445.722 57.812C445.311 58.0547 444.985 58.3907 444.742 58.82C444.509 59.2493 444.392 59.7487 444.392 60.318C444.392 60.8873 444.509 61.3913 444.742 61.83C444.985 62.2593 445.311 62.5953 445.722 62.838C446.142 63.0713 446.613 63.188 447.136 63.188ZM454.136 64V57.252L454.388 57.518H451.35V56.65H457.916V57.518H454.878L455.13 57.252V64H454.136ZM462.036 64.07C461.326 64.07 460.687 63.9113 460.118 63.594C459.558 63.2673 459.114 62.824 458.788 62.264C458.461 61.6947 458.298 61.046 458.298 60.318C458.298 59.5807 458.461 58.932 458.788 58.372C459.114 57.812 459.558 57.3733 460.118 57.056C460.678 56.7387 461.317 56.58 462.036 56.58C462.764 56.58 463.408 56.7387 463.968 57.056C464.537 57.3733 464.98 57.812 465.298 58.372C465.624 58.932 465.788 59.5807 465.788 60.318C465.788 61.046 465.624 61.6947 465.298 62.264C464.98 62.824 464.537 63.2673 463.968 63.594C463.398 63.9113 462.754 64.07 462.036 64.07ZM462.036 63.188C462.568 63.188 463.039 63.0713 463.45 62.838C463.86 62.5953 464.182 62.2593 464.416 61.83C464.658 61.3913 464.78 60.8873 464.78 60.318C464.78 59.7393 464.658 59.2353 464.416 58.806C464.182 58.3767 463.86 58.0453 463.45 57.812C463.039 57.5693 462.572 57.448 462.05 57.448C461.527 57.448 461.06 57.5693 460.65 57.812C460.239 58.0453 459.912 58.3767 459.67 58.806C459.427 59.2353 459.306 59.7393 459.306 60.318C459.306 60.8873 459.427 61.3913 459.67 61.83C459.912 62.2593 460.239 62.5953 460.65 62.838C461.06 63.0713 461.522 63.188 462.036 63.188ZM467.912 64V56.65H468.92L472.252 62.292H471.832L475.22 56.65H476.144V64H475.234V57.784L475.416 57.868L472.252 63.104H471.804L468.612 57.812L468.822 57.77V64H467.912ZM478.343 66.044L478.959 63.454L479.071 64.056C478.856 64.056 478.674 63.986 478.525 63.846C478.385 63.706 478.315 63.524 478.315 63.3C478.315 63.076 478.385 62.894 478.525 62.754C478.674 62.614 478.851 62.544 479.057 62.544C479.271 62.544 479.444 62.6187 479.575 62.768C479.715 62.9173 479.785 63.0947 479.785 63.3C479.785 63.3747 479.78 63.4493 479.771 63.524C479.761 63.5987 479.743 63.6827 479.715 63.776C479.687 63.8693 479.649 63.9813 479.603 64.112L479.015 66.044H478.343ZM490.643 63.524V57.518H487.101L487.017 59.156C486.999 59.6507 486.966 60.136 486.919 60.612C486.882 61.088 486.812 61.5267 486.709 61.928C486.616 62.32 486.481 62.642 486.303 62.894C486.126 63.1367 485.897 63.2767 485.617 63.314L484.623 63.132C484.913 63.1413 485.151 63.0387 485.337 62.824C485.524 62.6 485.669 62.2967 485.771 61.914C485.874 61.5313 485.949 61.0973 485.995 60.612C486.042 60.1173 486.079 59.6133 486.107 59.1L486.205 56.65H491.637V63.524H490.643ZM484.315 65.778V63.132H492.785V65.778H491.847V64H485.253V65.778H484.315ZM497.747 64.07C497.037 64.07 496.398 63.9113 495.829 63.594C495.269 63.2673 494.825 62.824 494.499 62.264C494.172 61.6947 494.009 61.046 494.009 60.318C494.009 59.5807 494.172 58.932 494.499 58.372C494.825 57.812 495.269 57.3733 495.829 57.056C496.389 56.7387 497.028 56.58 497.747 56.58C498.475 56.58 499.119 56.7387 499.679 57.056C500.248 57.3733 500.691 57.812 501.009 58.372C501.335 58.932 501.499 59.5807 501.499 60.318C501.499 61.046 501.335 61.6947 501.009 62.264C500.691 62.824 500.248 63.2673 499.679 63.594C499.109 63.9113 498.465 64.07 497.747 64.07ZM497.747 63.188C498.279 63.188 498.75 63.0713 499.161 62.838C499.571 62.5953 499.893 62.2593 500.127 61.83C500.369 61.3913 500.491 60.8873 500.491 60.318C500.491 59.7393 500.369 59.2353 500.127 58.806C499.893 58.3767 499.571 58.0453 499.161 57.812C498.75 57.5693 498.283 57.448 497.761 57.448C497.238 57.448 496.771 57.5693 496.361 57.812C495.95 58.0453 495.623 58.3767 495.381 58.806C495.138 59.2353 495.017 59.7393 495.017 60.318C495.017 60.8873 495.138 61.3913 495.381 61.83C495.623 62.2593 495.95 62.5953 496.361 62.838C496.771 63.0713 497.233 63.188 497.747 63.188ZM502.238 63.986L502.308 63.132C502.373 63.1413 502.434 63.1553 502.49 63.174C502.555 63.1833 502.611 63.188 502.658 63.188C502.957 63.188 503.195 63.076 503.372 62.852C503.559 62.628 503.699 62.3293 503.792 61.956C503.885 61.5827 503.951 61.1627 503.988 60.696C504.025 60.22 504.058 59.744 504.086 59.268L504.212 56.65H509.602V64H508.608V57.224L508.86 57.518H504.856L505.094 57.21L504.982 59.338C504.954 59.9727 504.903 60.5793 504.828 61.158C504.763 61.7367 504.655 62.2453 504.506 62.684C504.366 63.1227 504.17 63.468 503.918 63.72C503.666 63.9627 503.344 64.084 502.952 64.084C502.84 64.084 502.723 64.0747 502.602 64.056C502.49 64.0373 502.369 64.014 502.238 63.986ZM512.428 64V56.65H517.636V57.518H513.17L513.422 57.266V64H512.428ZM521.754 64.07C521.045 64.07 520.406 63.9113 519.836 63.594C519.276 63.2673 518.833 62.824 518.506 62.264C518.18 61.6947 518.016 61.046 518.016 60.318C518.016 59.5807 518.18 58.932 518.506 58.372C518.833 57.812 519.276 57.3733 519.836 57.056C520.396 56.7387 521.036 56.58 521.754 56.58C522.482 56.58 523.126 56.7387 523.686 57.056C524.256 57.3733 524.699 57.812 525.016 58.372C525.343 58.932 525.506 59.5807 525.506 60.318C525.506 61.046 525.343 61.6947 525.016 62.264C524.699 62.824 524.256 63.2673 523.686 63.594C523.117 63.9113 522.473 64.07 521.754 64.07ZM521.754 63.188C522.286 63.188 522.758 63.0713 523.168 62.838C523.579 62.5953 523.901 62.2593 524.134 61.83C524.377 61.3913 524.498 60.8873 524.498 60.318C524.498 59.7393 524.377 59.2353 524.134 58.806C523.901 58.3767 523.579 58.0453 523.168 57.812C522.758 57.5693 522.291 57.448 521.768 57.448C521.246 57.448 520.779 57.5693 520.368 57.812C519.958 58.0453 519.631 58.3767 519.388 58.806C519.146 59.2353 519.024 59.7393 519.024 60.318C519.024 60.8873 519.146 61.3913 519.388 61.83C519.631 62.2593 519.958 62.5953 520.368 62.838C520.779 63.0713 521.241 63.188 521.754 63.188ZM527.631 64V56.65H530.879C531.709 56.65 532.363 56.8087 532.839 57.126C533.324 57.4433 533.567 57.91 533.567 58.526C533.567 59.1233 533.338 59.5853 532.881 59.912C532.423 60.2293 531.821 60.388 531.075 60.388L531.271 60.094C532.148 60.094 532.792 60.2573 533.203 60.584C533.613 60.9107 533.819 61.382 533.819 61.998C533.819 62.6327 533.585 63.1273 533.119 63.482C532.661 63.8273 531.947 64 530.977 64H527.631ZM528.597 63.216H530.935C531.56 63.216 532.031 63.118 532.349 62.922C532.675 62.7167 532.839 62.39 532.839 61.942C532.839 61.494 532.694 61.1673 532.405 60.962C532.115 60.7567 531.658 60.654 531.033 60.654H528.597V63.216ZM528.597 59.912H530.809C531.378 59.912 531.812 59.8047 532.111 59.59C532.419 59.3753 532.573 59.0627 532.573 58.652C532.573 58.2413 532.419 57.9333 532.111 57.728C531.812 57.5227 531.378 57.42 530.809 57.42H528.597V59.912ZM539.298 64.07C538.533 64.07 537.861 63.9113 537.282 63.594C536.704 63.2673 536.251 62.824 535.924 62.264C535.598 61.6947 535.434 61.046 535.434 60.318C535.434 59.59 535.588 58.946 535.896 58.386C536.214 57.826 536.643 57.3873 537.184 57.07C537.735 56.7433 538.351 56.58 539.032 56.58C539.723 56.58 540.334 56.7387 540.866 57.056C541.408 57.364 541.832 57.8027 542.14 58.372C542.448 58.932 542.602 59.5807 542.602 60.318C542.602 60.3647 542.598 60.416 542.588 60.472C542.588 60.5187 542.588 60.57 542.588 60.626H536.19V59.884H542.056L541.664 60.178C541.664 59.646 541.548 59.1747 541.314 58.764C541.09 58.344 540.782 58.0173 540.39 57.784C539.998 57.5507 539.546 57.434 539.032 57.434C538.528 57.434 538.076 57.5507 537.674 57.784C537.273 58.0173 536.96 58.344 536.736 58.764C536.512 59.184 536.4 59.6647 536.4 60.206V60.36C536.4 60.92 536.522 61.4147 536.764 61.844C537.016 62.264 537.362 62.5953 537.8 62.838C538.248 63.0713 538.757 63.188 539.326 63.188C539.774 63.188 540.19 63.1087 540.572 62.95C540.964 62.7913 541.3 62.5487 541.58 62.222L542.14 62.866C541.814 63.258 541.403 63.5567 540.908 63.762C540.423 63.9673 539.886 64.07 539.298 64.07ZM549.451 60.892C549.021 61.0787 548.587 61.228 548.149 61.34C547.719 61.4427 547.29 61.494 546.861 61.494C545.993 61.494 545.307 61.298 544.803 60.906C544.299 60.5047 544.047 59.8887 544.047 59.058V56.65H545.027V59.002C545.027 59.562 545.209 59.982 545.573 60.262C545.937 60.542 546.427 60.682 547.043 60.682C547.416 60.682 547.808 60.6353 548.219 60.542C548.629 60.4393 549.045 60.2947 549.465 60.108L549.451 60.892ZM549.367 64V56.65H550.361V64H549.367ZM553.184 64V56.65H554.178V59.898H558.812V56.65H559.806V64H558.812V60.752H554.178V64H553.184ZM565.655 64.07C564.945 64.07 564.306 63.9113 563.737 63.594C563.177 63.2673 562.733 62.824 562.407 62.264C562.08 61.6947 561.917 61.046 561.917 60.318C561.917 59.5807 562.08 58.932 562.407 58.372C562.733 57.812 563.177 57.3733 563.737 57.056C564.297 56.7387 564.936 56.58 565.655 56.58C566.383 56.58 567.027 56.7387 567.587 57.056C568.156 57.3733 568.599 57.812 568.917 58.372C569.243 58.932 569.407 59.5807 569.407 60.318C569.407 61.046 569.243 61.6947 568.917 62.264C568.599 62.824 568.156 63.2673 567.587 63.594C567.017 63.9113 566.373 64.07 565.655 64.07ZM565.655 63.188C566.187 63.188 566.658 63.0713 567.069 62.838C567.479 62.5953 567.801 62.2593 568.035 61.83C568.277 61.3913 568.399 60.8873 568.399 60.318C568.399 59.7393 568.277 59.2353 568.035 58.806C567.801 58.3767 567.479 58.0453 567.069 57.812C566.658 57.5693 566.191 57.448 565.669 57.448C565.146 57.448 564.679 57.5693 564.269 57.812C563.858 58.0453 563.531 58.3767 563.289 58.806C563.046 59.2353 562.925 59.7393 562.925 60.318C562.925 60.8873 563.046 61.3913 563.289 61.83C563.531 62.2593 563.858 62.5953 564.269 62.838C564.679 63.0713 565.141 63.188 565.655 63.188ZM574.611 64.07C573.883 64.07 573.23 63.9113 572.651 63.594C572.082 63.2673 571.634 62.824 571.307 62.264C570.981 61.6947 570.817 61.046 570.817 60.318C570.817 59.5807 570.981 58.932 571.307 58.372C571.634 57.812 572.082 57.3733 572.651 57.056C573.23 56.7387 573.883 56.58 574.611 56.58C575.237 56.58 575.801 56.7013 576.305 56.944C576.809 57.1867 577.206 57.5507 577.495 58.036L576.753 58.54C576.501 58.1667 576.189 57.8913 575.815 57.714C575.442 57.5367 575.036 57.448 574.597 57.448C574.075 57.448 573.603 57.5693 573.183 57.812C572.763 58.0453 572.432 58.3767 572.189 58.806C571.947 59.2353 571.825 59.7393 571.825 60.318C571.825 60.8967 571.947 61.4007 572.189 61.83C572.432 62.2593 572.763 62.5953 573.183 62.838C573.603 63.0713 574.075 63.188 574.597 63.188C575.036 63.188 575.442 63.0993 575.815 62.922C576.189 62.7447 576.501 62.474 576.753 62.11L577.495 62.614C577.206 63.09 576.809 63.454 576.305 63.706C575.801 63.9487 575.237 64.07 574.611 64.07ZM580.683 64V57.252L580.935 57.518H577.897V56.65H584.463V57.518H581.425L581.677 57.252V64H580.683ZM589.064 59.24C589.988 59.2493 590.688 59.4547 591.164 59.856C591.65 60.2573 591.892 60.836 591.892 61.592C591.892 62.376 591.631 62.978 591.108 63.398C590.595 63.818 589.848 64.0233 588.868 64.014L585.9 64V56.65H586.894V59.212L589.064 59.24ZM588.812 63.258C589.494 63.2673 590.007 63.132 590.352 62.852C590.707 62.5627 590.884 62.1427 590.884 61.592C590.884 61.0413 590.712 60.64 590.366 60.388C590.021 60.1267 589.503 59.9913 588.812 59.982L586.894 59.954V63.23L588.812 63.258ZM593.789 64V56.65H594.783V59.814H597.023V60.724H594.783V64H593.789ZM600.117 64.07C599.417 64.07 598.787 63.9113 598.227 63.594C597.676 63.2673 597.242 62.824 596.925 62.264C596.608 61.6947 596.449 61.046 596.449 60.318C596.449 59.5807 596.608 58.932 596.925 58.372C597.242 57.812 597.676 57.3733 598.227 57.056C598.787 56.7387 599.417 56.58 600.117 56.58C600.817 56.58 601.442 56.7387 601.993 57.056C602.544 57.3733 602.978 57.812 603.295 58.372C603.612 58.932 603.771 59.5807 603.771 60.318C603.771 61.046 603.612 61.6947 603.295 62.264C602.978 62.824 602.544 63.2673 601.993 63.594C601.442 63.9113 600.817 64.07 600.117 64.07ZM600.117 63.202C600.63 63.202 601.088 63.0807 601.489 62.838C601.89 62.5953 602.208 62.2593 602.441 61.83C602.674 61.3913 602.791 60.8873 602.791 60.318C602.791 59.7393 602.674 59.2353 602.441 58.806C602.208 58.3767 601.89 58.0453 601.489 57.812C601.088 57.5693 600.63 57.448 600.117 57.448C599.613 57.448 599.156 57.5693 598.745 57.812C598.344 58.0453 598.026 58.3767 597.793 58.806C597.56 59.2353 597.443 59.7393 597.443 60.318C597.443 60.8873 597.56 61.3913 597.793 61.83C598.026 62.2593 598.344 62.5953 598.745 62.838C599.156 63.0807 599.613 63.202 600.117 63.202ZM609.566 64V56.65H610.56V62.488L615.474 56.65H616.356V64H615.362V58.148L610.462 64H609.566ZM622.869 64V56.65H626.117C626.948 56.65 627.601 56.8087 628.077 57.126C628.562 57.4433 628.805 57.91 628.805 58.526C628.805 59.1233 628.576 59.5853 628.119 59.912C627.662 60.2293 627.06 60.388 626.313 60.388L626.509 60.094C627.386 60.094 628.03 60.2573 628.441 60.584C628.852 60.9107 629.057 61.382 629.057 61.998C629.057 62.6327 628.824 63.1273 628.357 63.482C627.9 63.8273 627.186 64 626.215 64H622.869ZM623.835 63.216H626.173C626.798 63.216 627.27 63.118 627.587 62.922C627.914 62.7167 628.077 62.39 628.077 61.942C628.077 61.494 627.932 61.1673 627.643 60.962C627.354 60.7567 626.896 60.654 626.271 60.654H623.835V63.216ZM623.835 59.912H626.047C626.616 59.912 627.05 59.8047 627.349 59.59C627.657 59.3753 627.811 59.0627 627.811 58.652C627.811 58.2413 627.657 57.9333 627.349 57.728C627.05 57.5227 626.616 57.42 626.047 57.42H623.835V59.912ZM631.387 64V56.65H632.381V59.898H637.015V56.65H638.009V64H637.015V60.752H632.381V64H631.387ZM643.984 64.07C643.219 64.07 642.547 63.9113 641.968 63.594C641.389 63.2673 640.937 62.824 640.61 62.264C640.283 61.6947 640.12 61.046 640.12 60.318C640.12 59.59 640.274 58.946 640.582 58.386C640.899 57.826 641.329 57.3873 641.87 57.07C642.421 56.7433 643.037 56.58 643.718 56.58C644.409 56.58 645.02 56.7387 645.552 57.056C646.093 57.364 646.518 57.8027 646.826 58.372C647.134 58.932 647.288 59.5807 647.288 60.318C647.288 60.3647 647.283 60.416 647.274 60.472C647.274 60.5187 647.274 60.57 647.274 60.626H640.876V59.884H646.742L646.35 60.178C646.35 59.646 646.233 59.1747 646 58.764C645.776 58.344 645.468 58.0173 645.076 57.784C644.684 57.5507 644.231 57.434 643.718 57.434C643.214 57.434 642.761 57.5507 642.36 57.784C641.959 58.0173 641.646 58.344 641.422 58.764C641.198 59.184 641.086 59.6647 641.086 60.206V60.36C641.086 60.92 641.207 61.4147 641.45 61.844C641.702 62.264 642.047 62.5953 642.486 62.838C642.934 63.0713 643.443 63.188 644.012 63.188C644.46 63.188 644.875 63.1087 645.258 62.95C645.65 62.7913 645.986 62.5487 646.266 62.222L646.826 62.866C646.499 63.258 646.089 63.5567 645.594 63.762C645.109 63.9673 644.572 64.07 643.984 64.07ZM654.318 63.132L654.094 63.398V56.65H655.088V63.398L654.822 63.132H658.924L658.658 63.398V56.65H659.652V64H649.488V56.65H650.482V63.398L650.23 63.132H654.318ZM662.477 64V56.65H663.471V59.898H668.105V56.65H669.099V64H668.105V60.752H663.471V64H662.477ZM671.924 64V56.65H672.918V62.488L677.832 56.65H678.714V64H677.72V58.148L672.82 64H671.924ZM681.562 64V56.65H682.57L685.902 62.292H685.482L688.87 56.65H689.794V64H688.884V57.784L689.066 57.868L685.902 63.104H685.454L682.262 57.812L682.472 57.77V64H681.562ZM1.414 86V78.65H4.662C5.49267 78.65 6.146 78.8087 6.622 79.126C7.10733 79.4433 7.35 79.91 7.35 80.526C7.35 81.1233 7.12133 81.5853 6.664 81.912C6.20667 82.2293 5.60467 82.388 4.858 82.388L5.054 82.094C5.93133 82.094 6.57533 82.2573 6.986 82.584C7.39667 82.9107 7.602 83.382 7.602 83.998C7.602 84.6327 7.36867 85.1273 6.902 85.482C6.44467 85.8273 5.73067 86 4.76 86H1.414ZM2.38 85.216H4.718C5.34333 85.216 5.81467 85.118 6.132 84.922C6.45867 84.7167 6.622 84.39 6.622 83.942C6.622 83.494 6.47733 83.1673 6.188 82.962C5.89867 82.7567 5.44133 82.654 4.816 82.654H2.38V85.216ZM2.38 81.912H4.592C5.16133 81.912 5.59533 81.8047 5.894 81.59C6.202 81.3753 6.356 81.0627 6.356 80.652C6.356 80.2413 6.202 79.9333 5.894 79.728C5.59533 79.5227 5.16133 79.42 4.592 79.42H2.38V81.912ZM9.93158 86V78.65H10.9256V84.488L15.8396 78.65H16.7216V86H15.7276V80.148L10.8276 86H9.93158ZM24.6103 85.524V79.518H21.0683L20.9843 81.156C20.9656 81.6507 20.9329 82.136 20.8863 82.612C20.8489 83.088 20.7789 83.5267 20.6763 83.928C20.5829 84.32 20.4476 84.642 20.2703 84.894C20.0929 85.1367 19.8643 85.2767 19.5843 85.314L18.5903 85.132C18.8796 85.1413 19.1176 85.0387 19.3043 84.824C19.4909 84.6 19.6356 84.2967 19.7383 83.914C19.8409 83.5313 19.9156 83.0973 19.9623 82.612C20.0089 82.1173 20.0463 81.6133 20.0743 81.1L20.1723 78.65H25.6043V85.524H24.6103ZM18.2823 87.778V85.132H26.7523V87.778H25.8143V86H19.2203V87.778H18.2823ZM31.7134 86.07C31.0041 86.07 30.3647 85.9113 29.7954 85.594C29.2354 85.2673 28.7921 84.824 28.4654 84.264C28.1387 83.6947 27.9754 83.046 27.9754 82.318C27.9754 81.5807 28.1387 80.932 28.4654 80.372C28.7921 79.812 29.2354 79.3733 29.7954 79.056C30.3554 78.7387 30.9947 78.58 31.7134 78.58C32.4414 78.58 33.0854 78.7387 33.6454 79.056C34.2147 79.3733 34.6581 79.812 34.9754 80.372C35.3021 80.932 35.4654 81.5807 35.4654 82.318C35.4654 83.046 35.3021 83.6947 34.9754 84.264C34.6581 84.824 34.2147 85.2673 33.6454 85.594C33.0761 85.9113 32.4321 86.07 31.7134 86.07ZM31.7134 85.188C32.2454 85.188 32.7167 85.0713 33.1274 84.838C33.5381 84.5953 33.8601 84.2593 34.0934 83.83C34.3361 83.3913 34.4574 82.8873 34.4574 82.318C34.4574 81.7393 34.3361 81.2353 34.0934 80.806C33.8601 80.3767 33.5381 80.0453 33.1274 79.812C32.7167 79.5693 32.2501 79.448 31.7274 79.448C31.2047 79.448 30.7381 79.5693 30.3274 79.812C29.9167 80.0453 29.5901 80.3767 29.3474 80.806C29.1047 81.2353 28.9834 81.7393 28.9834 82.318C28.9834 82.8873 29.1047 83.3913 29.3474 83.83C29.5901 84.2593 29.9167 84.5953 30.3274 84.838C30.7381 85.0713 31.2001 85.188 31.7134 85.188ZM37.5898 86V78.65H38.5978L41.9298 84.292H41.5098L44.8978 78.65H45.8218V86H44.9118V79.784L45.0938 79.868L41.9298 85.104H41.4818L38.2898 79.812L38.4998 79.77V86H37.5898ZM55.3944 86.07C54.6664 86.07 54.0131 85.9113 53.4344 85.594C52.8651 85.2673 52.4171 84.824 52.0904 84.264C51.7637 83.6947 51.6004 83.046 51.6004 82.318C51.6004 81.5807 51.7637 80.932 52.0904 80.372C52.4171 79.812 52.8651 79.3733 53.4344 79.056C54.0131 78.7387 54.6664 78.58 55.3944 78.58C56.0197 78.58 56.5844 78.7013 57.0884 78.944C57.5924 79.1867 57.9891 79.5507 58.2784 80.036L57.5364 80.54C57.2844 80.1667 56.9717 79.8913 56.5984 79.714C56.2251 79.5367 55.8191 79.448 55.3804 79.448C54.8577 79.448 54.3864 79.5693 53.9664 79.812C53.5464 80.0453 53.2151 80.3767 52.9724 80.806C52.7297 81.2353 52.6084 81.7393 52.6084 82.318C52.6084 82.8967 52.7297 83.4007 52.9724 83.83C53.2151 84.2593 53.5464 84.5953 53.9664 84.838C54.3864 85.0713 54.8577 85.188 55.3804 85.188C55.8191 85.188 56.2251 85.0993 56.5984 84.922C56.9717 84.7447 57.2844 84.474 57.5364 84.11L58.2784 84.614C57.9891 85.09 57.5924 85.454 57.0884 85.706C56.5844 85.9487 56.0197 86.07 55.3944 86.07ZM64.7671 86V84.376L64.7251 84.11V81.394C64.7251 80.7687 64.5477 80.288 64.1931 79.952C63.8477 79.616 63.3297 79.448 62.6391 79.448C62.1631 79.448 61.7104 79.5273 61.2811 79.686C60.8517 79.8447 60.4877 80.0547 60.1891 80.316L59.7411 79.574C60.1144 79.2567 60.5624 79.014 61.0851 78.846C61.6077 78.6687 62.1584 78.58 62.7371 78.58C63.6891 78.58 64.4217 78.818 64.9351 79.294C65.4577 79.7607 65.7191 80.4747 65.7191 81.436V86H64.7671ZM62.2331 86.07C61.6824 86.07 61.2017 85.9813 60.7911 85.804C60.3897 85.6173 60.0817 85.3653 59.8671 85.048C59.6524 84.7213 59.5451 84.348 59.5451 83.928C59.5451 83.5453 59.6337 83.2 59.8111 82.892C59.9977 82.5747 60.2964 82.3227 60.7071 82.136C61.1271 81.94 61.6871 81.842 62.3871 81.842H64.9211V82.584H62.4151C61.7057 82.584 61.2111 82.71 60.9311 82.962C60.6604 83.214 60.5251 83.5267 60.5251 83.9C60.5251 84.32 60.6884 84.656 61.0151 84.908C61.3417 85.16 61.7991 85.286 62.3871 85.286C62.9471 85.286 63.4277 85.16 63.8291 84.908C64.2397 84.6467 64.5384 84.2733 64.7251 83.788L64.9491 84.474C64.7624 84.9593 64.4357 85.3467 63.9691 85.636C63.5117 85.9253 62.9331 86.07 62.2331 86.07ZM67.0212 85.986L67.0912 85.132C67.1565 85.1413 67.2172 85.1553 67.2732 85.174C67.3385 85.1833 67.3945 85.188 67.4412 85.188C67.7398 85.188 67.9778 85.076 68.1552 84.852C68.3418 84.628 68.4818 84.3293 68.5752 83.956C68.6685 83.5827 68.7338 83.1627 68.7712 82.696C68.8085 82.22 68.8412 81.744 68.8692 81.268L68.9952 78.65H74.3852V86H73.3912V79.224L73.6432 79.518H69.6392L69.8772 79.21L69.7652 81.338C69.7372 81.9727 69.6858 82.5793 69.6112 83.158C69.5458 83.7367 69.4385 84.2453 69.2892 84.684C69.1492 85.1227 68.9532 85.468 68.7012 85.72C68.4492 85.9627 68.1272 86.084 67.7352 86.084C67.6232 86.084 67.5065 86.0747 67.3852 86.056C67.2732 86.0373 67.1518 86.014 67.0212 85.986ZM80.2349 86.07C79.5255 86.07 78.8862 85.9113 78.3169 85.594C77.7569 85.2673 77.3135 84.824 76.9869 84.264C76.6602 83.6947 76.4969 83.046 76.4969 82.318C76.4969 81.5807 76.6602 80.932 76.9869 80.372C77.3135 79.812 77.7569 79.3733 78.3169 79.056C78.8769 78.7387 79.5162 78.58 80.2349 78.58C80.9629 78.58 81.6069 78.7387 82.1669 79.056C82.7362 79.3733 83.1795 79.812 83.4969 80.372C83.8235 80.932 83.9869 81.5807 83.9869 82.318C83.9869 83.046 83.8235 83.6947 83.4969 84.264C83.1795 84.824 82.7362 85.2673 82.1669 85.594C81.5975 85.9113 80.9535 86.07 80.2349 86.07ZM80.2349 85.188C80.7669 85.188 81.2382 85.0713 81.6489 84.838C82.0595 84.5953 82.3815 84.2593 82.6149 83.83C82.8575 83.3913 82.9789 82.8873 82.9789 82.318C82.9789 81.7393 82.8575 81.2353 82.6149 80.806C82.3815 80.3767 82.0595 80.0453 81.6489 79.812C81.2382 79.5693 80.7715 79.448 80.2489 79.448C79.7262 79.448 79.2595 79.5693 78.8489 79.812C78.4382 80.0453 78.1115 80.3767 77.8689 80.806C77.6262 81.2353 77.5049 81.7393 77.5049 82.318C77.5049 82.8873 77.6262 83.3913 77.8689 83.83C78.1115 84.2593 78.4382 84.5953 78.8489 84.838C79.2595 85.0713 79.7215 85.188 80.2349 85.188ZM86.1113 86V78.65H87.1053V81.898H91.7393V78.65H92.7333V86H91.7393V82.752H87.1053V86H86.1113ZM100.123 86V84.376L100.081 84.11V81.394C100.081 80.7687 99.9032 80.288 99.5485 79.952C99.2032 79.616 98.6852 79.448 97.9945 79.448C97.5185 79.448 97.0659 79.5273 96.6365 79.686C96.2072 79.8447 95.8432 80.0547 95.5445 80.316L95.0965 79.574C95.4699 79.2567 95.9179 79.014 96.4405 78.846C96.9632 78.6687 97.5139 78.58 98.0925 78.58C99.0445 78.58 99.7772 78.818 100.291 79.294C100.813 79.7607 101.075 80.4747 101.075 81.436V86H100.123ZM97.5885 86.07C97.0379 86.07 96.5572 85.9813 96.1465 85.804C95.7452 85.6173 95.4372 85.3653 95.2225 85.048C95.0079 84.7213 94.9005 84.348 94.9005 83.928C94.9005 83.5453 94.9892 83.2 95.1665 82.892C95.3532 82.5747 95.6519 82.3227 96.0625 82.136C96.4825 81.94 97.0425 81.842 97.7425 81.842H100.277V82.584H97.7705C97.0612 82.584 96.5665 82.71 96.2865 82.962C96.0159 83.214 95.8805 83.5267 95.8805 83.9C95.8805 84.32 96.0439 84.656 96.3705 84.908C96.6972 85.16 97.1545 85.286 97.7425 85.286C98.3025 85.286 98.7832 85.16 99.1845 84.908C99.5952 84.6467 99.8939 84.2733 100.081 83.788L100.305 84.474C100.118 84.9593 99.7912 85.3467 99.3245 85.636C98.8672 85.9253 98.2885 86.07 97.5885 86.07Z" fill="#141414"/>
</svg>
