<svg width="20" height="20" viewBox="0 0 20 20" fill="none" xmlns="http://www.w3.org/2000/svg">
<path d="M13.3336 7.49996V4.99996C13.3336 3.15901 11.8412 1.66663 10.0003 1.66663C8.15932 1.66663 6.66693 3.15901 6.66693 4.99996V7.49996M2.9936 8.6266L2.4936 13.9599C2.35144 15.4763 2.28036 16.2346 2.53198 16.8202C2.75302 17.3346 3.14037 17.76 3.63195 18.0281C4.19154 18.3333 4.95307 18.3333 6.47614 18.3333H13.5244C15.0475 18.3333 15.809 18.3333 16.3686 18.0281C16.8602 17.76 17.2475 17.3346 17.4686 16.8202C17.7202 16.2346 17.6491 15.4763 17.5069 13.9599L17.0069 8.6266C16.8869 7.34608 16.8269 6.70582 16.5389 6.22176C16.2853 5.79545 15.9105 5.45422 15.4624 5.2415C14.9536 4.99996 14.3105 4.99996 13.0244 4.99996L6.97614 4.99996C5.69001 4.99996 5.04694 4.99996 4.53812 5.24149C4.08999 5.45422 3.71527 5.79545 3.46165 6.22176C3.17368 6.70582 3.11365 7.34608 2.9936 8.6266Z" stroke="#707D89" stroke-width="2" stroke-linecap="round" stroke-linejoin="round"/>
</svg>
