<svg width="24" height="24" viewBox="0 0 24 24" fill="none" xmlns="http://www.w3.org/2000/svg">
<mask id="mask0_29814_2721" style="mask-type:luminance" maskUnits="userSpaceOnUse" x="0" y="0" width="24" height="24">
<path d="M12 24C5.37265 24 0 18.627 0 12.0008C0 5.37473 5.37265 0 12 0C18.6273 0 24 5.37303 24 12.0008C23.9983 18.627 18.6257 24 12 24Z" fill="white"/>
</mask>
<g mask="url(#mask0_29814_2721)">
<path d="M23.9983 0H0V24H23.9983V0Z" fill="#005BFF"/>
</g>
<mask id="mask1_29814_2721" style="mask-type:luminance" maskUnits="userSpaceOnUse" x="0" y="0" width="24" height="24">
<path d="M12 24C5.37265 24 0 18.627 0 12.0008C0 5.37473 5.37265 0 12 0C18.6273 0 24 5.37303 24 12.0008C23.9983 18.627 18.6257 24 12 24Z" fill="white"/>
</mask>
<g mask="url(#mask1_29814_2721)">
<path d="M26.6532 20.5627C24.8297 22.2031 22.7276 24.6241 20.087 24.5287C19.3761 24.0497 20.5003 23.1158 20.8606 22.7116C22.0115 21.4204 23.1472 20.0422 24.2659 18.6373C28.2906 13.5839 26.973 16.4008 26.6534 20.5627H26.6532Z" fill="#F1117E"/>
<path d="M4.39064 1.27024C3.31882 2.40479 2.2724 3.54104 1.22428 4.6993C0.653657 5.33261 0.138912 6.01504 -0.424937 6.65852C-1.43242 7.80831 -2.47545 8.94455 -3.6658 9.88437C-4.87308 10.836 -6.1718 11.7979 -7.40278 12.7191C-7.40617 12.6496 -7.55179 9.42208 -7.55518 9.34926C-7.03366 8.46533 -6.50875 7.46455 -6.121 6.50442C-5.89241 5.93714 -5.69092 5.34108 -5.46064 4.7738C-5.02039 3.68159 -4.443 2.6825 -3.59299 1.88663C-3.11888 1.44127 -2.57366 1.12631 -2.0132 0.826581C-0.331809 -0.0742865 1.34789 -0.990394 3.03266 -1.8828C4.03675 -2.4162 4.79702 -3.34586 5.69274 -4.0486L9.24685 -4.20947C7.6332 -2.37218 6.07203 -0.50948 4.39064 1.27024Z" fill="#F1117E"/>
<path d="M10.0921 13.7882L8.01285 14.3453L9.72624 10.1188C9.76383 10.0245 9.71794 9.91764 9.62363 9.87988C9.58722 9.86532 9.5471 9.86295 9.50917 9.87277L5.66754 10.9022C5.32839 10.9931 5.12723 11.3416 5.21799 11.6808C5.30891 12.02 5.65738 12.2211 5.99654 12.1304L7.72398 11.6674L6.00111 15.8981C5.96217 15.9907 6.00568 16.0976 6.0983 16.1365C6.13623 16.1524 6.17856 16.1551 6.21818 16.144L10.4215 15.0175C10.7554 14.9092 10.9383 14.5507 10.8299 14.2167C10.7295 13.907 10.4113 13.7235 10.093 13.7912L10.0921 13.7878V13.7882ZM22.4992 6.39207C22.16 6.483 21.9589 6.83149 22.0496 7.17067L22.6015 9.23014L18.577 7.48581C18.4852 7.44449 18.3775 7.48547 18.3362 7.57725C18.3188 7.61603 18.3155 7.65955 18.3269 7.70053L19.4612 11.9341C19.5521 12.2733 19.9006 12.4744 20.2397 12.3835C20.5789 12.2926 20.7801 11.9441 20.6893 11.6049L20.1375 9.54544L24.1625 11.2915C24.2559 11.3313 24.3638 11.2879 24.4036 11.1944C24.4197 11.1567 24.4227 11.1147 24.4122 11.0751L23.2779 6.84149C23.187 6.50231 22.8385 6.30113 22.4994 6.3919M14.768 12.6597C13.3642 13.036 12.1154 12.5772 11.938 11.9151C11.7605 11.253 12.6127 10.2314 14.0166 9.85516C15.4204 9.47889 16.6692 9.93763 16.8467 10.5997C17.0241 11.2618 16.1753 12.2826 14.768 12.6597ZM13.6879 8.62866C11.6552 9.17341 10.3224 10.7916 10.7115 12.2436C11.1006 13.6957 13.0638 14.4308 15.0965 13.886C17.1293 13.3413 18.4618 11.7231 18.0727 10.271C17.6836 8.81899 15.7207 8.0839 13.6877 8.62866M2.6827 15.8999C1.9077 16.1086 1.11018 15.6495 0.901407 14.8743C0.6928 14.0991 1.15201 13.3017 1.927 13.0929C2.702 12.8842 3.49952 13.3433 3.70829 14.1185L3.7088 14.1202C3.91639 14.8949 3.45719 15.6915 2.6827 15.8999ZM1.60224 11.8672C0.149439 12.2555 -0.713606 13.7482 -0.325346 15.2011C0.0629145 16.6542 1.55551 17.5171 3.00848 17.1288C4.46128 16.7405 5.32432 15.2478 4.93606 13.7948L4.93521 13.7914C4.54628 12.3397 3.05402 11.4781 1.60241 11.867" fill="white"/>
</g>
</svg>
