<svg width="28" height="28" viewBox="0 0 28 28" fill="none" xmlns="http://www.w3.org/2000/svg">
<mask id="mask0_5326_8908" style="mask-type:luminance" maskUnits="userSpaceOnUse" x="0" y="0" width="28" height="28">
<path d="M14 28C6.2681 28 0 21.7315 0 14.001C0 6.27051 6.2681 0 14 0C21.7319 0 28 6.26854 28 14.001C27.998 21.7315 21.7299 28 14 28Z" fill="white"/>
</mask>
<g mask="url(#mask0_5326_8908)">
<path d="M27.998 0H0V28H27.998V0Z" fill="#005BFF"/>
</g>
<mask id="mask1_5326_8908" style="mask-type:luminance" maskUnits="userSpaceOnUse" x="0" y="0" width="28" height="28">
<path d="M14 28C6.2681 28 0 21.7315 0 14.001C0 6.27051 6.2681 0 14 0C21.7319 0 28 6.26854 28 14.001C27.998 21.7315 21.7299 28 14 28Z" fill="white"/>
</mask>
<g mask="url(#mask1_5326_8908)">
<path d="M31.095 23.9896C28.9676 25.9033 26.5151 28.7278 23.4344 28.6166C22.6051 28.0577 23.9166 26.9681 24.337 26.4966C25.6797 24.9902 27.0046 23.3823 28.3098 21.7433C33.0053 15.8476 31.4682 19.134 31.0952 23.9896H31.095Z" fill="#F1117E"/>
<path d="M5.12233 1.48168C3.87187 2.80533 2.65104 4.13095 1.42824 5.48225C0.762517 6.22112 0.161982 7.01728 -0.495843 7.768C-1.67123 9.10943 -2.88811 10.435 -4.27685 11.5315C-5.68534 12.6418 -7.20051 13.7639 -8.63666 14.8386C-8.64061 14.7576 -8.8105 10.9922 -8.81445 10.9072C-8.20602 9.87595 -7.59363 8.70838 -7.14125 7.58822C-6.87456 6.9264 -6.63948 6.231 -6.37082 5.56917C-5.85721 4.29492 -5.18358 3.12932 -4.19191 2.2008C-3.63878 1.68122 -3.00269 1.31376 -2.34881 0.96408C-0.387193 -0.0869322 1.57245 -1.15572 3.53802 -2.19686C4.70946 -2.81917 5.59644 -3.90377 6.64145 -4.72364L10.7879 -4.91132C8.90531 -2.7678 7.08395 -0.594658 5.12233 1.48168Z" fill="#F1117E"/>
<path d="M11.774 16.0862L9.3481 16.7362L11.3471 11.8053C11.3909 11.6953 11.3374 11.5706 11.2273 11.5265C11.1849 11.5096 11.1381 11.5068 11.0938 11.5183L6.61191 12.7192C6.21623 12.8253 5.98154 13.2319 6.08743 13.6276C6.19351 14.0233 6.60006 14.258 6.99574 14.1521L9.01109 13.612L7.00107 18.5478C6.95564 18.6559 7.0064 18.7805 7.11446 18.8259C7.15871 18.8445 7.2081 18.8477 7.25432 18.8346L12.1582 17.5205C12.5477 17.394 12.7611 16.9758 12.6347 16.5862C12.5175 16.2249 12.1463 16.0107 11.7749 16.0898L11.774 16.0858V16.0862ZM26.2488 7.45743C25.8532 7.56352 25.6185 7.9701 25.7244 8.36581L26.3682 10.7685L21.6729 8.73346C21.5658 8.68526 21.4402 8.73307 21.392 8.84015C21.3717 8.88539 21.3679 8.93616 21.3811 8.98397L22.7045 13.9231C22.8106 14.3188 23.2171 14.5535 23.6128 14.4475C24.0085 14.3414 24.2432 13.9348 24.1373 13.5391L23.4935 11.1364L28.1893 13.1734C28.2984 13.2198 28.4242 13.1693 28.4706 13.0602C28.4894 13.0161 28.493 12.9671 28.4807 12.9209L27.1574 7.98175C27.0513 7.58604 26.6447 7.35134 26.249 7.45724M17.2291 14.7697C15.5913 15.2086 14.1344 14.6735 13.9274 13.901C13.7204 13.1286 14.7146 11.9367 16.3524 11.4977C17.9903 11.0587 19.4472 11.5939 19.6542 12.3664C19.8612 13.1388 18.8709 14.3297 17.2291 14.7697ZM15.969 10.0668C13.5975 10.7023 12.0426 12.5902 12.4966 14.2843C12.9505 15.9783 15.2409 16.8359 17.6124 16.2004C19.9839 15.5648 21.5386 13.677 21.0846 11.9829C20.6307 10.2888 18.3405 9.43124 15.9688 10.0668M3.12959 18.55C2.22543 18.7934 1.29499 18.2578 1.05142 17.3533C0.808043 16.4489 1.34378 15.5186 2.24795 15.275C3.15211 15.0316 4.08254 15.5672 4.32612 16.4716L4.32671 16.4736C4.5689 17.3774 4.03316 18.3068 3.12959 18.55ZM1.86906 13.8451C0.174122 14.2981 -0.832764 16.0396 -0.379794 17.7346C0.0731764 19.4299 1.81453 20.4366 3.50967 19.9836C5.2046 19.5306 6.21148 17.7892 5.75851 16.0939L5.75753 16.09C5.30377 14.3963 3.5628 13.3911 1.86925 13.8449" fill="white"/>
</g>
</svg>
