<svg width="32" height="32" viewBox="0 0 32 32" fill="none" xmlns="http://www.w3.org/2000/svg">
<g clip-path="url(#clip0_5141_4057)">
<path d="M14.2099 20.2232H12.0124L13.3858 11.7827H15.5836L14.2099 20.2232ZM10.1638 11.7827L8.06875 17.5882L7.82085 16.338L7.82108 16.3385L7.08165 12.5427C7.08165 12.5427 6.99224 11.7827 6.03923 11.7827H2.5758L2.53516 11.9256C2.53516 11.9256 3.59428 12.146 4.8338 12.8904L6.74299 20.2234H9.0326L12.5288 11.7827H10.1638ZM27.4482 20.2232H29.466L27.7067 11.7825H25.9402C25.1245 11.7825 24.9258 12.4115 24.9258 12.4115L21.6484 20.2232H23.9392L24.3973 18.9695H27.1908L27.4482 20.2232ZM25.0301 17.2375L26.1847 14.0789L26.8343 17.2375H25.0301ZM21.8202 13.8125L22.1338 11.9999C22.1338 11.9999 21.1661 11.6319 20.1574 11.6319C19.0669 11.6319 16.4772 12.1085 16.4772 14.4261C16.4772 16.6067 19.5166 16.6338 19.5166 17.7792C19.5166 18.9245 16.7903 18.7193 15.8906 17.997L15.5639 19.8922C15.5639 19.8922 16.5451 20.3688 18.0443 20.3688C19.5439 20.3688 21.8062 19.5924 21.8062 17.4791C21.8062 15.2845 18.7395 15.0802 18.7395 14.1261C18.7397 13.1717 20.8799 13.2943 21.8202 13.8125Z" fill="#2566AF"/>
<path d="M7.82108 16.3382L7.08165 12.5424C7.08165 12.5424 6.99224 11.7825 6.03923 11.7825H2.5758L2.53516 11.9254C2.53516 11.9254 4.19982 12.2704 5.79652 13.563C7.32324 14.7984 7.82108 16.3382 7.82108 16.3382Z" fill="#E6A540"/>
</g>
<defs>
<clipPath id="clip0_5141_4057">
<rect width="32" height="32" fill="white"/>
</clipPath>
</defs>
</svg>
