<svg width="32" height="32" viewBox="0 0 32 32" fill="none" xmlns="http://www.w3.org/2000/svg">
<path d="M22.3203 15.6103V20.0411H24.7819V17.4154H27.5716C28.7449 17.4072 29.7419 16.6564 30.1193 15.6103H22.3203Z" fill="#37A72E"/>
<path d="M21.9922 11.959C22.1358 13.7682 23.8507 15.2 25.943 15.2C25.9512 15.2 30.2219 15.2 30.2219 15.2C30.2548 15.0359 30.2712 14.8636 30.2712 14.6872C30.2712 13.1857 29.0609 11.9713 27.5635 11.959H21.9922Z" fill="url(#paint0_linear_5141_4066)"/>
<path d="M18.3491 15.1549C18.3779 15.1057 18.423 15.0769 18.4804 15.0769C18.5625 15.0769 18.624 15.1426 18.6281 15.2205V20H21.0896V11.959H18.6281C18.3163 11.9713 17.9635 12.1969 17.8322 12.48L15.8753 16.681C15.8712 16.6974 15.863 16.7139 15.8548 16.7303C15.8261 16.7713 15.7768 16.8 15.7194 16.8C15.6291 16.8 15.5553 16.7262 15.5553 16.6359V11.959H13.0938V20H15.5553C15.863 19.9836 16.2076 19.758 16.3389 19.479L18.3491 15.1672C18.345 15.1631 18.3491 15.159 18.3491 15.1549Z" fill="#37A72E"/>
<path d="M9.16021 15.2944L7.72021 20H5.94791L4.51201 15.2903C4.4997 15.2164 4.43406 15.159 4.35201 15.159C4.26175 15.159 4.19201 15.2328 4.19201 15.319V19.9959H1.73047V11.9549H3.84329H4.47098C4.92226 11.9549 5.39816 12.3077 5.52944 12.7385L6.72739 16.6564C6.78893 16.8534 6.88329 16.8493 6.94483 16.6564L8.14278 12.7385C8.27406 12.3036 8.74996 11.9549 9.20124 11.9549H9.82893H11.9418V19.9959H9.48021V15.319C9.48021 15.319 9.48021 15.319 9.48021 15.3149C9.48021 15.2246 9.40637 15.1549 9.32021 15.1549C9.23816 15.159 9.17252 15.2164 9.16021 15.2944Z" fill="#37A72E"/>
<defs>
<linearGradient id="paint0_linear_5141_4066" x1="21.9932" y1="13.5795" x2="30.2707" y2="13.5795" gradientUnits="userSpaceOnUse">
<stop stop-color="#00A0E5"/>
<stop offset="1" stop-color="#0077C3"/>
</linearGradient>
</defs>
</svg>
