<svg width="50" height="50" viewBox="0 0 50 50" fill="none" xmlns="http://www.w3.org/2000/svg">
<rect width="50" height="50" rx="25" fill="white"/>
<path d="M20.5 19.7421C20.5 19.0138 20.5 18.6496 20.6519 18.4488C20.7842 18.2739 20.9864 18.1657 21.2053 18.1526C21.4566 18.1376 21.7596 18.3396 22.3656 18.7437L30.2523 24.0015C30.7531 24.3353 31.0035 24.5022 31.0907 24.7126C31.167 24.8966 31.167 25.1033 31.0907 25.2872C31.0035 25.4976 30.7531 25.6645 30.2523 25.9984L22.3656 31.2562C21.7596 31.6602 21.4566 31.8622 21.2053 31.8472C20.9864 31.8341 20.7842 31.7259 20.6519 31.551C20.5 31.3503 20.5 30.9861 20.5 30.2577V19.7421Z" fill="#29A1F8" stroke="#29A1F8" stroke-width="2" stroke-linecap="round" stroke-linejoin="round"/>
</svg>
