<svg width="328" height="132" viewBox="0 0 328 132" fill="none" xmlns="http://www.w3.org/2000/svg">
<rect x="0.5" y="0.5" width="327" height="131" stroke="#DCE3EB"/>
<path d="M27.4997 29.5833L29.1663 31.25L32.9163 27.5M36.6663 30C36.6663 34.0904 32.2047 37.0653 30.5813 38.0124C30.3968 38.12 30.3046 38.1738 30.1744 38.2018C30.0734 38.2234 29.926 38.2234 29.8249 38.2018C29.6948 38.1738 29.6025 38.12 29.418 38.0124C27.7946 37.0653 23.333 34.0904 23.333 30V26.0147C23.333 25.3484 23.333 25.0153 23.442 24.7289C23.5382 24.4759 23.6947 24.2502 23.8977 24.0713C24.1276 23.8687 24.4395 23.7517 25.0633 23.5178L29.5315 21.8422C29.7048 21.7773 29.7914 21.7448 29.8805 21.7319C29.9595 21.7205 30.0398 21.7205 30.1189 21.7319C30.208 21.7448 30.2946 21.7773 30.4678 21.8422L34.936 23.5178C35.5598 23.7517 35.8718 23.8687 36.1016 24.0713C36.3047 24.2502 36.4611 24.4759 36.5574 24.7289C36.6663 25.0153 36.6663 25.3484 36.6663 26.0147V30Z" stroke="#707D89" stroke-width="2" stroke-linecap="round" stroke-linejoin="round"/>
<path d="M49.416 34V25.6H54.756V26.368H50.052L50.28 26.14L50.292 34H49.416ZM59.9912 34V32.608L59.9552 32.38V30.052C59.9552 29.516 59.8032 29.104 59.4992 28.816C59.2032 28.528 58.7592 28.384 58.1672 28.384C57.7592 28.384 57.3712 28.452 57.0032 28.588C56.6352 28.724 56.3232 28.904 56.0672 29.128L55.6832 28.492C56.0032 28.22 56.3872 28.012 56.8352 27.868C57.2832 27.716 57.7552 27.64 58.2512 27.64C59.0672 27.64 59.6952 27.844 60.1352 28.252C60.5832 28.652 60.8072 29.264 60.8072 30.088V34H59.9912ZM57.8192 34.06C57.3472 34.06 56.9352 33.984 56.5832 33.832C56.2392 33.672 55.9752 33.456 55.7912 33.184C55.6072 32.904 55.5152 32.584 55.5152 32.224C55.5152 31.896 55.5912 31.6 55.7432 31.336C55.9032 31.064 56.1592 30.848 56.5112 30.688C56.8712 30.52 57.3512 30.436 57.9512 30.436H60.1232V31.072H57.9752C57.3672 31.072 56.9432 31.18 56.7032 31.396C56.4712 31.612 56.3552 31.88 56.3552 32.2C56.3552 32.56 56.4952 32.848 56.7752 33.064C57.0552 33.28 57.4472 33.388 57.9512 33.388C58.4312 33.388 58.8432 33.28 59.1872 33.064C59.5392 32.84 59.7952 32.52 59.9552 32.104L60.1472 32.692C59.9872 33.108 59.7072 33.44 59.3072 33.688C58.9152 33.936 58.4192 34.06 57.8192 34.06ZM66.3273 34.06C65.7833 34.06 65.2913 33.936 64.8513 33.688C64.4113 33.432 64.0593 33.068 63.7953 32.596C63.5393 32.116 63.4113 31.532 63.4113 30.844C63.4113 30.156 63.5393 29.576 63.7953 29.104C64.0513 28.624 64.3993 28.26 64.8393 28.012C65.2793 27.764 65.7753 27.64 66.3273 27.64C66.9273 27.64 67.4633 27.776 67.9353 28.048C68.4153 28.312 68.7913 28.688 69.0633 29.176C69.3353 29.656 69.4713 30.212 69.4713 30.844C69.4713 31.484 69.3353 32.044 69.0633 32.524C68.7913 33.004 68.4153 33.38 67.9353 33.652C67.4633 33.924 66.9273 34.06 66.3273 34.06ZM63.0753 36.328V27.7H63.8913V29.596L63.8073 30.856L63.9273 32.128V36.328H63.0753ZM66.2673 33.304C66.7153 33.304 67.1153 33.204 67.4673 33.004C67.8193 32.796 68.0993 32.508 68.3073 32.14C68.5153 31.764 68.6193 31.332 68.6193 30.844C68.6193 30.356 68.5153 29.928 68.3073 29.56C68.0993 29.192 67.8193 28.904 67.4673 28.696C67.1153 28.488 66.7153 28.384 66.2673 28.384C65.8193 28.384 65.4153 28.488 65.0553 28.696C64.7033 28.904 64.4233 29.192 64.2153 29.56C64.0153 29.928 63.9153 30.356 63.9153 30.844C63.9153 31.332 64.0153 31.764 64.2153 32.14C64.4233 32.508 64.7033 32.796 65.0553 33.004C65.4153 33.204 65.8193 33.304 66.2673 33.304ZM75.1787 34V32.608L75.1427 32.38V30.052C75.1427 29.516 74.9907 29.104 74.6867 28.816C74.3907 28.528 73.9467 28.384 73.3547 28.384C72.9467 28.384 72.5587 28.452 72.1907 28.588C71.8227 28.724 71.5107 28.904 71.2547 29.128L70.8707 28.492C71.1907 28.22 71.5747 28.012 72.0227 27.868C72.4707 27.716 72.9427 27.64 73.4387 27.64C74.2547 27.64 74.8827 27.844 75.3227 28.252C75.7707 28.652 75.9947 29.264 75.9947 30.088V34H75.1787ZM73.0067 34.06C72.5347 34.06 72.1227 33.984 71.7707 33.832C71.4267 33.672 71.1627 33.456 70.9787 33.184C70.7947 32.904 70.7027 32.584 70.7027 32.224C70.7027 31.896 70.7787 31.6 70.9307 31.336C71.0907 31.064 71.3467 30.848 71.6987 30.688C72.0587 30.52 72.5387 30.436 73.1387 30.436H75.3107V31.072H73.1627C72.5547 31.072 72.1307 31.18 71.8907 31.396C71.6587 31.612 71.5427 31.88 71.5427 32.2C71.5427 32.56 71.6827 32.848 71.9627 33.064C72.2427 33.28 72.6347 33.388 73.1387 33.388C73.6187 33.388 74.0307 33.28 74.3747 33.064C74.7267 32.84 74.9827 32.52 75.1427 32.104L75.3347 32.692C75.1747 33.108 74.8947 33.44 74.4947 33.688C74.1027 33.936 73.6067 34.06 73.0067 34.06ZM78.2628 34V27.7H79.1148V30.484H83.0868V27.7H83.9388V34H83.0868V31.216H79.1148V34H78.2628ZM87.5604 34V28.216L87.7764 28.444H85.1724V27.7H90.8004V28.444H88.1964L88.4124 28.216V34H87.5604ZM92.0323 34V27.7H92.8843V32.704L97.0963 27.7H97.8523V34H97.0003V28.984L92.8003 34H92.0323ZM104.362 34V31.732L104.518 31.912H102.382C101.574 31.912 100.942 31.736 100.486 31.384C100.03 31.032 99.802 30.52 99.802 29.848C99.802 29.128 100.046 28.592 100.534 28.24C101.022 27.88 101.674 27.7 102.49 27.7H105.142V34H104.362ZM99.754 34L101.482 31.576H102.37L100.678 34H99.754ZM104.362 31.48V28.192L104.518 28.444H102.514C101.93 28.444 101.474 28.556 101.146 28.78C100.826 29.004 100.666 29.368 100.666 29.872C100.666 30.808 101.262 31.276 102.454 31.276H104.518L104.362 31.48ZM107.631 28.948C107.455 28.948 107.303 28.884 107.175 28.756C107.055 28.628 106.995 28.472 106.995 28.288C106.995 28.096 107.055 27.94 107.175 27.82C107.303 27.7 107.455 27.64 107.631 27.64C107.807 27.64 107.955 27.7 108.075 27.82C108.203 27.94 108.267 28.096 108.267 28.288C108.267 28.472 108.203 28.628 108.075 28.756C107.955 28.884 107.807 28.948 107.631 28.948ZM107.631 34.06C107.455 34.06 107.303 33.996 107.175 33.868C107.055 33.74 106.995 33.584 106.995 33.4C106.995 33.208 107.055 33.052 107.175 32.932C107.303 32.812 107.455 32.752 107.631 32.752C107.807 32.752 107.955 32.812 108.075 32.932C108.203 33.052 108.267 33.208 108.267 33.4C108.267 33.584 108.203 33.74 108.075 33.868C107.955 33.996 107.807 34.06 107.631 34.06ZM114.131 34V25.96L114.515 26.368H112.151V25.6H114.995V34H114.131ZM120.732 34V27.7H125.196V28.444H121.368L121.584 28.228V34H120.732ZM128.726 34.06C128.118 34.06 127.57 33.924 127.082 33.652C126.602 33.372 126.222 32.992 125.942 32.512C125.662 32.024 125.522 31.468 125.522 30.844C125.522 30.212 125.662 29.656 125.942 29.176C126.222 28.696 126.602 28.32 127.082 28.048C127.562 27.776 128.11 27.64 128.726 27.64C129.35 27.64 129.902 27.776 130.382 28.048C130.87 28.32 131.25 28.696 131.522 29.176C131.802 29.656 131.942 30.212 131.942 30.844C131.942 31.468 131.802 32.024 131.522 32.512C131.25 32.992 130.87 33.372 130.382 33.652C129.894 33.924 129.342 34.06 128.726 34.06ZM128.726 33.304C129.182 33.304 129.586 33.204 129.938 33.004C130.29 32.796 130.566 32.508 130.766 32.14C130.974 31.764 131.078 31.332 131.078 30.844C131.078 30.348 130.974 29.916 130.766 29.548C130.566 29.18 130.29 28.896 129.938 28.696C129.586 28.488 129.186 28.384 128.738 28.384C128.29 28.384 127.89 28.488 127.538 28.696C127.186 28.896 126.906 29.18 126.698 29.548C126.49 29.916 126.386 30.348 126.386 30.844C126.386 31.332 126.49 31.764 126.698 32.14C126.906 32.508 127.186 32.796 127.538 33.004C127.89 33.204 128.286 33.304 128.726 33.304ZM138.048 33.592V28.444H135.012L134.94 29.848C134.924 30.272 134.896 30.688 134.856 31.096C134.824 31.504 134.764 31.88 134.676 32.224C134.596 32.56 134.48 32.836 134.328 33.052C134.176 33.26 133.98 33.38 133.74 33.412L132.888 33.256C133.136 33.264 133.34 33.176 133.5 32.992C133.66 32.8 133.784 32.54 133.872 32.212C133.96 31.884 134.024 31.512 134.064 31.096C134.104 30.672 134.136 30.24 134.16 29.8L134.244 27.7H138.9V33.592H138.048ZM132.624 35.524V33.256H139.884V35.524H139.08V34H133.428V35.524H132.624Z" fill="#707D89"/>
<path d="M22.5 63.5H33.75C35.8211 63.5 37.5 65.1789 37.5 67.25C37.5 69.321 35.8211 71 33.75 71H30M22.5 63.5L25.8333 60.1666M22.5 63.5L25.8333 66.8333" stroke="#707D89" stroke-width="2" stroke-linecap="round" stroke-linejoin="round"/>
<path d="M49.416 70V61.6H52.908C53.796 61.6 54.492 61.784 54.996 62.152C55.508 62.512 55.764 63.044 55.764 63.748C55.764 64.444 55.52 64.972 55.032 65.332C54.544 65.684 53.904 65.86 53.112 65.86L53.316 65.56C54.252 65.56 54.964 65.744 55.452 66.112C55.94 66.48 56.184 67.02 56.184 67.732C56.184 68.452 55.928 69.012 55.416 69.412C54.912 69.804 54.152 70 53.136 70H49.416ZM50.292 69.292H53.136C53.848 69.292 54.388 69.16 54.756 68.896C55.124 68.632 55.308 68.224 55.308 67.672C55.308 67.128 55.124 66.728 54.756 66.472C54.388 66.216 53.848 66.088 53.136 66.088H50.292V69.292ZM50.292 65.404H52.86C53.508 65.404 54.004 65.276 54.348 65.02C54.7 64.756 54.876 64.368 54.876 63.856C54.876 63.344 54.7 62.96 54.348 62.704C54.004 62.44 53.508 62.308 52.86 62.308H50.292V65.404ZM60.7923 70.06C60.1843 70.06 59.6363 69.924 59.1483 69.652C58.6683 69.372 58.2883 68.992 58.0083 68.512C57.7283 68.024 57.5883 67.468 57.5883 66.844C57.5883 66.212 57.7283 65.656 58.0083 65.176C58.2883 64.696 58.6683 64.32 59.1483 64.048C59.6283 63.776 60.1763 63.64 60.7923 63.64C61.4163 63.64 61.9683 63.776 62.4483 64.048C62.9363 64.32 63.3163 64.696 63.5883 65.176C63.8683 65.656 64.0083 66.212 64.0083 66.844C64.0083 67.468 63.8683 68.024 63.5883 68.512C63.3163 68.992 62.9363 69.372 62.4483 69.652C61.9603 69.924 61.4083 70.06 60.7923 70.06ZM60.7923 69.304C61.2483 69.304 61.6523 69.204 62.0043 69.004C62.3563 68.796 62.6323 68.508 62.8323 68.14C63.0403 67.764 63.1443 67.332 63.1443 66.844C63.1443 66.348 63.0403 65.916 62.8323 65.548C62.6323 65.18 62.3563 64.896 62.0043 64.696C61.6523 64.488 61.2523 64.384 60.8043 64.384C60.3563 64.384 59.9563 64.488 59.6043 64.696C59.2523 64.896 58.9723 65.18 58.7643 65.548C58.5563 65.916 58.4523 66.348 58.4523 66.844C58.4523 67.332 58.5563 67.764 58.7643 68.14C58.9723 68.508 59.2523 68.796 59.6043 69.004C59.9563 69.204 60.3523 69.304 60.7923 69.304ZM67.4743 70.072C67.0183 70.072 66.5663 70.008 66.1183 69.88C65.6703 69.752 65.2743 69.556 64.9303 69.292L65.2063 68.656C65.5103 68.88 65.8623 69.052 66.2623 69.172C66.6623 69.284 67.0583 69.34 67.4503 69.34C67.8423 69.332 68.1823 69.276 68.4703 69.172C68.7583 69.068 68.9823 68.924 69.1423 68.74C69.3023 68.556 69.3823 68.348 69.3823 68.116C69.3823 67.78 69.2303 67.52 68.9263 67.336C68.6223 67.144 68.2063 67.048 67.6783 67.048H66.5983V66.424H67.6183C67.9303 66.424 68.2063 66.384 68.4463 66.304C68.6863 66.224 68.8703 66.108 68.9983 65.956C69.1343 65.804 69.2023 65.624 69.2023 65.416C69.2023 65.192 69.1223 65 68.9623 64.84C68.8103 64.68 68.5983 64.56 68.3263 64.48C68.0543 64.4 67.7463 64.36 67.4023 64.36C67.0903 64.368 66.7663 64.416 66.4303 64.504C66.0943 64.584 65.7623 64.708 65.4343 64.876L65.1943 64.216C65.5623 64.024 65.9263 63.88 66.2863 63.784C66.6543 63.68 67.0223 63.628 67.3903 63.628C67.8943 63.612 68.3463 63.672 68.7463 63.808C69.1543 63.944 69.4783 64.14 69.7183 64.396C69.9583 64.644 70.0783 64.944 70.0783 65.296C70.0783 65.608 69.9823 65.88 69.7903 66.112C69.5983 66.344 69.3423 66.524 69.0223 66.652C68.7023 66.78 68.3383 66.844 67.9303 66.844L67.9663 66.616C68.6863 66.616 69.2463 66.756 69.6463 67.036C70.0543 67.316 70.2583 67.696 70.2583 68.176C70.2583 68.552 70.1343 68.884 69.8863 69.172C69.6383 69.452 69.3023 69.672 68.8783 69.832C68.4623 69.992 67.9943 70.072 67.4743 70.072ZM72.1925 70V63.7H74.9765C75.6885 63.7 76.2485 63.836 76.6565 64.108C77.0725 64.38 77.2805 64.78 77.2805 65.308C77.2805 65.82 77.0845 66.216 76.6925 66.496C76.3005 66.768 75.7845 66.904 75.1445 66.904L75.3125 66.652C76.0645 66.652 76.6165 66.792 76.9685 67.072C77.3205 67.352 77.4965 67.756 77.4965 68.284C77.4965 68.828 77.2965 69.252 76.8965 69.556C76.5045 69.852 75.8925 70 75.0605 70H72.1925ZM73.0205 69.328H75.0245C75.5605 69.328 75.9645 69.244 76.2365 69.076C76.5165 68.9 76.6565 68.62 76.6565 68.236C76.6565 67.852 76.5325 67.572 76.2845 67.396C76.0365 67.22 75.6445 67.132 75.1085 67.132H73.0205V69.328ZM73.0205 66.496H74.9165C75.4045 66.496 75.7765 66.404 76.0325 66.22C76.2965 66.036 76.4285 65.768 76.4285 65.416C76.4285 65.064 76.2965 64.8 76.0325 64.624C75.7765 64.448 75.4045 64.36 74.9165 64.36H73.0205V66.496ZM82.7453 70.06C82.2013 70.06 81.7093 69.936 81.2693 69.688C80.8293 69.432 80.4773 69.068 80.2133 68.596C79.9573 68.116 79.8293 67.532 79.8293 66.844C79.8293 66.156 79.9573 65.576 80.2133 65.104C80.4693 64.624 80.8173 64.26 81.2573 64.012C81.6973 63.764 82.1933 63.64 82.7453 63.64C83.3453 63.64 83.8813 63.776 84.3533 64.048C84.8333 64.312 85.2093 64.688 85.4813 65.176C85.7533 65.656 85.8893 66.212 85.8893 66.844C85.8893 67.484 85.7533 68.044 85.4813 68.524C85.2093 69.004 84.8333 69.38 84.3533 69.652C83.8813 69.924 83.3453 70.06 82.7453 70.06ZM79.4933 72.328V63.7H80.3093V65.596L80.2253 66.856L80.3453 68.128V72.328H79.4933ZM82.6853 69.304C83.1333 69.304 83.5333 69.204 83.8853 69.004C84.2373 68.796 84.5173 68.508 84.7253 68.14C84.9333 67.764 85.0373 67.332 85.0373 66.844C85.0373 66.356 84.9333 65.928 84.7253 65.56C84.5173 65.192 84.2373 64.904 83.8853 64.696C83.5333 64.488 83.1333 64.384 82.6853 64.384C82.2373 64.384 81.8333 64.488 81.4733 64.696C81.1213 64.904 80.8413 65.192 80.6333 65.56C80.4333 65.928 80.3333 66.356 80.3333 66.844C80.3333 67.332 80.4333 67.764 80.6333 68.14C80.8413 68.508 81.1213 68.796 81.4733 69.004C81.8333 69.204 82.2373 69.304 82.6853 69.304ZM91.5967 70V68.608L91.5607 68.38V66.052C91.5607 65.516 91.4087 65.104 91.1047 64.816C90.8087 64.528 90.3647 64.384 89.7727 64.384C89.3647 64.384 88.9767 64.452 88.6087 64.588C88.2407 64.724 87.9287 64.904 87.6727 65.128L87.2887 64.492C87.6087 64.22 87.9927 64.012 88.4407 63.868C88.8887 63.716 89.3607 63.64 89.8567 63.64C90.6727 63.64 91.3007 63.844 91.7407 64.252C92.1887 64.652 92.4127 65.264 92.4127 66.088V70H91.5967ZM89.4247 70.06C88.9527 70.06 88.5407 69.984 88.1887 69.832C87.8447 69.672 87.5807 69.456 87.3967 69.184C87.2127 68.904 87.1207 68.584 87.1207 68.224C87.1207 67.896 87.1967 67.6 87.3487 67.336C87.5087 67.064 87.7647 66.848 88.1167 66.688C88.4767 66.52 88.9567 66.436 89.5567 66.436H91.7287V67.072H89.5807C88.9727 67.072 88.5487 67.18 88.3087 67.396C88.0767 67.612 87.9607 67.88 87.9607 68.2C87.9607 68.56 88.1007 68.848 88.3807 69.064C88.6607 69.28 89.0527 69.388 89.5567 69.388C90.0367 69.388 90.4487 69.28 90.7927 69.064C91.1447 68.84 91.4007 68.52 91.5607 68.104L91.7527 68.692C91.5927 69.108 91.3127 69.44 90.9127 69.688C90.5207 69.936 90.0247 70.06 89.4247 70.06ZM95.8808 70V64.216L96.0968 64.444H93.4928V63.7H99.1208V64.444H96.5168L96.7328 64.216V70H95.8808ZM100.413 64.948C100.237 64.948 100.085 64.884 99.9566 64.756C99.8366 64.628 99.7766 64.472 99.7766 64.288C99.7766 64.096 99.8366 63.94 99.9566 63.82C100.085 63.7 100.237 63.64 100.413 63.64C100.589 63.64 100.737 63.7 100.857 63.82C100.985 63.94 101.049 64.096 101.049 64.288C101.049 64.472 100.985 64.628 100.857 64.756C100.737 64.884 100.589 64.948 100.413 64.948ZM100.413 70.06C100.237 70.06 100.085 69.996 99.9566 69.868C99.8366 69.74 99.7766 69.584 99.7766 69.4C99.7766 69.208 99.8366 69.052 99.9566 68.932C100.085 68.812 100.237 68.752 100.413 68.752C100.589 68.752 100.737 68.812 100.857 68.932C100.985 69.052 101.049 69.208 101.049 69.4C101.049 69.584 100.985 69.74 100.857 69.868C100.737 69.996 100.589 70.06 100.413 70.06ZM106.912 70V61.96L107.296 62.368H104.932V61.6H107.776V70H106.912ZM113.132 70.072C112.484 70.072 111.908 69.904 111.404 69.568C110.9 69.224 110.504 68.736 110.216 68.104C109.928 67.464 109.784 66.696 109.784 65.8C109.784 64.904 109.928 64.14 110.216 63.508C110.504 62.868 110.9 62.38 111.404 62.044C111.908 61.7 112.484 61.528 113.132 61.528C113.78 61.528 114.356 61.7 114.86 62.044C115.364 62.38 115.76 62.868 116.048 63.508C116.344 64.14 116.492 64.904 116.492 65.8C116.492 66.696 116.344 67.464 116.048 68.104C115.76 68.736 115.364 69.224 114.86 69.568C114.356 69.904 113.78 70.072 113.132 70.072ZM113.132 69.28C113.628 69.28 114.06 69.148 114.428 68.884C114.796 68.612 115.084 68.22 115.292 67.708C115.5 67.188 115.604 66.552 115.604 65.8C115.604 65.048 115.5 64.416 115.292 63.904C115.084 63.384 114.796 62.992 114.428 62.728C114.06 62.456 113.628 62.32 113.132 62.32C112.652 62.32 112.224 62.456 111.848 62.728C111.472 62.992 111.18 63.384 110.972 63.904C110.764 64.416 110.66 65.048 110.66 65.8C110.66 66.552 110.764 67.188 110.972 67.708C111.18 68.22 111.472 68.612 111.848 68.884C112.224 69.148 112.652 69.28 113.132 69.28ZM125.778 69.592V64.444H122.742L122.67 65.848C122.654 66.272 122.626 66.688 122.586 67.096C122.554 67.504 122.494 67.88 122.406 68.224C122.326 68.56 122.21 68.836 122.058 69.052C121.906 69.26 121.71 69.38 121.47 69.412L120.618 69.256C120.866 69.264 121.07 69.176 121.23 68.992C121.39 68.8 121.514 68.54 121.602 68.212C121.69 67.884 121.754 67.512 121.794 67.096C121.834 66.672 121.866 66.24 121.89 65.8L121.974 63.7H126.63V69.592H125.778ZM120.354 71.524V69.256H127.614V71.524H126.81V70H121.158V71.524H120.354ZM129.275 70V63.7H130.127V66.484H134.099V63.7H134.951V70H134.099V67.216H130.127V70H129.275ZM140.072 70.06C139.416 70.06 138.84 69.924 138.344 69.652C137.848 69.372 137.46 68.992 137.18 68.512C136.9 68.024 136.76 67.468 136.76 66.844C136.76 66.22 136.892 65.668 137.156 65.188C137.428 64.708 137.796 64.332 138.26 64.06C138.732 63.78 139.26 63.64 139.844 63.64C140.436 63.64 140.96 63.776 141.416 64.048C141.88 64.312 142.244 64.688 142.508 65.176C142.772 65.656 142.904 66.212 142.904 66.844C142.904 66.884 142.9 66.928 142.892 66.976C142.892 67.016 142.892 67.06 142.892 67.108H137.408V66.472H142.436L142.1 66.724C142.1 66.268 142 65.864 141.8 65.512C141.608 65.152 141.344 64.872 141.008 64.672C140.672 64.472 140.284 64.372 139.844 64.372C139.412 64.372 139.024 64.472 138.68 64.672C138.336 64.872 138.068 65.152 137.876 65.512C137.684 65.872 137.588 66.284 137.588 66.748V66.88C137.588 67.36 137.692 67.784 137.9 68.152C138.116 68.512 138.412 68.796 138.788 69.004C139.172 69.204 139.608 69.304 140.096 69.304C140.48 69.304 140.836 69.236 141.164 69.1C141.5 68.964 141.788 68.756 142.028 68.476L142.508 69.028C142.228 69.364 141.876 69.62 141.452 69.796C141.036 69.972 140.576 70.06 140.072 70.06ZM144.79 70V63.7H145.642V68.704L149.854 63.7H150.61V70H149.758V64.984L145.558 70H144.79ZM147.646 62.788C147.118 62.788 146.69 62.656 146.362 62.392C146.042 62.12 145.874 61.732 145.858 61.228H146.47C146.478 61.548 146.59 61.8 146.806 61.984C147.022 62.168 147.302 62.26 147.646 62.26C147.99 62.26 148.27 62.168 148.486 61.984C148.71 61.8 148.826 61.548 148.834 61.228H149.446C149.438 61.732 149.27 62.12 148.942 62.392C148.614 62.656 148.182 62.788 147.646 62.788Z" fill="#707D89"/>
<path d="M30.8337 96.1667C30.8337 97.0871 28.7816 97.8333 26.2503 97.8333C23.719 97.8333 21.667 97.0871 21.667 96.1667M30.8337 96.1667C30.8337 95.2462 28.7816 94.5 26.2503 94.5C23.719 94.5 21.667 95.2462 21.667 96.1667M30.8337 96.1667V97.4167M21.667 96.1667L21.667 106.167C21.667 107.087 23.719 107.833 26.2503 107.833M26.2503 101.167C26.1099 101.167 25.9709 101.164 25.8337 101.16C23.4976 101.083 21.667 100.369 21.667 99.5M26.2503 104.5C23.719 104.5 21.667 103.754 21.667 102.833M38.3337 101.583C38.3337 102.504 36.2816 103.25 33.7503 103.25C31.219 103.25 29.167 102.504 29.167 101.583M38.3337 101.583C38.3337 100.663 36.2816 99.9167 33.7503 99.9167C31.219 99.9167 29.167 100.663 29.167 101.583M38.3337 101.583V107.833C38.3337 108.754 36.2816 109.5 33.7503 109.5C31.219 109.5 29.167 108.754 29.167 107.833V101.583M38.3337 104.708C38.3337 105.629 36.2816 106.375 33.7503 106.375C31.219 106.375 29.167 105.629 29.167 104.708" stroke="#707D89" stroke-width="2" stroke-linecap="round" stroke-linejoin="round"/>
<path d="M53.1 106.072C52.468 106.072 51.88 105.968 51.336 105.76C50.8 105.544 50.332 105.244 49.932 104.86C49.54 104.468 49.232 104.016 49.008 103.504C48.792 102.984 48.684 102.416 48.684 101.8C48.684 101.184 48.792 100.62 49.008 100.108C49.232 99.588 49.54 99.136 49.932 98.752C50.332 98.36 50.8 98.06 51.336 97.852C51.872 97.636 52.46 97.528 53.1 97.528C53.732 97.528 54.316 97.636 54.852 97.852C55.388 98.06 55.852 98.356 56.244 98.74C56.644 99.124 56.952 99.576 57.168 100.096C57.392 100.616 57.504 101.184 57.504 101.8C57.504 102.416 57.392 102.984 57.168 103.504C56.952 104.024 56.644 104.476 56.244 104.86C55.852 105.244 55.388 105.544 54.852 105.76C54.316 105.968 53.732 106.072 53.1 106.072ZM53.1 105.28C53.604 105.28 54.068 105.196 54.492 105.028C54.924 104.852 55.296 104.608 55.608 104.296C55.928 103.976 56.176 103.608 56.352 103.192C56.528 102.768 56.616 102.304 56.616 101.8C56.616 101.296 56.528 100.836 56.352 100.42C56.176 99.996 55.928 99.628 55.608 99.316C55.296 98.996 54.924 98.752 54.492 98.584C54.068 98.408 53.604 98.32 53.1 98.32C52.596 98.32 52.128 98.408 51.696 98.584C51.264 98.752 50.888 98.996 50.568 99.316C50.256 99.628 50.008 99.996 49.824 100.42C49.648 100.836 49.56 101.296 49.56 101.8C49.56 102.296 49.648 102.756 49.824 103.18C50.008 103.604 50.256 103.976 50.568 104.296C50.888 104.608 51.264 104.852 51.696 105.028C52.128 105.196 52.596 105.28 53.1 105.28ZM59.419 106V99.7H65.083V106H64.231V100.216L64.447 100.444H60.055L60.271 100.216V106H59.419ZM66.353 105.988L66.413 105.256C66.469 105.264 66.521 105.276 66.569 105.292C66.625 105.3 66.673 105.304 66.713 105.304C66.969 105.304 67.173 105.208 67.325 105.016C67.485 104.824 67.605 104.568 67.685 104.248C67.765 103.928 67.821 103.568 67.853 103.168C67.885 102.76 67.913 102.352 67.937 101.944L68.045 99.7H72.665V106H71.813V100.192L72.029 100.444H68.597L68.801 100.18L68.705 102.004C68.681 102.548 68.637 103.068 68.573 103.564C68.517 104.06 68.425 104.496 68.297 104.872C68.177 105.248 68.009 105.544 67.793 105.76C67.577 105.968 67.301 106.072 66.965 106.072C66.869 106.072 66.769 106.064 66.665 106.048C66.569 106.032 66.465 106.012 66.353 105.988ZM78.999 106V104.608L78.963 104.38V102.052C78.963 101.516 78.811 101.104 78.507 100.816C78.211 100.528 77.767 100.384 77.175 100.384C76.767 100.384 76.379 100.452 76.011 100.588C75.643 100.724 75.331 100.904 75.075 101.128L74.691 100.492C75.011 100.22 75.395 100.012 75.843 99.868C76.291 99.716 76.763 99.64 77.259 99.64C78.075 99.64 78.703 99.844 79.143 100.252C79.591 100.652 79.815 101.264 79.815 102.088V106H78.999ZM76.827 106.06C76.355 106.06 75.943 105.984 75.591 105.832C75.247 105.672 74.983 105.456 74.799 105.184C74.615 104.904 74.523 104.584 74.523 104.224C74.523 103.896 74.599 103.6 74.751 103.336C74.911 103.064 75.167 102.848 75.519 102.688C75.879 102.52 76.359 102.436 76.959 102.436H79.131V103.072H76.983C76.375 103.072 75.951 103.18 75.711 103.396C75.479 103.612 75.363 103.88 75.363 104.2C75.363 104.56 75.503 104.848 75.783 105.064C76.063 105.28 76.455 105.388 76.959 105.388C77.439 105.388 77.851 105.28 78.195 105.064C78.547 104.84 78.803 104.52 78.963 104.104L79.155 104.692C78.995 105.108 78.715 105.44 78.315 105.688C77.923 105.936 77.427 106.06 76.827 106.06ZM83.2831 106V100.216L83.4991 100.444H80.8951V99.7H86.5231V100.444H83.9191L84.1351 100.216V106H83.2831ZM91.667 106V104.608L91.631 104.38V102.052C91.631 101.516 91.479 101.104 91.175 100.816C90.879 100.528 90.435 100.384 89.843 100.384C89.435 100.384 89.047 100.452 88.679 100.588C88.311 100.724 87.999 100.904 87.743 101.128L87.359 100.492C87.679 100.22 88.063 100.012 88.511 99.868C88.959 99.716 89.431 99.64 89.927 99.64C90.743 99.64 91.371 99.844 91.811 100.252C92.259 100.652 92.483 101.264 92.483 102.088V106H91.667ZM89.495 106.06C89.023 106.06 88.611 105.984 88.259 105.832C87.915 105.672 87.651 105.456 87.467 105.184C87.283 104.904 87.191 104.584 87.191 104.224C87.191 103.896 87.267 103.6 87.419 103.336C87.579 103.064 87.835 102.848 88.187 102.688C88.547 102.52 89.027 102.436 89.627 102.436H91.799V103.072H89.651C89.043 103.072 88.619 103.18 88.379 103.396C88.147 103.612 88.031 103.88 88.031 104.2C88.031 104.56 88.171 104.848 88.451 105.064C88.731 105.28 89.123 105.388 89.627 105.388C90.107 105.388 90.519 105.28 90.863 105.064C91.215 104.84 91.471 104.52 91.631 104.104L91.823 104.692C91.663 105.108 91.383 105.44 90.983 105.688C90.591 105.936 90.095 106.06 89.495 106.06ZM97.8917 106V99.7H103.556V106H102.704V100.216L102.92 100.444H98.5277L98.7437 100.216V106H97.8917ZM109.23 106.06C108.686 106.06 108.194 105.936 107.754 105.688C107.314 105.432 106.962 105.068 106.698 104.596C106.442 104.116 106.314 103.532 106.314 102.844C106.314 102.156 106.442 101.576 106.698 101.104C106.954 100.624 107.302 100.26 107.742 100.012C108.182 99.764 108.678 99.64 109.23 99.64C109.83 99.64 110.366 99.776 110.838 100.048C111.318 100.312 111.694 100.688 111.966 101.176C112.238 101.656 112.374 102.212 112.374 102.844C112.374 103.484 112.238 104.044 111.966 104.524C111.694 105.004 111.318 105.38 110.838 105.652C110.366 105.924 109.83 106.06 109.23 106.06ZM105.978 108.328V99.7H106.794V101.596L106.71 102.856L106.83 104.128V108.328H105.978ZM109.17 105.304C109.618 105.304 110.018 105.204 110.37 105.004C110.722 104.796 111.002 104.508 111.21 104.14C111.418 103.764 111.522 103.332 111.522 102.844C111.522 102.356 111.418 101.928 111.21 101.56C111.002 101.192 110.722 100.904 110.37 100.696C110.018 100.488 109.618 100.384 109.17 100.384C108.722 100.384 108.318 100.488 107.958 100.696C107.606 100.904 107.326 101.192 107.118 101.56C106.918 101.928 106.818 102.356 106.818 102.844C106.818 103.332 106.918 103.764 107.118 104.14C107.326 104.508 107.606 104.796 107.958 105.004C108.318 105.204 108.722 105.304 109.17 105.304ZM114.204 106V99.7H115.056V104.704L119.268 99.7H120.024V106H119.172V100.984L114.972 106H114.204ZM125.607 106V99.7H131.271V106H130.419V100.216L130.635 100.444H126.243L126.459 100.216V106H125.607ZM136.284 106.06C135.676 106.06 135.128 105.924 134.64 105.652C134.16 105.372 133.78 104.992 133.5 104.512C133.22 104.024 133.08 103.468 133.08 102.844C133.08 102.212 133.22 101.656 133.5 101.176C133.78 100.696 134.16 100.32 134.64 100.048C135.12 99.776 135.668 99.64 136.284 99.64C136.908 99.64 137.46 99.776 137.94 100.048C138.428 100.32 138.808 100.696 139.08 101.176C139.36 101.656 139.5 102.212 139.5 102.844C139.5 103.468 139.36 104.024 139.08 104.512C138.808 104.992 138.428 105.372 137.94 105.652C137.452 105.924 136.9 106.06 136.284 106.06ZM136.284 105.304C136.74 105.304 137.144 105.204 137.496 105.004C137.848 104.796 138.124 104.508 138.324 104.14C138.532 103.764 138.636 103.332 138.636 102.844C138.636 102.348 138.532 101.916 138.324 101.548C138.124 101.18 137.848 100.896 137.496 100.696C137.144 100.488 136.744 100.384 136.296 100.384C135.848 100.384 135.448 100.488 135.096 100.696C134.744 100.896 134.464 101.18 134.256 101.548C134.048 101.916 133.944 102.348 133.944 102.844C133.944 103.332 134.048 103.764 134.256 104.14C134.464 104.508 134.744 104.796 135.096 105.004C135.448 105.204 135.844 105.304 136.284 105.304ZM140.134 105.988L140.194 105.256C140.25 105.264 140.302 105.276 140.35 105.292C140.406 105.3 140.454 105.304 140.494 105.304C140.75 105.304 140.954 105.208 141.106 105.016C141.266 104.824 141.386 104.568 141.466 104.248C141.546 103.928 141.602 103.568 141.634 103.168C141.666 102.76 141.694 102.352 141.718 101.944L141.826 99.7H146.446V106H145.594V100.192L145.81 100.444H142.378L142.582 100.18L142.486 102.004C142.462 102.548 142.418 103.068 142.354 103.564C142.298 104.06 142.206 104.496 142.078 104.872C141.958 105.248 141.79 105.544 141.574 105.76C141.358 105.968 141.082 106.072 140.746 106.072C140.65 106.072 140.55 106.064 140.446 106.048C140.35 106.032 140.246 106.012 140.134 105.988ZM148.976 108.388C148.68 108.388 148.396 108.34 148.124 108.244C147.86 108.148 147.632 108.004 147.44 107.812L147.836 107.176C147.996 107.328 148.168 107.444 148.352 107.524C148.544 107.612 148.756 107.656 148.988 107.656C149.268 107.656 149.508 107.576 149.708 107.416C149.916 107.264 150.112 106.992 150.296 106.6L150.704 105.676L150.8 105.544L153.392 99.7H154.232L151.076 106.756C150.9 107.164 150.704 107.488 150.488 107.728C150.28 107.968 150.052 108.136 149.804 108.232C149.556 108.336 149.28 108.388 148.976 108.388ZM150.656 106.18L147.752 99.7H148.64L151.208 105.484L150.656 106.18ZM159.544 103.336C159.176 103.496 158.804 103.624 158.428 103.72C158.06 103.808 157.692 103.852 157.324 103.852C156.58 103.852 155.992 103.684 155.56 103.348C155.128 103.004 154.912 102.476 154.912 101.764V99.7H155.752V101.716C155.752 102.196 155.908 102.556 156.22 102.796C156.532 103.036 156.952 103.156 157.48 103.156C157.8 103.156 158.136 103.116 158.488 103.036C158.84 102.948 159.196 102.824 159.556 102.664L159.544 103.336ZM159.472 106V99.7H160.324V106H159.472ZM165.443 106.06C164.787 106.06 164.211 105.924 163.715 105.652C163.219 105.372 162.831 104.992 162.551 104.512C162.271 104.024 162.131 103.468 162.131 102.844C162.131 102.22 162.263 101.668 162.527 101.188C162.799 100.708 163.167 100.332 163.631 100.06C164.103 99.78 164.631 99.64 165.215 99.64C165.807 99.64 166.331 99.776 166.787 100.048C167.251 100.312 167.615 100.688 167.879 101.176C168.143 101.656 168.275 102.212 168.275 102.844C168.275 102.884 168.271 102.928 168.263 102.976C168.263 103.016 168.263 103.06 168.263 103.108H162.779V102.472H167.807L167.471 102.724C167.471 102.268 167.371 101.864 167.171 101.512C166.979 101.152 166.715 100.872 166.379 100.672C166.043 100.472 165.655 100.372 165.215 100.372C164.783 100.372 164.395 100.472 164.051 100.672C163.707 100.872 163.439 101.152 163.247 101.512C163.055 101.872 162.959 102.284 162.959 102.748V102.88C162.959 103.36 163.063 103.784 163.271 104.152C163.487 104.512 163.783 104.796 164.159 105.004C164.543 105.204 164.979 105.304 165.467 105.304C165.851 105.304 166.207 105.236 166.535 105.1C166.871 104.964 167.159 104.756 167.399 104.476L167.879 105.028C167.599 105.364 167.247 105.62 166.823 105.796C166.407 105.972 165.947 106.06 165.443 106.06ZM170.161 106V99.7H171.013V102.484H174.985V99.7H175.837V106H174.985V103.216H171.013V106H170.161ZM178.259 106V99.7H179.111V104.704L183.323 99.7H184.079V106H183.227V100.984L179.027 106H178.259ZM186.521 106V99.7H187.373V104.704L191.585 99.7H192.341V106H191.489V100.984L187.289 106H186.521Z" fill="#707D89"/>
</svg>
