<svg width="306" height="138" viewBox="0 0 306 138" fill="none" xmlns="http://www.w3.org/2000/svg">
<rect x="0.5" y="0.5" width="305" height="137" stroke="#DCE3EB"/>
<path d="M27.5002 30.5833L29.1668 32.25L32.9168 28.5M36.6668 31C36.6668 35.0904 32.2052 38.0653 30.5818 39.0124C30.3973 39.12 30.3051 39.1738 30.1749 39.2018C30.0739 39.2234 29.9265 39.2234 29.8254 39.2018C29.6952 39.1738 29.603 39.12 29.4185 39.0124C27.7951 38.0653 23.3335 35.0904 23.3335 31V27.0147C23.3335 26.3484 23.3335 26.0153 23.4425 25.7289C23.5387 25.4759 23.6951 25.2502 23.8982 25.0713C24.1281 24.8687 24.44 24.7517 25.0638 24.5178L29.532 22.8422C29.7052 22.7773 29.7919 22.7448 29.881 22.7319C29.96 22.7205 30.0403 22.7205 30.1193 22.7319C30.2085 22.7448 30.2951 22.7773 30.4683 22.8422L34.9365 24.5178C35.5603 24.7517 35.8722 24.8687 36.1021 25.0713C36.3052 25.2502 36.4616 25.4759 36.5579 25.7289C36.6668 26.0153 36.6668 26.3484 36.6668 27.0147V31Z" stroke="#707D89" stroke-width="2" stroke-linecap="round" stroke-linejoin="round"/>
<path d="M49.652 36V26.2H55.882V27.096H50.394L50.66 26.83L50.674 36H49.652ZM61.9897 36V34.376L61.9477 34.11V31.394C61.9477 30.7687 61.7704 30.288 61.4157 29.952C61.0704 29.616 60.5524 29.448 59.8617 29.448C59.3857 29.448 58.9331 29.5273 58.5037 29.686C58.0744 29.8447 57.7104 30.0547 57.4117 30.316L56.9637 29.574C57.3371 29.2567 57.7851 29.014 58.3077 28.846C58.8304 28.6687 59.3811 28.58 59.9597 28.58C60.9117 28.58 61.6444 28.818 62.1577 29.294C62.6804 29.7607 62.9417 30.4747 62.9417 31.436V36H61.9897ZM59.4557 36.07C58.9051 36.07 58.4244 35.9813 58.0137 35.804C57.6124 35.6173 57.3044 35.3653 57.0897 35.048C56.8751 34.7213 56.7677 34.348 56.7677 33.928C56.7677 33.5453 56.8564 33.2 57.0337 32.892C57.2204 32.5747 57.5191 32.3227 57.9297 32.136C58.3497 31.94 58.9097 31.842 59.6097 31.842H62.1437V32.584H59.6377C58.9284 32.584 58.4337 32.71 58.1537 32.962C57.8831 33.214 57.7477 33.5267 57.7477 33.9C57.7477 34.32 57.9111 34.656 58.2377 34.908C58.5644 35.16 59.0217 35.286 59.6097 35.286C60.1697 35.286 60.6504 35.16 61.0517 34.908C61.4624 34.6467 61.7611 34.2733 61.9477 33.788L62.1717 34.474C61.9851 34.9593 61.6584 35.3467 61.1917 35.636C60.7344 35.9253 60.1557 36.07 59.4557 36.07ZM69.3818 36.07C68.7472 36.07 68.1732 35.9253 67.6598 35.636C67.1465 35.3373 66.7358 34.9127 66.4278 34.362C66.1292 33.802 65.9798 33.1207 65.9798 32.318C65.9798 31.5153 66.1292 30.8387 66.4278 30.288C66.7265 29.728 67.1325 29.3033 67.6458 29.014C68.1592 28.7247 68.7378 28.58 69.3818 28.58C70.0818 28.58 70.7072 28.7387 71.2578 29.056C71.8178 29.364 72.2565 29.8027 72.5738 30.372C72.8912 30.932 73.0498 31.5807 73.0498 32.318C73.0498 33.0647 72.8912 33.718 72.5738 34.278C72.2565 34.838 71.8178 35.2767 71.2578 35.594C70.7072 35.9113 70.0818 36.07 69.3818 36.07ZM65.5878 38.716V28.65H66.5398V30.862L66.4418 32.332L66.5818 33.816V38.716H65.5878ZM69.3118 35.188C69.8345 35.188 70.3012 35.0713 70.7118 34.838C71.1225 34.5953 71.4492 34.2593 71.6918 33.83C71.9345 33.3913 72.0558 32.8873 72.0558 32.318C72.0558 31.7487 71.9345 31.2493 71.6918 30.82C71.4492 30.3907 71.1225 30.0547 70.7118 29.812C70.3012 29.5693 69.8345 29.448 69.3118 29.448C68.7892 29.448 68.3178 29.5693 67.8978 29.812C67.4872 30.0547 67.1605 30.3907 66.9178 30.82C66.6845 31.2493 66.5678 31.7487 66.5678 32.318C66.5678 32.8873 66.6845 33.3913 66.9178 33.83C67.1605 34.2593 67.4872 34.5953 67.8978 34.838C68.3178 35.0713 68.7892 35.188 69.3118 35.188ZM79.7085 36V34.376L79.6665 34.11V31.394C79.6665 30.7687 79.4891 30.288 79.1345 29.952C78.7891 29.616 78.2711 29.448 77.5805 29.448C77.1045 29.448 76.6518 29.5273 76.2225 29.686C75.7931 29.8447 75.4291 30.0547 75.1305 30.316L74.6825 29.574C75.0558 29.2567 75.5038 29.014 76.0265 28.846C76.5491 28.6687 77.0998 28.58 77.6785 28.58C78.6305 28.58 79.3631 28.818 79.8765 29.294C80.3991 29.7607 80.6605 30.4747 80.6605 31.436V36H79.7085ZM77.1745 36.07C76.6238 36.07 76.1431 35.9813 75.7325 35.804C75.3311 35.6173 75.0231 35.3653 74.8085 35.048C74.5938 34.7213 74.4865 34.348 74.4865 33.928C74.4865 33.5453 74.5751 33.2 74.7525 32.892C74.9391 32.5747 75.2378 32.3227 75.6485 32.136C76.0685 31.94 76.6285 31.842 77.3285 31.842H79.8625V32.584H77.3565C76.6471 32.584 76.1525 32.71 75.8725 32.962C75.6018 33.214 75.4665 33.5267 75.4665 33.9C75.4665 34.32 75.6298 34.656 75.9565 34.908C76.2831 35.16 76.7405 35.286 77.3285 35.286C77.8885 35.286 78.3691 35.16 78.7705 34.908C79.1811 34.6467 79.4798 34.2733 79.6665 33.788L79.8905 34.474C79.7038 34.9593 79.3771 35.3467 78.9105 35.636C78.4531 35.9253 77.8745 36.07 77.1745 36.07ZM83.3066 36V28.65H84.3006V31.898H88.9346V28.65H89.9286V36H88.9346V32.752H84.3006V36H83.3066ZM94.1538 36V29.252L94.4058 29.518H91.3678V28.65H97.9338V29.518H94.8958L95.1478 29.252V36H94.1538ZM99.371 36V28.65H100.365V34.488L105.279 28.65H106.161V36H105.167V30.148L100.267 36H99.371ZM113.756 36V33.354L113.938 33.564H111.446C110.503 33.564 109.766 33.3587 109.234 32.948C108.702 32.5373 108.436 31.94 108.436 31.156C108.436 30.316 108.72 29.6907 109.29 29.28C109.859 28.86 110.62 28.65 111.572 28.65H114.666V36H113.756ZM108.38 36L110.396 33.172H111.432L109.458 36H108.38ZM113.756 33.06V29.224L113.938 29.518H111.6C110.918 29.518 110.386 29.6487 110.004 29.91C109.63 30.1713 109.444 30.596 109.444 31.184C109.444 32.276 110.139 32.822 111.53 32.822H113.938L113.756 33.06ZM117.57 30.106C117.365 30.106 117.187 30.0313 117.038 29.882C116.898 29.7327 116.828 29.5507 116.828 29.336C116.828 29.112 116.898 28.93 117.038 28.79C117.187 28.65 117.365 28.58 117.57 28.58C117.775 28.58 117.948 28.65 118.088 28.79C118.237 28.93 118.312 29.112 118.312 29.336C118.312 29.5507 118.237 29.7327 118.088 29.882C117.948 30.0313 117.775 30.106 117.57 30.106ZM117.57 36.07C117.365 36.07 117.187 35.9953 117.038 35.846C116.898 35.6967 116.828 35.5147 116.828 35.3C116.828 35.076 116.898 34.894 117.038 34.754C117.187 34.614 117.365 34.544 117.57 34.544C117.775 34.544 117.948 34.614 118.088 34.754C118.237 34.894 118.312 35.076 118.312 35.3C118.312 35.5147 118.237 35.6967 118.088 35.846C117.948 35.9953 117.775 36.07 117.57 36.07ZM125.153 36V26.62L125.601 27.096H122.843V26.2H126.161V36H125.153ZM132.853 36V28.65H138.061V29.518H133.595L133.847 29.266V36H132.853ZM142.18 36.07C141.471 36.07 140.832 35.9113 140.262 35.594C139.702 35.2673 139.259 34.824 138.932 34.264C138.606 33.6947 138.442 33.046 138.442 32.318C138.442 31.5807 138.606 30.932 138.932 30.372C139.259 29.812 139.702 29.3733 140.262 29.056C140.822 28.7387 141.462 28.58 142.18 28.58C142.908 28.58 143.552 28.7387 144.112 29.056C144.682 29.3733 145.125 29.812 145.442 30.372C145.769 30.932 145.932 31.5807 145.932 32.318C145.932 33.046 145.769 33.6947 145.442 34.264C145.125 34.824 144.682 35.2673 144.112 35.594C143.543 35.9113 142.899 36.07 142.18 36.07ZM142.18 35.188C142.712 35.188 143.184 35.0713 143.594 34.838C144.005 34.5953 144.327 34.2593 144.56 33.83C144.803 33.3913 144.924 32.8873 144.924 32.318C144.924 31.7393 144.803 31.2353 144.56 30.806C144.327 30.3767 144.005 30.0453 143.594 29.812C143.184 29.5693 142.717 29.448 142.194 29.448C141.672 29.448 141.205 29.5693 140.794 29.812C140.384 30.0453 140.057 30.3767 139.814 30.806C139.572 31.2353 139.45 31.7393 139.45 32.318C139.45 32.8873 139.572 33.3913 139.814 33.83C140.057 34.2593 140.384 34.5953 140.794 34.838C141.205 35.0713 141.667 35.188 142.18 35.188ZM153.056 35.524V29.518H149.514L149.43 31.156C149.411 31.6507 149.378 32.136 149.332 32.612C149.294 33.088 149.224 33.5267 149.122 33.928C149.028 34.32 148.893 34.642 148.716 34.894C148.538 35.1367 148.31 35.2767 148.03 35.314L147.036 35.132C147.325 35.1413 147.563 35.0387 147.75 34.824C147.936 34.6 148.081 34.2967 148.184 33.914C148.286 33.5313 148.361 33.0973 148.408 32.612C148.454 32.1173 148.492 31.6133 148.52 31.1L148.618 28.65H154.05V35.524H153.056ZM146.728 37.778V35.132H155.198V37.778H154.26V36H147.666V37.778H146.728Z" fill="#707D89"/>
<path d="M22.5 66.5H33.75C35.8211 66.5 37.5 68.179 37.5 70.25C37.5 72.3211 35.8211 74 33.75 74H30M22.5 66.5L25.8333 63.1667M22.5 66.5L25.8333 69.8334" stroke="#707D89" stroke-width="2" stroke-linecap="round" stroke-linejoin="round"/>
<path d="M49.652 74V64.2H53.726C54.762 64.2 55.574 64.4147 56.162 64.844C56.7593 65.264 57.058 65.8847 57.058 66.706C57.058 67.518 56.7733 68.134 56.204 68.554C55.6347 68.9647 54.888 69.17 53.964 69.17L54.202 68.82C55.294 68.82 56.1247 69.0347 56.694 69.464C57.2633 69.8933 57.548 70.5233 57.548 71.354C57.548 72.194 57.2493 72.8473 56.652 73.314C56.064 73.7713 55.1773 74 53.992 74H49.652ZM50.674 73.174H53.992C54.8227 73.174 55.4527 73.02 55.882 72.712C56.3113 72.404 56.526 71.928 56.526 71.284C56.526 70.6493 56.3113 70.1827 55.882 69.884C55.4527 69.5853 54.8227 69.436 53.992 69.436H50.674V73.174ZM50.674 68.638H53.67C54.426 68.638 55.0047 68.4887 55.406 68.19C55.8167 67.882 56.022 67.4293 56.022 66.832C56.022 66.2347 55.8167 65.7867 55.406 65.488C55.0047 65.18 54.426 65.026 53.67 65.026H50.674V68.638ZM62.9243 74.07C62.215 74.07 61.5757 73.9113 61.0063 73.594C60.4463 73.2673 60.003 72.824 59.6763 72.264C59.3497 71.6947 59.1863 71.046 59.1863 70.318C59.1863 69.5807 59.3497 68.932 59.6763 68.372C60.003 67.812 60.4463 67.3733 61.0063 67.056C61.5663 66.7387 62.2057 66.58 62.9243 66.58C63.6523 66.58 64.2963 66.7387 64.8563 67.056C65.4257 67.3733 65.869 67.812 66.1863 68.372C66.513 68.932 66.6763 69.5807 66.6763 70.318C66.6763 71.046 66.513 71.6947 66.1863 72.264C65.869 72.824 65.4257 73.2673 64.8563 73.594C64.287 73.9113 63.643 74.07 62.9243 74.07ZM62.9243 73.188C63.4563 73.188 63.9277 73.0713 64.3383 72.838C64.749 72.5953 65.071 72.2593 65.3043 71.83C65.547 71.3913 65.6683 70.8873 65.6683 70.318C65.6683 69.7393 65.547 69.2353 65.3043 68.806C65.071 68.3767 64.749 68.0453 64.3383 67.812C63.9277 67.5693 63.461 67.448 62.9383 67.448C62.4157 67.448 61.949 67.5693 61.5383 67.812C61.1277 68.0453 60.801 68.3767 60.5583 68.806C60.3157 69.2353 60.1943 69.7393 60.1943 70.318C60.1943 70.8873 60.3157 71.3913 60.5583 71.83C60.801 72.2593 61.1277 72.5953 61.5383 72.838C61.949 73.0713 62.411 73.188 62.9243 73.188ZM70.72 74.084C70.188 74.084 69.6607 74.0093 69.138 73.86C68.6154 73.7107 68.1534 73.482 67.752 73.174L68.074 72.432C68.4287 72.6933 68.8394 72.894 69.306 73.034C69.7727 73.1647 70.2347 73.23 70.692 73.23C71.1494 73.2207 71.546 73.1553 71.882 73.034C72.218 72.9127 72.4794 72.7447 72.666 72.53C72.8527 72.3153 72.946 72.0727 72.946 71.802C72.946 71.41 72.7687 71.1067 72.414 70.892C72.0594 70.668 71.574 70.556 70.958 70.556H69.698V69.828H70.888C71.252 69.828 71.574 69.7813 71.854 69.688C72.134 69.5947 72.3487 69.4593 72.498 69.282C72.6567 69.1047 72.736 68.8947 72.736 68.652C72.736 68.3907 72.6427 68.1667 72.456 67.98C72.2787 67.7933 72.0314 67.6533 71.714 67.56C71.3967 67.4667 71.0374 67.42 70.636 67.42C70.272 67.4293 69.894 67.4853 69.502 67.588C69.11 67.6813 68.7227 67.826 68.34 68.022L68.06 67.252C68.4894 67.028 68.914 66.86 69.334 66.748C69.7634 66.6267 70.1927 66.566 70.622 66.566C71.21 66.5473 71.7374 66.6173 72.204 66.776C72.68 66.9347 73.058 67.1633 73.338 67.462C73.618 67.7513 73.758 68.1013 73.758 68.512C73.758 68.876 73.646 69.1933 73.422 69.464C73.198 69.7347 72.8994 69.9447 72.526 70.094C72.1527 70.2433 71.728 70.318 71.252 70.318L71.294 70.052C72.134 70.052 72.7874 70.2153 73.254 70.542C73.73 70.8687 73.968 71.312 73.968 71.872C73.968 72.3107 73.8234 72.698 73.534 73.034C73.2447 73.3607 72.8527 73.6173 72.358 73.804C71.8727 73.9907 71.3267 74.084 70.72 74.084ZM76.2245 74V66.65H79.4725C80.3032 66.65 80.9565 66.8087 81.4325 67.126C81.9179 67.4433 82.1605 67.91 82.1605 68.526C82.1605 69.1233 81.9319 69.5853 81.4745 69.912C81.0172 70.2293 80.4152 70.388 79.6685 70.388L79.8645 70.094C80.7419 70.094 81.3859 70.2573 81.7965 70.584C82.2072 70.9107 82.4125 71.382 82.4125 71.998C82.4125 72.6327 82.1792 73.1273 81.7125 73.482C81.2552 73.8273 80.5412 74 79.5705 74H76.2245ZM77.1905 73.216H79.5285C80.1539 73.216 80.6252 73.118 80.9425 72.922C81.2692 72.7167 81.4325 72.39 81.4325 71.942C81.4325 71.494 81.2879 71.1673 80.9985 70.962C80.7092 70.7567 80.2519 70.654 79.6265 70.654H77.1905V73.216ZM77.1905 69.912H79.4025C79.9719 69.912 80.4059 69.8047 80.7045 69.59C81.0125 69.3753 81.1665 69.0627 81.1665 68.652C81.1665 68.2413 81.0125 67.9333 80.7045 67.728C80.4059 67.5227 79.9719 67.42 79.4025 67.42H77.1905V69.912ZM88.5361 74.07C87.9015 74.07 87.3275 73.9253 86.8141 73.636C86.3008 73.3373 85.8901 72.9127 85.5821 72.362C85.2835 71.802 85.1341 71.1207 85.1341 70.318C85.1341 69.5153 85.2835 68.8387 85.5821 68.288C85.8808 67.728 86.2868 67.3033 86.8001 67.014C87.3135 66.7247 87.8921 66.58 88.5361 66.58C89.2361 66.58 89.8615 66.7387 90.4121 67.056C90.9721 67.364 91.4108 67.8027 91.7281 68.372C92.0455 68.932 92.2041 69.5807 92.2041 70.318C92.2041 71.0647 92.0455 71.718 91.7281 72.278C91.4108 72.838 90.9721 73.2767 90.4121 73.594C89.8615 73.9113 89.2361 74.07 88.5361 74.07ZM84.7421 76.716V66.65H85.6941V68.862L85.5961 70.332L85.7361 71.816V76.716H84.7421ZM88.4661 73.188C88.9888 73.188 89.4555 73.0713 89.8661 72.838C90.2768 72.5953 90.6035 72.2593 90.8461 71.83C91.0888 71.3913 91.2101 70.8873 91.2101 70.318C91.2101 69.7487 91.0888 69.2493 90.8461 68.82C90.6035 68.3907 90.2768 68.0547 89.8661 67.812C89.4555 67.5693 88.9888 67.448 88.4661 67.448C87.9435 67.448 87.4721 67.5693 87.0521 67.812C86.6415 68.0547 86.3148 68.3907 86.0721 68.82C85.8388 69.2493 85.7221 69.7487 85.7221 70.318C85.7221 70.8873 85.8388 71.3913 86.0721 71.83C86.3148 72.2593 86.6415 72.5953 87.0521 72.838C87.4721 73.0713 87.9435 73.188 88.4661 73.188ZM98.8628 74V72.376L98.8208 72.11V69.394C98.8208 68.7687 98.6434 68.288 98.2888 67.952C97.9434 67.616 97.4254 67.448 96.7348 67.448C96.2588 67.448 95.8061 67.5273 95.3768 67.686C94.9474 67.8447 94.5834 68.0547 94.2848 68.316L93.8368 67.574C94.2101 67.2567 94.6581 67.014 95.1808 66.846C95.7034 66.6687 96.2541 66.58 96.8328 66.58C97.7848 66.58 98.5174 66.818 99.0308 67.294C99.5534 67.7607 99.8148 68.4747 99.8148 69.436V74H98.8628ZM96.3288 74.07C95.7781 74.07 95.2974 73.9813 94.8868 73.804C94.4854 73.6173 94.1774 73.3653 93.9628 73.048C93.7481 72.7213 93.6408 72.348 93.6408 71.928C93.6408 71.5453 93.7294 71.2 93.9068 70.892C94.0934 70.5747 94.3921 70.3227 94.8028 70.136C95.2228 69.94 95.7828 69.842 96.4828 69.842H99.0168V70.584H96.5108C95.8014 70.584 95.3068 70.71 95.0268 70.962C94.7561 71.214 94.6208 71.5267 94.6208 71.9C94.6208 72.32 94.7841 72.656 95.1108 72.908C95.4374 73.16 95.8948 73.286 96.4828 73.286C97.0428 73.286 97.5234 73.16 97.9248 72.908C98.3354 72.6467 98.6341 72.2733 98.8208 71.788L99.0448 72.474C98.8581 72.9593 98.5314 73.3467 98.0648 73.636C97.6074 73.9253 97.0288 74.07 96.3288 74.07ZM103.861 74V67.252L104.113 67.518H101.075V66.65H107.641V67.518H104.603L104.855 67.252V74H103.861ZM109.148 68.106C108.943 68.106 108.765 68.0313 108.616 67.882C108.476 67.7327 108.406 67.5507 108.406 67.336C108.406 67.112 108.476 66.93 108.616 66.79C108.765 66.65 108.943 66.58 109.148 66.58C109.353 66.58 109.526 66.65 109.666 66.79C109.815 66.93 109.89 67.112 109.89 67.336C109.89 67.5507 109.815 67.7327 109.666 67.882C109.526 68.0313 109.353 68.106 109.148 68.106ZM109.148 74.07C108.943 74.07 108.765 73.9953 108.616 73.846C108.476 73.6967 108.406 73.5147 108.406 73.3C108.406 73.076 108.476 72.894 108.616 72.754C108.765 72.614 108.943 72.544 109.148 72.544C109.353 72.544 109.526 72.614 109.666 72.754C109.815 72.894 109.89 73.076 109.89 73.3C109.89 73.5147 109.815 73.6967 109.666 73.846C109.526 73.9953 109.353 74.07 109.148 74.07ZM116.731 74V64.62L117.179 65.096H114.421V64.2H117.739V74H116.731ZM123.988 74.084C123.232 74.084 122.56 73.888 121.972 73.496C121.384 73.0947 120.922 72.5253 120.586 71.788C120.25 71.0413 120.082 70.1453 120.082 69.1C120.082 68.0547 120.25 67.1633 120.586 66.426C120.922 65.6793 121.384 65.11 121.972 64.718C122.56 64.3167 123.232 64.116 123.988 64.116C124.744 64.116 125.416 64.3167 126.004 64.718C126.592 65.11 127.054 65.6793 127.39 66.426C127.735 67.1633 127.908 68.0547 127.908 69.1C127.908 70.1453 127.735 71.0413 127.39 71.788C127.054 72.5253 126.592 73.0947 126.004 73.496C125.416 73.888 124.744 74.084 123.988 74.084ZM123.988 73.16C124.566 73.16 125.07 73.006 125.5 72.698C125.929 72.3807 126.265 71.9233 126.508 71.326C126.75 70.7193 126.872 69.9773 126.872 69.1C126.872 68.2227 126.75 67.4853 126.508 66.888C126.265 66.2813 125.929 65.824 125.5 65.516C125.07 65.1987 124.566 65.04 123.988 65.04C123.428 65.04 122.928 65.1987 122.49 65.516C122.051 65.824 121.71 66.2813 121.468 66.888C121.225 67.4853 121.104 68.2227 121.104 69.1C121.104 69.9773 121.225 70.7193 121.468 71.326C121.71 71.9233 122.051 72.3807 122.49 72.698C122.928 73.006 123.428 73.16 123.988 73.16ZM138.741 73.524V67.518H135.199L135.115 69.156C135.096 69.6507 135.064 70.136 135.017 70.612C134.98 71.088 134.91 71.5267 134.807 71.928C134.714 72.32 134.578 72.642 134.401 72.894C134.224 73.1367 133.995 73.2767 133.715 73.314L132.721 73.132C133.01 73.1413 133.248 73.0387 133.435 72.824C133.622 72.6 133.766 72.2967 133.869 71.914C133.972 71.5313 134.046 71.0973 134.093 70.612C134.14 70.1173 134.177 69.6133 134.205 69.1L134.303 66.65H139.735V73.524H138.741ZM132.413 75.778V73.132H140.883V75.778H139.945V74H133.351V75.778H132.413ZM142.82 74V66.65H143.814V69.898H148.448V66.65H149.442V74H148.448V70.752H143.814V74H142.82ZM155.418 74.07C154.652 74.07 153.98 73.9113 153.402 73.594C152.823 73.2673 152.37 72.824 152.044 72.264C151.717 71.6947 151.554 71.046 151.554 70.318C151.554 69.59 151.708 68.946 152.016 68.386C152.333 67.826 152.762 67.3873 153.304 67.07C153.854 66.7433 154.47 66.58 155.152 66.58C155.842 66.58 156.454 66.7387 156.986 67.056C157.527 67.364 157.952 67.8027 158.26 68.372C158.568 68.932 158.722 69.5807 158.722 70.318C158.722 70.3647 158.717 70.416 158.708 70.472C158.708 70.5187 158.708 70.57 158.708 70.626H152.31V69.884H158.176L157.784 70.178C157.784 69.646 157.667 69.1747 157.434 68.764C157.21 68.344 156.902 68.0173 156.51 67.784C156.118 67.5507 155.665 67.434 155.152 67.434C154.648 67.434 154.195 67.5507 153.794 67.784C153.392 68.0173 153.08 68.344 152.856 68.764C152.632 69.184 152.52 69.6647 152.52 70.206V70.36C152.52 70.92 152.641 71.4147 152.884 71.844C153.136 72.264 153.481 72.5953 153.92 72.838C154.368 73.0713 154.876 73.188 155.446 73.188C155.894 73.188 156.309 73.1087 156.692 72.95C157.084 72.7913 157.42 72.5487 157.7 72.222L158.26 72.866C157.933 73.258 157.522 73.5567 157.028 73.762C156.542 73.9673 156.006 74.07 155.418 74.07ZM160.922 74V66.65H161.916V72.488L166.83 66.65H167.712V74H166.718V68.148L161.818 74H160.922ZM164.254 65.586C163.638 65.586 163.138 65.432 162.756 65.124C162.382 64.8067 162.186 64.354 162.168 63.766H162.882C162.891 64.1393 163.022 64.4333 163.274 64.648C163.526 64.8627 163.852 64.97 164.254 64.97C164.655 64.97 164.982 64.8627 165.234 64.648C165.495 64.4333 165.63 64.1393 165.64 63.766H166.354C166.344 64.354 166.148 64.8067 165.766 65.124C165.383 65.432 164.879 65.586 164.254 65.586Z" fill="#707D89"/>
<path d="M30.8332 101.167C30.8332 102.087 28.7811 102.833 26.2498 102.833C23.7185 102.833 21.6665 102.087 21.6665 101.167M30.8332 101.167C30.8332 100.246 28.7811 99.5 26.2498 99.5C23.7185 99.5 21.6665 100.246 21.6665 101.167M30.8332 101.167V102.417M21.6665 101.167L21.6665 111.167C21.6665 112.087 23.7185 112.833 26.2498 112.833M26.2498 106.167C26.1094 106.167 25.9704 106.164 25.8332 106.16C23.4971 106.083 21.6665 105.369 21.6665 104.5M26.2498 109.5C23.7185 109.5 21.6665 108.754 21.6665 107.833M38.3332 106.583C38.3332 107.504 36.2811 108.25 33.7498 108.25C31.2185 108.25 29.1665 107.504 29.1665 106.583M38.3332 106.583C38.3332 105.663 36.2811 104.917 33.7498 104.917C31.2185 104.917 29.1665 105.663 29.1665 106.583M38.3332 106.583V112.833C38.3332 113.754 36.2811 114.5 33.7498 114.5C31.2185 114.5 29.1665 113.754 29.1665 112.833V106.583M38.3332 109.708C38.3332 110.629 36.2811 111.375 33.7498 111.375C31.2185 111.375 29.1665 110.629 29.1665 109.708" stroke="#707D89" stroke-width="2" stroke-linecap="round" stroke-linejoin="round"/>
<path d="M53.95 112.084C53.2127 112.084 52.5267 111.963 51.892 111.72C51.2667 111.468 50.7207 111.118 50.254 110.67C49.7967 110.213 49.4373 109.685 49.176 109.088C48.924 108.481 48.798 107.819 48.798 107.1C48.798 106.381 48.924 105.723 49.176 105.126C49.4373 104.519 49.7967 103.992 50.254 103.544C50.7207 103.087 51.2667 102.737 51.892 102.494C52.5173 102.242 53.2033 102.116 53.95 102.116C54.6873 102.116 55.3687 102.242 55.994 102.494C56.6193 102.737 57.1607 103.082 57.618 103.53C58.0847 103.978 58.444 104.505 58.696 105.112C58.9573 105.719 59.088 106.381 59.088 107.1C59.088 107.819 58.9573 108.481 58.696 109.088C58.444 109.695 58.0847 110.222 57.618 110.67C57.1607 111.118 56.6193 111.468 55.994 111.72C55.3687 111.963 54.6873 112.084 53.95 112.084ZM53.95 111.16C54.538 111.16 55.0793 111.062 55.574 110.866C56.078 110.661 56.512 110.376 56.876 110.012C57.2493 109.639 57.5387 109.209 57.744 108.724C57.9493 108.229 58.052 107.688 58.052 107.1C58.052 106.512 57.9493 105.975 57.744 105.49C57.5387 104.995 57.2493 104.566 56.876 104.202C56.512 103.829 56.078 103.544 55.574 103.348C55.0793 103.143 54.538 103.04 53.95 103.04C53.362 103.04 52.816 103.143 52.312 103.348C51.808 103.544 51.3693 103.829 50.996 104.202C50.632 104.566 50.3427 104.995 50.128 105.49C49.9227 105.975 49.82 106.512 49.82 107.1C49.82 107.679 49.9227 108.215 50.128 108.71C50.3427 109.205 50.632 109.639 50.996 110.012C51.3693 110.376 51.808 110.661 52.312 110.866C52.816 111.062 53.362 111.16 53.95 111.16ZM61.3222 112V104.65H67.9302V112H66.9362V105.252L67.1882 105.518H62.0642L62.3162 105.252V112H61.3222ZM69.4118 111.986L69.4818 111.132C69.5471 111.141 69.6078 111.155 69.6638 111.174C69.7291 111.183 69.7851 111.188 69.8318 111.188C70.1305 111.188 70.3685 111.076 70.5458 110.852C70.7325 110.628 70.8725 110.329 70.9658 109.956C71.0591 109.583 71.1245 109.163 71.1618 108.696C71.1991 108.22 71.2318 107.744 71.2598 107.268L71.3858 104.65H76.7758V112H75.7818V105.224L76.0338 105.518H72.0298L72.2678 105.21L72.1558 107.338C72.1278 107.973 72.0765 108.579 72.0018 109.158C71.9365 109.737 71.8291 110.245 71.6798 110.684C71.5398 111.123 71.3438 111.468 71.0918 111.72C70.8398 111.963 70.5178 112.084 70.1258 112.084C70.0138 112.084 69.8971 112.075 69.7758 112.056C69.6638 112.037 69.5425 112.014 69.4118 111.986ZM84.1655 112V110.376L84.1235 110.11V107.394C84.1235 106.769 83.9462 106.288 83.5915 105.952C83.2462 105.616 82.7282 105.448 82.0375 105.448C81.5615 105.448 81.1088 105.527 80.6795 105.686C80.2502 105.845 79.8862 106.055 79.5875 106.316L79.1395 105.574C79.5128 105.257 79.9608 105.014 80.4835 104.846C81.0062 104.669 81.5568 104.58 82.1355 104.58C83.0875 104.58 83.8202 104.818 84.3335 105.294C84.8562 105.761 85.1175 106.475 85.1175 107.436V112H84.1655ZM81.6315 112.07C81.0808 112.07 80.6002 111.981 80.1895 111.804C79.7882 111.617 79.4802 111.365 79.2655 111.048C79.0508 110.721 78.9435 110.348 78.9435 109.928C78.9435 109.545 79.0322 109.2 79.2095 108.892C79.3962 108.575 79.6948 108.323 80.1055 108.136C80.5255 107.94 81.0855 107.842 81.7855 107.842H84.3195V108.584H81.8135C81.1042 108.584 80.6095 108.71 80.3295 108.962C80.0588 109.214 79.9235 109.527 79.9235 109.9C79.9235 110.32 80.0868 110.656 80.4135 110.908C80.7402 111.16 81.1975 111.286 81.7855 111.286C82.3455 111.286 82.8262 111.16 83.2275 110.908C83.6382 110.647 83.9368 110.273 84.1235 109.788L84.3475 110.474C84.1608 110.959 83.8342 111.347 83.3675 111.636C82.9102 111.925 82.3315 112.07 81.6315 112.07ZM89.1636 112V105.252L89.4156 105.518H86.3776V104.65H92.9436V105.518H89.9056L90.1576 105.252V112H89.1636ZM98.9448 112V110.376L98.9028 110.11V107.394C98.9028 106.769 98.7255 106.288 98.3708 105.952C98.0255 105.616 97.5075 105.448 96.8168 105.448C96.3408 105.448 95.8881 105.527 95.4588 105.686C95.0295 105.845 94.6655 106.055 94.3668 106.316L93.9188 105.574C94.2921 105.257 94.7401 105.014 95.2628 104.846C95.7855 104.669 96.3361 104.58 96.9148 104.58C97.8668 104.58 98.5995 104.818 99.1128 105.294C99.6355 105.761 99.8968 106.475 99.8968 107.436V112H98.9448ZM96.4108 112.07C95.8601 112.07 95.3795 111.981 94.9688 111.804C94.5675 111.617 94.2595 111.365 94.0448 111.048C93.8301 110.721 93.7228 110.348 93.7228 109.928C93.7228 109.545 93.8115 109.2 93.9888 108.892C94.1755 108.575 94.4741 108.323 94.8848 108.136C95.3048 107.94 95.8648 107.842 96.5648 107.842H99.0988V108.584H96.5928C95.8835 108.584 95.3888 108.71 95.1088 108.962C94.8381 109.214 94.7028 109.527 94.7028 109.9C94.7028 110.32 94.8661 110.656 95.1928 110.908C95.5195 111.16 95.9768 111.286 96.5648 111.286C97.1248 111.286 97.6055 111.16 98.0068 110.908C98.4175 110.647 98.7161 110.273 98.9028 109.788L99.1268 110.474C98.9401 110.959 98.6135 111.347 98.1468 111.636C97.6895 111.925 97.1108 112.07 96.4108 112.07ZM106.207 112V104.65H112.815V112H111.821V105.252L112.073 105.518H106.949L107.201 105.252V112H106.207ZM119.435 112.07C118.8 112.07 118.226 111.925 117.713 111.636C117.199 111.337 116.789 110.913 116.481 110.362C116.182 109.802 116.033 109.121 116.033 108.318C116.033 107.515 116.182 106.839 116.481 106.288C116.779 105.728 117.185 105.303 117.699 105.014C118.212 104.725 118.791 104.58 119.435 104.58C120.135 104.58 120.76 104.739 121.311 105.056C121.871 105.364 122.309 105.803 122.627 106.372C122.944 106.932 123.103 107.581 123.103 108.318C123.103 109.065 122.944 109.718 122.627 110.278C122.309 110.838 121.871 111.277 121.311 111.594C120.76 111.911 120.135 112.07 119.435 112.07ZM115.641 114.716V104.65H116.593V106.862L116.495 108.332L116.635 109.816V114.716H115.641ZM119.365 111.188C119.887 111.188 120.354 111.071 120.765 110.838C121.175 110.595 121.502 110.259 121.745 109.83C121.987 109.391 122.109 108.887 122.109 108.318C122.109 107.749 121.987 107.249 121.745 106.82C121.502 106.391 121.175 106.055 120.765 105.812C120.354 105.569 119.887 105.448 119.365 105.448C118.842 105.448 118.371 105.569 117.951 105.812C117.54 106.055 117.213 106.391 116.971 106.82C116.737 107.249 116.621 107.749 116.621 108.318C116.621 108.887 116.737 109.391 116.971 109.83C117.213 110.259 117.54 110.595 117.951 110.838C118.371 111.071 118.842 111.188 119.365 111.188ZM125.238 112V104.65H126.232V110.488L131.146 104.65H132.028V112H131.034V106.148L126.134 112H125.238ZM138.541 112V104.65H145.149V112H144.155V105.252L144.407 105.518H139.283L139.535 105.252V112H138.541ZM150.999 112.07C150.289 112.07 149.65 111.911 149.081 111.594C148.521 111.267 148.077 110.824 147.751 110.264C147.424 109.695 147.261 109.046 147.261 108.318C147.261 107.581 147.424 106.932 147.751 106.372C148.077 105.812 148.521 105.373 149.081 105.056C149.641 104.739 150.28 104.58 150.999 104.58C151.727 104.58 152.371 104.739 152.931 105.056C153.5 105.373 153.943 105.812 154.261 106.372C154.587 106.932 154.751 107.581 154.751 108.318C154.751 109.046 154.587 109.695 154.261 110.264C153.943 110.824 153.5 111.267 152.931 111.594C152.361 111.911 151.717 112.07 150.999 112.07ZM150.999 111.188C151.531 111.188 152.002 111.071 152.413 110.838C152.823 110.595 153.145 110.259 153.379 109.83C153.621 109.391 153.743 108.887 153.743 108.318C153.743 107.739 153.621 107.235 153.379 106.806C153.145 106.377 152.823 106.045 152.413 105.812C152.002 105.569 151.535 105.448 151.013 105.448C150.49 105.448 150.023 105.569 149.613 105.812C149.202 106.045 148.875 106.377 148.633 106.806C148.39 107.235 148.269 107.739 148.269 108.318C148.269 108.887 148.39 109.391 148.633 109.83C148.875 110.259 149.202 110.595 149.613 110.838C150.023 111.071 150.485 111.188 150.999 111.188ZM155.49 111.986L155.56 111.132C155.625 111.141 155.686 111.155 155.742 111.174C155.807 111.183 155.863 111.188 155.91 111.188C156.209 111.188 156.447 111.076 156.624 110.852C156.811 110.628 156.951 110.329 157.044 109.956C157.137 109.583 157.203 109.163 157.24 108.696C157.277 108.22 157.31 107.744 157.338 107.268L157.464 104.65H162.854V112H161.86V105.224L162.112 105.518H158.108L158.346 105.21L158.234 107.338C158.206 107.973 158.155 108.579 158.08 109.158C158.015 109.737 157.907 110.245 157.758 110.684C157.618 111.123 157.422 111.468 157.17 111.72C156.918 111.963 156.596 112.084 156.204 112.084C156.092 112.084 155.975 112.075 155.854 112.056C155.742 112.037 155.621 112.014 155.49 111.986ZM165.806 114.786C165.46 114.786 165.129 114.73 164.812 114.618C164.504 114.506 164.238 114.338 164.014 114.114L164.476 113.372C164.662 113.549 164.863 113.685 165.078 113.778C165.302 113.881 165.549 113.932 165.82 113.932C166.146 113.932 166.426 113.839 166.66 113.652C166.902 113.475 167.131 113.157 167.346 112.7L167.822 111.622L167.934 111.468L170.958 104.65H171.938L168.256 112.882C168.05 113.358 167.822 113.736 167.57 114.016C167.327 114.296 167.061 114.492 166.772 114.604C166.482 114.725 166.16 114.786 165.806 114.786ZM167.766 112.21L164.378 104.65H165.414L168.41 111.398L167.766 112.21ZM178.134 108.892C177.705 109.079 177.271 109.228 176.832 109.34C176.403 109.443 175.974 109.494 175.544 109.494C174.676 109.494 173.99 109.298 173.486 108.906C172.982 108.505 172.73 107.889 172.73 107.058V104.65H173.71V107.002C173.71 107.562 173.892 107.982 174.256 108.262C174.62 108.542 175.11 108.682 175.726 108.682C176.1 108.682 176.492 108.635 176.902 108.542C177.313 108.439 177.728 108.295 178.148 108.108L178.134 108.892ZM178.05 112V104.65H179.044V112H178.05ZM185.017 112.07C184.252 112.07 183.58 111.911 183.001 111.594C182.422 111.267 181.97 110.824 181.643 110.264C181.316 109.695 181.153 109.046 181.153 108.318C181.153 107.59 181.307 106.946 181.615 106.386C181.932 105.826 182.362 105.387 182.903 105.07C183.454 104.743 184.07 104.58 184.751 104.58C185.442 104.58 186.053 104.739 186.585 105.056C187.126 105.364 187.551 105.803 187.859 106.372C188.167 106.932 188.321 107.581 188.321 108.318C188.321 108.365 188.316 108.416 188.307 108.472C188.307 108.519 188.307 108.57 188.307 108.626H181.909V107.884H187.775L187.383 108.178C187.383 107.646 187.266 107.175 187.033 106.764C186.809 106.344 186.501 106.017 186.109 105.784C185.717 105.551 185.264 105.434 184.751 105.434C184.247 105.434 183.794 105.551 183.393 105.784C182.992 106.017 182.679 106.344 182.455 106.764C182.231 107.184 182.119 107.665 182.119 108.206V108.36C182.119 108.92 182.24 109.415 182.483 109.844C182.735 110.264 183.08 110.595 183.519 110.838C183.967 111.071 184.476 111.188 185.045 111.188C185.493 111.188 185.908 111.109 186.291 110.95C186.683 110.791 187.019 110.549 187.299 110.222L187.859 110.866C187.532 111.258 187.122 111.557 186.627 111.762C186.142 111.967 185.605 112.07 185.017 112.07ZM190.521 112V104.65H191.515V107.898H196.149V104.65H197.143V112H196.149V108.752H191.515V112H190.521ZM199.969 112V104.65H200.963V110.488L205.877 104.65H206.759V112H205.765V106.148L200.865 112H199.969ZM209.607 112V104.65H210.601V110.488L215.515 104.65H216.397V112H215.403V106.148L210.503 112H209.607Z" fill="#707D89"/>
</svg>
