<svg width="284" height="88" viewBox="0 0 284 88" fill="none" xmlns="http://www.w3.org/2000/svg">
<g clip-path="url(#clip0_5113_378)">
<path d="M60 88L30 69L0 88V0H60V88Z" fill="#29A1F8"/>
<path d="M14.68 47.82V46.02L21.58 37H24.36L17.56 46.02L16.26 45.62H27.36V47.82H14.68ZM22.36 51V47.82L22.44 45.62V42.8H24.88V51H22.36ZM28.9448 54.02L30.1048 49.6L30.4448 51.08C29.9782 51.08 29.5848 50.94 29.2648 50.66C28.9582 50.3667 28.8048 49.9733 28.8048 49.48C28.8048 48.9733 28.9582 48.5733 29.2648 48.28C29.5848 47.9733 29.9715 47.82 30.4248 47.82C30.8915 47.82 31.2782 47.9733 31.5848 48.28C31.8915 48.5867 32.0448 48.9867 32.0448 49.48C32.0448 49.6133 32.0315 49.76 32.0048 49.92C31.9782 50.0667 31.9315 50.24 31.8648 50.44C31.8115 50.64 31.7182 50.8933 31.5848 51.2L30.5648 54.02H28.9448ZM38.4477 36.8C39.7277 36.8 40.8143 37.0733 41.7077 37.62C42.6143 38.1533 43.3077 38.9333 43.7877 39.96C44.2677 40.9867 44.5077 42.2533 44.5077 43.76C44.5077 45.36 44.2143 46.7133 43.6277 47.82C43.0543 48.9267 42.2543 49.7667 41.2277 50.34C40.201 50.9133 39.0077 51.2 37.6477 51.2C36.941 51.2 36.2677 51.1267 35.6277 50.98C34.9877 50.8333 34.4343 50.6067 33.9677 50.3L34.9277 48.34C35.3143 48.5933 35.7343 48.7733 36.1877 48.88C36.641 48.9733 37.1077 49.02 37.5877 49.02C38.9077 49.02 39.9543 48.6133 40.7277 47.8C41.501 46.9867 41.8877 45.7867 41.8877 44.2C41.8877 43.9467 41.881 43.6533 41.8677 43.32C41.8543 42.9733 41.8077 42.6267 41.7277 42.28L42.5277 43.16C42.301 43.7067 41.9743 44.1667 41.5477 44.54C41.121 44.9 40.621 45.1733 40.0477 45.36C39.4743 45.5467 38.841 45.64 38.1477 45.64C37.241 45.64 36.421 45.4667 35.6877 45.12C34.9677 44.76 34.3943 44.26 33.9677 43.62C33.541 42.9667 33.3277 42.2067 33.3277 41.34C33.3277 40.4067 33.5543 39.6067 34.0077 38.94C34.461 38.26 35.0743 37.7333 35.8477 37.36C36.6343 36.9867 37.501 36.8 38.4477 36.8ZM38.5877 38.84C38.0543 38.84 37.581 38.94 37.1677 39.14C36.7543 39.3267 36.4277 39.6 36.1877 39.96C35.961 40.3067 35.8477 40.7267 35.8477 41.22C35.8477 41.9533 36.101 42.5333 36.6077 42.96C37.1143 43.3867 37.7943 43.6 38.6477 43.6C39.2077 43.6 39.701 43.5 40.1277 43.3C40.5543 43.0867 40.8877 42.8 41.1277 42.44C41.3677 42.0667 41.4877 41.6533 41.4877 41.2C41.4877 40.76 41.3743 40.3667 41.1477 40.02C40.921 39.66 40.5943 39.3733 40.1677 39.16C39.741 38.9467 39.2143 38.84 38.5877 38.84Z" fill="white"/>
</g>
<path d="M88.462 26.59C88.6349 26.2398 88.7213 26.0647 88.8386 26.0087C88.9407 25.96 89.0593 25.96 89.1614 26.0087C89.2787 26.0647 89.3652 26.2398 89.538 26.59L91.178 29.9124C91.2291 30.0158 91.2546 30.0675 91.2919 30.1077C91.3249 30.1432 91.3645 30.172 91.4085 30.1925C91.4582 30.2156 91.5152 30.2239 91.6293 30.2406L95.2977 30.7768C95.684 30.8332 95.8772 30.8615 95.9666 30.9558C96.0444 31.0379 96.0809 31.1507 96.0661 31.2628C96.0491 31.3917 95.9093 31.5279 95.6296 31.8003L92.9761 34.3848C92.8934 34.4654 92.852 34.5056 92.8253 34.5536C92.8017 34.596 92.7865 34.6426 92.7807 34.6909C92.7741 34.7453 92.7838 34.8022 92.8034 34.916L93.4295 38.5666C93.4955 38.9516 93.5285 39.1441 93.4665 39.2584C93.4125 39.3578 93.3165 39.4275 93.2053 39.4481C93.0775 39.4718 92.9046 39.3809 92.5588 39.199L89.2793 37.4744C89.1771 37.4206 89.126 37.3938 89.0722 37.3832C89.0245 37.3739 88.9755 37.3739 88.9278 37.3832C88.874 37.3938 88.8229 37.4206 88.7207 37.4744L85.4412 39.199C85.0954 39.3809 84.9226 39.4718 84.7947 39.4481C84.6835 39.4275 84.5875 39.3578 84.5336 39.2584C84.4715 39.1441 84.5045 38.9516 84.5706 38.5666L85.1967 34.916C85.2162 34.8022 85.2259 34.7453 85.2193 34.6909C85.2135 34.6426 85.1983 34.596 85.1747 34.5536C85.148 34.5056 85.1067 34.4654 85.0239 34.3848L82.3704 31.8003C82.0907 31.5279 81.9509 31.3917 81.9339 31.2628C81.9191 31.1507 81.9557 31.0379 82.0334 30.9558C82.1228 30.8615 82.316 30.8332 82.7023 30.7768L86.3707 30.2406C86.4848 30.2239 86.5419 30.2156 86.5915 30.1925C86.6355 30.172 86.6751 30.1432 86.7081 30.1077C86.7454 30.0675 86.7709 30.0158 86.822 29.9124L88.462 26.59Z" fill="#F8B808"/>
<path d="M112.462 26.59C112.635 26.2398 112.721 26.0647 112.839 26.0087C112.941 25.96 113.059 25.96 113.161 26.0087C113.279 26.0647 113.365 26.2398 113.538 26.59L115.178 29.9124C115.229 30.0158 115.255 30.0675 115.292 30.1077C115.325 30.1432 115.365 30.172 115.408 30.1925C115.458 30.2156 115.515 30.2239 115.629 30.2406L119.298 30.7768C119.684 30.8332 119.877 30.8615 119.967 30.9558C120.044 31.0379 120.081 31.1507 120.066 31.2628C120.049 31.3917 119.909 31.5279 119.63 31.8003L116.976 34.3848C116.893 34.4654 116.852 34.5056 116.825 34.5536C116.802 34.596 116.787 34.6426 116.781 34.6909C116.774 34.7453 116.784 34.8022 116.803 34.916L117.429 38.5666C117.496 38.9516 117.529 39.1441 117.466 39.2584C117.412 39.3578 117.317 39.4275 117.205 39.4481C117.077 39.4718 116.905 39.3809 116.559 39.199L113.279 37.4744C113.177 37.4206 113.126 37.3938 113.072 37.3832C113.025 37.3739 112.976 37.3739 112.928 37.3832C112.874 37.3938 112.823 37.4206 112.721 37.4744L109.441 39.199C109.095 39.3809 108.923 39.4718 108.795 39.4481C108.684 39.4275 108.588 39.3578 108.534 39.2584C108.472 39.1441 108.505 38.9516 108.571 38.5666L109.197 34.916C109.216 34.8022 109.226 34.7453 109.219 34.6909C109.213 34.6426 109.198 34.596 109.175 34.5536C109.148 34.5056 109.107 34.4654 109.024 34.3848L106.37 31.8003C106.091 31.5279 105.951 31.3917 105.934 31.2628C105.919 31.1507 105.956 31.0379 106.033 30.9558C106.123 30.8615 106.316 30.8332 106.702 30.7768L110.371 30.2406C110.485 30.2239 110.542 30.2156 110.592 30.1925C110.636 30.172 110.675 30.1432 110.708 30.1077C110.745 30.0675 110.771 30.0158 110.822 29.9124L112.462 26.59Z" fill="#F8B808"/>
<path d="M136.462 26.59C136.635 26.2398 136.721 26.0647 136.839 26.0087C136.941 25.96 137.059 25.96 137.161 26.0087C137.279 26.0647 137.365 26.2398 137.538 26.59L139.178 29.9124C139.229 30.0158 139.255 30.0675 139.292 30.1077C139.325 30.1432 139.365 30.172 139.408 30.1925C139.458 30.2156 139.515 30.2239 139.629 30.2406L143.298 30.7768C143.684 30.8332 143.877 30.8615 143.967 30.9558C144.044 31.0379 144.081 31.1507 144.066 31.2628C144.049 31.3917 143.909 31.5279 143.63 31.8003L140.976 34.3848C140.893 34.4654 140.852 34.5056 140.825 34.5536C140.802 34.596 140.787 34.6426 140.781 34.6909C140.774 34.7453 140.784 34.8022 140.803 34.916L141.429 38.5666C141.496 38.9516 141.529 39.1441 141.466 39.2584C141.412 39.3578 141.317 39.4275 141.205 39.4481C141.077 39.4718 140.905 39.3809 140.559 39.199L137.279 37.4744C137.177 37.4206 137.126 37.3938 137.072 37.3832C137.025 37.3739 136.976 37.3739 136.928 37.3832C136.874 37.3938 136.823 37.4206 136.721 37.4744L133.441 39.199C133.095 39.3809 132.923 39.4718 132.795 39.4481C132.684 39.4275 132.588 39.3578 132.534 39.2584C132.472 39.1441 132.505 38.9516 132.571 38.5666L133.197 34.916C133.216 34.8022 133.226 34.7453 133.219 34.6909C133.213 34.6426 133.198 34.596 133.175 34.5536C133.148 34.5056 133.107 34.4654 133.024 34.3848L130.37 31.8003C130.091 31.5279 129.951 31.3917 129.934 31.2628C129.919 31.1507 129.956 31.0379 130.033 30.9558C130.123 30.8615 130.316 30.8332 130.702 30.7768L134.371 30.2406C134.485 30.2239 134.542 30.2156 134.592 30.1925C134.636 30.172 134.675 30.1432 134.708 30.1077C134.745 30.0675 134.771 30.0158 134.822 29.9124L136.462 26.59Z" fill="#F8B808"/>
<path d="M160.462 26.59C160.635 26.2398 160.721 26.0647 160.839 26.0087C160.941 25.96 161.059 25.96 161.161 26.0087C161.279 26.0647 161.365 26.2398 161.538 26.59L163.178 29.9124C163.229 30.0158 163.255 30.0675 163.292 30.1077C163.325 30.1432 163.365 30.172 163.408 30.1925C163.458 30.2156 163.515 30.2239 163.629 30.2406L167.298 30.7768C167.684 30.8332 167.877 30.8615 167.967 30.9558C168.044 31.0379 168.081 31.1507 168.066 31.2628C168.049 31.3917 167.909 31.5279 167.63 31.8003L164.976 34.3848C164.893 34.4654 164.852 34.5056 164.825 34.5536C164.802 34.596 164.787 34.6426 164.781 34.6909C164.774 34.7453 164.784 34.8022 164.803 34.916L165.429 38.5666C165.496 38.9516 165.529 39.1441 165.466 39.2584C165.412 39.3578 165.317 39.4275 165.205 39.4481C165.077 39.4718 164.905 39.3809 164.559 39.199L161.279 37.4744C161.177 37.4206 161.126 37.3938 161.072 37.3832C161.025 37.3739 160.976 37.3739 160.928 37.3832C160.874 37.3938 160.823 37.4206 160.721 37.4744L157.441 39.199C157.095 39.3809 156.923 39.4718 156.795 39.4481C156.684 39.4275 156.588 39.3578 156.534 39.2584C156.472 39.1441 156.505 38.9516 156.571 38.5666L157.197 34.916C157.216 34.8022 157.226 34.7453 157.219 34.6909C157.213 34.6426 157.198 34.596 157.175 34.5536C157.148 34.5056 157.107 34.4654 157.024 34.3848L154.37 31.8003C154.091 31.5279 153.951 31.3917 153.934 31.2628C153.919 31.1507 153.956 31.0379 154.033 30.9558C154.123 30.8615 154.316 30.8332 154.702 30.7768L158.371 30.2406C158.485 30.2239 158.542 30.2156 158.592 30.1925C158.636 30.172 158.675 30.1432 158.708 30.1077C158.745 30.0675 158.771 30.0158 158.822 29.9124L160.462 26.59Z" fill="#F8B808"/>
<path d="M184.462 26.59C184.635 26.2398 184.721 26.0647 184.839 26.0087C184.941 25.96 185.059 25.96 185.161 26.0087C185.279 26.0647 185.365 26.2398 185.538 26.59L187.178 29.9124C187.229 30.0158 187.255 30.0675 187.292 30.1077C187.325 30.1432 187.365 30.172 187.408 30.1925C187.458 30.2156 187.515 30.2239 187.629 30.2406L191.298 30.7768C191.684 30.8332 191.877 30.8615 191.967 30.9558C192.044 31.0379 192.081 31.1507 192.066 31.2628C192.049 31.3917 191.909 31.5279 191.63 31.8003L188.976 34.3848C188.893 34.4654 188.852 34.5056 188.825 34.5536C188.802 34.596 188.787 34.6426 188.781 34.6909C188.774 34.7453 188.784 34.8022 188.803 34.916L189.429 38.5666C189.496 38.9516 189.529 39.1441 189.466 39.2584C189.412 39.3578 189.317 39.4275 189.205 39.4481C189.077 39.4718 188.905 39.3809 188.559 39.199L185.279 37.4744C185.177 37.4206 185.126 37.3938 185.072 37.3832C185.025 37.3739 184.976 37.3739 184.928 37.3832C184.874 37.3938 184.823 37.4206 184.721 37.4744L181.441 39.199C181.095 39.3809 180.923 39.4718 180.795 39.4481C180.684 39.4275 180.588 39.3578 180.534 39.2584C180.472 39.1441 180.505 38.9516 180.571 38.5666L181.197 34.916C181.216 34.8022 181.226 34.7453 181.219 34.6909C181.213 34.6426 181.198 34.596 181.175 34.5536C181.148 34.5056 181.107 34.4654 181.024 34.3848L178.37 31.8003C178.091 31.5279 177.951 31.3917 177.934 31.2628C177.919 31.1507 177.956 31.0379 178.033 30.9558C178.123 30.8615 178.316 30.8332 178.702 30.7768L182.371 30.2406C182.485 30.2239 182.542 30.2156 182.592 30.1925C182.636 30.172 182.675 30.1432 182.708 30.1077C182.745 30.0675 182.771 30.0158 182.822 29.9124L184.462 26.59Z" fill="#F8B808"/>
<path d="M81.218 63V53.2H85.46C86.3373 53.2 87.0933 53.3447 87.728 53.634C88.3627 53.914 88.8527 54.32 89.198 54.852C89.5433 55.384 89.716 56.0187 89.716 56.756C89.716 57.484 89.5433 58.114 89.198 58.646C88.8527 59.178 88.3627 59.5887 87.728 59.878C87.0933 60.158 86.3373 60.298 85.46 60.298H82.478L83.486 59.276V63H81.218ZM83.486 59.528L82.478 58.45H85.334C86.034 58.45 86.5567 58.3007 86.902 58.002C87.2473 57.7033 87.42 57.288 87.42 56.756C87.42 56.2147 87.2473 55.7947 86.902 55.496C86.5567 55.1973 86.034 55.048 85.334 55.048H82.478L83.486 53.97V59.528ZM94.7125 63.112C93.8538 63.112 93.0978 62.944 92.4445 62.608C91.8005 62.272 91.3011 61.8147 90.9465 61.236C90.5918 60.648 90.4145 59.9807 90.4145 59.234C90.4145 58.478 90.5871 57.8107 90.9325 57.232C91.2871 56.644 91.7678 56.1867 92.3745 55.86C92.9811 55.524 93.6671 55.356 94.4325 55.356C95.1698 55.356 95.8325 55.5147 96.4205 55.832C97.0178 56.14 97.4891 56.588 97.8345 57.176C98.1798 57.7547 98.3525 58.45 98.3525 59.262C98.3525 59.346 98.3478 59.444 98.3385 59.556C98.3291 59.6587 98.3198 59.7567 98.3105 59.85H92.1925V58.576H97.1625L96.3225 58.954C96.3225 58.562 96.2431 58.2213 96.0845 57.932C95.9258 57.6427 95.7065 57.4187 95.4265 57.26C95.1465 57.092 94.8198 57.008 94.4465 57.008C94.0731 57.008 93.7418 57.092 93.4525 57.26C93.1725 57.4187 92.9531 57.6473 92.7945 57.946C92.6358 58.2353 92.5565 58.5807 92.5565 58.982V59.318C92.5565 59.7287 92.6451 60.0927 92.8225 60.41C93.0091 60.718 93.2658 60.956 93.5925 61.124C93.9285 61.2827 94.3205 61.362 94.7685 61.362C95.1698 61.362 95.5198 61.3013 95.8185 61.18C96.1265 61.0587 96.4065 60.8767 96.6585 60.634L97.8205 61.894C97.4751 62.286 97.0411 62.5893 96.5185 62.804C95.9958 63.0093 95.3938 63.112 94.7125 63.112ZM100.027 63V55.468H102.197V59.948L105.865 55.468H107.867V63H105.697V58.52L102.043 63H100.027ZM103.807 54.656C102.985 54.656 102.369 54.4787 101.959 54.124C101.548 53.76 101.338 53.214 101.329 52.486H102.757C102.766 52.8033 102.855 53.0553 103.023 53.242C103.191 53.4287 103.447 53.522 103.793 53.522C104.129 53.522 104.385 53.4287 104.563 53.242C104.749 53.0553 104.843 52.8033 104.843 52.486H106.299C106.299 53.214 106.089 53.76 105.669 54.124C105.249 54.4787 104.628 54.656 103.807 54.656ZM111.576 63V56.756L112.066 57.26H109.028V55.468H116.294V57.26H113.256L113.746 56.756V63H111.576ZM117.458 63V55.468H119.628V59.948L123.296 55.468H125.298V63H123.128V58.52L119.474 63H117.458ZM127.398 63V55.468H129.568V58.408H132.844V55.468H135.028V63H132.844V60.186H129.568V63H127.398ZM137.118 63V55.468H143.152V57.26H138.798L139.288 56.784V63H137.118ZM148.275 63V55.468H150.445V58.408H153.721V55.468H155.905V63H153.721V60.186H150.445V63H148.275ZM162.503 63V61.53L162.363 61.208V58.576C162.363 58.1093 162.219 57.7453 161.929 57.484C161.649 57.2227 161.215 57.092 160.627 57.092C160.226 57.092 159.829 57.1573 159.437 57.288C159.055 57.4093 158.728 57.5773 158.457 57.792L157.673 56.266C158.084 55.9767 158.579 55.7527 159.157 55.594C159.736 55.4353 160.324 55.356 160.921 55.356C162.069 55.356 162.961 55.6267 163.595 56.168C164.23 56.7093 164.547 57.554 164.547 58.702V63H162.503ZM160.207 63.112C159.619 63.112 159.115 63.014 158.695 62.818C158.275 62.6127 157.953 62.3373 157.729 61.992C157.505 61.6467 157.393 61.2593 157.393 60.83C157.393 60.382 157.501 59.99 157.715 59.654C157.939 59.318 158.289 59.0567 158.765 58.87C159.241 58.674 159.862 58.576 160.627 58.576H162.629V59.85H160.865C160.352 59.85 159.997 59.934 159.801 60.102C159.615 60.27 159.521 60.48 159.521 60.732C159.521 61.012 159.629 61.236 159.843 61.404C160.067 61.5627 160.371 61.642 160.753 61.642C161.117 61.642 161.444 61.558 161.733 61.39C162.023 61.2127 162.233 60.956 162.363 60.62L162.699 61.628C162.541 62.1133 162.251 62.482 161.831 62.734C161.411 62.986 160.87 63.112 160.207 63.112ZM170.409 63V55.468H172.691L175.533 60.62H174.623L177.661 55.468H179.705L179.733 63H177.759V57.708L178.095 57.932L175.505 62.272H174.581L171.977 57.778L172.383 57.68V63H170.409ZM186.333 63V61.53L186.193 61.208V58.576C186.193 58.1093 186.049 57.7453 185.759 57.484C185.479 57.2227 185.045 57.092 184.457 57.092C184.056 57.092 183.659 57.1573 183.267 57.288C182.885 57.4093 182.558 57.5773 182.287 57.792L181.503 56.266C181.914 55.9767 182.409 55.7527 182.987 55.594C183.566 55.4353 184.154 55.356 184.751 55.356C185.899 55.356 186.791 55.6267 187.425 56.168C188.06 56.7093 188.377 57.554 188.377 58.702V63H186.333ZM184.037 63.112C183.449 63.112 182.945 63.014 182.525 62.818C182.105 62.6127 181.783 62.3373 181.559 61.992C181.335 61.6467 181.223 61.2593 181.223 60.83C181.223 60.382 181.331 59.99 181.545 59.654C181.769 59.318 182.119 59.0567 182.595 58.87C183.071 58.674 183.692 58.576 184.457 58.576H186.459V59.85H184.695C184.182 59.85 183.827 59.934 183.631 60.102C183.445 60.27 183.351 60.48 183.351 60.732C183.351 61.012 183.459 61.236 183.673 61.404C183.897 61.5627 184.201 61.642 184.583 61.642C184.947 61.642 185.274 61.558 185.563 61.39C185.853 61.2127 186.063 60.956 186.193 60.62L186.529 61.628C186.371 62.1133 186.081 62.482 185.661 62.734C185.241 62.986 184.7 63.112 184.037 63.112ZM194.713 63.112C194.078 63.112 193.523 62.972 193.047 62.692C192.571 62.412 192.197 61.9873 191.927 61.418C191.665 60.8393 191.535 60.1113 191.535 59.234C191.535 58.3473 191.661 57.6193 191.913 57.05C192.165 56.4807 192.529 56.056 193.005 55.776C193.481 55.496 194.05 55.356 194.713 55.356C195.422 55.356 196.057 55.5193 196.617 55.846C197.186 56.1633 197.634 56.6113 197.961 57.19C198.297 57.7687 198.465 58.45 198.465 59.234C198.465 60.0273 198.297 60.7133 197.961 61.292C197.634 61.8707 197.186 62.3187 196.617 62.636C196.057 62.9533 195.422 63.112 194.713 63.112ZM190.261 65.716V55.468H192.347V57.008L192.305 59.248L192.445 61.474V65.716H190.261ZM194.335 61.32C194.699 61.32 195.021 61.236 195.301 61.068C195.59 60.9 195.819 60.662 195.987 60.354C196.164 60.0367 196.253 59.6633 196.253 59.234C196.253 58.7953 196.164 58.422 195.987 58.114C195.819 57.806 195.59 57.568 195.301 57.4C195.021 57.232 194.699 57.148 194.335 57.148C193.971 57.148 193.644 57.232 193.355 57.4C193.065 57.568 192.837 57.806 192.669 58.114C192.501 58.422 192.417 58.7953 192.417 59.234C192.417 59.6633 192.501 60.0367 192.669 60.354C192.837 60.662 193.065 60.9 193.355 61.068C193.644 61.236 193.971 61.32 194.335 61.32ZM205.329 63L202.809 59.43L204.587 58.38L207.905 63H205.329ZM199.995 63V55.468H202.179V63H199.995ZM201.535 60.144V58.394H204.167V60.144H201.535ZM204.797 59.486L202.753 59.262L205.399 55.468H207.723L204.797 59.486ZM212.427 63.112C211.569 63.112 210.813 62.944 210.159 62.608C209.515 62.272 209.016 61.8147 208.661 61.236C208.307 60.648 208.129 59.9807 208.129 59.234C208.129 58.478 208.302 57.8107 208.647 57.232C209.002 56.644 209.483 56.1867 210.089 55.86C210.696 55.524 211.382 55.356 212.147 55.356C212.885 55.356 213.547 55.5147 214.135 55.832C214.733 56.14 215.204 56.588 215.549 57.176C215.895 57.7547 216.067 58.45 216.067 59.262C216.067 59.346 216.063 59.444 216.053 59.556C216.044 59.6587 216.035 59.7567 216.025 59.85H209.907V58.576H214.877L214.037 58.954C214.037 58.562 213.958 58.2213 213.799 57.932C213.641 57.6427 213.421 57.4187 213.141 57.26C212.861 57.092 212.535 57.008 212.161 57.008C211.788 57.008 211.457 57.092 211.167 57.26C210.887 57.4187 210.668 57.6473 210.509 57.946C210.351 58.2353 210.271 58.5807 210.271 58.982V59.318C210.271 59.7287 210.36 60.0927 210.537 60.41C210.724 60.718 210.981 60.956 211.307 61.124C211.643 61.2827 212.035 61.362 212.483 61.362C212.885 61.362 213.235 61.3013 213.533 61.18C213.841 61.0587 214.121 60.8767 214.373 60.634L215.535 61.894C215.19 62.286 214.756 62.5893 214.233 62.804C213.711 63.0093 213.109 63.112 212.427 63.112ZM217.741 63V55.468H225.231V63H223.047V56.77L223.537 57.26H219.421L219.911 56.77V63H217.741ZM226.373 62.986L226.485 61.194C226.541 61.2033 226.597 61.2127 226.653 61.222C226.709 61.222 226.761 61.222 226.807 61.222C227.069 61.222 227.274 61.1473 227.423 60.998C227.573 60.8487 227.685 60.648 227.759 60.396C227.834 60.1347 227.885 59.8407 227.913 59.514C227.951 59.1873 227.979 58.8467 227.997 58.492L228.109 55.468H234.549V63H232.365V56.728L232.855 57.26H229.551L230.013 56.7L229.915 58.59C229.887 59.262 229.831 59.878 229.747 60.438C229.673 60.998 229.547 61.4833 229.369 61.894C229.192 62.2953 228.954 62.608 228.655 62.832C228.357 63.0467 227.974 63.154 227.507 63.154C227.339 63.154 227.162 63.14 226.975 63.112C226.789 63.084 226.588 63.042 226.373 62.986ZM240.332 63.112C239.473 63.112 238.717 62.944 238.064 62.608C237.42 62.272 236.92 61.8147 236.566 61.236C236.211 60.648 236.034 59.9807 236.034 59.234C236.034 58.478 236.206 57.8107 236.552 57.232C236.906 56.644 237.387 56.1867 237.994 55.86C238.6 55.524 239.286 55.356 240.052 55.356C240.789 55.356 241.452 55.5147 242.04 55.832C242.637 56.14 243.108 56.588 243.454 57.176C243.799 57.7547 243.972 58.45 243.972 59.262C243.972 59.346 243.967 59.444 243.958 59.556C243.948 59.6587 243.939 59.7567 243.93 59.85H237.812V58.576H242.782L241.942 58.954C241.942 58.562 241.862 58.2213 241.704 57.932C241.545 57.6427 241.326 57.4187 241.046 57.26C240.766 57.092 240.439 57.008 240.066 57.008C239.692 57.008 239.361 57.092 239.072 57.26C238.792 57.4187 238.572 57.6473 238.414 57.946C238.255 58.2353 238.176 58.5807 238.176 58.982V59.318C238.176 59.7287 238.264 60.0927 238.442 60.41C238.628 60.718 238.885 60.956 239.212 61.124C239.548 61.2827 239.94 61.362 240.388 61.362C240.789 61.362 241.139 61.3013 241.438 61.18C241.746 61.0587 242.026 60.8767 242.278 60.634L243.44 61.894C243.094 62.286 242.66 62.5893 242.138 62.804C241.615 63.0093 241.013 63.112 240.332 63.112ZM245.646 63V55.468H247.816V59.948L251.484 55.468H253.486V63H251.316V58.52L247.662 63H245.646ZM249.426 54.656C248.604 54.656 247.988 54.4787 247.578 54.124C247.167 53.76 246.957 53.214 246.948 52.486H248.376C248.385 52.8033 248.474 53.0553 248.642 53.242C248.81 53.4287 249.066 53.522 249.412 53.522C249.748 53.522 250.004 53.4287 250.182 53.242C250.368 53.0553 250.462 52.8033 250.462 52.486H251.918C251.918 53.214 251.708 53.76 251.288 54.124C250.868 54.4787 250.247 54.656 249.426 54.656ZM259.169 63.112C258.357 63.112 257.634 62.9487 256.999 62.622C256.364 62.286 255.865 61.824 255.501 61.236C255.146 60.648 254.969 59.9807 254.969 59.234C254.969 58.478 255.146 57.8107 255.501 57.232C255.865 56.644 256.364 56.1867 256.999 55.86C257.634 55.524 258.357 55.356 259.169 55.356C259.962 55.356 260.653 55.524 261.241 55.86C261.829 56.1867 262.263 56.658 262.543 57.274L260.849 58.184C260.653 57.8293 260.406 57.568 260.107 57.4C259.818 57.232 259.5 57.148 259.155 57.148C258.782 57.148 258.446 57.232 258.147 57.4C257.848 57.568 257.61 57.806 257.433 58.114C257.265 58.422 257.181 58.7953 257.181 59.234C257.181 59.6727 257.265 60.046 257.433 60.354C257.61 60.662 257.848 60.9 258.147 61.068C258.446 61.236 258.782 61.32 259.155 61.32C259.5 61.32 259.818 61.2407 260.107 61.082C260.406 60.914 260.653 60.648 260.849 60.284L262.543 61.208C262.263 61.8147 261.829 62.286 261.241 62.622C260.653 62.9487 259.962 63.112 259.169 63.112ZM268.378 63V61.53L268.238 61.208V58.576C268.238 58.1093 268.094 57.7453 267.804 57.484C267.524 57.2227 267.09 57.092 266.502 57.092C266.101 57.092 265.704 57.1573 265.312 57.288C264.93 57.4093 264.603 57.5773 264.332 57.792L263.548 56.266C263.959 55.9767 264.454 55.7527 265.032 55.594C265.611 55.4353 266.199 55.356 266.796 55.356C267.944 55.356 268.836 55.6267 269.47 56.168C270.105 56.7093 270.422 57.554 270.422 58.702V63H268.378ZM266.082 63.112C265.494 63.112 264.99 63.014 264.57 62.818C264.15 62.6127 263.828 62.3373 263.604 61.992C263.38 61.6467 263.268 61.2593 263.268 60.83C263.268 60.382 263.376 59.99 263.59 59.654C263.814 59.318 264.164 59.0567 264.64 58.87C265.116 58.674 265.737 58.576 266.502 58.576H268.504V59.85H266.74C266.227 59.85 265.872 59.934 265.676 60.102C265.49 60.27 265.396 60.48 265.396 60.732C265.396 61.012 265.504 61.236 265.718 61.404C265.942 61.5627 266.246 61.642 266.628 61.642C266.992 61.642 267.319 61.558 267.608 61.39C267.898 61.2127 268.108 60.956 268.238 60.62L268.574 61.628C268.416 62.1133 268.126 62.482 267.706 62.734C267.286 62.986 266.745 63.112 266.082 63.112ZM271.312 63L274.686 58.576L274.644 59.78L271.41 55.468H273.86L275.904 58.282L274.98 58.31L277.094 55.468H279.418L276.17 59.738V58.562L279.53 63H277.052L274.91 60.004L275.82 60.13L273.692 63H271.312ZM81.414 83V75.65H82.408V78.898H87.042V75.65H88.036V83H87.042V79.752H82.408V83H81.414ZM95.4253 83V81.376L95.3833 81.11V78.394C95.3833 77.7687 95.2059 77.288 94.8513 76.952C94.5059 76.616 93.9879 76.448 93.2973 76.448C92.8213 76.448 92.3686 76.5273 91.9393 76.686C91.5099 76.8447 91.1459 77.0547 90.8473 77.316L90.3993 76.574C90.7726 76.2567 91.2206 76.014 91.7433 75.846C92.2659 75.6687 92.8166 75.58 93.3953 75.58C94.3473 75.58 95.0799 75.818 95.5933 76.294C96.1159 76.7607 96.3773 77.4747 96.3773 78.436V83H95.4253ZM92.8913 83.07C92.3406 83.07 91.8599 82.9813 91.4493 82.804C91.0479 82.6173 90.7399 82.3653 90.5253 82.048C90.3106 81.7213 90.2033 81.348 90.2033 80.928C90.2033 80.5453 90.2919 80.2 90.4693 79.892C90.6559 79.5747 90.9546 79.3227 91.3653 79.136C91.7853 78.94 92.3453 78.842 93.0453 78.842H95.5793V79.584H93.0733C92.3639 79.584 91.8693 79.71 91.5893 79.962C91.3186 80.214 91.1833 80.5267 91.1833 80.9C91.1833 81.32 91.3466 81.656 91.6733 81.908C91.9999 82.16 92.4573 82.286 93.0453 82.286C93.6053 82.286 94.0859 82.16 94.4873 81.908C94.8979 81.6467 95.1966 81.2733 95.3833 80.788L95.6073 81.474C95.4206 81.9593 95.0939 82.3467 94.6273 82.636C94.1699 82.9253 93.5913 83.07 92.8913 83.07ZM105.711 83.07C105.002 83.07 104.363 82.9113 103.793 82.594C103.233 82.2673 102.79 81.824 102.463 81.264C102.137 80.6947 101.973 80.046 101.973 79.318C101.973 78.5807 102.137 77.932 102.463 77.372C102.79 76.812 103.233 76.3733 103.793 76.056C104.353 75.7387 104.993 75.58 105.711 75.58C106.439 75.58 107.083 75.7387 107.643 76.056C108.213 76.3733 108.656 76.812 108.973 77.372C109.3 77.932 109.463 78.5807 109.463 79.318C109.463 80.046 109.3 80.6947 108.973 81.264C108.656 81.824 108.213 82.2673 107.643 82.594C107.074 82.9113 106.43 83.07 105.711 83.07ZM105.711 82.188C106.243 82.188 106.715 82.0713 107.125 81.838C107.536 81.5953 107.858 81.2593 108.091 80.83C108.334 80.3913 108.455 79.8873 108.455 79.318C108.455 78.7393 108.334 78.2353 108.091 77.806C107.858 77.3767 107.536 77.0453 107.125 76.812C106.715 76.5693 106.248 76.448 105.725 76.448C105.203 76.448 104.736 76.5693 104.325 76.812C103.915 77.0453 103.588 77.3767 103.345 77.806C103.103 78.2353 102.981 78.7393 102.981 79.318C102.981 79.8873 103.103 80.3913 103.345 80.83C103.588 81.2593 103.915 81.5953 104.325 81.838C104.736 82.0713 105.198 82.188 105.711 82.188ZM114.668 83.07C113.94 83.07 113.286 82.9113 112.708 82.594C112.138 82.2673 111.69 81.824 111.364 81.264C111.037 80.6947 110.874 80.046 110.874 79.318C110.874 78.5807 111.037 77.932 111.364 77.372C111.69 76.812 112.138 76.3733 112.708 76.056C113.286 75.7387 113.94 75.58 114.668 75.58C115.293 75.58 115.858 75.7013 116.362 75.944C116.866 76.1867 117.262 76.5507 117.552 77.036L116.81 77.54C116.558 77.1667 116.245 76.8913 115.872 76.714C115.498 76.5367 115.092 76.448 114.654 76.448C114.131 76.448 113.66 76.5693 113.24 76.812C112.82 77.0453 112.488 77.3767 112.246 77.806C112.003 78.2353 111.882 78.7393 111.882 79.318C111.882 79.8967 112.003 80.4007 112.246 80.83C112.488 81.2593 112.82 81.5953 113.24 81.838C113.66 82.0713 114.131 82.188 114.654 82.188C115.092 82.188 115.498 82.0993 115.872 81.922C116.245 81.7447 116.558 81.474 116.81 81.11L117.552 81.614C117.262 82.09 116.866 82.454 116.362 82.706C115.858 82.9487 115.293 83.07 114.668 83.07ZM119.477 83V75.65H120.471V78.898H125.105V75.65H126.099V83H125.105V79.752H120.471V83H119.477ZM131.948 83.07C131.238 83.07 130.599 82.9113 130.03 82.594C129.47 82.2673 129.026 81.824 128.7 81.264C128.373 80.6947 128.21 80.046 128.21 79.318C128.21 78.5807 128.373 77.932 128.7 77.372C129.026 76.812 129.47 76.3733 130.03 76.056C130.59 75.7387 131.229 75.58 131.948 75.58C132.676 75.58 133.32 75.7387 133.88 76.056C134.449 76.3733 134.892 76.812 135.21 77.372C135.536 77.932 135.7 78.5807 135.7 79.318C135.7 80.046 135.536 80.6947 135.21 81.264C134.892 81.824 134.449 82.2673 133.88 82.594C133.31 82.9113 132.666 83.07 131.948 83.07ZM131.948 82.188C132.48 82.188 132.951 82.0713 133.362 81.838C133.772 81.5953 134.094 81.2593 134.328 80.83C134.57 80.3913 134.692 79.8873 134.692 79.318C134.692 78.7393 134.57 78.2353 134.328 77.806C134.094 77.3767 133.772 77.0453 133.362 76.812C132.951 76.5693 132.484 76.448 131.962 76.448C131.439 76.448 130.972 76.5693 130.562 76.812C130.151 77.0453 129.824 77.3767 129.582 77.806C129.339 78.2353 129.218 78.7393 129.218 79.318C129.218 79.8873 129.339 80.3913 129.582 80.83C129.824 81.2593 130.151 81.5953 130.562 81.838C130.972 82.0713 131.434 82.188 131.948 82.188ZM137.824 83V75.65H141.072C141.903 75.65 142.556 75.8087 143.032 76.126C143.517 76.4433 143.76 76.91 143.76 77.526C143.76 78.1233 143.531 78.5853 143.074 78.912C142.617 79.2293 142.015 79.388 141.268 79.388L141.464 79.094C142.341 79.094 142.985 79.2573 143.396 79.584C143.807 79.9107 144.012 80.382 144.012 80.998C144.012 81.6327 143.779 82.1273 143.312 82.482C142.855 82.8273 142.141 83 141.17 83H137.824ZM138.79 82.216H141.128C141.753 82.216 142.225 82.118 142.542 81.922C142.869 81.7167 143.032 81.39 143.032 80.942C143.032 80.494 142.887 80.1673 142.598 79.962C142.309 79.7567 141.851 79.654 141.226 79.654H138.79V82.216ZM138.79 78.912H141.002C141.571 78.912 142.005 78.8047 142.304 78.59C142.612 78.3753 142.766 78.0627 142.766 77.652C142.766 77.2413 142.612 76.9333 142.304 76.728C142.005 76.5227 141.571 76.42 141.002 76.42H138.79V78.912ZM150.906 83V81.376L150.864 81.11V78.394C150.864 77.7687 150.686 77.288 150.332 76.952C149.986 76.616 149.468 76.448 148.778 76.448C148.302 76.448 147.849 76.5273 147.42 76.686C146.99 76.8447 146.626 77.0547 146.328 77.316L145.88 76.574C146.253 76.2567 146.701 76.014 147.224 75.846C147.746 75.6687 148.297 75.58 148.876 75.58C149.828 75.58 150.56 75.818 151.074 76.294C151.596 76.7607 151.858 77.4747 151.858 78.436V83H150.906ZM148.372 83.07C147.821 83.07 147.34 82.9813 146.93 82.804C146.528 82.6173 146.22 82.3653 146.006 82.048C145.791 81.7213 145.684 81.348 145.684 80.928C145.684 80.5453 145.772 80.2 145.95 79.892C146.136 79.5747 146.435 79.3227 146.846 79.136C147.266 78.94 147.826 78.842 148.526 78.842H151.06V79.584H148.554C147.844 79.584 147.35 79.71 147.07 79.962C146.799 80.214 146.664 80.5267 146.664 80.9C146.664 81.32 146.827 81.656 147.154 81.908C147.48 82.16 147.938 82.286 148.526 82.286C149.086 82.286 149.566 82.16 149.968 81.908C150.378 81.6467 150.677 81.2733 150.864 80.788L151.088 81.474C150.901 81.9593 150.574 82.3467 150.108 82.636C149.65 82.9253 149.072 83.07 148.372 83.07ZM154.504 83V75.65H155.498V78.898H160.132V75.65H161.126V83H160.132V79.752H155.498V83H154.504ZM163.951 83V75.65H164.945V81.488L169.859 75.65H170.741V83H169.747V77.148L164.847 83H163.951ZM173.59 83V75.65H174.584V81.488L179.498 75.65H180.38V83H179.386V77.148L174.486 83H173.59ZM189.133 83.084C188.423 83.084 187.751 82.972 187.117 82.748C186.491 82.5147 185.987 82.2067 185.605 81.824L186.095 81.026C186.412 81.3527 186.837 81.6233 187.369 81.838C187.91 82.0527 188.498 82.16 189.133 82.16C189.945 82.16 190.565 81.9827 190.995 81.628C191.433 81.2733 191.653 80.7973 191.653 80.2C191.653 79.6027 191.438 79.1267 191.009 78.772C190.589 78.4173 189.921 78.24 189.007 78.24H188.307V77.498L191.331 73.704L191.471 74.096H186.011V73.2H192.311V73.914L189.287 77.708L188.797 77.386H189.175C190.351 77.386 191.228 77.6473 191.807 78.17C192.395 78.6927 192.689 79.3647 192.689 80.186C192.689 80.7367 192.558 81.2313 192.297 81.67C192.035 82.1087 191.639 82.454 191.107 82.706C190.584 82.958 189.926 83.084 189.133 83.084ZM198.015 83.084C197.259 83.084 196.587 82.888 195.999 82.496C195.411 82.0947 194.949 81.5253 194.613 80.788C194.277 80.0413 194.109 79.1453 194.109 78.1C194.109 77.0547 194.277 76.1633 194.613 75.426C194.949 74.6793 195.411 74.11 195.999 73.718C196.587 73.3167 197.259 73.116 198.015 73.116C198.771 73.116 199.443 73.3167 200.031 73.718C200.619 74.11 201.081 74.6793 201.417 75.426C201.762 76.1633 201.935 77.0547 201.935 78.1C201.935 79.1453 201.762 80.0413 201.417 80.788C201.081 81.5253 200.619 82.0947 200.031 82.496C199.443 82.888 198.771 83.084 198.015 83.084ZM198.015 82.16C198.594 82.16 199.098 82.006 199.527 81.698C199.956 81.3807 200.292 80.9233 200.535 80.326C200.778 79.7193 200.899 78.9773 200.899 78.1C200.899 77.2227 200.778 76.4853 200.535 75.888C200.292 75.2813 199.956 74.824 199.527 74.516C199.098 74.1987 198.594 74.04 198.015 74.04C197.455 74.04 196.956 74.1987 196.517 74.516C196.078 74.824 195.738 75.2813 195.495 75.888C195.252 76.4853 195.131 77.2227 195.131 78.1C195.131 78.9773 195.252 79.7193 195.495 80.326C195.738 80.9233 196.078 81.3807 196.517 81.698C196.956 82.006 197.455 82.16 198.015 82.16ZM207.284 83.084C206.528 83.084 205.856 82.888 205.268 82.496C204.68 82.0947 204.218 81.5253 203.882 80.788C203.546 80.0413 203.378 79.1453 203.378 78.1C203.378 77.0547 203.546 76.1633 203.882 75.426C204.218 74.6793 204.68 74.11 205.268 73.718C205.856 73.3167 206.528 73.116 207.284 73.116C208.04 73.116 208.712 73.3167 209.3 73.718C209.888 74.11 210.35 74.6793 210.686 75.426C211.032 76.1633 211.204 77.0547 211.204 78.1C211.204 79.1453 211.032 80.0413 210.686 80.788C210.35 81.5253 209.888 82.0947 209.3 82.496C208.712 82.888 208.04 83.084 207.284 83.084ZM207.284 82.16C207.863 82.16 208.367 82.006 208.796 81.698C209.226 81.3807 209.562 80.9233 209.804 80.326C210.047 79.7193 210.168 78.9773 210.168 78.1C210.168 77.2227 210.047 76.4853 209.804 75.888C209.562 75.2813 209.226 74.824 208.796 74.516C208.367 74.1987 207.863 74.04 207.284 74.04C206.724 74.04 206.225 74.1987 205.786 74.516C205.348 74.824 205.007 75.2813 204.764 75.888C204.522 76.4853 204.4 77.2227 204.4 78.1C204.4 78.9773 204.522 79.7193 204.764 80.326C205.007 80.9233 205.348 81.3807 205.786 81.698C206.225 82.006 206.724 82.16 207.284 82.16ZM215.613 81.068V75.132H216.495V81.068H215.613ZM213.009 78.52V77.694H219.099V78.52H213.009ZM228.184 83.07C227.475 83.07 226.835 82.9113 226.266 82.594C225.706 82.2673 225.263 81.824 224.936 81.264C224.609 80.6947 224.446 80.046 224.446 79.318C224.446 78.5807 224.609 77.932 224.936 77.372C225.263 76.812 225.706 76.3733 226.266 76.056C226.826 75.7387 227.465 75.58 228.184 75.58C228.912 75.58 229.556 75.7387 230.116 76.056C230.685 76.3733 231.129 76.812 231.446 77.372C231.773 77.932 231.936 78.5807 231.936 79.318C231.936 80.046 231.773 80.6947 231.446 81.264C231.129 81.824 230.685 82.2673 230.116 82.594C229.547 82.9113 228.903 83.07 228.184 83.07ZM228.184 82.188C228.716 82.188 229.187 82.0713 229.598 81.838C230.009 81.5953 230.331 81.2593 230.564 80.83C230.807 80.3913 230.928 79.8873 230.928 79.318C230.928 78.7393 230.807 78.2353 230.564 77.806C230.331 77.3767 230.009 77.0453 229.598 76.812C229.187 76.5693 228.721 76.448 228.198 76.448C227.675 76.448 227.209 76.5693 226.798 76.812C226.387 77.0453 226.061 77.3767 225.818 77.806C225.575 78.2353 225.454 78.7393 225.454 79.318C225.454 79.8873 225.575 80.3913 225.818 80.83C226.061 81.2593 226.387 81.5953 226.798 81.838C227.209 82.0713 227.671 82.188 228.184 82.188ZM235.187 83V76.252L235.439 76.518H232.401V75.65H238.967V76.518H235.929L236.181 76.252V83H235.187ZM242.173 83.084C241.641 83.084 241.114 83.0093 240.591 82.86C240.068 82.7107 239.606 82.482 239.205 82.174L239.527 81.432C239.882 81.6933 240.292 81.894 240.759 82.034C241.226 82.1647 241.688 82.23 242.145 82.23C242.602 82.2207 242.999 82.1553 243.335 82.034C243.671 81.9127 243.932 81.7447 244.119 81.53C244.306 81.3153 244.399 81.0727 244.399 80.802C244.399 80.41 244.222 80.1067 243.867 79.892C243.512 79.668 243.027 79.556 242.411 79.556H241.151V78.828H242.341C242.705 78.828 243.027 78.7813 243.307 78.688C243.587 78.5947 243.802 78.4593 243.951 78.282C244.11 78.1047 244.189 77.8947 244.189 77.652C244.189 77.3907 244.096 77.1667 243.909 76.98C243.732 76.7933 243.484 76.6533 243.167 76.56C242.85 76.4667 242.49 76.42 242.089 76.42C241.725 76.4293 241.347 76.4853 240.955 76.588C240.563 76.6813 240.176 76.826 239.793 77.022L239.513 76.252C239.942 76.028 240.367 75.86 240.787 75.748C241.216 75.6267 241.646 75.566 242.075 75.566C242.663 75.5473 243.19 75.6173 243.657 75.776C244.133 75.9347 244.511 76.1633 244.791 76.462C245.071 76.7513 245.211 77.1013 245.211 77.512C245.211 77.876 245.099 78.1933 244.875 78.464C244.651 78.7347 244.352 78.9447 243.979 79.094C243.606 79.2433 243.181 79.318 242.705 79.318L242.747 79.052C243.587 79.052 244.24 79.2153 244.707 79.542C245.183 79.8687 245.421 80.312 245.421 80.872C245.421 81.3107 245.276 81.698 244.987 82.034C244.698 82.3607 244.306 82.6173 243.811 82.804C243.326 82.9907 242.78 83.084 242.173 83.084ZM254.846 83V75.65H255.84V83H254.846ZM250.772 78.24C251.696 78.2493 252.4 78.4547 252.886 78.856C253.371 79.2573 253.614 79.836 253.614 80.592C253.614 81.376 253.352 81.978 252.83 82.398C252.307 82.818 251.56 83.0233 250.59 83.014L247.678 83V75.65H248.672V78.212L250.772 78.24ZM250.52 82.258C251.21 82.2673 251.728 82.132 252.074 81.852C252.428 81.5627 252.606 81.1427 252.606 80.592C252.606 80.0413 252.433 79.64 252.088 79.388C251.742 79.1267 251.22 78.9913 250.52 78.982L248.672 78.954V82.23L250.52 82.258ZM258.67 83V75.65H261.918C262.749 75.65 263.402 75.8087 263.878 76.126C264.363 76.4433 264.606 76.91 264.606 77.526C264.606 78.1233 264.377 78.5853 263.92 78.912C263.463 79.2293 262.861 79.388 262.114 79.388L262.31 79.094C263.187 79.094 263.831 79.2573 264.242 79.584C264.653 79.9107 264.858 80.382 264.858 80.998C264.858 81.6327 264.625 82.1273 264.158 82.482C263.701 82.8273 262.987 83 262.016 83H258.67ZM259.636 82.216H261.974C262.599 82.216 263.071 82.118 263.388 81.922C263.715 81.7167 263.878 81.39 263.878 80.942C263.878 80.494 263.733 80.1673 263.444 79.962C263.155 79.7567 262.697 79.654 262.072 79.654H259.636V82.216ZM259.636 78.912H261.848C262.417 78.912 262.851 78.8047 263.15 78.59C263.458 78.3753 263.612 78.0627 263.612 77.652C263.612 77.2413 263.458 76.9333 263.15 76.728C262.851 76.5227 262.417 76.42 261.848 76.42H259.636V78.912ZM270.211 83.07C269.502 83.07 268.863 82.9113 268.293 82.594C267.733 82.2673 267.29 81.824 266.963 81.264C266.637 80.6947 266.473 80.046 266.473 79.318C266.473 78.5807 266.637 77.932 266.963 77.372C267.29 76.812 267.733 76.3733 268.293 76.056C268.853 75.7387 269.493 75.58 270.211 75.58C270.939 75.58 271.583 75.7387 272.143 76.056C272.713 76.3733 273.156 76.812 273.473 77.372C273.8 77.932 273.963 78.5807 273.963 79.318C273.963 80.046 273.8 80.6947 273.473 81.264C273.156 81.824 272.713 82.2673 272.143 82.594C271.574 82.9113 270.93 83.07 270.211 83.07ZM270.211 82.188C270.743 82.188 271.215 82.0713 271.625 81.838C272.036 81.5953 272.358 81.2593 272.591 80.83C272.834 80.3913 272.955 79.8873 272.955 79.318C272.955 78.7393 272.834 78.2353 272.591 77.806C272.358 77.3767 272.036 77.0453 271.625 76.812C271.215 76.5693 270.748 76.448 270.225 76.448C269.703 76.448 269.236 76.5693 268.825 76.812C268.415 77.0453 268.088 77.3767 267.845 77.806C267.603 78.2353 267.481 78.7393 267.481 79.318C267.481 79.8873 267.603 80.3913 267.845 80.83C268.088 81.2593 268.415 81.5953 268.825 81.838C269.236 82.0713 269.698 82.188 270.211 82.188ZM276.088 83V75.65H279.336C280.166 75.65 280.82 75.8087 281.296 76.126C281.781 76.4433 282.024 76.91 282.024 77.526C282.024 78.1233 281.795 78.5853 281.338 78.912C280.88 79.2293 280.278 79.388 279.532 79.388L279.728 79.094C280.605 79.094 281.249 79.2573 281.66 79.584C282.07 79.9107 282.276 80.382 282.276 80.998C282.276 81.6327 282.042 82.1273 281.576 82.482C281.118 82.8273 280.404 83 279.434 83H276.088ZM277.054 82.216H279.392C280.017 82.216 280.488 82.118 280.806 81.922C281.132 81.7167 281.296 81.39 281.296 80.942C281.296 80.494 281.151 80.1673 280.862 79.962C280.572 79.7567 280.115 79.654 279.49 79.654H277.054V82.216ZM277.054 78.912H279.266C279.835 78.912 280.269 78.8047 280.568 78.59C280.876 78.3753 281.03 78.0627 281.03 77.652C281.03 77.2413 280.876 76.9333 280.568 76.728C280.269 76.5227 279.835 76.42 279.266 76.42H277.054V78.912Z" fill="white"/>
<defs>
<clipPath id="clip0_5113_378">
<rect width="60" height="88" fill="white"/>
</clipPath>
</defs>
</svg>
