<svg width="708" height="32" viewBox="0 0 708 32" fill="none" xmlns="http://www.w3.org/2000/svg">
<path d="M10.972 25.312C9.53333 25.312 8.19867 25.078 6.968 24.61C5.75467 24.142 4.69733 23.4833 3.796 22.634C2.912 21.7847 2.21867 20.788 1.716 19.644C1.23067 18.5 0.988 17.252 0.988 15.9C0.988 14.548 1.23067 13.3 1.716 12.156C2.21867 11.012 2.92067 10.0153 3.822 9.166C4.72333 8.31667 5.78067 7.658 6.994 7.19C8.20733 6.722 9.52467 6.488 10.946 6.488C12.3847 6.488 13.702 6.722 14.898 7.19C16.1113 7.658 17.16 8.31667 18.044 9.166C18.9453 10.0153 19.6473 11.012 20.15 12.156C20.6527 13.2827 20.904 14.5307 20.904 15.9C20.904 17.252 20.6527 18.5087 20.15 19.67C19.6473 20.814 18.9453 21.8107 18.044 22.66C17.16 23.492 16.1113 24.142 14.898 24.61C13.702 25.078 12.3933 25.312 10.972 25.312ZM10.946 21.724C11.7607 21.724 12.506 21.5853 13.182 21.308C13.8753 21.0307 14.482 20.632 15.002 20.112C15.522 19.592 15.9207 18.9767 16.198 18.266C16.4927 17.5553 16.64 16.7667 16.64 15.9C16.64 15.0333 16.4927 14.2447 16.198 13.534C15.9207 12.8233 15.522 12.208 15.002 11.688C14.4993 11.168 13.9013 10.7693 13.208 10.492C12.5147 10.2147 11.7607 10.076 10.946 10.076C10.1313 10.076 9.37733 10.2147 8.684 10.492C8.008 10.7693 7.41 11.168 6.89 11.688C6.37 12.208 5.96267 12.8233 5.668 13.534C5.39067 14.2447 5.252 15.0333 5.252 15.9C5.252 16.7493 5.39067 17.538 5.668 18.266C5.96267 18.9767 6.36133 19.592 6.864 20.112C7.384 20.632 7.99067 21.0307 8.684 21.308C9.37733 21.5853 10.1313 21.724 10.946 21.724ZM26.6744 25V13.404L27.5844 14.34H21.9424V11.012H35.4364V14.34H29.7944L30.7044 13.404V25H26.6744ZM37.5984 25V11.012H51.5084V25H47.4524V13.43L48.3624 14.34H40.7184L41.6284 13.43V25H37.5984ZM63.6393 25.208C62.4606 25.208 61.4293 24.948 60.5453 24.428C59.6613 23.908 58.9679 23.1193 58.4653 22.062C57.9799 20.9873 57.7373 19.6353 57.7373 18.006C57.7373 16.3593 57.9713 15.0073 58.4393 13.95C58.9073 12.8927 59.5833 12.104 60.4673 11.584C61.3513 11.064 62.4086 10.804 63.6393 10.804C64.9566 10.804 66.1353 11.1073 67.1753 11.714C68.2326 12.3033 69.0646 13.1353 69.6713 14.21C70.2953 15.2847 70.6073 16.55 70.6073 18.006C70.6073 19.4793 70.2953 20.7533 69.6713 21.828C69.0646 22.9027 68.2326 23.7347 67.1753 24.324C66.1353 24.9133 64.9566 25.208 63.6393 25.208ZM55.3713 30.044V11.012H59.2453V13.872L59.1673 18.032L59.4273 22.166V30.044H55.3713ZM62.9373 21.88C63.6133 21.88 64.2113 21.724 64.7313 21.412C65.2686 21.1 65.6933 20.658 66.0053 20.086C66.3346 19.4967 66.4993 18.8033 66.4993 18.006C66.4993 17.1913 66.3346 16.498 66.0053 15.926C65.6933 15.354 65.2686 14.912 64.7313 14.6C64.2113 14.288 63.6133 14.132 62.9373 14.132C62.2613 14.132 61.6546 14.288 61.1173 14.6C60.5799 14.912 60.1553 15.354 59.8433 15.926C59.5313 16.498 59.3753 17.1913 59.3753 18.006C59.3753 18.8033 59.5313 19.4967 59.8433 20.086C60.1553 20.658 60.5799 21.1 61.1173 21.412C61.6546 21.724 62.2613 21.88 62.9373 21.88ZM81.5935 25V22.27L81.3335 21.672V16.784C81.3335 15.9173 81.0648 15.2413 80.5275 14.756C80.0075 14.2707 79.2015 14.028 78.1095 14.028C77.3642 14.028 76.6275 14.1493 75.8995 14.392C75.1888 14.6173 74.5822 14.9293 74.0795 15.328L72.6235 12.494C73.3862 11.9567 74.3048 11.5407 75.3795 11.246C76.4542 10.9513 77.5462 10.804 78.6555 10.804C80.7875 10.804 82.4428 11.3067 83.6215 12.312C84.8002 13.3173 85.3895 14.886 85.3895 17.018V25H81.5935ZM77.3295 25.208C76.2375 25.208 75.3015 25.026 74.5215 24.662C73.7415 24.2807 73.1435 23.7693 72.7275 23.128C72.3115 22.4867 72.1035 21.7673 72.1035 20.97C72.1035 20.138 72.3028 19.41 72.7015 18.786C73.1175 18.162 73.7675 17.6767 74.6515 17.33C75.5355 16.966 76.6882 16.784 78.1095 16.784H81.8275V19.15H78.5515C77.5982 19.15 76.9395 19.306 76.5755 19.618C76.2288 19.93 76.0555 20.32 76.0555 20.788C76.0555 21.308 76.2548 21.724 76.6535 22.036C77.0695 22.3307 77.6328 22.478 78.3435 22.478C79.0195 22.478 79.6262 22.322 80.1635 22.01C80.7008 21.6807 81.0908 21.204 81.3335 20.58L81.9575 22.452C81.6628 23.3533 81.1255 24.038 80.3455 24.506C79.5655 24.974 78.5602 25.208 77.3295 25.208ZM88.9129 25V11.012H96.0629C97.8136 11.012 99.1829 11.3327 100.171 11.974C101.159 12.598 101.653 13.482 101.653 14.626C101.653 15.77 101.185 16.6713 100.249 17.33C99.3302 17.9713 98.1082 18.292 96.5829 18.292L96.9989 17.356C98.6976 17.356 99.9629 17.668 100.795 18.292C101.644 18.916 102.069 19.826 102.069 21.022C102.069 22.2527 101.601 23.2233 100.665 23.934C99.7289 24.6447 98.2989 25 96.3749 25H88.9129ZM92.6309 22.244H96.0369C96.7822 22.244 97.3369 22.1227 97.7009 21.88C98.0822 21.62 98.2729 21.23 98.2729 20.71C98.2729 20.1727 98.0996 19.7827 97.7529 19.54C97.4062 19.28 96.8602 19.15 96.1149 19.15H92.6309V22.244ZM92.6309 16.758H95.6989C96.4096 16.758 96.9382 16.628 97.2849 16.368C97.6489 16.108 97.8309 15.7353 97.8309 15.25C97.8309 14.7473 97.6489 14.3747 97.2849 14.132C96.9382 13.8893 96.4096 13.768 95.6989 13.768H92.6309V16.758ZM112.653 15.484C114.49 15.5013 115.885 15.9173 116.839 16.732C117.809 17.5293 118.295 18.6647 118.295 20.138C118.295 21.6807 117.749 22.8853 116.657 23.752C115.565 24.6013 114.048 25.026 112.107 25.026L105.087 25V11.012H109.117V15.484H112.653ZM111.743 22.14C112.523 22.1573 113.121 21.9927 113.537 21.646C113.953 21.2993 114.161 20.7793 114.161 20.086C114.161 19.3927 113.953 18.8987 113.537 18.604C113.121 18.292 112.523 18.1273 111.743 18.11L109.117 18.084V22.14H111.743ZM122.575 25V13.404L123.485 14.34H117.843V11.012H131.337V14.34H125.695L126.605 13.404V25H122.575ZM139.753 25.208C138.158 25.208 136.754 24.896 135.541 24.272C134.345 23.648 133.418 22.7987 132.759 21.724C132.1 20.632 131.771 19.3927 131.771 18.006C131.771 16.602 132.092 15.3627 132.733 14.288C133.392 13.196 134.284 12.3467 135.411 11.74C136.538 11.116 137.812 10.804 139.233 10.804C140.602 10.804 141.833 11.0987 142.925 11.688C144.034 12.26 144.91 13.092 145.551 14.184C146.192 15.2587 146.513 16.55 146.513 18.058C146.513 18.214 146.504 18.396 146.487 18.604C146.47 18.7947 146.452 18.9767 146.435 19.15H135.073V16.784H144.303L142.743 17.486C142.743 16.758 142.596 16.1253 142.301 15.588C142.006 15.0507 141.599 14.6347 141.079 14.34C140.559 14.028 139.952 13.872 139.259 13.872C138.566 13.872 137.95 14.028 137.413 14.34C136.893 14.6347 136.486 15.0593 136.191 15.614C135.896 16.1513 135.749 16.7927 135.749 17.538V18.162C135.749 18.9247 135.914 19.6007 136.243 20.19C136.59 20.762 137.066 21.204 137.673 21.516C138.297 21.8107 139.025 21.958 139.857 21.958C140.602 21.958 141.252 21.8453 141.807 21.62C142.379 21.3947 142.899 21.0567 143.367 20.606L145.525 22.946C144.884 23.674 144.078 24.2373 143.107 24.636C142.136 25.0173 141.018 25.208 139.753 25.208ZM161.717 25.26C160.642 25.26 159.568 25.1473 158.493 24.922C157.436 24.6967 156.456 24.3587 155.555 23.908L156.647 21.074C157.358 21.4207 158.129 21.6893 158.961 21.88C159.81 22.0533 160.668 22.14 161.535 22.14C162.159 22.14 162.696 22.0793 163.147 21.958C163.615 21.8193 163.97 21.6287 164.213 21.386C164.456 21.1433 164.577 20.8487 164.577 20.502C164.577 20.0513 164.386 19.7133 164.005 19.488C163.624 19.2453 163.069 19.124 162.341 19.124H159.481V16.602H162.003C162.471 16.602 162.87 16.55 163.199 16.446C163.528 16.342 163.771 16.1947 163.927 16.004C164.1 15.796 164.187 15.5533 164.187 15.276C164.187 14.9813 164.083 14.73 163.875 14.522C163.667 14.314 163.364 14.158 162.965 14.054C162.566 13.9327 162.064 13.872 161.457 13.872C160.764 13.872 160.044 13.9587 159.299 14.132C158.554 14.288 157.791 14.522 157.011 14.834L156.023 12.026C156.942 11.6447 157.852 11.3413 158.753 11.116C159.654 10.8907 160.547 10.7693 161.431 10.752C162.731 10.7173 163.901 10.856 164.941 11.168C165.981 11.48 166.796 11.9307 167.385 12.52C167.992 13.1093 168.295 13.8287 168.295 14.678C168.295 15.354 168.087 15.9607 167.671 16.498C167.272 17.0353 166.718 17.46 166.007 17.772C165.296 18.0667 164.499 18.214 163.615 18.214L163.719 17.408C165.262 17.408 166.475 17.72 167.359 18.344C168.243 18.9507 168.685 19.7827 168.685 20.84C168.685 21.7413 168.373 22.53 167.749 23.206C167.142 23.8647 166.31 24.376 165.253 24.74C164.213 25.0867 163.034 25.26 161.717 25.26ZM179.957 25V22.27L179.697 21.672V16.784C179.697 15.9173 179.428 15.2413 178.891 14.756C178.371 14.2707 177.565 14.028 176.473 14.028C175.727 14.028 174.991 14.1493 174.263 14.392C173.552 14.6173 172.945 14.9293 172.443 15.328L170.987 12.494C171.749 11.9567 172.668 11.5407 173.743 11.246C174.817 10.9513 175.909 10.804 177.019 10.804C179.151 10.804 180.806 11.3067 181.985 12.312C183.163 13.3173 183.753 14.886 183.753 17.018V25H179.957ZM175.693 25.208C174.601 25.208 173.665 25.026 172.885 24.662C172.105 24.2807 171.507 23.7693 171.091 23.128C170.675 22.4867 170.467 21.7673 170.467 20.97C170.467 20.138 170.666 19.41 171.065 18.786C171.481 18.162 172.131 17.6767 173.015 17.33C173.899 16.966 175.051 16.784 176.473 16.784H180.191V19.15H176.915C175.961 19.15 175.303 19.306 174.939 19.618C174.592 19.93 174.419 20.32 174.419 20.788C174.419 21.308 174.618 21.724 175.017 22.036C175.433 22.3307 175.996 22.478 176.707 22.478C177.383 22.478 177.989 22.322 178.527 22.01C179.064 21.6807 179.454 21.204 179.697 20.58L180.321 22.452C180.026 23.3533 179.489 24.038 178.709 24.506C177.929 24.974 176.923 25.208 175.693 25.208ZM196.09 25V20.346L196.662 20.996H192.788C190.778 20.996 189.2 20.58 188.056 19.748C186.912 18.916 186.34 17.72 186.34 16.16C186.34 14.496 186.938 13.222 188.134 12.338C189.348 11.454 190.977 11.012 193.022 11.012H199.704V25H196.09ZM186.132 25L189.85 19.67H193.984L190.448 25H186.132ZM196.09 19.098V13.274L196.662 14.314H193.1C192.268 14.314 191.618 14.47 191.15 14.782C190.7 15.094 190.474 15.5967 190.474 16.29C190.474 17.6247 191.332 18.292 193.048 18.292H196.662L196.09 19.098ZM203.602 25V11.012H210.752C212.503 11.012 213.872 11.3327 214.86 11.974C215.848 12.598 216.342 13.482 216.342 14.626C216.342 15.77 215.874 16.6713 214.938 17.33C214.02 17.9713 212.798 18.292 211.272 18.292L211.688 17.356C213.387 17.356 214.652 17.668 215.484 18.292C216.334 18.916 216.758 19.826 216.758 21.022C216.758 22.2527 216.29 23.2233 215.354 23.934C214.418 24.6447 212.988 25 211.064 25H203.602ZM207.32 22.244H210.726C211.472 22.244 212.026 22.1227 212.39 21.88C212.772 21.62 212.962 21.23 212.962 20.71C212.962 20.1727 212.789 19.7827 212.442 19.54C212.096 19.28 211.55 19.15 210.804 19.15H207.32V22.244ZM207.32 16.758H210.388C211.099 16.758 211.628 16.628 211.974 16.368C212.338 16.108 212.52 15.7353 212.52 15.25C212.52 14.7473 212.338 14.3747 211.974 14.132C211.628 13.8893 211.099 13.768 210.388 13.768H207.32V16.758ZM229.682 25L225.002 18.37L228.304 16.42L234.466 25H229.682ZM219.776 25V11.012H223.832V25H219.776ZM222.636 19.696V16.446H227.524V19.696H222.636ZM228.694 18.474L224.898 18.058L229.812 11.012H234.128L228.694 18.474ZM237.569 30.252C236.841 30.252 236.121 30.1393 235.411 29.914C234.7 29.6887 234.119 29.3767 233.669 28.978L235.151 26.092C235.463 26.3693 235.818 26.586 236.217 26.742C236.633 26.898 237.04 26.976 237.439 26.976C238.011 26.976 238.461 26.8373 238.791 26.56C239.137 26.3 239.449 25.858 239.727 25.234L240.455 23.518L240.767 23.076L245.785 11.012H249.685L243.367 25.858C242.916 26.9847 242.396 27.8687 241.807 28.51C241.235 29.1513 240.593 29.602 239.883 29.862C239.189 30.122 238.418 30.252 237.569 30.252ZM239.961 25.546L233.721 11.012H237.907L242.743 22.712L239.961 25.546ZM259.005 25V11.012H263.035V16.472H269.119V11.012H273.175V25H269.119V19.774H263.035V25H259.005ZM285.429 25V22.27L285.169 21.672V16.784C285.169 15.9173 284.901 15.2413 284.363 14.756C283.843 14.2707 283.037 14.028 281.945 14.028C281.2 14.028 280.463 14.1493 279.735 14.392C279.025 14.6173 278.418 14.9293 277.915 15.328L276.459 12.494C277.222 11.9567 278.141 11.5407 279.215 11.246C280.29 10.9513 281.382 10.804 282.491 10.804C284.623 10.804 286.279 11.3067 287.457 12.312C288.636 13.3173 289.225 14.886 289.225 17.018V25H285.429ZM281.165 25.208C280.073 25.208 279.137 25.026 278.357 24.662C277.577 24.2807 276.979 23.7693 276.563 23.128C276.147 22.4867 275.939 21.7673 275.939 20.97C275.939 20.138 276.139 19.41 276.537 18.786C276.953 18.162 277.603 17.6767 278.487 17.33C279.371 16.966 280.524 16.784 281.945 16.784H285.663V19.15H282.387C281.434 19.15 280.775 19.306 280.411 19.618C280.065 19.93 279.891 20.32 279.891 20.788C279.891 21.308 280.091 21.724 280.489 22.036C280.905 22.3307 281.469 22.478 282.179 22.478C282.855 22.478 283.462 22.322 283.999 22.01C284.537 21.6807 284.927 21.204 285.169 20.58L285.793 22.452C285.499 23.3533 284.961 24.038 284.181 24.506C283.401 24.974 282.396 25.208 281.165 25.208ZM300.112 25V11.012H314.022V25H309.966V13.43L310.876 14.34H303.232L304.142 13.43V25H300.112ZM324.463 25.208C322.972 25.208 321.646 24.896 320.485 24.272C319.341 23.648 318.431 22.7987 317.755 21.724C317.096 20.632 316.767 19.3927 316.767 18.006C316.767 16.602 317.096 15.3627 317.755 14.288C318.431 13.196 319.341 12.3467 320.485 11.74C321.646 11.116 322.972 10.804 324.463 10.804C325.936 10.804 327.254 11.116 328.415 11.74C329.576 12.3467 330.486 13.1873 331.145 14.262C331.804 15.3367 332.133 16.5847 332.133 18.006C332.133 19.3927 331.804 20.632 331.145 21.724C330.486 22.7987 329.576 23.648 328.415 24.272C327.254 24.896 325.936 25.208 324.463 25.208ZM324.463 21.88C325.139 21.88 325.746 21.724 326.283 21.412C326.82 21.1 327.245 20.658 327.557 20.086C327.869 19.4967 328.025 18.8033 328.025 18.006C328.025 17.1913 327.869 16.498 327.557 15.926C327.245 15.354 326.82 14.912 326.283 14.6C325.746 14.288 325.139 14.132 324.463 14.132C323.787 14.132 323.18 14.288 322.643 14.6C322.106 14.912 321.672 15.354 321.343 15.926C321.031 16.498 320.875 17.1913 320.875 18.006C320.875 18.8033 321.031 19.4967 321.343 20.086C321.672 20.658 322.106 21.1 322.643 21.412C323.18 21.724 323.787 21.88 324.463 21.88ZM344.34 23.18V14.34H339.764L339.686 16.134C339.651 16.8793 339.608 17.59 339.556 18.266C339.504 18.942 339.4 19.5573 339.244 20.112C339.105 20.6493 338.897 21.1087 338.62 21.49C338.342 21.854 337.97 22.1053 337.502 22.244L333.498 21.672C334 21.672 334.408 21.5247 334.72 21.23C335.032 20.918 335.274 20.4933 335.448 19.956C335.621 19.4013 335.751 18.7773 335.838 18.084C335.924 17.3733 335.985 16.628 336.02 15.848L336.202 11.012H348.396V23.18H344.34ZM333.03 28.016V21.672H350.398V28.016H346.628V25H336.8V28.016H333.03ZM359.892 25.312C358.748 25.312 357.708 25.1473 356.772 24.818C355.836 24.4713 355.021 23.9427 354.328 23.232C353.652 22.504 353.123 21.5767 352.742 20.45C352.378 19.3233 352.196 17.98 352.196 16.42C352.196 15.3107 352.291 14.2967 352.482 13.378C352.673 12.4593 352.959 11.6273 353.34 10.882C353.721 10.1193 354.207 9.452 354.796 8.88C355.403 8.29067 356.105 7.80533 356.902 7.424C357.717 7.02533 358.635 6.722 359.658 6.514L366.314 5.188L366.86 8.672L360.984 9.842C360.637 9.91133 360.239 10.0067 359.788 10.128C359.355 10.232 358.913 10.3967 358.462 10.622C358.029 10.8473 357.621 11.168 357.24 11.584C356.876 11.9827 356.581 12.5113 356.356 13.17C356.131 13.8113 356.018 14.6087 356.018 15.562C356.018 15.8567 356.027 16.082 356.044 16.238C356.079 16.394 356.105 16.5587 356.122 16.732C356.157 16.9053 356.174 17.174 356.174 17.538L354.874 16.264C355.255 15.4493 355.741 14.756 356.33 14.184C356.937 13.612 357.63 13.1787 358.41 12.884C359.207 12.572 360.091 12.416 361.062 12.416C362.379 12.416 363.532 12.6847 364.52 13.222C365.525 13.742 366.305 14.4787 366.86 15.432C367.415 16.3853 367.692 17.4687 367.692 18.682C367.692 19.9993 367.363 21.1607 366.704 22.166C366.045 23.154 365.127 23.9253 363.948 24.48C362.787 25.0347 361.435 25.312 359.892 25.312ZM360.1 22.166C360.776 22.166 361.374 22.0187 361.894 21.724C362.414 21.412 362.813 21.0047 363.09 20.502C363.385 19.982 363.532 19.4013 363.532 18.76C363.532 18.136 363.385 17.5813 363.09 17.096C362.813 16.6107 362.414 16.2293 361.894 15.952C361.374 15.6747 360.767 15.536 360.074 15.536C359.398 15.536 358.791 15.6747 358.254 15.952C357.717 16.212 357.301 16.576 357.006 17.044C356.711 17.512 356.564 18.058 356.564 18.682C356.564 19.3233 356.711 19.9127 357.006 20.45C357.318 20.97 357.734 21.386 358.254 21.698C358.791 22.01 359.407 22.166 360.1 22.166ZM376.996 25.208C375.505 25.208 374.179 24.896 373.018 24.272C371.874 23.648 370.964 22.7987 370.288 21.724C369.629 20.632 369.3 19.3927 369.3 18.006C369.3 16.602 369.629 15.3627 370.288 14.288C370.964 13.196 371.874 12.3467 373.018 11.74C374.179 11.116 375.505 10.804 376.996 10.804C378.469 10.804 379.787 11.116 380.948 11.74C382.109 12.3467 383.019 13.1873 383.678 14.262C384.337 15.3367 384.666 16.5847 384.666 18.006C384.666 19.3927 384.337 20.632 383.678 21.724C383.019 22.7987 382.109 23.648 380.948 24.272C379.787 24.896 378.469 25.208 376.996 25.208ZM376.996 21.88C377.672 21.88 378.279 21.724 378.816 21.412C379.353 21.1 379.778 20.658 380.09 20.086C380.402 19.4967 380.558 18.8033 380.558 18.006C380.558 17.1913 380.402 16.498 380.09 15.926C379.778 15.354 379.353 14.912 378.816 14.6C378.279 14.288 377.672 14.132 376.996 14.132C376.32 14.132 375.713 14.288 375.176 14.6C374.639 14.912 374.205 15.354 373.876 15.926C373.564 16.498 373.408 17.1913 373.408 18.006C373.408 18.8033 373.564 19.4967 373.876 20.086C374.205 20.658 374.639 21.1 375.176 21.412C375.713 21.724 376.32 21.88 376.996 21.88ZM395.698 25.208C394.519 25.208 393.488 24.948 392.604 24.428C391.72 23.908 391.027 23.1193 390.524 22.062C390.039 20.9873 389.796 19.6353 389.796 18.006C389.796 16.3593 390.03 15.0073 390.498 13.95C390.966 12.8927 391.642 12.104 392.526 11.584C393.41 11.064 394.467 10.804 395.698 10.804C397.015 10.804 398.194 11.1073 399.234 11.714C400.291 12.3033 401.123 13.1353 401.73 14.21C402.354 15.2847 402.666 16.55 402.666 18.006C402.666 19.4793 402.354 20.7533 401.73 21.828C401.123 22.9027 400.291 23.7347 399.234 24.324C398.194 24.9133 397.015 25.208 395.698 25.208ZM387.43 30.044V11.012H391.304V13.872L391.226 18.032L391.486 22.166V30.044H387.43ZM394.996 21.88C395.672 21.88 396.27 21.724 396.79 21.412C397.327 21.1 397.752 20.658 398.064 20.086C398.393 19.4967 398.558 18.8033 398.558 18.006C398.558 17.1913 398.393 16.498 398.064 15.926C397.752 15.354 397.327 14.912 396.79 14.6C396.27 14.288 395.672 14.132 394.996 14.132C394.32 14.132 393.713 14.288 393.176 14.6C392.639 14.912 392.214 15.354 391.902 15.926C391.59 16.498 391.434 17.1913 391.434 18.006C391.434 18.8033 391.59 19.4967 391.902 20.086C392.214 20.658 392.639 21.1 393.176 21.412C393.713 21.724 394.32 21.88 394.996 21.88ZM421.244 25V22.27L420.984 21.672V16.784C420.984 15.9173 420.715 15.2413 420.178 14.756C419.658 14.2707 418.852 14.028 417.76 14.028C417.015 14.028 416.278 14.1493 415.55 14.392C414.839 14.6173 414.233 14.9293 413.73 15.328L412.274 12.494C413.037 11.9567 413.955 11.5407 415.03 11.246C416.105 10.9513 417.197 10.804 418.306 10.804C420.438 10.804 422.093 11.3067 423.272 12.312C424.451 13.3173 425.04 14.886 425.04 17.018V25H421.244ZM416.98 25.208C415.888 25.208 414.952 25.026 414.172 24.662C413.392 24.2807 412.794 23.7693 412.378 23.128C411.962 22.4867 411.754 21.7673 411.754 20.97C411.754 20.138 411.953 19.41 412.352 18.786C412.768 18.162 413.418 17.6767 414.302 17.33C415.186 16.966 416.339 16.784 417.76 16.784H421.478V19.15H418.202C417.249 19.15 416.59 19.306 416.226 19.618C415.879 19.93 415.706 20.32 415.706 20.788C415.706 21.308 415.905 21.724 416.304 22.036C416.72 22.3307 417.283 22.478 417.994 22.478C418.67 22.478 419.277 22.322 419.814 22.01C420.351 21.6807 420.741 21.204 420.984 20.58L421.608 22.452C421.313 23.3533 420.776 24.038 419.996 24.506C419.216 24.974 418.211 25.208 416.98 25.208ZM428.563 25V11.012H435.713C437.464 11.012 438.833 11.3327 439.821 11.974C440.809 12.598 441.303 13.482 441.303 14.626C441.303 15.77 440.835 16.6713 439.899 17.33C438.981 17.9713 437.759 18.292 436.233 18.292L436.649 17.356C438.348 17.356 439.613 17.668 440.445 18.292C441.295 18.916 441.719 19.826 441.719 21.022C441.719 22.2527 441.251 23.2233 440.315 23.934C439.379 24.6447 437.949 25 436.025 25H428.563ZM432.281 22.244H435.687C436.433 22.244 436.987 22.1227 437.351 21.88C437.733 21.62 437.923 21.23 437.923 20.71C437.923 20.1727 437.75 19.7827 437.403 19.54C437.057 19.28 436.511 19.15 435.765 19.15H432.281V22.244ZM432.281 16.758H435.349C436.06 16.758 436.589 16.628 436.935 16.368C437.299 16.108 437.481 15.7353 437.481 15.25C437.481 14.7473 437.299 14.3747 436.935 14.132C436.589 13.8893 436.06 13.768 435.349 13.768H432.281V16.758ZM447.727 25V13.404L448.637 14.34H442.995V11.012H456.489V14.34H450.847L451.757 13.404V25H447.727ZM464.619 25.208C463.129 25.208 461.803 24.896 460.641 24.272C459.497 23.648 458.587 22.7987 457.911 21.724C457.253 20.632 456.923 19.3927 456.923 18.006C456.923 16.602 457.253 15.3627 457.911 14.288C458.587 13.196 459.497 12.3467 460.641 11.74C461.803 11.116 463.129 10.804 464.619 10.804C466.093 10.804 467.41 11.116 468.571 11.74C469.733 12.3467 470.643 13.1873 471.301 14.262C471.96 15.3367 472.289 16.5847 472.289 18.006C472.289 19.3927 471.96 20.632 471.301 21.724C470.643 22.7987 469.733 23.648 468.571 24.272C467.41 24.896 466.093 25.208 464.619 25.208ZM464.619 21.88C465.295 21.88 465.902 21.724 466.439 21.412C466.977 21.1 467.401 20.658 467.713 20.086C468.025 19.4967 468.181 18.8033 468.181 18.006C468.181 17.1913 468.025 16.498 467.713 15.926C467.401 15.354 466.977 14.912 466.439 14.6C465.902 14.288 465.295 14.132 464.619 14.132C463.943 14.132 463.337 14.288 462.799 14.6C462.262 14.912 461.829 15.354 461.499 15.926C461.187 16.498 461.031 17.1913 461.031 18.006C461.031 18.8033 461.187 19.4967 461.499 20.086C461.829 20.658 462.262 21.1 462.799 21.412C463.337 21.724 463.943 21.88 464.619 21.88ZM483.893 19.644C483.321 19.956 482.688 20.2073 481.995 20.398C481.302 20.5887 480.539 20.684 479.707 20.684C477.87 20.684 476.457 20.268 475.469 19.436C474.481 18.5867 473.987 17.2433 473.987 15.406V11.012H478.043V15.146C478.043 16.0127 478.268 16.6367 478.719 17.018C479.17 17.382 479.802 17.564 480.617 17.564C481.206 17.564 481.77 17.4947 482.307 17.356C482.862 17.2173 483.39 17.018 483.893 16.758V19.644ZM483.607 25V11.012H487.663V25H483.607ZM498.395 25.208C496.801 25.208 495.397 24.896 494.183 24.272C492.987 23.648 492.06 22.7987 491.401 21.724C490.743 20.632 490.413 19.3927 490.413 18.006C490.413 16.602 490.734 15.3627 491.375 14.288C492.034 13.196 492.927 12.3467 494.053 11.74C495.18 11.116 496.454 10.804 497.875 10.804C499.245 10.804 500.475 11.0987 501.567 11.688C502.677 12.26 503.552 13.092 504.193 14.184C504.835 15.2587 505.155 16.55 505.155 18.058C505.155 18.214 505.147 18.396 505.129 18.604C505.112 18.7947 505.095 18.9767 505.077 19.15H493.715V16.784H502.945L501.385 17.486C501.385 16.758 501.238 16.1253 500.943 15.588C500.649 15.0507 500.241 14.6347 499.721 14.34C499.201 14.028 498.595 13.872 497.901 13.872C497.208 13.872 496.593 14.028 496.055 14.34C495.535 14.6347 495.128 15.0593 494.833 15.614C494.539 16.1513 494.391 16.7927 494.391 17.538V18.162C494.391 18.9247 494.556 19.6007 494.885 20.19C495.232 20.762 495.709 21.204 496.315 21.516C496.939 21.8107 497.667 21.958 498.499 21.958C499.245 21.958 499.895 21.8453 500.449 21.62C501.021 21.3947 501.541 21.0567 502.009 20.606L504.167 22.946C503.526 23.674 502.72 24.2373 501.749 24.636C500.779 25.0173 499.661 25.208 498.395 25.208ZM506.012 25L512.278 16.784L512.2 19.02L506.194 11.012H510.744L514.54 16.238L512.824 16.29L516.75 11.012H521.066L515.034 18.942V16.758L521.274 25H516.672L512.694 19.436L514.384 19.67L510.432 25H506.012ZM521.502 24.974L521.71 21.646C521.814 21.6633 521.918 21.6807 522.022 21.698C522.126 21.698 522.222 21.698 522.308 21.698C522.794 21.698 523.175 21.5593 523.452 21.282C523.73 21.0047 523.938 20.632 524.076 20.164C524.215 19.6787 524.31 19.1327 524.362 18.526C524.432 17.9193 524.484 17.2867 524.518 16.628L524.726 11.012H536.686V25H532.63V13.352L533.54 14.34H527.404L528.262 13.3L528.08 16.81C528.028 18.058 527.924 19.202 527.768 20.242C527.63 21.282 527.396 22.1833 527.066 22.946C526.737 23.6913 526.295 24.272 525.74 24.688C525.186 25.0867 524.475 25.286 523.608 25.286C523.296 25.286 522.967 25.26 522.62 25.208C522.274 25.156 521.901 25.078 521.502 24.974ZM547.139 25.208C545.648 25.208 544.322 24.896 543.161 24.272C542.017 23.648 541.107 22.7987 540.431 21.724C539.772 20.632 539.443 19.3927 539.443 18.006C539.443 16.602 539.772 15.3627 540.431 14.288C541.107 13.196 542.017 12.3467 543.161 11.74C544.322 11.116 545.648 10.804 547.139 10.804C548.612 10.804 549.929 11.116 551.091 11.74C552.252 12.3467 553.162 13.1873 553.821 14.262C554.479 15.3367 554.809 16.5847 554.809 18.006C554.809 19.3927 554.479 20.632 553.821 21.724C553.162 22.7987 552.252 23.648 551.091 24.272C549.929 24.896 548.612 25.208 547.139 25.208ZM547.139 21.88C547.815 21.88 548.421 21.724 548.959 21.412C549.496 21.1 549.921 20.658 550.233 20.086C550.545 19.4967 550.701 18.8033 550.701 18.006C550.701 17.1913 550.545 16.498 550.233 15.926C549.921 15.354 549.496 14.912 548.959 14.6C548.421 14.288 547.815 14.132 547.139 14.132C546.463 14.132 545.856 14.288 545.319 14.6C544.781 14.912 544.348 15.354 544.019 15.926C543.707 16.498 543.551 17.1913 543.551 18.006C543.551 18.8033 543.707 19.4967 544.019 20.086C544.348 20.658 544.781 21.1 545.319 21.412C545.856 21.724 546.463 21.88 547.139 21.88ZM557.598 25V11.012H564.748C566.499 11.012 567.868 11.3327 568.856 11.974C569.844 12.598 570.338 13.482 570.338 14.626C570.338 15.77 569.87 16.6713 568.934 17.33C568.016 17.9713 566.794 18.292 565.268 18.292L565.684 17.356C567.383 17.356 568.648 17.668 569.48 18.292C570.33 18.916 570.754 19.826 570.754 21.022C570.754 22.2527 570.286 23.2233 569.35 23.934C568.414 24.6447 566.984 25 565.06 25H557.598ZM561.316 22.244H564.722C565.468 22.244 566.022 22.1227 566.386 21.88C566.768 21.62 566.958 21.23 566.958 20.71C566.958 20.1727 566.785 19.7827 566.438 19.54C566.092 19.28 565.546 19.15 564.8 19.15H561.316V22.244ZM561.316 16.758H564.384C565.095 16.758 565.624 16.628 565.97 16.368C566.334 16.108 566.516 15.7353 566.516 15.25C566.516 14.7473 566.334 14.3747 565.97 14.132C565.624 13.8893 565.095 13.768 564.384 13.768H561.316V16.758Z" fill="#141414"/>
</svg>
