<svg width="328" height="52" viewBox="0 0 328 52" fill="none" xmlns="http://www.w3.org/2000/svg">
<path d="M9.284 21.264C8.06667 21.264 6.93733 21.066 5.896 20.67C4.86933 20.274 3.97467 19.7167 3.212 18.998C2.464 18.2793 1.87733 17.436 1.452 16.468C1.04133 15.5 0.836 14.444 0.836 13.3C0.836 12.156 1.04133 11.1 1.452 10.132C1.87733 9.164 2.47133 8.32067 3.234 7.602C3.99667 6.88333 4.89133 6.326 5.918 5.93C6.94467 5.534 8.05933 5.336 9.262 5.336C10.4793 5.336 11.594 5.534 12.606 5.93C13.6327 6.326 14.52 6.88333 15.268 7.602C16.0307 8.32067 16.6247 9.164 17.05 10.132C17.4753 11.0853 17.688 12.1413 17.688 13.3C17.688 14.444 17.4753 15.5073 17.05 16.49C16.6247 17.458 16.0307 18.3013 15.268 19.02C14.52 19.724 13.6327 20.274 12.606 20.67C11.594 21.066 10.4867 21.264 9.284 21.264ZM9.262 18.228C9.95133 18.228 10.582 18.1107 11.154 17.876C11.7407 17.6413 12.254 17.304 12.694 16.864C13.134 16.424 13.4713 15.9033 13.706 15.302C13.9553 14.7007 14.08 14.0333 14.08 13.3C14.08 12.5667 13.9553 11.8993 13.706 11.298C13.4713 10.6967 13.134 10.176 12.694 9.736C12.2687 9.296 11.7627 8.95867 11.176 8.724C10.5893 8.48933 9.95133 8.372 9.262 8.372C8.57267 8.372 7.93467 8.48933 7.348 8.724C6.776 8.95867 6.27 9.296 5.83 9.736C5.39 10.176 5.04533 10.6967 4.796 11.298C4.56133 11.8993 4.444 12.5667 4.444 13.3C4.444 14.0187 4.56133 14.686 4.796 15.302C5.04533 15.9033 5.38267 16.424 5.808 16.864C6.248 17.304 6.76133 17.6413 7.348 17.876C7.93467 18.1107 8.57267 18.228 9.262 18.228ZM22.5706 21V11.188L23.3406 11.98H18.5666V9.164H29.9846V11.98H25.2106L25.9806 11.188V21H22.5706ZM31.8141 21V9.164H43.5841V21H40.1521V11.21L40.9221 11.98H34.4541L35.2241 11.21V21H31.8141ZM53.8486 21.176C52.8513 21.176 51.9786 20.956 51.2306 20.516C50.4826 20.076 49.8959 19.4087 49.4706 18.514C49.0599 17.6047 48.8546 16.4607 48.8546 15.082C48.8546 13.6887 49.0526 12.5447 49.4486 11.65C49.8446 10.7553 50.4166 10.088 51.1646 9.648C51.9126 9.208 52.8073 8.988 53.8486 8.988C54.9633 8.988 55.9606 9.24467 56.8406 9.758C57.7353 10.2567 58.4393 10.9607 58.9526 11.87C59.4806 12.7793 59.7446 13.85 59.7446 15.082C59.7446 16.3287 59.4806 17.4067 58.9526 18.316C58.4393 19.2253 57.7353 19.9293 56.8406 20.428C55.9606 20.9267 54.9633 21.176 53.8486 21.176ZM46.8526 25.268V9.164H50.1306V11.584L50.0646 15.104L50.2846 18.602V25.268H46.8526ZM53.2546 18.36C53.8266 18.36 54.3326 18.228 54.7726 17.964C55.2273 17.7 55.5866 17.326 55.8506 16.842C56.1293 16.3433 56.2686 15.7567 56.2686 15.082C56.2686 14.3927 56.1293 13.806 55.8506 13.322C55.5866 12.838 55.2273 12.464 54.7726 12.2C54.3326 11.936 53.8266 11.804 53.2546 11.804C52.6826 11.804 52.1693 11.936 51.7146 12.2C51.2599 12.464 50.9006 12.838 50.6366 13.322C50.3726 13.806 50.2406 14.3927 50.2406 15.082C50.2406 15.7567 50.3726 16.3433 50.6366 16.842C50.9006 17.326 51.2599 17.7 51.7146 17.964C52.1693 18.228 52.6826 18.36 53.2546 18.36ZM69.0406 21V18.69L68.8206 18.184V14.048C68.8206 13.3147 68.5933 12.7427 68.1386 12.332C67.6986 11.9213 67.0166 11.716 66.0926 11.716C65.462 11.716 64.8386 11.8187 64.2226 12.024C63.6213 12.2147 63.108 12.4787 62.6826 12.816L61.4506 10.418C62.096 9.96333 62.8733 9.61133 63.7826 9.362C64.692 9.11267 65.616 8.988 66.5546 8.988C68.3586 8.988 69.7593 9.41333 70.7566 10.264C71.754 11.1147 72.2526 12.442 72.2526 14.246V21H69.0406ZM65.4326 21.176C64.5086 21.176 63.7166 21.022 63.0566 20.714C62.3966 20.3913 61.8906 19.9587 61.5386 19.416C61.1866 18.8733 61.0106 18.2647 61.0106 17.59C61.0106 16.886 61.1793 16.27 61.5166 15.742C61.8686 15.214 62.4186 14.8033 63.1666 14.51C63.9146 14.202 64.89 14.048 66.0926 14.048H69.2386V16.05H66.4666C65.66 16.05 65.1026 16.182 64.7946 16.446C64.5013 16.71 64.3546 17.04 64.3546 17.436C64.3546 17.876 64.5233 18.228 64.8606 18.492C65.2126 18.7413 65.6893 18.866 66.2906 18.866C66.8626 18.866 67.376 18.734 67.8306 18.47C68.2853 18.1913 68.6153 17.788 68.8206 17.26L69.3486 18.844C69.0993 19.6067 68.6446 20.186 67.9846 20.582C67.3246 20.978 66.474 21.176 65.4326 21.176ZM75.234 21V9.164H81.284C82.7653 9.164 83.924 9.43533 84.76 9.978C85.596 10.506 86.014 11.254 86.014 12.222C86.014 13.19 85.618 13.9527 84.826 14.51C84.0487 15.0527 83.0147 15.324 81.724 15.324L82.076 14.532C83.5133 14.532 84.584 14.796 85.288 15.324C86.0067 15.852 86.366 16.622 86.366 17.634C86.366 18.6753 85.97 19.4967 85.178 20.098C84.386 20.6993 83.176 21 81.548 21H75.234ZM78.38 18.668H81.262C81.8927 18.668 82.362 18.5653 82.67 18.36C82.9927 18.14 83.154 17.81 83.154 17.37C83.154 16.9153 83.0073 16.5853 82.714 16.38C82.4207 16.16 81.9587 16.05 81.328 16.05H78.38V18.668ZM78.38 14.026H80.976C81.5773 14.026 82.0247 13.916 82.318 13.696C82.626 13.476 82.78 13.1607 82.78 12.75C82.78 12.3247 82.626 12.0093 82.318 11.804C82.0247 11.5987 81.5773 11.496 80.976 11.496H78.38V14.026ZM95.3215 12.948C96.8762 12.9627 98.0569 13.3147 98.8635 14.004C99.6849 14.6787 100.096 15.6393 100.096 16.886C100.096 18.1913 99.6335 19.2107 98.7095 19.944C97.7855 20.6627 96.5022 21.022 94.8595 21.022L88.9195 21V9.164H92.3295V12.948H95.3215ZM94.5515 18.58C95.2115 18.5947 95.7175 18.4553 96.0695 18.162C96.4215 17.8687 96.5975 17.4287 96.5975 16.842C96.5975 16.2553 96.4215 15.8373 96.0695 15.588C95.7175 15.324 95.2115 15.1847 94.5515 15.17L92.3295 15.148V18.58H94.5515ZM103.717 21V11.188L104.487 11.98H99.7131V9.164H111.131V11.98H106.357L107.127 11.188V21H103.717ZM118.252 21.176C116.903 21.176 115.715 20.912 114.688 20.384C113.676 19.856 112.892 19.1373 112.334 18.228C111.777 17.304 111.498 16.2553 111.498 15.082C111.498 13.894 111.77 12.8453 112.312 11.936C112.87 11.012 113.625 10.2933 114.578 9.78C115.532 9.252 116.61 8.988 117.812 8.988C118.971 8.988 120.012 9.23733 120.936 9.736C121.875 10.22 122.616 10.924 123.158 11.848C123.701 12.7573 123.972 13.85 123.972 15.126C123.972 15.258 123.965 15.412 123.95 15.588C123.936 15.7493 123.921 15.9033 123.906 16.05H114.292V14.048H122.102L120.782 14.642C120.782 14.026 120.658 13.4907 120.408 13.036C120.159 12.5813 119.814 12.2293 119.374 11.98C118.934 11.716 118.421 11.584 117.834 11.584C117.248 11.584 116.727 11.716 116.272 11.98C115.832 12.2293 115.488 12.5887 115.238 13.058C114.989 13.5127 114.864 14.0553 114.864 14.686V15.214C114.864 15.8593 115.004 16.4313 115.282 16.93C115.576 17.414 115.979 17.788 116.492 18.052C117.02 18.3013 117.636 18.426 118.34 18.426C118.971 18.426 119.521 18.3307 119.99 18.14C120.474 17.9493 120.914 17.6633 121.31 17.282L123.136 19.262C122.594 19.878 121.912 20.3547 121.09 20.692C120.269 21.0147 119.323 21.176 118.252 21.176ZM136.838 21.22C135.928 21.22 135.019 21.1247 134.11 20.934C133.215 20.7433 132.386 20.4573 131.624 20.076L132.548 17.678C133.149 17.9713 133.802 18.1987 134.506 18.36C135.224 18.5067 135.95 18.58 136.684 18.58C137.212 18.58 137.666 18.5287 138.048 18.426C138.444 18.3087 138.744 18.1473 138.95 17.942C139.155 17.7367 139.258 17.4873 139.258 17.194C139.258 16.8127 139.096 16.5267 138.774 16.336C138.451 16.1307 137.982 16.028 137.366 16.028H134.946V13.894H137.08C137.476 13.894 137.813 13.85 138.092 13.762C138.37 13.674 138.576 13.5493 138.708 13.388C138.854 13.212 138.928 13.0067 138.928 12.772C138.928 12.5227 138.84 12.31 138.664 12.134C138.488 11.958 138.231 11.826 137.894 11.738C137.556 11.6353 137.131 11.584 136.618 11.584C136.031 11.584 135.422 11.6573 134.792 11.804C134.161 11.936 133.516 12.134 132.856 12.398L132.02 10.022C132.797 9.69933 133.567 9.44267 134.33 9.252C135.092 9.06133 135.848 8.95867 136.596 8.944C137.696 8.91467 138.686 9.032 139.566 9.296C140.446 9.56 141.135 9.94133 141.634 10.44C142.147 10.9387 142.404 11.5473 142.404 12.266C142.404 12.838 142.228 13.3513 141.876 13.806C141.538 14.2607 141.069 14.62 140.468 14.884C139.866 15.1333 139.192 15.258 138.444 15.258L138.532 14.576C139.837 14.576 140.864 14.84 141.612 15.368C142.36 15.8813 142.734 16.5853 142.734 17.48C142.734 18.2427 142.47 18.91 141.942 19.482C141.428 20.0393 140.724 20.472 139.83 20.78C138.95 21.0733 137.952 21.22 136.838 21.22ZM152.271 21V18.69L152.051 18.184V14.048C152.051 13.3147 151.824 12.7427 151.369 12.332C150.929 11.9213 150.247 11.716 149.323 11.716C148.692 11.716 148.069 11.8187 147.453 12.024C146.852 12.2147 146.338 12.4787 145.913 12.816L144.681 10.418C145.326 9.96333 146.104 9.61133 147.013 9.362C147.922 9.11267 148.846 8.988 149.785 8.988C151.589 8.988 152.99 9.41333 153.987 10.264C154.984 11.1147 155.483 12.442 155.483 14.246V21H152.271ZM148.663 21.176C147.739 21.176 146.947 21.022 146.287 20.714C145.627 20.3913 145.121 19.9587 144.769 19.416C144.417 18.8733 144.241 18.2647 144.241 17.59C144.241 16.886 144.41 16.27 144.747 15.742C145.099 15.214 145.649 14.8033 146.397 14.51C147.145 14.202 148.12 14.048 149.323 14.048H152.469V16.05H149.697C148.89 16.05 148.333 16.182 148.025 16.446C147.732 16.71 147.585 17.04 147.585 17.436C147.585 17.876 147.754 18.228 148.091 18.492C148.443 18.7413 148.92 18.866 149.521 18.866C150.093 18.866 150.606 18.734 151.061 18.47C151.516 18.1913 151.846 17.788 152.051 17.26L152.579 18.844C152.33 19.6067 151.875 20.186 151.215 20.582C150.555 20.978 149.704 21.176 148.663 21.176ZM165.922 21V17.062L166.406 17.612H163.128C161.427 17.612 160.092 17.26 159.124 16.556C158.156 15.852 157.672 14.84 157.672 13.52C157.672 12.112 158.178 11.034 159.19 10.286C160.217 9.538 161.596 9.164 163.326 9.164H168.98V21H165.922ZM157.496 21L160.642 16.49H164.14L161.148 21H157.496ZM165.922 16.006V11.078L166.406 11.958H163.392C162.688 11.958 162.138 12.09 161.742 12.354C161.361 12.618 161.17 13.0433 161.17 13.63C161.17 14.7593 161.896 15.324 163.348 15.324H166.406L165.922 16.006ZM172.279 21V9.164H178.329C179.81 9.164 180.969 9.43533 181.805 9.978C182.641 10.506 183.059 11.254 183.059 12.222C183.059 13.19 182.663 13.9527 181.871 14.51C181.094 15.0527 180.06 15.324 178.769 15.324L179.121 14.532C180.558 14.532 181.629 14.796 182.333 15.324C183.052 15.852 183.411 16.622 183.411 17.634C183.411 18.6753 183.015 19.4967 182.223 20.098C181.431 20.6993 180.221 21 178.593 21H172.279ZM175.425 18.668H178.307C178.938 18.668 179.407 18.5653 179.715 18.36C180.038 18.14 180.199 17.81 180.199 17.37C180.199 16.9153 180.052 16.5853 179.759 16.38C179.466 16.16 179.004 16.05 178.373 16.05H175.425V18.668ZM175.425 14.026H178.021C178.622 14.026 179.07 13.916 179.363 13.696C179.671 13.476 179.825 13.1607 179.825 12.75C179.825 12.3247 179.671 12.0093 179.363 11.804C179.07 11.5987 178.622 11.496 178.021 11.496H175.425V14.026ZM194.346 21L190.386 15.39L193.18 13.74L198.394 21H194.346ZM185.964 21V9.164H189.396V21H185.964ZM188.384 16.512V13.762H192.52V16.512H188.384ZM193.51 15.478L190.298 15.126L194.456 9.164H198.108L193.51 15.478ZM201.02 25.444C200.404 25.444 199.795 25.3487 199.194 25.158C198.592 24.9673 198.101 24.7033 197.72 24.366L198.974 21.924C199.238 22.1587 199.538 22.342 199.876 22.474C200.228 22.606 200.572 22.672 200.91 22.672C201.394 22.672 201.775 22.5547 202.054 22.32C202.347 22.1 202.611 21.726 202.846 21.198L203.462 19.746L203.726 19.372L207.972 9.164H211.272L205.926 21.726C205.544 22.6793 205.104 23.4273 204.606 23.97C204.122 24.5127 203.579 24.894 202.978 25.114C202.391 25.334 201.738 25.444 201.02 25.444ZM203.044 21.462L197.764 9.164H201.306L205.398 19.064L203.044 21.462ZM219.158 21V9.164H222.568V13.784H227.716V9.164H231.148V21H227.716V16.578H222.568V21H219.158ZM241.517 21V18.69L241.297 18.184V14.048C241.297 13.3147 241.07 12.7427 240.615 12.332C240.175 11.9213 239.493 11.716 238.569 11.716C237.939 11.716 237.315 11.8187 236.699 12.024C236.098 12.2147 235.585 12.4787 235.159 12.816L233.927 10.418C234.573 9.96333 235.35 9.61133 236.259 9.362C237.169 9.11267 238.093 8.988 239.031 8.988C240.835 8.988 242.236 9.41333 243.233 10.264C244.231 11.1147 244.729 12.442 244.729 14.246V21H241.517ZM237.909 21.176C236.985 21.176 236.193 21.022 235.533 20.714C234.873 20.3913 234.367 19.9587 234.015 19.416C233.663 18.8733 233.487 18.2647 233.487 17.59C233.487 16.886 233.656 16.27 233.993 15.742C234.345 15.214 234.895 14.8033 235.643 14.51C236.391 14.202 237.367 14.048 238.569 14.048H241.715V16.05H238.943C238.137 16.05 237.579 16.182 237.271 16.446C236.978 16.71 236.831 17.04 236.831 17.436C236.831 17.876 237 18.228 237.337 18.492C237.689 18.7413 238.166 18.866 238.767 18.866C239.339 18.866 239.853 18.734 240.307 18.47C240.762 18.1913 241.092 17.788 241.297 17.26L241.825 18.844C241.576 19.6067 241.121 20.186 240.461 20.582C239.801 20.978 238.951 21.176 237.909 21.176ZM1.65 47V35.164H13.42V47H9.988V37.21L10.758 37.98H4.29L5.06 37.21V47H1.65ZM22.2545 47.176C20.9932 47.176 19.8712 46.912 18.8885 46.384C17.9205 45.856 17.1505 45.1373 16.5785 44.228C16.0212 43.304 15.7425 42.2553 15.7425 41.082C15.7425 39.894 16.0212 38.8453 16.5785 37.936C17.1505 37.012 17.9205 36.2933 18.8885 35.78C19.8712 35.252 20.9932 34.988 22.2545 34.988C23.5012 34.988 24.6159 35.252 25.5985 35.78C26.5812 36.2933 27.3512 37.0047 27.9085 37.914C28.4659 38.8233 28.7445 39.8793 28.7445 41.082C28.7445 42.2553 28.4659 43.304 27.9085 44.228C27.3512 45.1373 26.5812 45.856 25.5985 46.384C24.6159 46.912 23.5012 47.176 22.2545 47.176ZM22.2545 44.36C22.8265 44.36 23.3399 44.228 23.7945 43.964C24.2492 43.7 24.6085 43.326 24.8725 42.842C25.1365 42.3433 25.2685 41.7567 25.2685 41.082C25.2685 40.3927 25.1365 39.806 24.8725 39.322C24.6085 38.838 24.2492 38.464 23.7945 38.2C23.3399 37.936 22.8265 37.804 22.2545 37.804C21.6825 37.804 21.1692 37.936 20.7145 38.2C20.2599 38.464 19.8932 38.838 19.6145 39.322C19.3505 39.806 19.2185 40.3927 19.2185 41.082C19.2185 41.7567 19.3505 42.3433 19.6145 42.842C19.8932 43.326 20.2599 43.7 20.7145 43.964C21.1692 44.228 21.6825 44.36 22.2545 44.36ZM39.0732 45.46V37.98H35.2012L35.1352 39.498C35.1059 40.1287 35.0692 40.73 35.0252 41.302C34.9812 41.874 34.8932 42.3947 34.7612 42.864C34.6439 43.3187 34.4679 43.7073 34.2332 44.03C33.9985 44.338 33.6832 44.5507 33.2872 44.668L29.8992 44.184C30.3245 44.184 30.6692 44.0593 30.9332 43.81C31.1972 43.546 31.4025 43.1867 31.5492 42.732C31.6959 42.2627 31.8059 41.7347 31.8792 41.148C31.9525 40.5467 32.0039 39.916 32.0332 39.256L32.1872 35.164H42.5052V45.46H39.0732ZM29.5032 49.552V44.184H44.1992V49.552H41.0092V47H32.6932V49.552H29.5032ZM52.233 47.264C51.265 47.264 50.385 47.1247 49.593 46.846C48.801 46.5527 48.1117 46.1053 47.525 45.504C46.953 44.888 46.5057 44.1033 46.183 43.15C45.875 42.1967 45.721 41.06 45.721 39.74C45.721 38.8013 45.8017 37.9433 45.963 37.166C46.1243 36.3887 46.3663 35.6847 46.689 35.054C47.0117 34.4087 47.4223 33.844 47.921 33.36C48.4343 32.8613 49.0283 32.4507 49.703 32.128C50.3923 31.7907 51.1697 31.534 52.035 31.358L57.667 30.236L58.129 33.184L53.157 34.174C52.8637 34.2327 52.5263 34.3133 52.145 34.416C51.7783 34.504 51.4043 34.6433 51.023 34.834C50.6563 35.0247 50.3117 35.296 49.989 35.648C49.681 35.9853 49.4317 36.4327 49.241 36.99C49.0503 37.5327 48.955 38.2073 48.955 39.014C48.955 39.2633 48.9623 39.454 48.977 39.586C49.0063 39.718 49.0283 39.8573 49.043 40.004C49.0723 40.1507 49.087 40.378 49.087 40.686L47.987 39.608C48.3097 38.9187 48.7203 38.332 49.219 37.848C49.7323 37.364 50.319 36.9973 50.979 36.748C51.6537 36.484 52.4017 36.352 53.223 36.352C54.3377 36.352 55.313 36.5793 56.149 37.034C56.9997 37.474 57.6597 38.0973 58.129 38.904C58.5983 39.7107 58.833 40.6273 58.833 41.654C58.833 42.7687 58.5543 43.7513 57.997 44.602C57.4397 45.438 56.6623 46.0907 55.665 46.56C54.6823 47.0293 53.5383 47.264 52.233 47.264ZM52.409 44.602C52.981 44.602 53.487 44.4773 53.927 44.228C54.367 43.964 54.7043 43.6193 54.939 43.194C55.1883 42.754 55.313 42.2627 55.313 41.72C55.313 41.192 55.1883 40.7227 54.939 40.312C54.7043 39.9013 54.367 39.5787 53.927 39.344C53.487 39.1093 52.9737 38.992 52.387 38.992C51.815 38.992 51.3017 39.1093 50.847 39.344C50.3923 39.564 50.0403 39.872 49.791 40.268C49.5417 40.664 49.417 41.126 49.417 41.654C49.417 42.1967 49.5417 42.6953 49.791 43.15C50.055 43.59 50.407 43.942 50.847 44.206C51.3017 44.47 51.8223 44.602 52.409 44.602ZM66.7057 47.176C65.4444 47.176 64.3224 46.912 63.3397 46.384C62.3717 45.856 61.6017 45.1373 61.0297 44.228C60.4724 43.304 60.1937 42.2553 60.1937 41.082C60.1937 39.894 60.4724 38.8453 61.0297 37.936C61.6017 37.012 62.3717 36.2933 63.3397 35.78C64.3224 35.252 65.4444 34.988 66.7057 34.988C67.9524 34.988 69.0671 35.252 70.0497 35.78C71.0324 36.2933 71.8024 37.0047 72.3597 37.914C72.9171 38.8233 73.1957 39.8793 73.1957 41.082C73.1957 42.2553 72.9171 43.304 72.3597 44.228C71.8024 45.1373 71.0324 45.856 70.0497 46.384C69.0671 46.912 67.9524 47.176 66.7057 47.176ZM66.7057 44.36C67.2777 44.36 67.7911 44.228 68.2457 43.964C68.7004 43.7 69.0597 43.326 69.3237 42.842C69.5877 42.3433 69.7197 41.7567 69.7197 41.082C69.7197 40.3927 69.5877 39.806 69.3237 39.322C69.0597 38.838 68.7004 38.464 68.2457 38.2C67.7911 37.936 67.2777 37.804 66.7057 37.804C66.1337 37.804 65.6204 37.936 65.1657 38.2C64.7111 38.464 64.3444 38.838 64.0657 39.322C63.8017 39.806 63.6697 40.3927 63.6697 41.082C63.6697 41.7567 63.8017 42.3433 64.0657 42.842C64.3444 43.326 64.7111 43.7 65.1657 43.964C65.6204 44.228 66.1337 44.36 66.7057 44.36ZM82.5303 47.176C81.5329 47.176 80.6603 46.956 79.9123 46.516C79.1643 46.076 78.5776 45.4087 78.1523 44.514C77.7416 43.6047 77.5363 42.4607 77.5363 41.082C77.5363 39.6887 77.7343 38.5447 78.1303 37.65C78.5263 36.7553 79.0983 36.088 79.8463 35.648C80.5943 35.208 81.4889 34.988 82.5303 34.988C83.6449 34.988 84.6423 35.2447 85.5222 35.758C86.4169 36.2567 87.1209 36.9607 87.6343 37.87C88.1623 38.7793 88.4263 39.85 88.4263 41.082C88.4263 42.3287 88.1623 43.4067 87.6343 44.316C87.1209 45.2253 86.4169 45.9293 85.5222 46.428C84.6423 46.9267 83.6449 47.176 82.5303 47.176ZM75.5343 51.268V35.164H78.8123V37.584L78.7463 41.104L78.9663 44.602V51.268H75.5343ZM81.9363 44.36C82.5083 44.36 83.0143 44.228 83.4543 43.964C83.9089 43.7 84.2683 43.326 84.5323 42.842C84.8109 42.3433 84.9503 41.7567 84.9503 41.082C84.9503 40.3927 84.8109 39.806 84.5323 39.322C84.2683 38.838 83.9089 38.464 83.4543 38.2C83.0143 37.936 82.5083 37.804 81.9363 37.804C81.3643 37.804 80.8509 37.936 80.3963 38.2C79.9416 38.464 79.5823 38.838 79.3183 39.322C79.0543 39.806 78.9223 40.3927 78.9223 41.082C78.9223 41.7567 79.0543 42.3433 79.3183 42.842C79.5823 43.326 79.9416 43.7 80.3963 43.964C80.8509 44.228 81.3643 44.36 81.9363 44.36ZM104.146 47V44.69L103.926 44.184V40.048C103.926 39.3147 103.699 38.7427 103.244 38.332C102.804 37.9213 102.122 37.716 101.198 37.716C100.567 37.716 99.9441 37.8187 99.3281 38.024C98.7268 38.2147 98.2134 38.4787 97.7881 38.816L96.5561 36.418C97.2014 35.9633 97.9788 35.6113 98.8881 35.362C99.7974 35.1127 100.721 34.988 101.66 34.988C103.464 34.988 104.865 35.4133 105.862 36.264C106.859 37.1147 107.358 38.442 107.358 40.246V47H104.146ZM100.538 47.176C99.6141 47.176 98.8221 47.022 98.1621 46.714C97.5021 46.3913 96.9961 45.9587 96.6441 45.416C96.2921 44.8733 96.1161 44.2647 96.1161 43.59C96.1161 42.886 96.2848 42.27 96.6221 41.742C96.9741 41.214 97.5241 40.8033 98.2721 40.51C99.0201 40.202 99.9954 40.048 101.198 40.048H104.344V42.05H101.572C100.765 42.05 100.208 42.182 99.9001 42.446C99.6068 42.71 99.4601 43.04 99.4601 43.436C99.4601 43.876 99.6288 44.228 99.9661 44.492C100.318 44.7413 100.795 44.866 101.396 44.866C101.968 44.866 102.481 44.734 102.936 44.47C103.391 44.1913 103.721 43.788 103.926 43.26L104.454 44.844C104.205 45.6067 103.75 46.186 103.09 46.582C102.43 46.978 101.579 47.176 100.538 47.176ZM110.339 47V35.164H116.389C117.871 35.164 119.029 35.4353 119.865 35.978C120.701 36.506 121.119 37.254 121.119 38.222C121.119 39.19 120.723 39.9527 119.931 40.51C119.154 41.0527 118.12 41.324 116.829 41.324L117.181 40.532C118.619 40.532 119.689 40.796 120.393 41.324C121.112 41.852 121.471 42.622 121.471 43.634C121.471 44.6753 121.075 45.4967 120.283 46.098C119.491 46.6993 118.281 47 116.653 47H110.339ZM113.485 44.668H116.367C116.998 44.668 117.467 44.5653 117.775 44.36C118.098 44.14 118.259 43.81 118.259 43.37C118.259 42.9153 118.113 42.5853 117.819 42.38C117.526 42.16 117.064 42.05 116.433 42.05H113.485V44.668ZM113.485 40.026H116.081C116.683 40.026 117.13 39.916 117.423 39.696C117.731 39.476 117.885 39.1607 117.885 38.75C117.885 38.3247 117.731 38.0093 117.423 37.804C117.13 37.5987 116.683 37.496 116.081 37.496H113.485V40.026ZM126.555 47V37.188L127.325 37.98H122.551V35.164H133.969V37.98H129.195L129.965 37.188V47H126.555ZM140.848 47.176C139.587 47.176 138.465 46.912 137.482 46.384C136.514 45.856 135.744 45.1373 135.172 44.228C134.615 43.304 134.336 42.2553 134.336 41.082C134.336 39.894 134.615 38.8453 135.172 37.936C135.744 37.012 136.514 36.2933 137.482 35.78C138.465 35.252 139.587 34.988 140.848 34.988C142.095 34.988 143.21 35.252 144.192 35.78C145.175 36.2933 145.945 37.0047 146.502 37.914C147.06 38.8233 147.338 39.8793 147.338 41.082C147.338 42.2553 147.06 43.304 146.502 44.228C145.945 45.1373 145.175 45.856 144.192 46.384C143.21 46.912 142.095 47.176 140.848 47.176ZM140.848 44.36C141.42 44.36 141.934 44.228 142.388 43.964C142.843 43.7 143.202 43.326 143.466 42.842C143.73 42.3433 143.862 41.7567 143.862 41.082C143.862 40.3927 143.73 39.806 143.466 39.322C143.202 38.838 142.843 38.464 142.388 38.2C141.934 37.936 141.42 37.804 140.848 37.804C140.276 37.804 139.763 37.936 139.308 38.2C138.854 38.464 138.487 38.838 138.208 39.322C137.944 39.806 137.812 40.3927 137.812 41.082C137.812 41.7567 137.944 42.3433 138.208 42.842C138.487 43.326 138.854 43.7 139.308 43.964C139.763 44.228 140.276 44.36 140.848 44.36ZM157.157 42.468C156.673 42.732 156.137 42.9447 155.551 43.106C154.964 43.2673 154.319 43.348 153.615 43.348C152.06 43.348 150.865 42.996 150.029 42.292C149.193 41.5733 148.775 40.4367 148.775 38.882V35.164H152.207V38.662C152.207 39.3953 152.397 39.9233 152.779 40.246C153.16 40.554 153.695 40.708 154.385 40.708C154.883 40.708 155.36 40.6493 155.815 40.532C156.284 40.4147 156.731 40.246 157.157 40.026V42.468ZM156.915 47V35.164H160.347V47H156.915ZM169.428 47.176C168.079 47.176 166.891 46.912 165.864 46.384C164.852 45.856 164.068 45.1373 163.51 44.228C162.953 43.304 162.674 42.2553 162.674 41.082C162.674 39.894 162.946 38.8453 163.488 37.936C164.046 37.012 164.801 36.2933 165.754 35.78C166.708 35.252 167.786 34.988 168.988 34.988C170.147 34.988 171.188 35.2373 172.112 35.736C173.051 36.22 173.792 36.924 174.334 37.848C174.877 38.7573 175.148 39.85 175.148 41.126C175.148 41.258 175.141 41.412 175.126 41.588C175.112 41.7493 175.097 41.9033 175.082 42.05H165.468V40.048H173.278L171.958 40.642C171.958 40.026 171.834 39.4907 171.584 39.036C171.335 38.5813 170.99 38.2293 170.55 37.98C170.11 37.716 169.597 37.584 169.01 37.584C168.424 37.584 167.903 37.716 167.448 37.98C167.008 38.2293 166.664 38.5887 166.414 39.058C166.165 39.5127 166.04 40.0553 166.04 40.686V41.214C166.04 41.8593 166.18 42.4313 166.458 42.93C166.752 43.414 167.155 43.788 167.668 44.052C168.196 44.3013 168.812 44.426 169.516 44.426C170.147 44.426 170.697 44.3307 171.166 44.14C171.65 43.9493 172.09 43.6633 172.486 43.282L174.312 45.262C173.77 45.878 173.088 46.3547 172.266 46.692C171.445 47.0147 170.499 47.176 169.428 47.176ZM175.873 47L181.175 40.048L181.109 41.94L176.027 35.164H179.877L183.089 39.586L181.637 39.63L184.959 35.164H188.611L183.507 41.874V40.026L188.787 47H184.893L181.527 42.292L182.957 42.49L179.613 47H175.873ZM188.98 46.978L189.156 44.162C189.244 44.1767 189.332 44.1913 189.42 44.206C189.508 44.206 189.589 44.206 189.662 44.206C190.073 44.206 190.396 44.0887 190.63 43.854C190.865 43.6193 191.041 43.304 191.158 42.908C191.276 42.4973 191.356 42.0353 191.4 41.522C191.459 41.0087 191.503 40.4733 191.532 39.916L191.708 35.164H201.828V47H198.396V37.144L199.166 37.98H193.974L194.7 37.1L194.546 40.07C194.502 41.126 194.414 42.094 194.282 42.974C194.165 43.854 193.967 44.6167 193.688 45.262C193.41 45.8927 193.036 46.384 192.566 46.736C192.097 47.0733 191.496 47.242 190.762 47.242C190.498 47.242 190.22 47.22 189.926 47.176C189.633 47.132 189.318 47.066 188.98 46.978ZM210.673 47.176C209.411 47.176 208.289 46.912 207.307 46.384C206.339 45.856 205.569 45.1373 204.997 44.228C204.439 43.304 204.161 42.2553 204.161 41.082C204.161 39.894 204.439 38.8453 204.997 37.936C205.569 37.012 206.339 36.2933 207.307 35.78C208.289 35.252 209.411 34.988 210.673 34.988C211.919 34.988 213.034 35.252 214.017 35.78C214.999 36.2933 215.769 37.0047 216.327 37.914C216.884 38.8233 217.163 39.8793 217.163 41.082C217.163 42.2553 216.884 43.304 216.327 44.228C215.769 45.1373 214.999 45.856 214.017 46.384C213.034 46.912 211.919 47.176 210.673 47.176ZM210.673 44.36C211.245 44.36 211.758 44.228 212.213 43.964C212.667 43.7 213.027 43.326 213.291 42.842C213.555 42.3433 213.687 41.7567 213.687 41.082C213.687 40.3927 213.555 39.806 213.291 39.322C213.027 38.838 212.667 38.464 212.213 38.2C211.758 37.936 211.245 37.804 210.673 37.804C210.101 37.804 209.587 37.936 209.133 38.2C208.678 38.464 208.311 38.838 208.033 39.322C207.769 39.806 207.637 40.3927 207.637 41.082C207.637 41.7567 207.769 42.3433 208.033 42.842C208.311 43.326 208.678 43.7 209.133 43.964C209.587 44.228 210.101 44.36 210.673 44.36ZM219.523 47V35.164H225.573C227.054 35.164 228.213 35.4353 229.049 35.978C229.885 36.506 230.303 37.254 230.303 38.222C230.303 39.19 229.907 39.9527 229.115 40.51C228.338 41.0527 227.304 41.324 226.013 41.324L226.365 40.532C227.802 40.532 228.873 40.796 229.577 41.324C230.296 41.852 230.655 42.622 230.655 43.634C230.655 44.6753 230.259 45.4967 229.467 46.098C228.675 46.6993 227.465 47 225.837 47H219.523ZM222.669 44.668H225.551C226.182 44.668 226.651 44.5653 226.959 44.36C227.282 44.14 227.443 43.81 227.443 43.37C227.443 42.9153 227.296 42.5853 227.003 42.38C226.71 42.16 226.248 42.05 225.617 42.05H222.669V44.668ZM222.669 40.026H225.265C225.866 40.026 226.314 39.916 226.607 39.696C226.915 39.476 227.069 39.1607 227.069 38.75C227.069 38.3247 226.915 38.0093 226.607 37.804C226.314 37.5987 225.866 37.496 225.265 37.496H222.669V40.026Z" fill="#141414"/>
</svg>
