<svg width="482" height="85" viewBox="0 0 482 85" fill="none" xmlns="http://www.w3.org/2000/svg">
<path d="M15.36 28.9605C13.1466 28.9605 11.0933 28.6005 9.19998 27.8805C7.33331 27.1605 5.70665 26.1471 4.31998 24.8405C2.95998 23.5338 1.89331 22.0005 1.11998 20.2405C0.373314 18.4805 -1.94311e-05 16.5605 -1.94311e-05 14.4805C-1.94311e-05 12.4005 0.373314 10.4805 1.11998 8.72047C1.89331 6.96047 2.97331 5.42713 4.35998 4.12047C5.74665 2.8138 7.37331 1.80047 9.23998 1.08047C11.1066 0.360468 13.1333 0.000468254 15.32 0.000468254C17.5333 0.000468254 19.56 0.360468 21.4 1.08047C23.2666 1.80047 24.88 2.8138 26.24 4.12047C27.6266 5.42713 28.7066 6.96047 29.48 8.72047C30.2533 10.4538 30.64 12.3738 30.64 14.4805C30.64 16.5605 30.2533 18.4938 29.48 20.2805C28.7066 22.0405 27.6266 23.5738 26.24 24.8805C24.88 26.1605 23.2666 27.1605 21.4 27.8805C19.56 28.6005 17.5466 28.9605 15.36 28.9605ZM15.32 23.4405C16.5733 23.4405 17.72 23.2271 18.76 22.8005C19.8266 22.3738 20.76 21.7605 21.56 20.9605C22.36 20.1605 22.9733 19.2138 23.4 18.1205C23.8533 17.0271 24.08 15.8138 24.08 14.4805C24.08 13.1471 23.8533 11.9338 23.4 10.8405C22.9733 9.74713 22.36 8.80047 21.56 8.00047C20.7866 7.20047 19.8666 6.58713 18.8 6.16047C17.7333 5.7338 16.5733 5.52047 15.32 5.52047C14.0666 5.52047 12.9066 5.7338 11.84 6.16047C10.8 6.58713 9.87998 7.20047 9.07998 8.00047C8.27998 8.80047 7.65331 9.74713 7.19998 10.8405C6.77331 11.9338 6.55998 13.1471 6.55998 14.4805C6.55998 15.7871 6.77331 17.0005 7.19998 18.1205C7.65331 19.2138 8.26665 20.1605 9.03998 20.9605C9.83998 21.7605 10.7733 22.3738 11.84 22.8005C12.9066 23.2271 14.0666 23.4405 15.32 23.4405ZM39.5175 28.4805V10.6405L40.9175 12.0805H32.2375V6.96047H52.9975V12.0805H44.3175L45.7175 10.6405V28.4805H39.5175ZM56.3237 28.4805V6.96047H77.7237V28.4805H71.4837V10.6805L72.8837 12.0805H61.1237L62.5237 10.6805V28.4805H56.3237ZM96.3865 28.8005C94.5732 28.8005 92.9865 28.4005 91.6265 27.6005C90.2665 26.8005 89.1999 25.5871 88.4265 23.9605C87.6799 22.3071 87.3065 20.2271 87.3065 17.7205C87.3065 15.1871 87.6665 13.1071 88.3865 11.4805C89.1065 9.8538 90.1465 8.64047 91.5065 7.84047C92.8665 7.04047 94.4932 6.64047 96.3865 6.64047C98.4132 6.64047 100.227 7.10713 101.827 8.04047C103.453 8.94713 104.733 10.2271 105.667 11.8805C106.627 13.5338 107.107 15.4805 107.107 17.7205C107.107 19.9871 106.627 21.9471 105.667 23.6005C104.733 25.2538 103.453 26.5338 101.827 27.4405C100.227 28.3471 98.4132 28.8005 96.3865 28.8005ZM83.6665 36.2405V6.96047H89.6265V11.3605L89.5065 17.7605L89.9065 24.1205V36.2405H83.6665ZM95.3065 23.6805C96.3465 23.6805 97.2665 23.4405 98.0665 22.9605C98.8932 22.4805 99.5465 21.8005 100.027 20.9205C100.533 20.0138 100.787 18.9471 100.787 17.7205C100.787 16.4671 100.533 15.4005 100.027 14.5205C99.5465 13.6405 98.8932 12.9605 98.0665 12.4805C97.2665 12.0005 96.3465 11.7605 95.3065 11.7605C94.2665 11.7605 93.3332 12.0005 92.5065 12.4805C91.6799 12.9605 91.0265 13.6405 90.5465 14.5205C90.0665 15.4005 89.8265 16.4671 89.8265 17.7205C89.8265 18.9471 90.0665 20.0138 90.5465 20.9205C91.0265 21.8005 91.6799 22.4805 92.5065 22.9605C93.3332 23.4405 94.2665 23.6805 95.3065 23.6805ZM124.008 28.4805V24.2805L123.608 23.3605V15.8405C123.608 14.5071 123.195 13.4671 122.368 12.7205C121.568 11.9738 120.328 11.6005 118.648 11.6005C117.502 11.6005 116.368 11.7871 115.248 12.1605C114.155 12.5071 113.222 12.9871 112.448 13.6005L110.208 9.24047C111.382 8.4138 112.795 7.7738 114.448 7.32047C116.102 6.86713 117.782 6.64047 119.488 6.64047C122.768 6.64047 125.315 7.4138 127.128 8.96047C128.942 10.5071 129.848 12.9205 129.848 16.2005V28.4805H124.008ZM117.448 28.8005C115.768 28.8005 114.328 28.5205 113.128 27.9605C111.928 27.3738 111.008 26.5871 110.368 25.6005C109.728 24.6138 109.408 23.5071 109.408 22.2805C109.408 21.0005 109.715 19.8805 110.328 18.9205C110.968 17.9605 111.968 17.2138 113.328 16.6805C114.688 16.1205 116.462 15.8405 118.648 15.8405H124.368V19.4805H119.328C117.862 19.4805 116.848 19.7205 116.288 20.2005C115.755 20.6805 115.488 21.2805 115.488 22.0005C115.488 22.8005 115.795 23.4405 116.408 23.9205C117.048 24.3738 117.915 24.6005 119.008 24.6005C120.048 24.6005 120.982 24.3605 121.808 23.8805C122.635 23.3738 123.235 22.6405 123.608 21.6805L124.568 24.5605C124.115 25.9471 123.288 27.0005 122.088 27.7205C120.888 28.4405 119.342 28.8005 117.448 28.8005ZM135.269 28.4805V6.96047H146.269C148.962 6.96047 151.069 7.4538 152.589 8.44047C154.109 9.40047 154.869 10.7605 154.869 12.5205C154.869 14.2805 154.149 15.6671 152.709 16.6805C151.296 17.6671 149.416 18.1605 147.069 18.1605L147.709 16.7205C150.322 16.7205 152.269 17.2005 153.549 18.1605C154.856 19.1205 155.509 20.5205 155.509 22.3605C155.509 24.2538 154.789 25.7471 153.349 26.8405C151.909 27.9338 149.709 28.4805 146.749 28.4805H135.269ZM140.989 24.2405H146.229C147.376 24.2405 148.229 24.0538 148.789 23.6805C149.376 23.2805 149.669 22.6805 149.669 21.8805C149.669 21.0538 149.402 20.4538 148.869 20.0805C148.336 19.6805 147.496 19.4805 146.349 19.4805H140.989V24.2405ZM140.989 15.8005H145.709C146.802 15.8005 147.616 15.6005 148.149 15.2005C148.709 14.8005 148.989 14.2271 148.989 13.4805C148.989 12.7071 148.709 12.1338 148.149 11.7605C147.616 11.3871 146.802 11.2005 145.709 11.2005H140.989V15.8005ZM171.792 13.8405C174.619 13.8671 176.765 14.5071 178.232 15.7605C179.725 16.9871 180.472 18.7338 180.472 21.0005C180.472 23.3738 179.632 25.2271 177.952 26.5605C176.272 27.8671 173.939 28.5205 170.952 28.5205L160.152 28.4805V6.96047H166.352V13.8405H171.792ZM170.392 24.0805C171.592 24.1071 172.512 23.8538 173.152 23.3205C173.792 22.7871 174.112 21.9871 174.112 20.9205C174.112 19.8538 173.792 19.0938 173.152 18.6405C172.512 18.1605 171.592 17.9071 170.392 17.8805L166.352 17.8405V24.0805H170.392ZM187.057 28.4805V10.6405L188.457 12.0805H179.777V6.96047H200.537V12.0805H191.857L193.257 10.6405V28.4805H187.057ZM213.484 28.8005C211.031 28.8005 208.871 28.3205 207.004 27.3605C205.164 26.4005 203.738 25.0938 202.724 23.4405C201.711 21.7605 201.204 19.8538 201.204 17.7205C201.204 15.5605 201.698 13.6538 202.684 12.0005C203.698 10.3205 205.071 9.0138 206.804 8.08047C208.538 7.12047 210.498 6.64047 212.684 6.64047C214.791 6.64047 216.684 7.0938 218.364 8.00047C220.071 8.88047 221.418 10.1605 222.404 11.8405C223.391 13.4938 223.884 15.4805 223.884 17.8005C223.884 18.0405 223.871 18.3205 223.844 18.6405C223.818 18.9338 223.791 19.2138 223.764 19.4805H206.284V15.8405H220.484L218.084 16.9205C218.084 15.8005 217.858 14.8271 217.404 14.0005C216.951 13.1738 216.324 12.5338 215.524 12.0805C214.724 11.6005 213.791 11.3605 212.724 11.3605C211.658 11.3605 210.711 11.6005 209.884 12.0805C209.084 12.5338 208.458 13.1871 208.004 14.0405C207.551 14.8671 207.324 15.8538 207.324 17.0005V17.9605C207.324 19.1338 207.578 20.1738 208.084 21.0805C208.618 21.9605 209.351 22.6405 210.284 23.1205C211.244 23.5738 212.364 23.8005 213.644 23.8005C214.791 23.8005 215.791 23.6271 216.644 23.2805C217.524 22.9338 218.324 22.4138 219.044 21.7205L222.364 25.3205C221.378 26.4405 220.138 27.3071 218.644 27.9205C217.151 28.5071 215.431 28.8005 213.484 28.8005ZM247.276 28.8805C245.622 28.8805 243.969 28.7071 242.316 28.3605C240.689 28.0138 239.182 27.4938 237.796 26.8005L239.476 22.4405C240.569 22.9738 241.756 23.3871 243.036 23.6805C244.342 23.9471 245.662 24.0805 246.996 24.0805C247.956 24.0805 248.782 23.9871 249.476 23.8005C250.196 23.5871 250.742 23.2938 251.116 22.9205C251.489 22.5471 251.676 22.0938 251.676 21.5605C251.676 20.8671 251.382 20.3471 250.796 20.0005C250.209 19.6271 249.356 19.4405 248.236 19.4405H243.836V15.5605H247.716C248.436 15.5605 249.049 15.4805 249.556 15.3205C250.062 15.1605 250.436 14.9338 250.676 14.6405C250.942 14.3205 251.076 13.9471 251.076 13.5205C251.076 13.0671 250.916 12.6805 250.596 12.3605C250.276 12.0405 249.809 11.8005 249.196 11.6405C248.582 11.4538 247.809 11.3605 246.876 11.3605C245.809 11.3605 244.702 11.4938 243.556 11.7605C242.409 12.0005 241.236 12.3605 240.036 12.8405L238.516 8.52047C239.929 7.9338 241.329 7.46713 242.716 7.12047C244.102 6.7738 245.476 6.58713 246.836 6.56047C248.836 6.50713 250.636 6.72047 252.236 7.20047C253.836 7.68047 255.089 8.3738 255.996 9.28047C256.929 10.1871 257.396 11.2938 257.396 12.6005C257.396 13.6405 257.076 14.5738 256.436 15.4005C255.822 16.2271 254.969 16.8805 253.876 17.3605C252.782 17.8138 251.556 18.0405 250.196 18.0405L250.356 16.8005C252.729 16.8005 254.596 17.2805 255.956 18.2405C257.316 19.1738 257.996 20.4538 257.996 22.0805C257.996 23.4671 257.516 24.6805 256.556 25.7205C255.622 26.7338 254.342 27.5205 252.716 28.0805C251.116 28.6138 249.302 28.8805 247.276 28.8805ZM275.337 28.4805V24.2805L274.937 23.3605V15.8405C274.937 14.5071 274.523 13.4671 273.697 12.7205C272.897 11.9738 271.657 11.6005 269.977 11.6005C268.83 11.6005 267.697 11.7871 266.577 12.1605C265.483 12.5071 264.55 12.9871 263.777 13.6005L261.537 9.24047C262.71 8.4138 264.123 7.7738 265.777 7.32047C267.43 6.86713 269.11 6.64047 270.817 6.64047C274.097 6.64047 276.643 7.4138 278.457 8.96047C280.27 10.5071 281.177 12.9205 281.177 16.2005V28.4805H275.337ZM268.777 28.8005C267.097 28.8005 265.657 28.5205 264.457 27.9605C263.257 27.3738 262.337 26.5871 261.697 25.6005C261.057 24.6138 260.737 23.5071 260.737 22.2805C260.737 21.0005 261.043 19.8805 261.657 18.9205C262.297 17.9605 263.297 17.2138 264.657 16.6805C266.017 16.1205 267.79 15.8405 269.977 15.8405H275.697V19.4805H270.657C269.19 19.4805 268.177 19.7205 267.617 20.2005C267.083 20.6805 266.817 21.2805 266.817 22.0005C266.817 22.8005 267.123 23.4405 267.737 23.9205C268.377 24.3738 269.243 24.6005 270.337 24.6005C271.377 24.6005 272.31 24.3605 273.137 23.8805C273.963 23.3738 274.563 22.6405 274.937 21.6805L275.897 24.5605C275.443 25.9471 274.617 27.0005 273.417 27.7205C272.217 28.4405 270.67 28.8005 268.777 28.8005ZM300.157 28.4805V21.3205L301.037 22.3205H295.077C291.984 22.3205 289.557 21.6805 287.797 20.4005C286.037 19.1205 285.157 17.2805 285.157 14.8805C285.157 12.3205 286.077 10.3605 287.917 9.00047C289.784 7.64047 292.291 6.96047 295.437 6.96047H305.717V28.4805H300.157ZM284.837 28.4805L290.557 20.2805H296.917L291.477 28.4805H284.837ZM300.157 19.4005V10.4405L301.037 12.0405H295.557C294.277 12.0405 293.277 12.2805 292.557 12.7605C291.864 13.2405 291.517 14.0138 291.517 15.0805C291.517 17.1338 292.837 18.1605 295.477 18.1605H301.037L300.157 19.4005ZM311.714 28.4805V6.96047H322.714C325.408 6.96047 327.514 7.4538 329.034 8.44047C330.554 9.40047 331.314 10.7605 331.314 12.5205C331.314 14.2805 330.594 15.6671 329.154 16.6805C327.741 17.6671 325.861 18.1605 323.514 18.1605L324.154 16.7205C326.768 16.7205 328.714 17.2005 329.994 18.1605C331.301 19.1205 331.954 20.5205 331.954 22.3605C331.954 24.2538 331.234 25.7471 329.794 26.8405C328.354 27.9338 326.154 28.4805 323.194 28.4805H311.714ZM317.434 24.2405H322.674C323.821 24.2405 324.674 24.0538 325.234 23.6805C325.821 23.2805 326.114 22.6805 326.114 21.8805C326.114 21.0538 325.848 20.4538 325.314 20.0805C324.781 19.6805 323.941 19.4805 322.794 19.4805H317.434V24.2405ZM317.434 15.8005H322.154C323.248 15.8005 324.061 15.6005 324.594 15.2005C325.154 14.8005 325.434 14.2271 325.434 13.4805C325.434 12.7071 325.154 12.1338 324.594 11.7605C324.061 11.3871 323.248 11.2005 322.154 11.2005H317.434V15.8005ZM351.837 28.4805L344.637 18.2805L349.717 15.2805L359.197 28.4805H351.837ZM336.597 28.4805V6.96047H342.837V28.4805H336.597ZM340.997 20.3205V15.3205H348.517V20.3205H340.997ZM350.317 18.4405L344.477 17.8005L352.037 6.96047H358.677L350.317 18.4405ZM363.97 36.5605C362.85 36.5605 361.744 36.3871 360.65 36.0405C359.557 35.6938 358.664 35.2138 357.97 34.6005L360.25 30.1605C360.73 30.5871 361.277 30.9205 361.89 31.1605C362.53 31.4005 363.157 31.5205 363.77 31.5205C364.65 31.5205 365.344 31.3071 365.85 30.8805C366.384 30.4805 366.864 29.8005 367.29 28.8405L368.41 26.2005L368.89 25.5205L376.61 6.96047H382.61L372.89 29.8005C372.197 31.5338 371.397 32.8938 370.49 33.8805C369.61 34.8671 368.624 35.5605 367.53 35.9605C366.464 36.3605 365.277 36.5605 363.97 36.5605ZM367.65 29.3205L358.05 6.96047H364.49L371.93 24.9605L367.65 29.3205ZM1.47998 76.4805V54.9605H7.67998V63.3605H17.04V54.9605H23.28V76.4805H17.04V68.4405H7.67998V76.4805H1.47998ZM42.1334 76.4805V72.2805L41.7334 71.3605V63.8405C41.7334 62.5071 41.3201 61.4671 40.4934 60.7205C39.6934 59.9738 38.4534 59.6005 36.7734 59.6005C35.6268 59.6005 34.4934 59.7871 33.3734 60.1605C32.2801 60.5071 31.3468 60.9871 30.5734 61.6005L28.3334 57.2405C29.5068 56.4138 30.9201 55.7738 32.5734 55.3205C34.2268 54.8671 35.9068 54.6405 37.6134 54.6405C40.8934 54.6405 43.4401 55.4138 45.2534 56.9605C47.0668 58.5071 47.9734 60.9205 47.9734 64.2005V76.4805H42.1334ZM35.5734 76.8005C33.8934 76.8005 32.4534 76.5205 31.2534 75.9605C30.0534 75.3738 29.1334 74.5871 28.4934 73.6005C27.8534 72.6138 27.5334 71.5071 27.5334 70.2805C27.5334 69.0005 27.8401 67.8805 28.4534 66.9205C29.0934 65.9605 30.0934 65.2138 31.4534 64.6805C32.8134 64.1205 34.5868 63.8405 36.7734 63.8405H42.4934V67.4805H37.4534C35.9868 67.4805 34.9734 67.7205 34.4134 68.2005C33.8801 68.6805 33.6134 69.2805 33.6134 70.0005C33.6134 70.8005 33.9201 71.4405 34.5334 71.9205C35.1734 72.3738 36.0401 72.6005 37.1334 72.6005C38.1734 72.6005 39.1068 72.3605 39.9334 71.8805C40.7601 71.3738 41.3601 70.6405 41.7334 69.6805L42.6934 72.5605C42.2401 73.9471 41.4134 75.0005 40.2134 75.7205C39.0134 76.4405 37.4668 76.8005 35.5734 76.8005ZM64.7222 76.4805V54.9605H86.1222V76.4805H79.8822V58.6805L81.2822 60.0805H69.5222L70.9222 58.6805V76.4805H64.7222ZM102.185 76.8005C99.8916 76.8005 97.8516 76.3205 96.065 75.3605C94.305 74.4005 92.905 73.0938 91.865 71.4405C90.8516 69.7605 90.345 67.8538 90.345 65.7205C90.345 63.5605 90.8516 61.6538 91.865 60.0005C92.905 58.3205 94.305 57.0138 96.065 56.0805C97.8516 55.1205 99.8916 54.6405 102.185 54.6405C104.452 54.6405 106.478 55.1205 108.265 56.0805C110.052 57.0138 111.452 58.3071 112.465 59.9605C113.478 61.6138 113.985 63.5338 113.985 65.7205C113.985 67.8538 113.478 69.7605 112.465 71.4405C111.452 73.0938 110.052 74.4005 108.265 75.3605C106.478 76.3205 104.452 76.8005 102.185 76.8005ZM102.185 71.6805C103.225 71.6805 104.158 71.4405 104.985 70.9605C105.812 70.4805 106.465 69.8005 106.945 68.9205C107.425 68.0138 107.665 66.9471 107.665 65.7205C107.665 64.4671 107.425 63.4005 106.945 62.5205C106.465 61.6405 105.812 60.9605 104.985 60.4805C104.158 60.0005 103.225 59.7605 102.185 59.7605C101.145 59.7605 100.212 60.0005 99.385 60.4805C98.5583 60.9605 97.8916 61.6405 97.385 62.5205C96.905 63.4005 96.665 64.4671 96.665 65.7205C96.665 66.9471 96.905 68.0138 97.385 68.9205C97.8916 69.8005 98.5583 70.4805 99.385 70.9605C100.212 71.4405 101.145 71.6805 102.185 71.6805ZM132.764 73.6805V60.0805H125.724L125.604 62.8405C125.551 63.9871 125.484 65.0805 125.404 66.1205C125.324 67.1605 125.164 68.1071 124.924 68.9605C124.711 69.7871 124.391 70.4938 123.964 71.0805C123.538 71.6405 122.964 72.0271 122.244 72.2405L116.084 71.3605C116.858 71.3605 117.484 71.1338 117.964 70.6805C118.444 70.2005 118.818 69.5471 119.084 68.7205C119.351 67.8671 119.551 66.9071 119.684 65.8405C119.818 64.7471 119.911 63.6005 119.964 62.4005L120.244 54.9605H139.004V73.6805H132.764ZM115.364 81.1205V71.3605H142.084V81.1205H136.284V76.4805H121.164V81.1205H115.364ZM156.691 76.9605C154.931 76.9605 153.331 76.7071 151.891 76.2005C150.451 75.6671 149.198 74.8538 148.131 73.7605C147.091 72.6405 146.278 71.2138 145.691 69.4805C145.131 67.7471 144.851 65.6805 144.851 63.2805C144.851 61.5738 144.998 60.0138 145.291 58.6005C145.585 57.1871 146.025 55.9071 146.611 54.7605C147.198 53.5871 147.945 52.5605 148.851 51.6805C149.785 50.7738 150.865 50.0271 152.091 49.4405C153.345 48.8271 154.758 48.3605 156.331 48.0405L166.571 46.0005L167.411 51.3605L158.371 53.1605C157.838 53.2671 157.225 53.4138 156.531 53.6005C155.865 53.7605 155.185 54.0138 154.491 54.3605C153.825 54.7071 153.198 55.2005 152.611 55.8405C152.051 56.4538 151.598 57.2671 151.251 58.2805C150.905 59.2671 150.731 60.4938 150.731 61.9605C150.731 62.4138 150.745 62.7605 150.771 63.0005C150.825 63.2405 150.865 63.4938 150.891 63.7605C150.945 64.0271 150.971 64.4405 150.971 65.0005L148.971 63.0405C149.558 61.7871 150.305 60.7205 151.211 59.8405C152.145 58.9605 153.211 58.2938 154.411 57.8405C155.638 57.3605 156.998 57.1205 158.491 57.1205C160.518 57.1205 162.291 57.5338 163.811 58.3605C165.358 59.1605 166.558 60.2938 167.411 61.7605C168.265 63.2271 168.691 64.8938 168.691 66.7605C168.691 68.7871 168.185 70.5738 167.171 72.1205C166.158 73.6405 164.745 74.8271 162.931 75.6805C161.145 76.5338 159.065 76.9605 156.691 76.9605ZM157.011 72.1205C158.051 72.1205 158.971 71.8938 159.771 71.4405C160.571 70.9605 161.185 70.3338 161.611 69.5605C162.065 68.7605 162.291 67.8671 162.291 66.8805C162.291 65.9205 162.065 65.0671 161.611 64.3205C161.185 63.5738 160.571 62.9871 159.771 62.5605C158.971 62.1338 158.038 61.9205 156.971 61.9205C155.931 61.9205 154.998 62.1338 154.171 62.5605C153.345 62.9605 152.705 63.5205 152.251 64.2405C151.798 64.9605 151.571 65.8005 151.571 66.7605C151.571 67.7471 151.798 68.6538 152.251 69.4805C152.731 70.2805 153.371 70.9205 154.171 71.4005C154.998 71.8805 155.945 72.1205 157.011 72.1205ZM183.005 76.8005C180.712 76.8005 178.672 76.3205 176.885 75.3605C175.125 74.4005 173.725 73.0938 172.685 71.4405C171.672 69.7605 171.165 67.8538 171.165 65.7205C171.165 63.5605 171.672 61.6538 172.685 60.0005C173.725 58.3205 175.125 57.0138 176.885 56.0805C178.672 55.1205 180.712 54.6405 183.005 54.6405C185.272 54.6405 187.299 55.1205 189.085 56.0805C190.872 57.0138 192.272 58.3071 193.285 59.9605C194.299 61.6138 194.805 63.5338 194.805 65.7205C194.805 67.8538 194.299 69.7605 193.285 71.4405C192.272 73.0938 190.872 74.4005 189.085 75.3605C187.299 76.3205 185.272 76.8005 183.005 76.8005ZM183.005 71.6805C184.045 71.6805 184.979 71.4405 185.805 70.9605C186.632 70.4805 187.285 69.8005 187.765 68.9205C188.245 68.0138 188.485 66.9471 188.485 65.7205C188.485 64.4671 188.245 63.4005 187.765 62.5205C187.285 61.6405 186.632 60.9605 185.805 60.4805C184.979 60.0005 184.045 59.7605 183.005 59.7605C181.965 59.7605 181.032 60.0005 180.205 60.4805C179.379 60.9605 178.712 61.6405 178.205 62.5205C177.725 63.4005 177.485 64.4671 177.485 65.7205C177.485 66.9471 177.725 68.0138 178.205 68.9205C178.712 69.8005 179.379 70.4805 180.205 70.9605C181.032 71.4405 181.965 71.6805 183.005 71.6805ZM211.777 76.8005C209.964 76.8005 208.377 76.4005 207.017 75.6005C205.657 74.8005 204.591 73.5871 203.817 71.9605C203.071 70.3071 202.697 68.2271 202.697 65.7205C202.697 63.1871 203.057 61.1071 203.777 59.4805C204.497 57.8538 205.537 56.6405 206.897 55.8405C208.257 55.0405 209.884 54.6405 211.777 54.6405C213.804 54.6405 215.617 55.1071 217.217 56.0405C218.844 56.9471 220.124 58.2271 221.057 59.8805C222.017 61.5338 222.497 63.4805 222.497 65.7205C222.497 67.9871 222.017 69.9471 221.057 71.6005C220.124 73.2538 218.844 74.5338 217.217 75.4405C215.617 76.3471 213.804 76.8005 211.777 76.8005ZM199.057 84.2405V54.9605H205.017V59.3605L204.897 65.7605L205.297 72.1205V84.2405H199.057ZM210.697 71.6805C211.737 71.6805 212.657 71.4405 213.457 70.9605C214.284 70.4805 214.937 69.8005 215.417 68.9205C215.924 68.0138 216.177 66.9471 216.177 65.7205C216.177 64.4671 215.924 63.4005 215.417 62.5205C214.937 61.6405 214.284 60.9605 213.457 60.4805C212.657 60.0005 211.737 59.7605 210.697 59.7605C209.657 59.7605 208.724 60.0005 207.897 60.4805C207.071 60.9605 206.417 61.6405 205.937 62.5205C205.457 63.4005 205.217 64.4671 205.217 65.7205C205.217 66.9471 205.457 68.0138 205.937 68.9205C206.417 69.8005 207.071 70.4805 207.897 70.9605C208.724 71.4405 209.657 71.6805 210.697 71.6805ZM251.079 76.4805V72.2805L250.679 71.3605V63.8405C250.679 62.5071 250.265 61.4671 249.439 60.7205C248.639 59.9738 247.399 59.6005 245.719 59.6005C244.572 59.6005 243.439 59.7871 242.319 60.1605C241.225 60.5071 240.292 60.9871 239.519 61.6005L237.279 57.2405C238.452 56.4138 239.865 55.7738 241.519 55.3205C243.172 54.8671 244.852 54.6405 246.559 54.6405C249.839 54.6405 252.385 55.4138 254.199 56.9605C256.012 58.5071 256.919 60.9205 256.919 64.2005V76.4805H251.079ZM244.519 76.8005C242.839 76.8005 241.399 76.5205 240.199 75.9605C238.999 75.3738 238.079 74.5871 237.439 73.6005C236.799 72.6138 236.479 71.5071 236.479 70.2805C236.479 69.0005 236.785 67.8805 237.399 66.9205C238.039 65.9605 239.039 65.2138 240.399 64.6805C241.759 64.1205 243.532 63.8405 245.719 63.8405H251.439V67.4805H246.399C244.932 67.4805 243.919 67.7205 243.359 68.2005C242.825 68.6805 242.559 69.2805 242.559 70.0005C242.559 70.8005 242.865 71.4405 243.479 71.9205C244.119 72.3738 244.985 72.6005 246.079 72.6005C247.119 72.6005 248.052 72.3605 248.879 71.8805C249.705 71.3738 250.305 70.6405 250.679 69.6805L251.639 72.5605C251.185 73.9471 250.359 75.0005 249.159 75.7205C247.959 76.4405 246.412 76.8005 244.519 76.8005ZM262.339 76.4805V54.9605H273.339C276.033 54.9605 278.139 55.4538 279.659 56.4405C281.179 57.4005 281.939 58.7605 281.939 60.5205C281.939 62.2805 281.219 63.6671 279.779 64.6805C278.366 65.6671 276.486 66.1605 274.139 66.1605L274.779 64.7205C277.393 64.7205 279.339 65.2005 280.619 66.1605C281.926 67.1205 282.579 68.5205 282.579 70.3605C282.579 72.2538 281.859 73.7471 280.419 74.8405C278.979 75.9338 276.779 76.4805 273.819 76.4805H262.339ZM268.059 72.2405H273.299C274.446 72.2405 275.299 72.0538 275.859 71.6805C276.446 71.2805 276.739 70.6805 276.739 69.8805C276.739 69.0538 276.473 68.4538 275.939 68.0805C275.406 67.6805 274.566 67.4805 273.419 67.4805H268.059V72.2405ZM268.059 63.8005H272.779C273.873 63.8005 274.686 63.6005 275.219 63.2005C275.779 62.8005 276.059 62.2271 276.059 61.4805C276.059 60.7071 275.779 60.1338 275.219 59.7605C274.686 59.3871 273.873 59.2005 272.779 59.2005H268.059V63.8005ZM291.822 76.4805V58.6405L293.222 60.0805H284.542V54.9605H305.302V60.0805H296.622L298.022 58.6405V76.4805H291.822ZM317.81 76.8005C315.517 76.8005 313.477 76.3205 311.69 75.3605C309.93 74.4005 308.53 73.0938 307.49 71.4405C306.477 69.7605 305.97 67.8538 305.97 65.7205C305.97 63.5605 306.477 61.6538 307.49 60.0005C308.53 58.3205 309.93 57.0138 311.69 56.0805C313.477 55.1205 315.517 54.6405 317.81 54.6405C320.077 54.6405 322.103 55.1205 323.89 56.0805C325.677 57.0138 327.077 58.3071 328.09 59.9605C329.103 61.6138 329.61 63.5338 329.61 65.7205C329.61 67.8538 329.103 69.7605 328.09 71.4405C327.077 73.0938 325.677 74.4005 323.89 75.3605C322.103 76.3205 320.077 76.8005 317.81 76.8005ZM317.81 71.6805C318.85 71.6805 319.783 71.4405 320.61 70.9605C321.437 70.4805 322.09 69.8005 322.57 68.9205C323.05 68.0138 323.29 66.9471 323.29 65.7205C323.29 64.4671 323.05 63.4005 322.57 62.5205C322.09 61.6405 321.437 60.9605 320.61 60.4805C319.783 60.0005 318.85 59.7605 317.81 59.7605C316.77 59.7605 315.837 60.0005 315.01 60.4805C314.183 60.9605 313.517 61.6405 313.01 62.5205C312.53 63.4005 312.29 64.4671 312.29 65.7205C312.29 66.9471 312.53 68.0138 313.01 68.9205C313.517 69.8005 314.183 70.4805 315.01 70.9605C315.837 71.4405 316.77 71.6805 317.81 71.6805ZM347.462 68.2405C346.582 68.7205 345.609 69.1071 344.542 69.4005C343.475 69.6938 342.302 69.8405 341.022 69.8405C338.195 69.8405 336.022 69.2005 334.502 67.9205C332.982 66.6138 332.222 64.5471 332.222 61.7205V54.9605H338.462V61.3205C338.462 62.6538 338.809 63.6138 339.502 64.2005C340.195 64.7605 341.169 65.0405 342.422 65.0405C343.329 65.0405 344.195 64.9338 345.022 64.7205C345.875 64.5071 346.689 64.2005 347.462 63.8005V68.2405ZM347.022 76.4805V54.9605H353.262V76.4805H347.022ZM369.773 76.8005C367.32 76.8005 365.16 76.3205 363.293 75.3605C361.453 74.4005 360.027 73.0938 359.013 71.4405C358 69.7605 357.493 67.8538 357.493 65.7205C357.493 63.5605 357.987 61.6538 358.973 60.0005C359.987 58.3205 361.36 57.0138 363.093 56.0805C364.827 55.1205 366.787 54.6405 368.973 54.6405C371.08 54.6405 372.973 55.0938 374.653 56.0005C376.36 56.8805 377.707 58.1605 378.693 59.8405C379.68 61.4938 380.173 63.4805 380.173 65.8005C380.173 66.0405 380.16 66.3205 380.133 66.6405C380.107 66.9338 380.08 67.2138 380.053 67.4805H362.573V63.8405H376.773L374.373 64.9205C374.373 63.8005 374.147 62.8271 373.693 62.0005C373.24 61.1738 372.613 60.5338 371.813 60.0805C371.013 59.6005 370.08 59.3605 369.013 59.3605C367.947 59.3605 367 59.6005 366.173 60.0805C365.373 60.5338 364.747 61.1871 364.293 62.0405C363.84 62.8671 363.613 63.8538 363.613 65.0005V65.9605C363.613 67.1338 363.867 68.1738 364.373 69.0805C364.907 69.9605 365.64 70.6405 366.573 71.1205C367.533 71.5738 368.653 71.8005 369.933 71.8005C371.08 71.8005 372.08 71.6271 372.933 71.2805C373.813 70.9338 374.613 70.4138 375.333 69.7205L378.653 73.3205C377.667 74.4405 376.427 75.3071 374.933 75.9205C373.44 76.5071 371.72 76.8005 369.773 76.8005ZM381.491 76.4805L391.131 63.8405L391.011 67.2805L381.771 54.9605H388.771L394.611 63.0005L391.971 63.0805L398.011 54.9605H404.651L395.371 67.1605V63.8005L404.971 76.4805H397.891L391.771 67.9205L394.371 68.2805L388.291 76.4805H381.491ZM405.322 76.4405L405.642 71.3205C405.802 71.3471 405.962 71.3738 406.122 71.4005C406.282 71.4005 406.429 71.4005 406.562 71.4005C407.309 71.4005 407.896 71.1871 408.322 70.7605C408.749 70.3338 409.069 69.7605 409.282 69.0405C409.496 68.2938 409.642 67.4538 409.722 66.5205C409.829 65.5871 409.909 64.6138 409.962 63.6005L410.282 54.9605H428.682V76.4805H422.442V58.5605L423.842 60.0805H414.402L415.722 58.4805L415.442 63.8805C415.362 65.8005 415.202 67.5605 414.962 69.1605C414.749 70.7605 414.389 72.1471 413.882 73.3205C413.376 74.4671 412.696 75.3605 411.842 76.0005C410.989 76.6138 409.896 76.9205 408.562 76.9205C408.082 76.9205 407.576 76.8805 407.042 76.8005C406.509 76.7205 405.936 76.6005 405.322 76.4405ZM444.763 76.8005C442.47 76.8005 440.43 76.3205 438.643 75.3605C436.883 74.4005 435.483 73.0938 434.443 71.4405C433.43 69.7605 432.923 67.8538 432.923 65.7205C432.923 63.5605 433.43 61.6538 434.443 60.0005C435.483 58.3205 436.883 57.0138 438.643 56.0805C440.43 55.1205 442.47 54.6405 444.763 54.6405C447.03 54.6405 449.056 55.1205 450.843 56.0805C452.63 57.0138 454.03 58.3071 455.043 59.9605C456.056 61.6138 456.563 63.5338 456.563 65.7205C456.563 67.8538 456.056 69.7605 455.043 71.4405C454.03 73.0938 452.63 74.4005 450.843 75.3605C449.056 76.3205 447.03 76.8005 444.763 76.8005ZM444.763 71.6805C445.803 71.6805 446.736 71.4405 447.563 70.9605C448.39 70.4805 449.043 69.8005 449.523 68.9205C450.003 68.0138 450.243 66.9471 450.243 65.7205C450.243 64.4671 450.003 63.4005 449.523 62.5205C449.043 61.6405 448.39 60.9605 447.563 60.4805C446.736 60.0005 445.803 59.7605 444.763 59.7605C443.723 59.7605 442.79 60.0005 441.963 60.4805C441.136 60.9605 440.47 61.6405 439.963 62.5205C439.483 63.4005 439.243 64.4671 439.243 65.7205C439.243 66.9471 439.483 68.0138 439.963 68.9205C440.47 69.8005 441.136 70.4805 441.963 70.9605C442.79 71.4405 443.723 71.6805 444.763 71.6805ZM460.855 76.4805V54.9605H471.855C474.548 54.9605 476.655 55.4538 478.175 56.4405C479.695 57.4005 480.455 58.7605 480.455 60.5205C480.455 62.2805 479.735 63.6671 478.295 64.6805C476.882 65.6671 475.002 66.1605 472.655 66.1605L473.295 64.7205C475.908 64.7205 477.855 65.2005 479.135 66.1605C480.442 67.1205 481.095 68.5205 481.095 70.3605C481.095 72.2538 480.375 73.7471 478.935 74.8405C477.495 75.9338 475.295 76.4805 472.335 76.4805H460.855ZM466.575 72.2405H471.815C472.962 72.2405 473.815 72.0538 474.375 71.6805C474.962 71.2805 475.255 70.6805 475.255 69.8805C475.255 69.0538 474.988 68.4538 474.455 68.0805C473.922 67.6805 473.082 67.4805 471.935 67.4805H466.575V72.2405ZM466.575 63.8005H471.295C472.388 63.8005 473.202 63.6005 473.735 63.2005C474.295 62.8005 474.575 62.2271 474.575 61.4805C474.575 60.7071 474.295 60.1338 473.735 59.7605C473.202 59.3871 472.388 59.2005 471.295 59.2005H466.575V63.8005Z" fill="#141414"/>
</svg>
