<svg width="328" height="78" viewBox="0 0 328 78" fill="none" xmlns="http://www.w3.org/2000/svg">
<path d="M11.55 15.258C10.7873 15.566 10.054 15.8007 9.35 15.962C8.646 16.1087 7.97133 16.182 7.326 16.182C5.258 16.182 3.674 15.6907 2.574 14.708C1.474 13.7107 0.924 12.2807 0.924 10.418V5.6H4.444V10.022C4.444 11.078 4.73 11.8773 5.302 12.42C5.874 12.948 6.688 13.212 7.744 13.212C8.41867 13.212 9.07133 13.1387 9.702 12.992C10.3327 12.8307 10.9193 12.6033 11.462 12.31L11.55 15.258ZM11.044 21V5.6H14.564V21H11.044ZM23.9145 21.176C22.5652 21.176 21.3772 20.912 20.3505 20.384C19.3385 19.856 18.5538 19.1373 17.9965 18.228C17.4392 17.304 17.1605 16.2553 17.1605 15.082C17.1605 13.894 17.4318 12.8453 17.9745 11.936C18.5318 11.012 19.2872 10.2933 20.2405 9.78C21.1938 9.252 22.2718 8.988 23.4745 8.988C24.6332 8.988 25.6745 9.23733 26.5985 9.736C27.5372 10.22 28.2779 10.924 28.8205 11.848C29.3632 12.7573 29.6345 13.85 29.6345 15.126C29.6345 15.258 29.6272 15.412 29.6125 15.588C29.5978 15.7493 29.5832 15.9033 29.5685 16.05H19.9545V14.048H27.7645L26.4445 14.642C26.4445 14.026 26.3198 13.4907 26.0705 13.036C25.8212 12.5813 25.4765 12.2293 25.0365 11.98C24.5965 11.716 24.0832 11.584 23.4965 11.584C22.9098 11.584 22.3892 11.716 21.9345 11.98C21.4945 12.2293 21.1498 12.5887 20.9005 13.058C20.6512 13.5127 20.5265 14.0553 20.5265 14.686V15.214C20.5265 15.8593 20.6658 16.4313 20.9445 16.93C21.2378 17.414 21.6412 17.788 22.1545 18.052C22.6825 18.3013 23.2985 18.426 24.0025 18.426C24.6332 18.426 25.1832 18.3307 25.6525 18.14C26.1365 17.9493 26.5765 17.6633 26.9725 17.282L28.7985 19.262C28.2558 19.878 27.5738 20.3547 26.7525 20.692C25.9312 21.0147 24.9852 21.176 23.9145 21.176ZM37.8972 21.176C36.6212 21.176 35.4846 20.9193 34.4872 20.406C33.4899 19.878 32.7052 19.152 32.1332 18.228C31.5759 17.304 31.2972 16.2553 31.2972 15.082C31.2972 13.894 31.5759 12.8453 32.1332 11.936C32.7052 11.012 33.4899 10.2933 34.4872 9.78C35.4846 9.252 36.6212 8.988 37.8972 8.988C39.1439 8.988 40.2292 9.252 41.1532 9.78C42.0772 10.2933 42.7592 11.034 43.1992 12.002L40.5372 13.432C40.2292 12.8747 39.8406 12.464 39.3712 12.2C38.9166 11.936 38.4179 11.804 37.8752 11.804C37.2886 11.804 36.7606 11.936 36.2912 12.2C35.8219 12.464 35.4479 12.838 35.1692 13.322C34.9052 13.806 34.7732 14.3927 34.7732 15.082C34.7732 15.7713 34.9052 16.358 35.1692 16.842C35.4479 17.326 35.8219 17.7 36.2912 17.964C36.7606 18.228 37.2886 18.36 37.8752 18.36C38.4179 18.36 38.9166 18.2353 39.3712 17.986C39.8406 17.722 40.2292 17.304 40.5372 16.732L43.1992 18.184C42.7592 19.1373 42.0772 19.878 41.1532 20.406C40.2292 20.9193 39.1439 21.176 37.8972 21.176ZM47.7933 21V11.188L48.5633 11.98H43.7893V9.164H55.2073V11.98H50.4333L51.2033 11.188V21H47.7933ZM57.0367 21V9.164H60.4467V13.784H65.5947V9.164H69.0267V21H65.5947V16.578H60.4467V21H57.0367ZM84.5001 21V9.164H87.9101V21H84.5001ZM78.5381 12.948C80.0928 12.9627 81.2588 13.3147 82.0361 14.004C82.8281 14.6787 83.2241 15.6393 83.2241 16.886C83.2241 18.1913 82.7768 19.2107 81.8821 19.944C80.9874 20.6627 79.7188 21.022 78.0761 21.022L72.3121 21V9.164H75.7221V12.948H78.5381ZM77.7681 18.58C78.4281 18.5947 78.9341 18.4553 79.2861 18.162C79.6381 17.8687 79.8141 17.4287 79.8141 16.842C79.8141 16.2553 79.6381 15.8373 79.2861 15.588C78.9341 15.324 78.4281 15.1847 77.7681 15.17L75.7221 15.148V18.58H77.7681ZM97.0044 21.176C95.655 21.176 94.467 20.912 93.4404 20.384C92.4284 19.856 91.6437 19.1373 91.0864 18.228C90.529 17.304 90.2504 16.2553 90.2504 15.082C90.2504 13.894 90.5217 12.8453 91.0644 11.936C91.6217 11.012 92.377 10.2933 93.3304 9.78C94.2837 9.252 95.3617 8.988 96.5644 8.988C97.723 8.988 98.7644 9.23733 99.6884 9.736C100.627 10.22 101.368 10.924 101.91 11.848C102.453 12.7573 102.724 13.85 102.724 15.126C102.724 15.258 102.717 15.412 102.702 15.588C102.688 15.7493 102.673 15.9033 102.658 16.05H93.0444V14.048H100.854L99.5344 14.642C99.5344 14.026 99.4097 13.4907 99.1604 13.036C98.911 12.5813 98.5664 12.2293 98.1264 11.98C97.6864 11.716 97.173 11.584 96.5864 11.584C95.9997 11.584 95.479 11.716 95.0244 11.98C94.5844 12.2293 94.2397 12.5887 93.9904 13.058C93.741 13.5127 93.6164 14.0553 93.6164 14.686V15.214C93.6164 15.8593 93.7557 16.4313 94.0344 16.93C94.3277 17.414 94.731 17.788 95.2444 18.052C95.7724 18.3013 96.3884 18.426 97.0924 18.426C97.723 18.426 98.273 18.3307 98.7424 18.14C99.2264 17.9493 99.6664 17.6633 100.062 17.282L101.888 19.262C101.346 19.878 100.664 20.3547 99.8424 20.692C99.021 21.0147 98.075 21.176 97.0044 21.176ZM117.13 21.176C115.868 21.176 114.746 20.912 113.764 20.384C112.796 19.856 112.026 19.1373 111.454 18.228C110.896 17.304 110.618 16.2553 110.618 15.082C110.618 13.894 110.896 12.8453 111.454 11.936C112.026 11.012 112.796 10.2933 113.764 9.78C114.746 9.252 115.868 8.988 117.13 8.988C118.376 8.988 119.491 9.252 120.474 9.78C121.456 10.2933 122.226 11.0047 122.784 11.914C123.341 12.8233 123.62 13.8793 123.62 15.082C123.62 16.2553 123.341 17.304 122.784 18.228C122.226 19.1373 121.456 19.856 120.474 20.384C119.491 20.912 118.376 21.176 117.13 21.176ZM117.13 18.36C117.702 18.36 118.215 18.228 118.67 17.964C119.124 17.7 119.484 17.326 119.748 16.842C120.012 16.3433 120.144 15.7567 120.144 15.082C120.144 14.3927 120.012 13.806 119.748 13.322C119.484 12.838 119.124 12.464 118.67 12.2C118.215 11.936 117.702 11.804 117.13 11.804C116.558 11.804 116.044 11.936 115.59 12.2C115.135 12.464 114.768 12.838 114.49 13.322C114.226 13.806 114.094 14.3927 114.094 15.082C114.094 15.7567 114.226 16.3433 114.49 16.842C114.768 17.326 115.135 17.7 115.59 17.964C116.044 18.228 116.558 18.36 117.13 18.36ZM128.08 21V11.188L128.85 11.98H124.076V9.164H135.494V11.98H130.72L131.49 11.188V21H128.08ZM141.199 21.22C140.29 21.22 139.38 21.1247 138.471 20.934C137.576 20.7433 136.748 20.4573 135.985 20.076L136.909 17.678C137.51 17.9713 138.163 18.1987 138.867 18.36C139.586 18.5067 140.312 18.58 141.045 18.58C141.573 18.58 142.028 18.5287 142.409 18.426C142.805 18.3087 143.106 18.1473 143.311 17.942C143.516 17.7367 143.619 17.4873 143.619 17.194C143.619 16.8127 143.458 16.5267 143.135 16.336C142.812 16.1307 142.343 16.028 141.727 16.028H139.307V13.894H141.441C141.837 13.894 142.174 13.85 142.453 13.762C142.732 13.674 142.937 13.5493 143.069 13.388C143.216 13.212 143.289 13.0067 143.289 12.772C143.289 12.5227 143.201 12.31 143.025 12.134C142.849 11.958 142.592 11.826 142.255 11.738C141.918 11.6353 141.492 11.584 140.979 11.584C140.392 11.584 139.784 11.6573 139.153 11.804C138.522 11.936 137.877 12.134 137.217 12.398L136.381 10.022C137.158 9.69933 137.928 9.44267 138.691 9.252C139.454 9.06133 140.209 8.95867 140.957 8.944C142.057 8.91467 143.047 9.032 143.927 9.296C144.807 9.56 145.496 9.94133 145.995 10.44C146.508 10.9387 146.765 11.5473 146.765 12.266C146.765 12.838 146.589 13.3513 146.237 13.806C145.9 14.2607 145.43 14.62 144.829 14.884C144.228 15.1333 143.553 15.258 142.805 15.258L142.893 14.576C144.198 14.576 145.225 14.84 145.973 15.368C146.721 15.8813 147.095 16.5853 147.095 17.48C147.095 18.2427 146.831 18.91 146.303 19.482C145.79 20.0393 145.086 20.472 144.191 20.78C143.311 21.0733 142.314 21.22 141.199 21.22ZM161.736 21V9.164H165.146V21H161.736ZM155.774 12.948C157.329 12.9627 158.495 13.3147 159.272 14.004C160.064 14.6787 160.46 15.6393 160.46 16.886C160.46 18.1913 160.013 19.2107 159.118 19.944C158.224 20.6627 156.955 21.022 155.312 21.022L149.548 21V9.164H152.958V12.948H155.774ZM155.004 18.58C155.664 18.5947 156.17 18.4553 156.522 18.162C156.874 17.8687 157.05 17.4287 157.05 16.842C157.05 16.2553 156.874 15.8373 156.522 15.588C156.17 15.324 155.664 15.1847 155.004 15.17L152.958 15.148V18.58H155.004ZM168.455 21V9.164H174.505C175.986 9.164 177.145 9.43533 177.981 9.978C178.817 10.506 179.235 11.254 179.235 12.222C179.235 13.19 178.839 13.9527 178.047 14.51C177.269 15.0527 176.235 15.324 174.945 15.324L175.297 14.532C176.734 14.532 177.805 14.796 178.509 15.324C179.227 15.852 179.587 16.622 179.587 17.634C179.587 18.6753 179.191 19.4967 178.399 20.098C177.607 20.6993 176.397 21 174.769 21H168.455ZM171.601 18.668H174.483C175.113 18.668 175.583 18.5653 175.891 18.36C176.213 18.14 176.375 17.81 176.375 17.37C176.375 16.9153 176.228 16.5853 175.935 16.38C175.641 16.16 175.179 16.05 174.549 16.05H171.601V18.668ZM171.601 14.026H174.197C174.798 14.026 175.245 13.916 175.539 13.696C175.847 13.476 176.001 13.1607 176.001 12.75C176.001 12.3247 175.847 12.0093 175.539 11.804C175.245 11.5987 174.798 11.496 174.197 11.496H171.601V14.026ZM194.328 21V9.164H197.738V21H194.328ZM188.366 12.948C189.921 12.9627 191.087 13.3147 191.864 14.004C192.656 14.6787 193.052 15.6393 193.052 16.886C193.052 18.1913 192.605 19.2107 191.71 19.944C190.816 20.6627 189.547 21.022 187.904 21.022L182.14 21V9.164H185.55V12.948H188.366ZM187.596 18.58C188.256 18.5947 188.762 18.4553 189.114 18.162C189.466 17.8687 189.642 17.4287 189.642 16.842C189.642 16.2553 189.466 15.8373 189.114 15.588C188.762 15.324 188.256 15.1847 187.596 15.17L185.55 15.148V18.58H187.596ZM207.277 21V9.164H210.687V13.784H215.835V9.164H219.267V21H215.835V16.578H210.687V21H207.277ZM229.636 21V18.69L229.416 18.184V14.048C229.416 13.3147 229.189 12.7427 228.734 12.332C228.294 11.9213 227.612 11.716 226.688 11.716C226.058 11.716 225.434 11.8187 224.818 12.024C224.217 12.2147 223.704 12.4787 223.278 12.816L222.046 10.418C222.692 9.96333 223.469 9.61133 224.378 9.362C225.288 9.11267 226.212 8.988 227.15 8.988C228.954 8.988 230.355 9.41333 231.352 10.264C232.35 11.1147 232.848 12.442 232.848 14.246V21H229.636ZM226.028 21.176C225.104 21.176 224.312 21.022 223.652 20.714C222.992 20.3913 222.486 19.9587 222.134 19.416C221.782 18.8733 221.606 18.2647 221.606 17.59C221.606 16.886 221.775 16.27 222.112 15.742C222.464 15.214 223.014 14.8033 223.762 14.51C224.51 14.202 225.486 14.048 226.688 14.048H229.834V16.05H227.062C226.256 16.05 225.698 16.182 225.39 16.446C225.097 16.71 224.95 17.04 224.95 17.436C224.95 17.876 225.119 18.228 225.456 18.492C225.808 18.7413 226.285 18.866 226.886 18.866C227.458 18.866 227.972 18.734 228.426 18.47C228.881 18.1913 229.211 17.788 229.416 17.26L229.944 18.844C229.695 19.6067 229.24 20.186 228.58 20.582C227.92 20.978 227.07 21.176 226.028 21.176ZM243.904 18.184L243.156 18.976V9.164H246.588V18.976L245.796 18.184H251.252L250.482 18.976V9.164H253.892V21H235.83V9.164H239.24V18.976L238.47 18.184H243.904ZM257.185 21V9.164H260.595V16.204L266.359 9.164H269.505V21H266.095V13.96L260.353 21H257.185ZM271.22 21L276.522 14.048L276.456 15.94L271.374 9.164H275.224L278.436 13.586L276.984 13.63L280.306 9.164H283.958L278.854 15.874V14.026L284.134 21H280.24L276.874 16.292L278.304 16.49L274.96 21H271.22ZM1.65 47V35.164H13.42V47H9.988V37.21L10.758 37.98H4.29L5.06 37.21V47H1.65ZM22.2545 47.176C20.9932 47.176 19.8712 46.912 18.8885 46.384C17.9205 45.856 17.1505 45.1373 16.5785 44.228C16.0212 43.304 15.7425 42.2553 15.7425 41.082C15.7425 39.894 16.0212 38.8453 16.5785 37.936C17.1505 37.012 17.9205 36.2933 18.8885 35.78C19.8712 35.252 20.9932 34.988 22.2545 34.988C23.5012 34.988 24.6159 35.252 25.5985 35.78C26.5812 36.2933 27.3512 37.0047 27.9085 37.914C28.4659 38.8233 28.7445 39.8793 28.7445 41.082C28.7445 42.2553 28.4659 43.304 27.9085 44.228C27.3512 45.1373 26.5812 45.856 25.5985 46.384C24.6159 46.912 23.5012 47.176 22.2545 47.176ZM22.2545 44.36C22.8265 44.36 23.3399 44.228 23.7945 43.964C24.2492 43.7 24.6085 43.326 24.8725 42.842C25.1365 42.3433 25.2685 41.7567 25.2685 41.082C25.2685 40.3927 25.1365 39.806 24.8725 39.322C24.6085 38.838 24.2492 38.464 23.7945 38.2C23.3399 37.936 22.8265 37.804 22.2545 37.804C21.6825 37.804 21.1692 37.936 20.7145 38.2C20.2599 38.464 19.8932 38.838 19.6145 39.322C19.3505 39.806 19.2185 40.3927 19.2185 41.082C19.2185 41.7567 19.3505 42.3433 19.6145 42.842C19.8932 43.326 20.2599 43.7 20.7145 43.964C21.1692 44.228 21.6825 44.36 22.2545 44.36ZM39.4871 47L35.5271 41.39L38.3211 39.74L43.5351 47H39.4871ZM31.1051 47V35.164H34.5371V47H31.1051ZM33.5251 42.512V39.762H37.6611V42.512H33.5251ZM38.6511 41.478L35.4391 41.126L39.5971 35.164H43.2491L38.6511 41.478ZM46.1603 51.444C45.5443 51.444 44.9356 51.3487 44.3343 51.158C43.733 50.9673 43.2416 50.7033 42.8603 50.366L44.1143 47.924C44.3783 48.1587 44.679 48.342 45.0163 48.474C45.3683 48.606 45.713 48.672 46.0503 48.672C46.5343 48.672 46.9156 48.5547 47.1943 48.32C47.4876 48.1 47.7516 47.726 47.9863 47.198L48.6023 45.746L48.8663 45.372L53.1123 35.164H56.4123L51.0663 47.726C50.685 48.6793 50.245 49.4273 49.7463 49.97C49.2623 50.5127 48.7196 50.894 48.1183 51.114C47.5316 51.334 46.879 51.444 46.1603 51.444ZM48.1843 47.462L42.9043 35.164H46.4463L50.5383 45.064L48.1843 47.462ZM58.068 47V35.164H69.838V47H66.406V37.21L67.176 37.98H60.708L61.478 37.21V47H58.068ZM80.2125 47V44.69L79.9925 44.184V40.048C79.9925 39.3147 79.7652 38.7427 79.3105 38.332C78.8705 37.9213 78.1885 37.716 77.2645 37.716C76.6338 37.716 76.0105 37.8187 75.3945 38.024C74.7932 38.2147 74.2798 38.4787 73.8545 38.816L72.6225 36.418C73.2678 35.9633 74.0452 35.6113 74.9545 35.362C75.8638 35.1127 76.7878 34.988 77.7265 34.988C79.5305 34.988 80.9312 35.4133 81.9285 36.264C82.9258 37.1147 83.4245 38.442 83.4245 40.246V47H80.2125ZM76.6045 47.176C75.6805 47.176 74.8885 47.022 74.2285 46.714C73.5685 46.3913 73.0625 45.9587 72.7105 45.416C72.3585 44.8733 72.1825 44.2647 72.1825 43.59C72.1825 42.886 72.3512 42.27 72.6885 41.742C73.0405 41.214 73.5905 40.8033 74.3385 40.51C75.0865 40.202 76.0618 40.048 77.2645 40.048H80.4105V42.05H77.6385C76.8318 42.05 76.2745 42.182 75.9665 42.446C75.6732 42.71 75.5265 43.04 75.5265 43.436C75.5265 43.876 75.6952 44.228 76.0325 44.492C76.3845 44.7413 76.8612 44.866 77.4625 44.866C78.0345 44.866 78.5478 44.734 79.0025 44.47C79.4572 44.1913 79.7872 43.788 79.9925 43.26L80.5205 44.844C80.2712 45.6067 79.8165 46.186 79.1565 46.582C78.4965 46.978 77.6458 47.176 76.6045 47.176ZM88.9359 47V37.188L89.7059 37.98H84.9319V35.164H96.3499V37.98H91.5759L92.3459 37.188V47H88.9359ZM103.471 47.176C102.122 47.176 100.934 46.912 99.9072 46.384C98.8952 45.856 98.1105 45.1373 97.5532 44.228C96.9958 43.304 96.7172 42.2553 96.7172 41.082C96.7172 39.894 96.9885 38.8453 97.5312 37.936C98.0885 37.012 98.8438 36.2933 99.7972 35.78C100.75 35.252 101.828 34.988 103.031 34.988C104.19 34.988 105.231 35.2373 106.155 35.736C107.094 36.22 107.834 36.924 108.377 37.848C108.92 38.7573 109.191 39.85 109.191 41.126C109.191 41.258 109.184 41.412 109.169 41.588C109.154 41.7493 109.14 41.9033 109.125 42.05H99.5112V40.048H107.321L106.001 40.642C106.001 40.026 105.876 39.4907 105.627 39.036C105.378 38.5813 105.033 38.2293 104.593 37.98C104.153 37.716 103.64 37.584 103.053 37.584C102.466 37.584 101.946 37.716 101.491 37.98C101.051 38.2293 100.706 38.5887 100.457 39.058C100.208 39.5127 100.083 40.0553 100.083 40.686V41.214C100.083 41.8593 100.222 42.4313 100.501 42.93C100.794 43.414 101.198 43.788 101.711 44.052C102.239 44.3013 102.855 44.426 103.559 44.426C104.19 44.426 104.74 44.3307 105.209 44.14C105.693 43.9493 106.133 43.6633 106.529 43.282L108.355 45.262C107.812 45.878 107.13 46.3547 106.309 46.692C105.488 47.0147 104.542 47.176 103.471 47.176ZM110.218 46.978L110.394 44.162C110.482 44.1767 110.57 44.1913 110.658 44.206C110.746 44.206 110.827 44.206 110.9 44.206C111.311 44.206 111.634 44.0887 111.868 43.854C112.103 43.6193 112.279 43.304 112.396 42.908C112.514 42.4973 112.594 42.0353 112.638 41.522C112.697 41.0087 112.741 40.4733 112.77 39.916L112.946 35.164H123.066V47H119.634V37.144L120.404 37.98H115.212L115.938 37.1L115.784 40.07C115.74 41.126 115.652 42.094 115.52 42.974C115.403 43.854 115.205 44.6167 114.926 45.262C114.648 45.8927 114.274 46.384 113.804 46.736C113.335 47.0733 112.734 47.242 112 47.242C111.736 47.242 111.458 47.22 111.164 47.176C110.871 47.132 110.556 47.066 110.218 46.978ZM132.153 47.176C130.803 47.176 129.615 46.912 128.589 46.384C127.577 45.856 126.792 45.1373 126.235 44.228C125.677 43.304 125.399 42.2553 125.399 41.082C125.399 39.894 125.67 38.8453 126.213 37.936C126.77 37.012 127.525 36.2933 128.479 35.78C129.432 35.252 130.51 34.988 131.713 34.988C132.871 34.988 133.913 35.2373 134.837 35.736C135.775 36.22 136.516 36.924 137.059 37.848C137.601 38.7573 137.873 39.85 137.873 41.126C137.873 41.258 137.865 41.412 137.851 41.588C137.836 41.7493 137.821 41.9033 137.807 42.05H128.193V40.048H136.003L134.683 40.642C134.683 40.026 134.558 39.4907 134.309 39.036C134.059 38.5813 133.715 38.2293 133.275 37.98C132.835 37.716 132.321 37.584 131.735 37.584C131.148 37.584 130.627 37.716 130.173 37.98C129.733 38.2293 129.388 38.5887 129.139 39.058C128.889 39.5127 128.765 40.0553 128.765 40.686V41.214C128.765 41.8593 128.904 42.4313 129.183 42.93C129.476 43.414 129.879 43.788 130.393 44.052C130.921 44.3013 131.537 44.426 132.241 44.426C132.871 44.426 133.421 44.3307 133.891 44.14C134.375 43.9493 134.815 43.6633 135.211 43.282L137.037 45.262C136.494 45.878 135.812 46.3547 134.991 46.692C134.169 47.0147 133.223 47.176 132.153 47.176ZM140.504 47V35.164H143.914V42.204L149.678 35.164H152.824V47H149.414V39.96L143.672 47H140.504ZM146.444 33.888C145.153 33.888 144.185 33.6093 143.54 33.052C142.894 32.48 142.564 31.622 142.55 30.478H144.794C144.808 30.9767 144.948 31.3727 145.212 31.666C145.476 31.9593 145.879 32.106 146.422 32.106C146.95 32.106 147.353 31.9593 147.632 31.666C147.925 31.3727 148.072 30.9767 148.072 30.478H150.36C150.36 31.622 150.03 32.48 149.37 33.052C148.71 33.6093 147.734 33.888 146.444 33.888ZM162.353 47V35.164H165.763V39.784H170.911V35.164H174.343V47H170.911V42.578H165.763V47H162.353ZM184.713 47V44.69L184.493 44.184V40.048C184.493 39.3147 184.265 38.7427 183.811 38.332C183.371 37.9213 182.689 37.716 181.765 37.716C181.134 37.716 180.511 37.8187 179.895 38.024C179.293 38.2147 178.78 38.4787 178.355 38.816L177.123 36.418C177.768 35.9633 178.545 35.6113 179.455 35.362C180.364 35.1127 181.288 34.988 182.227 34.988C184.031 34.988 185.431 35.4133 186.429 36.264C187.426 37.1147 187.925 38.442 187.925 40.246V47H184.713ZM181.105 47.176C180.181 47.176 179.389 47.022 178.729 46.714C178.069 46.3913 177.563 45.9587 177.211 45.416C176.859 44.8733 176.683 44.2647 176.683 43.59C176.683 42.886 176.851 42.27 177.189 41.742C177.541 41.214 178.091 40.8033 178.839 40.51C179.587 40.202 180.562 40.048 181.765 40.048H184.911V42.05H182.139C181.332 42.05 180.775 42.182 180.467 42.446C180.173 42.71 180.027 43.04 180.027 43.436C180.027 43.876 180.195 44.228 180.533 44.492C180.885 44.7413 181.361 44.866 181.963 44.866C182.535 44.866 183.048 44.734 183.503 44.47C183.957 44.1913 184.287 43.788 184.493 43.26L185.021 44.844C184.771 45.6067 184.317 46.186 183.657 46.582C182.997 46.978 182.146 47.176 181.105 47.176ZM1.65 73V61.164H5.236L9.702 69.26H8.272L13.046 61.164H16.258L16.302 73H13.2V64.684L13.728 65.036L9.658 71.856H8.206L4.114 64.794L4.752 64.64V73H1.65ZM26.6735 73V70.69L26.4535 70.184V66.048C26.4535 65.3147 26.2261 64.7427 25.7715 64.332C25.3315 63.9213 24.6495 63.716 23.7255 63.716C23.0948 63.716 22.4715 63.8187 21.8555 64.024C21.2541 64.2147 20.7408 64.4787 20.3155 64.816L19.0835 62.418C19.7288 61.9633 20.5061 61.6113 21.4155 61.362C22.3248 61.1127 23.2488 60.988 24.1875 60.988C25.9915 60.988 27.3921 61.4133 28.3895 62.264C29.3868 63.1147 29.8855 64.442 29.8855 66.246V73H26.6735ZM23.0655 73.176C22.1415 73.176 21.3495 73.022 20.6895 72.714C20.0295 72.3913 19.5235 71.9587 19.1715 71.416C18.8195 70.8733 18.6435 70.2647 18.6435 69.59C18.6435 68.886 18.8121 68.27 19.1495 67.742C19.5015 67.214 20.0515 66.8033 20.7995 66.51C21.5475 66.202 22.5228 66.048 23.7255 66.048H26.8715V68.05H24.0995C23.2928 68.05 22.7355 68.182 22.4275 68.446C22.1341 68.71 21.9875 69.04 21.9875 69.436C21.9875 69.876 22.1561 70.228 22.4935 70.492C22.8455 70.7413 23.3221 70.866 23.9235 70.866C24.4955 70.866 25.0088 70.734 25.4635 70.47C25.9181 70.1913 26.2481 69.788 26.4535 69.26L26.9815 70.844C26.7321 71.6067 26.2775 72.186 25.6175 72.582C24.9575 72.978 24.1068 73.176 23.0655 73.176ZM39.8408 73.176C38.8435 73.176 37.9708 72.956 37.2228 72.516C36.4748 72.076 35.8881 71.4087 35.4628 70.514C35.0521 69.6047 34.8468 68.4607 34.8468 67.082C34.8468 65.6887 35.0448 64.5447 35.4408 63.65C35.8368 62.7553 36.4088 62.088 37.1568 61.648C37.9048 61.208 38.7995 60.988 39.8408 60.988C40.9555 60.988 41.9528 61.2447 42.8328 61.758C43.7275 62.2567 44.4315 62.9607 44.9448 63.87C45.4728 64.7793 45.7368 65.85 45.7368 67.082C45.7368 68.3287 45.4728 69.4067 44.9448 70.316C44.4315 71.2253 43.7275 71.9293 42.8328 72.428C41.9528 72.9267 40.9555 73.176 39.8408 73.176ZM32.8448 77.268V61.164H36.1228V63.584L36.0568 67.104L36.2768 70.602V77.268H32.8448ZM39.2468 70.36C39.8188 70.36 40.3248 70.228 40.7648 69.964C41.2195 69.7 41.5788 69.326 41.8428 68.842C42.1215 68.3433 42.2608 67.7567 42.2608 67.082C42.2608 66.3927 42.1215 65.806 41.8428 65.322C41.5788 64.838 41.2195 64.464 40.7648 64.2C40.3248 63.936 39.8188 63.804 39.2468 63.804C38.6748 63.804 38.1615 63.936 37.7068 64.2C37.2521 64.464 36.8928 64.838 36.6288 65.322C36.3648 65.806 36.2328 66.3927 36.2328 67.082C36.2328 67.7567 36.3648 68.3433 36.6288 68.842C36.8928 69.326 37.2521 69.7 37.7068 69.964C38.1615 70.228 38.6748 70.36 39.2468 70.36ZM56.5242 73L52.5642 67.39L55.3582 65.74L60.5722 73H56.5242ZM48.1422 73V61.164H51.5742V73H48.1422ZM50.5622 68.512V65.762H54.6982V68.512H50.5622ZM55.6882 67.478L52.4762 67.126L56.6342 61.164H60.2862L55.6882 67.478ZM67.6782 73.176C66.3289 73.176 65.1409 72.912 64.1142 72.384C63.1022 71.856 62.3175 71.1373 61.7602 70.228C61.2029 69.304 60.9242 68.2553 60.9242 67.082C60.9242 65.894 61.1955 64.8453 61.7382 63.936C62.2955 63.012 63.0509 62.2933 64.0042 61.78C64.9575 61.252 66.0355 60.988 67.2382 60.988C68.3969 60.988 69.4382 61.2373 70.3622 61.736C71.3009 62.22 72.0415 62.924 72.5842 63.848C73.1269 64.7573 73.3982 65.85 73.3982 67.126C73.3982 67.258 73.3909 67.412 73.3762 67.588C73.3615 67.7493 73.3469 67.9033 73.3322 68.05H63.7182V66.048H71.5282L70.2082 66.642C70.2082 66.026 70.0835 65.4907 69.8342 65.036C69.5849 64.5813 69.2402 64.2293 68.8002 63.98C68.3602 63.716 67.8469 63.584 67.2602 63.584C66.6735 63.584 66.1529 63.716 65.6982 63.98C65.2582 64.2293 64.9135 64.5887 64.6642 65.058C64.4149 65.5127 64.2902 66.0553 64.2902 66.686V67.214C64.2902 67.8593 64.4295 68.4313 64.7082 68.93C65.0015 69.414 65.4049 69.788 65.9182 70.052C66.4462 70.3013 67.0622 70.426 67.7662 70.426C68.3969 70.426 68.9469 70.3307 69.4162 70.14C69.9002 69.9493 70.3402 69.6633 70.7362 69.282L72.5622 71.262C72.0195 71.878 71.3375 72.3547 70.5162 72.692C69.6949 73.0147 68.7489 73.176 67.6782 73.176ZM78.1507 73V63.188L78.9207 63.98H74.1467V61.164H85.5647V63.98H80.7907L81.5607 63.188V73H78.1507ZM87.3941 73V61.164H99.1641V73H95.7321V63.21L96.5021 63.98H90.0341L90.8041 63.21V73H87.3941ZM100.959 72.978L101.135 70.162C101.223 70.1767 101.311 70.1913 101.399 70.206C101.487 70.206 101.567 70.206 101.641 70.206C102.051 70.206 102.374 70.0887 102.609 69.854C102.843 69.6193 103.019 69.304 103.137 68.908C103.254 68.4973 103.335 68.0353 103.379 67.522C103.437 67.0087 103.481 66.4733 103.511 65.916L103.687 61.164H113.807V73H110.375V63.144L111.145 63.98H105.953L106.679 63.1L106.525 66.07C106.481 67.126 106.393 68.094 106.261 68.974C106.143 69.854 105.945 70.6167 105.667 71.262C105.388 71.8927 105.014 72.384 104.545 72.736C104.075 73.0733 103.474 73.242 102.741 73.242C102.477 73.242 102.198 73.22 101.905 73.176C101.611 73.132 101.296 73.066 100.959 72.978ZM122.893 73.176C121.544 73.176 120.356 72.912 119.329 72.384C118.317 71.856 117.532 71.1373 116.975 70.228C116.418 69.304 116.139 68.2553 116.139 67.082C116.139 65.894 116.41 64.8453 116.953 63.936C117.51 63.012 118.266 62.2933 119.219 61.78C120.172 61.252 121.25 60.988 122.453 60.988C123.612 60.988 124.653 61.2373 125.577 61.736C126.516 62.22 127.256 62.924 127.799 63.848C128.342 64.7573 128.613 65.85 128.613 67.126C128.613 67.258 128.606 67.412 128.591 67.588C128.576 67.7493 128.562 67.9033 128.547 68.05H118.933V66.048H126.743L125.423 66.642C125.423 66.026 125.298 65.4907 125.049 65.036C124.8 64.5813 124.455 64.2293 124.015 63.98C123.575 63.716 123.062 63.584 122.475 63.584C121.888 63.584 121.368 63.716 120.913 63.98C120.473 64.2293 120.128 64.5887 119.879 65.058C119.63 65.5127 119.505 66.0553 119.505 66.686V67.214C119.505 67.8593 119.644 68.4313 119.923 68.93C120.216 69.414 120.62 69.788 121.133 70.052C121.661 70.3013 122.277 70.426 122.981 70.426C123.612 70.426 124.162 70.3307 124.631 70.14C125.115 69.9493 125.555 69.6633 125.951 69.282L127.777 71.262C127.234 71.878 126.552 72.3547 125.731 72.692C124.91 73.0147 123.964 73.176 122.893 73.176ZM131.244 73V61.164H134.654V68.204L140.418 61.164H143.564V73H140.154V65.96L134.412 73H131.244ZM137.184 59.888C135.893 59.888 134.925 59.6093 134.28 59.052C133.634 58.48 133.304 57.622 133.29 56.478H135.534C135.548 56.9767 135.688 57.3727 135.952 57.666C136.216 57.9593 136.619 58.106 137.162 58.106C137.69 58.106 138.093 57.9593 138.372 57.666C138.665 57.3727 138.812 56.9767 138.812 56.478H141.1C141.1 57.622 140.77 58.48 140.11 59.052C139.45 59.6093 138.474 59.888 137.184 59.888ZM152.495 73.176C151.219 73.176 150.082 72.9193 149.085 72.406C148.088 71.878 147.303 71.152 146.731 70.228C146.174 69.304 145.895 68.2553 145.895 67.082C145.895 65.894 146.174 64.8453 146.731 63.936C147.303 63.012 148.088 62.2933 149.085 61.78C150.082 61.252 151.219 60.988 152.495 60.988C153.742 60.988 154.827 61.252 155.751 61.78C156.675 62.2933 157.357 63.034 157.797 64.002L155.135 65.432C154.827 64.8747 154.438 64.464 153.969 64.2C153.514 63.936 153.016 63.804 152.473 63.804C151.886 63.804 151.358 63.936 150.889 64.2C150.42 64.464 150.046 64.838 149.767 65.322C149.503 65.806 149.371 66.3927 149.371 67.082C149.371 67.7713 149.503 68.358 149.767 68.842C150.046 69.326 150.42 69.7 150.889 69.964C151.358 70.228 151.886 70.36 152.473 70.36C153.016 70.36 153.514 70.2353 153.969 69.986C154.438 69.722 154.827 69.304 155.135 68.732L157.797 70.184C157.357 71.1373 156.675 71.878 155.751 72.406C154.827 72.9193 153.742 73.176 152.495 73.176ZM166.966 73V70.69L166.746 70.184V66.048C166.746 65.3147 166.519 64.7427 166.064 64.332C165.624 63.9213 164.942 63.716 164.018 63.716C163.388 63.716 162.764 63.8187 162.148 64.024C161.547 64.2147 161.034 64.4787 160.608 64.816L159.376 62.418C160.022 61.9633 160.799 61.6113 161.708 61.362C162.618 61.1127 163.542 60.988 164.48 60.988C166.284 60.988 167.685 61.4133 168.682 62.264C169.68 63.1147 170.178 64.442 170.178 66.246V73H166.966ZM163.358 73.176C162.434 73.176 161.642 73.022 160.982 72.714C160.322 72.3913 159.816 71.9587 159.464 71.416C159.112 70.8733 158.936 70.2647 158.936 69.59C158.936 68.886 159.105 68.27 159.442 67.742C159.794 67.214 160.344 66.8033 161.092 66.51C161.84 66.202 162.816 66.048 164.018 66.048H167.164V68.05H164.392C163.586 68.05 163.028 68.182 162.72 68.446C162.427 68.71 162.28 69.04 162.28 69.436C162.28 69.876 162.449 70.228 162.786 70.492C163.138 70.7413 163.615 70.866 164.216 70.866C164.788 70.866 165.302 70.734 165.756 70.47C166.211 70.1913 166.541 69.788 166.746 69.26L167.274 70.844C167.025 71.6067 166.57 72.186 165.91 72.582C165.25 72.978 164.4 73.176 163.358 73.176ZM171.576 73L176.878 66.048L176.812 67.94L171.73 61.164H175.58L178.792 65.586L177.34 65.63L180.662 61.164H184.314L179.21 67.874V66.026L184.49 73H180.596L177.23 68.292L178.66 68.49L175.316 73H171.576Z" fill="#141414"/>
</svg>
