<svg width="515" height="132" viewBox="0 0 515 132" fill="none" xmlns="http://www.w3.org/2000/svg">
<path d="M19.3203 17.56C17.9336 18.12 16.6003 18.5467 15.3203 18.84C14.0403 19.1067 12.8136 19.24 11.6403 19.24C7.88031 19.24 5.00031 18.3467 3.00031 16.56C1.00031 14.7467 0.000312626 12.1467 0.000312626 8.76V-1.90735e-06H6.40031V8.04C6.40031 9.96 6.92031 11.4133 7.96031 12.4C9.00031 13.36 10.4803 13.84 12.4003 13.84C13.627 13.84 14.8136 13.7067 15.9603 13.44C17.107 13.1467 18.1736 12.7333 19.1603 12.2L19.3203 17.56ZM18.4003 28V-1.90735e-06H24.8003V28H18.4003ZM41.8013 28.32C39.3479 28.32 37.1879 27.84 35.3213 26.88C33.4813 25.92 32.0546 24.6133 31.0413 22.96C30.0279 21.28 29.5213 19.3733 29.5213 17.24C29.5213 15.08 30.0146 13.1733 31.0013 11.52C32.0146 9.84 33.3879 8.53333 35.1213 7.6C36.8546 6.64 38.8146 6.16 41.0013 6.16C43.1079 6.16 45.0013 6.61333 46.6813 7.52C48.3879 8.4 49.7346 9.68 50.7213 11.36C51.7079 13.0133 52.2013 15 52.2013 17.32C52.2013 17.56 52.1879 17.84 52.1613 18.16C52.1346 18.4533 52.1079 18.7333 52.0813 19H34.6013V15.36H48.8013L46.4013 16.44C46.4013 15.32 46.1746 14.3467 45.7213 13.52C45.2679 12.6933 44.6413 12.0533 43.8413 11.6C43.0413 11.12 42.1079 10.88 41.0413 10.88C39.9746 10.88 39.0279 11.12 38.2013 11.6C37.4013 12.0533 36.7746 12.7067 36.3213 13.56C35.8679 14.3867 35.6413 15.3733 35.6413 16.52V17.48C35.6413 18.6533 35.8946 19.6933 36.4013 20.6C36.9346 21.48 37.6679 22.16 38.6013 22.64C39.5613 23.0933 40.6813 23.32 41.9613 23.32C43.1079 23.32 44.1079 23.1467 44.9613 22.8C45.8413 22.4533 46.6413 21.9333 47.3613 21.24L50.6813 24.84C49.6946 25.96 48.4546 26.8267 46.9613 27.44C45.4679 28.0267 43.7479 28.32 41.8013 28.32ZM67.2244 28.32C64.9044 28.32 62.8377 27.8533 61.0244 26.92C59.211 25.96 57.7844 24.64 56.7444 22.96C55.731 21.28 55.2244 19.3733 55.2244 17.24C55.2244 15.08 55.731 13.1733 56.7444 11.52C57.7844 9.84 59.211 8.53333 61.0244 7.6C62.8377 6.64 64.9044 6.16 67.2244 6.16C69.491 6.16 71.4644 6.64 73.1444 7.6C74.8244 8.53333 76.0644 9.88 76.8644 11.64L72.0244 14.24C71.4644 13.2267 70.7577 12.48 69.9044 12C69.0777 11.52 68.171 11.28 67.1844 11.28C66.1177 11.28 65.1577 11.52 64.3044 12C63.451 12.48 62.771 13.16 62.2644 14.04C61.7844 14.92 61.5444 15.9867 61.5444 17.24C61.5444 18.4933 61.7844 19.56 62.2644 20.44C62.771 21.32 63.451 22 64.3044 22.48C65.1577 22.96 66.1177 23.2 67.1844 23.2C68.171 23.2 69.0777 22.9733 69.9044 22.52C70.7577 22.04 71.4644 21.28 72.0244 20.24L76.8644 22.88C76.0644 24.6133 74.8244 25.96 73.1444 26.92C71.4644 27.8533 69.491 28.32 67.2244 28.32ZM85.2172 28V10.16L86.6172 11.6H77.9372V6.48H98.6972V11.6H90.0172L91.4172 10.16V28H85.2172ZM102.023 28V6.48H108.223V14.88H117.583V6.48H123.823V28H117.583V19.96H108.223V28H102.023ZM151.957 28V6.48H158.157V28H151.957ZM141.117 13.36C143.944 13.3867 146.064 14.0267 147.477 15.28C148.917 16.5067 149.637 18.2533 149.637 20.52C149.637 22.8933 148.824 24.7467 147.197 26.08C145.57 27.3867 143.264 28.04 140.277 28.04L129.797 28V6.48H135.997V13.36H141.117ZM139.717 23.6C140.917 23.6267 141.837 23.3733 142.477 22.84C143.117 22.3067 143.437 21.5067 143.437 20.44C143.437 19.3733 143.117 18.6133 142.477 18.16C141.837 17.68 140.917 17.4267 139.717 17.4L135.997 17.36V23.6H139.717ZM174.692 28.32C172.239 28.32 170.079 27.84 168.212 26.88C166.372 25.92 164.945 24.6133 163.932 22.96C162.919 21.28 162.412 19.3733 162.412 17.24C162.412 15.08 162.905 13.1733 163.892 11.52C164.905 9.84 166.279 8.53333 168.012 7.6C169.745 6.64 171.705 6.16 173.892 6.16C175.999 6.16 177.892 6.61333 179.572 7.52C181.279 8.4 182.625 9.68 183.612 11.36C184.599 13.0133 185.092 15 185.092 17.32C185.092 17.56 185.079 17.84 185.052 18.16C185.025 18.4533 184.999 18.7333 184.972 19H167.492V15.36H181.692L179.292 16.44C179.292 15.32 179.065 14.3467 178.612 13.52C178.159 12.6933 177.532 12.0533 176.732 11.6C175.932 11.12 174.999 10.88 173.932 10.88C172.865 10.88 171.919 11.12 171.092 11.6C170.292 12.0533 169.665 12.7067 169.212 13.56C168.759 14.3867 168.532 15.3733 168.532 16.52V17.48C168.532 18.6533 168.785 19.6933 169.292 20.6C169.825 21.48 170.559 22.16 171.492 22.64C172.452 23.0933 173.572 23.32 174.852 23.32C175.999 23.32 176.999 23.1467 177.852 22.8C178.732 22.4533 179.532 21.9333 180.252 21.24L183.572 24.84C182.585 25.96 181.345 26.8267 179.852 27.44C178.359 28.0267 176.639 28.32 174.692 28.32ZM211.283 28.32C208.99 28.32 206.95 27.84 205.163 26.88C203.403 25.92 202.003 24.6133 200.963 22.96C199.95 21.28 199.443 19.3733 199.443 17.24C199.443 15.08 199.95 13.1733 200.963 11.52C202.003 9.84 203.403 8.53333 205.163 7.6C206.95 6.64 208.99 6.16 211.283 6.16C213.55 6.16 215.576 6.64 217.363 7.6C219.15 8.53333 220.55 9.82667 221.563 11.48C222.576 13.1333 223.083 15.0533 223.083 17.24C223.083 19.3733 222.576 21.28 221.563 22.96C220.55 24.6133 219.15 25.92 217.363 26.88C215.576 27.84 213.55 28.32 211.283 28.32ZM211.283 23.2C212.323 23.2 213.256 22.96 214.083 22.48C214.91 22 215.563 21.32 216.043 20.44C216.523 19.5333 216.763 18.4667 216.763 17.24C216.763 15.9867 216.523 14.92 216.043 14.04C215.563 13.16 214.91 12.48 214.083 12C213.256 11.52 212.323 11.28 211.283 11.28C210.243 11.28 209.31 11.52 208.483 12C207.656 12.48 206.99 13.16 206.483 14.04C206.003 14.92 205.763 15.9867 205.763 17.24C205.763 18.4667 206.003 19.5333 206.483 20.44C206.99 21.32 207.656 22 208.483 22.48C209.31 22.96 210.243 23.2 211.283 23.2ZM231.194 28V10.16L232.594 11.6H223.914V6.48H244.674V11.6H235.994L237.394 10.16V28H231.194ZM255.046 28.4C253.392 28.4 251.739 28.2267 250.086 27.88C248.459 27.5333 246.952 27.0133 245.566 26.32L247.246 21.96C248.339 22.4933 249.526 22.9067 250.806 23.2C252.112 23.4667 253.432 23.6 254.766 23.6C255.726 23.6 256.552 23.5067 257.246 23.32C257.966 23.1067 258.512 22.8133 258.886 22.44C259.259 22.0667 259.446 21.6133 259.446 21.08C259.446 20.3867 259.152 19.8667 258.566 19.52C257.979 19.1467 257.126 18.96 256.006 18.96H251.606V15.08H255.486C256.206 15.08 256.819 15 257.326 14.84C257.832 14.68 258.206 14.4533 258.446 14.16C258.712 13.84 258.846 13.4667 258.846 13.04C258.846 12.5867 258.686 12.2 258.366 11.88C258.046 11.56 257.579 11.32 256.966 11.16C256.352 10.9733 255.579 10.88 254.646 10.88C253.579 10.88 252.472 11.0133 251.326 11.28C250.179 11.52 249.006 11.88 247.806 12.36L246.286 8.04C247.699 7.45333 249.099 6.98667 250.486 6.64C251.872 6.29333 253.246 6.10666 254.606 6.08C256.606 6.02667 258.406 6.24 260.006 6.72C261.606 7.2 262.859 7.89333 263.766 8.8C264.699 9.70667 265.166 10.8133 265.166 12.12C265.166 13.16 264.846 14.0933 264.206 14.92C263.592 15.7467 262.739 16.4 261.646 16.88C260.552 17.3333 259.326 17.56 257.966 17.56L258.126 16.32C260.499 16.32 262.366 16.8 263.726 17.76C265.086 18.6933 265.766 19.9733 265.766 21.6C265.766 22.9867 265.286 24.2 264.326 25.24C263.392 26.2533 262.112 27.04 260.486 27.6C258.886 28.1333 257.072 28.4 255.046 28.4ZM292.387 28V6.48H298.587V28H292.387ZM281.547 13.36C284.373 13.3867 286.493 14.0267 287.907 15.28C289.347 16.5067 290.067 18.2533 290.067 20.52C290.067 22.8933 289.253 24.7467 287.627 26.08C286 27.3867 283.693 28.04 280.707 28.04L270.227 28V6.48H276.427V13.36H281.547ZM280.147 23.6C281.347 23.6267 282.267 23.3733 282.907 22.84C283.547 22.3067 283.867 21.5067 283.867 20.44C283.867 19.3733 283.547 18.6133 282.907 18.16C282.267 17.68 281.347 17.4267 280.147 17.4L276.427 17.36V23.6H280.147ZM304.602 28V6.48H315.602C318.295 6.48 320.402 6.97333 321.922 7.96C323.442 8.92 324.202 10.28 324.202 12.04C324.202 13.8 323.482 15.1867 322.042 16.2C320.628 17.1867 318.748 17.68 316.402 17.68L317.042 16.24C319.655 16.24 321.602 16.72 322.882 17.68C324.188 18.64 324.842 20.04 324.842 21.88C324.842 23.7733 324.122 25.2667 322.682 26.36C321.242 27.4533 319.042 28 316.082 28H304.602ZM310.322 23.76H315.562C316.708 23.76 317.562 23.5733 318.122 23.2C318.708 22.8 319.002 22.2 319.002 21.4C319.002 20.5733 318.735 19.9733 318.202 19.6C317.668 19.2 316.828 19 315.682 19H310.322V23.76ZM310.322 15.32H315.042C316.135 15.32 316.948 15.12 317.482 14.72C318.042 14.32 318.322 13.7467 318.322 13C318.322 12.2267 318.042 11.6533 317.482 11.28C316.948 10.9067 316.135 10.72 315.042 10.72H310.322V15.32ZM351.644 28V6.48H357.844V28H351.644ZM340.804 13.36C343.631 13.3867 345.751 14.0267 347.164 15.28C348.604 16.5067 349.324 18.2533 349.324 20.52C349.324 22.8933 348.511 24.7467 346.884 26.08C345.258 27.3867 342.951 28.04 339.964 28.04L329.484 28V6.48H335.684V13.36H340.804ZM339.404 23.6C340.604 23.6267 341.524 23.3733 342.164 22.84C342.804 22.3067 343.124 21.5067 343.124 20.44C343.124 19.3733 342.804 18.6133 342.164 18.16C341.524 17.68 340.604 17.4267 339.404 17.4L335.684 17.36V23.6H339.404ZM375.188 28V6.48H381.388V14.88H390.748V6.48H396.988V28H390.748V19.96H381.388V28H375.188ZM415.841 28V23.8L415.441 22.88V15.36C415.441 14.0267 415.028 12.9867 414.201 12.24C413.401 11.4933 412.161 11.12 410.481 11.12C409.334 11.12 408.201 11.3067 407.081 11.68C405.988 12.0267 405.054 12.5067 404.281 13.12L402.041 8.76C403.214 7.93333 404.628 7.29333 406.281 6.84C407.934 6.38667 409.614 6.16 411.321 6.16C414.601 6.16 417.148 6.93333 418.961 8.48C420.774 10.0267 421.681 12.44 421.681 15.72V28H415.841ZM409.281 28.32C407.601 28.32 406.161 28.04 404.961 27.48C403.761 26.8933 402.841 26.1067 402.201 25.12C401.561 24.1333 401.241 23.0267 401.241 21.8C401.241 20.52 401.548 19.4 402.161 18.44C402.801 17.48 403.801 16.7333 405.161 16.2C406.521 15.64 408.294 15.36 410.481 15.36H416.201V19H411.161C409.694 19 408.681 19.24 408.121 19.72C407.588 20.2 407.321 20.8 407.321 21.52C407.321 22.32 407.628 22.96 408.241 23.44C408.881 23.8933 409.748 24.12 410.841 24.12C411.881 24.12 412.814 23.88 413.641 23.4C414.468 22.8933 415.068 22.16 415.441 21.2L416.401 24.08C415.948 25.4667 415.121 26.52 413.921 27.24C412.721 27.96 411.174 28.32 409.281 28.32ZM441.782 22.88L440.422 24.32V6.48H446.662V24.32L445.222 22.88H455.142L453.742 24.32V6.48H459.942V28H427.102V6.48H433.302V24.32L431.902 22.88H441.782ZM465.93 28V6.48H472.13V19.28L482.61 6.48H488.33V28H482.13V15.2L471.69 28H465.93ZM491.448 28L501.088 15.36L500.968 18.8L491.728 6.48H498.728L504.568 14.52L501.928 14.6L507.968 6.48H514.608L505.328 18.68V15.32L514.928 28H507.848L501.728 19.44L504.328 19.8L498.248 28H491.448ZM1.32031 76V54.48H22.7203V76H16.4803V58.2L17.8803 59.6H6.12031L7.52031 58.2V76H1.32031ZM38.7831 76.32C36.4898 76.32 34.4498 75.84 32.6631 74.88C30.9031 73.92 29.5031 72.6133 28.4631 70.96C27.4498 69.28 26.9431 67.3733 26.9431 65.24C26.9431 63.08 27.4498 61.1733 28.4631 59.52C29.5031 57.84 30.9031 56.5333 32.6631 55.6C34.4498 54.64 36.4898 54.16 38.7831 54.16C41.0498 54.16 43.0765 54.64 44.8631 55.6C46.6498 56.5333 48.0498 57.8267 49.0631 59.48C50.0765 61.1333 50.5831 63.0533 50.5831 65.24C50.5831 67.3733 50.0765 69.28 49.0631 70.96C48.0498 72.6133 46.6498 73.92 44.8631 74.88C43.0765 75.84 41.0498 76.32 38.7831 76.32ZM38.7831 71.2C39.8231 71.2 40.7565 70.96 41.5831 70.48C42.4098 70 43.0631 69.32 43.5431 68.44C44.0231 67.5333 44.2631 66.4667 44.2631 65.24C44.2631 63.9867 44.0231 62.92 43.5431 62.04C43.0631 61.16 42.4098 60.48 41.5831 60C40.7565 59.52 39.8231 59.28 38.7831 59.28C37.7431 59.28 36.8098 59.52 35.9831 60C35.1565 60.48 34.4898 61.16 33.9831 62.04C33.5031 62.92 33.2631 63.9867 33.2631 65.24C33.2631 66.4667 33.5031 67.5333 33.9831 68.44C34.4898 69.32 35.1565 70 35.9831 70.48C36.8098 70.96 37.7431 71.2 38.7831 71.2ZM70.115 76L62.915 65.8L67.995 62.8L77.475 76H70.115ZM54.875 76V54.48H61.115V76H54.875ZM59.275 67.84V62.84H66.795V67.84H59.275ZM68.595 65.96L62.755 65.32L70.315 54.48H76.955L68.595 65.96ZM82.2481 84.08C81.1281 84.08 80.0215 83.9067 78.9281 83.56C77.8348 83.2133 76.9415 82.7333 76.2481 82.12L78.5281 77.68C79.0081 78.1067 79.5548 78.44 80.1681 78.68C80.8081 78.92 81.4348 79.04 82.0481 79.04C82.9281 79.04 83.6215 78.8267 84.1281 78.4C84.6615 78 85.1415 77.32 85.5681 76.36L86.6881 73.72L87.1681 73.04L94.8881 54.48H100.888L91.1681 77.32C90.4748 79.0533 89.6748 80.4133 88.7681 81.4C87.8881 82.3867 86.9015 83.08 85.8081 83.48C84.7415 83.88 83.5548 84.08 82.2481 84.08ZM85.9281 76.84L76.3281 54.48H82.7681L90.2081 72.48L85.9281 76.84ZM103.898 76V54.48H125.298V76H119.058V58.2L120.458 59.6H108.698L110.098 58.2V76H103.898ZM144.161 76V71.8L143.761 70.88V63.36C143.761 62.0267 143.348 60.9867 142.521 60.24C141.721 59.4933 140.481 59.12 138.801 59.12C137.655 59.12 136.521 59.3067 135.401 59.68C134.308 60.0267 133.375 60.5067 132.601 61.12L130.361 56.76C131.535 55.9333 132.948 55.2933 134.601 54.84C136.255 54.3867 137.935 54.16 139.641 54.16C142.921 54.16 145.468 54.9333 147.281 56.48C149.095 58.0267 150.001 60.44 150.001 63.72V76H144.161ZM137.601 76.32C135.921 76.32 134.481 76.04 133.281 75.48C132.081 74.8933 131.161 74.1067 130.521 73.12C129.881 72.1333 129.561 71.0267 129.561 69.8C129.561 68.52 129.868 67.4 130.481 66.44C131.121 65.48 132.121 64.7333 133.481 64.2C134.841 63.64 136.615 63.36 138.801 63.36H144.521V67H139.481C138.015 67 137.001 67.24 136.441 67.72C135.908 68.2 135.641 68.8 135.641 69.52C135.641 70.32 135.948 70.96 136.561 71.44C137.201 71.8933 138.068 72.12 139.161 72.12C140.201 72.12 141.135 71.88 141.961 71.4C142.788 70.8933 143.388 70.16 143.761 69.2L144.721 72.08C144.268 73.4667 143.441 74.52 142.241 75.24C141.041 75.96 139.495 76.32 137.601 76.32ZM160.022 76V58.16L161.422 59.6H152.742V54.48H173.502V59.6H164.822L166.222 58.16V76H160.022ZM186.45 76.32C183.996 76.32 181.836 75.84 179.97 74.88C178.13 73.92 176.703 72.6133 175.69 70.96C174.676 69.28 174.17 67.3733 174.17 65.24C174.17 63.08 174.663 61.1733 175.65 59.52C176.663 57.84 178.036 56.5333 179.77 55.6C181.503 54.64 183.463 54.16 185.65 54.16C187.756 54.16 189.65 54.6133 191.33 55.52C193.036 56.4 194.383 57.68 195.37 59.36C196.356 61.0133 196.85 63 196.85 65.32C196.85 65.56 196.836 65.84 196.81 66.16C196.783 66.4533 196.756 66.7333 196.73 67H179.25V63.36H193.45L191.05 64.44C191.05 63.32 190.823 62.3467 190.37 61.52C189.916 60.6933 189.29 60.0533 188.49 59.6C187.69 59.12 186.756 58.88 185.69 58.88C184.623 58.88 183.676 59.12 182.85 59.6C182.05 60.0533 181.423 60.7067 180.97 61.56C180.516 62.3867 180.29 63.3733 180.29 64.52V65.48C180.29 66.6533 180.543 67.6933 181.05 68.6C181.583 69.48 182.316 70.16 183.25 70.64C184.21 71.0933 185.33 71.32 186.61 71.32C187.756 71.32 188.756 71.1467 189.61 70.8C190.49 70.4533 191.29 69.9333 192.01 69.24L195.33 72.84C194.343 73.96 193.103 74.8267 191.61 75.44C190.116 76.0267 188.396 76.32 186.45 76.32ZM198.718 75.96L199.038 70.84C199.198 70.8667 199.358 70.8933 199.518 70.92C199.678 70.92 199.824 70.92 199.958 70.92C200.704 70.92 201.291 70.7067 201.718 70.28C202.144 69.8533 202.464 69.28 202.678 68.56C202.891 67.8133 203.038 66.9733 203.118 66.04C203.224 65.1067 203.304 64.1333 203.358 63.12L203.678 54.48H222.078V76H215.838V58.08L217.238 59.6H207.798L209.118 58L208.838 63.4C208.758 65.32 208.598 67.08 208.358 68.68C208.144 70.28 207.784 71.6667 207.278 72.84C206.771 73.9867 206.091 74.88 205.238 75.52C204.384 76.1333 203.291 76.44 201.958 76.44C201.478 76.44 200.971 76.4 200.438 76.32C199.904 76.24 199.331 76.12 198.718 75.96ZM238.598 76.32C236.145 76.32 233.985 75.84 232.118 74.88C230.278 73.92 228.851 72.6133 227.838 70.96C226.825 69.28 226.318 67.3733 226.318 65.24C226.318 63.08 226.811 61.1733 227.798 59.52C228.811 57.84 230.185 56.5333 231.918 55.6C233.651 54.64 235.611 54.16 237.798 54.16C239.905 54.16 241.798 54.6133 243.478 55.52C245.185 56.4 246.531 57.68 247.518 59.36C248.505 61.0133 248.998 63 248.998 65.32C248.998 65.56 248.985 65.84 248.958 66.16C248.931 66.4533 248.905 66.7333 248.878 67H231.398V63.36H245.598L243.198 64.44C243.198 63.32 242.971 62.3467 242.518 61.52C242.065 60.6933 241.438 60.0533 240.638 59.6C239.838 59.12 238.905 58.88 237.838 58.88C236.771 58.88 235.825 59.12 234.998 59.6C234.198 60.0533 233.571 60.7067 233.118 61.56C232.665 62.3867 232.438 63.3733 232.438 64.52V65.48C232.438 66.6533 232.691 67.6933 233.198 68.6C233.731 69.48 234.465 70.16 235.398 70.64C236.358 71.0933 237.478 71.32 238.758 71.32C239.905 71.32 240.905 71.1467 241.758 70.8C242.638 70.4533 243.438 69.9333 244.158 69.24L247.478 72.84C246.491 73.96 245.251 74.8267 243.758 75.44C242.265 76.0267 240.545 76.32 238.598 76.32ZM253.781 76V54.48H259.981V67.28L270.461 54.48H276.181V76H269.981V63.2L259.541 76H253.781ZM264.581 52.16C262.235 52.16 260.475 51.6533 259.301 50.64C258.128 49.6 257.528 48.04 257.501 45.96H261.581C261.608 46.8667 261.861 47.5867 262.341 48.12C262.821 48.6533 263.555 48.92 264.541 48.92C265.501 48.92 266.235 48.6533 266.741 48.12C267.275 47.5867 267.541 46.8667 267.541 45.96H271.701C271.701 48.04 271.101 49.6 269.901 50.64C268.701 51.6533 266.928 52.16 264.581 52.16ZM293.508 76V54.48H299.708V62.88H309.068V54.48H315.308V76H309.068V67.96H299.708V76H293.508ZM334.161 76V71.8L333.761 70.88V63.36C333.761 62.0267 333.348 60.9867 332.521 60.24C331.721 59.4933 330.481 59.12 328.801 59.12C327.655 59.12 326.521 59.3067 325.401 59.68C324.308 60.0267 323.375 60.5067 322.601 61.12L320.361 56.76C321.535 55.9333 322.948 55.2933 324.601 54.84C326.255 54.3867 327.935 54.16 329.641 54.16C332.921 54.16 335.468 54.9333 337.281 56.48C339.095 58.0267 340.001 60.44 340.001 63.72V76H334.161ZM327.601 76.32C325.921 76.32 324.481 76.04 323.281 75.48C322.081 74.8933 321.161 74.1067 320.521 73.12C319.881 72.1333 319.561 71.0267 319.561 69.8C319.561 68.52 319.868 67.4 320.481 66.44C321.121 65.48 322.121 64.7333 323.481 64.2C324.841 63.64 326.615 63.36 328.801 63.36H334.521V67H329.481C328.015 67 327.001 67.24 326.441 67.72C325.908 68.2 325.641 68.8 325.641 69.52C325.641 70.32 325.948 70.96 326.561 71.44C327.201 71.8933 328.068 72.12 329.161 72.12C330.201 72.12 331.135 71.88 331.961 71.4C332.788 70.8933 333.388 70.16 333.761 69.2L334.721 72.08C334.268 73.4667 333.441 74.52 332.241 75.24C331.041 75.96 329.495 76.32 327.601 76.32ZM1.32031 124V102.48H7.84031L15.9603 117.2H13.3603L22.0403 102.48H27.8803L27.9603 124H22.3203V108.88L23.2803 109.52L15.8803 121.92H13.2403L5.80031 109.08L6.96031 108.8V124H1.32031ZM46.8175 124V119.8L46.4175 118.88V111.36C46.4175 110.027 46.0042 108.987 45.1775 108.24C44.3775 107.493 43.1375 107.12 41.4575 107.12C40.3108 107.12 39.1775 107.307 38.0575 107.68C36.9642 108.027 36.0308 108.507 35.2575 109.12L33.0175 104.76C34.1908 103.933 35.6042 103.293 37.2575 102.84C38.9108 102.387 40.5908 102.16 42.2975 102.16C45.5775 102.16 48.1242 102.933 49.9375 104.48C51.7508 106.027 52.6575 108.44 52.6575 111.72V124H46.8175ZM40.2575 124.32C38.5775 124.32 37.1375 124.04 35.9375 123.48C34.7375 122.893 33.8175 122.107 33.1775 121.12C32.5375 120.133 32.2175 119.027 32.2175 117.8C32.2175 116.52 32.5242 115.4 33.1375 114.44C33.7775 113.48 34.7775 112.733 36.1375 112.2C37.4975 111.64 39.2708 111.36 41.4575 111.36H47.1775V115H42.1375C40.6708 115 39.6575 115.24 39.0975 115.72C38.5642 116.2 38.2975 116.8 38.2975 117.52C38.2975 118.32 38.6042 118.96 39.2175 119.44C39.8575 119.893 40.7242 120.12 41.8175 120.12C42.8575 120.12 43.7908 119.88 44.6175 119.4C45.4442 118.893 46.0442 118.16 46.4175 117.2L47.3775 120.08C46.9242 121.467 46.0975 122.52 44.8975 123.24C43.6975 123.96 42.1508 124.32 40.2575 124.32ZM70.7581 124.32C68.9448 124.32 67.3581 123.92 65.9981 123.12C64.6381 122.32 63.5715 121.107 62.7981 119.48C62.0515 117.827 61.6781 115.747 61.6781 113.24C61.6781 110.707 62.0381 108.627 62.7581 107C63.4781 105.373 64.5181 104.16 65.8781 103.36C67.2381 102.56 68.8648 102.16 70.7581 102.16C72.7848 102.16 74.5981 102.627 76.1981 103.56C77.8248 104.467 79.1048 105.747 80.0381 107.4C80.9981 109.053 81.4781 111 81.4781 113.24C81.4781 115.507 80.9981 117.467 80.0381 119.12C79.1048 120.773 77.8248 122.053 76.1981 122.96C74.5981 123.867 72.7848 124.32 70.7581 124.32ZM58.0381 131.76V102.48H63.9981V106.88L63.8781 113.28L64.2781 119.64V131.76H58.0381ZM69.6781 119.2C70.7181 119.2 71.6381 118.96 72.4381 118.48C73.2648 118 73.9181 117.32 74.3981 116.44C74.9048 115.533 75.1581 114.467 75.1581 113.24C75.1581 111.987 74.9048 110.92 74.3981 110.04C73.9181 109.16 73.2648 108.48 72.4381 108C71.6381 107.52 70.7181 107.28 69.6781 107.28C68.6381 107.28 67.7048 107.52 66.8781 108C66.0515 108.48 65.3981 109.16 64.9181 110.04C64.4381 110.92 64.1981 111.987 64.1981 113.24C64.1981 114.467 64.4381 115.533 64.9181 116.44C65.3981 117.32 66.0515 118 66.8781 118.48C67.7048 118.96 68.6381 119.2 69.6781 119.2ZM101.092 124L93.8916 113.8L98.9716 110.8L108.452 124H101.092ZM85.8516 124V102.48H92.0916V124H85.8516ZM90.2516 115.84V110.84H97.7716V115.84H90.2516ZM99.5716 113.96L93.7316 113.32L101.292 102.48H107.932L99.5716 113.96ZM121.372 124.32C118.918 124.32 116.758 123.84 114.892 122.88C113.052 121.92 111.625 120.613 110.612 118.96C109.598 117.28 109.092 115.373 109.092 113.24C109.092 111.08 109.585 109.173 110.572 107.52C111.585 105.84 112.958 104.533 114.692 103.6C116.425 102.64 118.385 102.16 120.572 102.16C122.678 102.16 124.572 102.613 126.252 103.52C127.958 104.4 129.305 105.68 130.292 107.36C131.278 109.013 131.772 111 131.772 113.32C131.772 113.56 131.758 113.84 131.732 114.16C131.705 114.453 131.678 114.733 131.652 115H114.172V111.36H128.372L125.972 112.44C125.972 111.32 125.745 110.347 125.292 109.52C124.838 108.693 124.212 108.053 123.412 107.6C122.612 107.12 121.678 106.88 120.612 106.88C119.545 106.88 118.598 107.12 117.772 107.6C116.972 108.053 116.345 108.707 115.892 109.56C115.438 110.387 115.212 111.373 115.212 112.52V113.48C115.212 114.653 115.465 115.693 115.972 116.6C116.505 117.48 117.238 118.16 118.172 118.64C119.132 119.093 120.252 119.32 121.532 119.32C122.678 119.32 123.678 119.147 124.532 118.8C125.412 118.453 126.212 117.933 126.932 117.24L130.252 120.84C129.265 121.96 128.025 122.827 126.532 123.44C125.038 124.027 123.318 124.32 121.372 124.32ZM140.413 124V106.16L141.813 107.6H133.133V102.48H153.893V107.6H145.213L146.613 106.16V124H140.413ZM157.219 124V102.48H178.619V124H172.379V106.2L173.779 107.6H162.019L163.419 106.2V124H157.219ZM181.882 123.96L182.202 118.84C182.362 118.867 182.522 118.893 182.682 118.92C182.842 118.92 182.988 118.92 183.122 118.92C183.868 118.92 184.455 118.707 184.882 118.28C185.308 117.853 185.628 117.28 185.842 116.56C186.055 115.813 186.202 114.973 186.282 114.04C186.388 113.107 186.468 112.133 186.522 111.12L186.842 102.48H205.242V124H199.002V106.08L200.402 107.6H190.962L192.282 106L192.002 111.4C191.922 113.32 191.762 115.08 191.522 116.68C191.308 118.28 190.948 119.667 190.442 120.84C189.935 121.987 189.255 122.88 188.402 123.52C187.548 124.133 186.455 124.44 185.122 124.44C184.642 124.44 184.135 124.4 183.602 124.32C183.068 124.24 182.495 124.12 181.882 123.96ZM221.762 124.32C219.309 124.32 217.149 123.84 215.282 122.88C213.442 121.92 212.016 120.613 211.002 118.96C209.989 117.28 209.482 115.373 209.482 113.24C209.482 111.08 209.976 109.173 210.962 107.52C211.976 105.84 213.349 104.533 215.082 103.6C216.816 102.64 218.776 102.16 220.962 102.16C223.069 102.16 224.962 102.613 226.642 103.52C228.349 104.4 229.696 105.68 230.682 107.36C231.669 109.013 232.162 111 232.162 113.32C232.162 113.56 232.149 113.84 232.122 114.16C232.096 114.453 232.069 114.733 232.042 115H214.562V111.36H228.762L226.362 112.44C226.362 111.32 226.136 110.347 225.682 109.52C225.229 108.693 224.602 108.053 223.802 107.6C223.002 107.12 222.069 106.88 221.002 106.88C219.936 106.88 218.989 107.12 218.162 107.6C217.362 108.053 216.736 108.707 216.282 109.56C215.829 110.387 215.602 111.373 215.602 112.52V113.48C215.602 114.653 215.856 115.693 216.362 116.6C216.896 117.48 217.629 118.16 218.562 118.64C219.522 119.093 220.642 119.32 221.922 119.32C223.069 119.32 224.069 119.147 224.922 118.8C225.802 118.453 226.602 117.933 227.322 117.24L230.642 120.84C229.656 121.96 228.416 122.827 226.922 123.44C225.429 124.027 223.709 124.32 221.762 124.32ZM236.945 124V102.48H243.145V115.28L253.625 102.48H259.345V124H253.145V111.2L242.705 124H236.945ZM247.745 100.16C245.399 100.16 243.639 99.6533 242.465 98.64C241.292 97.6 240.692 96.04 240.665 93.96H244.745C244.772 94.8667 245.025 95.5867 245.505 96.12C245.985 96.6533 246.719 96.92 247.705 96.92C248.665 96.92 249.399 96.6533 249.905 96.12C250.439 95.5867 250.705 94.8667 250.705 93.96H254.865C254.865 96.04 254.265 97.6 253.065 98.64C251.865 99.6533 250.092 100.16 247.745 100.16ZM275.584 124.32C273.264 124.32 271.197 123.853 269.384 122.92C267.57 121.96 266.144 120.64 265.104 118.96C264.09 117.28 263.584 115.373 263.584 113.24C263.584 111.08 264.09 109.173 265.104 107.52C266.144 105.84 267.57 104.533 269.384 103.6C271.197 102.64 273.264 102.16 275.584 102.16C277.85 102.16 279.824 102.64 281.504 103.6C283.184 104.533 284.424 105.88 285.224 107.64L280.384 110.24C279.824 109.227 279.117 108.48 278.264 108C277.437 107.52 276.53 107.28 275.544 107.28C274.477 107.28 273.517 107.52 272.664 108C271.81 108.48 271.13 109.16 270.624 110.04C270.144 110.92 269.904 111.987 269.904 113.24C269.904 114.493 270.144 115.56 270.624 116.44C271.13 117.32 271.81 118 272.664 118.48C273.517 118.96 274.477 119.2 275.544 119.2C276.53 119.2 277.437 118.973 278.264 118.52C279.117 118.04 279.824 117.28 280.384 116.24L285.224 118.88C284.424 120.613 283.184 121.96 281.504 122.92C279.824 123.853 277.85 124.32 275.584 124.32ZM301.896 124V119.8L301.496 118.88V111.36C301.496 110.027 301.082 108.987 300.256 108.24C299.456 107.493 298.216 107.12 296.536 107.12C295.389 107.12 294.256 107.307 293.136 107.68C292.042 108.027 291.109 108.507 290.336 109.12L288.096 104.76C289.269 103.933 290.682 103.293 292.336 102.84C293.989 102.387 295.669 102.16 297.376 102.16C300.656 102.16 303.202 102.933 305.016 104.48C306.829 106.027 307.736 108.44 307.736 111.72V124H301.896ZM295.336 124.32C293.656 124.32 292.216 124.04 291.016 123.48C289.816 122.893 288.896 122.107 288.256 121.12C287.616 120.133 287.296 119.027 287.296 117.8C287.296 116.52 287.602 115.4 288.216 114.44C288.856 113.48 289.856 112.733 291.216 112.2C292.576 111.64 294.349 111.36 296.536 111.36H302.256V115H297.216C295.749 115 294.736 115.24 294.176 115.72C293.642 116.2 293.376 116.8 293.376 117.52C293.376 118.32 293.682 118.96 294.296 119.44C294.936 119.893 295.802 120.12 296.896 120.12C297.936 120.12 298.869 119.88 299.696 119.4C300.522 118.893 301.122 118.16 301.496 117.2L302.456 120.08C302.002 121.467 301.176 122.52 299.976 123.24C298.776 123.96 297.229 124.32 295.336 124.32ZM310.276 124L319.916 111.36L319.796 114.8L310.556 102.48H317.556L323.396 110.52L320.756 110.6L326.796 102.48H333.436L324.156 114.68V111.32L333.756 124H326.676L320.556 115.44L323.156 115.8L317.076 124H310.276Z" fill="#141414"/>
</svg>
