<svg width="29" height="28" viewBox="0 0 29 28" fill="none" xmlns="http://www.w3.org/2000/svg">
<rect x="0.5" width="28" height="28" rx="14" fill="url(#paint0_linear_5320_7966)"/>
<path d="M9.76367 17.7333H8.29121L6.09961 10.2683H7.43883L9.06502 16.1021L10.8245 10.2683H11.998L13.7454 16.1021L15.3716 10.2683H16.7109L14.5193 17.7333H13.0468L11.4086 12.2848L9.76025 17.7333H9.76367ZM21.8149 13.8617C22.4896 14.2025 22.8996 14.8214 22.8996 15.6C22.8996 16.2074 22.6775 16.7193 22.2249 17.1243C21.7705 17.5292 21.229 17.7317 20.5765 17.7317H17.2575V10.2667H20.3339C20.9642 10.2667 21.5074 10.4691 21.9379 10.8642C22.3803 11.2593 22.6024 11.7498 22.6024 12.3358C22.6024 12.986 22.3376 13.4881 21.8166 13.8601L21.8149 13.8617ZM20.3322 11.4206H18.5284V13.3827H20.3322C20.8959 13.3827 21.3281 12.9564 21.3281 12.4016C21.3281 11.8469 20.8959 11.4206 20.3322 11.4206ZM18.5284 16.5811H20.5748C21.1607 16.5811 21.6253 16.1218 21.6253 15.5358C21.6253 14.9498 21.1607 14.4905 20.5748 14.4905H18.5284V16.5811Z" fill="white"/>
<defs>
<linearGradient id="paint0_linear_5320_7966" x1="28.5" y1="0" x2="0.5" y2="28" gradientUnits="userSpaceOnUse">
<stop stop-color="#491174"/>
<stop offset="1" stop-color="#CC11AC"/>
</linearGradient>
</defs>
</svg>
