<svg width="48" height="48" viewBox="0 0 48 48" fill="none" xmlns="http://www.w3.org/2000/svg">
<rect width="48" height="48" rx="24" fill="#25D366"/>
<path d="M28.9044 25.2281C28.8668 25.2086 27.4601 24.4574 27.2101 24.3598C27.1081 24.32 26.9987 24.2812 26.8825 24.2812C26.6925 24.2812 26.5329 24.3839 26.4086 24.5856C26.2681 24.8121 25.8427 25.3513 25.7113 25.5124C25.6941 25.5337 25.6707 25.5591 25.6567 25.5591C25.6441 25.5591 25.4264 25.4619 25.3605 25.4308C23.8515 24.7199 22.7061 23.0105 22.549 22.7222C22.5266 22.6808 22.5257 22.6619 22.5255 22.6619C22.531 22.64 22.5817 22.5848 22.6079 22.5564C22.6845 22.4742 22.7675 22.3658 22.8479 22.261C22.8859 22.2113 22.924 22.1616 22.9614 22.1147C23.0779 21.9677 23.1298 21.8535 23.1899 21.7213L23.2214 21.6526C23.3683 21.3362 23.2429 21.0692 23.2023 20.983C23.1691 20.9108 22.5751 19.3562 22.5119 19.1929C22.3601 18.7987 22.1594 18.6152 21.8806 18.6152C21.8547 18.6152 21.8806 18.6152 21.7721 18.6202C21.6399 18.6262 20.9204 18.729 20.6023 18.9464C20.2649 19.1771 19.6942 19.9124 19.6942 21.2054C19.6942 22.3692 20.3752 23.468 20.6676 23.8859C20.6748 23.8964 20.6882 23.9178 20.7075 23.9485C21.8273 25.7219 23.2231 27.0362 24.6382 27.6492C26.0004 28.2394 26.6455 28.3076 27.0123 28.3076H27.0123C27.1664 28.3076 27.2898 28.2945 27.3986 28.2828L27.4677 28.2757C27.9383 28.2305 28.9725 27.6493 29.2077 26.9403C29.393 26.3819 29.4419 25.7718 29.3186 25.5504C29.2341 25.3998 29.0886 25.3241 28.9044 25.2281Z" fill="white"/>
<path d="M24.1721 14.3076C18.9221 14.3076 14.6509 18.5467 14.6509 23.7572C14.6509 25.4425 15.1019 27.0921 15.9563 28.5359L14.321 33.3597C14.2905 33.4497 14.3132 33.5491 14.3797 33.6168C14.4277 33.6659 14.4929 33.6923 14.5594 33.6923C14.5849 33.6923 14.6106 33.6884 14.6356 33.6805L19.6656 32.0821C21.042 32.8175 22.5977 33.2057 24.1721 33.2057C29.4216 33.2058 33.6924 28.9671 33.6924 23.7572C33.6924 18.5467 29.4216 14.3076 24.1721 14.3076ZM24.1721 31.2374C22.6906 31.2374 21.2557 30.8096 20.0222 30.0002C19.9808 29.9729 19.9326 29.959 19.8842 29.959C19.8585 29.959 19.8329 29.9629 19.8079 29.9708L17.2882 30.7717L18.1016 28.372C18.1279 28.2943 18.1147 28.2087 18.0663 28.1425C17.127 26.8591 16.6305 25.3427 16.6305 23.7572C16.6305 19.6321 20.0136 16.276 24.172 16.276C28.3299 16.276 31.7127 19.6321 31.7127 23.7572C31.7127 27.8818 28.33 31.2374 24.1721 31.2374Z" fill="white"/>
</svg>
