<svg width="24" height="24" viewBox="0 0 24 24" fill="none" xmlns="http://www.w3.org/2000/svg">
<path d="M16.203 13.053C16.1708 13.0362 14.965 12.3923 14.7508 12.3087C14.6633 12.2746 14.5696 12.2413 14.4699 12.2413C14.3071 12.2413 14.1704 12.3293 14.0638 12.5022C13.9434 12.6963 13.5788 13.1586 13.4661 13.2966C13.4514 13.3149 13.4313 13.3366 13.4193 13.3366C13.4085 13.3366 13.2219 13.2533 13.1654 13.2267C11.872 12.6174 10.8902 11.1521 10.7556 10.905C10.7364 10.8695 10.7355 10.8534 10.7354 10.8534C10.7401 10.8346 10.7836 10.7873 10.8061 10.7629C10.8717 10.6924 10.9429 10.5995 11.0117 10.5097C11.0443 10.4671 11.077 10.4245 11.109 10.3843C11.2089 10.2583 11.2534 10.1604 11.3049 10.0471L11.3319 9.98823C11.4578 9.71703 11.3503 9.48816 11.3155 9.41426C11.287 9.35242 10.7779 8.01988 10.7238 7.87988C10.5936 7.54206 10.4216 7.38477 10.1826 7.38477C10.1604 7.38477 10.1826 7.38477 10.0896 7.38902C9.97636 7.3942 9.35963 7.48225 9.08695 7.66866C8.79779 7.86637 8.30859 8.49659 8.30859 9.60492C8.30859 10.6024 8.8923 11.5443 9.14291 11.9025C9.14913 11.9115 9.16057 11.9298 9.17716 11.9562C10.1369 13.4762 11.3334 14.6027 12.5463 15.1282C13.7139 15.634 14.2669 15.6925 14.5812 15.6925H14.5813C14.7134 15.6925 14.8191 15.6812 14.9124 15.6713L14.9715 15.6652C15.3749 15.6264 16.2614 15.1282 16.463 14.5206C16.6219 14.0419 16.6637 13.519 16.5581 13.3292C16.4857 13.2001 16.3609 13.1352 16.203 13.053Z" fill="#25D366"/>
<path d="M12.1466 3.69238C7.64662 3.69238 3.98562 7.32588 3.98562 11.792C3.98562 13.2365 4.3722 14.6505 5.10452 15.8881L3.70283 20.0228C3.67672 20.0999 3.69614 20.1851 3.75316 20.2431C3.79432 20.2852 3.85016 20.3078 3.90718 20.3078C3.92903 20.3078 3.95104 20.3045 3.97251 20.2977L8.28389 18.9277C9.4637 19.558 10.7971 19.8908 12.1467 19.8908C16.6462 19.8908 20.3068 16.2577 20.3068 11.792C20.3068 7.32588 16.6462 3.69238 12.1466 3.69238ZM12.1466 18.2036C10.8768 18.2036 9.64684 17.8369 8.58961 17.1432C8.55406 17.1198 8.51279 17.1078 8.47125 17.1078C8.44929 17.1078 8.42728 17.1112 8.40586 17.118L6.24613 17.8045L6.94333 15.7476C6.96588 15.681 6.9546 15.6076 6.91306 15.5508C6.10797 14.4508 5.68239 13.151 5.68239 11.792C5.68239 8.25623 8.58222 5.3796 12.1466 5.3796C15.7105 5.3796 18.61 8.25623 18.61 11.792C18.61 15.3274 15.7106 18.2036 12.1466 18.2036Z" fill="#25D366"/>
</svg>
