<svg width="128" height="26" viewBox="0 0 128 26" fill="none" xmlns="http://www.w3.org/2000/svg">
<path d="M12.0329 24C18.6785 24 24.0658 18.6274 24.0658 12C24.0658 5.37258 18.6785 0 12.0329 0C5.38731 0 0 5.37258 0 12C0 18.6274 5.38731 24 12.0329 24Z" fill="#FC3F1D"/>
<path d="M13.6364 6.80001H12.5334C10.4777 6.80001 9.42486 7.85001 9.42486 9.35001C9.42486 11.05 10.1769 11.85 11.681 12.9L12.9345 13.75L9.32459 19.15H6.61719L9.8761 14.35C8.02103 13 6.96815 11.7 6.96815 9.55001C6.96815 6.80001 8.87336 4.95001 12.5334 4.95001H16.1432V19.2H13.6364V6.80001Z" fill="white"/>
<path d="M32.3376 24.7V20.95H41.4125V24.7H44.3705V18.5H42.6659V2.90002H32.1371L31.8864 10.35C31.736 14.6 31.4352 17.1 30.5828 18.5H29.4297V24.7H32.3376ZM34.6439 10.75L34.8445 5.35002H39.5574V18.5H33.5409C34.0924 17.25 34.4935 15 34.6439 10.75ZM51.0889 7.60002C47.6796 7.60002 45.3231 10 45.3231 14.4C45.3231 18.75 47.6796 21.2 51.0889 21.2C54.4982 21.2 56.9048 18.8 56.9048 14.4C56.9048 10.05 54.4982 7.60002 51.0889 7.60002ZM51.0889 18.75C49.3843 18.75 48.5319 17.4 48.5319 14.4C48.5319 11.35 49.3843 10.05 51.0889 10.05C52.7936 10.05 53.696 11.35 53.696 14.4C53.696 17.45 52.8437 18.75 51.0889 18.75ZM64.6259 21.2C66.0799 21.2 67.0826 20.95 67.8347 20.4V17.9C67.0325 18.45 66.13 18.8 64.8265 18.8C62.6204 18.8 61.718 17.1 61.718 14.4C61.718 11.55 62.821 10.1 64.8766 10.1C66.0799 10.1 67.2331 10.5 67.8848 10.9V8.30002C67.2331 7.95002 66.0799 7.70002 64.5257 7.70002C60.5648 7.70002 58.5092 10.55 58.5092 14.5C58.4591 18.8 60.4645 21.2 64.6259 21.2ZM79.5166 10.3V7.85002H69.1383V10.3H72.7983V20.95H75.9068V10.3H79.5166ZM90.3463 12.05C90.3463 8.90002 88.7419 7.70002 85.4328 7.70002C83.3772 7.70002 81.7728 8.35002 80.8202 8.90002V11.5C81.6725 10.9 83.4775 10.2 85.0819 10.2C86.586 10.2 87.2378 10.7 87.2378 12.1V12.85H86.7364C81.9734 12.85 79.8676 14.4 79.8676 17.05C79.8676 19.7 81.472 21.2 83.8786 21.2C85.6835 21.2 86.4857 20.6 87.0873 20H87.2378C87.2879 20.35 87.3882 20.8 87.4884 21.05H90.4967C90.3964 20 90.3463 18.9 90.3463 17.85V12.05ZM87.2879 17.85C86.8868 18.4 86.1849 18.9 85.0819 18.9C83.7783 18.9 83.1265 18.1 83.1265 16.95C83.1265 15.4 84.1794 14.85 86.8367 14.85H87.2879V17.85ZM98.0172 20.95C101.076 20.95 102.931 19.65 102.931 17.15C102.931 15.45 101.878 14.45 100.123 14.15C101.527 13.75 102.429 12.75 102.429 11.2C102.429 8.95002 100.925 7.85002 98.0674 7.85002H92.8531V20.95H98.0172ZM97.6161 10.2C98.7191 10.2 99.3709 10.65 99.3709 11.65C99.3709 12.55 98.7191 13.1 97.5159 13.1H95.9616V10.2H97.6161ZM97.7164 15.4C99.02 15.4 99.7219 15.85 99.7219 16.95C99.7219 18.15 98.9197 18.6 97.7164 18.6H96.0117V15.4H97.7164ZM112.707 20.95H116.217L111.253 13.9L115.615 7.85002H112.507L108.145 13.9V7.85002H105.036V20.95H108.145V14.5L112.707 20.95ZM126.796 12.05C126.796 8.90002 125.192 7.70002 121.882 7.70002C119.827 7.70002 118.222 8.35002 117.27 8.90002V11.5C118.122 10.9 119.927 10.2 121.532 10.2C123.036 10.2 123.687 10.7 123.687 12.1V12.85H123.186C118.423 12.85 116.317 14.4 116.317 17.05C116.317 19.7 117.922 21.2 120.328 21.2C122.133 21.2 122.935 20.6 123.537 20H123.687C123.738 20.35 123.838 20.8 123.938 21.05H126.946C126.846 20 126.796 18.9 126.796 17.85V12.05ZM123.687 17.85C123.286 18.4 122.584 18.9 121.481 18.9C120.178 18.9 119.526 18.1 119.526 16.95C119.526 15.4 120.579 14.85 123.236 14.85H123.687V17.85Z" fill="black"/>
</svg>
